<svg xmlns="http://www.w3.org/2000/svg" width="1100" height="700" viewBox="0 0 1100 700">
<rect width="100%" height="100%" fill="#0b0f1a"/>
<text x="90" y="34" font-family="Arial" font-size="23" fill="#e5e7eb">Polarized image: EVPA ticks (length ~ pol. fraction), Penrose-Walker</text>
<line x1="90.0" y1="620.0" x2="1060.0" y2="620.0" stroke="#64748b" stroke-width="1.5"/>
<line x1="90.0" y1="620.0" x2="90.0" y2="56.0" stroke="#64748b" stroke-width="1.5"/>
<text x="550" y="674" text-anchor="middle" font-family="Arial" font-size="16" fill="#cbd5e1">alpha / M</text>
<text x="24" y="350" text-anchor="middle" transform="rotate(-90 24 350)" font-family="Arial" font-size="16" fill="#cbd5e1">beta / M</text>
<text x="90" y="644" font-family="Arial" font-size="12" fill="#94a3b8">-9.85</text>
<text x="1060" y="644" text-anchor="end" font-family="Arial" font-size="12" fill="#94a3b8">9.85</text>
<text x="80" y="620" text-anchor="end" font-family="Arial" font-size="12" fill="#94a3b8">-5.73</text>
<text x="80" y="56" text-anchor="end" font-family="Arial" font-size="12" fill="#94a3b8">5.73</text>
<circle cx="575.0" cy="338.0" r="98.5" fill="#1e293b"/>
<line x1="209.2" y1="144.7" x2="251.1" y2="101.6" stroke="#fbbf24" stroke-width="2"/>
<line x1="250.8" y1="146.0" x2="296.2" y2="100.3" stroke="#fbbf24" stroke-width="2"/>
<line x1="292.3" y1="147.1" x2="341.4" y2="99.2" stroke="#fbbf24" stroke-width="2"/>
<line x1="333.7" y1="148.1" x2="386.6" y2="98.2" stroke="#fbbf24" stroke-width="2"/>
<line x1="375.1" y1="148.8" x2="431.9" y2="97.5" stroke="#fbbf24" stroke-width="2"/>
<line x1="416.6" y1="149.2" x2="477.1" y2="97.1" stroke="#fbbf24" stroke-width="2"/>
<line x1="458.3" y1="149.5" x2="522.0" y2="96.8" stroke="#fbbf24" stroke-width="2"/>
<line x1="500.4" y1="149.8" x2="566.5" y2="96.5" stroke="#fbbf24" stroke-width="2"/>
<line x1="85.5" y1="182.1" x2="114.9" y2="150.9" stroke="#fbbf24" stroke-width="2"/>
<line x1="127.7" y1="183.6" x2="159.4" y2="149.4" stroke="#fbbf24" stroke-width="2"/>
<line x1="169.6" y1="185.3" x2="204.1" y2="147.7" stroke="#fbbf24" stroke-width="2"/>
<line x1="211.3" y1="187.0" x2="249.1" y2="146.0" stroke="#fbbf24" stroke-width="2"/>
<line x1="252.7" y1="188.7" x2="294.3" y2="144.3" stroke="#fbbf24" stroke-width="2"/>
<line x1="293.9" y1="190.2" x2="339.8" y2="142.7" stroke="#fbbf24" stroke-width="2"/>
<line x1="334.9" y1="191.5" x2="385.5" y2="141.4" stroke="#fbbf24" stroke-width="2"/>
<line x1="375.7" y1="192.5" x2="431.3" y2="140.5" stroke="#fbbf24" stroke-width="2"/>
<line x1="416.6" y1="192.9" x2="477.0" y2="140.0" stroke="#fbbf24" stroke-width="2"/>
<line x1="457.9" y1="193.1" x2="522.4" y2="139.9" stroke="#fbbf24" stroke-width="2"/>
<line x1="499.8" y1="193.3" x2="567.2" y2="139.7" stroke="#fbbf24" stroke-width="2"/>
<line x1="542.5" y1="193.6" x2="611.1" y2="139.3" stroke="#fbbf24" stroke-width="2"/>
<line x1="585.4" y1="193.8" x2="654.8" y2="139.2" stroke="#fbbf24" stroke-width="2"/>
<line x1="628.2" y1="193.3" x2="698.7" y2="139.7" stroke="#fbbf24" stroke-width="2"/>
<line x1="45.5" y1="221.5" x2="68.2" y2="198.1" stroke="#fbbf24" stroke-width="2"/>
<line x1="88.0" y1="222.9" x2="112.3" y2="196.7" stroke="#fbbf24" stroke-width="2"/>
<line x1="130.3" y1="224.5" x2="156.7" y2="195.1" stroke="#fbbf24" stroke-width="2"/>
<line x1="172.4" y1="226.4" x2="201.3" y2="193.3" stroke="#fbbf24" stroke-width="2"/>
<line x1="214.1" y1="228.4" x2="246.2" y2="191.2" stroke="#fbbf24" stroke-width="2"/>
<line x1="255.5" y1="230.7" x2="291.5" y2="189.0" stroke="#fbbf24" stroke-width="2"/>
<line x1="296.4" y1="232.9" x2="337.2" y2="186.7" stroke="#fbbf24" stroke-width="2"/>
<line x1="336.9" y1="234.9" x2="383.4" y2="184.7" stroke="#fbbf24" stroke-width="2"/>
<line x1="376.9" y1="236.4" x2="430.0" y2="183.3" stroke="#fbbf24" stroke-width="2"/>
<line x1="416.8" y1="236.9" x2="476.8" y2="182.7" stroke="#fbbf24" stroke-width="2"/>
<line x1="457.1" y1="236.6" x2="523.2" y2="183.0" stroke="#fbbf24" stroke-width="2"/>
<line x1="498.6" y1="236.3" x2="568.3" y2="183.3" stroke="#fbbf24" stroke-width="2"/>
<line x1="542.0" y1="237.1" x2="611.6" y2="182.5" stroke="#fbbf24" stroke-width="2"/>
<line x1="585.8" y1="237.8" x2="654.4" y2="181.8" stroke="#fbbf24" stroke-width="2"/>
<line x1="628.7" y1="236.9" x2="698.3" y2="182.8" stroke="#fbbf24" stroke-width="2"/>
<line x1="670.7" y1="234.8" x2="742.9" y2="184.9" stroke="#fbbf24" stroke-width="2"/>
<line x1="712.7" y1="232.4" x2="787.5" y2="187.3" stroke="#fbbf24" stroke-width="2"/>
<line x1="48.0" y1="261.9" x2="65.7" y2="244.4" stroke="#fbbf24" stroke-width="2"/>
<line x1="90.8" y1="263.1" x2="109.6" y2="243.2" stroke="#fbbf24" stroke-width="2"/>
<line x1="133.4" y1="264.6" x2="153.6" y2="241.7" stroke="#fbbf24" stroke-width="2"/>
<line x1="175.8" y1="266.4" x2="197.9" y2="239.9" stroke="#fbbf24" stroke-width="2"/>
<line x1="217.8" y1="268.7" x2="242.5" y2="237.6" stroke="#fbbf24" stroke-width="2"/>
<line x1="259.5" y1="271.4" x2="287.5" y2="234.9" stroke="#fbbf24" stroke-width="2"/>
<line x1="300.5" y1="274.5" x2="333.2" y2="231.7" stroke="#fbbf24" stroke-width="2"/>
<line x1="340.6" y1="277.9" x2="379.7" y2="228.4" stroke="#fbbf24" stroke-width="2"/>
<line x1="379.8" y1="280.7" x2="427.2" y2="225.6" stroke="#fbbf24" stroke-width="2"/>
<line x1="418.0" y1="281.9" x2="475.6" y2="224.4" stroke="#fbbf24" stroke-width="2"/>
<line x1="456.1" y1="280.2" x2="524.2" y2="226.1" stroke="#fbbf24" stroke-width="2"/>
<line x1="496.3" y1="277.3" x2="570.7" y2="229.0" stroke="#fbbf24" stroke-width="2"/>
<line x1="542.5" y1="280.2" x2="611.2" y2="226.1" stroke="#fbbf24" stroke-width="2"/>
<line x1="589.4" y1="283.1" x2="650.9" y2="223.2" stroke="#fbbf24" stroke-width="2"/>
<line x1="630.8" y1="280.1" x2="696.2" y2="226.2" stroke="#fbbf24" stroke-width="2"/>
<line x1="671.4" y1="276.1" x2="742.2" y2="230.2" stroke="#fbbf24" stroke-width="2"/>
<line x1="712.7" y1="272.6" x2="787.6" y2="233.7" stroke="#fbbf24" stroke-width="2"/>
<line x1="50.4" y1="302.0" x2="63.3" y2="290.9" stroke="#fbbf24" stroke-width="2"/>
<line x1="93.5" y1="302.8" x2="106.8" y2="290.1" stroke="#fbbf24" stroke-width="2"/>
<line x1="136.6" y1="303.9" x2="150.5" y2="289.1" stroke="#fbbf24" stroke-width="2"/>
<line x1="179.4" y1="305.3" x2="194.2" y2="287.6" stroke="#fbbf24" stroke-width="2"/>
<line x1="222.1" y1="307.3" x2="238.2" y2="285.7" stroke="#fbbf24" stroke-width="2"/>
<line x1="264.5" y1="310.0" x2="282.5" y2="283.0" stroke="#fbbf24" stroke-width="2"/>
<line x1="306.4" y1="313.8" x2="327.3" y2="279.2" stroke="#fbbf24" stroke-width="2"/>
<line x1="347.3" y1="318.9" x2="373.0" y2="274.1" stroke="#fbbf24" stroke-width="2"/>
<line x1="386.6" y1="325.1" x2="420.4" y2="267.8" stroke="#fbbf24" stroke-width="2"/>
<line x1="423.0" y1="330.1" x2="470.6" y2="262.9" stroke="#fbbf24" stroke-width="2"/>
<line x1="52.4" y1="342.6" x2="61.3" y2="337.0" stroke="#fbbf24" stroke-width="2"/>
<line x1="95.9" y1="342.9" x2="104.5" y2="336.7" stroke="#fbbf24" stroke-width="2"/>
<line x1="139.3" y1="343.4" x2="147.7" y2="336.2" stroke="#fbbf24" stroke-width="2"/>
<line x1="182.7" y1="344.1" x2="191.0" y2="335.5" stroke="#fbbf24" stroke-width="2"/>
<line x1="226.1" y1="345.1" x2="234.3" y2="334.5" stroke="#fbbf24" stroke-width="2"/>
<line x1="269.4" y1="346.8" x2="277.6" y2="332.8" stroke="#fbbf24" stroke-width="2"/>
<line x1="312.8" y1="349.7" x2="320.9" y2="330.0" stroke="#fbbf24" stroke-width="2"/>
<line x1="356.3" y1="355.0" x2="364.0" y2="324.7" stroke="#fbbf24" stroke-width="2"/>
<line x1="400.4" y1="365.2" x2="406.5" y2="314.4" stroke="#fbbf24" stroke-width="2"/>
<line x1="53.7" y1="384.0" x2="60.0" y2="382.2" stroke="#fbbf24" stroke-width="2"/>
<line x1="97.4" y1="384.1" x2="103.0" y2="382.2" stroke="#fbbf24" stroke-width="2"/>
<line x1="141.1" y1="384.2" x2="145.9" y2="382.1" stroke="#fbbf24" stroke-width="2"/>
<line x1="184.9" y1="384.3" x2="188.8" y2="382.0" stroke="#fbbf24" stroke-width="2"/>
<line x1="228.6" y1="384.4" x2="231.7" y2="381.8" stroke="#fbbf24" stroke-width="2"/>
<line x1="272.4" y1="384.8" x2="274.6" y2="381.5" stroke="#fbbf24" stroke-width="2"/>
<line x1="316.4" y1="385.7" x2="317.3" y2="380.6" stroke="#fbbf24" stroke-width="2"/>
<line x1="358.5" y1="378.2" x2="361.8" y2="388.1" stroke="#fbbf24" stroke-width="2"/>
<line x1="394.0" y1="371.6" x2="412.9" y2="394.6" stroke="#fbbf24" stroke-width="2"/>
<line x1="54.0" y1="426.2" x2="59.7" y2="426.7" stroke="#fbbf24" stroke-width="2"/>
<line x1="97.7" y1="426.2" x2="102.6" y2="426.7" stroke="#fbbf24" stroke-width="2"/>
<line x1="141.6" y1="426.3" x2="145.5" y2="426.7" stroke="#fbbf24" stroke-width="2"/>
<line x1="185.5" y1="426.3" x2="188.2" y2="426.6" stroke="#fbbf24" stroke-width="2"/>
<line x1="229.4" y1="426.4" x2="230.9" y2="426.6" stroke="#fbbf24" stroke-width="2"/>
<line x1="273.3" y1="426.4" x2="273.7" y2="426.5" stroke="#fbbf24" stroke-width="2"/>
<line x1="316.8" y1="426.5" x2="316.9" y2="426.5" stroke="#fbbf24" stroke-width="2"/>
<line x1="358.6" y1="426.5" x2="361.7" y2="426.5" stroke="#fbbf24" stroke-width="2"/>
<line x1="394.2" y1="426.3" x2="412.8" y2="426.7" stroke="#fbbf24" stroke-width="2"/>
<line x1="53.3" y1="468.2" x2="60.4" y2="471.4" stroke="#fbbf24" stroke-width="2"/>
<line x1="97.0" y1="468.2" x2="103.3" y2="471.4" stroke="#fbbf24" stroke-width="2"/>
<line x1="140.8" y1="468.2" x2="146.2" y2="471.4" stroke="#fbbf24" stroke-width="2"/>
<line x1="184.7" y1="468.1" x2="189.0" y2="471.4" stroke="#fbbf24" stroke-width="2"/>
<line x1="228.7" y1="468.1" x2="231.7" y2="471.5" stroke="#fbbf24" stroke-width="2"/>
<line x1="272.8" y1="468.1" x2="274.2" y2="471.5" stroke="#fbbf24" stroke-width="2"/>
<line x1="316.5" y1="471.6" x2="317.2" y2="468.0" stroke="#fbbf24" stroke-width="2"/>
<line x1="358.0" y1="472.2" x2="362.4" y2="467.4" stroke="#fbbf24" stroke-width="2"/>
<line x1="395.7" y1="474.7" x2="411.2" y2="464.9" stroke="#fbbf24" stroke-width="2"/>
<line x1="52.3" y1="509.8" x2="61.4" y2="516.4" stroke="#fbbf24" stroke-width="2"/>
<line x1="95.9" y1="509.6" x2="104.4" y2="516.6" stroke="#fbbf24" stroke-width="2"/>
<line x1="139.7" y1="509.4" x2="147.4" y2="516.8" stroke="#fbbf24" stroke-width="2"/>
<line x1="183.6" y1="509.2" x2="190.1" y2="517.1" stroke="#fbbf24" stroke-width="2"/>
<line x1="227.6" y1="508.8" x2="232.7" y2="517.4" stroke="#fbbf24" stroke-width="2"/>
<line x1="272.0" y1="508.4" x2="275.0" y2="517.8" stroke="#fbbf24" stroke-width="2"/>
<line x1="316.8" y1="518.4" x2="316.9" y2="507.8" stroke="#fbbf24" stroke-width="2"/>
<line x1="357.8" y1="519.6" x2="362.5" y2="506.7" stroke="#fbbf24" stroke-width="2"/>
<line x1="397.2" y1="522.5" x2="409.8" y2="503.8" stroke="#fbbf24" stroke-width="2"/>
<line x1="432.9" y1="529.1" x2="460.8" y2="497.2" stroke="#fbbf24" stroke-width="2"/>
<line x1="51.0" y1="551.2" x2="62.7" y2="561.7" stroke="#fbbf24" stroke-width="2"/>
<line x1="94.7" y1="550.9" x2="105.7" y2="562.0" stroke="#fbbf24" stroke-width="2"/>
<line x1="138.4" y1="550.5" x2="148.6" y2="562.4" stroke="#fbbf24" stroke-width="2"/>
<line x1="182.3" y1="550.0" x2="191.4" y2="562.9" stroke="#fbbf24" stroke-width="2"/>
<line x1="226.4" y1="549.4" x2="234.0" y2="563.5" stroke="#fbbf24" stroke-width="2"/>
<line x1="270.8" y1="548.6" x2="276.2" y2="564.3" stroke="#fbbf24" stroke-width="2"/>
<line x1="315.7" y1="547.5" x2="318.0" y2="565.4" stroke="#fbbf24" stroke-width="2"/>
<line x1="359.2" y1="567.0" x2="361.1" y2="545.9" stroke="#fbbf24" stroke-width="2"/>
<line x1="399.6" y1="569.9" x2="407.4" y2="543.0" stroke="#fbbf24" stroke-width="2"/>
<line x1="439.0" y1="575.2" x2="454.6" y2="537.8" stroke="#fbbf24" stroke-width="2"/>
<line x1="478.3" y1="583.2" x2="502.0" y2="529.7" stroke="#fbbf24" stroke-width="2"/>
<line x1="520.3" y1="592.2" x2="546.7" y2="520.7" stroke="#fbbf24" stroke-width="2"/>
<line x1="49.8" y1="592.6" x2="63.9" y2="607.0" stroke="#fbbf24" stroke-width="2"/>
<line x1="93.4" y1="592.1" x2="107.0" y2="607.4" stroke="#fbbf24" stroke-width="2"/>
<line x1="137.1" y1="591.6" x2="150.0" y2="608.0" stroke="#fbbf24" stroke-width="2"/>
<line x1="180.9" y1="590.9" x2="192.8" y2="608.7" stroke="#fbbf24" stroke-width="2"/>
<line x1="224.9" y1="590.1" x2="235.4" y2="609.5" stroke="#fbbf24" stroke-width="2"/>
<line x1="269.2" y1="589.1" x2="277.8" y2="610.5" stroke="#fbbf24" stroke-width="2"/>
<line x1="313.9" y1="587.7" x2="319.8" y2="611.8" stroke="#fbbf24" stroke-width="2"/>
<line x1="358.9" y1="585.8" x2="361.4" y2="613.7" stroke="#fbbf24" stroke-width="2"/>
<line x1="402.8" y1="616.5" x2="404.2" y2="583.0" stroke="#fbbf24" stroke-width="2"/>
<line x1="444.1" y1="620.7" x2="449.5" y2="578.9" stroke="#fbbf24" stroke-width="2"/>
<line x1="485.9" y1="626.3" x2="494.4" y2="573.3" stroke="#fbbf24" stroke-width="2"/>
<line x1="529.4" y1="632.6" x2="537.5" y2="567.0" stroke="#fbbf24" stroke-width="2"/>
<line x1="575.7" y1="638.0" x2="577.9" y2="561.6" stroke="#fbbf24" stroke-width="2"/>
<line x1="615.6" y1="558.6" x2="624.6" y2="640.9" stroke="#fbbf24" stroke-width="2"/>
<line x1="652.0" y1="558.3" x2="674.9" y2="641.2" stroke="#fbbf24" stroke-width="2"/>
<line x1="688.5" y1="560.1" x2="725.1" y2="639.5" stroke="#fbbf24" stroke-width="2"/>
<line x1="725.9" y1="562.9" x2="774.3" y2="636.6" stroke="#fbbf24" stroke-width="2"/>
<line x1="92.1" y1="633.5" x2="108.3" y2="652.7" stroke="#fbbf24" stroke-width="2"/>
<line x1="135.7" y1="632.9" x2="151.3" y2="653.3" stroke="#fbbf24" stroke-width="2"/>
<line x1="179.5" y1="632.1" x2="194.2" y2="654.1" stroke="#fbbf24" stroke-width="2"/>
<line x1="223.4" y1="631.2" x2="236.9" y2="655.0" stroke="#fbbf24" stroke-width="2"/>
<line x1="267.5" y1="630.0" x2="279.5" y2="656.2" stroke="#fbbf24" stroke-width="2"/>
<line x1="311.8" y1="628.6" x2="321.9" y2="657.7" stroke="#fbbf24" stroke-width="2"/>
<line x1="356.3" y1="626.6" x2="364.0" y2="659.6" stroke="#fbbf24" stroke-width="2"/>
<line x1="400.8" y1="624.1" x2="406.2" y2="662.2" stroke="#fbbf24" stroke-width="2"/>
<line x1="445.1" y1="620.7" x2="448.6" y2="665.5" stroke="#fbbf24" stroke-width="2"/>
<line x1="488.7" y1="616.6" x2="491.6" y2="669.6" stroke="#fbbf24" stroke-width="2"/>
<line x1="531.2" y1="612.1" x2="535.8" y2="674.1" stroke="#fbbf24" stroke-width="2"/>
<line x1="572.0" y1="608.2" x2="581.6" y2="678.0" stroke="#fbbf24" stroke-width="2"/>
<line x1="611.3" y1="605.6" x2="628.9" y2="680.6" stroke="#fbbf24" stroke-width="2"/>
<line x1="649.6" y1="604.7" x2="677.3" y2="681.5" stroke="#fbbf24" stroke-width="2"/>
<line x1="687.8" y1="605.4" x2="725.8" y2="680.8" stroke="#fbbf24" stroke-width="2"/>
<line x1="726.4" y1="607.1" x2="773.9" y2="679.1" stroke="#fbbf24" stroke-width="2"/>
<line x1="178.1" y1="673.6" x2="195.6" y2="699.2" stroke="#fbbf24" stroke-width="2"/>
<line x1="221.8" y1="672.7" x2="238.5" y2="700.2" stroke="#fbbf24" stroke-width="2"/>
<line x1="265.7" y1="671.5" x2="281.3" y2="701.4" stroke="#fbbf24" stroke-width="2"/>
<line x1="309.7" y1="670.0" x2="324.0" y2="702.9" stroke="#fbbf24" stroke-width="2"/>
<line x1="353.7" y1="668.2" x2="366.6" y2="704.7" stroke="#fbbf24" stroke-width="2"/>
<line x1="397.6" y1="665.9" x2="409.4" y2="707.0" stroke="#fbbf24" stroke-width="2"/>
<line x1="441.2" y1="663.1" x2="452.4" y2="709.8" stroke="#fbbf24" stroke-width="2"/>
<line x1="484.3" y1="660.0" x2="496.0" y2="712.9" stroke="#fbbf24" stroke-width="2"/>
<line x1="526.5" y1="656.7" x2="540.4" y2="716.2" stroke="#fbbf24" stroke-width="2"/>
<line x1="567.7" y1="653.8" x2="585.9" y2="719.1" stroke="#fbbf24" stroke-width="2"/>
<line x1="607.9" y1="651.7" x2="632.4" y2="721.1" stroke="#fbbf24" stroke-width="2"/>
<line x1="647.5" y1="650.7" x2="679.5" y2="722.1" stroke="#fbbf24" stroke-width="2"/>
<line x1="686.8" y1="650.8" x2="726.8" y2="722.1" stroke="#fbbf24" stroke-width="2"/>
<line x1="264.0" y1="713.3" x2="283.0" y2="746.3" stroke="#fbbf24" stroke-width="2"/>
<line x1="307.6" y1="711.9" x2="326.0" y2="747.7" stroke="#fbbf24" stroke-width="2"/>
<line x1="351.3" y1="710.2" x2="369.0" y2="749.3" stroke="#fbbf24" stroke-width="2"/>
<line x1="394.8" y1="708.2" x2="412.2" y2="751.3" stroke="#fbbf24" stroke-width="2"/>
<line x1="438.0" y1="706.0" x2="455.6" y2="753.6" stroke="#fbbf24" stroke-width="2"/>
<line x1="480.8" y1="703.5" x2="499.5" y2="756.0" stroke="#fbbf24" stroke-width="2"/>
<line x1="523.0" y1="701.0" x2="544.0" y2="758.5" stroke="#fbbf24" stroke-width="2"/>
<line x1="564.4" y1="698.8" x2="589.2" y2="760.7" stroke="#fbbf24" stroke-width="2"/>
<line x1="605.2" y1="697.2" x2="635.0" y2="762.4" stroke="#fbbf24" stroke-width="2"/>
<line x1="645.6" y1="696.2" x2="681.3" y2="763.3" stroke="#fbbf24" stroke-width="2"/>
</svg>
