<svg xmlns="http://www.w3.org/2000/svg" width="1100" height="700" viewBox="0 0 1100 700">
<rect width="100%" height="100%" fill="#0b0f1a"/>
<text x="90" y="34" font-family="Arial" font-size="23" fill="#e5e7eb">Kerr shadow critical curve: analytic (line) vs traced (dots), i=60</text>
<line x1="90.0" y1="620.0" x2="1060.0" y2="620.0" stroke="#64748b" stroke-width="1.5"/>
<line x1="90.0" y1="620.0" x2="90.0" y2="56.0" stroke="#64748b" stroke-width="1.5"/>
<text x="550" y="674" text-anchor="middle" font-family="Arial" font-size="16" fill="#cbd5e1">alpha / M</text>
<text x="24" y="350" text-anchor="middle" transform="rotate(-90 24 350)" font-family="Arial" font-size="16" fill="#cbd5e1">beta / M</text>
<text x="90" y="644" font-family="Arial" font-size="12" fill="#94a3b8">-7.66</text>
<text x="1060" y="644" text-anchor="end" font-family="Arial" font-size="12" fill="#94a3b8">7.66</text>
<text x="80" y="620" text-anchor="end" font-family="Arial" font-size="12" fill="#94a3b8">-4.45</text>
<text x="80" y="56" text-anchor="end" font-family="Arial" font-size="12" fill="#94a3b8">4.45</text>
<line x1="575.0" y1="620.0" x2="575.0" y2="56.0" stroke="#334155" stroke-width="1"/>
<polyline points="903.95,338.00 903.94,335.13 903.90,332.26 903.84,329.39 903.75,326.52 903.64,323.65 903.50,320.78 903.33,317.92 903.15,315.05 902.93,312.19 902.70,309.33 902.43,306.47 902.15,303.62 901.83,300.76 901.50,297.91 901.13,295.06 900.75,292.22 900.34,289.38 899.90,286.54 899.44,283.71 898.95,280.88 898.44,278.05 897.90,275.23 897.34,272.42 896.76,269.61 896.15,266.80 895.52,264.00 894.86,261.21 894.18,258.42 893.47,255.64 892.74,252.86 891.98,250.09 891.21,247.33 890.40,244.57 889.58,241.82 888.72,239.08 887.85,236.35 886.95,233.62 886.03,230.91 885.08,228.19 884.11,225.49 883.12,222.80 882.10,220.12 881.06,217.44 880.00,214.77 878.91,212.12 877.80,209.47 876.67,206.83 875.51,204.20 874.33,201.59 873.13,198.98 871.90,196.38 870.66,193.80 869.39,191.22 868.10,188.66 866.78,186.11 865.44,183.57 864.09,181.04 862.70,178.52 861.30,176.02 859.88,173.53 858.43,171.05 856.96,168.58 855.47,166.13 853.96,163.68 852.43,161.26 850.88,158.84 849.31,156.44 847.71,154.05 846.10,151.68 844.46,149.32 842.80,146.98 841.13,144.65 839.43,142.33 837.71,140.03 835.97,137.75 834.21,135.48 832.44,133.22 830.64,130.99 828.82,128.76 826.99,126.56 825.13,124.37 823.26,122.19 821.37,120.03 819.46,117.89 817.53,115.77 815.58,113.66 813.61,111.57 811.63,109.49 809.62,107.44 807.60,105.40 805.56,103.38 803.51,101.37 801.43,99.39 799.34,97.42 797.23,95.47 795.11,93.54 792.97,91.63 790.81,89.74 788.63,87.87 786.44,86.01 784.24,84.18 782.01,82.36 779.78,80.56 777.52,78.79 775.25,77.03 772.97,75.29 770.67,73.57 768.35,71.87 766.02,70.20 763.68,68.54 761.32,66.90 758.95,65.29 756.56,63.69 754.16,62.12 751.74,60.57 749.32,59.04 746.87,57.53 744.42,56.04 741.95,54.57 739.47,53.12 736.98,51.70 734.48,50.30 731.96,48.91 729.43,47.56 726.89,46.22 724.34,44.90 721.78,43.61 719.20,42.34 716.62,41.10 714.02,39.87 711.41,38.67 708.80,37.49 706.17,36.33 703.53,35.20 700.88,34.09 698.23,33.00 695.56,31.94 692.88,30.90 690.20,29.88 687.51,28.89 684.81,27.92 682.09,26.97 679.38,26.05 676.65,25.15 673.92,24.28 671.18,23.42 668.43,22.60 665.67,21.79 662.91,21.02 660.14,20.26 657.36,19.53 654.58,18.82 651.79,18.14 649.00,17.48 646.20,16.85 643.39,16.24 640.58,15.66 637.77,15.10 634.95,14.56 632.12,14.05 629.29,13.56 626.46,13.10 623.62,12.66 620.78,12.25 617.94,11.87 615.09,11.50 612.24,11.17 609.38,10.85 606.53,10.57 603.67,10.30 600.81,10.07 597.95,9.85 595.08,9.67 592.22,9.50 589.35,9.36 586.48,9.25 583.61,9.16 580.74,9.10 577.87,9.06 575.00,9.05 572.13,9.06 569.26,9.10 566.39,9.16 563.52,9.25 560.65,9.36 557.78,9.50 554.92,9.67 552.05,9.85 549.19,10.07 546.33,10.30 543.47,10.57 540.62,10.85 537.76,11.17 534.91,11.50 532.06,11.87 529.22,12.25 526.38,12.66 523.54,13.10 520.71,13.56 517.88,14.05 515.05,14.56 512.23,15.10 509.42,15.66 506.61,16.24 503.80,16.85 501.00,17.48 498.21,18.14 495.42,18.82 492.64,19.53 489.86,20.26 487.09,21.02 484.33,21.79 481.57,22.60 478.82,23.42 476.08,24.28 473.35,25.15 470.62,26.05 467.91,26.97 465.19,27.92 462.49,28.89 459.80,29.88 457.12,30.90 454.44,31.94 451.77,33.00 449.12,34.09 446.47,35.20 443.83,36.33 441.20,37.49 438.59,38.67 435.98,39.87 433.38,41.10 430.80,42.34 428.22,43.61 425.66,44.90 423.11,46.22 420.57,47.56 418.04,48.91 415.52,50.30 413.02,51.70 410.53,53.12 408.05,54.57 405.58,56.04 403.13,57.53 400.68,59.04 398.26,60.57 395.84,62.12 393.44,63.69 391.05,65.29 388.68,66.90 386.32,68.54 383.98,70.20 381.65,71.87 379.33,73.57 377.03,75.29 374.75,77.03 372.48,78.79 370.22,80.56 367.99,82.36 365.76,84.18 363.56,86.01 361.37,87.87 359.19,89.74 357.03,91.63 354.89,93.54 352.77,95.47 350.66,97.42 348.57,99.39 346.49,101.37 344.44,103.38 342.40,105.40 340.38,107.44 338.37,109.49 336.39,111.57 334.42,113.66 332.47,115.77 330.54,117.89 328.63,120.03 326.74,122.19 324.87,124.37 323.01,126.56 321.18,128.76 319.36,130.99 317.56,133.22 315.79,135.48 314.03,137.75 312.29,140.03 310.57,142.33 308.87,144.65 307.20,146.98 305.54,149.32 303.90,151.68 302.29,154.05 300.69,156.44 299.12,158.84 297.57,161.26 296.04,163.68 294.53,166.13 293.04,168.58 291.57,171.05 290.12,173.53 288.70,176.02 287.30,178.52 285.91,181.04 284.56,183.57 283.22,186.11 281.90,188.66 280.61,191.22 279.34,193.80 278.10,196.38 276.87,198.98 275.67,201.59 274.49,204.20 273.33,206.83 272.20,209.47 271.09,212.12 270.00,214.77 268.94,217.44 267.90,220.12 266.88,222.80 265.89,225.49 264.92,228.19 263.97,230.91 263.05,233.62 262.15,236.35 261.28,239.08 260.42,241.82 259.60,244.57 258.79,247.33 258.02,250.09 257.26,252.86 256.53,255.64 255.82,258.42 255.14,261.21 254.48,264.00 253.85,266.80 253.24,269.61 252.66,272.42 252.10,275.23 251.56,278.05 251.05,280.88 250.56,283.71 250.10,286.54 249.66,289.38 249.25,292.22 248.87,295.06 248.50,297.91 248.17,300.76 247.85,303.62 247.57,306.47 247.30,309.33 247.07,312.19 246.85,315.05 246.67,317.92 246.50,320.78 246.36,323.65 246.25,326.52 246.16,329.39 246.10,332.26 246.06,335.13 246.05,338.00 246.06,340.87 246.10,343.74 246.16,346.61 246.25,349.48 246.36,352.35 246.50,355.22 246.67,358.08 246.85,360.95 247.07,363.81 247.30,366.67 247.57,369.53 247.85,372.38 248.17,375.24 248.50,378.09 248.87,380.94 249.25,383.78 249.66,386.62 250.10,389.46 250.56,392.29 251.05,395.12 251.56,397.95 252.10,400.77 252.66,403.58 253.24,406.39 253.85,409.20 254.48,412.00 255.14,414.79 255.82,417.58 256.53,420.36 257.26,423.14 258.02,425.91 258.79,428.67 259.60,431.43 260.42,434.18 261.28,436.92 262.15,439.65 263.05,442.38 263.97,445.09 264.92,447.81 265.89,450.51 266.88,453.20 267.90,455.88 268.94,458.56 270.00,461.23 271.09,463.88 272.20,466.53 273.33,469.17 274.49,471.80 275.67,474.41 276.87,477.02 278.10,479.62 279.34,482.20 280.61,484.78 281.90,487.34 283.22,489.89 284.56,492.43 285.91,494.96 287.30,497.48 288.70,499.98 290.12,502.47 291.57,504.95 293.04,507.42 294.53,509.87 296.04,512.32 297.57,514.74 299.12,517.16 300.69,519.56 302.29,521.95 303.90,524.32 305.54,526.68 307.20,529.02 308.87,531.35 310.57,533.67 312.29,535.97 314.03,538.25 315.79,540.52 317.56,542.78 319.36,545.01 321.18,547.24 323.01,549.44 324.87,551.63 326.74,553.81 328.63,555.97 330.54,558.11 332.47,560.23 334.42,562.34 336.39,564.43 338.37,566.51 340.38,568.56 342.40,570.60 344.44,572.62 346.49,574.63 348.57,576.61 350.66,578.58 352.77,580.53 354.89,582.46 357.03,584.37 359.19,586.26 361.37,588.13 363.56,589.99 365.76,591.82 367.99,593.64 370.22,595.44 372.48,597.21 374.75,598.97 377.03,600.71 379.33,602.43 381.65,604.13 383.98,605.80 386.32,607.46 388.68,609.10 391.05,610.71 393.44,612.31 395.84,613.88 398.26,615.43 400.68,616.96 403.13,618.47 405.58,619.96 408.05,621.43 410.53,622.88 413.02,624.30 415.52,625.70 418.04,627.09 420.57,628.44 423.11,629.78 425.66,631.10 428.22,632.39 430.80,633.66 433.38,634.90 435.98,636.13 438.59,637.33 441.20,638.51 443.83,639.67 446.47,640.80 449.12,641.91 451.77,643.00 454.44,644.06 457.12,645.10 459.80,646.12 462.49,647.11 465.19,648.08 467.91,649.03 470.62,649.95 473.35,650.85 476.08,651.72 478.82,652.58 481.57,653.40 484.33,654.21 487.09,654.98 489.86,655.74 492.64,656.47 495.42,657.18 498.21,657.86 501.00,658.52 503.80,659.15 506.61,659.76 509.42,660.34 512.23,660.90 515.05,661.44 517.88,661.95 520.71,662.44 523.54,662.90 526.38,663.34 529.22,663.75 532.06,664.13 534.91,664.50 537.76,664.83 540.62,665.15 543.47,665.43 546.33,665.70 549.19,665.93 552.05,666.15 554.92,666.33 557.78,666.50 560.65,666.64 563.52,666.75 566.39,666.84 569.26,666.90 572.13,666.94 575.00,666.95 577.87,666.94 580.74,666.90 583.61,666.84 586.48,666.75 589.35,666.64 592.22,666.50 595.08,666.33 597.95,666.15 600.81,665.93 603.67,665.70 606.53,665.43 609.38,665.15 612.24,664.83 615.09,664.50 617.94,664.13 620.78,663.75 623.62,663.34 626.46,662.90 629.29,662.44 632.12,661.95 634.95,661.44 637.77,660.90 640.58,660.34 643.39,659.76 646.20,659.15 649.00,658.52 651.79,657.86 654.58,657.18 657.36,656.47 660.14,655.74 662.91,654.98 665.67,654.21 668.43,653.40 671.18,652.58 673.92,651.72 676.65,650.85 679.38,649.95 682.09,649.03 684.81,648.08 687.51,647.11 690.20,646.12 692.88,645.10 695.56,644.06 698.23,643.00 700.88,641.91 703.53,640.80 706.17,639.67 708.80,638.51 711.41,637.33 714.02,636.13 716.62,634.90 719.20,633.66 721.78,632.39 724.34,631.10 726.89,629.78 729.43,628.44 731.96,627.09 734.48,625.70 736.98,624.30 739.47,622.88 741.95,621.43 744.42,619.96 746.87,618.47 749.32,616.96 751.74,615.43 754.16,613.88 756.56,612.31 758.95,610.71 761.32,609.10 763.68,607.46 766.02,605.80 768.35,604.13 770.67,602.43 772.97,600.71 775.25,598.97 777.52,597.21 779.78,595.44 782.01,593.64 784.24,591.82 786.44,589.99 788.63,588.13 790.81,586.26 792.97,584.37 795.11,582.46 797.23,580.53 799.34,578.58 801.43,576.61 803.51,574.63 805.56,572.62 807.60,570.60 809.62,568.56 811.63,566.51 813.61,564.43 815.58,562.34 817.53,560.23 819.46,558.11 821.37,555.97 823.26,553.81 825.13,551.63 826.99,549.44 828.82,547.24 830.64,545.01 832.44,542.78 834.21,540.52 835.97,538.25 837.71,535.97 839.43,533.67 841.13,531.35 842.80,529.02 844.46,526.68 846.10,524.32 847.71,521.95 849.31,519.56 850.88,517.16 852.43,514.74 853.96,512.32 855.47,509.87 856.96,507.42 858.43,504.95 859.88,502.47 861.30,499.98 862.70,497.48 864.09,494.96 865.44,492.43 866.78,489.89 868.10,487.34 869.39,484.78 870.66,482.20 871.90,479.62 873.13,477.02 874.33,474.41 875.51,471.80 876.67,469.17 877.80,466.53 878.91,463.88 880.00,461.23 881.06,458.56 882.10,455.88 883.12,453.20 884.11,450.51 885.08,447.81 886.03,445.09 886.95,442.38 887.85,439.65 888.72,436.92 889.58,434.18 890.40,431.43 891.21,428.67 891.98,425.91 892.74,423.14 893.47,420.36 894.18,417.58 894.86,414.79 895.52,412.00 896.15,409.20 896.76,406.39 897.34,403.58 897.90,400.77 898.44,397.95 898.95,395.12 899.44,392.29 899.90,389.46 900.34,386.62 900.75,383.78 901.13,380.94 901.50,378.09 901.83,375.24 902.15,372.38 902.43,369.53 902.70,366.67 902.93,363.81 903.15,360.95 903.33,358.08 903.50,355.22 903.64,352.35 903.75,349.48 903.84,346.61 903.90,343.74 903.94,340.87" fill="none" stroke="#38bdf8" stroke-width="2.2"/>
<circle cx="903.6" cy="338.0" r="2.0" fill="#38bdf8"/>
<circle cx="901.8" cy="303.6" r="2.0" fill="#38bdf8"/>
<circle cx="896.4" cy="269.7" r="2.0" fill="#38bdf8"/>
<circle cx="887.5" cy="236.5" r="2.0" fill="#38bdf8"/>
<circle cx="875.2" cy="204.3" r="2.0" fill="#38bdf8"/>
<circle cx="859.6" cy="173.7" r="2.0" fill="#38bdf8"/>
<circle cx="840.9" cy="144.8" r="2.0" fill="#38bdf8"/>
<circle cx="819.2" cy="118.1" r="2.0" fill="#38bdf8"/>
<circle cx="794.9" cy="93.8" r="2.0" fill="#38bdf8"/>
<circle cx="768.2" cy="72.1" r="2.0" fill="#38bdf8"/>
<circle cx="739.3" cy="53.4" r="2.0" fill="#38bdf8"/>
<circle cx="708.7" cy="37.8" r="2.0" fill="#38bdf8"/>
<circle cx="676.5" cy="25.5" r="2.0" fill="#38bdf8"/>
<circle cx="643.3" cy="16.6" r="2.0" fill="#38bdf8"/>
<circle cx="609.4" cy="11.2" r="2.0" fill="#38bdf8"/>
<circle cx="575.0" cy="9.4" r="2.0" fill="#38bdf8"/>
<circle cx="540.6" cy="11.2" r="2.0" fill="#38bdf8"/>
<circle cx="506.7" cy="16.6" r="2.0" fill="#38bdf8"/>
<circle cx="473.5" cy="25.5" r="2.0" fill="#38bdf8"/>
<circle cx="441.3" cy="37.8" r="2.0" fill="#38bdf8"/>
<circle cx="410.7" cy="53.4" r="2.0" fill="#38bdf8"/>
<circle cx="381.8" cy="72.1" r="2.0" fill="#38bdf8"/>
<circle cx="355.1" cy="93.8" r="2.0" fill="#38bdf8"/>
<circle cx="330.8" cy="118.1" r="2.0" fill="#38bdf8"/>
<circle cx="309.1" cy="144.8" r="2.0" fill="#38bdf8"/>
<circle cx="290.4" cy="173.7" r="2.0" fill="#38bdf8"/>
<circle cx="274.8" cy="204.3" r="2.0" fill="#38bdf8"/>
<circle cx="262.5" cy="236.5" r="2.0" fill="#38bdf8"/>
<circle cx="253.6" cy="269.7" r="2.0" fill="#38bdf8"/>
<circle cx="248.2" cy="303.6" r="2.0" fill="#38bdf8"/>
<circle cx="246.4" cy="338.0" r="2.0" fill="#38bdf8"/>
<circle cx="248.2" cy="372.4" r="2.0" fill="#38bdf8"/>
<circle cx="253.6" cy="406.3" r="2.0" fill="#38bdf8"/>
<circle cx="262.5" cy="439.5" r="2.0" fill="#38bdf8"/>
<circle cx="274.8" cy="471.7" r="2.0" fill="#38bdf8"/>
<circle cx="290.4" cy="502.3" r="2.0" fill="#38bdf8"/>
<circle cx="309.1" cy="531.2" r="2.0" fill="#38bdf8"/>
<circle cx="330.8" cy="557.9" r="2.0" fill="#38bdf8"/>
<circle cx="355.1" cy="582.2" r="2.0" fill="#38bdf8"/>
<circle cx="381.8" cy="603.9" r="2.0" fill="#38bdf8"/>
<circle cx="410.7" cy="622.6" r="2.0" fill="#38bdf8"/>
<circle cx="441.3" cy="638.2" r="2.0" fill="#38bdf8"/>
<circle cx="473.5" cy="650.5" r="2.0" fill="#38bdf8"/>
<circle cx="506.7" cy="659.4" r="2.0" fill="#38bdf8"/>
<circle cx="540.6" cy="664.8" r="2.0" fill="#38bdf8"/>
<circle cx="575.0" cy="666.6" r="2.0" fill="#38bdf8"/>
<circle cx="609.4" cy="664.8" r="2.0" fill="#38bdf8"/>
<circle cx="643.3" cy="659.4" r="2.0" fill="#38bdf8"/>
<circle cx="676.5" cy="650.5" r="2.0" fill="#38bdf8"/>
<circle cx="708.7" cy="638.2" r="2.0" fill="#38bdf8"/>
<circle cx="739.3" cy="622.6" r="2.0" fill="#38bdf8"/>
<circle cx="768.2" cy="603.9" r="2.0" fill="#38bdf8"/>
<circle cx="794.9" cy="582.2" r="2.0" fill="#38bdf8"/>
<circle cx="819.2" cy="557.9" r="2.0" fill="#38bdf8"/>
<circle cx="840.9" cy="531.2" r="2.0" fill="#38bdf8"/>
<circle cx="859.6" cy="502.3" r="2.0" fill="#38bdf8"/>
<circle cx="875.2" cy="471.7" r="2.0" fill="#38bdf8"/>
<circle cx="887.5" cy="439.5" r="2.0" fill="#38bdf8"/>
<circle cx="896.4" cy="406.3" r="2.0" fill="#38bdf8"/>
<circle cx="901.8" cy="372.4" r="2.0" fill="#38bdf8"/>
<polyline points="307.99,314.36 308.85,304.36 309.71,296.73 310.57,290.33 311.43,284.69 312.29,279.62 313.16,274.95 314.02,270.62 314.88,266.57 315.74,262.73 316.61,259.10 317.47,255.63 318.33,252.31 319.20,249.12 320.06,246.05 320.93,243.08 321.80,240.21 322.66,237.43 323.53,234.73 324.40,232.11 325.26,229.56 326.13,227.07 327.00,224.64 327.87,222.27 328.74,219.95 329.61,217.68 330.48,215.46 331.35,213.28 332.22,211.15 333.09,209.05 333.96,207.00 334.83,204.98 335.70,203.00 336.58,201.05 337.45,199.13 338.32,197.25 339.20,195.39 340.07,193.56 340.94,191.76 341.82,189.99 342.70,188.24 343.57,186.51 344.45,184.81 345.32,183.14 346.20,181.48 347.08,179.85 347.96,178.24 348.84,176.65 349.71,175.07 350.59,173.52 351.47,171.99 352.35,170.47 353.23,168.97 354.12,167.49 355.00,166.03 355.88,164.58 356.76,163.15 357.64,161.73 358.53,160.33 359.41,158.94 360.30,157.57 361.18,156.21 362.07,154.87 362.95,153.54 363.84,152.22 364.72,150.92 365.61,149.63 366.50,148.35 367.39,147.08 368.27,145.82 369.16,144.58 370.05,143.35 370.94,142.13 371.83,140.92 372.72,139.72 373.61,138.54 374.50,137.36 375.40,136.19 376.29,135.04 377.18,133.89 378.07,132.75 378.97,131.63 379.86,130.51 380.76,129.40 381.65,128.30 382.55,127.21 383.44,126.13 384.34,125.06 385.24,124.00 386.14,122.94 387.03,121.90 387.93,120.86 388.83,119.83 389.73,118.81 390.63,117.80 391.53,116.79 392.43,115.80 393.33,114.81 394.24,113.82 395.14,112.85 396.04,111.88 396.94,110.92 397.85,109.97 398.75,109.03 399.66,108.09 400.56,107.16 401.47,106.23 402.37,105.31 403.28,104.40 404.19,103.50 405.10,102.60 406.00,101.71 406.91,100.83 407.82,99.95 408.73,99.08 409.64,98.21 410.55,97.35 411.47,96.50 412.38,95.65 413.29,94.81 414.20,93.98 415.12,93.15 416.03,92.33 416.94,91.51 417.86,90.70 418.77,89.89 419.69,89.09 420.61,88.30 421.52,87.51 422.44,86.72 423.36,85.95 424.28,85.17 425.19,84.41 426.11,83.65 427.03,82.89 427.95,82.14 428.88,81.39 429.80,80.65 430.72,79.91 431.64,79.18 432.57,78.46 433.49,77.74 434.41,77.02 435.34,76.31 436.26,75.61 437.19,74.90 438.11,74.21 439.04,73.52 439.97,72.83 440.90,72.15 441.82,71.47 442.75,70.80 443.68,70.13 444.61,69.47 445.54,68.81 446.47,68.16 447.41,67.51 448.34,66.86 449.27,66.22 450.20,65.58 451.14,64.95 452.07,64.33 453.01,63.70 453.94,63.08 454.88,62.47 455.81,61.86 456.75,61.25 457.69,60.65 458.63,60.05 459.56,59.46 460.50,58.87 461.44,58.29 462.38,57.71 463.32,57.13 464.27,56.56 465.21,55.99 466.15,55.43 467.09,54.87 468.04,54.31 468.98,53.76 469.92,53.21 470.87,52.67 471.82,52.13 472.76,51.59 473.71,51.06 474.66,50.53 475.60,50.00 476.55,49.48 477.50,48.97 478.45,48.45 479.40,47.94 480.35,47.44 481.30,46.94 482.25,46.44 483.21,45.94 484.16,45.45 485.11,44.97 486.07,44.48 487.02,44.01 487.98,43.53 488.93,43.06 489.89,42.59 490.85,42.12 491.80,41.66 492.76,41.21 493.72,40.75 494.68,40.30 495.64,39.86 496.60,39.41 497.56,38.97 498.52,38.54 499.48,38.11 500.45,37.68 501.41,37.25 502.37,36.83 503.34,36.41 504.30,36.00 505.27,35.59 506.23,35.18 507.20,34.78 508.17,34.37 509.14,33.98 510.10,33.58 511.07,33.19 512.04,32.81 513.01,32.42 513.98,32.04 514.95,31.67 515.93,31.29 516.90,30.92 517.87,30.56 518.85,30.19 519.82,29.84 520.79,29.48 521.77,29.13 522.75,28.78 523.72,28.43 524.70,28.09 525.68,27.75 526.65,27.41 527.63,27.08 528.61,26.75 529.59,26.42 530.57,26.10 531.55,25.78 532.54,25.46 533.52,25.15 534.50,24.84 535.49,24.54 536.47,24.23 537.45,23.93 538.44,23.64 539.43,23.34 540.41,23.05 541.40,22.77 542.39,22.48 543.38,22.20 544.36,21.93 545.35,21.65 546.34,21.38 547.34,21.11 548.33,20.85 549.32,20.59 550.31,20.33 551.30,20.08 552.30,19.83 553.29,19.58 554.29,19.33 555.28,19.09 556.28,18.86 557.28,18.62 558.27,18.39 559.27,18.16 560.27,17.94 561.27,17.71 562.27,17.50 563.27,17.28 564.27,17.07 565.27,16.86 566.27,16.65 567.28,16.45 568.28,16.25 569.29,16.05 570.29,15.86 571.30,15.67 572.30,15.48 573.31,15.30 574.31,15.12 575.32,14.94 576.33,14.77 577.34,14.60 578.35,14.43 579.36,14.27 580.37,14.11 581.38,13.95 582.39,13.80 583.41,13.64 584.42,13.50 585.43,13.35 586.45,13.21 587.46,13.07 588.48,12.94 589.50,12.80 590.51,12.68 591.53,12.55 592.55,12.43 593.57,12.31 594.59,12.19 595.61,12.08 596.63,11.97 597.65,11.87 598.67,11.76 599.69,11.66 600.72,11.57 601.74,11.47 602.77,11.38 603.79,11.30 604.82,11.21 605.84,11.13 606.87,11.06 607.90,10.98 608.93,10.91 609.95,10.85 610.98,10.78 612.01,10.72 613.05,10.67 614.08,10.61 615.11,10.56 616.14,10.52 617.17,10.47 618.21,10.43 619.24,10.39 620.28,10.36 621.31,10.33 622.35,10.30 623.39,10.28 624.43,10.26 625.46,10.24 626.50,10.23 627.54,10.22 628.58,10.21 629.62,10.21 630.67,10.21 631.71,10.21 632.75,10.22 633.79,10.23 634.84,10.24 635.88,10.26 636.93,10.28 637.97,10.30 639.02,10.33 640.07,10.36 641.12,10.39 642.16,10.43 643.21,10.47 644.26,10.51 645.31,10.56 646.36,10.61 647.42,10.67 648.47,10.73 649.52,10.79 650.58,10.85 651.63,10.92 652.69,10.99 653.74,11.07 654.80,11.15 655.85,11.23 656.91,11.32 657.97,11.41 659.03,11.50 660.09,11.60 661.15,11.70 662.21,11.81 663.27,11.91 664.33,12.03 665.40,12.14 666.46,12.26 667.52,12.38 668.59,12.51 669.65,12.64 670.72,12.77 671.79,12.91 672.85,13.05 673.92,13.20 674.99,13.35 676.06,13.50 677.13,13.65 678.20,13.81 679.27,13.98 680.34,14.15 681.42,14.32 682.49,14.49 683.56,14.67 684.64,14.85 685.71,15.04 686.79,15.23 687.86,15.43 688.94,15.62 690.02,15.83 691.10,16.03 692.18,16.24 693.26,16.46 694.34,16.68 695.42,16.90 696.50,17.12 697.58,17.35 698.67,17.59 699.75,17.83 700.83,18.07 701.92,18.32 703.00,18.57 704.09,18.82 705.18,19.08 706.27,19.34 707.35,19.61 708.44,19.88 709.53,20.16 710.62,20.44 711.71,20.72 712.81,21.01 713.90,21.30 714.99,21.60 716.08,21.90 717.18,22.20 718.27,22.51 719.37,22.83 720.47,23.15 721.56,23.47 722.66,23.80 723.76,24.13 724.86,24.46 725.96,24.80 727.06,25.15 728.16,25.50 729.26,25.85 730.36,26.21 731.46,26.58 732.57,26.95 733.67,27.32 734.78,27.70 735.88,28.08 736.99,28.46 738.10,28.86 739.20,29.25 740.31,29.65 741.42,30.06 742.53,30.47 743.64,30.89 744.75,31.31 745.86,31.73 746.98,32.16 748.09,32.60 749.20,33.04 750.32,33.49 751.43,33.94 752.55,34.39 753.67,34.85 754.78,35.32 755.90,35.79 757.02,36.27 758.14,36.75 759.26,37.24 760.38,37.73 761.50,38.23 762.62,38.73 763.74,39.24 764.87,39.76 765.99,40.28 767.11,40.80 768.24,41.33 769.36,41.87 770.49,42.41 771.62,42.96 772.75,43.51 773.87,44.07 775.00,44.64 776.13,45.21 777.26,45.79 778.40,46.37 779.53,46.96 780.66,47.55 781.79,48.15 782.93,48.76 784.06,49.37 785.20,49.99 786.33,50.62 787.47,51.25 788.61,51.89 789.75,52.54 790.89,53.19 792.02,53.85 793.16,54.51 794.31,55.18 795.45,55.86 796.59,56.54 797.73,57.24 798.88,57.93 800.02,58.64 801.16,59.35 802.31,60.07 803.46,60.80 804.60,61.53 805.75,62.27 806.90,63.02 808.05,63.78 809.20,64.54 810.35,65.31 811.50,66.09 812.65,66.87 813.80,67.67 814.96,68.47 816.11,69.28 817.27,70.09 818.42,70.92 819.58,71.75 820.73,72.59 821.89,73.44 823.05,74.30 824.21,75.17 825.37,76.05 826.53,76.93 827.69,77.82 828.85,78.72 830.01,79.64 831.17,80.56 832.34,81.48 833.50,82.42 834.67,83.37 835.83,84.33 837.00,85.30 838.16,86.27 839.33,87.26 840.50,88.26 841.67,89.26 842.84,90.28 844.01,91.31 845.18,92.35 846.35,93.40 847.53,94.46 848.70,95.53 849.87,96.61 851.05,97.70 852.22,98.81 853.40,99.92 854.57,101.05 855.75,102.19 856.93,103.34 858.11,104.51 859.29,105.69 860.47,106.88 861.65,108.08 862.83,109.30 864.01,110.53 865.20,111.77 866.38,113.03 867.56,114.30 868.75,115.59 869.93,116.89 871.12,118.21 872.31,119.54 873.50,120.88 874.68,122.25 875.87,123.63 877.06,125.02 878.25,126.43 879.44,127.86 880.64,129.31 881.83,130.77 883.02,132.26 884.22,133.76 885.41,135.28 886.61,136.82 887.80,138.38 889.00,139.96 890.20,141.56 891.40,143.19 892.59,144.83 893.79,146.50 894.99,148.20 896.20,149.91 897.40,151.65 898.60,153.42 899.80,155.21 901.01,157.03 902.21,158.88 903.42,160.75 904.62,162.66 905.83,164.59 907.04,166.56 908.25,168.56 909.45,170.60 910.66,172.66 911.87,174.77 913.08,176.91 914.30,179.10 915.51,181.32 916.72,183.59 917.94,185.90 919.15,188.26 920.36,190.67 921.58,193.13 922.80,195.65 924.01,198.22 925.23,200.85 926.45,203.55 927.67,206.32 928.89,209.15 930.11,212.07 931.33,215.07 932.56,218.16 933.78,221.35 935.00,224.64 936.23,228.04 937.45,231.57 938.68,235.24 939.90,239.06 941.13,243.05 942.36,247.24 943.59,251.65 944.82,256.32 946.05,261.30 947.28,266.65 948.51,272.46 949.74,278.87 950.97,286.09 952.21,294.54 953.44,305.15 954.68,321.69 954.68,354.31 953.44,370.85 952.21,381.46 950.97,389.91 949.74,397.13 948.51,403.54 947.28,409.35 946.05,414.70 944.82,419.68 943.59,424.35 942.36,428.76 941.13,432.95 939.90,436.94 938.68,440.76 937.45,444.43 936.23,447.96 935.00,451.36 933.78,454.65 932.56,457.84 931.33,460.93 930.11,463.93 928.89,466.85 927.67,469.68 926.45,472.45 925.23,475.15 924.01,477.78 922.80,480.35 921.58,482.87 920.36,485.33 919.15,487.74 917.94,490.10 916.72,492.41 915.51,494.68 914.30,496.90 913.08,499.09 911.87,501.23 910.66,503.34 909.45,505.40 908.25,507.44 907.04,509.44 905.83,511.41 904.62,513.34 903.42,515.25 902.21,517.12 901.01,518.97 899.80,520.79 898.60,522.58 897.40,524.35 896.20,526.09 894.99,527.80 893.79,529.50 892.59,531.17 891.40,532.81 890.20,534.44 889.00,536.04 887.80,537.62 886.61,539.18 885.41,540.72 884.22,542.24 883.02,543.74 881.83,545.23 880.64,546.69 879.44,548.14 878.25,549.57 877.06,550.98 875.87,552.37 874.68,553.75 873.50,555.12 872.31,556.46 871.12,557.79 869.93,559.11 868.75,560.41 867.56,561.70 866.38,562.97 865.20,564.23 864.01,565.47 862.83,566.70 861.65,567.92 860.47,569.12 859.29,570.31 858.11,571.49 856.93,572.66 855.75,573.81 854.57,574.95 853.40,576.08 852.22,577.19 851.05,578.30 849.87,579.39 848.70,580.47 847.53,581.54 846.35,582.60 845.18,583.65 844.01,584.69 842.84,585.72 841.67,586.74 840.50,587.74 839.33,588.74 838.16,589.73 837.00,590.70 835.83,591.67 834.67,592.63 833.50,593.58 832.34,594.52 831.17,595.44 830.01,596.36 828.85,597.28 827.69,598.18 826.53,599.07 825.37,599.95 824.21,600.83 823.05,601.70 821.89,602.56 820.73,603.41 819.58,604.25 818.42,605.08 817.27,605.91 816.11,606.72 814.96,607.53 813.80,608.33 812.65,609.13 811.50,609.91 810.35,610.69 809.20,611.46 808.05,612.22 806.90,612.98 805.75,613.73 804.60,614.47 803.46,615.20 802.31,615.93 801.16,616.65 800.02,617.36 798.88,618.07 797.73,618.76 796.59,619.46 795.45,620.14 794.31,620.82 793.16,621.49 792.02,622.15 790.89,622.81 789.75,623.46 788.61,624.11 787.47,624.75 786.33,625.38 785.20,626.01 784.06,626.63 782.93,627.24 781.79,627.85 780.66,628.45 779.53,629.04 778.40,629.63 777.26,630.21 776.13,630.79 775.00,631.36 773.87,631.93 772.75,632.49 771.62,633.04 770.49,633.59 769.36,634.13 768.24,634.67 767.11,635.20 765.99,635.72 764.87,636.24 763.74,636.76 762.62,637.27 761.50,637.77 760.38,638.27 759.26,638.76 758.14,639.25 757.02,639.73 755.90,640.21 754.78,640.68 753.67,641.15 752.55,641.61 751.43,642.06 750.32,642.51 749.20,642.96 748.09,643.40 746.98,643.84 745.86,644.27 744.75,644.69 743.64,645.11 742.53,645.53 741.42,645.94 740.31,646.35 739.20,646.75 738.10,647.14 736.99,647.54 735.88,647.92 734.78,648.30 733.67,648.68 732.57,649.05 731.46,649.42 730.36,649.79 729.26,650.15 728.16,650.50 727.06,650.85 725.96,651.20 724.86,651.54 723.76,651.87 722.66,652.20 721.56,652.53 720.47,652.85 719.37,653.17 718.27,653.49 717.18,653.80 716.08,654.10 714.99,654.40 713.90,654.70 712.81,654.99 711.71,655.28 710.62,655.56 709.53,655.84 708.44,656.12 707.35,656.39 706.27,656.66 705.18,656.92 704.09,657.18 703.00,657.43 701.92,657.68 700.83,657.93 699.75,658.17 698.67,658.41 697.58,658.65 696.50,658.88 695.42,659.10 694.34,659.32 693.26,659.54 692.18,659.76 691.10,659.97 690.02,660.17 688.94,660.38 687.86,660.57 686.79,660.77 685.71,660.96 684.64,661.15 683.56,661.33 682.49,661.51 681.42,661.68 680.34,661.85 679.27,662.02 678.20,662.19 677.13,662.35 676.06,662.50 674.99,662.65 673.92,662.80 672.85,662.95 671.79,663.09 670.72,663.23 669.65,663.36 668.59,663.49 667.52,663.62 666.46,663.74 665.40,663.86 664.33,663.97 663.27,664.09 662.21,664.19 661.15,664.30 660.09,664.40 659.03,664.50 657.97,664.59 656.91,664.68 655.85,664.77 654.80,664.85 653.74,664.93 652.69,665.01 651.63,665.08 650.58,665.15 649.52,665.21 648.47,665.27 647.42,665.33 646.36,665.39 645.31,665.44 644.26,665.49 643.21,665.53 642.16,665.57 641.12,665.61 640.07,665.64 639.02,665.67 637.97,665.70 636.93,665.72 635.88,665.74 634.84,665.76 633.79,665.77 632.75,665.78 631.71,665.79 630.67,665.79 629.62,665.79 628.58,665.79 627.54,665.78 626.50,665.77 625.46,665.76 624.43,665.74 623.39,665.72 622.35,665.70 621.31,665.67 620.28,665.64 619.24,665.61 618.21,665.57 617.17,665.53 616.14,665.48 615.11,665.44 614.08,665.39 613.05,665.33 612.01,665.28 610.98,665.22 609.95,665.15 608.93,665.09 607.90,665.02 606.87,664.94 605.84,664.87 604.82,664.79 603.79,664.70 602.77,664.62 601.74,664.53 600.72,664.43 599.69,664.34 598.67,664.24 597.65,664.13 596.63,664.03 595.61,663.92 594.59,663.81 593.57,663.69 592.55,663.57 591.53,663.45 590.51,663.32 589.50,663.20 588.48,663.06 587.46,662.93 586.45,662.79 585.43,662.65 584.42,662.50 583.41,662.36 582.39,662.20 581.38,662.05 580.37,661.89 579.36,661.73 578.35,661.57 577.34,661.40 576.33,661.23 575.32,661.06 574.31,660.88 573.31,660.70 572.30,660.52 571.30,660.33 570.29,660.14 569.29,659.95 568.28,659.75 567.28,659.55 566.27,659.35 565.27,659.14 564.27,658.93 563.27,658.72 562.27,658.50 561.27,658.29 560.27,658.06 559.27,657.84 558.27,657.61 557.28,657.38 556.28,657.14 555.28,656.91 554.29,656.67 553.29,656.42 552.30,656.17 551.30,655.92 550.31,655.67 549.32,655.41 548.33,655.15 547.34,654.89 546.34,654.62 545.35,654.35 544.36,654.07 543.38,653.80 542.39,653.52 541.40,653.23 540.41,652.95 539.43,652.66 538.44,652.36 537.45,652.07 536.47,651.77 535.49,651.46 534.50,651.16 533.52,650.85 532.54,650.54 531.55,650.22 530.57,649.90 529.59,649.58 528.61,649.25 527.63,648.92 526.65,648.59 525.68,648.25 524.70,647.91 523.72,647.57 522.75,647.22 521.77,646.87 520.79,646.52 519.82,646.16 518.85,645.81 517.87,645.44 516.90,645.08 515.93,644.71 514.95,644.33 513.98,643.96 513.01,643.58 512.04,643.19 511.07,642.81 510.10,642.42 509.14,642.02 508.17,641.63 507.20,641.22 506.23,640.82 505.27,640.41 504.30,640.00 503.34,639.59 502.37,639.17 501.41,638.75 500.45,638.32 499.48,637.89 498.52,637.46 497.56,637.03 496.60,636.59 495.64,636.14 494.68,635.70 493.72,635.25 492.76,634.79 491.80,634.34 490.85,633.88 489.89,633.41 488.93,632.94 487.98,632.47 487.02,631.99 486.07,631.52 485.11,631.03 484.16,630.55 483.21,630.06 482.25,629.56 481.30,629.06 480.35,628.56 479.40,628.06 478.45,627.55 477.50,627.03 476.55,626.52 475.60,626.00 474.66,625.47 473.71,624.94 472.76,624.41 471.82,623.87 470.87,623.33 469.92,622.79 468.98,622.24 468.04,621.69 467.09,621.13 466.15,620.57 465.21,620.01 464.27,619.44 463.32,618.87 462.38,618.29 461.44,617.71 460.50,617.13 459.56,616.54 458.63,615.95 457.69,615.35 456.75,614.75 455.81,614.14 454.88,613.53 453.94,612.92 453.01,612.30 452.07,611.67 451.14,611.05 450.20,610.42 449.27,609.78 448.34,609.14 447.41,608.49 446.47,607.84 445.54,607.19 444.61,606.53 443.68,605.87 442.75,605.20 441.82,604.53 440.90,603.85 439.97,603.17 439.04,602.48 438.11,601.79 437.19,601.10 436.26,600.39 435.34,599.69 434.41,598.98 433.49,598.26 432.57,597.54 431.64,596.82 430.72,596.09 429.80,595.35 428.88,594.61 427.95,593.86 427.03,593.11 426.11,592.35 425.19,591.59 424.28,590.83 423.36,590.05 422.44,589.28 421.52,588.49 420.61,587.70 419.69,586.91 418.77,586.11 417.86,585.30 416.94,584.49 416.03,583.67 415.12,582.85 414.20,582.02 413.29,581.19 412.38,580.35 411.47,579.50 410.55,578.65 409.64,577.79 408.73,576.92 407.82,576.05 406.91,575.17 406.00,574.29 405.10,573.40 404.19,572.50 403.28,571.60 402.37,570.69 401.47,569.77 400.56,568.84 399.66,567.91 398.75,566.97 397.85,566.03 396.94,565.08 396.04,564.12 395.14,563.15 394.24,562.18 393.33,561.19 392.43,560.20 391.53,559.21 390.63,558.20 389.73,557.19 388.83,556.17 387.93,555.14 387.03,554.10 386.14,553.06 385.24,552.00 384.34,550.94 383.44,549.87 382.55,548.79 381.65,547.70 380.76,546.60 379.86,545.49 378.97,544.37 378.07,543.25 377.18,542.11 376.29,540.96 375.40,539.81 374.50,538.64 373.61,537.46 372.72,536.28 371.83,535.08 370.94,533.87 370.05,532.65 369.16,531.42 368.27,530.18 367.39,528.92 366.50,527.65 365.61,526.37 364.72,525.08 363.84,523.78 362.95,522.46 362.07,521.13 361.18,519.79 360.30,518.43 359.41,517.06 358.53,515.67 357.64,514.27 356.76,512.85 355.88,511.42 355.00,509.97 354.12,508.51 353.23,507.03 352.35,505.53 351.47,504.01 350.59,502.48 349.71,500.93 348.84,499.35 347.96,497.76 347.08,496.15 346.20,494.52 345.32,492.86 344.45,491.19 343.57,489.49 342.70,487.76 341.82,486.01 340.94,484.24 340.07,482.44 339.20,480.61 338.32,478.75 337.45,476.87 336.58,474.95 335.70,473.00 334.83,471.02 333.96,469.00 333.09,466.95 332.22,464.85 331.35,462.72 330.48,460.54 329.61,458.32 328.74,456.05 327.87,453.73 327.00,451.36 326.13,448.93 325.26,446.44 324.40,443.89 323.53,441.27 322.66,438.57 321.80,435.79 320.93,432.92 320.06,429.95 319.20,426.88 318.33,423.69 317.47,420.37 316.61,416.90 315.74,413.27 314.88,409.43 314.02,405.38 313.16,401.05 312.29,396.38 311.43,391.31 310.57,385.67 309.71,379.27 308.85,371.64 307.99,361.64" fill="none" stroke="#a78bfa" stroke-width="2.2"/>
<circle cx="954.7" cy="338.0" r="2.0" fill="#a78bfa"/>
<circle cx="952.3" cy="298.3" r="2.0" fill="#a78bfa"/>
<circle cx="945.2" cy="259.3" r="2.0" fill="#a78bfa"/>
<circle cx="933.5" cy="221.5" r="2.0" fill="#a78bfa"/>
<circle cx="917.4" cy="185.6" r="2.0" fill="#a78bfa"/>
<circle cx="897.2" cy="152.0" r="2.0" fill="#a78bfa"/>
<circle cx="873.3" cy="121.2" r="2.0" fill="#a78bfa"/>
<circle cx="846.2" cy="93.8" r="2.0" fill="#a78bfa"/>
<circle cx="816.4" cy="69.9" r="2.0" fill="#a78bfa"/>
<circle cx="784.3" cy="49.9" r="2.0" fill="#a78bfa"/>
<circle cx="750.5" cy="33.9" r="2.0" fill="#a78bfa"/>
<circle cx="715.6" cy="22.1" r="2.0" fill="#a78bfa"/>
<circle cx="680.1" cy="14.4" r="2.0" fill="#a78bfa"/>
<circle cx="644.5" cy="10.9" r="2.0" fill="#a78bfa"/>
<circle cx="609.3" cy="11.2" r="2.0" fill="#a78bfa"/>
<circle cx="575.0" cy="15.3" r="2.0" fill="#a78bfa"/>
<circle cx="541.9" cy="22.9" r="2.0" fill="#a78bfa"/>
<circle cx="510.3" cy="33.8" r="2.0" fill="#a78bfa"/>
<circle cx="480.6" cy="47.6" r="2.0" fill="#a78bfa"/>
<circle cx="453.0" cy="64.0" r="2.0" fill="#a78bfa"/>
<circle cx="427.6" cy="82.8" r="2.0" fill="#a78bfa"/>
<circle cx="404.6" cy="103.5" r="2.0" fill="#a78bfa"/>
<circle cx="384.0" cy="125.9" r="2.0" fill="#a78bfa"/>
<circle cx="365.9" cy="149.7" r="2.0" fill="#a78bfa"/>
<circle cx="350.2" cy="174.7" r="2.0" fill="#a78bfa"/>
<circle cx="337.1" cy="200.6" r="2.0" fill="#a78bfa"/>
<circle cx="326.3" cy="227.3" r="2.0" fill="#a78bfa"/>
<circle cx="318.0" cy="254.5" r="2.0" fill="#a78bfa"/>
<circle cx="312.1" cy="282.1" r="2.0" fill="#a78bfa"/>
<circle cx="308.6" cy="310.0" r="2.0" fill="#a78bfa"/>
<circle cx="307.4" cy="338.0" r="2.0" fill="#a78bfa"/>
<circle cx="308.6" cy="366.0" r="2.0" fill="#a78bfa"/>
<circle cx="312.1" cy="393.9" r="2.0" fill="#a78bfa"/>
<circle cx="318.0" cy="421.5" r="2.0" fill="#a78bfa"/>
<circle cx="326.3" cy="448.7" r="2.0" fill="#a78bfa"/>
<circle cx="337.1" cy="475.4" r="2.0" fill="#a78bfa"/>
<circle cx="350.2" cy="501.3" r="2.0" fill="#a78bfa"/>
<circle cx="365.9" cy="526.3" r="2.0" fill="#a78bfa"/>
<circle cx="384.0" cy="550.1" r="2.0" fill="#a78bfa"/>
<circle cx="404.6" cy="572.5" r="2.0" fill="#a78bfa"/>
<circle cx="427.6" cy="593.2" r="2.0" fill="#a78bfa"/>
<circle cx="453.0" cy="612.0" r="2.0" fill="#a78bfa"/>
<circle cx="480.6" cy="628.4" r="2.0" fill="#a78bfa"/>
<circle cx="510.3" cy="642.2" r="2.0" fill="#a78bfa"/>
<circle cx="541.9" cy="653.1" r="2.0" fill="#a78bfa"/>
<circle cx="575.0" cy="660.7" r="2.0" fill="#a78bfa"/>
<circle cx="609.3" cy="664.8" r="2.0" fill="#a78bfa"/>
<circle cx="644.5" cy="665.1" r="2.0" fill="#a78bfa"/>
<circle cx="680.1" cy="661.6" r="2.0" fill="#a78bfa"/>
<circle cx="715.6" cy="653.9" r="2.0" fill="#a78bfa"/>
<circle cx="750.5" cy="642.1" r="2.0" fill="#a78bfa"/>
<circle cx="784.3" cy="626.1" r="2.0" fill="#a78bfa"/>
<circle cx="816.4" cy="606.1" r="2.0" fill="#a78bfa"/>
<circle cx="846.2" cy="582.2" r="2.0" fill="#a78bfa"/>
<circle cx="873.3" cy="554.8" r="2.0" fill="#a78bfa"/>
<circle cx="897.2" cy="524.0" r="2.0" fill="#a78bfa"/>
<circle cx="917.4" cy="490.4" r="2.0" fill="#a78bfa"/>
<circle cx="933.5" cy="454.5" r="2.0" fill="#a78bfa"/>
<circle cx="945.2" cy="416.7" r="2.0" fill="#a78bfa"/>
<circle cx="952.3" cy="377.7" r="2.0" fill="#a78bfa"/>
<polyline points="379.14,327.62 379.73,313.85 380.32,305.51 380.91,298.93 381.50,293.34 382.08,288.40 382.67,283.93 383.25,279.81 383.84,275.99 384.42,272.41 385.01,269.03 385.59,265.82 386.17,262.76 386.75,259.83 387.33,257.02 387.91,254.31 388.49,251.70 389.07,249.18 389.65,246.74 390.23,244.37 390.81,242.06 391.38,239.82 391.96,237.64 392.54,235.51 393.12,233.44 393.69,231.41 394.27,229.42 394.85,227.48 395.42,225.58 396.00,223.71 396.58,221.89 397.15,220.09 397.73,218.33 398.31,216.60 398.88,214.90 399.46,213.23 400.04,211.58 400.61,209.96 401.19,208.37 401.77,206.80 402.35,205.25 402.92,203.73 403.50,202.23 404.08,200.74 404.66,199.28 405.24,197.84 405.82,196.41 406.40,195.01 406.97,193.62 407.55,192.25 408.14,190.89 408.72,189.55 409.30,188.22 409.88,186.91 410.46,185.62 411.04,184.34 411.63,183.07 412.21,181.81 412.79,180.57 413.38,179.34 413.96,178.13 414.55,176.92 415.13,175.73 415.72,174.55 416.31,173.38 416.89,172.22 417.48,171.07 418.07,169.93 418.66,168.80 419.25,167.68 419.84,166.57 420.43,165.47 421.02,164.38 421.62,163.30 422.21,162.23 422.81,161.16 423.40,160.11 424.00,159.06 424.59,158.02 425.19,156.99 425.79,155.97 426.39,154.95 426.99,153.94 427.59,152.94 428.19,151.95 428.79,150.96 429.39,149.98 430.00,149.01 430.60,148.05 431.21,147.09 431.81,146.14 432.42,145.19 433.03,144.25 433.64,143.32 434.25,142.39 434.86,141.47 435.47,140.55 436.08,139.64 436.69,138.74 437.31,137.84 437.92,136.95 438.54,136.06 439.16,135.18 439.78,134.31 440.40,133.44 441.02,132.57 441.64,131.71 442.26,130.86 442.88,130.01 443.51,129.16 444.13,128.32 444.76,127.49 445.39,126.66 446.02,125.83 446.64,125.01 447.28,124.19 447.91,123.38 448.54,122.57 449.17,121.77 449.81,120.97 450.45,120.18 451.08,119.38 451.72,118.60 452.36,117.82 453.00,117.04 453.64,116.27 454.29,115.50 454.93,114.73 455.57,113.97 456.22,113.21 456.87,112.46 457.52,111.71 458.17,110.96 458.82,110.22 459.47,109.48 460.12,108.75 460.78,108.02 461.43,107.29 462.09,106.56 462.75,105.84 463.41,105.13 464.07,104.41 464.73,103.71 465.39,103.00 466.06,102.30 466.72,101.60 467.39,100.90 468.06,100.21 468.73,99.52 469.40,98.83 470.07,98.15 470.74,97.47 471.41,96.80 472.09,96.12 472.77,95.45 473.44,94.79 474.12,94.13 474.80,93.46 475.49,92.81 476.17,92.15 476.85,91.50 477.54,90.86 478.23,90.21 478.91,89.57 479.60,88.93 480.29,88.30 480.99,87.66 481.68,87.03 482.37,86.41 483.07,85.78 483.77,85.16 484.47,84.54 485.17,83.93 485.87,83.32 486.57,82.71 487.28,82.10 487.98,81.50 488.69,80.90 489.40,80.30 490.11,79.70 490.82,79.11 491.53,78.52 492.24,77.94 492.96,77.35 493.67,76.77 494.39,76.19 495.11,75.62 495.83,75.04 496.55,74.47 497.28,73.90 498.00,73.34 498.73,72.78 499.46,72.22 500.18,71.66 500.91,71.11 501.65,70.55 502.38,70.00 503.11,69.46 503.85,68.91 504.59,68.37 505.33,67.83 506.07,67.30 506.81,66.77 507.55,66.23 508.29,65.71 509.04,65.18 509.79,64.66 510.54,64.14 511.29,63.62 512.04,63.10 512.79,62.59 513.55,62.08 514.30,61.57 515.06,61.07 515.82,60.56 516.58,60.06 517.34,59.57 518.10,59.07 518.87,58.58 519.63,58.09 520.40,57.60 521.17,57.12 521.94,56.63 522.71,56.15 523.49,55.68 524.26,55.20 525.04,54.73 525.81,54.26 526.59,53.79 527.37,53.33 528.16,52.86 528.94,52.40 529.73,51.95 530.51,51.49 531.30,51.04 532.09,50.59 532.88,50.14 533.67,49.70 534.47,49.25 535.26,48.81 536.06,48.38 536.86,47.94 537.66,47.51 538.46,47.08 539.26,46.65 540.07,46.23 540.88,45.80 541.68,45.38 542.49,44.97 543.30,44.55 544.11,44.14 544.93,43.73 545.74,43.32 546.56,42.91 547.38,42.51 548.20,42.11 549.02,41.71 549.84,41.32 550.67,40.93 551.49,40.53 552.32,40.15 553.15,39.76 553.98,39.38 554.81,39.00 555.64,38.62 556.48,38.25 557.32,37.87 558.15,37.50 558.99,37.14 559.83,36.77 560.68,36.41 561.52,36.05 562.37,35.69 563.21,35.33 564.06,34.98 564.91,34.63 565.77,34.28 566.62,33.94 567.47,33.60 568.33,33.26 569.19,32.92 570.05,32.59 570.91,32.25 571.77,31.92 572.64,31.60 573.50,31.27 574.37,30.95 575.24,30.63 576.11,30.32 576.98,30.00 577.86,29.69 578.73,29.38 579.61,29.07 580.49,28.77 581.37,28.47 582.25,28.17 583.13,27.88 584.02,27.58 584.90,27.29 585.79,27.01 586.68,26.72 587.57,26.44 588.46,26.16 589.36,25.88 590.25,25.61 591.15,25.34 592.05,25.07 592.95,24.80 593.85,24.54 594.76,24.28 595.66,24.02 596.57,23.76 597.48,23.51 598.39,23.26 599.30,23.01 600.21,22.77 601.13,22.53 602.04,22.29 602.96,22.05 603.88,21.82 604.80,21.59 605.72,21.36 606.65,21.13 607.57,20.91 608.50,20.69 609.43,20.48 610.36,20.26 611.29,20.05 612.23,19.84 613.16,19.64 614.10,19.44 615.04,19.24 615.98,19.04 616.92,18.85 617.86,18.65 618.81,18.47 619.75,18.28 620.70,18.10 621.65,17.92 622.60,17.74 623.56,17.57 624.51,17.40 625.47,17.23 626.43,17.07 627.39,16.91 628.35,16.75 629.31,16.59 630.27,16.44 631.24,16.29 632.21,16.15 633.18,16.00 634.15,15.86 635.12,15.73 636.09,15.59 637.07,15.46 638.05,15.33 639.03,15.21 640.01,15.09 640.99,14.97 641.97,14.85 642.96,14.74 643.94,14.63 644.93,14.53 645.92,14.42 646.91,14.32 647.91,14.23 648.90,14.14 649.90,14.05 650.90,13.96 651.90,13.88 652.90,13.80 653.90,13.72 654.91,13.65 655.91,13.58 656.92,13.51 657.93,13.45 658.94,13.39 659.96,13.33 660.97,13.28 661.99,13.23 663.01,13.18 664.02,13.14 665.05,13.10 666.07,13.06 667.09,13.03 668.12,13.00 669.15,12.97 670.18,12.95 671.21,12.93 672.24,12.92 673.27,12.91 674.31,12.90 675.35,12.89 676.39,12.89 677.43,12.90 678.47,12.90 679.51,12.91 680.56,12.93 681.61,12.94 682.66,12.96 683.71,12.99 684.76,13.02 685.81,13.05 686.87,13.09 687.93,13.13 688.98,13.17 690.04,13.22 691.11,13.27 692.17,13.32 693.24,13.38 694.30,13.45 695.37,13.51 696.44,13.58 697.51,13.66 698.59,13.74 699.66,13.82 700.74,13.90 701.82,14.00 702.90,14.09 703.98,14.19 705.06,14.29 706.15,14.40 707.24,14.51 708.33,14.62 709.42,14.74 710.51,14.87 711.60,14.99 712.70,15.13 713.79,15.26 714.89,15.40 715.99,15.55 717.09,15.70 718.20,15.85 719.30,16.01 720.41,16.17 721.52,16.34 722.63,16.51 723.74,16.68 724.85,16.86 725.97,17.05 727.08,17.23 728.20,17.43 729.32,17.63 730.44,17.83 731.57,18.04 732.69,18.25 733.82,18.46 734.95,18.69 736.08,18.91 737.21,19.14 738.34,19.38 739.48,19.62 740.61,19.86 741.75,20.11 742.89,20.37 744.03,20.63 745.18,20.89 746.32,21.16 747.47,21.44 748.62,21.72 749.76,22.00 750.92,22.29 752.07,22.59 753.22,22.89 754.38,23.20 755.54,23.51 756.70,23.82 757.86,24.14 759.02,24.47 760.19,24.80 761.36,25.14 762.52,25.49 763.69,25.83 764.87,26.19 766.04,26.55 767.21,26.91 768.39,27.29 769.57,27.66 770.75,28.05 771.93,28.43 773.11,28.83 774.30,29.23 775.48,29.64 776.67,30.05 777.86,30.47 779.05,30.89 780.25,31.32 781.44,31.76 782.64,32.20 783.84,32.65 785.04,33.10 786.24,33.56 787.44,34.03 788.65,34.51 789.85,34.99 791.06,35.47 792.27,35.97 793.48,36.47 794.70,36.97 795.91,37.49 797.13,38.01 798.35,38.54 799.57,39.07 800.79,39.61 802.01,40.16 803.24,40.71 804.47,41.28 805.69,41.85 806.92,42.42 808.16,43.01 809.39,43.60 810.62,44.20 811.86,44.80 813.10,45.42 814.34,46.04 815.58,46.67 816.83,47.31 818.07,47.95 819.32,48.60 820.57,49.26 821.82,49.93 823.07,50.61 824.32,51.30 825.58,51.99 826.84,52.69 828.09,53.40 829.35,54.12 830.62,54.85 831.88,55.59 833.15,56.33 834.41,57.09 835.68,57.85 836.95,58.62 838.22,59.41 839.50,60.20 840.77,61.00 842.05,61.81 843.33,62.63 844.61,63.46 845.89,64.30 847.18,65.15 848.46,66.01 849.75,66.88 851.04,67.76 852.33,68.65 853.62,69.55 854.92,70.46 856.21,71.38 857.51,72.32 858.81,73.26 860.11,74.22 861.41,75.19 862.72,76.17 864.02,77.16 865.33,78.16 866.64,79.18 867.95,80.21 869.26,81.25 870.58,82.30 871.89,83.36 873.21,84.44 874.53,85.53 875.85,86.64 877.18,87.76 878.50,88.89 879.83,90.04 881.15,91.20 882.48,92.37 883.81,93.56 885.15,94.77 886.48,95.99 887.82,97.22 889.16,98.47 890.50,99.74 891.84,101.02 893.18,102.32 894.53,103.64 895.87,104.97 897.22,106.32 898.57,107.69 899.92,109.08 901.27,110.49 902.63,111.91 903.99,113.36 905.34,114.82 906.71,116.30 908.07,117.81 909.43,119.33 910.80,120.88 912.16,122.45 913.53,124.04 914.90,125.66 916.27,127.29 917.65,128.96 919.02,130.65 920.40,132.36 921.78,134.10 923.16,135.86 924.54,137.66 925.92,139.48 927.31,141.33 928.70,143.21 930.08,145.13 931.48,147.07 932.87,149.05 934.26,151.06 935.66,153.11 937.05,155.19 938.45,157.31 939.85,159.47 941.26,161.67 942.66,163.92 944.07,166.20 945.47,168.54 946.88,170.92 948.29,173.35 949.71,175.83 951.12,178.37 952.54,180.96 953.95,183.62 955.37,186.33 956.80,189.12 958.22,191.97 959.64,194.91 961.07,197.92 962.50,201.01 963.93,204.20 965.36,207.49 966.79,210.88 968.23,214.38 969.66,218.01 971.10,221.78 972.54,225.69 973.98,229.77 975.42,234.04 976.87,238.52 978.32,243.24 979.76,248.23 981.21,253.55 982.67,259.27 984.12,265.47 985.57,272.29 987.03,279.96 988.49,288.86 989.95,299.86 991.41,315.88 991.41,360.12 989.95,376.14 988.49,387.14 987.03,396.04 985.57,403.71 984.12,410.53 982.67,416.73 981.21,422.45 979.76,427.77 978.32,432.76 976.87,437.48 975.42,441.96 973.98,446.23 972.54,450.31 971.10,454.22 969.66,457.99 968.23,461.62 966.79,465.12 965.36,468.51 963.93,471.80 962.50,474.99 961.07,478.08 959.64,481.09 958.22,484.03 956.80,486.88 955.37,489.67 953.95,492.38 952.54,495.04 951.12,497.63 949.71,500.17 948.29,502.65 946.88,505.08 945.47,507.46 944.07,509.80 942.66,512.08 941.26,514.33 939.85,516.53 938.45,518.69 937.05,520.81 935.66,522.89 934.26,524.94 932.87,526.95 931.48,528.93 930.08,530.87 928.70,532.79 927.31,534.67 925.92,536.52 924.54,538.34 923.16,540.14 921.78,541.90 920.40,543.64 919.02,545.35 917.65,547.04 916.27,548.71 914.90,550.34 913.53,551.96 912.16,553.55 910.80,555.12 909.43,556.67 908.07,558.19 906.71,559.70 905.34,561.18 903.99,562.64 902.63,564.09 901.27,565.51 899.92,566.92 898.57,568.31 897.22,569.68 895.87,571.03 894.53,572.36 893.18,573.68 891.84,574.98 890.50,576.26 889.16,577.53 887.82,578.78 886.48,580.01 885.15,581.23 883.81,582.44 882.48,583.63 881.15,584.80 879.83,585.96 878.50,587.11 877.18,588.24 875.85,589.36 874.53,590.47 873.21,591.56 871.89,592.64 870.58,593.70 869.26,594.75 867.95,595.79 866.64,596.82 865.33,597.84 864.02,598.84 862.72,599.83 861.41,600.81 860.11,601.78 858.81,602.74 857.51,603.68 856.21,604.62 854.92,605.54 853.62,606.45 852.33,607.35 851.04,608.24 849.75,609.12 848.46,609.99 847.18,610.85 845.89,611.70 844.61,612.54 843.33,613.37 842.05,614.19 840.77,615.00 839.50,615.80 838.22,616.59 836.95,617.38 835.68,618.15 834.41,618.91 833.15,619.67 831.88,620.41 830.62,621.15 829.35,621.88 828.09,622.60 826.84,623.31 825.58,624.01 824.32,624.70 823.07,625.39 821.82,626.07 820.57,626.74 819.32,627.40 818.07,628.05 816.83,628.69 815.58,629.33 814.34,629.96 813.10,630.58 811.86,631.20 810.62,631.80 809.39,632.40 808.16,632.99 806.92,633.58 805.69,634.15 804.47,634.72 803.24,635.29 802.01,635.84 800.79,636.39 799.57,636.93 798.35,637.46 797.13,637.99 795.91,638.51 794.70,639.03 793.48,639.53 792.27,640.03 791.06,640.53 789.85,641.01 788.65,641.49 787.44,641.97 786.24,642.44 785.04,642.90 783.84,643.35 782.64,643.80 781.44,644.24 780.25,644.68 779.05,645.11 777.86,645.53 776.67,645.95 775.48,646.36 774.30,646.77 773.11,647.17 771.93,647.57 770.75,647.95 769.57,648.34 768.39,648.71 767.21,649.09 766.04,649.45 764.87,649.81 763.69,650.17 762.52,650.51 761.36,650.86 760.19,651.20 759.02,651.53 757.86,651.86 756.70,652.18 755.54,652.49 754.38,652.80 753.22,653.11 752.07,653.41 750.92,653.71 749.76,654.00 748.62,654.28 747.47,654.56 746.32,654.84 745.18,655.11 744.03,655.37 742.89,655.63 741.75,655.89 740.61,656.14 739.48,656.38 738.34,656.62 737.21,656.86 736.08,657.09 734.95,657.31 733.82,657.54 732.69,657.75 731.57,657.96 730.44,658.17 729.32,658.37 728.20,658.57 727.08,658.77 725.97,658.95 724.85,659.14 723.74,659.32 722.63,659.49 721.52,659.66 720.41,659.83 719.30,659.99 718.20,660.15 717.09,660.30 715.99,660.45 714.89,660.60 713.79,660.74 712.70,660.87 711.60,661.01 710.51,661.13 709.42,661.26 708.33,661.38 707.24,661.49 706.15,661.60 705.06,661.71 703.98,661.81 702.90,661.91 701.82,662.00 700.74,662.10 699.66,662.18 698.59,662.26 697.51,662.34 696.44,662.42 695.37,662.49 694.30,662.55 693.24,662.62 692.17,662.68 691.11,662.73 690.04,662.78 688.98,662.83 687.93,662.87 686.87,662.91 685.81,662.95 684.76,662.98 683.71,663.01 682.66,663.04 681.61,663.06 680.56,663.07 679.51,663.09 678.47,663.10 677.43,663.10 676.39,663.11 675.35,663.11 674.31,663.10 673.27,663.09 672.24,663.08 671.21,663.07 670.18,663.05 669.15,663.03 668.12,663.00 667.09,662.97 666.07,662.94 665.05,662.90 664.02,662.86 663.01,662.82 661.99,662.77 660.97,662.72 659.96,662.67 658.94,662.61 657.93,662.55 656.92,662.49 655.91,662.42 654.91,662.35 653.90,662.28 652.90,662.20 651.90,662.12 650.90,662.04 649.90,661.95 648.90,661.86 647.91,661.77 646.91,661.68 645.92,661.58 644.93,661.47 643.94,661.37 642.96,661.26 641.97,661.15 640.99,661.03 640.01,660.91 639.03,660.79 638.05,660.67 637.07,660.54 636.09,660.41 635.12,660.27 634.15,660.14 633.18,660.00 632.21,659.85 631.24,659.71 630.27,659.56 629.31,659.41 628.35,659.25 627.39,659.09 626.43,658.93 625.47,658.77 624.51,658.60 623.56,658.43 622.60,658.26 621.65,658.08 620.70,657.90 619.75,657.72 618.81,657.53 617.86,657.35 616.92,657.15 615.98,656.96 615.04,656.76 614.10,656.56 613.16,656.36 612.23,656.16 611.29,655.95 610.36,655.74 609.43,655.52 608.50,655.31 607.57,655.09 606.65,654.87 605.72,654.64 604.80,654.41 603.88,654.18 602.96,653.95 602.04,653.71 601.13,653.47 600.21,653.23 599.30,652.99 598.39,652.74 597.48,652.49 596.57,652.24 595.66,651.98 594.76,651.72 593.85,651.46 592.95,651.20 592.05,650.93 591.15,650.66 590.25,650.39 589.36,650.12 588.46,649.84 587.57,649.56 586.68,649.28 585.79,648.99 584.90,648.71 584.02,648.42 583.13,648.12 582.25,647.83 581.37,647.53 580.49,647.23 579.61,646.93 578.73,646.62 577.86,646.31 576.98,646.00 576.11,645.68 575.24,645.37 574.37,645.05 573.50,644.73 572.64,644.40 571.77,644.08 570.91,643.75 570.05,643.41 569.19,643.08 568.33,642.74 567.47,642.40 566.62,642.06 565.77,641.72 564.91,641.37 564.06,641.02 563.21,640.67 562.37,640.31 561.52,639.95 560.68,639.59 559.83,639.23 558.99,638.86 558.15,638.50 557.32,638.13 556.48,637.75 555.64,637.38 554.81,637.00 553.98,636.62 553.15,636.24 552.32,635.85 551.49,635.47 550.67,635.07 549.84,634.68 549.02,634.29 548.20,633.89 547.38,633.49 546.56,633.09 545.74,632.68 544.93,632.27 544.11,631.86 543.30,631.45 542.49,631.03 541.68,630.62 540.88,630.20 540.07,629.77 539.26,629.35 538.46,628.92 537.66,628.49 536.86,628.06 536.06,627.62 535.26,627.19 534.47,626.75 533.67,626.30 532.88,625.86 532.09,625.41 531.30,624.96 530.51,624.51 529.73,624.05 528.94,623.60 528.16,623.14 527.37,622.67 526.59,622.21 525.81,621.74 525.04,621.27 524.26,620.80 523.49,620.32 522.71,619.85 521.94,619.37 521.17,618.88 520.40,618.40 519.63,617.91 518.87,617.42 518.10,616.93 517.34,616.43 516.58,615.94 515.82,615.44 515.06,614.93 514.30,614.43 513.55,613.92 512.79,613.41 512.04,612.90 511.29,612.38 510.54,611.86 509.79,611.34 509.04,610.82 508.29,610.29 507.55,609.77 506.81,609.23 506.07,608.70 505.33,608.17 504.59,607.63 503.85,607.09 503.11,606.54 502.38,606.00 501.65,605.45 500.91,604.89 500.18,604.34 499.46,603.78 498.73,603.22 498.00,602.66 497.28,602.10 496.55,601.53 495.83,600.96 495.11,600.38 494.39,599.81 493.67,599.23 492.96,598.65 492.24,598.06 491.53,597.48 490.82,596.89 490.11,596.30 489.40,595.70 488.69,595.10 487.98,594.50 487.28,593.90 486.57,593.29 485.87,592.68 485.17,592.07 484.47,591.46 483.77,590.84 483.07,590.22 482.37,589.59 481.68,588.97 480.99,588.34 480.29,587.70 479.60,587.07 478.91,586.43 478.23,585.79 477.54,585.14 476.85,584.50 476.17,583.85 475.49,583.19 474.80,582.54 474.12,581.87 473.44,581.21 472.77,580.55 472.09,579.88 471.41,579.20 470.74,578.53 470.07,577.85 469.40,577.17 468.73,576.48 468.06,575.79 467.39,575.10 466.72,574.40 466.06,573.70 465.39,573.00 464.73,572.29 464.07,571.59 463.41,570.87 462.75,570.16 462.09,569.44 461.43,568.71 460.78,567.98 460.12,567.25 459.47,566.52 458.82,565.78 458.17,565.04 457.52,564.29 456.87,563.54 456.22,562.79 455.57,562.03 454.93,561.27 454.29,560.50 453.64,559.73 453.00,558.96 452.36,558.18 451.72,557.40 451.08,556.62 450.45,555.82 449.81,555.03 449.17,554.23 448.54,553.43 447.91,552.62 447.28,551.81 446.64,550.99 446.02,550.17 445.39,549.34 444.76,548.51 444.13,547.68 443.51,546.84 442.88,545.99 442.26,545.14 441.64,544.29 441.02,543.43 440.40,542.56 439.78,541.69 439.16,540.82 438.54,539.94 437.92,539.05 437.31,538.16 436.69,537.26 436.08,536.36 435.47,535.45 434.86,534.53 434.25,533.61 433.64,532.68 433.03,531.75 432.42,530.81 431.81,529.86 431.21,528.91 430.60,527.95 430.00,526.99 429.39,526.02 428.79,525.04 428.19,524.05 427.59,523.06 426.99,522.06 426.39,521.05 425.79,520.03 425.19,519.01 424.59,517.98 424.00,516.94 423.40,515.89 422.81,514.84 422.21,513.77 421.62,512.70 421.02,511.62 420.43,510.53 419.84,509.43 419.25,508.32 418.66,507.20 418.07,506.07 417.48,504.93 416.89,503.78 416.31,502.62 415.72,501.45 415.13,500.27 414.55,499.08 413.96,497.87 413.38,496.66 412.79,495.43 412.21,494.19 411.63,492.93 411.04,491.66 410.46,490.38 409.88,489.09 409.30,487.78 408.72,486.45 408.14,485.11 407.55,483.75 406.97,482.38 406.40,480.99 405.82,479.59 405.24,478.16 404.66,476.72 404.08,475.26 403.50,473.77 402.92,472.27 402.35,470.75 401.77,469.20 401.19,467.63 400.61,466.04 400.04,464.42 399.46,462.77 398.88,461.10 398.31,459.40 397.73,457.67 397.15,455.91 396.58,454.11 396.00,452.29 395.42,450.42 394.85,448.52 394.27,446.58 393.69,444.59 393.12,442.56 392.54,440.49 391.96,438.36 391.38,436.18 390.81,433.94 390.23,431.63 389.65,429.26 389.07,426.82 388.49,424.30 387.91,421.69 387.33,418.98 386.75,416.17 386.17,413.24 385.59,410.18 385.01,406.97 384.42,403.59 383.84,400.01 383.25,396.19 382.67,392.07 382.08,387.60 381.50,382.66 380.91,377.07 380.32,370.49 379.73,362.15 379.14,348.38" fill="none" stroke="#f97316" stroke-width="2.2"/>
<circle cx="991.7" cy="338.0" r="2.0" fill="#f97316"/>
<circle cx="988.9" cy="294.5" r="2.0" fill="#f97316"/>
<circle cx="980.3" cy="251.8" r="2.0" fill="#f97316"/>
<circle cx="966.3" cy="210.8" r="2.0" fill="#f97316"/>
<circle cx="947.2" cy="172.3" r="2.0" fill="#f97316"/>
<circle cx="923.4" cy="136.8" r="2.0" fill="#f97316"/>
<circle cx="895.5" cy="105.1" r="2.0" fill="#f97316"/>
<circle cx="864.1" cy="77.7" r="2.0" fill="#f97316"/>
<circle cx="829.9" cy="54.9" r="2.0" fill="#f97316"/>
<circle cx="793.7" cy="37.0" r="2.0" fill="#f97316"/>
<circle cx="756.3" cy="24.1" r="2.0" fill="#f97316"/>
<circle cx="718.3" cy="16.2" r="2.0" fill="#f97316"/>
<circle cx="680.5" cy="13.2" r="2.0" fill="#f97316"/>
<circle cx="643.7" cy="15.0" r="2.0" fill="#f97316"/>
<circle cx="608.3" cy="21.0" r="2.0" fill="#f97316"/>
<circle cx="575.0" cy="31.0" r="2.0" fill="#f97316"/>
<circle cx="544.1" cy="44.4" r="2.0" fill="#f97316"/>
<circle cx="516.1" cy="60.7" r="2.0" fill="#f97316"/>
<circle cx="491.0" cy="79.3" r="2.0" fill="#f97316"/>
<circle cx="468.9" cy="99.7" r="2.0" fill="#f97316"/>
<circle cx="449.9" cy="121.3" r="2.0" fill="#f97316"/>
<circle cx="433.7" cy="143.6" r="2.0" fill="#f97316"/>
<circle cx="420.3" cy="166.2" r="2.0" fill="#f97316"/>
<circle cx="409.3" cy="188.8" r="2.0" fill="#f97316"/>
<circle cx="400.4" cy="211.2" r="2.0" fill="#f97316"/>
<circle cx="393.4" cy="233.2" r="2.0" fill="#f97316"/>
<circle cx="388.0" cy="254.8" r="2.0" fill="#f97316"/>
<circle cx="384.0" cy="276.0" r="2.0" fill="#f97316"/>
<circle cx="381.3" cy="296.8" r="2.0" fill="#f97316"/>
<circle cx="379.7" cy="317.5" r="2.0" fill="#f97316"/>
<circle cx="379.2" cy="338.0" r="2.0" fill="#f97316"/>
<circle cx="379.7" cy="358.5" r="2.0" fill="#f97316"/>
<circle cx="381.3" cy="379.2" r="2.0" fill="#f97316"/>
<circle cx="384.0" cy="400.0" r="2.0" fill="#f97316"/>
<circle cx="388.0" cy="421.2" r="2.0" fill="#f97316"/>
<circle cx="393.4" cy="442.8" r="2.0" fill="#f97316"/>
<circle cx="400.4" cy="464.8" r="2.0" fill="#f97316"/>
<circle cx="409.3" cy="487.2" r="2.0" fill="#f97316"/>
<circle cx="420.3" cy="509.8" r="2.0" fill="#f97316"/>
<circle cx="433.7" cy="532.4" r="2.0" fill="#f97316"/>
<circle cx="449.9" cy="554.7" r="2.0" fill="#f97316"/>
<circle cx="468.9" cy="576.3" r="2.0" fill="#f97316"/>
<circle cx="491.0" cy="596.7" r="2.0" fill="#f97316"/>
<circle cx="516.1" cy="615.3" r="2.0" fill="#f97316"/>
<circle cx="544.1" cy="631.6" r="2.0" fill="#f97316"/>
<circle cx="575.0" cy="645.0" r="2.0" fill="#f97316"/>
<circle cx="608.3" cy="655.0" r="2.0" fill="#f97316"/>
<circle cx="643.7" cy="661.0" r="2.0" fill="#f97316"/>
<circle cx="680.5" cy="662.8" r="2.0" fill="#f97316"/>
<circle cx="718.3" cy="659.8" r="2.0" fill="#f97316"/>
<circle cx="756.3" cy="651.9" r="2.0" fill="#f97316"/>
<circle cx="793.7" cy="639.0" r="2.0" fill="#f97316"/>
<circle cx="829.9" cy="621.1" r="2.0" fill="#f97316"/>
<circle cx="864.1" cy="598.3" r="2.0" fill="#f97316"/>
<circle cx="895.5" cy="570.9" r="2.0" fill="#f97316"/>
<circle cx="923.4" cy="539.2" r="2.0" fill="#f97316"/>
<circle cx="947.2" cy="503.7" r="2.0" fill="#f97316"/>
<circle cx="966.3" cy="465.2" r="2.0" fill="#f97316"/>
<circle cx="980.3" cy="424.2" r="2.0" fill="#f97316"/>
<circle cx="988.9" cy="381.5" r="2.0" fill="#f97316"/>
<polyline points="414.01,329.08 414.41,311.80 414.81,302.34 415.19,295.13 415.57,289.17 415.94,284.01 416.31,279.44 416.67,275.32 417.02,271.56 417.37,268.09 417.71,264.87 418.05,261.86 418.38,259.03 418.71,256.35 419.04,253.82 419.37,251.41 419.69,249.12 420.01,246.92 420.32,244.81 420.63,242.78 420.95,240.83 421.26,238.95 421.56,237.13 421.87,235.37 422.17,233.66 422.48,232.01 422.78,230.40 423.08,228.83 423.38,227.30 423.68,225.81 423.98,224.35 424.28,222.93 424.57,221.54 424.87,220.18 425.17,218.84 425.46,217.53 425.76,216.25 426.06,214.99 426.35,213.75 426.65,212.53 426.95,211.33 427.25,210.15 427.54,208.98 427.84,207.84 428.14,206.71 428.44,205.59 428.74,204.49 429.04,203.41 429.34,202.33 429.64,201.28 429.94,200.23 430.24,199.19 430.55,198.17 430.85,197.15 431.16,196.15 431.47,195.16 431.77,194.17 432.08,193.20 432.39,192.24 432.70,191.28 433.02,190.33 433.33,189.39 433.64,188.46 433.96,187.53 434.28,186.61 434.59,185.70 434.91,184.80 435.23,183.90 435.56,183.01 435.88,182.12 436.20,181.24 436.53,180.37 436.86,179.50 437.19,178.63 437.52,177.77 437.85,176.92 438.18,176.07 438.52,175.23 438.86,174.39 439.19,173.56 439.53,172.73 439.88,171.90 440.22,171.08 440.56,170.26 440.91,169.45 441.26,168.64 441.61,167.83 441.96,167.03 442.31,166.23 442.67,165.44 443.02,164.65 443.38,163.86 443.74,163.07 444.11,162.29 444.47,161.52 444.83,160.74 445.20,159.97 445.57,159.20 445.94,158.43 446.31,157.67 446.69,156.91 447.06,156.15 447.44,155.40 447.82,154.64 448.20,153.90 448.59,153.15 448.97,152.40 449.36,151.66 449.75,150.92 450.14,150.18 450.53,149.45 450.93,148.72 451.33,147.99 451.72,147.26 452.13,146.54 452.53,145.81 452.93,145.09 453.34,144.37 453.75,143.66 454.16,142.94 454.57,142.23 454.99,141.52 455.40,140.81 455.82,140.10 456.24,139.40 456.66,138.70 457.09,138.00 457.51,137.30 457.94,136.60 458.37,135.91 458.81,135.21 459.24,134.52 459.68,133.84 460.11,133.15 460.56,132.46 461.00,131.78 461.44,131.10 461.89,130.42 462.34,129.74 462.79,129.06 463.24,128.39 463.70,127.72 464.15,127.05 464.61,126.38 465.07,125.71 465.54,125.04 466.00,124.38 466.47,123.72 466.94,123.06 467.41,122.40 467.88,121.74 468.36,121.08 468.83,120.43 469.31,119.78 469.80,119.13 470.28,118.48 470.77,117.83 471.25,117.18 471.74,116.54 472.24,115.90 472.73,115.25 473.23,114.61 473.73,113.98 474.23,113.34 474.73,112.71 475.24,112.07 475.74,111.44 476.25,110.81 476.76,110.18 477.28,109.56 477.79,108.93 478.31,108.31 478.83,107.68 479.35,107.06 479.88,106.44 480.40,105.83 480.93,105.21 481.46,104.60 481.99,103.98 482.53,103.37 483.07,102.76 483.60,102.15 484.15,101.55 484.69,100.94 485.24,100.34 485.78,99.74 486.33,99.14 486.89,98.54 487.44,97.94 488.00,97.35 488.55,96.75 489.12,96.16 489.68,95.57 490.24,94.98 490.81,94.39 491.38,93.81 491.95,93.22 492.53,92.64 493.10,92.06 493.68,91.48 494.26,90.90 494.84,90.32 495.43,89.75 496.01,89.17 496.60,88.60 497.19,88.03 497.79,87.46 498.38,86.90 498.98,86.33 499.58,85.77 500.18,85.21 500.79,84.65 501.39,84.09 502.00,83.53 502.61,82.97 503.23,82.42 503.84,81.87 504.46,81.32 505.08,80.77 505.70,80.22 506.32,79.67 506.95,79.13 507.58,78.59 508.21,78.05 508.84,77.51 509.48,76.97 510.11,76.43 510.75,75.90 511.39,75.37 512.04,74.84 512.68,74.31 513.33,73.78 513.98,73.26 514.64,72.73 515.29,72.21 515.95,71.69 516.61,71.17 517.27,70.65 517.93,70.14 518.60,69.63 519.27,69.11 519.94,68.60 520.61,68.10 521.28,67.59 521.96,67.09 522.64,66.58 523.32,66.08 524.00,65.58 524.69,65.09 525.38,64.59 526.07,64.10 526.76,63.60 527.45,63.11 528.15,62.63 528.85,62.14 529.55,61.66 530.25,61.17 530.96,60.69 531.67,60.21 532.38,59.74 533.09,59.26 533.81,58.79 534.52,58.32 535.24,57.85 535.96,57.38 536.69,56.91 537.41,56.45 538.14,55.99 538.87,55.53 539.60,55.07 540.34,54.61 541.07,54.16 541.81,53.71 542.55,53.26 543.30,52.81 544.04,52.36 544.79,51.92 545.54,51.48 546.29,51.04 547.05,50.60 547.80,50.16 548.56,49.73 549.33,49.30 550.09,48.87 550.85,48.44 551.62,48.02 552.39,47.59 553.17,47.17 553.94,46.75 554.72,46.33 555.50,45.92 556.28,45.51 557.06,45.09 557.85,44.69 558.64,44.28 559.43,43.87 560.22,43.47 561.01,43.07 561.81,42.67 562.61,42.28 563.41,41.88 564.21,41.49 565.02,41.11 565.83,40.72 566.64,40.33 567.45,39.95 568.27,39.57 569.08,39.19 569.90,38.82 570.72,38.44 571.55,38.07 572.37,37.70 573.20,37.34 574.03,36.97 574.87,36.61 575.70,36.25 576.54,35.90 577.38,35.54 578.22,35.19 579.06,34.84 579.91,34.49 580.76,34.15 581.61,33.80 582.46,33.46 583.32,33.13 584.18,32.79 585.04,32.46 585.90,32.13 586.76,31.80 587.63,31.47 588.50,31.15 589.37,30.83 590.24,30.51 591.12,30.20 591.99,29.88 592.87,29.57 593.76,29.27 594.64,28.96 595.53,28.66 596.42,28.36 597.31,28.06 598.20,27.77 599.10,27.47 599.99,27.19 600.89,26.90 601.80,26.61 602.70,26.33 603.61,26.05 604.52,25.78 605.43,25.51 606.34,25.23 607.26,24.97 608.18,24.70 609.10,24.44 610.02,24.18 610.94,23.92 611.87,23.67 612.80,23.42 613.73,23.17 614.67,22.93 615.60,22.68 616.54,22.44 617.48,22.21 618.42,21.97 619.37,21.74 620.32,21.51 621.27,21.29 622.22,21.07 623.17,20.85 624.13,20.63 625.09,20.42 626.05,20.21 627.01,20.00 627.98,19.80 628.94,19.60 629.91,19.40 630.89,19.21 631.86,19.01 632.84,18.83 633.82,18.64 634.80,18.46 635.78,18.28 636.77,18.10 637.75,17.93 638.74,17.76 639.74,17.60 640.73,17.43 641.73,17.27 642.73,17.12 643.73,16.96 644.73,16.81 645.74,16.67 646.75,16.52 647.76,16.38 648.77,16.25 649.78,16.11 650.80,15.99 651.82,15.86 652.84,15.74 653.87,15.62 654.89,15.50 655.92,15.39 656.95,15.28 657.98,15.17 659.02,15.07 660.06,14.98 661.10,14.88 662.14,14.79 663.18,14.70 664.23,14.62 665.28,14.54 666.33,14.46 667.38,14.39 668.44,14.32 669.50,14.26 670.56,14.19 671.62,14.14 672.68,14.08 673.75,14.03 674.82,13.99 675.89,13.94 676.96,13.91 678.04,13.87 679.12,13.84 680.20,13.82 681.28,13.79 682.37,13.77 683.45,13.76 684.54,13.75 685.63,13.74 686.73,13.74 687.82,13.74 688.92,13.75 690.02,13.76 691.13,13.77 692.23,13.79 693.34,13.81 694.45,13.84 695.56,13.87 696.67,13.90 697.79,13.94 698.91,13.99 700.03,14.04 701.15,14.09 702.28,14.15 703.41,14.21 704.54,14.27 705.67,14.34 706.80,14.42 707.94,14.50 709.08,14.58 710.22,14.67 711.36,14.76 712.51,14.86 713.66,14.97 714.81,15.07 715.96,15.18 717.12,15.30 718.27,15.42 719.43,15.55 720.59,15.68 721.76,15.82 722.92,15.96 724.09,16.11 725.26,16.26 726.44,16.41 727.61,16.57 728.79,16.74 729.97,16.91 731.15,17.09 732.33,17.27 733.52,17.46 734.71,17.65 735.90,17.85 737.09,18.05 738.29,18.26 739.49,18.47 740.69,18.69 741.89,18.92 743.09,19.15 744.30,19.38 745.51,19.62 746.72,19.87 747.94,20.12 749.15,20.38 750.37,20.64 751.59,20.91 752.81,21.19 754.04,21.47 755.26,21.76 756.49,22.05 757.73,22.35 758.96,22.66 760.20,22.97 761.43,23.28 762.68,23.61 763.92,23.94 765.16,24.27 766.41,24.62 767.66,24.96 768.91,25.32 770.17,25.68 771.42,26.05 772.68,26.42 773.94,26.80 775.21,27.19 776.47,27.59 777.74,27.99 779.01,28.39 780.28,28.81 781.56,29.23 782.83,29.66 784.11,30.10 785.40,30.54 786.68,30.99 787.97,31.45 789.25,31.91 790.54,32.38 791.84,32.86 793.13,33.35 794.43,33.84 795.73,34.34 797.03,34.85 798.34,35.37 799.64,35.90 800.95,36.43 802.26,36.97 803.57,37.52 804.89,38.08 806.21,38.64 807.53,39.21 808.85,39.79 810.17,40.38 811.50,40.98 812.83,41.59 814.16,42.21 815.49,42.83 816.83,43.46 818.17,44.11 819.51,44.76 820.85,45.42 822.20,46.09 823.54,46.76 824.89,47.45 826.24,48.15 827.60,48.86 828.95,49.57 830.31,50.30 831.67,51.03 833.04,51.78 834.40,52.54 835.77,53.30 837.14,54.08 838.51,54.87 839.88,55.66 841.26,56.47 842.64,57.29 844.02,58.12 845.40,58.96 846.79,59.82 848.18,60.68 849.57,61.55 850.96,62.44 852.35,63.34 853.75,64.25 855.15,65.17 856.55,66.11 857.96,67.05 859.36,68.01 860.77,68.99 862.18,69.97 863.59,70.97 865.01,71.98 866.43,73.01 867.85,74.05 869.27,75.10 870.69,76.17 872.12,77.25 873.55,78.34 874.98,79.45 876.41,80.58 877.85,81.72 879.28,82.87 880.72,84.04 882.17,85.23 883.61,86.43 885.06,87.65 886.51,88.89 887.96,90.14 889.41,91.41 890.87,92.70 892.33,94.01 893.79,95.33 895.25,96.67 896.71,98.04 898.18,99.42 899.65,100.82 901.12,102.24 902.59,103.68 904.07,105.14 905.55,106.63 907.03,108.13 908.51,109.66 910.00,111.21 911.49,112.79 912.98,114.38 914.47,116.01 915.96,117.65 917.46,119.33 918.96,121.03 920.46,122.75 921.96,124.51 923.47,126.29 924.98,128.10 926.49,129.94 928.00,131.81 929.51,133.72 931.03,135.65 932.55,137.62 934.07,139.63 935.59,141.67 937.12,143.74 938.65,145.86 940.18,148.01 941.71,150.21 943.25,152.45 944.78,154.73 946.32,157.06 947.87,159.44 949.41,161.86 950.96,164.34 952.51,166.87 954.06,169.46 955.61,172.11 957.17,174.82 958.72,177.59 960.28,180.44 961.85,183.35 963.41,186.35 964.98,189.43 966.55,192.59 968.12,195.85 969.69,199.20 971.27,202.67 972.84,206.25 974.43,209.95 976.01,213.79 977.59,217.79 979.18,221.94 980.77,226.29 982.36,230.84 983.96,235.62 985.55,240.67 987.15,246.04 988.75,251.78 990.35,257.97 991.96,264.73 993.57,272.22 995.18,280.76 996.79,290.88 998.40,303.99 1000.02,328.70 1000.02,347.30 998.40,372.01 996.79,385.12 995.18,395.24 993.57,403.78 991.96,411.27 990.35,418.03 988.75,424.22 987.15,429.96 985.55,435.33 983.96,440.38 982.36,445.16 980.77,449.71 979.18,454.06 977.59,458.21 976.01,462.21 974.43,466.05 972.84,469.75 971.27,473.33 969.69,476.80 968.12,480.15 966.55,483.41 964.98,486.57 963.41,489.65 961.85,492.65 960.28,495.56 958.72,498.41 957.17,501.18 955.61,503.89 954.06,506.54 952.51,509.13 950.96,511.66 949.41,514.14 947.87,516.56 946.32,518.94 944.78,521.27 943.25,523.55 941.71,525.79 940.18,527.99 938.65,530.14 937.12,532.26 935.59,534.33 934.07,536.37 932.55,538.38 931.03,540.35 929.51,542.28 928.00,544.19 926.49,546.06 924.98,547.90 923.47,549.71 921.96,551.49 920.46,553.25 918.96,554.97 917.46,556.67 915.96,558.35 914.47,559.99 912.98,561.62 911.49,563.21 910.00,564.79 908.51,566.34 907.03,567.87 905.55,569.37 904.07,570.86 902.59,572.32 901.12,573.76 899.65,575.18 898.18,576.58 896.71,577.96 895.25,579.33 893.79,580.67 892.33,581.99 890.87,583.30 889.41,584.59 887.96,585.86 886.51,587.11 885.06,588.35 883.61,589.57 882.17,590.77 880.72,591.96 879.28,593.13 877.85,594.28 876.41,595.42 874.98,596.55 873.55,597.66 872.12,598.75 870.69,599.83 869.27,600.90 867.85,601.95 866.43,602.99 865.01,604.02 863.59,605.03 862.18,606.03 860.77,607.01 859.36,607.99 857.96,608.95 856.55,609.89 855.15,610.83 853.75,611.75 852.35,612.66 850.96,613.56 849.57,614.45 848.18,615.32 846.79,616.18 845.40,617.04 844.02,617.88 842.64,618.71 841.26,619.53 839.88,620.34 838.51,621.13 837.14,621.92 835.77,622.70 834.40,623.46 833.04,624.22 831.67,624.97 830.31,625.70 828.95,626.43 827.60,627.14 826.24,627.85 824.89,628.55 823.54,629.24 822.20,629.91 820.85,630.58 819.51,631.24 818.17,631.89 816.83,632.54 815.49,633.17 814.16,633.79 812.83,634.41 811.50,635.02 810.17,635.62 808.85,636.21 807.53,636.79 806.21,637.36 804.89,637.92 803.57,638.48 802.26,639.03 800.95,639.57 799.64,640.10 798.34,640.63 797.03,641.15 795.73,641.66 794.43,642.16 793.13,642.65 791.84,643.14 790.54,643.62 789.25,644.09 787.97,644.55 786.68,645.01 785.40,645.46 784.11,645.90 782.83,646.34 781.56,646.77 780.28,647.19 779.01,647.61 777.74,648.01 776.47,648.41 775.21,648.81 773.94,649.20 772.68,649.58 771.42,649.95 770.17,650.32 768.91,650.68 767.66,651.04 766.41,651.38 765.16,651.73 763.92,652.06 762.68,652.39 761.43,652.72 760.20,653.03 758.96,653.34 757.73,653.65 756.49,653.95 755.26,654.24 754.04,654.53 752.81,654.81 751.59,655.09 750.37,655.36 749.15,655.62 747.94,655.88 746.72,656.13 745.51,656.38 744.30,656.62 743.09,656.85 741.89,657.08 740.69,657.31 739.49,657.53 738.29,657.74 737.09,657.95 735.90,658.15 734.71,658.35 733.52,658.54 732.33,658.73 731.15,658.91 729.97,659.09 728.79,659.26 727.61,659.43 726.44,659.59 725.26,659.74 724.09,659.89 722.92,660.04 721.76,660.18 720.59,660.32 719.43,660.45 718.27,660.58 717.12,660.70 715.96,660.82 714.81,660.93 713.66,661.03 712.51,661.14 711.36,661.24 710.22,661.33 709.08,661.42 707.94,661.50 706.80,661.58 705.67,661.66 704.54,661.73 703.41,661.79 702.28,661.85 701.15,661.91 700.03,661.96 698.91,662.01 697.79,662.06 696.67,662.10 695.56,662.13 694.45,662.16 693.34,662.19 692.23,662.21 691.13,662.23 690.02,662.24 688.92,662.25 687.82,662.26 686.73,662.26 685.63,662.26 684.54,662.25 683.45,662.24 682.37,662.23 681.28,662.21 680.20,662.18 679.12,662.16 678.04,662.13 676.96,662.09 675.89,662.06 674.82,662.01 673.75,661.97 672.68,661.92 671.62,661.86 670.56,661.81 669.50,661.74 668.44,661.68 667.38,661.61 666.33,661.54 665.28,661.46 664.23,661.38 663.18,661.30 662.14,661.21 661.10,661.12 660.06,661.02 659.02,660.93 657.98,660.83 656.95,660.72 655.92,660.61 654.89,660.50 653.87,660.38 652.84,660.26 651.82,660.14 650.80,660.01 649.78,659.89 648.77,659.75 647.76,659.62 646.75,659.48 645.74,659.33 644.73,659.19 643.73,659.04 642.73,658.88 641.73,658.73 640.73,658.57 639.74,658.40 638.74,658.24 637.75,658.07 636.77,657.90 635.78,657.72 634.80,657.54 633.82,657.36 632.84,657.17 631.86,656.99 630.89,656.79 629.91,656.60 628.94,656.40 627.98,656.20 627.01,656.00 626.05,655.79 625.09,655.58 624.13,655.37 623.17,655.15 622.22,654.93 621.27,654.71 620.32,654.49 619.37,654.26 618.42,654.03 617.48,653.79 616.54,653.56 615.60,653.32 614.67,653.07 613.73,652.83 612.80,652.58 611.87,652.33 610.94,652.08 610.02,651.82 609.10,651.56 608.18,651.30 607.26,651.03 606.34,650.77 605.43,650.49 604.52,650.22 603.61,649.95 602.70,649.67 601.80,649.39 600.89,649.10 599.99,648.81 599.10,648.53 598.20,648.23 597.31,647.94 596.42,647.64 595.53,647.34 594.64,647.04 593.76,646.73 592.87,646.43 591.99,646.12 591.12,645.80 590.24,645.49 589.37,645.17 588.50,644.85 587.63,644.53 586.76,644.20 585.90,643.87 585.04,643.54 584.18,643.21 583.32,642.87 582.46,642.54 581.61,642.20 580.76,641.85 579.91,641.51 579.06,641.16 578.22,640.81 577.38,640.46 576.54,640.10 575.70,639.75 574.87,639.39 574.03,639.03 573.20,638.66 572.37,638.30 571.55,637.93 570.72,637.56 569.90,637.18 569.08,636.81 568.27,636.43 567.45,636.05 566.64,635.67 565.83,635.28 565.02,634.89 564.21,634.51 563.41,634.12 562.61,633.72 561.81,633.33 561.01,632.93 560.22,632.53 559.43,632.13 558.64,631.72 557.85,631.31 557.06,630.91 556.28,630.49 555.50,630.08 554.72,629.67 553.94,629.25 553.17,628.83 552.39,628.41 551.62,627.98 550.85,627.56 550.09,627.13 549.33,626.70 548.56,626.27 547.80,625.84 547.05,625.40 546.29,624.96 545.54,624.52 544.79,624.08 544.04,623.64 543.30,623.19 542.55,622.74 541.81,622.29 541.07,621.84 540.34,621.39 539.60,620.93 538.87,620.47 538.14,620.01 537.41,619.55 536.69,619.09 535.96,618.62 535.24,618.15 534.52,617.68 533.81,617.21 533.09,616.74 532.38,616.26 531.67,615.79 530.96,615.31 530.25,614.83 529.55,614.34 528.85,613.86 528.15,613.37 527.45,612.89 526.76,612.40 526.07,611.90 525.38,611.41 524.69,610.91 524.00,610.42 523.32,609.92 522.64,609.42 521.96,608.91 521.28,608.41 520.61,607.90 519.94,607.40 519.27,606.89 518.60,606.37 517.93,605.86 517.27,605.35 516.61,604.83 515.95,604.31 515.29,603.79 514.64,603.27 513.98,602.74 513.33,602.22 512.68,601.69 512.04,601.16 511.39,600.63 510.75,600.10 510.11,599.57 509.48,599.03 508.84,598.49 508.21,597.95 507.58,597.41 506.95,596.87 506.32,596.33 505.70,595.78 505.08,595.23 504.46,594.68 503.84,594.13 503.23,593.58 502.61,593.03 502.00,592.47 501.39,591.91 500.79,591.35 500.18,590.79 499.58,590.23 498.98,589.67 498.38,589.10 497.79,588.54 497.19,587.97 496.60,587.40 496.01,586.83 495.43,586.25 494.84,585.68 494.26,585.10 493.68,584.52 493.10,583.94 492.53,583.36 491.95,582.78 491.38,582.19 490.81,581.61 490.24,581.02 489.68,580.43 489.12,579.84 488.55,579.25 488.00,578.65 487.44,578.06 486.89,577.46 486.33,576.86 485.78,576.26 485.24,575.66 484.69,575.06 484.15,574.45 483.60,573.85 483.07,573.24 482.53,572.63 481.99,572.02 481.46,571.40 480.93,570.79 480.40,570.17 479.88,569.56 479.35,568.94 478.83,568.32 478.31,567.69 477.79,567.07 477.28,566.44 476.76,565.82 476.25,565.19 475.74,564.56 475.24,563.93 474.73,563.29 474.23,562.66 473.73,562.02 473.23,561.39 472.73,560.75 472.24,560.10 471.74,559.46 471.25,558.82 470.77,558.17 470.28,557.52 469.80,556.87 469.31,556.22 468.83,555.57 468.36,554.92 467.88,554.26 467.41,553.60 466.94,552.94 466.47,552.28 466.00,551.62 465.54,550.96 465.07,550.29 464.61,549.62 464.15,548.95 463.70,548.28 463.24,547.61 462.79,546.94 462.34,546.26 461.89,545.58 461.44,544.90 461.00,544.22 460.56,543.54 460.11,542.85 459.68,542.16 459.24,541.48 458.81,540.79 458.37,540.09 457.94,539.40 457.51,538.70 457.09,538.00 456.66,537.30 456.24,536.60 455.82,535.90 455.40,535.19 454.99,534.48 454.57,533.77 454.16,533.06 453.75,532.34 453.34,531.63 452.93,530.91 452.53,530.19 452.13,529.46 451.72,528.74 451.33,528.01 450.93,527.28 450.53,526.55 450.14,525.82 449.75,525.08 449.36,524.34 448.97,523.60 448.59,522.85 448.20,522.10 447.82,521.36 447.44,520.60 447.06,519.85 446.69,519.09 446.31,518.33 445.94,517.57 445.57,516.80 445.20,516.03 444.83,515.26 444.47,514.48 444.11,513.71 443.74,512.93 443.38,512.14 443.02,511.35 442.67,510.56 442.31,509.77 441.96,508.97 441.61,508.17 441.26,507.36 440.91,506.55 440.56,505.74 440.22,504.92 439.88,504.10 439.53,503.27 439.19,502.44 438.86,501.61 438.52,500.77 438.18,499.93 437.85,499.08 437.52,498.23 437.19,497.37 436.86,496.50 436.53,495.63 436.20,494.76 435.88,493.88 435.56,492.99 435.23,492.10 434.91,491.20 434.59,490.30 434.28,489.39 433.96,488.47 433.64,487.54 433.33,486.61 433.02,485.67 432.70,484.72 432.39,483.76 432.08,482.80 431.77,481.83 431.47,480.84 431.16,479.85 430.85,478.85 430.55,477.83 430.24,476.81 429.94,475.77 429.64,474.72 429.34,473.67 429.04,472.59 428.74,471.51 428.44,470.41 428.14,469.29 427.84,468.16 427.54,467.02 427.25,465.85 426.95,464.67 426.65,463.47 426.35,462.25 426.06,461.01 425.76,459.75 425.46,458.47 425.17,457.16 424.87,455.82 424.57,454.46 424.28,453.07 423.98,451.65 423.68,450.19 423.38,448.70 423.08,447.17 422.78,445.60 422.48,443.99 422.17,442.34 421.87,440.63 421.56,438.87 421.26,437.05 420.95,435.17 420.63,433.22 420.32,431.19 420.01,429.08 419.69,426.88 419.37,424.59 419.04,422.18 418.71,419.65 418.38,416.97 418.05,414.14 417.71,411.13 417.37,407.91 417.02,404.44 416.67,400.68 416.31,396.56 415.94,391.99 415.57,386.83 415.19,380.87 414.81,373.66 414.41,364.20 414.01,346.92" fill="none" stroke="#ef4444" stroke-width="2.2"/>
<circle cx="999.7" cy="338.0" r="2.0" fill="#ef4444"/>
<circle cx="996.8" cy="293.7" r="2.0" fill="#ef4444"/>
<circle cx="987.9" cy="250.2" r="2.0" fill="#ef4444"/>
<circle cx="973.4" cy="208.6" r="2.0" fill="#ef4444"/>
<circle cx="953.6" cy="169.4" r="2.0" fill="#ef4444"/>
<circle cx="929.0" cy="133.6" r="2.0" fill="#ef4444"/>
<circle cx="900.1" cy="101.8" r="2.0" fill="#ef4444"/>
<circle cx="867.7" cy="74.4" r="2.0" fill="#ef4444"/>
<circle cx="832.6" cy="51.9" r="2.0" fill="#ef4444"/>
<circle cx="795.4" cy="34.6" r="2.0" fill="#ef4444"/>
<circle cx="757.1" cy="22.6" r="2.0" fill="#ef4444"/>
<circle cx="718.5" cy="15.8" r="2.0" fill="#ef4444"/>
<circle cx="680.2" cy="14.1" r="2.0" fill="#ef4444"/>
<circle cx="643.2" cy="17.4" r="2.0" fill="#ef4444"/>
<circle cx="607.9" cy="25.1" r="2.0" fill="#ef4444"/>
<circle cx="575.0" cy="36.9" r="2.0" fill="#ef4444"/>
<circle cx="545.0" cy="52.1" r="2.0" fill="#ef4444"/>
<circle cx="518.1" cy="70.3" r="2.0" fill="#ef4444"/>
<circle cx="494.7" cy="90.8" r="2.0" fill="#ef4444"/>
<circle cx="474.8" cy="113.0" r="2.0" fill="#ef4444"/>
<circle cx="458.5" cy="136.2" r="2.0" fill="#ef4444"/>
<circle cx="445.5" cy="159.8" r="2.0" fill="#ef4444"/>
<circle cx="435.7" cy="183.2" r="2.0" fill="#ef4444"/>
<circle cx="428.5" cy="206.1" r="2.0" fill="#ef4444"/>
<circle cx="423.4" cy="227.9" r="2.0" fill="#ef4444"/>
<circle cx="419.9" cy="248.5" r="2.0" fill="#ef4444"/>
<circle cx="417.6" cy="267.9" r="2.0" fill="#ef4444"/>
<circle cx="415.9" cy="286.3" r="2.0" fill="#ef4444"/>
<circle cx="414.9" cy="304.0" r="2.0" fill="#ef4444"/>
<circle cx="414.3" cy="321.1" r="2.0" fill="#ef4444"/>
<circle cx="414.1" cy="338.0" r="2.0" fill="#ef4444"/>
<circle cx="414.3" cy="354.9" r="2.0" fill="#ef4444"/>
<circle cx="414.9" cy="372.0" r="2.0" fill="#ef4444"/>
<circle cx="415.9" cy="389.7" r="2.0" fill="#ef4444"/>
<circle cx="417.6" cy="408.1" r="2.0" fill="#ef4444"/>
<circle cx="419.9" cy="427.5" r="2.0" fill="#ef4444"/>
<circle cx="423.4" cy="448.1" r="2.0" fill="#ef4444"/>
<circle cx="428.5" cy="469.9" r="2.0" fill="#ef4444"/>
<circle cx="435.7" cy="492.8" r="2.0" fill="#ef4444"/>
<circle cx="445.5" cy="516.2" r="2.0" fill="#ef4444"/>
<circle cx="458.5" cy="539.8" r="2.0" fill="#ef4444"/>
<circle cx="474.8" cy="563.0" r="2.0" fill="#ef4444"/>
<circle cx="494.7" cy="585.2" r="2.0" fill="#ef4444"/>
<circle cx="518.1" cy="605.7" r="2.0" fill="#ef4444"/>
<circle cx="545.0" cy="623.9" r="2.0" fill="#ef4444"/>
<circle cx="575.0" cy="639.1" r="2.0" fill="#ef4444"/>
<circle cx="607.9" cy="650.9" r="2.0" fill="#ef4444"/>
<circle cx="643.2" cy="658.6" r="2.0" fill="#ef4444"/>
<circle cx="680.2" cy="661.9" r="2.0" fill="#ef4444"/>
<circle cx="718.5" cy="660.2" r="2.0" fill="#ef4444"/>
<circle cx="757.1" cy="653.4" r="2.0" fill="#ef4444"/>
<circle cx="795.4" cy="641.4" r="2.0" fill="#ef4444"/>
<circle cx="832.6" cy="624.1" r="2.0" fill="#ef4444"/>
<circle cx="867.7" cy="601.6" r="2.0" fill="#ef4444"/>
<circle cx="900.1" cy="574.2" r="2.0" fill="#ef4444"/>
<circle cx="929.0" cy="542.4" r="2.0" fill="#ef4444"/>
<circle cx="953.6" cy="506.6" r="2.0" fill="#ef4444"/>
<circle cx="973.4" cy="467.4" r="2.0" fill="#ef4444"/>
<circle cx="987.9" cy="425.8" r="2.0" fill="#ef4444"/>
<circle cx="996.8" cy="382.3" r="2.0" fill="#ef4444"/>
<rect x="940" y="70" width="20" height="4" fill="#38bdf8"/>
<text x="968" y="76" font-family="Arial" font-size="15" fill="#e5e7eb">a = 0</text>
<rect x="940" y="96" width="20" height="4" fill="#a78bfa"/>
<text x="968" y="102" font-family="Arial" font-size="15" fill="#e5e7eb">a = 0.50</text>
<rect x="940" y="122" width="20" height="4" fill="#f97316"/>
<text x="968" y="128" font-family="Arial" font-size="15" fill="#e5e7eb">a = 0.90</text>
<rect x="940" y="148" width="20" height="4" fill="#ef4444"/>
<text x="968" y="154" font-family="Arial" font-size="15" fill="#e5e7eb">a = 0.99</text>
</svg>
