<svg xmlns="http://www.w3.org/2000/svg" width="1100" height="700" viewBox="0 0 1100 700">
<rect width="100%" height="100%" fill="#0b0f1a"/>
<text x="90" y="34" font-family="Arial" font-size="23" fill="#e5e7eb">Orbiting hotspot light curve (r=8M, i=70): Doppler-boosted flares</text>
<line x1="90.0" y1="620.0" x2="1060.0" y2="620.0" stroke="#64748b" stroke-width="1.5"/>
<line x1="90.0" y1="620.0" x2="90.0" y2="56.0" stroke="#64748b" stroke-width="1.5"/>
<text x="550" y="674" text-anchor="middle" font-family="Arial" font-size="16" fill="#cbd5e1">time / orbital period</text>
<text x="24" y="350" text-anchor="middle" transform="rotate(-90 24 350)" font-family="Arial" font-size="16" fill="#cbd5e1">normalized flux</text>
<text x="90" y="644" font-family="Arial" font-size="12" fill="#94a3b8">0.00</text>
<text x="1060" y="644" text-anchor="end" font-family="Arial" font-size="12" fill="#94a3b8">2.00</text>
<text x="80" y="620" text-anchor="end" font-family="Arial" font-size="12" fill="#94a3b8">0</text>
<text x="80" y="56" text-anchor="end" font-family="Arial" font-size="12" fill="#94a3b8">1.05</text>
<polyline points="90.00,590.51 92.43,590.14 94.86,589.75 97.29,589.31 99.72,588.83 102.16,588.32 104.59,587.76 107.02,587.15 109.45,586.50 111.88,585.79 114.31,585.03 116.74,584.22 119.17,583.36 121.60,582.45 124.04,581.48 126.47,580.47 128.90,579.42 131.33,578.32 133.76,577.20 136.19,576.04 138.62,574.85 141.05,573.65 143.48,572.43 145.91,571.20 148.35,569.95 150.78,568.70 153.21,567.43 155.64,566.15 158.07,564.85 160.50,563.52 162.93,562.15 165.36,560.73 167.79,559.25 170.23,557.70 172.66,556.06 175.09,554.31 177.52,552.44 179.95,550.44 182.38,548.29 184.81,545.98 187.24,543.48 189.67,540.79 192.11,537.88 194.54,534.76 196.97,531.40 199.40,527.79 201.83,523.92 204.26,519.78 206.69,515.35 209.12,510.63 211.55,505.60 213.98,500.24 216.42,494.55 218.85,488.52 221.28,482.14 223.71,475.39 226.14,468.28 228.57,460.78 231.00,452.90 233.43,444.64 235.86,435.98 238.30,426.94 240.73,417.52 243.16,407.73 245.59,397.58 248.02,387.08 250.45,376.26 252.88,365.15 255.31,353.76 257.74,342.13 260.18,330.31 262.61,318.33 265.04,306.24 267.47,294.09 269.90,281.92 272.33,269.79 274.76,257.75 277.19,245.87 279.62,234.18 282.06,222.74 284.49,211.60 286.92,200.81 289.35,190.41 291.78,180.43 294.21,170.90 296.64,161.86 299.07,153.32 301.50,145.29 303.93,137.78 306.37,130.78 308.80,124.31 311.23,118.34 313.66,112.87 316.09,107.87 318.52,103.35 320.95,99.27 323.38,95.65 325.81,92.45 328.25,89.69 330.68,87.37 333.11,85.50 335.54,84.10 337.97,83.21 340.40,82.86 342.83,83.09 345.26,83.98 347.69,85.56 350.13,87.91 352.56,91.10 354.99,95.18 357.42,100.22 359.85,106.27 362.28,113.38 364.71,121.57 367.14,130.87 369.57,141.27 372.01,152.75 374.44,165.28 376.87,178.81 379.30,193.25 381.73,208.51 384.16,224.49 386.59,241.07 389.02,258.12 391.45,275.49 393.88,293.06 396.32,310.68 398.75,328.21 401.18,345.52 403.61,362.49 406.04,379.02 408.47,395.00 410.90,410.35 413.33,425.00 415.76,438.91 418.20,452.04 420.63,464.35 423.06,475.85 425.49,486.54 427.92,496.42 430.35,505.53 432.78,513.88 435.21,521.53 437.64,528.49 440.08,534.82 442.51,540.57 444.94,545.76 447.37,550.46 449.80,554.70 452.23,558.52 454.66,561.96 457.09,565.06 459.52,567.85 461.95,570.36 464.39,572.63 466.82,574.67 469.25,576.51 471.68,578.17 474.11,579.67 476.54,581.03 478.97,582.26 481.40,583.37 483.83,584.38 486.27,585.29 488.70,586.12 491.13,586.88 493.56,587.56 495.99,588.18 498.42,588.75 500.85,589.26 503.28,589.72 505.71,590.14 508.15,590.52 510.58,590.86 513.01,591.17 515.44,591.44 517.87,591.69 520.30,591.90 522.73,592.09 525.16,592.26 527.59,592.40 530.03,592.52 532.46,592.61 534.89,592.68 537.32,592.74 539.75,592.77 542.18,592.78 544.61,592.77 547.04,592.73 549.47,592.68 551.90,592.60 554.34,592.50 556.77,592.38 559.20,592.24 561.63,592.07 564.06,591.88 566.49,591.66 568.92,591.42 571.35,591.14 573.78,590.84 576.22,590.51 578.65,590.14 581.08,589.75 583.51,589.31 585.94,588.83 588.37,588.32 590.80,587.76 593.23,587.15 595.66,586.50 598.10,585.79 600.53,585.03 602.96,584.22 605.39,583.36 607.82,582.45 610.25,581.48 612.68,580.47 615.11,579.42 617.54,578.32 619.97,577.20 622.41,576.04 624.84,574.85 627.27,573.65 629.70,572.43 632.13,571.20 634.56,569.95 636.99,568.70 639.42,567.43 641.85,566.15 644.29,564.85 646.72,563.52 649.15,562.15 651.58,560.73 654.01,559.25 656.44,557.70 658.87,556.06 661.30,554.31 663.73,552.44 666.17,550.44 668.60,548.29 671.03,545.98 673.46,543.48 675.89,540.79 678.32,537.88 680.75,534.76 683.18,531.40 685.61,527.79 688.05,523.92 690.48,519.78 692.91,515.35 695.34,510.63 697.77,505.60 700.20,500.24 702.63,494.55 705.06,488.52 707.49,482.14 709.92,475.39 712.36,468.28 714.79,460.78 717.22,452.90 719.65,444.64 722.08,435.98 724.51,426.94 726.94,417.52 729.37,407.73 731.80,397.58 734.24,387.08 736.67,376.26 739.10,365.15 741.53,353.76 743.96,342.13 746.39,330.31 748.82,318.33 751.25,306.24 753.68,294.09 756.12,281.92 758.55,269.79 760.98,257.75 763.41,245.87 765.84,234.18 768.27,222.74 770.70,211.60 773.13,200.81 775.56,190.41 777.99,180.43 780.43,170.90 782.86,161.86 785.29,153.32 787.72,145.29 790.15,137.78 792.58,130.78 795.01,124.31 797.44,118.34 799.87,112.87 802.31,107.87 804.74,103.35 807.17,99.27 809.60,95.65 812.03,92.45 814.46,89.69 816.89,87.37 819.32,85.50 821.75,84.10 824.19,83.21 826.62,82.86 829.05,83.09 831.48,83.98 833.91,85.56 836.34,87.91 838.77,91.10 841.20,95.18 843.63,100.22 846.07,106.27 848.50,113.38 850.93,121.57 853.36,130.87 855.79,141.27 858.22,152.75 860.65,165.28 863.08,178.81 865.51,193.25 867.94,208.51 870.38,224.49 872.81,241.07 875.24,258.12 877.67,275.49 880.10,293.06 882.53,310.68 884.96,328.21 887.39,345.52 889.82,362.49 892.26,379.02 894.69,395.00 897.12,410.35 899.55,425.00 901.98,438.91 904.41,452.04 906.84,464.35 909.27,475.85 911.70,486.54 914.14,496.42 916.57,505.53 919.00,513.88 921.43,521.53 923.86,528.49 926.29,534.82 928.72,540.57 931.15,545.76 933.58,550.46 936.02,554.70 938.45,558.52 940.88,561.96 943.31,565.06 945.74,567.85 948.17,570.36 950.60,572.63 953.03,574.67 955.46,576.51 957.89,578.17 960.33,579.67 962.76,581.03 965.19,582.26 967.62,583.37 970.05,584.38 972.48,585.29 974.91,586.12 977.34,586.88 979.77,587.56 982.21,588.18 984.64,588.75 987.07,589.26 989.50,589.72 991.93,590.14 994.36,590.52 996.79,590.86 999.22,591.17 1001.65,591.44 1004.09,591.69 1006.52,591.90 1008.95,592.09 1011.38,592.26 1013.81,592.40 1016.24,592.52 1018.67,592.61 1021.10,592.68 1023.53,592.74 1025.96,592.77 1028.40,592.78 1030.83,592.77 1033.26,592.73 1035.69,592.68 1038.12,592.60 1040.55,592.50 1042.98,592.38 1045.41,592.24 1047.84,592.07 1050.28,591.88 1052.71,591.66 1055.14,591.42 1057.57,591.14 1060.00,590.84" fill="none" stroke="#f97316" stroke-width="2.4"/>
</svg>
