<svg xmlns="http://www.w3.org/2000/svg" width="1100" height="700" viewBox="0 0 1100 700">
<rect width="100%" height="100%" fill="#0b0f1a"/>
<text x="90" y="34" font-family="Arial" font-size="23" fill="#e5e7eb">Binary black hole strain: inspiral chirp + ringdown (G=c=1, M=1)</text>
<line x1="90.0" y1="620.0" x2="1060.0" y2="620.0" stroke="#64748b" stroke-width="1.5"/>
<line x1="90.0" y1="620.0" x2="90.0" y2="56.0" stroke="#64748b" stroke-width="1.5"/>
<text x="550" y="674" text-anchor="middle" font-family="Arial" font-size="16" fill="#cbd5e1">time / M</text>
<text x="24" y="350" text-anchor="middle" transform="rotate(-90 24 350)" font-family="Arial" font-size="16" fill="#cbd5e1">h (normalized)</text>
<text x="90" y="644" font-family="Arial" font-size="12" fill="#94a3b8">0.00</text>
<text x="1060" y="644" text-anchor="end" font-family="Arial" font-size="12" fill="#94a3b8">993.00</text>
<text x="80" y="620" text-anchor="end" font-family="Arial" font-size="12" fill="#94a3b8">-1.1</text>
<text x="80" y="56" text-anchor="end" font-family="Arial" font-size="12" fill="#94a3b8">1.1</text>
<polyline points="90.00,223.42 90.98,224.36 91.95,225.93 92.93,228.16 93.91,231.01 94.88,234.48 95.86,238.54 96.84,243.18 97.81,248.38 98.79,254.09 99.77,260.30 100.75,266.96 101.72,274.05 102.70,281.51 103.68,289.31 104.65,297.41 105.63,305.75 106.61,314.29 107.58,322.98 108.56,331.77 109.54,340.62 110.51,349.46 111.49,358.24 112.47,366.93 113.44,375.45 114.42,383.77 115.40,391.83 116.37,399.59 117.35,407.00 118.33,414.01 119.31,420.58 120.28,426.68 121.26,432.26 122.24,437.28 123.21,441.73 124.19,445.57 125.17,448.77 126.14,451.32 127.12,453.20 128.10,454.39 129.07,454.89 130.05,454.68 131.03,453.78 132.00,452.18 132.98,449.89 133.96,446.92 134.93,443.29 135.91,439.02 136.89,434.14 137.87,428.66 138.84,422.62 139.82,416.06 140.80,409.02 141.77,401.53 142.75,393.65 143.73,385.41 144.70,376.86 145.68,368.07 146.66,359.08 147.63,349.94 148.61,340.72 149.59,331.46 150.56,322.23 151.54,313.09 152.52,304.08 153.49,295.26 154.47,286.70 155.45,278.44 156.42,270.54 157.40,263.05 158.38,256.01 159.36,249.47 160.33,243.47 161.31,238.06 162.29,233.26 163.26,229.12 164.24,225.65 165.22,222.88 166.19,220.83 167.17,219.52 168.15,218.95 169.12,219.14 170.10,220.08 171.08,221.78 172.05,224.21 173.03,227.37 174.01,231.25 174.98,235.81 175.96,241.03 176.94,246.88 177.92,253.33 178.89,260.33 179.87,267.84 180.85,275.82 181.82,284.21 182.80,292.96 183.78,302.02 184.75,311.33 185.73,320.83 186.71,330.46 187.68,340.15 188.66,349.84 189.64,359.47 190.61,368.98 191.59,378.31 192.57,387.38 193.54,396.15 194.52,404.55 195.50,412.52 196.48,420.02 197.45,426.99 198.43,433.39 199.41,439.16 200.38,444.27 201.36,448.69 202.34,452.37 203.31,455.30 204.29,457.45 205.27,458.81 206.24,459.36 207.22,459.10 208.20,458.02 209.17,456.14 210.15,453.45 211.13,449.99 212.10,445.75 213.08,440.79 214.06,435.11 215.04,428.77 216.01,421.79 216.99,414.24 217.97,406.15 218.94,397.58 219.92,388.58 220.90,379.23 221.87,369.57 222.85,359.68 223.83,349.62 224.80,339.46 225.78,329.27 226.76,319.12 227.73,309.09 228.71,299.24 229.69,289.64 230.66,280.36 231.64,271.46 232.62,263.01 233.60,255.07 234.57,247.69 235.55,240.94 236.53,234.85 237.50,229.48 238.48,224.87 239.46,221.05 240.43,218.04 241.41,215.88 242.39,214.59 243.36,214.17 244.34,214.63 245.32,215.97 246.29,218.19 247.27,221.27 248.25,225.19 249.22,229.93 250.20,235.46 251.18,241.74 252.16,248.72 253.13,256.37 254.11,264.62 255.09,273.42 256.06,282.71 257.04,292.41 258.02,302.47 258.99,312.81 259.97,323.36 260.95,334.03 261.92,344.75 262.90,355.45 263.88,366.04 264.85,376.44 265.83,386.58 266.81,396.38 267.78,405.76 268.76,414.66 269.74,423.01 270.72,430.75 271.69,437.80 272.67,444.12 273.65,449.66 274.62,454.37 275.60,458.22 276.58,461.16 277.55,463.19 278.53,464.27 279.51,464.39 280.48,463.56 281.46,461.77 282.44,459.03 283.41,455.36 284.39,450.79 285.37,445.34 286.34,439.06 287.32,431.99 288.30,424.17 289.27,415.68 290.25,406.57 291.23,396.90 292.21,386.76 293.18,376.22 294.16,365.36 295.14,354.26 296.11,343.01 297.09,331.69 298.07,320.41 299.04,309.23 300.02,298.26 301.00,287.57 301.97,277.26 302.95,267.41 303.93,258.10 304.90,249.41 305.88,241.40 306.86,234.14 307.83,227.70 308.81,222.12 309.79,217.47 310.77,213.77 311.74,211.07 312.72,209.38 313.70,208.73 314.67,209.13 315.65,210.58 316.63,213.06 317.60,216.57 318.58,221.08 319.56,226.56 320.53,232.97 321.51,240.25 322.49,248.35 323.46,257.21 324.44,266.76 325.42,276.93 326.39,287.62 327.37,298.76 328.35,310.25 329.33,322.00 330.30,333.91 331.28,345.88 332.26,357.81 333.23,369.61 334.21,381.17 335.19,392.39 336.16,403.18 337.14,413.44 338.12,423.08 339.09,432.02 340.07,440.18 341.05,447.49 342.02,453.87 343.00,459.27 343.98,463.65 344.95,466.94 345.93,469.14 346.91,470.20 347.89,470.11 348.86,468.88 349.84,466.50 350.82,462.99 351.79,458.38 352.77,452.70 353.75,446.00 354.72,438.33 355.70,429.75 356.68,420.34 357.65,410.18 358.63,399.34 359.61,387.93 360.58,376.05 361.56,363.80 362.54,351.28 363.51,338.62 364.49,325.91 365.47,313.28 366.45,300.84 367.42,288.71 368.40,276.99 369.38,265.80 370.35,255.23 371.33,245.40 372.31,236.39 373.28,228.29 374.26,221.18 375.24,215.13 376.21,210.20 377.19,206.45 378.17,203.91 379.14,202.61 380.12,202.57 381.10,203.80 382.07,206.29 383.05,210.03 384.03,214.99 385.01,221.12 385.98,228.37 386.96,236.69 387.94,246.00 388.91,256.21 389.89,267.22 390.87,278.95 391.84,291.28 392.82,304.10 393.80,317.27 394.77,330.69 395.75,344.21 396.73,357.71 397.70,371.06 398.68,384.13 399.66,396.77 400.63,408.88 401.61,420.33 402.59,430.99 403.56,440.76 404.54,449.55 405.52,457.25 406.50,463.78 407.47,469.08 408.45,473.08 409.43,475.73 410.40,477.00 411.38,476.87 412.36,475.34 413.33,472.41 414.31,468.10 415.29,462.45 416.26,455.51 417.24,447.34 418.22,438.03 419.19,427.65 420.17,416.32 421.15,404.14 422.12,391.24 423.10,377.74 424.08,363.78 425.06,349.51 426.03,335.08 427.01,320.63 427.99,306.32 428.96,292.30 429.94,278.72 430.92,265.72 431.89,253.46 432.87,242.07 433.85,231.66 434.82,222.37 435.80,214.30 436.78,207.54 437.75,202.17 438.73,198.26 439.71,195.87 440.68,195.02 441.66,195.74 442.64,198.03 443.62,201.87 444.59,207.23 445.57,214.06 446.55,222.30 447.52,231.85 448.50,242.62 449.48,254.50 450.45,267.36 451.43,281.07 452.41,295.46 453.38,310.39 454.36,325.69 455.34,341.17 456.31,356.68 457.29,372.02 458.27,387.03 459.24,401.52 460.22,415.33 461.20,428.28 462.18,440.23 463.15,451.02 464.13,460.52 465.11,468.62 466.08,475.20 467.06,480.17 468.04,483.48 469.01,485.06 469.99,484.89 470.97,482.95 471.94,479.26 472.92,473.85 473.90,466.77 474.87,458.10 475.85,447.94 476.83,436.39 477.80,423.59 478.78,409.68 479.76,394.84 480.74,379.23 481.71,363.06 482.69,346.50 483.67,329.78 484.64,313.10 485.62,296.66 486.60,280.68 487.57,265.37 488.55,250.92 489.53,237.53 490.50,225.37 491.48,214.61 492.46,205.40 493.43,197.87 494.41,192.14 495.39,188.28 496.36,186.36 497.34,186.43 498.32,188.50 499.30,192.56 500.27,198.56 501.25,206.45 502.23,216.12 503.20,227.48 504.18,240.37 505.16,254.64 506.13,270.09 507.11,286.54 508.09,303.77 509.06,321.53 510.04,339.61 511.02,357.73 511.99,375.67 512.97,393.16 513.95,409.95 514.92,425.81 515.90,440.50 516.88,453.81 517.85,465.54 518.83,475.50 519.81,483.54 520.79,489.53 521.76,493.36 522.74,494.95 523.72,494.28 524.69,491.31 525.67,486.09 526.65,478.67 527.62,469.13 528.60,457.60 529.58,444.23 530.55,429.22 531.53,412.76 532.51,395.09 533.48,376.47 534.46,357.17 535.44,337.49 536.41,317.72 537.39,298.16 538.37,279.12 539.35,260.90 540.32,243.79 541.30,228.07 542.28,213.99 543.25,201.81 544.23,191.73 545.21,183.92 546.18,178.55 547.16,175.71 548.14,175.48 549.11,177.89 550.09,182.93 551.07,190.53 552.04,200.61 553.02,213.01 554.00,227.55 554.97,244.02 555.95,262.16 556.93,281.68 557.91,302.26 558.88,323.57 559.86,345.24 560.84,366.92 561.81,388.21 562.79,408.76 563.77,428.19 564.74,446.16 565.72,462.32 566.70,476.38 567.67,488.06 568.65,497.12 569.63,503.37 570.60,506.68 571.58,506.93 572.56,504.11 573.53,498.21 574.51,489.32 575.49,477.57 576.47,463.13 577.44,446.26 578.42,427.24 579.40,406.40 580.37,384.13 581.35,360.82 582.33,336.92 583.30,312.89 584.28,289.18 585.26,266.28 586.23,244.64 587.21,224.70 588.19,206.89 589.16,191.59 590.14,179.15 591.12,169.84 592.09,163.91 593.07,161.52 594.05,162.76 595.03,167.66 596.00,176.17 596.98,188.15 597.96,203.40 598.93,221.63 599.91,242.50 600.89,265.59 601.86,290.44 602.84,316.51 603.82,343.26 604.79,370.10 605.77,396.43 606.75,421.65 607.72,445.18 608.70,466.45 609.68,484.94 610.65,500.18 611.63,511.77 612.61,519.38 613.59,522.77 614.56,521.79 615.54,516.39 616.52,506.64 617.49,492.71 618.47,474.87 619.45,453.48 620.42,429.04 621.40,402.09 622.38,373.29 623.35,343.32 624.33,312.94 625.31,282.93 626.28,254.07 627.26,227.14 628.24,202.90 629.21,182.04 630.19,165.17 631.17,152.84 632.15,145.46 633.12,143.32 634.10,146.60 635.08,155.29 636.05,169.26 637.03,188.20 638.01,211.68 638.98,239.09 639.96,269.70 640.94,302.68 641.91,337.08 642.89,371.90 643.87,406.07 644.84,438.52 645.82,468.22 646.80,494.16 647.77,515.44 648.75,531.27 649.73,541.02 650.70,544.22 651.68,540.62 652.66,530.19 653.64,513.10 654.61,489.80 655.59,460.93 656.57,427.37 657.54,390.19 658.52,350.64 659.50,310.08 660.47,269.98 661.45,231.85 662.43,197.16 663.40,167.34 664.38,143.66 665.36,127.23 666.33,118.90 667.31,119.23 668.29,128.46 669.26,146.49 670.24,172.81 671.22,206.56 672.20,246.54 673.17,291.18 674.15,338.67 675.13,386.96 676.10,433.88 677.08,477.21 678.06,514.77 679.03,544.58 680.01,564.91 680.99,574.40 681.96,572.18 682.94,557.92 683.92,531.89 684.89,495.01 685.87,448.85 686.85,395.56 687.82,337.83 688.80,278.79 689.78,221.82 690.76,170.42 691.73,127.97 692.71,97.54 693.69,81.64 694.66,82.02 695.64,99.47 696.62,133.71 697.59,183.21 698.57,245.28 699.55,316.04 700.52,390.65 701.50,390.65 702.48,508.62 703.45,559.60 704.43,539.73 705.41,465.85 706.38,367.43 707.36,276.23 708.34,216.96 709.32,201.35 710.29,226.93 711.27,279.93 712.25,341.00 713.22,391.56 714.20,418.96 715.18,419.08 716.15,396.21 717.13,360.47 718.11,324.01 719.08,297.28 720.06,286.32 721.04,291.73 722.01,309.39 722.99,332.37 723.97,353.31 724.94,366.60 725.92,369.69 726.90,363.31 727.88,350.77 728.85,336.59 729.83,325.06 730.81,319.02 731.78,319.31 732.76,324.85 733.74,333.24 734.71,341.65 735.69,347.70 736.67,350.04 737.64,348.60 738.62,344.39 739.60,339.03 740.57,334.23 741.55,331.25 742.53,330.66 743.50,332.24 744.48,335.20 745.46,338.49 746.44,341.12 747.41,342.45 748.39,342.31 749.37,340.97 750.34,339.00 751.32,337.06 752.30,335.69 753.27,335.20 754.25,335.57 755.23,336.58 756.20,337.83 757.18,338.93 758.16,339.59 759.13,339.70 760.11,339.31 761.09,338.61 762.06,337.85 763.04,337.25 764.02,336.96 764.99,337.01 765.97,337.33 766.95,337.79 767.93,338.24 768.90,338.55 769.88,338.65 770.86,338.56 771.83,338.32 772.81,338.03 773.79,337.77 774.76,337.63 775.74,337.61 776.72,337.70 777.69,337.87 778.67,338.04 779.65,338.18 780.62,338.24 781.60,338.23 782.58,338.15 783.55,338.04 784.53,337.94 785.51,337.87 786.49,337.85 787.46,337.87 788.44,337.93 789.42,338.00 790.39,338.06 791.37,338.09 792.35,338.09 793.32,338.07 794.30,338.03 795.28,337.99 796.25,337.96 797.23,337.94 798.21,337.95 799.18,337.97 800.16,337.99 801.14,338.02 802.11,338.03 803.09,338.04 804.07,338.03 805.05,338.02 806.02,338.00 807.00,337.99" fill="none" stroke="#38bdf8" stroke-width="1.6"/>
<rect x="850" y="70" width="20" height="4" fill="#38bdf8"/>
<text x="878" y="76" font-family="Arial" font-size="15" fill="#e5e7eb">1:1 chirp+ringdown</text>
</svg>
