<svg xmlns="http://www.w3.org/2000/svg" width="1100" height="700" viewBox="0 0 1100 700">
<rect width="100%" height="100%" fill="#0b0f1a"/>
<text x="90" y="34" font-family="Arial" font-size="23" fill="#e5e7eb">Gravitational light bending (Schwarzschild, M=1)</text>
<line x1="90.0" y1="620.0" x2="1060.0" y2="620.0" stroke="#64748b" stroke-width="1.5"/>
<line x1="90.0" y1="620.0" x2="90.0" y2="56.0" stroke="#64748b" stroke-width="1.5"/>
<text x="550" y="674" text-anchor="middle" font-family="Arial" font-size="16" fill="#cbd5e1">x / M</text>
<text x="24" y="350" text-anchor="middle" transform="rotate(-90 24 350)" font-family="Arial" font-size="16" fill="#cbd5e1">y / M</text>
<text x="90" y="644" font-family="Arial" font-size="12" fill="#94a3b8">-43.78</text>
<text x="1060" y="644" text-anchor="end" font-family="Arial" font-size="12" fill="#94a3b8">43.78</text>
<text x="80" y="620" text-anchor="end" font-family="Arial" font-size="12" fill="#94a3b8">-25.5</text>
<text x="80" y="56" text-anchor="end" font-family="Arial" font-size="12" fill="#94a3b8">25.5</text>
<circle cx="575.0" cy="338.0" r="22.2" fill="#000000" stroke="#475569" stroke-width="1"/>
<circle cx="575.0" cy="338.0" r="33.2" fill="none" stroke="#f59e0b" stroke-width="1.3" stroke-dasharray="5 4"/>
<polyline points="1018.14,338.00 1012.75,338.14 985.76,338.83 949.01,339.77 913.40,340.69 884.76,341.42 859.05,342.08 835.96,342.67 815.21,343.20 796.55,343.68 779.72,344.11 764.54,344.50 750.81,344.86 737.00,345.21 725.85,345.50 714.65,345.78 704.51,346.04 695.39,346.28 687.17,346.49 679.74,346.68 673.01,346.85 666.91,347.00 661.36,347.15 656.31,347.27 651.71,347.39 647.51,347.50 643.66,347.59 640.14,347.68 636.90,347.76 633.93,347.84 631.20,347.90 628.68,347.96 626.36,348.02 624.22,348.07 622.24,348.12 620.40,348.16 618.70,348.20 617.12,348.24 615.66,348.27 614.30,348.30 613.03,348.32 611.85,348.35 610.76,348.37 609.73,348.39 608.78,348.41 607.89,348.42 607.05,348.44 606.27,348.45 605.55,348.46 604.87,348.47 604.23,348.48 603.63,348.48 603.07,348.49 602.55,348.50 602.06,348.50 601.59,348.51 601.16,348.51 600.76,348.51 600.38,348.51 600.02,348.52 599.68,348.52 599.37,348.52 599.07,348.52 598.80,348.52 598.53,348.52 598.29,348.52 598.06,348.52 597.84,348.52 597.64,348.52 597.45,348.52 597.27,348.52 597.10,348.52 596.94,348.51 596.80,348.51 596.66,348.51 596.53,348.51 596.40,348.51 596.29,348.51 596.18,348.51 596.08,348.51 595.98,348.51 595.89,348.51 595.81,348.50 595.73,348.50 595.65,348.50 595.58,348.50 595.52,348.50 595.46,348.50 595.40,348.50 595.35,348.50 595.29,348.50 595.25,348.50 595.20,348.50 595.16,348.50 595.12,348.50 595.08,348.49 595.05,348.49 595.02,348.49 594.99,348.49 594.96,348.49 594.93,348.49 594.90,348.49 594.88,348.49 594.86,348.49 594.84,348.49 594.82,348.49 594.80,348.49 594.78,348.49 594.77,348.49 594.75,348.49 594.74,348.49 594.72,348.49 594.71,348.49 594.70,348.49 594.69,348.49 594.68,348.49 594.67,348.49 594.66,348.49 594.65,348.49 594.64,348.49 594.63,348.49 594.63,348.49 594.62,348.49 594.61,348.49 594.61,348.49 594.60,348.49 594.60,348.49 594.59,348.49 594.59,348.49 594.58,348.49 594.58,348.49 594.58,348.49 594.57,348.49 594.57,348.49 594.57,348.49 594.56,348.49 594.56,348.49 594.56,348.49 594.56,348.49 594.55,348.49 594.55,348.49 594.55,348.49 594.55,348.49 594.55,348.49 594.54,348.49" fill="none" stroke="#ef4444" stroke-width="1.6"/>
<polyline points="1018.14,338.00 1012.75,338.21 985.77,339.25 949.01,340.66 913.43,342.03 884.79,343.13 859.06,344.12 835.94,345.01 815.16,345.81 796.44,346.53 779.55,347.18 764.30,347.76 750.50,348.30 736.62,348.83 725.40,349.26 714.12,349.69 703.91,350.08 694.71,350.44 686.41,350.75 678.91,351.04 672.11,351.30 665.93,351.53 660.32,351.75 655.20,351.94 650.53,352.11 646.27,352.27 642.36,352.42 638.78,352.55 635.48,352.66 632.46,352.77 629.67,352.87 627.10,352.96 624.72,353.04 622.53,353.11 620.49,353.17 618.61,353.23 616.86,353.28 615.23,353.32 613.72,353.36 612.32,353.40 611.00,353.43 609.78,353.45 608.64,353.47 607.57,353.49 606.58,353.50 605.64,353.51 604.77,353.52 603.95,353.53 603.18,353.53 602.46,353.53 601.79,353.53 601.15,353.53 600.56,353.52 600.00,353.52 599.47,353.51 598.98,353.50 598.52,353.49 598.08,353.48 597.67,353.47 597.28,353.46 596.92,353.45 596.58,353.44 596.26,353.43 595.95,353.42 595.67,353.41 595.40,353.39 595.15,353.38 594.91,353.37 594.69,353.36 594.48,353.35 594.28,353.34 594.10,353.33 593.92,353.32 593.76,353.31 593.60,353.30 593.46,353.29 593.32,353.28 593.19,353.27 593.07,353.26 592.96,353.26 592.85,353.25 592.75,353.24 592.66,353.23 592.57,353.23 592.48,353.22 592.41,353.21 592.33,353.21 592.26,353.20 592.20,353.20 592.14,353.19 592.08,353.19 592.03,353.18 591.98,353.18 591.93,353.18 591.88,353.17 591.84,353.17 591.80,353.16 591.77,353.16 591.73,353.16 591.70,353.16 591.67,353.15 591.64,353.15 591.61,353.15 591.59,353.15 591.57,353.14 591.54,353.14 591.52,353.14 591.50,353.14 591.48,353.14 591.47,353.13 591.45,353.13 591.44,353.13 591.42,353.13 591.41,353.13 591.40,353.13 591.38,353.13 591.37,353.13 591.36,353.13 591.35,353.12 591.34,353.12 591.34,353.12 591.33,353.12 591.32,353.12 591.31,353.12 591.31,353.12 591.30,353.12 591.29,353.12 591.29,353.12 591.28,353.12 591.28,353.12 591.27,353.12 591.27,353.12 591.27,353.12 591.26,353.12 591.26,353.12 591.26,353.12 591.25,353.11 591.25,353.11 591.25,353.11 591.24,353.11 591.24,353.11 591.24,353.11 591.24,353.11 591.24,353.11 591.23,353.11 591.23,353.11" fill="none" stroke="#ef4444" stroke-width="1.6"/>
<polyline points="1018.14,338.00 1012.75,338.28 985.79,339.66 949.01,341.55 913.47,343.37 884.83,344.84 859.08,346.16 835.91,347.35 815.06,348.42 796.26,349.38 779.29,350.25 763.94,351.04 748.50,351.83 736.04,352.47 723.49,353.11 713.29,353.63 703.03,354.15 693.72,354.62 685.31,355.05 677.69,355.44 670.78,355.78 664.49,356.10 658.77,356.38 653.56,356.64 648.79,356.87 644.42,357.08 640.42,357.27 636.75,357.44 633.37,357.59 630.26,357.73 627.38,357.85 624.73,357.96 622.28,358.05 620.01,358.14 617.90,358.21 615.94,358.27 614.12,358.32 612.42,358.36 610.84,358.39 609.37,358.42 607.99,358.43 606.71,358.44 605.50,358.45 604.38,358.44 603.32,358.44 602.33,358.42 601.40,358.41 600.52,358.39 599.70,358.36 598.93,358.34 598.21,358.31 597.52,358.27 596.88,358.24 596.28,358.20 595.71,358.17 595.17,358.13 594.66,358.09 594.19,358.05 593.74,358.01 593.31,357.97 592.92,357.93 592.54,357.89 592.19,357.85 591.85,357.81 591.54,357.77 591.24,357.74 590.96,357.70 590.70,357.66 590.45,357.63 590.22,357.59 590.00,357.56 589.79,357.53 589.60,357.50 589.41,357.47 589.24,357.44 589.08,357.41 588.93,357.39 588.78,357.36 588.65,357.34 588.52,357.32 588.40,357.29 588.29,357.27 588.18,357.25 588.08,357.24 587.99,357.22 587.90,357.20 587.82,357.18 587.74,357.17 587.67,357.15 587.60,357.14 587.53,357.13 587.47,357.11 587.42,357.10 587.36,357.09 587.31,357.08 587.26,357.07 587.22,357.06 587.18,357.05 587.14,357.04 587.10,357.04 587.07,357.03 587.04,357.02 587.01,357.02 586.98,357.01 586.95,357.00 586.93,357.00 586.90,356.99 586.88,356.99 586.86,356.98 586.84,356.98 586.82,356.98 586.80,356.97 586.79,356.97 586.77,356.96 586.76,356.96 586.75,356.96 586.73,356.96 586.72,356.95 586.71,356.95 586.70,356.95 586.69,356.95 586.68,356.94 586.67,356.94 586.66,356.94 586.66,356.94 586.65,356.94 586.64,356.94 586.64,356.93 586.63,356.93 586.63,356.93 586.62,356.93 586.62,356.93 586.61,356.93 586.61,356.93 586.60,356.93 586.60,356.93 586.60,356.92 586.59,356.92 586.59,356.92 586.59,356.92 586.58,356.92 586.58,356.92 586.58,356.92 586.58,356.92 586.58,356.92 586.57,356.92" fill="none" stroke="#ef4444" stroke-width="1.6"/>
<polyline points="1018.14,338.00 1012.75,338.35 985.81,340.07 949.02,342.43 913.52,344.71 884.88,346.54 859.09,348.20 835.87,349.69 814.93,351.03 796.03,352.24 778.94,353.33 763.46,354.32 747.88,355.32 735.27,356.13 722.58,356.94 711.09,357.67 700.73,358.32 691.36,358.92 682.88,359.45 675.19,359.93 668.19,360.37 661.82,360.76 656.01,361.11 650.70,361.43 645.83,361.72 641.37,361.97 637.28,362.20 633.51,362.40 630.03,362.58 626.83,362.73 623.86,362.86 621.12,362.98 618.58,363.07 616.21,363.15 614.02,363.20 611.98,363.25 610.07,363.28 608.30,363.29 606.64,363.29 605.09,363.28 603.63,363.26 602.27,363.22 601.00,363.18 599.80,363.13 598.68,363.07 597.62,363.01 596.63,362.93 595.69,362.86 594.81,362.78 593.98,362.69 593.20,362.60 592.47,362.51 591.77,362.42 591.12,362.32 590.51,362.22 589.92,362.13 589.38,362.03 588.86,361.93 588.37,361.84 587.91,361.74 587.48,361.65 587.07,361.56 586.69,361.47 586.32,361.38 585.98,361.29 585.66,361.21 585.36,361.13 585.07,361.05 584.80,360.97 584.54,360.90 584.30,360.83 584.08,360.76 583.87,360.69 583.67,360.63 583.48,360.57 583.30,360.51 583.13,360.45 582.98,360.40 582.83,360.35 582.69,360.30 582.56,360.25 582.44,360.21 582.32,360.17 582.21,360.13 582.11,360.09 582.02,360.05 581.93,360.02 581.84,359.99 581.76,359.96 581.69,359.93 581.62,359.90 581.55,359.87 581.49,359.85 581.43,359.83 581.38,359.80 581.32,359.78 581.28,359.76 581.23,359.75 581.19,359.73 581.15,359.71 581.11,359.70 581.08,359.68 581.04,359.67 581.01,359.66 580.98,359.64 580.95,359.63 580.93,359.62 580.91,359.61 580.88,359.60 580.86,359.59 580.84,359.58 580.82,359.58 580.81,359.57 580.79,359.56 580.77,359.55 580.76,359.55 580.75,359.54 580.73,359.54 580.72,359.53 580.71,359.53 580.70,359.52 580.69,359.52 580.68,359.51 580.67,359.51 580.66,359.51 580.65,359.50 580.65,359.50 580.64,359.50 580.63,359.50 580.63,359.49 580.62,359.49 580.62,359.49 580.61,359.49 580.61,359.48 580.60,359.48 580.60,359.48 580.60,359.48 580.59,359.48 580.59,359.48 580.59,359.47 580.58,359.47 580.58,359.47 580.58,359.47 580.58,359.47 580.57,359.47 580.57,359.47" fill="none" stroke="#ef4444" stroke-width="1.6"/>
<polyline points="1018.14,338.00 1012.76,338.41 985.84,340.49 949.03,343.32 913.58,346.05 884.94,348.25 859.11,350.24 835.81,352.03 814.76,353.64 795.73,355.11 778.49,356.43 761.14,357.76 747.08,358.84 732.93,359.92 720.12,360.90 708.55,361.78 698.09,362.57 688.61,363.29 680.00,363.93 672.16,364.51 665.02,365.04 658.49,365.51 652.52,365.93 647.05,366.31 642.02,366.64 637.40,366.93 633.15,367.19 629.22,367.41 625.60,367.60 622.25,367.75 619.14,367.87 616.25,367.97 613.58,368.03 611.09,368.07 608.76,368.08 606.60,368.07 604.58,368.04 602.69,367.98 600.93,367.91 599.28,367.82 597.73,367.71 596.27,367.58 594.91,367.45 593.63,367.30 592.43,367.14 591.30,366.97 590.23,366.80 589.23,366.62 588.29,366.43 587.40,366.24 586.57,366.04 585.78,365.85 585.04,365.65 584.34,365.45 583.68,365.26 583.06,365.06 582.48,364.87 581.93,364.67 581.41,364.49 580.93,364.30 580.47,364.12 580.03,363.94 579.63,363.77 579.24,363.60 578.88,363.44 578.54,363.28 578.23,363.13 577.93,362.98 577.64,362.84 577.38,362.70 577.13,362.57 576.89,362.44 576.67,362.32 576.46,362.20 576.27,362.09 576.09,361.98 575.91,361.88 575.75,361.78 575.60,361.69 575.46,361.60 575.32,361.52 575.20,361.44 575.08,361.36 574.97,361.29 574.86,361.22 574.76,361.16 574.67,361.10 574.59,361.04 574.50,360.98 574.43,360.93 574.36,360.88 574.29,360.84 574.23,360.79 574.17,360.75 574.11,360.71 574.06,360.68 574.01,360.64 573.96,360.61 573.92,360.58 573.88,360.55 573.84,360.52 573.81,360.49 573.77,360.47 573.74,360.45 573.71,360.43 573.69,360.41 573.66,360.39 573.64,360.37 573.61,360.35 573.59,360.34 573.57,360.32 573.55,360.31 573.53,360.29 573.52,360.28 573.50,360.27 573.49,360.26 573.47,360.25 573.46,360.24 573.45,360.23 573.44,360.22 573.43,360.21 573.42,360.20 573.41,360.20 573.40,360.19 573.39,360.18 573.38,360.18 573.38,360.17 573.37,360.17 573.36,360.16 573.36,360.16 573.35,360.15 573.35,360.15 573.34,360.15 573.34,360.14 573.33,360.14 573.33,360.14 573.32,360.13 573.32,360.13 573.32,360.13 573.31,360.13 573.31,360.12 573.31,360.12 573.31,360.12 573.30,360.12 573.30,360.12 573.30,360.11 573.30,360.11" fill="none" stroke="#ef4444" stroke-width="1.6"/>
<polyline points="1018.14,338.00 1012.76,338.48 985.87,340.90 949.05,344.20 913.65,347.38 885.01,349.95 859.13,352.27 835.74,354.37 814.57,356.27 793.26,358.18 776.04,359.72 758.70,361.27 743.02,362.67 728.88,363.93 716.10,365.06 704.51,366.08 693.99,367.01 684.41,367.84 675.67,368.59 667.67,369.27 660.35,369.88 653.62,370.42 647.44,370.91 641.75,371.33 636.50,371.70 631.65,372.01 627.18,372.27 623.04,372.48 619.20,372.64 615.64,372.75 612.34,372.82 609.27,372.83 606.41,372.81 603.76,372.74 601.28,372.63 598.97,372.49 596.81,372.32 594.80,372.11 592.92,371.87 591.16,371.62 589.51,371.33 587.97,371.03 586.53,370.72 585.18,370.39 583.91,370.04 582.72,369.69 581.60,369.33 580.56,368.97 579.57,368.60 578.65,368.23 577.79,367.86 576.98,367.49 576.22,367.13 575.50,366.76 574.84,366.41 574.21,366.05 573.62,365.71 573.07,365.37 572.56,365.04 572.07,364.71 571.62,364.40 571.20,364.09 570.80,363.80 570.43,363.51 570.09,363.23 569.76,362.97 569.46,362.71 569.17,362.46 568.91,362.22 568.66,362.00 568.43,361.78 568.21,361.57 568.00,361.37 567.81,361.18 567.64,360.99 567.47,360.82 567.31,360.65 567.17,360.50 567.03,360.35 566.90,360.20 566.78,360.07 566.67,359.94 566.57,359.82 566.47,359.70 566.38,359.59 566.29,359.49 566.21,359.39 566.14,359.29 566.07,359.21 566.00,359.12 565.94,359.05 565.88,358.97 565.83,358.90 565.78,358.83 565.73,358.77 565.69,358.71 565.65,358.66 565.61,358.61 565.57,358.56 565.54,358.51 565.50,358.47 565.47,358.43 565.45,358.39 565.42,358.35 565.40,358.32 565.37,358.28 565.35,358.25 565.33,358.23 565.31,358.20 565.29,358.17 565.28,358.15 565.26,358.13 565.25,358.11 565.23,358.09 565.22,358.07 565.21,358.05 565.20,358.03 565.19,358.02 565.18,358.00 565.17,357.99 565.16,357.98 565.15,357.97 565.14,357.96 565.13,357.95 565.13,357.94 565.12,357.93 565.11,357.92 565.11,357.91 565.10,357.90 565.10,357.89 565.09,357.89 565.09,357.88 565.09,357.88 565.08,357.87 565.08,357.86 565.08,357.86 565.07,357.85 565.07,357.85 565.07,357.85 565.06,357.84 565.06,357.84 565.06,357.84 565.06,357.83 565.06,357.83 565.05,357.83 565.05,357.82 565.05,357.82" fill="none" stroke="#ef4444" stroke-width="1.6"/>
<polyline points="1018.14,338.00 1012.77,338.55 985.91,341.31 949.07,345.09 913.74,348.71 885.09,351.65 859.16,354.31 835.68,356.71 812.02,359.14 792.89,361.09 773.61,363.06 756.16,364.84 740.41,366.45 726.14,367.89 713.18,369.20 701.38,370.39 690.59,371.46 680.70,372.43 671.61,373.31 663.22,374.10 655.47,374.80 648.29,375.43 641.62,375.98 635.42,376.45 629.66,376.84 624.32,377.14 619.36,377.37 614.77,377.50 610.51,377.55 606.57,377.52 602.92,377.41 599.53,377.23 596.39,376.97 593.48,376.65 590.78,376.27 588.28,375.83 585.96,375.35 583.81,374.82 581.81,374.26 579.96,373.67 578.23,373.06 576.63,372.43 575.15,371.78 573.76,371.12 572.48,370.45 571.28,369.78 570.17,369.10 569.15,368.43 568.19,367.76 567.30,367.10 566.48,366.44 565.72,365.80 565.02,365.16 564.37,364.54 563.77,363.94 563.21,363.34 562.70,362.77 562.23,362.21 561.80,361.67 561.40,361.15 561.03,360.64 560.69,360.15 560.38,359.68 560.09,359.23 559.83,358.80 559.59,358.38 559.37,357.98 559.16,357.60 558.98,357.24 558.81,356.89 558.65,356.56 558.51,356.24 558.37,355.94 558.25,355.65 558.14,355.38 558.04,355.12 557.95,354.87 557.86,354.64 557.78,354.41 557.71,354.20 557.65,354.00 557.59,353.81 557.53,353.64 557.48,353.47 557.43,353.31 557.39,353.15 557.35,353.01 557.31,352.88 557.28,352.75 557.25,352.63 557.22,352.52 557.19,352.41 557.17,352.31 557.15,352.21 557.13,352.12 557.11,352.04 557.09,351.96 557.07,351.89 557.06,351.81 557.04,351.75 557.03,351.69 557.02,351.63 557.01,351.57 557.00,351.52 556.99,351.47 556.98,351.43 556.97,351.38 556.96,351.34 556.96,351.30 556.95,351.27 556.94,351.23 556.94,351.20 556.93,351.17 556.93,351.14 556.92,351.12 556.92,351.09 556.91,351.07 556.91,351.05 556.91,351.03 556.90,351.01 556.90,350.99 556.90,350.97 556.89,350.96 556.89,350.94 556.89,350.93 556.89,350.92 556.89,350.90 556.88,350.89 556.88,350.88 556.88,350.87 556.88,350.86 556.88,350.85 556.88,350.84 556.87,350.84 556.87,350.83 556.87,350.82 556.87,350.82 556.87,350.81 556.87,350.80 556.87,350.80 556.87,350.79 556.87,350.79 556.87,350.78 556.87,350.78 556.86,350.78 556.86,350.77 556.86,350.77 556.86,350.77" fill="none" stroke="#ef4444" stroke-width="1.6"/>
<polyline points="1018.14,338.00 1012.78,338.62 985.95,341.72 949.09,345.97 913.85,350.04 885.20,353.34 856.34,356.67 833.03,359.35 809.54,362.06 788.31,364.50 769.18,366.70 751.87,368.68 736.16,370.47 721.86,372.10 708.79,373.57 696.80,374.91 685.74,376.13 675.49,377.24 665.95,378.25 657.00,379.16 648.55,379.97 640.49,380.68 632.74,381.29 625.22,381.78 617.91,382.11 611.82,382.25 606.33,382.22 601.35,382.04 596.80,381.73 592.62,381.27 588.77,380.70 584.83,379.93 581.61,379.14 578.34,378.16 575.37,377.10 572.67,375.97 570.23,374.80 568.02,373.59 566.01,372.35 564.18,371.09 562.52,369.81 561.02,368.53 559.66,367.25 558.42,365.97 557.31,364.71 556.32,363.46 555.42,362.22 554.63,361.02 553.92,359.83 553.30,358.68 552.75,357.56 552.28,356.47 551.86,355.42 551.51,354.41 551.21,353.43 550.96,352.49 550.75,351.59 550.58,350.72 550.44,349.90 550.34,349.11 550.27,348.35 550.22,347.64 550.19,346.95 550.18,346.30 550.19,345.69 550.21,345.10 550.24,344.55 550.29,344.02 550.34,343.53 550.40,343.06 550.47,342.61 550.54,342.19 550.62,341.79 550.70,341.42 550.78,341.06 550.86,340.73 550.94,340.41 551.02,340.12 551.10,339.84 551.18,339.57 551.26,339.32 551.34,339.09 551.41,338.87 551.49,338.66 551.56,338.47 551.63,338.28 551.70,338.11 551.76,337.95 551.82,337.80 551.89,337.65 551.94,337.52 552.00,337.39 552.05,337.27 552.10,337.16 552.15,337.05 552.20,336.96 552.24,336.86 552.28,336.77 552.32,336.69 552.36,336.62 552.40,336.54 552.43,336.48 552.46,336.41 552.49,336.35 552.52,336.30 552.55,336.24 552.57,336.19 552.60,336.15 552.62,336.10 552.64,336.06 552.66,336.02 552.68,335.99 552.70,335.95 552.72,335.92 552.74,335.89 552.75,335.86 552.77,335.84 552.78,335.81 552.79,335.79 552.80,335.77 552.82,335.75 552.83,335.73 552.84,335.71 552.85,335.69 552.85,335.68 552.86,335.66 552.87,335.65 552.88,335.64 552.88,335.62 552.89,335.61 552.90,335.60 552.90,335.59 552.91,335.58 552.91,335.57 552.92,335.57 552.92,335.56 552.93,335.55 552.93,335.54 552.93,335.54 552.94,335.53 552.94,335.53 552.94,335.52 552.95,335.51 552.95,335.51 552.95,335.51 552.96,335.50 552.96,335.50 552.96,335.49 552.96,335.49 552.96,335.49 552.96,335.48" fill="none" stroke="#ef4444" stroke-width="1.6"/>
<polyline points="1018.14,338.00 1012.79,338.69 986.00,342.12 949.13,346.85 913.97,351.36 885.33,355.03 856.48,358.72 833.06,361.72 809.47,364.74 788.10,367.47 768.76,369.93 751.21,372.16 735.21,374.18 720.58,376.02 707.13,377.70 694.71,379.23 683.18,380.62 672.42,381.89 662.31,383.04 652.78,384.07 643.82,384.96 635.46,385.71 628.58,386.22 621.55,386.63 615.03,386.88 608.94,386.95 603.18,386.84 597.65,386.53 592.28,386.01 587.00,385.23 581.79,384.16 576.63,382.74 571.52,380.92 566.47,378.61 561.42,375.67 557.58,372.89 554.40,370.10 551.70,367.28 549.21,364.16 547.16,361.06 545.50,357.98 544.17,354.92 543.16,351.89 542.43,348.89 541.96,345.94 541.76,343.05 541.78,340.24 542.03,337.52 542.48,334.91 543.13,332.41 543.94,330.05 544.89,327.83 545.98,325.77 547.17,323.86 548.45,322.12 549.79,320.55 551.17,319.13 552.58,317.87 554.00,316.76 555.41,315.80 556.81,314.96 558.19,314.24 559.53,313.64 560.83,313.14 562.09,312.72 563.31,312.39 564.47,312.14 565.59,311.95 566.66,311.81 567.68,311.73 568.65,311.69 569.57,311.69 570.44,311.73 571.27,311.79 572.05,311.88 572.79,311.98 573.49,312.11 574.15,312.25 574.77,312.40 575.36,312.56 575.91,312.73 576.43,312.90 576.92,313.07 577.37,313.25 577.81,313.43 578.21,313.61 578.59,313.78 578.95,313.96 579.29,314.13 579.60,314.30 579.90,314.46 580.17,314.62 580.43,314.78 580.68,314.93 580.91,315.07 581.12,315.21 581.32,315.35 581.51,315.48 581.69,315.61 581.85,315.73 582.01,315.84 582.15,315.95 582.29,316.06 582.42,316.16 582.54,316.25 582.65,316.34 582.75,316.43 582.85,316.51 582.94,316.59 583.03,316.67 583.11,316.74 583.19,316.80 583.26,316.87 583.32,316.93 583.39,316.98 583.45,317.04 583.50,317.09 583.55,317.14 583.60,317.18 583.65,317.22 583.69,317.26 583.73,317.30 583.77,317.34 583.80,317.37 583.83,317.40 583.86,317.43 583.89,317.46 583.92,317.49 583.95,317.51 583.97,317.54 583.99,317.56 584.01,317.58 584.03,317.60 584.05,317.62 584.07,317.63 584.08,317.65 584.10,317.67 584.11,317.68 584.13,317.69 584.14,317.71 584.15,317.72 584.16,317.73 584.17,317.74 584.18,317.75 584.19,317.76 584.20,317.77 584.21,317.78 584.22,317.78 584.22,317.79 584.23,317.80 584.23,317.80 584.24,317.81 584.25,317.82 584.25,317.82 584.26,317.83 584.26,317.83 584.26,317.84 584.27,317.84 584.27,317.84 584.28,317.85 584.28,317.85 584.28,317.85 584.28,317.86 584.29,317.86" fill="none" stroke="#ef4444" stroke-width="1.6"/>
<polyline points="1018.14,338.00 1012.79,338.75 986.05,342.53 949.18,347.73 914.12,352.67 885.50,356.70 856.67,360.77 830.60,364.43 807.08,367.74 785.80,370.73 766.49,373.43 748.90,375.88 732.81,378.11 718.06,380.14 704.47,381.99 691.92,383.67 680.32,385.19 669.62,386.55 659.82,387.74 651.81,388.66 643.67,389.52 636.20,390.23 629.35,390.79 623.02,391.20 617.10,391.48 611.52,391.62 606.21,391.62 601.13,391.47 596.22,391.18 591.46,390.72 586.81,390.09 582.25,389.27 577.77,388.24 573.35,386.97 568.99,385.45 564.68,383.64 560.44,381.52 556.27,379.04 552.21,376.17 548.27,372.88 544.53,369.12 541.03,364.89 537.87,360.19 535.16,355.11 532.98,349.77 531.36,344.35 530.29,338.98 529.72,333.75 529.58,328.68 529.79,323.77 530.32,319.01 531.12,314.38 532.15,309.86 533.41,305.41 534.86,301.02 536.51,296.65 538.34,292.27 540.36,287.85 542.58,283.36 544.99,278.75 547.62,273.99 550.49,269.03 553.61,263.84 556.99,258.39 560.64,252.64 564.58,246.57 568.80,240.17 573.34,233.39 578.22,226.17 583.48,218.44 589.18,210.12 595.40,201.09 602.22,191.23 609.75,180.36 618.13,168.29 627.54,154.77 638.19,139.47 650.39,121.98 664.50,101.75 680.97,78.15 700.15,50.65 722.07,19.25 746.51,-15.75 773.51,-54.41 803.35,-97.16 836.49,-144.61 873.44,-197.53 914.80,-256.75" fill="none" stroke="#38bdf8" stroke-width="1.6"/>
<polyline points="1018.14,338.00 1012.80,338.82 986.10,342.93 949.24,348.60 914.29,353.98 882.57,358.85 853.97,363.25 828.17,367.21 804.84,370.78 783.68,374.01 764.43,376.95 746.87,379.61 730.81,382.03 716.10,384.22 702.62,386.21 690.30,387.99 679.07,389.57 669.93,390.82 660.68,392.03 652.22,393.07 644.50,393.95 637.41,394.67 630.85,395.26 624.73,395.72 618.97,396.04 613.52,396.25 608.32,396.33 603.33,396.28 598.52,396.10 593.86,395.79 589.32,395.34 584.89,394.74 580.54,393.98 576.27,393.06 572.07,391.96 567.93,390.67 563.86,389.18 559.84,387.48 555.89,385.55 552.02,383.40 548.24,381.00 544.60,378.38 541.12,375.56 537.83,372.56 534.71,369.37 531.78,366.01 529.06,362.54 526.55,358.96 524.25,355.29 522.13,351.55 520.18,347.73 518.39,343.83 516.74,339.85 515.22,335.77 513.82,331.59 512.51,327.28 511.30,322.83 510.16,318.21 509.09,313.40 508.07,308.37 507.11,303.07 506.17,297.45 505.27,291.48 504.38,285.11 503.50,278.28 502.62,270.97 501.74,263.16 500.85,254.81 499.94,245.90 499.00,236.36 498.02,226.10 496.99,215.03 495.89,203.01 494.70,189.87 493.41,175.43 492.00,159.43 490.43,141.59 488.68,121.52 486.69,98.77 484.43,72.71 481.82,42.59 478.78,7.50 475.24,-33.40 471.17,-80.48 466.57,-133.64 461.44,-192.98 455.73,-259.11 449.35,-332.99" fill="none" stroke="#38bdf8" stroke-width="1.6"/>
<polyline points="1018.14,338.00 1012.81,338.89 986.17,343.33 949.31,349.47 914.49,355.28 882.87,360.54 854.33,365.29 828.53,369.57 805.17,373.45 783.96,376.96 764.66,380.14 747.07,383.02 731.03,385.63 716.42,387.98 703.14,390.09 692.34,391.77 681.42,393.43 672.47,394.74 663.41,396.03 655.10,397.14 647.47,398.09 640.43,398.89 633.88,399.56 627.75,400.09 621.96,400.50 616.46,400.80 611.21,400.97 606.16,401.03 601.29,400.97 596.57,400.79 591.96,400.48 587.46,400.04 583.05,399.47 578.70,398.76 574.42,397.89 570.19,396.87 566.01,395.69 561.87,394.33 557.79,392.79 553.77,391.07 549.82,389.18 545.99,387.12 542.28,384.91 538.64,382.53 535.11,379.99 531.70,377.31 528.42,374.50 525.25,371.58 522.20,368.55 519.26,365.41 516.41,362.16 513.64,358.79 510.93,355.30 508.27,351.68 505.64,347.91 503.03,343.98 500.43,339.87 497.80,335.55 495.15,331.00 492.43,326.18 489.63,321.05 486.73,315.57 483.69,309.68 480.48,303.34 477.10,296.51 473.51,289.14 469.70,281.22 465.67,272.73 461.38,263.62 456.81,253.84 451.90,243.30 446.62,231.90 440.89,219.48 434.64,205.89 427.76,190.93 420.16,174.36 411.69,155.88 402.18,135.11 391.42,111.59 379.13,84.72 364.98,53.77 348.54,17.81 329.36,-24.15 307.08,-72.91 281.54,-128.80 252.69,-191.94 220.30,-262.81" fill="none" stroke="#38bdf8" stroke-width="1.6"/>
<polyline points="1018.14,338.00 1012.82,338.95 986.23,343.73 949.41,350.34 914.71,356.56 883.22,362.21 854.75,367.31 828.99,371.91 805.65,376.08 784.46,379.85 765.20,383.26 747.69,386.35 731.80,389.12 718.86,391.36 705.81,393.58 695.15,395.36 684.37,397.12 674.53,398.68 665.58,400.04 657.37,401.22 649.82,402.24 642.80,403.11 636.25,403.85 630.08,404.46 624.24,404.95 618.67,405.32 613.34,405.58 608.20,405.72 603.23,405.75 598.39,405.67 593.67,405.47 589.04,405.14 584.49,404.69 580.00,404.11 575.56,403.40 571.17,402.54 566.81,401.53 562.50,400.36 558.23,399.05 554.02,397.57 549.89,395.96 545.86,394.20 541.87,392.29 537.94,390.24 534.08,388.04 530.31,385.72 526.61,383.27 523.00,380.71 519.44,378.04 515.94,375.25 512.48,372.33 509.03,369.29 505.60,366.11 502.15,362.78 498.67,359.29 495.14,355.62 491.53,351.74 487.83,347.64 483.99,343.28 479.99,338.62 475.79,333.62 471.35,328.24 466.63,322.43 461.58,316.13 456.19,309.31 450.42,301.95 444.26,294.03 437.68,285.51 430.65,276.36 423.09,266.50 414.95,255.83 406.13,244.24 396.51,231.58 385.96,217.67 374.31,202.32 361.38,185.25 346.93,166.16 330.65,144.65 312.19,120.24 291.06,92.30 266.68,60.06 238.35,22.59 205.28,-21.14 166.82,-72.03 122.55,-130.58 72.26,-197.11" fill="none" stroke="#38bdf8" stroke-width="1.6"/>
<polyline points="1018.14,338.00 1012.84,339.02 986.30,344.12 949.52,351.20 914.98,357.84 883.62,363.86 855.25,369.30 829.58,374.22 806.31,378.66 785.20,382.68 766.06,386.31 748.73,389.57 734.65,392.20 720.46,394.82 708.87,396.93 697.18,399.02 686.51,400.88 676.81,402.52 667.95,403.96 659.80,405.22 652.25,406.32 645.21,407.27 638.61,408.09 632.37,408.78 626.45,409.35 620.78,409.80 615.33,410.14 610.07,410.37 604.96,410.49 599.98,410.50 595.10,410.39 590.31,410.17 585.58,409.83 580.91,409.36 576.29,408.76 571.70,408.03 567.14,407.16 562.62,406.14 558.14,404.99 553.73,403.70 549.41,402.29 545.11,400.73 540.84,399.03 536.62,397.20 532.45,395.24 528.34,393.16 524.27,390.97 520.25,388.66 516.25,386.24 512.26,383.69 508.26,381.02 504.24,378.21 500.18,375.25 496.05,372.14 491.83,368.86 487.49,365.38 483.00,361.69 478.33,357.75 473.44,353.54 468.28,349.02 462.80,344.13 456.95,338.84 450.68,333.10 443.93,326.86 436.69,320.09 428.91,312.79 420.59,304.92 411.68,296.46 402.11,287.34 391.79,277.49 380.61,266.79 368.45,255.12 355.12,242.33 340.46,228.24 324.21,212.61 306.10,195.19 285.79,175.64 262.84,153.54 236.72,128.39 206.75,99.53 172.11,66.15 131.78,27.31 84.70,-18.05 29.92,-70.83" fill="none" stroke="#38bdf8" stroke-width="1.6"/>
<polyline points="1018.14,338.00 1012.85,339.09 986.37,344.52 949.66,352.05 915.28,359.09 884.08,365.48 855.84,371.26 830.28,376.48 807.14,381.19 786.18,385.44 767.23,389.27 751.86,392.35 736.37,395.43 723.75,397.91 711.01,400.38 699.40,402.59 688.87,404.54 679.26,406.27 670.44,407.80 662.29,409.14 654.72,410.33 647.63,411.37 640.96,412.27 634.63,413.04 628.59,413.70 622.80,414.24 617.22,414.67 611.81,414.98 606.55,415.19 601.40,415.29 596.35,415.28 591.37,415.15 586.45,414.91 581.58,414.54 576.75,414.05 571.94,413.43 567.17,412.68 562.44,411.80 557.75,410.79 553.14,409.66 548.56,408.39 543.98,407.00 539.44,405.47 534.92,403.82 530.45,402.05 526.00,400.17 521.58,398.18 517.16,396.06 512.74,393.84 508.28,391.49 503.79,389.01 499.22,386.39 494.56,383.62 489.79,380.69 484.86,377.58 479.75,374.27 474.42,370.74 468.82,366.95 462.91,362.87 456.62,358.46 449.88,353.69 442.65,348.49 434.85,342.83 426.44,336.67 417.39,330.01 407.67,322.81 397.26,315.06 386.07,306.71 374.02,297.69 360.97,287.90 346.79,277.25 331.29,265.59 314.26,252.76 295.44,238.58 274.51,222.81 251.12,205.17 224.78,185.30 194.93,162.78 160.86,137.06 121.65,107.48 76.23,73.19 23.29,33.23 -38.54,-13.44" fill="none" stroke="#38bdf8" stroke-width="1.6"/>
<polyline points="1018.14,338.00 1012.86,339.15 986.45,344.91 949.83,352.89 915.63,360.34 884.60,367.09 856.53,373.18 831.13,378.69 808.15,383.66 789.48,387.68 770.67,391.71 755.36,394.97 739.93,398.23 727.33,400.86 714.62,403.47 703.03,405.81 692.48,407.89 682.83,409.74 673.94,411.39 665.71,412.85 658.04,414.14 650.83,415.29 644.02,416.30 637.55,417.17 631.36,417.93 625.41,418.57 619.66,419.10 614.07,419.52 608.62,419.83 603.29,420.04 598.04,420.13 592.86,420.11 587.73,419.98 582.65,419.72 577.59,419.35 572.56,418.86 567.57,418.23 562.61,417.49 557.72,416.62 552.87,415.64 548.01,414.52 543.17,413.28 538.34,411.92 533.53,410.45 528.74,408.86 523.96,407.16 519.18,405.35 514.38,403.42 509.54,401.38 504.64,399.22 499.66,396.92 494.57,394.49 489.34,391.91 483.94,389.16 478.35,386.23 472.50,383.10 466.36,379.74 459.88,376.13 452.98,372.22 445.60,367.98 437.67,363.36 429.10,358.32 419.84,352.83 409.85,346.86 399.10,340.39 387.55,333.42 375.15,325.90 361.79,317.78 347.37,309.00 331.71,299.44 314.64,289.01 295.93,277.57 275.32,264.95 252.47,250.96 227.02,235.36 198.48,217.87 166.28,198.13 129.70,175.71 87.85,150.04 39.62,120.47 -16.34,86.15 -81.61,46.12" fill="none" stroke="#38bdf8" stroke-width="1.6"/>
<polyline points="1018.14,338.00 1012.87,339.22 986.53,345.30 950.02,353.72 916.02,361.56 885.19,368.66 857.31,375.07 832.10,380.85 811.63,385.54 791.02,390.23 774.24,394.03 757.34,397.84 743.58,400.91 729.69,403.98 717.04,406.73 705.56,409.18 695.07,411.37 685.45,413.32 676.55,415.06 668.28,416.62 660.54,418.02 653.25,419.26 646.34,420.36 639.74,421.34 633.42,422.19 627.32,422.92 621.42,423.55 615.66,424.06 610.04,424.46 604.52,424.76 599.07,424.95 593.69,425.03 588.35,424.99 583.05,424.84 577.77,424.57 572.53,424.18 567.31,423.67 562.15,423.04 557.05,422.30 551.93,421.44 546.80,420.45 541.69,419.35 536.58,418.14 531.48,416.81 526.38,415.37 521.27,413.83 516.13,412.18 510.94,410.41 505.67,408.53 500.32,406.53 494.85,404.40 489.22,402.13 483.41,399.70 477.38,397.12 471.08,394.35 464.47,391.37 457.48,388.16 450.06,384.70 442.11,380.93 433.57,376.83 424.35,372.35 414.36,367.45 403.56,362.12 391.91,356.32 379.37,350.06 365.89,343.30 351.39,336.00 335.75,328.11 318.79,319.54 300.34,310.20 280.15,299.97 257.95,288.71 233.42,276.27 206.15,262.43 175.68,246.95 141.41,229.55 102.64,209.85 58.47,187.40 7.79,161.65 -50.74,131.91 -118.78,97.33" fill="none" stroke="#38bdf8" stroke-width="1.6"/>
<polyline points="1018.14,338.00 1012.89,339.28 986.62,345.68 950.25,354.54 916.47,362.76 885.86,370.19 858.19,376.91 835.72,382.35 813.11,387.80 794.71,392.23 776.18,396.66 761.11,400.23 745.92,403.81 732.10,407.02 719.57,409.89 708.17,412.46 697.73,414.76 688.11,416.82 679.19,418.67 670.87,420.33 663.05,421.83 655.66,423.17 648.63,424.38 641.91,425.45 635.44,426.40 629.19,427.23 623.12,427.95 617.20,428.56 611.39,429.07 605.67,429.46 600.03,429.75 594.44,429.92 588.89,429.99 583.37,429.94 577.87,429.78 572.40,429.49 566.97,429.10 561.60,428.59 556.24,427.96 550.85,427.22 545.46,426.37 540.07,425.40 534.68,424.32 529.29,423.13 523.87,421.85 518.42,420.45 512.91,418.95 507.33,417.34 501.64,415.62 495.83,413.77 489.85,411.80 483.68,409.69 477.28,407.43 470.60,405.00 463.58,402.39 456.18,399.58 448.32,396.53 439.92,393.22 430.90,389.62 421.15,385.67 410.59,381.36 399.15,376.65 386.77,371.51 373.43,365.94 359.08,359.93 343.64,353.43 326.99,346.41 308.98,338.80 289.41,330.51 268.05,321.45 244.61,311.51 218.77,300.54 190.12,288.37 158.20,274.80 122.42,259.59 82.07,242.43 36.29,222.96 -16.00,200.72 -76.14,175.14" fill="none" stroke="#38bdf8" stroke-width="1.6"/>
<polyline points="1018.14,338.00 1012.90,339.34 986.71,346.06 950.51,355.34 916.96,363.93 886.59,371.70 859.18,378.70 836.97,384.35 814.63,390.02 796.48,394.61 778.20,399.21 763.31,402.92 748.30,406.64 734.62,409.98 722.20,412.97 710.86,415.66 700.44,418.07 690.81,420.24 681.85,422.20 673.46,423.98 665.55,425.58 658.06,427.03 650.91,428.34 644.05,429.51 637.44,430.57 631.03,431.50 624.79,432.33 618.69,433.04 612.69,433.64 606.78,434.14 600.93,434.53 595.13,434.81 589.36,434.98 583.62,435.03 577.91,434.98 572.22,434.81 566.59,434.52 560.99,434.13 555.36,433.63 549.72,433.01 544.06,432.28 538.40,431.45 532.72,430.51 527.03,429.47 521.29,428.32 515.49,427.08 509.61,425.73 503.63,424.27 497.51,422.70 491.23,421.02 484.74,419.21 478.02,417.26 471.01,415.17 463.66,412.91 455.91,410.47 447.70,407.83 438.93,404.96 429.52,401.83 419.37,398.41 408.38,394.66 396.45,390.55 383.52,386.06 369.54,381.18 354.49,375.89 338.30,370.18 320.85,364.00 302.00,357.32 281.56,350.05 259.28,342.12 234.90,333.44 208.08,323.87 178.43,313.29 145.48,301.53 108.66,288.38 67.28,273.60 20.51,256.89 -32.70,237.88 -93.63,216.10" fill="none" stroke="#38bdf8" stroke-width="1.6"/>
<polyline points="1018.14,338.00 1012.92,339.41 986.80,346.44 950.81,356.12 917.52,365.07 887.42,373.15 863.03,379.69 838.48,386.25 818.55,391.56 798.49,396.88 782.18,401.19 765.73,405.49 750.78,409.37 737.23,412.85 724.89,415.96 713.59,418.77 703.18,421.30 693.52,423.59 684.51,425.67 676.05,427.56 668.05,429.27 660.44,430.83 653.16,432.25 646.17,433.53 639.40,434.69 632.83,435.73 626.42,436.66 620.14,437.48 613.95,438.19 607.85,438.79 601.79,439.29 595.78,439.68 589.79,439.95 583.83,440.12 577.90,440.17 572.01,440.12 566.17,439.95 560.32,439.68 554.43,439.30 548.53,438.80 542.61,438.21 536.67,437.51 530.70,436.71 524.70,435.81 518.63,434.82 512.49,433.72 506.23,432.53 499.84,431.23 493.28,429.82 486.52,428.30 479.52,426.66 472.23,424.88 464.59,422.97 456.56,420.89 448.05,418.64 438.99,416.19 429.29,413.51 418.83,410.58 407.52,407.37 395.23,403.85 381.89,399.98 367.45,395.77 351.85,391.19 335.06,386.23 316.98,380.88 297.47,375.08 276.35,368.79 253.38,361.94 228.30,354.45 200.77,346.22 170.42,337.14 136.79,327.07 99.31,315.85 57.34,303.27 10.05,289.10 -43.53,273.04 -104.64,254.73" fill="none" stroke="#38bdf8" stroke-width="1.6"/>
<polyline points="1018.14,338.00 1012.94,339.47 986.90,346.81 951.14,356.89 918.14,366.19 891.33,373.72 864.36,381.29 842.46,387.42 820.42,393.57 802.53,398.54 784.51,403.52 768.15,408.00 753.35,412.02 739.90,415.63 727.63,418.88 716.36,421.81 705.94,424.46 696.25,426.87 687.17,429.07 678.63,431.07 670.52,432.90 662.80,434.58 655.40,436.11 648.26,437.50 641.34,438.77 634.61,439.93 628.02,440.97 621.56,441.89 615.18,442.71 608.87,443.43 602.62,444.03 596.39,444.53 590.19,444.92 584.02,445.20 577.88,445.37 571.78,445.43 565.71,445.38 559.60,445.23 553.46,444.98 547.30,444.62 541.11,444.16 534.89,443.60 528.64,442.94 522.32,442.19 515.93,441.34 509.42,440.40 502.78,439.37 495.98,438.23 488.97,436.99 481.72,435.64 474.19,434.17 466.31,432.58 458.04,430.85 449.29,428.97 440.00,426.92 430.07,424.68 419.39,422.22 407.85,419.52 395.32,416.55 381.71,413.29 366.93,409.72 350.95,405.83 333.71,401.60 315.14,397.03 295.13,392.09 273.49,386.73 250.02,380.90 224.44,374.54 196.44,367.57 165.64,359.89 131.60,351.40 93.78,341.97 51.56,331.43 4.16,319.59 -49.37,306.22 -110.17,291.03" fill="none" stroke="#38bdf8" stroke-width="1.6"/>
<rect x="850" y="70" width="20" height="4" fill="#f59e0b"/>
<text x="878" y="76" font-family="Arial" font-size="15" fill="#e5e7eb">photon sphere r=3M</text>
<rect x="850" y="96" width="20" height="4" fill="#38bdf8"/>
<text x="878" y="102" font-family="Arial" font-size="15" fill="#e5e7eb">escaping rays</text>
<rect x="850" y="122" width="20" height="4" fill="#ef4444"/>
<text x="878" y="128" font-family="Arial" font-size="15" fill="#e5e7eb">captured rays</text>
</svg>
