<svg xmlns="http://www.w3.org/2000/svg" width="1100" height="700" viewBox="0 0 1100 700">
<rect width="100%" height="100%" fill="#0b0f1a"/>
<text x="90" y="34" font-family="Arial" font-size="23" fill="#e5e7eb">Relativistic line profile (i=45 deg): spin broadens the red wing</text>
<line x1="90.0" y1="620.0" x2="1060.0" y2="620.0" stroke="#64748b" stroke-width="1.5"/>
<line x1="90.0" y1="620.0" x2="90.0" y2="56.0" stroke="#64748b" stroke-width="1.5"/>
<text x="550" y="674" text-anchor="middle" font-family="Arial" font-size="16" fill="#cbd5e1">observed / rest energy  (g = E_obs / E_em)</text>
<text x="24" y="350" text-anchor="middle" transform="rotate(-90 24 350)" font-family="Arial" font-size="16" fill="#cbd5e1">normalized flux</text>
<text x="90" y="644" font-family="Arial" font-size="12" fill="#94a3b8">0.20</text>
<text x="1060" y="644" text-anchor="end" font-family="Arial" font-size="12" fill="#94a3b8">1.70</text>
<text x="80" y="620" text-anchor="end" font-family="Arial" font-size="12" fill="#94a3b8">0</text>
<text x="80" y="56" text-anchor="end" font-family="Arial" font-size="12" fill="#94a3b8">1.05</text>
<line x1="607.5" y1="620.0" x2="607.5" y2="56.0" stroke="#64748b" stroke-width="1" stroke-dasharray="4 4"/>
<polyline points="90.00,620.00 96.10,620.00 102.20,620.00 108.30,620.00 114.40,620.00 120.50,620.00 126.60,620.00 132.70,620.00 138.81,620.00 144.91,620.00 151.01,620.00 157.11,620.00 163.21,620.00 169.31,620.00 175.41,620.00 181.51,620.00 187.61,620.00 193.71,620.00 199.81,620.00 205.91,620.00 212.01,620.00 218.11,620.00 224.21,620.00 230.31,620.00 236.42,620.00 242.52,620.00 248.62,620.00 254.72,620.00 260.82,620.00 266.92,620.00 273.02,620.00 279.12,620.00 285.22,620.00 291.32,618.55 297.42,615.50 303.52,611.59 309.62,606.75 315.72,600.83 321.82,595.65 327.92,591.03 334.03,586.43 340.13,581.91 346.23,577.49 352.33,572.94 358.43,568.64 364.53,563.90 370.63,559.36 376.73,554.78 382.83,549.92 388.93,545.05 395.03,539.66 401.13,534.43 407.23,529.09 413.33,523.46 419.43,517.58 425.54,512.09 431.64,505.97 437.74,499.56 443.84,493.21 449.94,486.40 456.04,479.69 462.14,475.76 468.24,475.48 474.34,477.09 480.44,480.46 486.54,485.11 492.64,488.40 498.74,488.94 504.84,488.85 510.94,488.41 517.04,487.53 523.15,485.65 529.25,483.79 535.35,481.15 541.45,477.78 547.55,473.93 553.65,468.48 559.75,461.99 565.85,451.30 571.95,444.90 578.05,440.16 584.15,435.86 590.25,431.19 596.35,429.49 602.45,422.22 608.55,411.70 614.66,399.15 620.75,384.92 626.86,367.55 632.96,345.45 639.06,315.04 645.16,270.04 651.26,221.54 657.36,168.42 663.46,93.28 669.56,82.86 675.66,177.92 681.76,280.08 687.86,392.09 693.96,532.97 700.07,620.00 706.16,620.00 712.27,620.00 718.36,620.00 724.47,620.00 730.57,620.00 736.67,620.00 742.77,620.00 748.87,620.00 754.97,620.00 761.07,620.00 767.17,620.00 773.27,620.00 779.37,620.00 785.47,620.00 791.57,620.00 797.68,620.00 803.77,620.00 809.88,620.00 815.97,620.00 822.08,620.00 828.18,620.00 834.28,620.00 840.38,620.00 846.48,620.00 852.58,620.00 858.68,620.00 864.78,620.00 870.88,620.00 876.98,620.00 883.08,620.00 889.18,620.00 895.29,620.00 901.38,620.00 907.49,620.00 913.58,620.00 919.69,620.00 925.79,620.00 931.89,620.00 937.99,620.00 944.09,620.00 950.19,620.00 956.29,620.00 962.39,620.00 968.49,620.00 974.59,620.00 980.69,620.00 986.79,620.00 992.90,620.00 998.99,620.00 1005.10,620.00 1011.19,620.00 1017.30,620.00 1023.40,620.00 1029.50,620.00 1035.60,620.00 1041.70,620.00 1047.80,620.00 1053.90,620.00 1060.00,620.00" fill="none" stroke="#38bdf8" stroke-width="2.4"/>
<polyline points="90.00,602.63 96.10,600.64 102.20,599.41 108.30,596.70 114.40,595.28 120.50,591.94 126.60,590.58 132.70,588.25 138.81,585.25 144.91,581.79 151.01,579.62 157.11,576.54 163.21,573.94 169.31,571.43 175.41,568.19 181.51,563.40 187.61,560.40 193.71,557.38 199.81,555.28 205.91,549.00 212.01,547.22 218.11,542.64 224.21,538.88 230.31,534.44 236.42,530.69 242.52,526.45 248.62,521.80 254.72,517.30 260.82,509.97 266.92,506.84 273.02,501.86 279.12,498.58 285.22,492.91 291.32,487.84 297.42,484.81 303.52,479.55 309.62,469.18 315.72,463.29 321.82,462.14 327.92,456.22 334.03,444.79 340.13,442.66 346.23,439.98 352.33,427.89 358.43,419.95 364.53,420.67 370.63,410.95 376.73,399.43 382.83,399.50 388.93,388.23 395.03,379.13 401.13,379.06 407.23,368.16 413.33,359.20 419.43,353.66 425.54,344.31 431.64,340.79 437.74,328.22 443.84,326.64 449.94,310.74 456.04,312.87 462.14,287.33 468.24,307.50 474.34,285.06 480.44,285.41 486.54,296.49 492.64,297.03 498.74,276.38 504.84,292.50 510.94,297.96 517.04,271.81 523.15,276.73 529.25,280.27 535.35,269.59 541.45,265.69 547.55,264.54 553.65,260.90 559.75,252.66 565.85,243.27 571.95,239.87 578.05,233.86 584.15,228.13 590.25,220.39 596.35,219.87 602.45,211.83 608.55,204.16 614.66,197.68 620.75,191.92 626.86,181.57 632.96,173.60 639.06,164.86 645.16,153.97 651.26,141.52 657.36,123.27 663.46,82.86 669.56,116.26 675.66,213.92 681.76,315.62 687.86,425.20 693.96,557.87 700.07,620.00 706.16,620.00 712.27,620.00 718.36,620.00 724.47,620.00 730.57,620.00 736.67,620.00 742.77,620.00 748.87,620.00 754.97,620.00 761.07,620.00 767.17,620.00 773.27,620.00 779.37,620.00 785.47,620.00 791.57,620.00 797.68,620.00 803.77,620.00 809.88,620.00 815.97,620.00 822.08,620.00 828.18,620.00 834.28,620.00 840.38,620.00 846.48,620.00 852.58,620.00 858.68,620.00 864.78,620.00 870.88,620.00 876.98,620.00 883.08,620.00 889.18,620.00 895.29,620.00 901.38,620.00 907.49,620.00 913.58,620.00 919.69,620.00 925.79,620.00 931.89,620.00 937.99,620.00 944.09,620.00 950.19,620.00 956.29,620.00 962.39,620.00 968.49,620.00 974.59,620.00 980.69,620.00 986.79,620.00 992.90,620.00 998.99,620.00 1005.10,620.00 1011.19,620.00 1017.30,620.00 1023.40,620.00 1029.50,620.00 1035.60,620.00 1041.70,620.00 1047.80,620.00 1053.90,620.00 1060.00,620.00" fill="none" stroke="#f97316" stroke-width="2.4"/>
<rect x="820" y="70" width="20" height="4" fill="#38bdf8"/>
<text x="848" y="76" font-family="Arial" font-size="15" fill="#e5e7eb">a = 0 (ISCO 6M)</text>
<rect x="820" y="96" width="20" height="4" fill="#f97316"/>
<text x="848" y="102" font-family="Arial" font-size="15" fill="#e5e7eb">a = 0.998 (ISCO 1.24M)</text>
<rect x="820" y="122" width="20" height="4" fill="#64748b"/>
<text x="848" y="128" font-family="Arial" font-size="15" fill="#e5e7eb">rest energy</text>
</svg>
