<svg xmlns="http://www.w3.org/2000/svg" width="1100" height="700" viewBox="0 0 1100 700">
<rect width="100%" height="100%" fill="#f8fafc"/>
<text x="80" y="32" font-family="Arial, sans-serif" font-size="24" fill="#111827">Standing Mode (lowest fixed-fixed, N=32)</text>
<line x1="80.00" y1="620.00" x2="1060.00" y2="620.00" stroke="#374151" stroke-width="2"/>
<line x1="80.00" y1="620.00" x2="80.00" y2="50.00" stroke="#374151" stroke-width="2"/>
<text x="550.00" y="672" text-anchor="middle" font-family="Arial, sans-serif" font-size="16" fill="#374151">node index</text>
<text x="22" y="350.00" text-anchor="middle" transform="rotate(-90 22 350.00)" font-family="Arial, sans-serif" font-size="16" fill="#374151">displacement (m)</text>
<text x="80" y="646" font-family="Arial, sans-serif" font-size="13" fill="#6b7280">0.00</text>
<text x="1060" y="646" text-anchor="end" font-family="Arial, sans-serif" font-size="13" fill="#6b7280">31.00</text>
<text x="68" y="620.00" text-anchor="end" dominant-baseline="middle" font-family="Arial, sans-serif" font-size="13" fill="#6b7280">-1.10</text>
<text x="68" y="50.00" text-anchor="end" dominant-baseline="middle" font-family="Arial, sans-serif" font-size="13" fill="#6b7280">1.10</text>
<polyline points="80.00,335.00 111.61,308.75 143.23,282.78 174.84,257.34 206.45,232.69 238.06,209.10 269.68,186.80 301.29,166.02 332.90,146.97 364.52,129.85 396.13,114.84 427.74,102.09 459.35,91.72 490.97,83.86 522.58,78.57 554.19,75.91 585.81,75.91 617.42,78.57 649.03,83.86 680.65,91.72 712.26,102.09 743.87,114.84 775.48,129.85 807.10,146.97 838.71,166.02 870.32,186.80 901.94,209.10 933.55,232.69 965.16,257.34 996.77,282.78 1028.39,308.75 1060.00,335.00" fill="none" stroke="rgb(68,1,84)" stroke-width="1.8" stroke-linejoin="round" stroke-linecap="round" opacity="0.85"/>
<rect x="880" y="64" width="18" height="4" fill="rgb(68,1,84)"/>
<text x="904" y="69" font-family="Arial, sans-serif" font-size="13" fill="#111827">t = 0.00 s</text>
<polyline points="80.00,335.00 111.61,318.10 143.23,301.37 174.84,284.99 206.45,269.12 238.06,253.93 269.68,239.57 301.29,226.19 332.90,213.92 364.52,202.90 396.13,193.23 427.74,185.02 459.35,178.35 490.97,173.28 522.58,169.87 554.19,168.16 585.81,168.16 617.42,169.87 649.03,173.28 680.65,178.35 712.26,185.02 743.87,193.23 775.48,202.90 807.10,213.92 838.71,226.19 870.32,239.57 901.94,253.93 933.55,269.12 965.16,284.99 996.77,301.37 1028.39,318.10 1060.00,335.00" fill="none" stroke="rgb(63,47,115)" stroke-width="1.8" stroke-linejoin="round" stroke-linecap="round" opacity="0.85"/>
<rect x="880" y="86" width="18" height="4" fill="rgb(63,47,115)"/>
<text x="904" y="91" font-family="Arial, sans-serif" font-size="13" fill="#111827">t = 8.60 s</text>
<polyline points="80.00,335.00 111.61,339.22 143.23,343.39 174.84,347.48 206.45,351.44 238.06,355.23 269.68,358.82 301.29,362.16 332.90,365.22 364.52,367.97 396.13,370.38 427.74,372.43 459.35,374.10 490.97,375.36 522.58,376.21 554.19,376.64 585.81,376.64 617.42,376.21 649.03,375.36 680.65,374.10 712.26,372.43 743.87,370.38 775.48,367.97 807.10,365.22 838.71,362.16 870.32,358.82 901.94,355.23 933.55,351.44 965.16,347.48 996.77,343.39 1028.39,339.22 1060.00,335.00" fill="none" stroke="rgb(55,91,139)" stroke-width="1.8" stroke-linejoin="round" stroke-linecap="round" opacity="0.85"/>
<rect x="880" y="108" width="18" height="4" fill="rgb(55,91,139)"/>
<text x="904" y="113" font-family="Arial, sans-serif" font-size="13" fill="#111827">t = 17.10 s</text>
<polyline points="80.00,335.00 111.61,357.53 143.23,379.84 174.84,401.68 206.45,422.84 238.06,443.10 269.68,462.25 301.29,480.09 332.90,496.45 364.52,511.14 396.13,524.03 427.74,534.98 459.35,543.88 490.97,550.64 522.58,555.18 554.19,557.46 585.81,557.46 617.42,555.18 649.03,550.64 680.65,543.88 712.26,534.98 743.87,524.03 775.48,511.14 807.10,496.45 838.71,480.09 870.32,462.25 901.94,443.10 933.55,422.84 965.16,401.68 996.77,379.84 1028.39,357.53 1060.00,335.00" fill="none" stroke="rgb(40,126,140)" stroke-width="1.8" stroke-linejoin="round" stroke-linecap="round" opacity="0.85"/>
<rect x="880" y="130" width="18" height="4" fill="rgb(40,126,140)"/>
<text x="904" y="135" font-family="Arial, sans-serif" font-size="13" fill="#111827">t = 25.70 s</text>
<polyline points="80.00,335.00 111.61,359.80 143.23,384.35 174.84,408.40 206.45,431.69 238.06,453.99 269.68,475.06 301.29,494.70 332.90,512.70 364.52,528.88 396.13,543.07 427.74,555.12 459.35,564.92 490.97,572.35 522.58,577.35 554.19,579.86 585.81,579.86 617.42,577.35 649.03,572.35 680.65,564.92 712.26,555.12 743.87,543.07 775.48,528.88 807.10,512.70 838.71,494.70 870.32,475.06 901.94,453.99 933.55,431.69 965.16,408.40 996.77,384.35 1028.39,359.80 1060.00,335.00" fill="none" stroke="rgb(50,160,129)" stroke-width="1.8" stroke-linejoin="round" stroke-linecap="round" opacity="0.85"/>
<rect x="880" y="152" width="18" height="4" fill="rgb(50,160,129)"/>
<text x="904" y="157" font-family="Arial, sans-serif" font-size="13" fill="#111827">t = 34.30 s</text>
<polyline points="80.00,335.00 111.61,344.41 143.23,353.72 174.84,362.84 206.45,371.68 238.06,380.14 269.68,388.13 301.29,395.58 332.90,402.41 364.52,408.55 396.13,413.93 427.74,418.51 459.35,422.22 490.97,425.04 522.58,426.94 554.19,427.89 585.81,427.89 617.42,426.94 649.03,425.04 680.65,422.22 712.26,418.51 743.87,413.93 775.48,408.55 807.10,402.41 838.71,395.58 870.32,388.13 901.94,380.14 933.55,371.68 965.16,362.84 996.77,353.72 1028.39,344.41 1060.00,335.00" fill="none" stroke="rgb(85,193,104)" stroke-width="1.8" stroke-linejoin="round" stroke-linecap="round" opacity="0.85"/>
<rect x="880" y="174" width="18" height="4" fill="rgb(85,193,104)"/>
<text x="904" y="179" font-family="Arial, sans-serif" font-size="13" fill="#111827">t = 42.90 s</text>
<polyline points="80.00,335.00 111.61,322.55 143.23,310.22 174.84,298.15 206.45,286.46 238.06,275.27 269.68,264.69 301.29,254.83 332.90,245.79 364.52,237.67 396.13,230.54 427.74,224.49 459.35,219.58 490.97,215.84 522.58,213.33 554.19,212.07 585.81,212.07 617.42,213.33 649.03,215.84 680.65,219.58 712.26,224.49 743.87,230.54 775.48,237.67 807.10,245.79 838.71,254.83 870.32,264.69 901.94,275.27 933.55,286.46 965.16,298.15 996.77,310.22 1028.39,322.55 1060.00,335.00" fill="none" stroke="rgb(162,214,72)" stroke-width="1.8" stroke-linejoin="round" stroke-linecap="round" opacity="0.85"/>
<rect x="880" y="196" width="18" height="4" fill="rgb(162,214,72)"/>
<text x="904" y="201" font-family="Arial, sans-serif" font-size="13" fill="#111827">t = 51.40 s</text>
<polyline points="80.00,335.00 111.61,309.31 143.23,283.87 174.84,258.97 206.45,234.84 238.06,211.74 269.68,189.91 301.29,169.57 332.90,150.92 364.52,134.16 396.13,119.46 427.74,106.98 459.35,96.83 490.97,89.13 522.58,83.95 554.19,81.35 585.81,81.35 617.42,83.95 649.03,89.13 680.65,96.83 712.26,106.98 743.87,119.46 775.48,134.16 807.10,150.92 838.71,169.57 870.32,189.91 901.94,211.74 933.55,234.84 965.16,258.97 996.77,283.87 1028.39,309.31 1060.00,335.00" fill="none" stroke="rgb(253,231,37)" stroke-width="1.8" stroke-linejoin="round" stroke-linecap="round" opacity="0.85"/>
<rect x="880" y="218" width="18" height="4" fill="rgb(253,231,37)"/>
<text x="904" y="223" font-family="Arial, sans-serif" font-size="13" fill="#111827">t = 60.00 s</text>
</svg>
