<svg xmlns="http://www.w3.org/2000/svg" width="1100" height="700" viewBox="0 0 1100 700">
<rect width="100%" height="100%" fill="#f8fafc"/>
<text x="80" y="32" font-family="Arial, sans-serif" font-size="24" fill="#111827">Driven Resonance (N=64, driven at omega_1): Energy</text>
<line x1="80.00" y1="620.00" x2="1060.00" y2="620.00" stroke="#374151" stroke-width="2"/>
<line x1="80.00" y1="620.00" x2="80.00" y2="50.00" stroke="#374151" stroke-width="2"/>
<text x="550.00" y="672" text-anchor="middle" font-family="Arial, sans-serif" font-size="16" fill="#374151">time (s)</text>
<text x="22" y="350.00" text-anchor="middle" transform="rotate(-90 22 350.00)" font-family="Arial, sans-serif" font-size="16" fill="#374151">energy (J)</text>
<text x="80" y="646" font-family="Arial, sans-serif" font-size="13" fill="#6b7280">0.00</text>
<text x="1060" y="646" text-anchor="end" font-family="Arial, sans-serif" font-size="13" fill="#6b7280">200.00</text>
<text x="68" y="620.00" text-anchor="end" dominant-baseline="middle" font-family="Arial, sans-serif" font-size="13" fill="#6b7280">-0.00</text>
<text x="68" y="50.00" text-anchor="end" dominant-baseline="middle" font-family="Arial, sans-serif" font-size="13" fill="#6b7280">0.00</text>
<polyline points="80.00,567.81 80.49,567.81 80.98,567.81 81.47,567.81 81.96,567.81 82.45,567.81 82.94,567.81 83.43,567.81 83.92,567.81 84.41,567.81 84.90,566.25 85.39,566.25 85.88,566.25 86.37,566.25 86.86,564.69 87.35,564.69 87.84,564.69 88.33,563.12 88.82,563.12 89.31,563.12 89.80,561.56 90.29,561.56 90.78,561.56 91.27,560.00 91.76,560.00 92.25,560.00 92.74,558.44 93.23,558.44 93.72,558.44 94.21,556.88 94.70,556.88 95.19,556.88 95.68,556.88 96.17,555.31 96.66,555.31 97.15,555.31 97.64,555.31 98.13,553.75 98.62,553.75 99.11,553.75 99.60,552.19 100.09,552.19 100.58,552.19 101.07,552.19 101.56,550.62 102.05,550.62 102.54,550.62 103.03,550.62 103.52,549.06 104.01,549.06 104.50,549.06 104.99,549.06 105.48,547.50 105.97,547.50 106.46,547.50 106.95,545.94 107.44,545.94 107.93,545.94 108.42,545.94 108.91,544.38 109.40,544.38 109.89,544.38 110.38,544.38 110.87,542.81 111.36,542.81 111.85,542.81 112.34,542.81 112.83,542.81 113.32,541.25 113.81,541.25 114.30,541.25 114.79,541.25 115.28,539.69 115.77,539.69 116.26,539.69 116.75,539.69 117.24,539.69 117.73,538.12 118.22,538.12 118.71,538.12 119.20,538.12 119.69,536.56 120.18,536.56 120.67,536.56 121.16,536.56 121.65,536.56 122.14,535.00 122.63,535.00 123.12,535.00 123.61,535.00 124.10,533.44 124.59,533.44 125.08,533.44 125.57,533.44 126.06,533.44 126.55,531.88 127.04,531.88 127.53,531.88 128.02,531.88 128.51,531.88 129.00,531.88 129.49,530.31 129.98,530.31 130.47,530.31 130.96,530.31 131.45,530.31 131.94,530.31 132.43,528.75 132.92,528.75 133.41,528.75 133.90,528.75 134.39,528.75 134.88,527.19 135.37,527.19 135.86,527.19 136.35,527.19 136.84,527.19 137.33,527.19 137.82,527.19 138.31,525.62 138.80,525.62 139.29,525.62 139.78,525.62 140.27,525.62 140.76,525.62 141.25,525.62 141.74,524.06 142.23,524.06 142.72,524.06 143.21,524.06 143.70,524.06 144.19,524.06 144.68,524.06 145.17,522.50 145.66,522.50 146.15,522.50 146.64,522.50 147.13,522.50 147.62,522.50 148.11,522.50 148.60,522.50 149.09,522.50 149.58,520.94 150.07,520.94 150.56,520.94 151.05,520.94 151.54,520.94 152.03,520.94 152.52,520.94 153.01,520.94 153.50,520.94 153.99,519.38 154.48,519.38 154.97,519.38 155.46,519.38 155.95,519.38 156.44,519.38 156.93,519.38 157.42,519.38 157.91,519.38 158.40,519.38 158.89,519.38 159.38,519.38 159.87,517.81 160.36,517.81 160.85,517.81 161.34,517.81 161.83,517.81 162.32,517.81 162.81,517.81 163.30,517.81 163.79,517.81 164.28,517.81 164.77,517.81 165.26,517.81 165.75,517.81 166.24,517.81 166.73,517.81 167.22,517.81 167.71,516.25 168.20,516.25 168.69,516.25 169.18,516.25 169.67,516.25 170.16,516.25 170.65,516.25 171.14,516.25 171.63,516.25 172.12,516.25 172.61,516.25 173.10,516.25 173.59,516.25 174.08,516.25 174.57,516.25 175.06,516.25 175.55,516.25 176.04,516.25 176.53,516.25 177.02,516.25 177.51,516.25 178.00,516.25 178.49,516.25 178.98,516.25 179.47,516.25 179.96,516.25 180.45,516.25 180.94,516.25 181.43,516.25 181.92,516.25 182.41,516.25 182.90,516.25 183.39,516.25 183.88,516.25 184.37,516.25 184.86,516.25 185.35,516.25 185.84,516.25 186.33,516.25 186.82,516.25 187.31,516.25 187.80,516.25 188.29,516.25 188.78,516.25 189.27,516.25 189.76,516.25 190.25,516.25 190.74,516.25 191.23,516.25 191.72,516.25 192.21,516.25 192.70,516.25 193.19,516.25 193.68,516.25 194.17,516.25 194.66,516.25 195.15,516.25 195.64,516.25 196.13,516.25 196.62,516.25 197.11,516.25 197.60,516.25 198.09,516.25 198.58,516.25 199.07,516.25 199.56,516.25 200.05,516.25 200.54,516.25 201.03,516.25 201.52,516.25 202.01,516.25 202.50,517.81 202.99,517.81 203.48,517.81 203.97,517.81 204.46,517.81 204.95,517.81 205.44,517.81 205.93,517.81 206.42,517.81 206.91,517.81 207.40,517.81 207.89,517.81 208.38,517.81 208.87,517.81 209.36,517.81 209.85,517.81 210.34,517.81 210.83,517.81 211.32,517.81 211.81,517.81 212.30,517.81 212.79,517.81 213.28,519.38 213.77,519.38 214.26,519.38 214.75,519.38 215.24,519.38 215.73,519.38 216.22,519.38 216.71,519.38 217.20,519.38 217.69,519.38 218.18,519.38 218.67,519.38 219.16,519.38 219.65,519.38 220.14,519.38 220.63,519.38 221.12,519.38 221.61,520.94 222.10,520.94 222.59,520.94 223.08,520.94 223.57,520.94 224.06,520.94 224.55,520.94 225.04,520.94 225.53,520.94 226.02,520.94 226.51,520.94 227.00,520.94 227.49,520.94 227.98,520.94 228.47,520.94 228.96,520.94 229.45,520.94 229.94,522.50 230.43,522.50 230.92,522.50 231.41,522.50 231.90,522.50 232.39,522.50 232.88,522.50 233.37,522.50 233.86,522.50 234.35,522.50 234.84,522.50 235.33,522.50 235.82,522.50 236.31,522.50 236.80,522.50 237.29,522.50 237.78,522.50 238.27,524.06 238.76,524.06 239.25,524.06 239.74,524.06 240.23,524.06 240.72,524.06 241.21,524.06 241.70,524.06 242.19,524.06 242.68,524.06 243.17,524.06 243.66,524.06 244.15,524.06 244.64,524.06 245.13,524.06 245.62,524.06 246.11,524.06 246.60,524.06 247.09,525.62 247.58,525.62 248.07,525.62 248.56,525.62 249.05,525.62 249.54,525.62 250.03,525.62 250.52,525.62 251.01,525.62 251.50,525.62 251.99,525.62 252.48,525.62 252.97,525.62 253.46,525.62 253.95,525.62 254.44,525.62 254.93,525.62 255.42,525.62 255.91,525.62 256.40,525.62 256.89,525.62 257.38,525.62 257.87,525.62 258.36,525.62 258.85,527.19 259.34,527.19 259.83,527.19 260.32,527.19 260.81,527.19 261.30,527.19 261.79,527.19 262.28,527.19 262.77,527.19 263.26,527.19 263.75,527.19 264.24,527.19 264.73,527.19 265.22,527.19 265.71,527.19 266.20,527.19 266.69,527.19 267.18,527.19 267.67,527.19 268.16,527.19 268.65,527.19 269.14,527.19 269.63,527.19 270.12,527.19 270.61,527.19 271.10,527.19 271.59,527.19 272.08,527.19 272.57,527.19 273.06,527.19 273.55,527.19 274.04,527.19 274.53,527.19 275.02,527.19 275.51,527.19 276.00,527.19 276.49,527.19 276.98,527.19 277.47,527.19 277.96,527.19 278.45,527.19 278.94,527.19 279.43,527.19 279.92,527.19 280.41,527.19 280.90,527.19 281.39,527.19 281.88,527.19 282.37,527.19 282.86,527.19 283.35,527.19 283.84,527.19 284.33,527.19 284.82,527.19 285.31,527.19 285.80,527.19 286.29,527.19 286.78,527.19 287.27,527.19 287.76,527.19 288.25,527.19 288.74,527.19 289.23,525.62 289.72,525.62 290.21,525.62 290.70,525.62 291.19,525.62 291.68,525.62 292.17,525.62 292.66,525.62 293.15,525.62 293.64,525.62 294.13,525.62 294.62,525.62 295.11,525.62 295.60,525.62 296.09,525.62 296.58,525.62 297.07,525.62 297.56,525.62 298.05,525.62 298.54,525.62 299.03,524.06 299.52,524.06 300.01,524.06 300.50,524.06 300.99,524.06 301.48,524.06 301.97,524.06 302.46,524.06 302.95,524.06 303.44,524.06 303.93,524.06 304.42,524.06 304.91,524.06 305.40,522.50 305.89,522.50 306.38,522.50 306.87,522.50 307.36,522.50 307.85,522.50 308.34,522.50 308.83,522.50 309.32,522.50 309.81,522.50 310.30,522.50 310.79,520.94 311.28,520.94 311.77,520.94 312.26,520.94 312.75,520.94 313.24,520.94 313.73,520.94 314.22,520.94 314.71,520.94 315.20,520.94 315.69,519.38 316.18,519.38 316.67,519.38 317.16,519.38 317.65,519.38 318.14,519.38 318.63,519.38 319.12,519.38 319.61,517.81 320.10,517.81 320.59,517.81 321.08,517.81 321.57,517.81 322.06,517.81 322.55,517.81 323.04,517.81 323.53,516.25 324.02,516.25 324.51,516.25 325.00,516.25 325.49,516.25 325.98,516.25 326.47,516.25 326.96,516.25 327.45,514.69 327.94,514.69 328.43,514.69 328.92,514.69 329.41,514.69 329.90,514.69 330.39,513.12 330.88,513.12 331.37,513.12 331.86,513.12 332.35,513.12 332.84,513.12 333.33,513.12 333.82,511.56 334.31,511.56 334.80,511.56 335.29,511.56 335.78,511.56 336.27,511.56 336.76,510.00 337.25,510.00 337.74,510.00 338.23,510.00 338.72,510.00 339.21,510.00 339.70,508.44 340.19,508.44 340.68,508.44 341.17,508.44 341.66,508.44 342.15,508.44 342.64,506.88 343.13,506.88 343.62,506.88 344.11,506.88 344.60,506.88 345.09,506.88 345.58,505.31 346.07,505.31 346.56,505.31 347.05,505.31 347.54,505.31 348.03,505.31 348.52,503.75 349.01,503.75 349.50,503.75 349.99,503.75 350.48,503.75 350.97,502.19 351.46,502.19 351.95,502.19 352.44,502.19 352.93,502.19 353.42,500.62 353.91,500.62 354.40,500.62 354.89,500.62 355.38,500.62 355.87,500.62 356.36,499.06 356.85,499.06 357.34,499.06 357.83,499.06 358.32,499.06 358.81,497.50 359.30,497.50 359.79,497.50 360.28,497.50 360.77,497.50 361.26,495.94 361.75,495.94 362.24,495.94 362.73,495.94 363.22,495.94 363.71,494.38 364.20,494.38 364.69,494.38 365.18,494.38 365.67,494.38 366.16,492.81 366.65,492.81 367.14,492.81 367.63,492.81 368.12,492.81 368.61,491.25 369.10,491.25 369.59,491.25 370.08,491.25 370.57,491.25 371.06,489.69 371.55,489.69 372.04,489.69 372.53,489.69 373.02,489.69 373.51,488.12 374.00,488.12 374.49,488.12 374.98,488.12 375.47,488.12 375.96,486.56 376.45,486.56 376.94,486.56 377.43,486.56 377.92,486.56 378.41,485.00 378.90,485.00 379.39,485.00 379.88,485.00 380.37,485.00 380.86,483.44 381.35,483.44 381.84,483.44 382.33,483.44 382.82,483.44 383.31,483.44 383.80,481.88 384.29,481.88 384.78,481.88 385.27,481.88 385.76,481.88 386.25,481.88 386.74,480.31 387.23,480.31 387.72,480.31 388.21,480.31 388.70,480.31 389.19,480.31 389.68,480.31 390.17,478.75 390.66,478.75 391.15,478.75 391.64,478.75 392.13,478.75 392.62,478.75 393.11,478.75 393.60,478.75 394.09,478.75 394.58,478.75 395.07,478.75 395.56,478.75 396.05,478.75 396.54,478.75 397.03,477.19 397.52,477.19 398.01,477.19 398.50,477.19 398.99,477.19 399.48,477.19 399.97,478.75 400.46,478.75 400.95,478.75 401.44,478.75 401.93,478.75 402.42,478.75 402.91,478.75 403.40,478.75 403.89,478.75 404.38,478.75 404.87,478.75 405.36,478.75 405.85,478.75 406.34,478.75 406.83,478.75 407.32,478.75 407.81,478.75 408.30,478.75 408.79,478.75 409.28,478.75 409.77,478.75 410.26,478.75 410.75,478.75 411.24,478.75 411.73,478.75 412.22,478.75 412.71,478.75 413.20,478.75 413.69,478.75 414.18,478.75 414.67,478.75 415.16,478.75 415.65,478.75 416.14,478.75 416.63,477.19 417.12,477.19 417.61,477.19 418.10,477.19 418.59,477.19 419.08,477.19 419.57,477.19 420.06,477.19 420.55,477.19 421.04,477.19 421.53,477.19 422.02,477.19 422.51,477.19 423.00,477.19 423.49,477.19 423.98,477.19 424.47,477.19 424.96,477.19 425.45,477.19 425.94,477.19 426.43,477.19 426.92,477.19 427.41,477.19 427.90,477.19 428.39,477.19 428.88,477.19 429.37,477.19 429.86,477.19 430.35,477.19 430.84,477.19 431.33,477.19 431.82,477.19 432.31,477.19 432.80,477.19 433.29,477.19 433.78,477.19 434.27,475.62 434.76,475.62 435.25,475.62 435.74,475.62 436.23,475.62 436.72,475.62 437.21,475.62 437.70,475.62 438.19,475.62 438.68,475.62 439.17,475.62 439.66,475.62 440.15,475.62 440.64,475.62 441.13,475.62 441.62,475.62 442.11,475.62 442.60,475.62 443.09,475.62 443.58,474.06 444.07,474.06 444.56,474.06 445.05,474.06 445.54,474.06 446.03,474.06 446.52,474.06 447.01,474.06 447.50,474.06 447.99,474.06 448.48,474.06 448.97,474.06 449.46,472.50 449.95,472.50 450.44,472.50 450.93,472.50 451.42,472.50 451.91,472.50 452.40,472.50 452.89,472.50 453.38,472.50 453.87,472.50 454.36,472.50 454.85,470.94 455.34,470.94 455.83,470.94 456.32,470.94 456.81,470.94 457.30,470.94 457.79,470.94 458.28,470.94 458.77,470.94 459.26,470.94 459.75,469.38 460.24,469.38 460.73,469.38 461.22,469.38 461.71,469.38 462.20,469.38 462.69,469.38 463.18,469.38 463.67,467.81 464.16,467.81 464.65,467.81 465.14,467.81 465.63,467.81 466.12,467.81 466.61,467.81 467.10,467.81 467.59,466.25 468.08,466.25 468.57,466.25 469.06,466.25 469.55,466.25 470.04,466.25 470.53,466.25 471.02,464.69 471.51,464.69 472.00,464.69 472.49,464.69 472.98,464.69 473.47,464.69 473.96,464.69 474.45,463.12 474.94,463.12 475.43,463.12 475.92,463.12 476.41,463.12 476.90,463.12 477.39,461.56 477.88,461.56 478.37,461.56 478.86,461.56 479.35,461.56 479.84,461.56 480.33,461.56 480.82,460.00 481.31,460.00 481.80,460.00 482.29,460.00 482.78,460.00 483.27,460.00 483.76,458.44 484.25,458.44 484.74,458.44 485.23,458.44 485.72,458.44 486.21,456.88 486.70,456.88 487.19,456.88 487.68,456.88 488.17,456.88 488.66,456.88 489.15,455.31 489.64,455.31 490.13,455.31 490.62,455.31 491.11,455.31 491.60,453.75 492.09,453.75 492.58,453.75 493.07,453.75 493.56,453.75 494.05,453.75 494.54,452.19 495.03,452.19 495.52,452.19 496.01,452.19 496.50,452.19 496.99,450.62 497.48,450.62 497.97,450.62 498.46,450.62 498.95,450.62 499.44,450.62 499.93,449.06 500.42,449.06 500.91,449.06 501.40,449.06 501.89,449.06 502.38,447.50 502.87,447.50 503.36,447.50 503.85,447.50 504.34,447.50 504.83,447.50 505.32,445.94 505.81,445.94 506.30,445.94 506.79,445.94 507.28,445.94 507.77,444.38 508.26,444.38 508.75,444.38 509.24,444.38 509.73,444.38 510.22,442.81 510.71,442.81 511.20,442.81 511.69,442.81 512.18,442.81 512.67,442.81 513.16,441.25 513.65,441.25 514.14,441.25 514.63,441.25 515.12,441.25 515.61,439.69 516.10,439.69 516.59,439.69 517.08,439.69 517.57,439.69 518.06,439.69 518.55,438.12 519.04,438.12 519.53,438.12 520.02,438.12 520.51,438.12 521.00,438.12 521.49,436.56 521.98,436.56 522.47,436.56 522.96,436.56 523.45,436.56 523.94,436.56 524.43,435.00 524.92,435.00 525.41,435.00 525.90,435.00 526.39,435.00 526.88,435.00 527.37,435.00 527.86,433.44 528.35,433.44 528.84,433.44 529.33,433.44 529.82,433.44 530.31,433.44 530.80,433.44 531.29,431.88 531.78,431.88 532.27,431.88 532.76,431.88 533.25,431.88 533.74,431.88 534.23,431.88 534.72,430.31 535.21,430.31 535.70,430.31 536.19,430.31 536.68,430.31 537.17,430.31 537.66,430.31 538.15,430.31 538.64,430.31 539.13,428.75 539.62,428.75 540.11,428.75 540.60,428.75 541.09,428.75 541.58,428.75 542.07,428.75 542.56,428.75 543.05,428.75 543.54,428.75 544.03,427.19 544.52,427.19 545.01,427.19 545.50,427.19 545.99,427.19 546.48,427.19 546.97,427.19 547.46,427.19 547.95,427.19 548.44,427.19 548.93,427.19 549.42,427.19 549.91,427.19 550.40,427.19 550.89,427.19 551.38,427.19 551.87,425.62 552.36,425.62 552.85,425.62 553.34,425.62 553.83,425.62 554.32,425.62 554.81,425.62 555.30,425.62 555.79,425.62 556.28,425.62 556.77,425.62 557.26,425.62 557.75,425.62 558.24,425.62 558.73,425.62 559.22,425.62 559.71,425.62 560.20,425.62 560.69,425.62 561.18,425.62 561.67,425.62 562.16,425.62 562.65,425.62 563.14,425.62 563.63,425.62 564.12,425.62 564.61,425.62 565.10,425.62 565.59,425.62 566.08,425.62 566.57,425.62 567.06,427.19 567.55,427.19 568.04,427.19 568.53,427.19 569.02,427.19 569.51,427.19 570.00,427.19 570.49,427.19 570.98,427.19 571.47,427.19 571.96,427.19 572.45,427.19 572.94,427.19 573.43,427.19 573.92,428.75 574.41,428.75 574.90,428.75 575.39,428.75 575.88,428.75 576.37,428.75 576.86,428.75 577.35,428.75 577.84,428.75 578.33,430.31 578.82,430.31 579.31,430.31 579.80,430.31 580.29,430.31 580.78,430.31 581.27,430.31 581.76,431.88 582.25,431.88 582.74,431.88 583.23,431.88 583.72,431.88 584.21,431.88 584.70,431.88 585.19,433.44 585.68,433.44 586.17,433.44 586.66,433.44 587.15,433.44 587.64,435.00 588.13,435.00 588.62,435.00 589.11,435.00 589.60,435.00 590.09,436.56 590.58,436.56 591.07,436.56 591.56,436.56 592.05,436.56 592.54,438.12 593.03,438.12 593.52,438.12 594.01,438.12 594.50,438.12 594.99,439.69 595.48,439.69 595.97,439.69 596.46,439.69 596.95,441.25 597.44,441.25 597.93,441.25 598.42,441.25 598.91,442.81 599.40,442.81 599.89,442.81 600.38,442.81 600.87,444.38 601.36,444.38 601.85,444.38 602.34,445.94 602.83,445.94 603.32,445.94 603.81,445.94 604.30,447.50 604.79,447.50 605.28,447.50 605.77,449.06 606.26,449.06 606.75,449.06 607.24,449.06 607.73,450.62 608.22,450.62 608.71,450.62 609.20,452.19 609.69,452.19 610.18,452.19 610.67,453.75 611.16,453.75 611.65,453.75 612.14,455.31 612.63,455.31 613.12,455.31 613.61,456.88 614.10,456.88 614.59,456.88 615.08,458.44 615.57,458.44 616.06,458.44 616.55,460.00 617.04,460.00 617.53,460.00 618.02,461.56 618.51,461.56 619.00,461.56 619.49,463.12 619.98,463.12 620.47,464.69 620.96,464.69 621.45,464.69 621.94,466.25 622.43,466.25 622.92,466.25 623.41,467.81 623.90,467.81 624.39,469.38 624.88,469.38 625.37,469.38 625.86,470.94 626.35,470.94 626.84,470.94 627.33,472.50 627.82,472.50 628.31,474.06 628.80,474.06 629.29,474.06 629.78,475.62 630.27,475.62 630.76,477.19 631.25,477.19 631.74,477.19 632.23,478.75 632.72,478.75 633.21,478.75 633.70,480.31 634.19,480.31 634.68,481.88 635.17,481.88 635.66,481.88 636.15,483.44 636.64,483.44 637.13,485.00 637.62,485.00 638.11,485.00 638.60,486.56 639.09,486.56 639.58,488.12 640.07,488.12 640.56,488.12 641.05,489.69 641.54,489.69 642.03,491.25 642.52,491.25 643.01,491.25 643.50,492.81 643.99,492.81 644.48,494.38 644.97,494.38 645.46,494.38 645.95,495.94 646.44,495.94 646.93,497.50 647.42,497.50 647.91,497.50 648.40,499.06 648.89,499.06 649.38,500.62 649.87,500.62 650.36,500.62 650.85,502.19 651.34,502.19 651.83,503.75 652.32,503.75 652.81,503.75 653.30,505.31 653.79,505.31 654.28,506.88 654.77,506.88 655.26,506.88 655.75,508.44 656.24,508.44 656.73,508.44 657.22,510.00 657.71,510.00 658.20,511.56 658.69,511.56 659.18,511.56 659.67,513.12 660.16,513.12 660.65,513.12 661.14,514.69 661.63,514.69 662.12,514.69 662.61,516.25 663.10,516.25 663.59,516.25 664.08,517.81 664.57,517.81 665.06,517.81 665.55,519.38 666.04,519.38 666.53,519.38 667.02,520.94 667.51,520.94 668.00,520.94 668.49,522.50 668.98,522.50 669.47,522.50 669.96,524.06 670.45,524.06 670.94,524.06 671.43,525.62 671.92,525.62 672.41,525.62 672.90,525.62 673.39,527.19 673.88,527.19 674.37,527.19 674.86,528.75 675.35,528.75 675.84,528.75 676.33,528.75 676.82,530.31 677.31,530.31 677.80,530.31 678.29,530.31 678.78,531.88 679.27,531.88 679.76,531.88 680.25,531.88 680.74,531.88 681.23,533.44 681.72,533.44 682.21,533.44 682.70,533.44 683.19,535.00 683.68,535.00 684.17,535.00 684.66,535.00 685.15,535.00 685.64,535.00 686.13,536.56 686.62,536.56 687.11,536.56 687.60,536.56 688.09,536.56 688.58,536.56 689.07,536.56 689.56,536.56 690.05,538.12 690.54,538.12 691.03,538.12 691.52,538.12 692.01,538.12 692.50,538.12 692.99,538.12 693.48,538.12 693.97,538.12 694.46,538.12 694.95,538.12 695.44,538.12 695.93,538.12 696.42,538.12 696.91,538.12 697.40,538.12 697.89,538.12 698.38,538.12 698.87,538.12 699.36,538.12 699.85,538.12 700.34,538.12 700.83,538.12 701.32,538.12 701.81,538.12 702.30,538.12 702.79,536.56 703.28,536.56 703.77,536.56 704.26,536.56 704.75,536.56 705.24,536.56 705.73,535.00 706.22,535.00 706.71,535.00 707.20,535.00 707.69,535.00 708.18,533.44 708.67,533.44 709.16,533.44 709.65,533.44 710.14,531.88 710.63,531.88 711.12,531.88 711.61,531.88 712.10,530.31 712.59,530.31 713.08,530.31 713.57,528.75 714.06,528.75 714.55,528.75 715.04,527.19 715.53,527.19 716.02,525.62 716.51,525.62 717.00,525.62 717.49,524.06 717.98,524.06 718.47,522.50 718.96,522.50 719.45,520.94 719.94,520.94 720.43,519.38 720.92,519.38 721.41,517.81 721.90,517.81 722.39,516.25 722.88,516.25 723.37,514.69 723.86,514.69 724.35,513.12 724.84,513.12 725.33,511.56 725.82,511.56 726.31,510.00 726.80,508.44 727.29,508.44 727.78,506.88 728.27,506.88 728.76,505.31 729.25,505.31 729.74,503.75 730.23,502.19 730.72,502.19 731.21,500.62 731.70,500.62 732.19,499.06 732.68,497.50 733.17,497.50 733.66,495.94 734.15,495.94 734.64,494.38 735.13,494.38 735.62,492.81 736.11,491.25 736.60,491.25 737.09,489.69 737.58,489.69 738.07,488.12 738.56,488.12 739.05,486.56 739.54,485.00 740.03,485.00 740.52,483.44 741.01,483.44 741.50,481.88 741.99,481.88 742.48,480.31 742.97,480.31 743.46,478.75 743.95,478.75 744.44,477.19 744.93,475.62 745.42,475.62 745.91,474.06 746.40,474.06 746.89,472.50 747.38,472.50 747.87,470.94 748.36,470.94 748.85,469.38 749.34,467.81 749.83,467.81 750.32,466.25 750.81,466.25 751.30,464.69 751.79,464.69 752.28,463.12 752.77,461.56 753.26,461.56 753.75,460.00 754.24,460.00 754.73,458.44 755.22,456.88 755.71,456.88 756.20,455.31 756.69,455.31 757.18,453.75 757.67,452.19 758.16,452.19 758.65,450.62 759.14,449.06 759.63,449.06 760.12,447.50 760.61,447.50 761.10,445.94 761.59,444.38 762.08,444.38 762.57,442.81 763.06,441.25 763.55,441.25 764.04,439.69 764.53,438.12 765.02,438.12 765.51,436.56 766.00,435.00 766.49,435.00 766.98,433.44 767.47,431.88 767.96,431.88 768.45,430.31 768.94,428.75 769.43,428.75 769.92,427.19 770.41,425.62 770.90,425.62 771.39,424.06 771.88,422.50 772.37,422.50 772.86,420.94 773.35,419.38 773.84,419.38 774.33,417.81 774.82,416.25 775.31,416.25 775.80,414.69 776.29,413.12 776.78,413.12 777.27,411.56 777.76,411.56 778.25,410.00 778.74,408.44 779.23,408.44 779.72,406.88 780.21,406.88 780.70,405.31 781.19,403.75 781.68,403.75 782.17,402.19 782.66,402.19 783.15,400.62 783.64,399.06 784.13,399.06 784.62,397.50 785.11,397.50 785.60,395.94 786.09,395.94 786.58,394.38 787.07,392.81 787.56,392.81 788.05,391.25 788.54,391.25 789.03,389.69 789.52,389.69 790.01,388.12 790.50,386.56 790.99,386.56 791.48,385.00 791.97,385.00 792.46,383.44 792.95,383.44 793.44,381.88 793.93,380.31 794.42,380.31 794.91,378.75 795.40,378.75 795.89,377.19 796.38,377.19 796.87,375.62 797.36,375.62 797.85,374.06 798.34,372.50 798.83,372.50 799.32,370.94 799.81,370.94 800.30,369.38 800.79,369.38 801.28,367.81 801.77,367.81 802.26,366.25 802.75,366.25 803.24,364.69 803.73,364.69 804.22,363.12 804.71,363.12 805.20,361.56 805.69,361.56 806.18,360.00 806.67,360.00 807.16,358.44 807.65,358.44 808.14,358.44 808.63,356.88 809.12,356.88 809.61,355.31 810.10,355.31 810.59,353.75 811.08,353.75 811.57,353.75 812.06,352.19 812.55,352.19 813.04,350.62 813.53,350.62 814.02,350.62 814.51,349.06 815.00,349.06 815.49,349.06 815.98,347.50 816.47,347.50 816.96,345.94 817.45,345.94 817.94,345.94 818.43,344.38 818.92,344.38 819.41,344.38 819.90,342.81 820.39,342.81 820.88,342.81 821.37,341.25 821.86,341.25 822.35,341.25 822.84,339.69 823.33,339.69 823.82,339.69 824.31,339.69 824.80,338.12 825.29,338.12 825.78,338.12 826.27,336.56 826.76,336.56 827.25,336.56 827.74,336.56 828.23,335.00 828.72,335.00 829.21,335.00 829.70,335.00 830.19,333.44 830.68,333.44 831.17,333.44 831.66,333.44 832.15,333.44 832.64,331.88 833.13,331.88 833.62,331.88 834.11,331.88 834.60,331.88 835.09,330.31 835.58,330.31 836.07,330.31 836.56,330.31 837.05,330.31 837.54,330.31 838.03,330.31 838.52,330.31 839.01,328.75 839.50,328.75 839.99,328.75 840.48,328.75 840.97,328.75 841.46,328.75 841.95,328.75 842.44,328.75 842.93,328.75 843.42,328.75 843.91,328.75 844.40,327.19 844.89,327.19 845.38,327.19 845.87,327.19 846.36,327.19 846.85,327.19 847.34,327.19 847.83,327.19 848.32,327.19 848.81,327.19 849.30,327.19 849.79,327.19 850.28,327.19 850.77,327.19 851.26,327.19 851.75,327.19 852.24,327.19 852.73,327.19 853.22,328.75 853.71,328.75 854.20,328.75 854.69,328.75 855.18,328.75 855.67,328.75 856.16,328.75 856.65,328.75 857.14,328.75 857.63,328.75 858.12,328.75 858.61,330.31 859.10,330.31 859.59,330.31 860.08,330.31 860.57,330.31 861.06,330.31 861.55,330.31 862.04,331.88 862.53,331.88 863.02,331.88 863.51,331.88 864.00,331.88 864.49,331.88 864.98,333.44 865.47,333.44 865.96,333.44 866.45,333.44 866.94,333.44 867.43,335.00 867.92,335.00 868.41,335.00 868.90,335.00 869.39,336.56 869.88,336.56 870.37,336.56 870.86,336.56 871.35,338.12 871.84,338.12 872.33,338.12 872.82,338.12 873.31,339.69 873.80,339.69 874.29,339.69 874.78,341.25 875.27,341.25 875.76,341.25 876.25,342.81 876.74,342.81 877.23,342.81 877.72,344.38 878.21,344.38 878.70,344.38 879.19,345.94 879.68,345.94 880.17,345.94 880.66,347.50 881.15,347.50 881.64,347.50 882.13,349.06 882.62,349.06 883.11,350.62 883.60,350.62 884.09,350.62 884.58,352.19 885.07,352.19 885.56,353.75 886.05,353.75 886.54,353.75 887.03,355.31 887.52,355.31 888.01,356.88 888.50,356.88 888.99,358.44 889.48,358.44 889.97,358.44 890.46,360.00 890.95,360.00 891.44,361.56 891.93,361.56 892.42,363.12 892.91,363.12 893.40,364.69 893.89,364.69 894.38,366.25 894.87,366.25 895.36,367.81 895.85,367.81 896.34,369.38 896.83,369.38 897.32,370.94 897.81,370.94 898.30,372.50 898.79,372.50 899.28,374.06 899.77,374.06 900.26,375.62 900.75,375.62 901.24,377.19 901.73,377.19 902.22,378.75 902.71,378.75 903.20,380.31 903.69,380.31 904.18,381.88 904.67,383.44 905.16,383.44 905.65,385.00 906.14,385.00 906.63,386.56 907.12,386.56 907.61,388.12 908.10,388.12 908.59,389.69 909.08,391.25 909.57,391.25 910.06,392.81 910.55,392.81 911.04,394.38 911.53,394.38 912.02,395.94 912.51,397.50 913.00,397.50 913.49,399.06 913.98,399.06 914.47,400.62 914.96,400.62 915.45,402.19 915.94,403.75 916.43,403.75 916.92,405.31 917.41,405.31 917.90,406.88 918.39,406.88 918.88,408.44 919.37,410.00 919.86,410.00 920.35,411.56 920.84,411.56 921.33,413.12 921.82,414.69 922.31,414.69 922.80,416.25 923.29,416.25 923.78,417.81 924.27,419.38 924.76,419.38 925.25,420.94 925.74,420.94 926.23,422.50 926.72,424.06 927.21,424.06 927.70,425.62 928.19,425.62 928.68,427.19 929.17,428.75 929.66,428.75 930.15,430.31 930.64,430.31 931.13,431.88 931.62,433.44 932.11,433.44 932.60,435.00 933.09,435.00 933.58,436.56 934.07,438.12 934.56,438.12 935.05,439.69 935.54,439.69 936.03,441.25 936.52,441.25 937.01,442.81 937.50,444.38 937.99,444.38 938.48,445.94 938.97,445.94 939.46,447.50 939.95,447.50 940.44,449.06 940.93,450.62 941.42,450.62 941.91,452.19 942.40,452.19 942.89,453.75 943.38,453.75 943.87,455.31 944.36,455.31 944.85,456.88 945.34,458.44 945.83,458.44 946.32,460.00 946.81,460.00 947.30,461.56 947.79,461.56 948.28,463.12 948.77,463.12 949.26,464.69 949.75,464.69 950.24,466.25 950.73,466.25 951.22,467.81 951.71,467.81 952.20,469.38 952.69,469.38 953.18,470.94 953.67,470.94 954.16,472.50 954.65,472.50 955.14,474.06 955.63,474.06 956.12,475.62 956.61,475.62 957.10,477.19 957.59,477.19 958.08,478.75 958.57,478.75 959.06,480.31 959.55,480.31 960.04,481.88 960.53,481.88 961.02,481.88 961.51,483.44 962.00,483.44 962.49,485.00 962.98,485.00 963.47,485.00 963.96,486.56 964.45,486.56 964.94,488.12 965.43,488.12 965.92,488.12 966.41,489.69 966.90,489.69 967.39,491.25 967.88,491.25 968.37,491.25 968.86,492.81 969.35,492.81 969.84,492.81 970.33,494.38 970.82,494.38 971.31,494.38 971.80,495.94 972.29,495.94 972.78,495.94 973.27,497.50 973.76,497.50 974.25,497.50 974.74,499.06 975.23,499.06 975.72,499.06 976.21,500.62 976.70,500.62 977.19,500.62 977.68,500.62 978.17,502.19 978.66,502.19 979.15,502.19 979.64,502.19 980.13,503.75 980.62,503.75 981.11,503.75 981.60,503.75 982.09,503.75 982.58,505.31 983.07,505.31 983.56,505.31 984.05,505.31 984.54,505.31 985.03,506.88 985.52,506.88 986.01,506.88 986.50,506.88 986.99,506.88 987.48,506.88 987.97,508.44 988.46,508.44 988.95,508.44 989.44,508.44 989.93,508.44 990.42,508.44 990.91,508.44 991.40,508.44 991.89,508.44 992.38,510.00 992.87,510.00 993.36,510.00 993.85,510.00 994.34,510.00 994.83,510.00 995.32,510.00 995.81,510.00 996.30,510.00 996.79,510.00 997.28,510.00 997.77,510.00 998.26,510.00 998.75,510.00 999.24,510.00 999.73,510.00 1000.22,510.00 1000.71,510.00 1001.20,510.00 1001.69,510.00 1002.18,510.00 1002.67,510.00 1003.16,510.00 1003.65,510.00 1004.14,510.00 1004.63,508.44 1005.12,508.44 1005.61,508.44 1006.10,508.44 1006.59,508.44 1007.08,508.44 1007.57,508.44 1008.06,508.44 1008.55,508.44 1009.04,506.88 1009.53,506.88 1010.02,506.88 1010.51,506.88 1011.00,506.88 1011.49,506.88 1011.98,506.88 1012.47,505.31 1012.96,505.31 1013.45,505.31 1013.94,505.31 1014.43,505.31 1014.92,503.75 1015.41,503.75 1015.90,503.75 1016.39,503.75 1016.88,503.75 1017.37,502.19 1017.86,502.19 1018.35,502.19 1018.84,502.19 1019.33,500.62 1019.82,500.62 1020.31,500.62 1020.80,499.06 1021.29,499.06 1021.78,499.06 1022.27,499.06 1022.76,497.50 1023.25,497.50 1023.74,497.50 1024.23,495.94 1024.72,495.94 1025.21,495.94 1025.70,494.38 1026.19,494.38 1026.68,494.38 1027.17,492.81 1027.66,492.81 1028.15,491.25 1028.64,491.25 1029.13,491.25 1029.62,489.69 1030.11,489.69 1030.60,488.12 1031.09,488.12 1031.58,488.12 1032.07,486.56 1032.56,486.56 1033.05,485.00 1033.54,485.00 1034.03,485.00 1034.52,483.44 1035.01,483.44 1035.50,481.88 1035.99,481.88 1036.48,480.31 1036.97,480.31 1037.46,478.75 1037.95,478.75 1038.44,477.19 1038.93,477.19 1039.42,475.62 1039.91,475.62 1040.40,474.06 1040.89,474.06 1041.38,472.50 1041.87,472.50 1042.36,470.94 1042.85,470.94 1043.34,469.38 1043.83,467.81 1044.32,467.81 1044.81,466.25 1045.30,466.25 1045.79,464.69 1046.28,464.69 1046.77,463.12 1047.26,461.56 1047.75,461.56 1048.24,460.00 1048.73,460.00 1049.22,458.44 1049.71,456.88 1050.20,456.88 1050.69,455.31 1051.18,455.31 1051.67,453.75 1052.16,452.19 1052.65,452.19 1053.14,450.62 1053.63,450.62 1054.12,449.06 1054.61,447.50 1055.10,447.50 1055.59,445.94 1056.08,444.38 1056.57,444.38 1057.06,442.81 1057.55,441.25 1058.04,441.25 1058.53,439.69 1059.02,438.12 1059.51,438.12 1060.00,436.56" fill="none" stroke="#dc2626" stroke-width="2.2" stroke-linejoin="round" stroke-linecap="round"/>
<rect x="880" y="62" width="18" height="4" fill="#dc2626"/>
<text x="904" y="67" font-family="Arial, sans-serif" font-size="15" fill="#111827">KE (J)</text>
<polyline points="80.00,572.50 80.49,572.50 80.98,572.50 81.47,572.50 81.96,572.50 82.45,570.94 82.94,570.94 83.43,570.94 83.92,569.38 84.41,569.38 84.90,569.38 85.39,567.81 85.88,567.81 86.37,567.81 86.86,566.25 87.35,566.25 87.84,566.25 88.33,564.69 88.82,564.69 89.31,564.69 89.80,564.69 90.29,563.12 90.78,563.12 91.27,563.12 91.76,561.56 92.25,561.56 92.74,561.56 93.23,560.00 93.72,560.00 94.21,560.00 94.70,558.44 95.19,558.44 95.68,558.44 96.17,558.44 96.66,556.88 97.15,556.88 97.64,556.88 98.13,555.31 98.62,555.31 99.11,555.31 99.60,553.75 100.09,553.75 100.58,553.75 101.07,553.75 101.56,552.19 102.05,552.19 102.54,552.19 103.03,550.62 103.52,550.62 104.01,550.62 104.50,549.06 104.99,549.06 105.48,549.06 105.97,549.06 106.46,547.50 106.95,547.50 107.44,547.50 107.93,545.94 108.42,545.94 108.91,545.94 109.40,545.94 109.89,544.38 110.38,544.38 110.87,544.38 111.36,542.81 111.85,542.81 112.34,542.81 112.83,542.81 113.32,541.25 113.81,541.25 114.30,541.25 114.79,541.25 115.28,539.69 115.77,539.69 116.26,539.69 116.75,538.12 117.24,538.12 117.73,538.12 118.22,538.12 118.71,536.56 119.20,536.56 119.69,536.56 120.18,536.56 120.67,535.00 121.16,535.00 121.65,535.00 122.14,535.00 122.63,533.44 123.12,533.44 123.61,533.44 124.10,531.88 124.59,531.88 125.08,531.88 125.57,531.88 126.06,530.31 126.55,530.31 127.04,530.31 127.53,530.31 128.02,530.31 128.51,528.75 129.00,528.75 129.49,528.75 129.98,528.75 130.47,527.19 130.96,527.19 131.45,527.19 131.94,527.19 132.43,525.62 132.92,525.62 133.41,525.62 133.90,525.62 134.39,524.06 134.88,524.06 135.37,524.06 135.86,524.06 136.35,524.06 136.84,522.50 137.33,522.50 137.82,522.50 138.31,522.50 138.80,522.50 139.29,520.94 139.78,520.94 140.27,520.94 140.76,520.94 141.25,520.94 141.74,519.38 142.23,519.38 142.72,519.38 143.21,519.38 143.70,519.38 144.19,517.81 144.68,517.81 145.17,517.81 145.66,517.81 146.15,517.81 146.64,516.25 147.13,516.25 147.62,516.25 148.11,516.25 148.60,516.25 149.09,516.25 149.58,514.69 150.07,514.69 150.56,514.69 151.05,514.69 151.54,514.69 152.03,514.69 152.52,513.12 153.01,513.12 153.50,513.12 153.99,513.12 154.48,513.12 154.97,513.12 155.46,511.56 155.95,511.56 156.44,511.56 156.93,511.56 157.42,511.56 157.91,511.56 158.40,511.56 158.89,510.00 159.38,510.00 159.87,510.00 160.36,510.00 160.85,510.00 161.34,510.00 161.83,510.00 162.32,508.44 162.81,508.44 163.30,508.44 163.79,508.44 164.28,508.44 164.77,508.44 165.26,508.44 165.75,508.44 166.24,506.88 166.73,506.88 167.22,506.88 167.71,506.88 168.20,506.88 168.69,506.88 169.18,506.88 169.67,506.88 170.16,506.88 170.65,506.88 171.14,505.31 171.63,505.31 172.12,505.31 172.61,505.31 173.10,505.31 173.59,505.31 174.08,505.31 174.57,505.31 175.06,505.31 175.55,505.31 176.04,505.31 176.53,505.31 177.02,503.75 177.51,503.75 178.00,503.75 178.49,503.75 178.98,503.75 179.47,503.75 179.96,503.75 180.45,503.75 180.94,503.75 181.43,503.75 181.92,503.75 182.41,503.75 182.90,503.75 183.39,503.75 183.88,503.75 184.37,503.75 184.86,502.19 185.35,502.19 185.84,502.19 186.33,502.19 186.82,502.19 187.31,502.19 187.80,502.19 188.29,502.19 188.78,502.19 189.27,502.19 189.76,502.19 190.25,502.19 190.74,502.19 191.23,502.19 191.72,502.19 192.21,502.19 192.70,502.19 193.19,502.19 193.68,502.19 194.17,502.19 194.66,502.19 195.15,502.19 195.64,502.19 196.13,502.19 196.62,502.19 197.11,502.19 197.60,502.19 198.09,502.19 198.58,502.19 199.07,502.19 199.56,502.19 200.05,502.19 200.54,502.19 201.03,502.19 201.52,502.19 202.01,502.19 202.50,502.19 202.99,502.19 203.48,502.19 203.97,502.19 204.46,502.19 204.95,502.19 205.44,502.19 205.93,502.19 206.42,502.19 206.91,502.19 207.40,502.19 207.89,502.19 208.38,502.19 208.87,502.19 209.36,502.19 209.85,502.19 210.34,502.19 210.83,502.19 211.32,502.19 211.81,502.19 212.30,502.19 212.79,502.19 213.28,502.19 213.77,502.19 214.26,502.19 214.75,502.19 215.24,502.19 215.73,502.19 216.22,503.75 216.71,503.75 217.20,503.75 217.69,503.75 218.18,503.75 218.67,503.75 219.16,503.75 219.65,503.75 220.14,503.75 220.63,503.75 221.12,503.75 221.61,503.75 222.10,503.75 222.59,503.75 223.08,503.75 223.57,503.75 224.06,503.75 224.55,503.75 225.04,503.75 225.53,503.75 226.02,505.31 226.51,505.31 227.00,505.31 227.49,505.31 227.98,505.31 228.47,505.31 228.96,505.31 229.45,505.31 229.94,505.31 230.43,505.31 230.92,505.31 231.41,505.31 231.90,505.31 232.39,505.31 232.88,505.31 233.37,505.31 233.86,506.88 234.35,506.88 234.84,506.88 235.33,506.88 235.82,506.88 236.31,506.88 236.80,506.88 237.29,506.88 237.78,506.88 238.27,506.88 238.76,506.88 239.25,506.88 239.74,506.88 240.23,506.88 240.72,508.44 241.21,508.44 241.70,508.44 242.19,508.44 242.68,508.44 243.17,508.44 243.66,508.44 244.15,508.44 244.64,508.44 245.13,508.44 245.62,508.44 246.11,508.44 246.60,508.44 247.09,510.00 247.58,510.00 248.07,510.00 248.56,510.00 249.05,510.00 249.54,510.00 250.03,510.00 250.52,510.00 251.01,510.00 251.50,510.00 251.99,510.00 252.48,510.00 252.97,510.00 253.46,510.00 253.95,511.56 254.44,511.56 254.93,511.56 255.42,511.56 255.91,511.56 256.40,511.56 256.89,511.56 257.38,511.56 257.87,511.56 258.36,511.56 258.85,511.56 259.34,511.56 259.83,511.56 260.32,511.56 260.81,513.12 261.30,513.12 261.79,513.12 262.28,513.12 262.77,513.12 263.26,513.12 263.75,513.12 264.24,513.12 264.73,513.12 265.22,513.12 265.71,513.12 266.20,513.12 266.69,513.12 267.18,513.12 267.67,513.12 268.16,513.12 268.65,514.69 269.14,514.69 269.63,514.69 270.12,514.69 270.61,514.69 271.10,514.69 271.59,514.69 272.08,514.69 272.57,514.69 273.06,514.69 273.55,514.69 274.04,514.69 274.53,514.69 275.02,514.69 275.51,514.69 276.00,514.69 276.49,514.69 276.98,514.69 277.47,516.25 277.96,516.25 278.45,516.25 278.94,516.25 279.43,516.25 279.92,516.25 280.41,516.25 280.90,516.25 281.39,516.25 281.88,516.25 282.37,516.25 282.86,516.25 283.35,516.25 283.84,516.25 284.33,516.25 284.82,516.25 285.31,516.25 285.80,516.25 286.29,516.25 286.78,516.25 287.27,516.25 287.76,516.25 288.25,516.25 288.74,516.25 289.23,516.25 289.72,516.25 290.21,516.25 290.70,516.25 291.19,516.25 291.68,516.25 292.17,516.25 292.66,516.25 293.15,516.25 293.64,516.25 294.13,516.25 294.62,516.25 295.11,516.25 295.60,516.25 296.09,516.25 296.58,516.25 297.07,516.25 297.56,516.25 298.05,516.25 298.54,516.25 299.03,516.25 299.52,516.25 300.01,516.25 300.50,516.25 300.99,516.25 301.48,516.25 301.97,516.25 302.46,516.25 302.95,516.25 303.44,516.25 303.93,516.25 304.42,516.25 304.91,516.25 305.40,516.25 305.89,516.25 306.38,516.25 306.87,516.25 307.36,516.25 307.85,516.25 308.34,516.25 308.83,516.25 309.32,516.25 309.81,516.25 310.30,516.25 310.79,516.25 311.28,516.25 311.77,516.25 312.26,516.25 312.75,516.25 313.24,516.25 313.73,516.25 314.22,516.25 314.71,516.25 315.20,516.25 315.69,516.25 316.18,514.69 316.67,514.69 317.16,514.69 317.65,514.69 318.14,514.69 318.63,514.69 319.12,514.69 319.61,514.69 320.10,514.69 320.59,514.69 321.08,514.69 321.57,514.69 322.06,514.69 322.55,514.69 323.04,514.69 323.53,513.12 324.02,513.12 324.51,513.12 325.00,513.12 325.49,513.12 325.98,513.12 326.47,513.12 326.96,513.12 327.45,513.12 327.94,513.12 328.43,513.12 328.92,513.12 329.41,511.56 329.90,511.56 330.39,511.56 330.88,511.56 331.37,511.56 331.86,511.56 332.35,511.56 332.84,511.56 333.33,511.56 333.82,511.56 334.31,510.00 334.80,510.00 335.29,510.00 335.78,510.00 336.27,510.00 336.76,510.00 337.25,510.00 337.74,510.00 338.23,510.00 338.72,508.44 339.21,508.44 339.70,508.44 340.19,508.44 340.68,508.44 341.17,508.44 341.66,508.44 342.15,508.44 342.64,506.88 343.13,506.88 343.62,506.88 344.11,506.88 344.60,506.88 345.09,506.88 345.58,506.88 346.07,505.31 346.56,505.31 347.05,505.31 347.54,505.31 348.03,505.31 348.52,505.31 349.01,505.31 349.50,503.75 349.99,503.75 350.48,503.75 350.97,503.75 351.46,503.75 351.95,503.75 352.44,502.19 352.93,502.19 353.42,502.19 353.91,502.19 354.40,502.19 354.89,502.19 355.38,500.62 355.87,500.62 356.36,500.62 356.85,500.62 357.34,500.62 357.83,500.62 358.32,499.06 358.81,499.06 359.30,499.06 359.79,499.06 360.28,499.06 360.77,499.06 361.26,497.50 361.75,497.50 362.24,497.50 362.73,497.50 363.22,497.50 363.71,497.50 364.20,495.94 364.69,495.94 365.18,495.94 365.67,495.94 366.16,495.94 366.65,494.38 367.14,494.38 367.63,494.38 368.12,494.38 368.61,494.38 369.10,492.81 369.59,492.81 370.08,492.81 370.57,492.81 371.06,492.81 371.55,491.25 372.04,491.25 372.53,491.25 373.02,491.25 373.51,491.25 374.00,489.69 374.49,489.69 374.98,489.69 375.47,489.69 375.96,489.69 376.45,488.12 376.94,488.12 377.43,488.12 377.92,488.12 378.41,488.12 378.90,486.56 379.39,486.56 379.88,486.56 380.37,486.56 380.86,486.56 381.35,485.00 381.84,485.00 382.33,485.00 382.82,485.00 383.31,483.44 383.80,483.44 384.29,483.44 384.78,483.44 385.27,481.88 385.76,481.88 386.25,481.88 386.74,481.88 387.23,480.31 387.72,480.31 388.21,480.31 388.70,480.31 389.19,478.75 389.68,478.75 390.17,478.75 390.66,478.75 391.15,477.19 391.64,477.19 392.13,477.19 392.62,475.62 393.11,475.62 393.60,475.62 394.09,474.06 394.58,474.06 395.07,474.06 395.56,472.50 396.05,472.50 396.54,470.94 397.03,470.94 397.52,470.94 398.01,469.38 398.50,469.38 398.99,467.81 399.48,467.81 399.97,467.81 400.46,466.25 400.95,466.25 401.44,464.69 401.93,464.69 402.42,463.12 402.91,463.12 403.40,463.12 403.89,461.56 404.38,461.56 404.87,460.00 405.36,460.00 405.85,458.44 406.34,458.44 406.83,456.88 407.32,456.88 407.81,456.88 408.30,455.31 408.79,455.31 409.28,453.75 409.77,453.75 410.26,453.75 410.75,452.19 411.24,452.19 411.73,452.19 412.22,450.62 412.71,450.62 413.20,449.06 413.69,449.06 414.18,449.06 414.67,447.50 415.16,447.50 415.65,447.50 416.14,445.94 416.63,445.94 417.12,445.94 417.61,444.38 418.10,444.38 418.59,444.38 419.08,442.81 419.57,442.81 420.06,442.81 420.55,441.25 421.04,441.25 421.53,439.69 422.02,439.69 422.51,439.69 423.00,438.12 423.49,438.12 423.98,438.12 424.47,436.56 424.96,436.56 425.45,436.56 425.94,435.00 426.43,435.00 426.92,435.00 427.41,433.44 427.90,433.44 428.39,433.44 428.88,431.88 429.37,431.88 429.86,431.88 430.35,431.88 430.84,430.31 431.33,430.31 431.82,430.31 432.31,428.75 432.80,428.75 433.29,428.75 433.78,428.75 434.27,427.19 434.76,427.19 435.25,427.19 435.74,427.19 436.23,425.62 436.72,425.62 437.21,425.62 437.70,425.62 438.19,424.06 438.68,424.06 439.17,424.06 439.66,424.06 440.15,422.50 440.64,422.50 441.13,422.50 441.62,422.50 442.11,420.94 442.60,420.94 443.09,420.94 443.58,420.94 444.07,420.94 444.56,419.38 445.05,419.38 445.54,419.38 446.03,419.38 446.52,419.38 447.01,419.38 447.50,419.38 447.99,417.81 448.48,417.81 448.97,417.81 449.46,417.81 449.95,417.81 450.44,417.81 450.93,417.81 451.42,416.25 451.91,416.25 452.40,416.25 452.89,416.25 453.38,416.25 453.87,416.25 454.36,416.25 454.85,416.25 455.34,416.25 455.83,414.69 456.32,414.69 456.81,414.69 457.30,414.69 457.79,414.69 458.28,414.69 458.77,414.69 459.26,414.69 459.75,414.69 460.24,414.69 460.73,414.69 461.22,414.69 461.71,414.69 462.20,414.69 462.69,414.69 463.18,414.69 463.67,414.69 464.16,414.69 464.65,414.69 465.14,414.69 465.63,414.69 466.12,414.69 466.61,414.69 467.10,414.69 467.59,414.69 468.08,414.69 468.57,414.69 469.06,414.69 469.55,414.69 470.04,414.69 470.53,414.69 471.02,414.69 471.51,414.69 472.00,416.25 472.49,416.25 472.98,416.25 473.47,416.25 473.96,416.25 474.45,416.25 474.94,416.25 475.43,416.25 475.92,416.25 476.41,417.81 476.90,417.81 477.39,417.81 477.88,417.81 478.37,417.81 478.86,417.81 479.35,417.81 479.84,419.38 480.33,419.38 480.82,419.38 481.31,419.38 481.80,419.38 482.29,419.38 482.78,420.94 483.27,420.94 483.76,420.94 484.25,420.94 484.74,420.94 485.23,422.50 485.72,422.50 486.21,422.50 486.70,422.50 487.19,424.06 487.68,424.06 488.17,424.06 488.66,424.06 489.15,425.62 489.64,425.62 490.13,425.62 490.62,425.62 491.11,427.19 491.60,427.19 492.09,427.19 492.58,427.19 493.07,428.75 493.56,428.75 494.05,428.75 494.54,430.31 495.03,430.31 495.52,430.31 496.01,430.31 496.50,431.88 496.99,431.88 497.48,431.88 497.97,433.44 498.46,433.44 498.95,433.44 499.44,435.00 499.93,435.00 500.42,435.00 500.91,436.56 501.40,436.56 501.89,436.56 502.38,438.12 502.87,438.12 503.36,439.69 503.85,439.69 504.34,439.69 504.83,441.25 505.32,441.25 505.81,441.25 506.30,442.81 506.79,442.81 507.28,444.38 507.77,444.38 508.26,444.38 508.75,445.94 509.24,445.94 509.73,447.50 510.22,447.50 510.71,447.50 511.20,449.06 511.69,449.06 512.18,450.62 512.67,450.62 513.16,452.19 513.65,452.19 514.14,452.19 514.63,453.75 515.12,453.75 515.61,455.31 516.10,455.31 516.59,456.88 517.08,456.88 517.57,456.88 518.06,458.44 518.55,458.44 519.04,460.00 519.53,460.00 520.02,461.56 520.51,461.56 521.00,463.12 521.49,463.12 521.98,463.12 522.47,464.69 522.96,464.69 523.45,466.25 523.94,466.25 524.43,467.81 524.92,467.81 525.41,469.38 525.90,469.38 526.39,470.94 526.88,470.94 527.37,472.50 527.86,472.50 528.35,474.06 528.84,474.06 529.33,474.06 529.82,475.62 530.31,475.62 530.80,477.19 531.29,477.19 531.78,478.75 532.27,478.75 532.76,480.31 533.25,480.31 533.74,481.88 534.23,481.88 534.72,483.44 535.21,483.44 535.70,485.00 536.19,485.00 536.68,486.56 537.17,486.56 537.66,486.56 538.15,488.12 538.64,488.12 539.13,489.69 539.62,489.69 540.11,491.25 540.60,491.25 541.09,492.81 541.58,492.81 542.07,494.38 542.56,494.38 543.05,495.94 543.54,495.94 544.03,497.50 544.52,497.50 545.01,497.50 545.50,499.06 545.99,499.06 546.48,500.62 546.97,500.62 547.46,502.19 547.95,502.19 548.44,503.75 548.93,503.75 549.42,503.75 549.91,505.31 550.40,505.31 550.89,506.88 551.38,506.88 551.87,508.44 552.36,508.44 552.85,508.44 553.34,510.00 553.83,510.00 554.32,511.56 554.81,511.56 555.30,511.56 555.79,513.12 556.28,513.12 556.77,514.69 557.26,514.69 557.75,514.69 558.24,516.25 558.73,516.25 559.22,517.81 559.71,517.81 560.20,517.81 560.69,519.38 561.18,519.38 561.67,519.38 562.16,520.94 562.65,520.94 563.14,520.94 563.63,522.50 564.12,522.50 564.61,522.50 565.10,524.06 565.59,524.06 566.08,524.06 566.57,525.62 567.06,525.62 567.55,525.62 568.04,527.19 568.53,527.19 569.02,527.19 569.51,528.75 570.00,528.75 570.49,528.75 570.98,528.75 571.47,530.31 571.96,530.31 572.45,530.31 572.94,530.31 573.43,531.88 573.92,531.88 574.41,531.88 574.90,531.88 575.39,533.44 575.88,533.44 576.37,533.44 576.86,533.44 577.35,535.00 577.84,535.00 578.33,535.00 578.82,535.00 579.31,535.00 579.80,536.56 580.29,536.56 580.78,536.56 581.27,536.56 581.76,536.56 582.25,536.56 582.74,538.12 583.23,538.12 583.72,538.12 584.21,538.12 584.70,538.12 585.19,538.12 585.68,538.12 586.17,538.12 586.66,539.69 587.15,539.69 587.64,539.69 588.13,539.69 588.62,539.69 589.11,539.69 589.60,539.69 590.09,539.69 590.58,539.69 591.07,539.69 591.56,539.69 592.05,539.69 592.54,539.69 593.03,539.69 593.52,539.69 594.01,539.69 594.50,539.69 594.99,539.69 595.48,539.69 595.97,539.69 596.46,539.69 596.95,539.69 597.44,539.69 597.93,539.69 598.42,539.69 598.91,539.69 599.40,539.69 599.89,539.69 600.38,539.69 600.87,539.69 601.36,539.69 601.85,539.69 602.34,539.69 602.83,538.12 603.32,538.12 603.81,538.12 604.30,538.12 604.79,538.12 605.28,538.12 605.77,538.12 606.26,536.56 606.75,536.56 607.24,536.56 607.73,536.56 608.22,536.56 608.71,536.56 609.20,535.00 609.69,535.00 610.18,535.00 610.67,535.00 611.16,535.00 611.65,533.44 612.14,533.44 612.63,533.44 613.12,533.44 613.61,531.88 614.10,531.88 614.59,531.88 615.08,530.31 615.57,530.31 616.06,530.31 616.55,530.31 617.04,528.75 617.53,528.75 618.02,528.75 618.51,527.19 619.00,527.19 619.49,527.19 619.98,525.62 620.47,525.62 620.96,525.62 621.45,524.06 621.94,524.06 622.43,524.06 622.92,522.50 623.41,522.50 623.90,520.94 624.39,520.94 624.88,520.94 625.37,519.38 625.86,519.38 626.35,517.81 626.84,517.81 627.33,517.81 627.82,516.25 628.31,516.25 628.80,514.69 629.29,514.69 629.78,513.12 630.27,513.12 630.76,511.56 631.25,511.56 631.74,510.00 632.23,510.00 632.72,508.44 633.21,508.44 633.70,506.88 634.19,506.88 634.68,505.31 635.17,505.31 635.66,503.75 636.15,503.75 636.64,502.19 637.13,502.19 637.62,500.62 638.11,500.62 638.60,499.06 639.09,497.50 639.58,497.50 640.07,495.94 640.56,495.94 641.05,494.38 641.54,494.38 642.03,492.81 642.52,491.25 643.01,491.25 643.50,489.69 643.99,488.12 644.48,488.12 644.97,486.56 645.46,486.56 645.95,485.00 646.44,483.44 646.93,483.44 647.42,481.88 647.91,480.31 648.40,480.31 648.89,478.75 649.38,478.75 649.87,477.19 650.36,475.62 650.85,475.62 651.34,474.06 651.83,472.50 652.32,470.94 652.81,470.94 653.30,469.38 653.79,467.81 654.28,467.81 654.77,466.25 655.26,464.69 655.75,464.69 656.24,463.12 656.73,461.56 657.22,461.56 657.71,460.00 658.20,458.44 658.69,456.88 659.18,456.88 659.67,455.31 660.16,453.75 660.65,453.75 661.14,452.19 661.63,450.62 662.12,449.06 662.61,449.06 663.10,447.50 663.59,445.94 664.08,444.38 664.57,444.38 665.06,442.81 665.55,441.25 666.04,441.25 666.53,439.69 667.02,438.12 667.51,436.56 668.00,436.56 668.49,435.00 668.98,433.44 669.47,431.88 669.96,431.88 670.45,430.31 670.94,428.75 671.43,427.19 671.92,427.19 672.41,425.62 672.90,424.06 673.39,422.50 673.88,422.50 674.37,420.94 674.86,419.38 675.35,417.81 675.84,417.81 676.33,416.25 676.82,414.69 677.31,413.12 677.80,413.12 678.29,411.56 678.78,410.00 679.27,408.44 679.76,408.44 680.25,406.88 680.74,405.31 681.23,403.75 681.72,403.75 682.21,402.19 682.70,400.62 683.19,400.62 683.68,399.06 684.17,397.50 684.66,395.94 685.15,395.94 685.64,394.38 686.13,392.81 686.62,392.81 687.11,391.25 687.60,389.69 688.09,388.12 688.58,388.12 689.07,386.56 689.56,385.00 690.05,385.00 690.54,383.44 691.03,381.88 691.52,381.88 692.01,380.31 692.50,378.75 692.99,377.19 693.48,377.19 693.97,375.62 694.46,374.06 694.95,374.06 695.44,372.50 695.93,370.94 696.42,370.94 696.91,369.38 697.40,367.81 697.89,367.81 698.38,366.25 698.87,366.25 699.36,364.69 699.85,363.12 700.34,363.12 700.83,361.56 701.32,360.00 701.81,360.00 702.30,358.44 702.79,356.88 703.28,356.88 703.77,355.31 704.26,355.31 704.75,353.75 705.24,352.19 705.73,352.19 706.22,350.62 706.71,350.62 707.20,349.06 707.69,347.50 708.18,347.50 708.67,345.94 709.16,345.94 709.65,344.38 710.14,344.38 710.63,342.81 711.12,342.81 711.61,341.25 712.10,339.69 712.59,339.69 713.08,338.12 713.57,338.12 714.06,336.56 714.55,336.56 715.04,335.00 715.53,335.00 716.02,333.44 716.51,333.44 717.00,331.88 717.49,331.88 717.98,330.31 718.47,330.31 718.96,330.31 719.45,328.75 719.94,328.75 720.43,327.19 720.92,327.19 721.41,325.62 721.90,325.62 722.39,325.62 722.88,324.06 723.37,324.06 723.86,324.06 724.35,322.50 724.84,322.50 725.33,320.94 725.82,320.94 726.31,320.94 726.80,320.94 727.29,319.37 727.78,319.37 728.27,319.37 728.76,317.81 729.25,317.81 729.74,317.81 730.23,317.81 730.72,316.25 731.21,316.25 731.70,316.25 732.19,316.25 732.68,314.69 733.17,314.69 733.66,314.69 734.15,314.69 734.64,314.69 735.13,313.12 735.62,313.12 736.11,313.12 736.60,313.12 737.09,313.12 737.58,313.12 738.07,311.56 738.56,311.56 739.05,311.56 739.54,311.56 740.03,311.56 740.52,311.56 741.01,311.56 741.50,311.56 741.99,310.00 742.48,310.00 742.97,310.00 743.46,310.00 743.95,310.00 744.44,310.00 744.93,310.00 745.42,310.00 745.91,310.00 746.40,310.00 746.89,310.00 747.38,310.00 747.87,310.00 748.36,310.00 748.85,310.00 749.34,310.00 749.83,310.00 750.32,310.00 750.81,310.00 751.30,310.00 751.79,310.00 752.28,311.56 752.77,311.56 753.26,311.56 753.75,311.56 754.24,311.56 754.73,311.56 755.22,311.56 755.71,311.56 756.20,313.12 756.69,313.12 757.18,313.12 757.67,313.12 758.16,313.12 758.65,313.12 759.14,314.69 759.63,314.69 760.12,314.69 760.61,314.69 761.10,314.69 761.59,316.25 762.08,316.25 762.57,316.25 763.06,316.25 763.55,317.81 764.04,317.81 764.53,317.81 765.02,319.37 765.51,319.37 766.00,319.37 766.49,319.37 766.98,320.94 767.47,320.94 767.96,320.94 768.45,322.50 768.94,322.50 769.43,322.50 769.92,324.06 770.41,324.06 770.90,325.62 771.39,325.62 771.88,325.62 772.37,327.19 772.86,327.19 773.35,327.19 773.84,328.75 774.33,328.75 774.82,330.31 775.31,330.31 775.80,331.88 776.29,331.88 776.78,331.88 777.27,333.44 777.76,333.44 778.25,335.00 778.74,335.00 779.23,336.56 779.72,336.56 780.21,338.12 780.70,338.12 781.19,339.69 781.68,339.69 782.17,341.25 782.66,341.25 783.15,342.81 783.64,342.81 784.13,344.38 784.62,344.38 785.11,345.94 785.60,347.50 786.09,347.50 786.58,349.06 787.07,349.06 787.56,350.62 788.05,350.62 788.54,352.19 789.03,353.75 789.52,353.75 790.01,355.31 790.50,355.31 790.99,356.88 791.48,358.44 791.97,358.44 792.46,360.00 792.95,361.56 793.44,361.56 793.93,363.12 794.42,363.12 794.91,364.69 795.40,366.25 795.89,366.25 796.38,367.81 796.87,369.38 797.36,369.38 797.85,370.94 798.34,372.50 798.83,372.50 799.32,374.06 799.81,375.62 800.30,375.62 800.79,377.19 801.28,378.75 801.77,378.75 802.26,380.31 802.75,381.88 803.24,383.44 803.73,383.44 804.22,385.00 804.71,386.56 805.20,386.56 805.69,388.12 806.18,389.69 806.67,391.25 807.16,391.25 807.65,392.81 808.14,394.38 808.63,394.38 809.12,395.94 809.61,397.50 810.10,399.06 810.59,399.06 811.08,400.62 811.57,402.19 812.06,403.75 812.55,403.75 813.04,405.31 813.53,406.88 814.02,408.44 814.51,408.44 815.00,410.00 815.49,411.56 815.98,413.12 816.47,413.12 816.96,414.69 817.45,416.25 817.94,417.81 818.43,417.81 818.92,419.38 819.41,420.94 819.90,422.50 820.39,422.50 820.88,424.06 821.37,425.62 821.86,427.19 822.35,427.19 822.84,428.75 823.33,430.31 823.82,431.88 824.31,431.88 824.80,433.44 825.29,435.00 825.78,436.56 826.27,436.56 826.76,438.12 827.25,439.69 827.74,441.25 828.23,441.25 828.72,442.81 829.21,444.38 829.70,445.94 830.19,445.94 830.68,447.50 831.17,449.06 831.66,450.62 832.15,450.62 832.64,452.19 833.13,453.75 833.62,455.31 834.11,455.31 834.60,456.88 835.09,458.44 835.58,458.44 836.07,460.00 836.56,461.56 837.05,463.12 837.54,463.12 838.03,464.69 838.52,466.25 839.01,466.25 839.50,467.81 839.99,469.38 840.48,469.38 840.97,470.94 841.46,472.50 841.95,472.50 842.44,474.06 842.93,475.62 843.42,475.62 843.91,477.19 844.40,478.75 844.89,478.75 845.38,480.31 845.87,481.88 846.36,481.88 846.85,483.44 847.34,485.00 847.83,485.00 848.32,486.56 848.81,486.56 849.30,488.12 849.79,489.69 850.28,489.69 850.77,491.25 851.26,491.25 851.75,492.81 852.24,494.38 852.73,494.38 853.22,495.94 853.71,495.94 854.20,497.50 854.69,499.06 855.18,499.06 855.67,500.62 856.16,500.62 856.65,502.19 857.14,502.19 857.63,503.75 858.12,503.75 858.61,505.31 859.10,505.31 859.59,506.88 860.08,506.88 860.57,508.44 861.06,508.44 861.55,510.00 862.04,510.00 862.53,511.56 863.02,511.56 863.51,513.12 864.00,513.12 864.49,513.12 864.98,514.69 865.47,514.69 865.96,516.25 866.45,516.25 866.94,517.81 867.43,517.81 867.92,517.81 868.41,519.38 868.90,519.38 869.39,519.38 869.88,520.94 870.37,520.94 870.86,520.94 871.35,522.50 871.84,522.50 872.33,522.50 872.82,524.06 873.31,524.06 873.80,524.06 874.29,525.62 874.78,525.62 875.27,525.62 875.76,527.19 876.25,527.19 876.74,527.19 877.23,527.19 877.72,528.75 878.21,528.75 878.70,528.75 879.19,528.75 879.68,528.75 880.17,530.31 880.66,530.31 881.15,530.31 881.64,530.31 882.13,530.31 882.62,530.31 883.11,531.88 883.60,531.88 884.09,531.88 884.58,531.88 885.07,531.88 885.56,531.88 886.05,531.88 886.54,531.88 887.03,533.44 887.52,533.44 888.01,533.44 888.50,533.44 888.99,533.44 889.48,533.44 889.97,533.44 890.46,533.44 890.95,533.44 891.44,533.44 891.93,533.44 892.42,533.44 892.91,533.44 893.40,533.44 893.89,533.44 894.38,533.44 894.87,533.44 895.36,533.44 895.85,533.44 896.34,533.44 896.83,531.88 897.32,531.88 897.81,531.88 898.30,531.88 898.79,531.88 899.28,531.88 899.77,531.88 900.26,531.88 900.75,530.31 901.24,530.31 901.73,530.31 902.22,530.31 902.71,530.31 903.20,530.31 903.69,528.75 904.18,528.75 904.67,528.75 905.16,528.75 905.65,527.19 906.14,527.19 906.63,527.19 907.12,527.19 907.61,525.62 908.10,525.62 908.59,525.62 909.08,525.62 909.57,524.06 910.06,524.06 910.55,524.06 911.04,522.50 911.53,522.50 912.02,522.50 912.51,520.94 913.00,520.94 913.49,519.38 913.98,519.38 914.47,519.38 914.96,517.81 915.45,517.81 915.94,516.25 916.43,516.25 916.92,516.25 917.41,514.69 917.90,514.69 918.39,513.12 918.88,513.12 919.37,511.56 919.86,511.56 920.35,510.00 920.84,510.00 921.33,508.44 921.82,508.44 922.31,506.88 922.80,506.88 923.29,505.31 923.78,505.31 924.27,503.75 924.76,503.75 925.25,502.19 925.74,502.19 926.23,500.62 926.72,499.06 927.21,499.06 927.70,497.50 928.19,497.50 928.68,495.94 929.17,494.38 929.66,494.38 930.15,492.81 930.64,492.81 931.13,491.25 931.62,489.69 932.11,489.69 932.60,488.12 933.09,486.56 933.58,486.56 934.07,485.00 934.56,483.44 935.05,483.44 935.54,481.88 936.03,480.31 936.52,478.75 937.01,478.75 937.50,477.19 937.99,475.62 938.48,474.06 938.97,474.06 939.46,472.50 939.95,470.94 940.44,470.94 940.93,469.38 941.42,467.81 941.91,466.25 942.40,464.69 942.89,464.69 943.38,463.12 943.87,461.56 944.36,460.00 944.85,458.44 945.34,458.44 945.83,456.88 946.32,455.31 946.81,453.75 947.30,452.19 947.79,452.19 948.28,450.62 948.77,449.06 949.26,447.50 949.75,445.94 950.24,444.38 950.73,442.81 951.22,442.81 951.71,441.25 952.20,439.69 952.69,438.12 953.18,436.56 953.67,435.00 954.16,433.44 954.65,431.88 955.14,431.88 955.63,430.31 956.12,428.75 956.61,427.19 957.10,425.62 957.59,424.06 958.08,422.50 958.57,420.94 959.06,419.38 959.55,417.81 960.04,417.81 960.53,416.25 961.02,414.69 961.51,413.12 962.00,411.56 962.49,410.00 962.98,408.44 963.47,406.88 963.96,405.31 964.45,403.75 964.94,402.19 965.43,400.62 965.92,399.06 966.41,397.50 966.90,397.50 967.39,395.94 967.88,394.38 968.37,392.81 968.86,391.25 969.35,389.69 969.84,388.12 970.33,386.56 970.82,385.00 971.31,383.44 971.80,381.88 972.29,380.31 972.78,378.75 973.27,377.19 973.76,375.62 974.25,374.06 974.74,372.50 975.23,372.50 975.72,370.94 976.21,369.38 976.70,367.81 977.19,366.25 977.68,364.69 978.17,363.12 978.66,361.56 979.15,360.00 979.64,358.44 980.13,356.88 980.62,355.31 981.11,353.75 981.60,352.19 982.09,350.62 982.58,349.06 983.07,349.06 983.56,347.50 984.05,345.94 984.54,344.38 985.03,342.81 985.52,341.25 986.01,339.69 986.50,338.12 986.99,336.56 987.48,335.00 987.97,333.44 988.46,333.44 988.95,331.88 989.44,330.31 989.93,328.75 990.42,327.19 990.91,325.62 991.40,324.06 991.89,322.50 992.38,322.50 992.87,320.94 993.36,319.37 993.85,317.81 994.34,316.25 994.83,314.69 995.32,313.12 995.81,313.12 996.30,311.56 996.79,310.00 997.28,308.44 997.77,306.87 998.26,305.31 998.75,305.31 999.24,303.75 999.73,302.19 1000.22,300.62 1000.71,299.06 1001.20,299.06 1001.69,297.50 1002.18,295.94 1002.67,294.38 1003.16,292.81 1003.65,292.81 1004.14,291.25 1004.63,289.69 1005.12,288.12 1005.61,288.12 1006.10,286.56 1006.59,285.00 1007.08,283.44 1007.57,283.44 1008.06,281.87 1008.55,280.31 1009.04,280.31 1009.53,278.75 1010.02,277.19 1010.51,275.62 1011.00,275.62 1011.49,274.06 1011.98,272.50 1012.47,272.50 1012.96,270.94 1013.45,269.37 1013.94,269.37 1014.43,267.81 1014.92,267.81 1015.41,266.25 1015.90,264.69 1016.39,264.69 1016.88,263.12 1017.37,263.12 1017.86,261.56 1018.35,260.00 1018.84,260.00 1019.33,258.44 1019.82,258.44 1020.31,256.87 1020.80,256.87 1021.29,255.31 1021.78,253.75 1022.27,253.75 1022.76,252.19 1023.25,252.19 1023.74,250.62 1024.23,250.62 1024.72,249.06 1025.21,249.06 1025.70,249.06 1026.19,247.50 1026.68,247.50 1027.17,245.94 1027.66,245.94 1028.15,244.37 1028.64,244.37 1029.13,244.37 1029.62,242.81 1030.11,242.81 1030.60,241.25 1031.09,241.25 1031.58,241.25 1032.07,239.69 1032.56,239.69 1033.05,239.69 1033.54,238.13 1034.03,238.13 1034.52,238.13 1035.01,236.56 1035.50,236.56 1035.99,236.56 1036.48,236.56 1036.97,235.00 1037.46,235.00 1037.95,235.00 1038.44,235.00 1038.93,233.44 1039.42,233.44 1039.91,233.44 1040.40,233.44 1040.89,233.44 1041.38,231.87 1041.87,231.87 1042.36,231.87 1042.85,231.87 1043.34,231.87 1043.83,231.87 1044.32,231.87 1044.81,230.31 1045.30,230.31 1045.79,230.31 1046.28,230.31 1046.77,230.31 1047.26,230.31 1047.75,230.31 1048.24,230.31 1048.73,230.31 1049.22,230.31 1049.71,230.31 1050.20,230.31 1050.69,230.31 1051.18,230.31 1051.67,230.31 1052.16,230.31 1052.65,230.31 1053.14,230.31 1053.63,230.31 1054.12,230.31 1054.61,230.31 1055.10,230.31 1055.59,231.87 1056.08,231.87 1056.57,231.87 1057.06,231.87 1057.55,231.87 1058.04,231.87 1058.53,231.87 1059.02,233.44 1059.51,233.44 1060.00,233.44" fill="none" stroke="#2563eb" stroke-width="2.2" stroke-linejoin="round" stroke-linecap="round"/>
<rect x="880" y="90" width="18" height="4" fill="#2563eb"/>
<text x="904" y="95" font-family="Arial, sans-serif" font-size="15" fill="#111827">PE (J)</text>
<polyline points="80.00,567.81 80.49,567.81 80.98,567.81 81.47,567.81 81.96,566.25 82.45,566.25 82.94,566.25 83.43,564.69 83.92,564.69 84.41,564.69 84.90,563.12 85.39,563.12 85.88,561.56 86.37,560.00 86.86,560.00 87.35,558.44 87.84,556.88 88.33,556.88 88.82,555.31 89.31,553.75 89.80,553.75 90.29,552.19 90.78,550.62 91.27,550.62 91.76,549.06 92.25,549.06 92.74,547.50 93.23,545.94 93.72,545.94 94.21,544.38 94.70,544.38 95.19,542.81 95.68,541.25 96.17,541.25 96.66,539.69 97.15,539.69 97.64,538.12 98.13,538.12 98.62,536.56 99.11,536.56 99.60,535.00 100.09,533.44 100.58,533.44 101.07,531.88 101.56,531.88 102.05,530.31 102.54,530.31 103.03,528.75 103.52,527.19 104.01,527.19 104.50,525.62 104.99,525.62 105.48,524.06 105.97,524.06 106.46,522.50 106.95,520.94 107.44,520.94 107.93,519.38 108.42,519.38 108.91,517.81 109.40,517.81 109.89,516.25 110.38,516.25 110.87,514.69 111.36,514.69 111.85,513.12 112.34,513.12 112.83,511.56 113.32,511.56 113.81,510.00 114.30,510.00 114.79,508.44 115.28,508.44 115.77,506.88 116.26,506.88 116.75,505.31 117.24,505.31 117.73,503.75 118.22,503.75 118.71,502.19 119.20,502.19 119.69,500.62 120.18,500.62 120.67,499.06 121.16,499.06 121.65,497.50 122.14,497.50 122.63,495.94 123.12,495.94 123.61,494.38 124.10,494.38 124.59,494.38 125.08,492.81 125.57,492.81 126.06,491.25 126.55,491.25 127.04,489.69 127.53,489.69 128.02,488.12 128.51,488.12 129.00,488.12 129.49,486.56 129.98,486.56 130.47,485.00 130.96,485.00 131.45,485.00 131.94,483.44 132.43,483.44 132.92,481.88 133.41,481.88 133.90,481.88 134.39,480.31 134.88,480.31 135.37,478.75 135.86,478.75 136.35,478.75 136.84,477.19 137.33,477.19 137.82,477.19 138.31,475.62 138.80,475.62 139.29,474.06 139.78,474.06 140.27,474.06 140.76,472.50 141.25,472.50 141.74,472.50 142.23,470.94 142.72,470.94 143.21,470.94 143.70,469.38 144.19,469.38 144.68,469.38 145.17,467.81 145.66,467.81 146.15,467.81 146.64,467.81 147.13,466.25 147.62,466.25 148.11,466.25 148.60,464.69 149.09,464.69 149.58,464.69 150.07,463.12 150.56,463.12 151.05,463.12 151.54,463.12 152.03,461.56 152.52,461.56 153.01,461.56 153.50,461.56 153.99,460.00 154.48,460.00 154.97,460.00 155.46,460.00 155.95,458.44 156.44,458.44 156.93,458.44 157.42,458.44 157.91,456.88 158.40,456.88 158.89,456.88 159.38,456.88 159.87,456.88 160.36,455.31 160.85,455.31 161.34,455.31 161.83,455.31 162.32,455.31 162.81,453.75 163.30,453.75 163.79,453.75 164.28,453.75 164.77,453.75 165.26,452.19 165.75,452.19 166.24,452.19 166.73,452.19 167.22,452.19 167.71,452.19 168.20,450.62 168.69,450.62 169.18,450.62 169.67,450.62 170.16,450.62 170.65,450.62 171.14,450.62 171.63,449.06 172.12,449.06 172.61,449.06 173.10,449.06 173.59,449.06 174.08,449.06 174.57,449.06 175.06,449.06 175.55,449.06 176.04,447.50 176.53,447.50 177.02,447.50 177.51,447.50 178.00,447.50 178.49,447.50 178.98,447.50 179.47,447.50 179.96,447.50 180.45,447.50 180.94,447.50 181.43,447.50 181.92,445.94 182.41,445.94 182.90,445.94 183.39,445.94 183.88,445.94 184.37,445.94 184.86,445.94 185.35,445.94 185.84,445.94 186.33,445.94 186.82,445.94 187.31,445.94 187.80,445.94 188.29,445.94 188.78,445.94 189.27,445.94 189.76,445.94 190.25,445.94 190.74,445.94 191.23,445.94 191.72,445.94 192.21,445.94 192.70,445.94 193.19,445.94 193.68,445.94 194.17,445.94 194.66,445.94 195.15,445.94 195.64,445.94 196.13,445.94 196.62,445.94 197.11,445.94 197.60,445.94 198.09,445.94 198.58,445.94 199.07,445.94 199.56,445.94 200.05,445.94 200.54,445.94 201.03,445.94 201.52,445.94 202.01,445.94 202.50,445.94 202.99,445.94 203.48,445.94 203.97,445.94 204.46,447.50 204.95,447.50 205.44,447.50 205.93,447.50 206.42,447.50 206.91,447.50 207.40,447.50 207.89,447.50 208.38,447.50 208.87,447.50 209.36,447.50 209.85,447.50 210.34,447.50 210.83,447.50 211.32,449.06 211.81,449.06 212.30,449.06 212.79,449.06 213.28,449.06 213.77,449.06 214.26,449.06 214.75,449.06 215.24,449.06 215.73,449.06 216.22,449.06 216.71,450.62 217.20,450.62 217.69,450.62 218.18,450.62 218.67,450.62 219.16,450.62 219.65,450.62 220.14,450.62 220.63,450.62 221.12,450.62 221.61,452.19 222.10,452.19 222.59,452.19 223.08,452.19 223.57,452.19 224.06,452.19 224.55,452.19 225.04,452.19 225.53,452.19 226.02,453.75 226.51,453.75 227.00,453.75 227.49,453.75 227.98,453.75 228.47,453.75 228.96,453.75 229.45,453.75 229.94,455.31 230.43,455.31 230.92,455.31 231.41,455.31 231.90,455.31 232.39,455.31 232.88,455.31 233.37,455.31 233.86,456.88 234.35,456.88 234.84,456.88 235.33,456.88 235.82,456.88 236.31,456.88 236.80,456.88 237.29,456.88 237.78,458.44 238.27,458.44 238.76,458.44 239.25,458.44 239.74,458.44 240.23,458.44 240.72,458.44 241.21,458.44 241.70,460.00 242.19,460.00 242.68,460.00 243.17,460.00 243.66,460.00 244.15,460.00 244.64,460.00 245.13,461.56 245.62,461.56 246.11,461.56 246.60,461.56 247.09,461.56 247.58,461.56 248.07,461.56 248.56,461.56 249.05,463.12 249.54,463.12 250.03,463.12 250.52,463.12 251.01,463.12 251.50,463.12 251.99,463.12 252.48,463.12 252.97,463.12 253.46,464.69 253.95,464.69 254.44,464.69 254.93,464.69 255.42,464.69 255.91,464.69 256.40,464.69 256.89,464.69 257.38,464.69 257.87,466.25 258.36,466.25 258.85,466.25 259.34,466.25 259.83,466.25 260.32,466.25 260.81,466.25 261.30,466.25 261.79,466.25 262.28,466.25 262.77,467.81 263.26,467.81 263.75,467.81 264.24,467.81 264.73,467.81 265.22,467.81 265.71,467.81 266.20,467.81 266.69,467.81 267.18,467.81 267.67,467.81 268.16,467.81 268.65,469.38 269.14,469.38 269.63,469.38 270.12,469.38 270.61,469.38 271.10,469.38 271.59,469.38 272.08,469.38 272.57,469.38 273.06,469.38 273.55,469.38 274.04,469.38 274.53,469.38 275.02,469.38 275.51,469.38 276.00,469.38 276.49,469.38 276.98,470.94 277.47,470.94 277.96,470.94 278.45,470.94 278.94,470.94 279.43,470.94 279.92,470.94 280.41,470.94 280.90,470.94 281.39,470.94 281.88,470.94 282.37,470.94 282.86,470.94 283.35,470.94 283.84,470.94 284.33,470.94 284.82,470.94 285.31,470.94 285.80,470.94 286.29,470.94 286.78,470.94 287.27,470.94 287.76,470.94 288.25,470.94 288.74,470.94 289.23,470.94 289.72,470.94 290.21,470.94 290.70,470.94 291.19,470.94 291.68,470.94 292.17,470.94 292.66,470.94 293.15,470.94 293.64,470.94 294.13,469.38 294.62,469.38 295.11,469.38 295.60,469.38 296.09,469.38 296.58,469.38 297.07,469.38 297.56,469.38 298.05,469.38 298.54,469.38 299.03,469.38 299.52,469.38 300.01,469.38 300.50,469.38 300.99,469.38 301.48,469.38 301.97,467.81 302.46,467.81 302.95,467.81 303.44,467.81 303.93,467.81 304.42,467.81 304.91,467.81 305.40,467.81 305.89,467.81 306.38,467.81 306.87,466.25 307.36,466.25 307.85,466.25 308.34,466.25 308.83,466.25 309.32,466.25 309.81,466.25 310.30,466.25 310.79,464.69 311.28,464.69 311.77,464.69 312.26,464.69 312.75,464.69 313.24,464.69 313.73,464.69 314.22,463.12 314.71,463.12 315.20,463.12 315.69,463.12 316.18,463.12 316.67,463.12 317.16,461.56 317.65,461.56 318.14,461.56 318.63,461.56 319.12,461.56 319.61,461.56 320.10,460.00 320.59,460.00 321.08,460.00 321.57,460.00 322.06,460.00 322.55,458.44 323.04,458.44 323.53,458.44 324.02,458.44 324.51,458.44 325.00,456.88 325.49,456.88 325.98,456.88 326.47,456.88 326.96,455.31 327.45,455.31 327.94,455.31 328.43,455.31 328.92,453.75 329.41,453.75 329.90,453.75 330.39,453.75 330.88,453.75 331.37,452.19 331.86,452.19 332.35,452.19 332.84,452.19 333.33,450.62 333.82,450.62 334.31,450.62 334.80,449.06 335.29,449.06 335.78,449.06 336.27,449.06 336.76,447.50 337.25,447.50 337.74,447.50 338.23,447.50 338.72,445.94 339.21,445.94 339.70,445.94 340.19,444.38 340.68,444.38 341.17,444.38 341.66,442.81 342.15,442.81 342.64,442.81 343.13,442.81 343.62,441.25 344.11,441.25 344.60,441.25 345.09,439.69 345.58,439.69 346.07,439.69 346.56,438.12 347.05,438.12 347.54,438.12 348.03,436.56 348.52,436.56 349.01,436.56 349.50,435.00 349.99,435.00 350.48,435.00 350.97,433.44 351.46,433.44 351.95,433.44 352.44,431.88 352.93,431.88 353.42,431.88 353.91,430.31 354.40,430.31 354.89,430.31 355.38,428.75 355.87,428.75 356.36,427.19 356.85,427.19 357.34,427.19 357.83,425.62 358.32,425.62 358.81,425.62 359.30,424.06 359.79,424.06 360.28,424.06 360.77,422.50 361.26,422.50 361.75,420.94 362.24,420.94 362.73,420.94 363.22,419.38 363.71,419.38 364.20,419.38 364.69,417.81 365.18,417.81 365.67,416.25 366.16,416.25 366.65,416.25 367.14,414.69 367.63,414.69 368.12,413.12 368.61,413.12 369.10,413.12 369.59,411.56 370.08,411.56 370.57,410.00 371.06,410.00 371.55,410.00 372.04,408.44 372.53,408.44 373.02,406.88 373.51,406.88 374.00,406.88 374.49,405.31 374.98,405.31 375.47,403.75 375.96,403.75 376.45,403.75 376.94,402.19 377.43,402.19 377.92,400.62 378.41,400.62 378.90,400.62 379.39,399.06 379.88,399.06 380.37,397.50 380.86,397.50 381.35,397.50 381.84,395.94 382.33,395.94 382.82,394.38 383.31,394.38 383.80,394.38 384.29,392.81 384.78,392.81 385.27,391.25 385.76,391.25 386.25,391.25 386.74,389.69 387.23,389.69 387.72,388.12 388.21,388.12 388.70,386.56 389.19,386.56 389.68,386.56 390.17,385.00 390.66,385.00 391.15,383.44 391.64,383.44 392.13,383.44 392.62,381.88 393.11,381.88 393.60,380.31 394.09,380.31 394.58,380.31 395.07,378.75 395.56,378.75 396.05,377.19 396.54,377.19 397.03,377.19 397.52,375.62 398.01,375.62 398.50,374.06 398.99,374.06 399.48,372.50 399.97,372.50 400.46,372.50 400.95,370.94 401.44,370.94 401.93,369.38 402.42,369.38 402.91,369.38 403.40,367.81 403.89,367.81 404.38,366.25 404.87,366.25 405.36,366.25 405.85,364.69 406.34,364.69 406.83,363.12 407.32,363.12 407.81,363.12 408.30,361.56 408.79,361.56 409.28,360.00 409.77,360.00 410.26,360.00 410.75,358.44 411.24,358.44 411.73,356.88 412.22,356.88 412.71,356.88 413.20,355.31 413.69,355.31 414.18,353.75 414.67,353.75 415.16,353.75 415.65,352.19 416.14,352.19 416.63,350.62 417.12,350.62 417.61,350.62 418.10,349.06 418.59,349.06 419.08,349.06 419.57,347.50 420.06,347.50 420.55,345.94 421.04,345.94 421.53,345.94 422.02,344.38 422.51,344.38 423.00,344.38 423.49,342.81 423.98,342.81 424.47,342.81 424.96,341.25 425.45,341.25 425.94,341.25 426.43,339.69 426.92,339.69 427.41,338.12 427.90,338.12 428.39,338.12 428.88,336.56 429.37,336.56 429.86,336.56 430.35,335.00 430.84,335.00 431.33,335.00 431.82,333.44 432.31,333.44 432.80,333.44 433.29,331.88 433.78,331.88 434.27,331.88 434.76,331.88 435.25,330.31 435.74,330.31 436.23,330.31 436.72,328.75 437.21,328.75 437.70,328.75 438.19,327.19 438.68,327.19 439.17,327.19 439.66,327.19 440.15,325.62 440.64,325.62 441.13,325.62 441.62,324.06 442.11,324.06 442.60,324.06 443.09,324.06 443.58,322.50 444.07,322.50 444.56,322.50 445.05,322.50 445.54,320.94 446.03,320.94 446.52,320.94 447.01,320.94 447.50,319.37 447.99,319.37 448.48,319.37 448.97,319.37 449.46,317.81 449.95,317.81 450.44,317.81 450.93,317.81 451.42,317.81 451.91,316.25 452.40,316.25 452.89,316.25 453.38,316.25 453.87,316.25 454.36,314.69 454.85,314.69 455.34,314.69 455.83,314.69 456.32,314.69 456.81,313.12 457.30,313.12 457.79,313.12 458.28,313.12 458.77,313.12 459.26,313.12 459.75,311.56 460.24,311.56 460.73,311.56 461.22,311.56 461.71,311.56 462.20,311.56 462.69,311.56 463.18,310.00 463.67,310.00 464.16,310.00 464.65,310.00 465.14,310.00 465.63,310.00 466.12,310.00 466.61,310.00 467.10,308.44 467.59,308.44 468.08,308.44 468.57,308.44 469.06,308.44 469.55,308.44 470.04,308.44 470.53,308.44 471.02,308.44 471.51,308.44 472.00,308.44 472.49,308.44 472.98,308.44 473.47,308.44 473.96,306.87 474.45,306.87 474.94,306.87 475.43,306.87 475.92,306.87 476.41,306.87 476.90,306.87 477.39,306.87 477.88,306.87 478.37,306.87 478.86,306.87 479.35,306.87 479.84,306.87 480.33,306.87 480.82,306.87 481.31,306.87 481.80,306.87 482.29,306.87 482.78,306.87 483.27,306.87 483.76,306.87 484.25,306.87 484.74,306.87 485.23,306.87 485.72,306.87 486.21,308.44 486.70,308.44 487.19,308.44 487.68,308.44 488.17,308.44 488.66,308.44 489.15,308.44 489.64,308.44 490.13,308.44 490.62,308.44 491.11,308.44 491.60,308.44 492.09,308.44 492.58,310.00 493.07,310.00 493.56,310.00 494.05,310.00 494.54,310.00 495.03,310.00 495.52,310.00 496.01,310.00 496.50,310.00 496.99,311.56 497.48,311.56 497.97,311.56 498.46,311.56 498.95,311.56 499.44,311.56 499.93,311.56 500.42,313.12 500.91,313.12 501.40,313.12 501.89,313.12 502.38,313.12 502.87,313.12 503.36,314.69 503.85,314.69 504.34,314.69 504.83,314.69 505.32,314.69 505.81,316.25 506.30,316.25 506.79,316.25 507.28,316.25 507.77,316.25 508.26,317.81 508.75,317.81 509.24,317.81 509.73,317.81 510.22,317.81 510.71,319.37 511.20,319.37 511.69,319.37 512.18,319.37 512.67,320.94 513.16,320.94 513.65,320.94 514.14,320.94 514.63,322.50 515.12,322.50 515.61,322.50 516.10,322.50 516.59,324.06 517.08,324.06 517.57,324.06 518.06,324.06 518.55,325.62 519.04,325.62 519.53,325.62 520.02,327.19 520.51,327.19 521.00,327.19 521.49,327.19 521.98,328.75 522.47,328.75 522.96,328.75 523.45,330.31 523.94,330.31 524.43,330.31 524.92,331.88 525.41,331.88 525.90,331.88 526.39,331.88 526.88,333.44 527.37,333.44 527.86,333.44 528.35,335.00 528.84,335.00 529.33,335.00 529.82,336.56 530.31,336.56 530.80,336.56 531.29,338.12 531.78,338.12 532.27,338.12 532.76,339.69 533.25,339.69 533.74,339.69 534.23,341.25 534.72,341.25 535.21,341.25 535.70,342.81 536.19,342.81 536.68,344.38 537.17,344.38 537.66,344.38 538.15,345.94 538.64,345.94 539.13,345.94 539.62,347.50 540.11,347.50 540.60,347.50 541.09,349.06 541.58,349.06 542.07,350.62 542.56,350.62 543.05,350.62 543.54,352.19 544.03,352.19 544.52,352.19 545.01,353.75 545.50,353.75 545.99,353.75 546.48,355.31 546.97,355.31 547.46,356.88 547.95,356.88 548.44,356.88 548.93,358.44 549.42,358.44 549.91,358.44 550.40,360.00 550.89,360.00 551.38,361.56 551.87,361.56 552.36,361.56 552.85,363.12 553.34,363.12 553.83,364.69 554.32,364.69 554.81,364.69 555.30,366.25 555.79,366.25 556.28,366.25 556.77,367.81 557.26,367.81 557.75,369.38 558.24,369.38 558.73,369.38 559.22,370.94 559.71,370.94 560.20,370.94 560.69,372.50 561.18,372.50 561.67,374.06 562.16,374.06 562.65,374.06 563.14,375.62 563.63,375.62 564.12,375.62 564.61,377.19 565.10,377.19 565.59,378.75 566.08,378.75 566.57,378.75 567.06,380.31 567.55,380.31 568.04,380.31 568.53,381.88 569.02,381.88 569.51,381.88 570.00,383.44 570.49,383.44 570.98,383.44 571.47,385.00 571.96,385.00 572.45,386.56 572.94,386.56 573.43,386.56 573.92,388.12 574.41,388.12 574.90,388.12 575.39,389.69 575.88,389.69 576.37,389.69 576.86,391.25 577.35,391.25 577.84,391.25 578.33,392.81 578.82,392.81 579.31,392.81 579.80,394.38 580.29,394.38 580.78,394.38 581.27,394.38 581.76,395.94 582.25,395.94 582.74,395.94 583.23,397.50 583.72,397.50 584.21,397.50 584.70,399.06 585.19,399.06 585.68,399.06 586.17,399.06 586.66,400.62 587.15,400.62 587.64,400.62 588.13,402.19 588.62,402.19 589.11,402.19 589.60,402.19 590.09,403.75 590.58,403.75 591.07,403.75 591.56,403.75 592.05,405.31 592.54,405.31 593.03,405.31 593.52,405.31 594.01,406.88 594.50,406.88 594.99,406.88 595.48,406.88 595.97,406.88 596.46,408.44 596.95,408.44 597.44,408.44 597.93,408.44 598.42,410.00 598.91,410.00 599.40,410.00 599.89,410.00 600.38,410.00 600.87,411.56 601.36,411.56 601.85,411.56 602.34,411.56 602.83,411.56 603.32,411.56 603.81,413.12 604.30,413.12 604.79,413.12 605.28,413.12 605.77,413.12 606.26,413.12 606.75,413.12 607.24,414.69 607.73,414.69 608.22,414.69 608.71,414.69 609.20,414.69 609.69,414.69 610.18,414.69 610.67,414.69 611.16,416.25 611.65,416.25 612.14,416.25 612.63,416.25 613.12,416.25 613.61,416.25 614.10,416.25 614.59,416.25 615.08,416.25 615.57,416.25 616.06,416.25 616.55,416.25 617.04,416.25 617.53,416.25 618.02,416.25 618.51,416.25 619.00,417.81 619.49,417.81 619.98,417.81 620.47,417.81 620.96,417.81 621.45,417.81 621.94,417.81 622.43,417.81 622.92,417.81 623.41,417.81 623.90,417.81 624.39,417.81 624.88,417.81 625.37,416.25 625.86,416.25 626.35,416.25 626.84,416.25 627.33,416.25 627.82,416.25 628.31,416.25 628.80,416.25 629.29,416.25 629.78,416.25 630.27,416.25 630.76,416.25 631.25,416.25 631.74,416.25 632.23,416.25 632.72,414.69 633.21,414.69 633.70,414.69 634.19,414.69 634.68,414.69 635.17,414.69 635.66,414.69 636.15,414.69 636.64,413.12 637.13,413.12 637.62,413.12 638.11,413.12 638.60,413.12 639.09,413.12 639.58,413.12 640.07,411.56 640.56,411.56 641.05,411.56 641.54,411.56 642.03,411.56 642.52,410.00 643.01,410.00 643.50,410.00 643.99,410.00 644.48,410.00 644.97,408.44 645.46,408.44 645.95,408.44 646.44,408.44 646.93,406.88 647.42,406.88 647.91,406.88 648.40,406.88 648.89,405.31 649.38,405.31 649.87,405.31 650.36,405.31 650.85,403.75 651.34,403.75 651.83,403.75 652.32,402.19 652.81,402.19 653.30,402.19 653.79,402.19 654.28,400.62 654.77,400.62 655.26,400.62 655.75,399.06 656.24,399.06 656.73,399.06 657.22,397.50 657.71,397.50 658.20,397.50 658.69,395.94 659.18,395.94 659.67,395.94 660.16,394.38 660.65,394.38 661.14,394.38 661.63,392.81 662.12,392.81 662.61,391.25 663.10,391.25 663.59,391.25 664.08,389.69 664.57,389.69 665.06,388.12 665.55,388.12 666.04,388.12 666.53,386.56 667.02,386.56 667.51,385.00 668.00,385.00 668.49,385.00 668.98,383.44 669.47,383.44 669.96,381.88 670.45,381.88 670.94,380.31 671.43,380.31 671.92,378.75 672.41,378.75 672.90,378.75 673.39,377.19 673.88,377.19 674.37,375.62 674.86,375.62 675.35,374.06 675.84,374.06 676.33,372.50 676.82,372.50 677.31,370.94 677.80,370.94 678.29,369.38 678.78,369.38 679.27,367.81 679.76,367.81 680.25,366.25 680.74,366.25 681.23,364.69 681.72,364.69 682.21,363.12 682.70,363.12 683.19,361.56 683.68,361.56 684.17,360.00 684.66,358.44 685.15,358.44 685.64,356.88 686.13,356.88 686.62,355.31 687.11,355.31 687.60,353.75 688.09,352.19 688.58,352.19 689.07,350.62 689.56,350.62 690.05,349.06 690.54,349.06 691.03,347.50 691.52,345.94 692.01,345.94 692.50,344.38 692.99,342.81 693.48,342.81 693.97,341.25 694.46,341.25 694.95,339.69 695.44,338.12 695.93,338.12 696.42,336.56 696.91,335.00 697.40,335.00 697.89,333.44 698.38,331.88 698.87,331.88 699.36,330.31 699.85,328.75 700.34,327.19 700.83,327.19 701.32,325.62 701.81,324.06 702.30,324.06 702.79,322.50 703.28,320.94 703.77,319.37 704.26,319.37 704.75,317.81 705.24,316.25 705.73,314.69 706.22,314.69 706.71,313.12 707.20,311.56 707.69,310.00 708.18,308.44 708.67,308.44 709.16,306.87 709.65,305.31 710.14,303.75 710.63,302.19 711.12,300.62 711.61,300.62 712.10,299.06 712.59,297.50 713.08,295.94 713.57,294.38 714.06,292.81 714.55,291.25 715.04,291.25 715.53,289.69 716.02,288.12 716.51,286.56 717.00,285.00 717.49,283.44 717.98,281.87 718.47,280.31 718.96,278.75 719.45,277.19 719.94,277.19 720.43,275.62 720.92,274.06 721.41,272.50 721.90,270.94 722.39,269.37 722.88,267.81 723.37,266.25 723.86,264.69 724.35,263.12 724.84,263.12 725.33,261.56 725.82,260.00 726.31,258.44 726.80,256.87 727.29,255.31 727.78,253.75 728.27,252.19 728.76,252.19 729.25,250.62 729.74,249.06 730.23,247.50 730.72,245.94 731.21,244.37 731.70,242.81 732.19,242.81 732.68,241.25 733.17,239.69 733.66,238.13 734.15,236.56 734.64,236.56 735.13,235.00 735.62,233.44 736.11,231.87 736.60,231.87 737.09,230.31 737.58,228.75 738.07,228.75 738.56,227.19 739.05,225.62 739.54,224.06 740.03,224.06 740.52,222.50 741.01,220.94 741.50,220.94 741.99,219.38 742.48,219.38 742.97,217.81 743.46,216.25 743.95,216.25 744.44,214.69 744.93,214.69 745.42,213.12 745.91,211.56 746.40,211.56 746.89,210.00 747.38,210.00 747.87,208.44 748.36,208.44 748.85,206.88 749.34,206.88 749.83,205.31 750.32,205.31 750.81,203.75 751.30,203.75 751.79,202.19 752.28,202.19 752.77,200.62 753.26,200.62 753.75,199.06 754.24,199.06 754.73,197.50 755.22,197.50 755.71,195.94 756.20,195.94 756.69,194.38 757.18,194.38 757.67,192.81 758.16,192.81 758.65,191.25 759.14,191.25 759.63,191.25 760.12,189.69 760.61,189.69 761.10,188.12 761.59,188.12 762.08,188.12 762.57,186.56 763.06,186.56 763.55,185.00 764.04,185.00 764.53,185.00 765.02,183.44 765.51,183.44 766.00,181.88 766.49,181.88 766.98,181.88 767.47,180.31 767.96,180.31 768.45,180.31 768.94,178.75 769.43,178.75 769.92,178.75 770.41,177.19 770.90,177.19 771.39,177.19 771.88,177.19 772.37,175.62 772.86,175.62 773.35,175.62 773.84,175.62 774.33,174.06 774.82,174.06 775.31,174.06 775.80,174.06 776.29,174.06 776.78,172.50 777.27,172.50 777.76,172.50 778.25,172.50 778.74,172.50 779.23,172.50 779.72,170.94 780.21,170.94 780.70,170.94 781.19,170.94 781.68,170.94 782.17,170.94 782.66,170.94 783.15,170.94 783.64,170.94 784.13,170.94 784.62,170.94 785.11,170.94 785.60,170.94 786.09,170.94 786.58,170.94 787.07,170.94 787.56,170.94 788.05,170.94 788.54,170.94 789.03,170.94 789.52,170.94 790.01,170.94 790.50,170.94 790.99,170.94 791.48,170.94 791.97,170.94 792.46,170.94 792.95,170.94 793.44,170.94 793.93,170.94 794.42,170.94 794.91,170.94 795.40,170.94 795.89,172.50 796.38,172.50 796.87,172.50 797.36,172.50 797.85,172.50 798.34,172.50 798.83,172.50 799.32,172.50 799.81,174.06 800.30,174.06 800.79,174.06 801.28,174.06 801.77,174.06 802.26,174.06 802.75,175.62 803.24,175.62 803.73,175.62 804.22,175.62 804.71,177.19 805.20,177.19 805.69,177.19 806.18,177.19 806.67,178.75 807.16,178.75 807.65,178.75 808.14,178.75 808.63,180.31 809.12,180.31 809.61,180.31 810.10,181.88 810.59,181.88 811.08,181.88 811.57,183.44 812.06,183.44 812.55,183.44 813.04,185.00 813.53,185.00 814.02,185.00 814.51,186.56 815.00,186.56 815.49,186.56 815.98,188.12 816.47,188.12 816.96,189.69 817.45,189.69 817.94,189.69 818.43,191.25 818.92,191.25 819.41,192.81 819.90,192.81 820.39,192.81 820.88,194.38 821.37,194.38 821.86,195.94 822.35,195.94 822.84,197.50 823.33,197.50 823.82,199.06 824.31,199.06 824.80,199.06 825.29,200.62 825.78,200.62 826.27,202.19 826.76,202.19 827.25,203.75 827.74,203.75 828.23,205.31 828.72,205.31 829.21,206.88 829.70,206.88 830.19,208.44 830.68,208.44 831.17,210.00 831.66,210.00 832.15,211.56 832.64,211.56 833.13,213.12 833.62,214.69 834.11,214.69 834.60,216.25 835.09,216.25 835.58,217.81 836.07,217.81 836.56,219.38 837.05,219.38 837.54,220.94 838.03,222.50 838.52,222.50 839.01,224.06 839.50,224.06 839.99,225.62 840.48,225.62 840.97,227.19 841.46,228.75 841.95,228.75 842.44,230.31 842.93,230.31 843.42,231.87 843.91,233.44 844.40,233.44 844.89,235.00 845.38,235.00 845.87,236.56 846.36,238.13 846.85,238.13 847.34,239.69 847.83,241.25 848.32,241.25 848.81,242.81 849.30,242.81 849.79,244.37 850.28,245.94 850.77,245.94 851.26,247.50 851.75,247.50 852.24,249.06 852.73,250.62 853.22,250.62 853.71,252.19 854.20,253.75 854.69,253.75 855.18,255.31 855.67,256.87 856.16,256.87 856.65,258.44 857.14,258.44 857.63,260.00 858.12,261.56 858.61,261.56 859.10,263.12 859.59,264.69 860.08,264.69 860.57,266.25 861.06,266.25 861.55,267.81 862.04,269.37 862.53,269.37 863.02,270.94 863.51,272.50 864.00,272.50 864.49,274.06 864.98,274.06 865.47,275.62 865.96,277.19 866.45,277.19 866.94,278.75 867.43,280.31 867.92,280.31 868.41,281.87 868.90,281.87 869.39,283.44 869.88,285.00 870.37,285.00 870.86,286.56 871.35,286.56 871.84,288.12 872.33,289.69 872.82,289.69 873.31,291.25 873.80,291.25 874.29,292.81 874.78,294.38 875.27,294.38 875.76,295.94 876.25,295.94 876.74,297.50 877.23,299.06 877.72,299.06 878.21,300.62 878.70,300.62 879.19,302.19 879.68,302.19 880.17,303.75 880.66,305.31 881.15,305.31 881.64,306.87 882.13,306.87 882.62,308.44 883.11,308.44 883.60,310.00 884.09,310.00 884.58,311.56 885.07,311.56 885.56,313.12 886.05,313.12 886.54,314.69 887.03,314.69 887.52,316.25 888.01,316.25 888.50,317.81 888.99,317.81 889.48,319.37 889.97,319.37 890.46,320.94 890.95,320.94 891.44,322.50 891.93,322.50 892.42,324.06 892.91,324.06 893.40,325.62 893.89,325.62 894.38,325.62 894.87,327.19 895.36,327.19 895.85,328.75 896.34,328.75 896.83,330.31 897.32,330.31 897.81,330.31 898.30,331.88 898.79,331.88 899.28,333.44 899.77,333.44 900.26,333.44 900.75,335.00 901.24,335.00 901.73,335.00 902.22,336.56 902.71,336.56 903.20,336.56 903.69,338.12 904.18,338.12 904.67,338.12 905.16,339.69 905.65,339.69 906.14,339.69 906.63,341.25 907.12,341.25 907.61,341.25 908.10,342.81 908.59,342.81 909.08,342.81 909.57,342.81 910.06,344.38 910.55,344.38 911.04,344.38 911.53,344.38 912.02,345.94 912.51,345.94 913.00,345.94 913.49,345.94 913.98,345.94 914.47,347.50 914.96,347.50 915.45,347.50 915.94,347.50 916.43,347.50 916.92,347.50 917.41,349.06 917.90,349.06 918.39,349.06 918.88,349.06 919.37,349.06 919.86,349.06 920.35,349.06 920.84,349.06 921.33,349.06 921.82,350.62 922.31,350.62 922.80,350.62 923.29,350.62 923.78,350.62 924.27,350.62 924.76,350.62 925.25,350.62 925.74,350.62 926.23,350.62 926.72,350.62 927.21,350.62 927.70,350.62 928.19,350.62 928.68,350.62 929.17,350.62 929.66,350.62 930.15,350.62 930.64,350.62 931.13,350.62 931.62,350.62 932.11,350.62 932.60,350.62 933.09,350.62 933.58,350.62 934.07,349.06 934.56,349.06 935.05,349.06 935.54,349.06 936.03,349.06 936.52,349.06 937.01,349.06 937.50,349.06 937.99,347.50 938.48,347.50 938.97,347.50 939.46,347.50 939.95,347.50 940.44,347.50 940.93,345.94 941.42,345.94 941.91,345.94 942.40,345.94 942.89,344.38 943.38,344.38 943.87,344.38 944.36,344.38 944.85,342.81 945.34,342.81 945.83,342.81 946.32,342.81 946.81,341.25 947.30,341.25 947.79,341.25 948.28,341.25 948.77,339.69 949.26,339.69 949.75,339.69 950.24,338.12 950.73,338.12 951.22,338.12 951.71,336.56 952.20,336.56 952.69,335.00 953.18,335.00 953.67,335.00 954.16,333.44 954.65,333.44 955.14,333.44 955.63,331.88 956.12,331.88 956.61,330.31 957.10,330.31 957.59,328.75 958.08,328.75 958.57,327.19 959.06,327.19 959.55,327.19 960.04,325.62 960.53,325.62 961.02,324.06 961.51,324.06 962.00,322.50 962.49,322.50 962.98,320.94 963.47,320.94 963.96,319.37 964.45,317.81 964.94,317.81 965.43,316.25 965.92,316.25 966.41,314.69 966.90,314.69 967.39,313.12 967.88,313.12 968.37,311.56 968.86,311.56 969.35,310.00 969.84,308.44 970.33,308.44 970.82,306.87 971.31,306.87 971.80,305.31 972.29,303.75 972.78,303.75 973.27,302.19 973.76,300.62 974.25,300.62 974.74,299.06 975.23,299.06 975.72,297.50 976.21,295.94 976.70,295.94 977.19,294.38 977.68,292.81 978.17,292.81 978.66,291.25 979.15,289.69 979.64,288.12 980.13,288.12 980.62,286.56 981.11,285.00 981.60,285.00 982.09,283.44 982.58,281.87 983.07,280.31 983.56,280.31 984.05,278.75 984.54,277.19 985.03,275.62 985.52,275.62 986.01,274.06 986.50,272.50 986.99,270.94 987.48,270.94 987.97,269.37 988.46,267.81 988.95,266.25 989.44,266.25 989.93,264.69 990.42,263.12 990.91,261.56 991.40,261.56 991.89,260.00 992.38,258.44 992.87,256.87 993.36,255.31 993.85,255.31 994.34,253.75 994.83,252.19 995.32,250.62 995.81,249.06 996.30,249.06 996.79,247.50 997.28,245.94 997.77,244.37 998.26,242.81 998.75,242.81 999.24,241.25 999.73,239.69 1000.22,238.13 1000.71,236.56 1001.20,235.00 1001.69,235.00 1002.18,233.44 1002.67,231.87 1003.16,230.31 1003.65,228.75 1004.14,227.19 1004.63,227.19 1005.12,225.62 1005.61,224.06 1006.10,222.50 1006.59,220.94 1007.08,219.38 1007.57,219.38 1008.06,217.81 1008.55,216.25 1009.04,214.69 1009.53,213.12 1010.02,211.56 1010.51,211.56 1011.00,210.00 1011.49,208.44 1011.98,206.88 1012.47,205.31 1012.96,203.75 1013.45,202.19 1013.94,202.19 1014.43,200.62 1014.92,199.06 1015.41,197.50 1015.90,195.94 1016.39,194.38 1016.88,194.38 1017.37,192.81 1017.86,191.25 1018.35,189.69 1018.84,188.12 1019.33,186.56 1019.82,186.56 1020.31,185.00 1020.80,183.44 1021.29,181.88 1021.78,180.31 1022.27,178.75 1022.76,178.75 1023.25,177.19 1023.74,175.62 1024.23,174.06 1024.72,172.50 1025.21,172.50 1025.70,170.94 1026.19,169.38 1026.68,167.81 1027.17,166.25 1027.66,166.25 1028.15,164.69 1028.64,163.12 1029.13,161.56 1029.62,160.00 1030.11,160.00 1030.60,158.44 1031.09,156.88 1031.58,155.31 1032.07,155.31 1032.56,153.75 1033.05,152.19 1033.54,150.62 1034.03,149.06 1034.52,149.06 1035.01,147.50 1035.50,145.94 1035.99,144.38 1036.48,144.38 1036.97,142.81 1037.46,141.25 1037.95,141.25 1038.44,139.69 1038.93,138.13 1039.42,136.56 1039.91,136.56 1040.40,135.00 1040.89,133.44 1041.38,133.44 1041.87,131.88 1042.36,130.31 1042.85,128.75 1043.34,128.75 1043.83,127.19 1044.32,125.62 1044.81,125.62 1045.30,124.06 1045.79,122.50 1046.28,122.50 1046.77,120.94 1047.26,120.94 1047.75,119.38 1048.24,117.81 1048.73,117.81 1049.22,116.25 1049.71,114.69 1050.20,114.69 1050.69,113.12 1051.18,113.12 1051.67,111.56 1052.16,110.00 1052.65,110.00 1053.14,108.44 1053.63,108.44 1054.12,106.88 1054.61,106.88 1055.10,105.31 1055.59,105.31 1056.08,103.75 1056.57,102.19 1057.06,102.19 1057.55,100.62 1058.04,100.62 1058.53,99.06 1059.02,99.06 1059.51,97.50 1060.00,97.50" fill="none" stroke="#111827" stroke-width="2.2" stroke-linejoin="round" stroke-linecap="round"/>
<rect x="880" y="118" width="18" height="4" fill="#111827"/>
<text x="904" y="123" font-family="Arial, sans-serif" font-size="15" fill="#111827">E (J)</text>
</svg>
