<svg xmlns="http://www.w3.org/2000/svg" width="1100" height="700" viewBox="0 0 1100 700">
<rect width="100%" height="100%" fill="#f8fafc"/>
<text x="80" y="32" font-family="Arial, sans-serif" font-size="24" fill="#111827">Head-on Inelastic Collision (e=0.5): Conserved Quantities Drift</text>
<line x1="80.00" y1="620.00" x2="1060.00" y2="620.00" stroke="#374151" stroke-width="2"/>
<line x1="80.00" y1="620.00" x2="80.00" y2="50.00" stroke="#374151" stroke-width="2"/>
<text x="550.00" y="672" text-anchor="middle" font-family="Arial, sans-serif" font-size="16" fill="#374151">time (s)</text>
<text x="22" y="350.00" text-anchor="middle" transform="rotate(-90 22 350.00)" font-family="Arial, sans-serif" font-size="16" fill="#374151">drift from initial (J or kg m/s)</text>
<text x="80" y="646" font-family="Arial, sans-serif" font-size="13" fill="#6b7280">0.00</text>
<text x="1060" y="646" text-anchor="end" font-family="Arial, sans-serif" font-size="13" fill="#6b7280">3.00</text>
<text x="68" y="620.00" text-anchor="end" dominant-baseline="middle" font-family="Arial, sans-serif" font-size="13" fill="#6b7280">-0.48</text>
<text x="68" y="50.00" text-anchor="end" dominant-baseline="middle" font-family="Arial, sans-serif" font-size="13" fill="#6b7280">0.00</text>
<line x1="80" y1="50.00" x2="1060" y2="50.00" stroke="#9ca3af" stroke-width="1" stroke-dasharray="4,4"/>
<polyline points="80.00,50.00 80.68,50.00 81.36,50.00 82.04,50.00 82.72,50.00 83.40,50.00 84.08,50.00 84.76,50.00 85.44,50.00 86.12,50.00 86.81,50.00 87.49,50.00 88.17,50.00 88.85,50.00 89.53,50.00 90.21,50.00 90.89,50.00 91.57,50.00 92.25,50.00 92.93,50.00 93.61,50.00 94.29,50.00 94.97,50.00 95.65,50.00 96.33,50.00 97.01,50.00 97.69,50.00 98.38,50.00 99.06,50.00 99.74,50.00 100.42,50.00 101.10,50.00 101.78,50.00 102.46,50.00 103.14,50.00 103.82,50.00 104.50,50.00 105.18,50.00 105.86,50.00 106.54,50.00 107.22,50.00 107.90,50.00 108.58,50.00 109.26,50.00 109.94,50.00 110.62,50.00 111.31,50.00 111.99,50.00 112.67,50.00 113.35,50.00 114.03,50.00 114.71,50.00 115.39,50.00 116.07,50.00 116.75,50.00 117.43,50.00 118.11,50.00 118.79,50.00 119.47,50.00 120.15,50.00 120.83,50.00 121.51,50.00 122.19,50.00 122.88,50.00 123.56,50.00 124.24,50.00 124.92,50.00 125.60,50.00 126.28,50.00 126.96,50.00 127.64,50.00 128.32,50.00 129.00,50.00 129.68,50.00 130.36,50.00 131.04,50.00 131.72,50.00 132.40,50.00 133.08,50.00 133.76,50.00 134.44,50.00 135.12,50.00 135.81,50.00 136.49,50.00 137.17,50.00 137.85,50.00 138.53,50.00 139.21,50.00 139.89,50.00 140.57,50.00 141.25,50.00 141.93,50.00 142.61,50.00 143.29,50.00 143.97,50.00 144.65,50.00 145.33,50.00 146.01,50.00 146.69,50.00 147.38,50.00 148.06,50.00 148.74,50.00 149.42,50.00 150.10,50.00 150.78,50.00 151.46,50.00 152.14,50.00 152.82,50.00 153.50,50.00 154.18,50.00 154.86,50.00 155.54,50.00 156.22,50.00 156.90,50.00 157.58,50.00 158.26,50.00 158.94,50.00 159.62,50.00 160.31,50.00 160.99,50.00 161.67,50.00 162.35,50.00 163.03,50.00 163.71,50.00 164.39,50.00 165.07,50.00 165.75,50.00 166.43,50.00 167.11,50.00 167.79,50.00 168.47,50.00 169.15,50.00 169.83,50.00 170.51,50.00 171.19,50.00 171.88,50.00 172.56,50.00 173.24,50.00 173.92,50.00 174.60,50.00 175.28,50.00 175.96,50.00 176.64,50.00 177.32,50.00 178.00,50.00 178.68,50.00 179.36,50.00 180.04,50.00 180.72,50.00 181.40,50.00 182.08,50.00 182.76,50.00 183.44,50.00 184.12,50.00 184.81,50.00 185.49,50.00 186.17,50.00 186.85,50.00 187.53,50.00 188.21,50.00 188.89,50.00 189.57,50.00 190.25,50.00 190.93,50.00 191.61,50.00 192.29,50.00 192.97,50.00 193.65,50.00 194.33,50.00 195.01,50.00 195.69,50.00 196.38,50.00 197.06,50.00 197.74,50.00 198.42,50.00 199.10,50.00 199.78,50.00 200.46,50.00 201.14,50.00 201.82,50.00 202.50,50.00 203.18,50.00 203.86,50.00 204.54,50.00 205.22,50.00 205.90,50.00 206.58,50.00 207.26,50.00 207.94,50.00 208.62,50.00 209.31,50.00 209.99,50.00 210.67,50.00 211.35,50.00 212.03,50.00 212.71,50.00 213.39,50.00 214.07,50.00 214.75,50.00 215.43,50.00 216.11,50.00 216.79,50.00 217.47,50.00 218.15,50.00 218.83,50.00 219.51,50.00 220.19,50.00 220.88,50.00 221.56,50.00 222.24,50.00 222.92,50.00 223.60,50.00 224.28,50.00 224.96,50.00 225.64,50.00 226.32,50.00 227.00,50.00 227.68,50.00 228.36,50.00 229.04,50.00 229.72,50.00 230.40,50.00 231.08,50.00 231.76,50.00 232.44,50.00 233.12,50.00 233.81,50.00 234.49,50.00 235.17,50.00 235.85,50.00 236.53,50.00 237.21,50.00 237.89,50.00 238.57,50.00 239.25,50.00 239.93,50.00 240.61,50.00 241.29,50.00 241.97,50.00 242.65,50.00 243.33,50.00 244.01,50.00 244.69,50.00 245.37,50.00 246.06,50.00 246.74,50.00 247.42,50.00 248.10,50.00 248.78,50.00 249.46,50.00 250.14,50.00 250.82,50.00 251.50,50.00 252.18,50.00 252.86,50.00 253.54,50.00 254.22,50.00 254.90,50.00 255.58,50.00 256.26,50.00 256.94,50.00 257.62,50.00 258.31,50.00 258.99,50.00 259.67,50.00 260.35,50.00 261.03,50.00 261.71,50.00 262.39,50.00 263.07,50.00 263.75,50.00 264.43,50.00 265.11,50.00 265.79,50.00 266.47,50.00 267.15,50.00 267.83,50.00 268.51,50.00 269.19,50.00 269.88,50.00 270.56,50.00 271.24,50.00 271.92,50.00 272.60,50.00 273.28,50.00 273.96,50.00 274.64,50.00 275.32,50.00 276.00,50.00 276.68,50.00 277.36,50.00 278.04,50.00 278.72,50.00 279.40,50.00 280.08,50.00 280.76,50.00 281.44,50.00 282.12,50.00 282.81,50.00 283.49,50.00 284.17,50.00 284.85,50.00 285.53,50.00 286.21,50.00 286.89,50.00 287.57,50.00 288.25,50.00 288.93,50.00 289.61,50.00 290.29,50.00 290.97,50.00 291.65,50.00 292.33,50.00 293.01,50.00 293.69,50.00 294.38,50.00 295.06,50.00 295.74,50.00 296.42,50.00 297.10,50.00 297.78,50.00 298.46,50.00 299.14,50.00 299.82,50.00 300.50,50.00 301.18,50.00 301.86,50.00 302.54,50.00 303.22,50.00 303.90,50.00 304.58,50.00 305.26,50.00 305.94,50.00 306.62,50.00 307.31,50.00 307.99,50.00 308.67,50.00 309.35,50.00 310.03,50.00 310.71,50.00 311.39,50.00 312.07,50.00 312.75,50.00 313.43,50.00 314.11,50.00 314.79,50.00 315.47,50.00 316.15,50.00 316.83,50.00 317.51,50.00 318.19,50.00 318.88,50.00 319.56,50.00 320.24,50.00 320.92,50.00 321.60,50.00 322.28,50.00 322.96,50.00 323.64,50.00 324.32,50.00 325.00,50.00 325.68,50.00 326.36,50.00 327.04,50.00 327.72,50.00 328.40,50.00 329.08,50.00 329.76,50.00 330.44,50.00 331.12,50.00 331.81,50.00 332.49,50.00 333.17,50.00 333.85,50.00 334.53,50.00 335.21,50.00 335.89,50.00 336.57,50.00 337.25,50.00 337.93,50.00 338.61,50.00 339.29,50.00 339.97,50.00 340.65,50.00 341.33,50.00 342.01,50.00 342.69,50.00 343.38,50.00 344.06,50.00 344.74,50.00 345.42,50.00 346.10,50.00 346.78,50.00 347.46,50.00 348.14,50.00 348.82,50.00 349.50,50.00 350.18,50.00 350.86,50.00 351.54,50.00 352.22,50.00 352.90,50.00 353.58,50.00 354.26,50.00 354.94,50.00 355.62,50.00 356.31,50.00 356.99,50.00 357.67,50.00 358.35,50.00 359.03,50.00 359.71,50.00 360.39,50.00 361.07,50.00 361.75,50.00 362.43,50.00 363.11,50.00 363.79,50.00 364.47,50.00 365.15,50.00 365.83,50.00 366.51,50.00 367.19,50.00 367.88,50.00 368.56,50.00 369.24,50.00 369.92,50.00 370.60,50.00 371.28,50.00 371.96,50.00 372.64,50.00 373.32,50.00 374.00,50.00 374.68,50.00 375.36,50.00 376.04,50.00 376.72,50.00 377.40,50.00 378.08,50.00 378.76,50.00 379.44,50.00 380.12,50.00 380.81,50.00 381.49,50.00 382.17,50.00 382.85,50.00 383.53,50.00 384.21,50.00 384.89,50.00 385.57,50.00 386.25,50.00 386.93,50.00 387.61,50.00 388.29,50.00 388.97,50.00 389.65,50.00 390.33,50.00 391.01,50.00 391.69,50.00 392.38,50.00 393.06,50.00 393.74,50.00 394.42,50.00 395.10,50.00 395.78,50.00 396.46,50.00 397.14,50.00 397.82,50.00 398.50,50.00 399.18,50.00 399.86,50.00 400.54,50.00 401.22,50.00 401.90,50.00 402.58,50.00 403.26,50.00 403.94,50.00 404.62,50.00 405.31,50.00 405.99,50.00 406.67,50.00 407.35,50.00 408.03,50.00 408.71,50.00 409.39,50.00 410.07,50.00 410.75,50.00 411.43,50.00 412.11,50.00 412.79,50.00 413.47,50.00 414.15,50.00 414.83,50.00 415.51,50.00 416.19,50.00 416.88,50.00 417.56,50.00 418.24,50.00 418.92,50.00 419.60,50.00 420.28,50.00 420.96,50.00 421.64,50.00 422.32,50.00 423.00,50.00 423.68,50.00 424.36,50.00 425.04,50.00 425.72,50.00 426.40,50.00 427.08,50.00 427.76,50.00 428.44,50.00 429.12,50.00 429.81,50.00 430.49,50.00 431.17,50.00 431.85,50.00 432.53,50.00 433.21,50.00 433.89,50.00 434.57,50.00 435.25,50.00 435.93,50.00 436.61,50.00 437.29,50.00 437.97,50.00 438.65,50.00 439.33,50.00 440.01,50.00 440.69,50.00 441.37,50.00 442.06,50.00 442.74,50.00 443.42,50.00 444.10,50.00 444.78,50.00 445.46,50.00 446.14,50.00 446.82,50.00 447.50,50.00 448.18,50.00 448.86,50.00 449.54,50.00 450.22,50.00 450.90,50.00 451.58,50.00 452.26,50.00 452.94,50.00 453.63,50.00 454.31,50.00 454.99,50.00 455.67,50.00 456.35,50.00 457.03,50.00 457.71,50.00 458.39,50.00 459.07,50.00 459.75,50.00 460.43,50.00 461.11,50.00 461.79,50.00 462.47,50.00 463.15,50.00 463.83,50.00 464.51,50.00 465.19,50.00 465.88,50.00 466.56,50.00 467.24,50.00 467.92,50.00 468.60,50.00 469.28,50.00 469.96,50.00 470.64,50.00 471.32,50.00 472.00,50.00 472.68,50.00 473.36,50.00 474.04,50.00 474.72,50.00 475.40,50.00 476.08,50.00 476.76,50.00 477.44,50.00 478.12,50.00 478.81,50.00 479.49,50.00 480.17,50.00 480.85,50.00 481.53,50.00 482.21,50.00 482.89,50.00 483.57,50.00 484.25,50.00 484.93,50.00 485.61,50.00 486.29,50.00 486.97,50.00 487.65,50.00 488.33,50.00 489.01,50.00 489.69,50.00 490.38,50.00 491.06,50.00 491.74,50.00 492.42,50.00 493.10,50.00 493.78,50.00 494.46,50.00 495.14,50.00 495.82,50.00 496.50,50.00 497.18,50.00 497.86,50.00 498.54,50.00 499.22,50.00 499.90,50.00 500.58,50.00 501.26,50.00 501.94,50.00 502.62,50.00 503.31,50.00 503.99,50.00 504.67,50.00 505.35,50.00 506.03,50.00 506.71,50.00 507.39,50.00 508.07,50.00 508.75,50.00 509.43,50.00 510.11,50.00 510.79,50.00 511.47,50.00 512.15,50.00 512.83,50.00 513.51,50.00 514.19,50.00 514.88,50.00 515.56,50.00 516.24,50.00 516.92,50.00 517.60,50.00 518.28,50.00 518.96,50.00 519.64,50.00 520.32,50.00 521.00,50.00 521.68,50.00 522.36,50.00 523.04,50.00 523.72,50.00 524.40,50.00 525.08,50.00 525.76,50.00 526.44,50.00 527.12,50.00 527.81,50.00 528.49,50.00 529.17,50.00 529.85,50.00 530.53,50.00 531.21,50.00 531.89,50.00 532.57,50.00 533.25,50.00 533.93,50.00 534.61,50.00 535.29,50.00 535.97,50.00 536.65,50.00 537.33,50.00 538.01,50.00 538.69,50.00 539.38,50.00 540.06,50.00 540.74,50.00 541.42,50.00 542.10,50.00 542.78,50.00 543.46,50.00 544.14,50.00 544.82,50.00 545.50,50.00 546.18,50.00 546.86,50.00 547.54,50.00 548.22,50.00 548.90,50.00 549.58,50.00 550.26,50.00 550.94,50.00 551.62,50.00 552.31,50.00 552.99,50.00 553.67,50.00 554.35,50.00 555.03,50.00 555.71,50.00 556.39,50.00 557.07,50.00 557.75,50.00 558.43,50.00 559.11,50.00 559.79,50.00 560.47,50.00 561.15,50.00 561.83,50.00 562.51,50.00 563.19,50.00 563.88,50.00 564.56,50.00 565.24,50.00 565.92,50.00 566.60,50.00 567.28,50.00 567.96,50.00 568.64,50.00 569.32,50.00 570.00,50.00 570.68,50.00 571.36,50.00 572.04,50.00 572.72,50.00 573.40,50.00 574.08,50.00 574.76,50.00 575.44,50.00 576.12,50.00 576.81,50.00 577.49,50.00 578.17,50.00 578.85,50.00 579.53,50.00 580.21,50.00 580.89,50.00 581.57,50.00 582.25,50.00 582.93,50.00 583.61,50.00 584.29,50.00 584.97,50.00 585.65,50.00 586.33,50.00 587.01,50.00 587.69,50.00 588.38,50.00 589.06,50.00 589.74,50.00 590.42,50.00 591.10,50.00 591.78,50.00 592.46,50.00 593.14,50.00 593.82,50.00 594.50,50.00 595.18,50.00 595.86,50.00 596.54,50.00 597.22,50.00 597.90,50.00 598.58,50.00 599.26,50.00 599.94,50.00 600.62,50.00 601.31,50.00 601.99,50.00 602.67,50.00 603.35,50.00 604.03,50.00 604.71,50.00 605.39,50.00 606.07,50.00 606.75,50.00 607.43,50.00 608.11,50.00 608.79,50.00 609.47,50.00 610.15,50.00 610.83,50.00 611.51,50.00 612.19,50.00 612.88,50.00 613.56,50.00 614.24,50.00 614.92,50.00 615.60,50.00 616.28,50.00 616.96,50.00 617.64,50.00 618.32,50.00 619.00,50.00 619.68,50.00 620.36,50.00 621.04,50.00 621.72,50.00 622.40,50.00 623.08,50.00 623.76,50.00 624.44,50.00 625.12,50.00 625.81,50.00 626.49,50.00 627.17,50.00 627.85,50.00 628.53,50.00 629.21,50.00 629.89,50.00 630.57,50.00 631.25,50.00 631.93,50.00 632.61,50.00 633.29,50.00 633.97,50.00 634.65,50.00 635.33,50.00 636.01,50.00 636.69,50.00 637.38,50.00 638.06,50.00 638.74,50.00 639.42,50.00 640.10,50.00 640.78,50.00 641.46,50.00 642.14,50.00 642.82,50.00 643.50,50.00 644.18,50.00 644.86,50.00 645.54,50.00 646.22,50.00 646.90,50.00 647.58,50.00 648.26,50.00 648.94,50.00 649.62,50.00 650.31,50.00 650.99,50.00 651.67,50.00 652.35,50.00 653.03,50.00 653.71,50.00 654.39,50.00 655.07,50.00 655.75,50.00 656.43,50.00 657.11,50.00 657.79,50.00 658.47,50.00 659.15,50.00 659.83,50.00 660.51,50.00 661.19,50.00 661.88,50.00 662.56,50.00 663.24,50.00 663.92,50.00 664.60,50.00 665.28,50.00 665.96,50.00 666.64,50.00 667.32,50.00 668.00,50.00 668.68,50.00 669.36,50.00 670.04,50.00 670.72,50.00 671.40,50.00 672.08,50.00 672.76,50.00 673.44,50.00 674.13,50.00 674.81,50.00 675.49,50.00 676.17,50.00 676.85,50.00 677.53,50.00 678.21,50.00 678.89,50.00 679.57,50.00 680.25,50.00 680.93,50.00 681.61,50.00 682.29,50.00 682.97,50.00 683.65,50.00 684.33,50.00 685.01,50.00 685.69,50.00 686.38,50.00 687.06,50.00 687.74,50.00 688.42,50.00 689.10,50.00 689.78,50.00 690.46,50.00 691.14,50.00 691.82,50.00 692.50,50.00 693.18,50.00 693.86,50.00 694.54,50.00 695.22,50.00 695.90,50.00 696.58,50.00 697.26,50.00 697.94,50.00 698.62,50.00 699.31,50.00 699.99,50.00 700.67,50.00 701.35,50.00 702.03,50.00 702.71,50.00 703.39,50.00 704.07,50.00 704.75,50.00 705.43,50.00 706.11,50.00 706.79,50.00 707.47,50.00 708.15,50.00 708.83,50.00 709.51,50.00 710.19,50.00 710.87,50.00 711.56,50.00 712.24,50.00 712.92,50.00 713.60,50.00 714.28,50.00 714.96,50.00 715.64,50.00 716.32,50.00 717.00,50.00 717.68,50.00 718.36,50.00 719.04,50.00 719.72,50.00 720.40,50.00 721.08,50.00 721.76,50.00 722.44,50.00 723.12,50.00 723.81,50.00 724.49,50.00 725.17,50.00 725.85,50.00 726.53,50.00 727.21,50.00 727.89,50.00 728.57,50.00 729.25,50.00 729.93,50.00 730.61,50.00 731.29,50.00 731.97,50.00 732.65,50.00 733.33,50.00 734.01,50.00 734.69,50.00 735.38,50.00 736.06,50.00 736.74,50.00 737.42,50.00 738.10,50.00 738.78,50.00 739.46,50.00 740.14,50.00 740.82,50.00 741.50,50.00 742.18,50.00 742.86,50.00 743.54,50.00 744.22,50.00 744.90,50.00 745.58,50.00 746.26,50.00 746.94,50.00 747.62,50.00 748.31,50.00 748.99,50.00 749.67,50.00 750.35,50.00 751.03,50.00 751.71,50.00 752.39,50.00 753.07,50.00 753.75,50.00 754.43,50.00 755.11,50.00 755.79,50.00 756.47,50.00 757.15,50.00 757.83,50.00 758.51,50.00 759.19,50.00 759.88,50.00 760.56,50.00 761.24,50.00 761.92,50.00 762.60,50.00 763.28,50.00 763.96,50.00 764.64,50.00 765.32,50.00 766.00,50.00 766.68,50.00 767.36,50.00 768.04,50.00 768.72,50.00 769.40,50.00 770.08,50.00 770.76,50.00 771.44,50.00 772.12,50.00 772.81,50.00 773.49,50.00 774.17,50.00 774.85,50.00 775.53,50.00 776.21,50.00 776.89,50.00 777.57,50.00 778.25,50.00 778.93,50.00 779.61,50.00 780.29,50.00 780.97,50.00 781.65,50.00 782.33,50.00 783.01,50.00 783.69,50.00 784.38,50.00 785.06,50.00 785.74,50.00 786.42,50.00 787.10,50.00 787.78,50.00 788.46,50.00 789.14,50.00 789.82,50.00 790.50,50.00 791.18,50.00 791.86,50.00 792.54,50.00 793.22,50.00 793.90,50.00 794.58,50.00 795.26,50.00 795.94,50.00 796.63,50.00 797.31,50.00 797.99,50.00 798.67,50.00 799.35,50.00 800.03,50.00 800.71,50.00 801.39,50.00 802.07,50.00 802.75,50.00 803.43,50.00 804.11,50.00 804.79,50.00 805.47,50.00 806.15,50.00 806.83,50.00 807.51,50.00 808.19,50.00 808.88,50.00 809.56,50.00 810.24,50.00 810.92,50.00 811.60,50.00 812.28,50.00 812.96,50.00 813.64,50.00 814.32,50.00 815.00,50.00 815.68,50.00 816.36,50.00 817.04,50.00 817.72,50.00 818.40,50.00 819.08,50.00 819.76,50.00 820.44,50.00 821.12,50.00 821.81,50.00 822.49,50.00 823.17,50.00 823.85,50.00 824.53,50.00 825.21,50.00 825.89,50.00 826.57,50.00 827.25,50.00 827.93,50.00 828.61,50.00 829.29,50.00 829.97,50.00 830.65,50.00 831.33,50.00 832.01,50.00 832.69,50.00 833.37,50.00 834.06,50.00 834.74,50.00 835.42,50.00 836.10,50.00 836.78,50.00 837.46,50.00 838.14,50.00 838.82,50.00 839.50,50.00 840.18,50.00 840.86,50.00 841.54,50.00 842.22,50.00 842.90,50.00 843.58,50.00 844.26,50.00 844.94,50.00 845.62,50.00 846.31,50.00 846.99,50.00 847.67,50.00 848.35,50.00 849.03,50.00 849.71,50.00 850.39,50.00 851.07,50.00 851.75,50.00 852.43,50.00 853.11,50.00 853.79,50.00 854.47,50.00 855.15,50.00 855.83,50.00 856.51,50.00 857.19,50.00 857.88,50.00 858.56,50.00 859.24,50.00 859.92,50.00 860.60,50.00 861.28,50.00 861.96,50.00 862.64,50.00 863.32,50.00 864.00,50.00 864.68,50.00 865.36,50.00 866.04,50.00 866.72,50.00 867.40,50.00 868.08,50.00 868.76,50.00 869.44,50.00 870.12,50.00 870.81,50.00 871.49,50.00 872.17,50.00 872.85,50.00 873.53,50.00 874.21,50.00 874.89,50.00 875.57,50.00 876.25,50.00 876.93,50.00 877.61,50.00 878.29,50.00 878.97,50.00 879.65,50.00 880.33,50.00 881.01,50.00 881.69,50.00 882.38,50.00 883.06,50.00 883.74,50.00 884.42,50.00 885.10,50.00 885.78,50.00 886.46,50.00 887.14,50.00 887.82,50.00 888.50,50.00 889.18,50.00 889.86,50.00 890.54,50.00 891.22,50.00 891.90,50.00 892.58,50.00 893.26,50.00 893.94,50.00 894.62,50.00 895.31,50.00 895.99,50.00 896.67,50.00 897.35,50.00 898.03,50.00 898.71,50.00 899.39,50.00 900.07,50.00 900.75,50.00 901.43,50.00 902.11,50.00 902.79,50.00 903.47,50.00 904.15,50.00 904.83,50.00 905.51,50.00 906.19,50.00 906.88,50.00 907.56,50.00 908.24,50.00 908.92,50.00 909.60,50.00 910.28,50.00 910.96,50.00 911.64,50.00 912.32,50.00 913.00,50.00 913.68,50.00 914.36,50.00 915.04,50.00 915.72,50.00 916.40,50.00 917.08,50.00 917.76,50.00 918.44,50.00 919.13,50.00 919.81,50.00 920.49,50.00 921.17,50.00 921.85,50.00 922.53,50.00 923.21,50.00 923.89,50.00 924.57,50.00 925.25,50.00 925.93,50.00 926.61,50.00 927.29,50.00 927.97,50.00 928.65,50.00 929.33,50.00 930.01,50.00 930.69,50.00 931.38,50.00 932.06,50.00 932.74,50.00 933.42,50.00 934.10,50.00 934.78,50.00 935.46,50.00 936.14,50.00 936.82,50.00 937.50,50.00 938.18,50.00 938.86,50.00 939.54,50.00 940.22,50.00 940.90,50.00 941.58,50.00 942.26,50.00 942.94,50.00 943.62,50.00 944.31,50.00 944.99,50.00 945.67,50.00 946.35,50.00 947.03,50.00 947.71,50.00 948.39,50.00 949.07,50.00 949.75,50.00 950.43,50.00 951.11,50.00 951.79,50.00 952.47,50.00 953.15,50.00 953.83,50.00 954.51,50.00 955.19,50.00 955.87,50.00 956.56,50.00 957.24,50.00 957.92,50.00 958.60,50.00 959.28,50.00 959.96,50.00 960.64,50.00 961.32,50.00 962.00,50.00 962.68,50.00 963.36,50.00 964.04,50.00 964.72,50.00 965.40,50.00 966.08,50.00 966.76,50.00 967.44,50.00 968.12,50.00 968.81,50.00 969.49,50.00 970.17,50.00 970.85,50.00 971.53,50.00 972.21,50.00 972.89,50.00 973.57,50.00 974.25,50.00 974.93,50.00 975.61,50.00 976.29,50.00 976.97,50.00 977.65,50.00 978.33,50.00 979.01,50.00 979.69,50.00 980.38,50.00 981.06,50.00 981.74,50.00 982.42,50.00 983.10,50.00 983.78,50.00 984.46,50.00 985.14,50.00 985.82,50.00 986.50,50.00 987.18,50.00 987.86,50.00 988.54,50.00 989.22,50.00 989.90,50.00 990.58,50.00 991.26,50.00 991.94,50.00 992.62,50.00 993.31,50.00 993.99,50.00 994.67,50.00 995.35,50.00 996.03,50.00 996.71,50.00 997.39,50.00 998.07,50.00 998.75,50.00 999.43,50.00 1000.11,50.00 1000.79,50.00 1001.47,50.00 1002.15,50.00 1002.83,50.00 1003.51,50.00 1004.19,50.00 1004.88,50.00 1005.56,50.00 1006.24,50.00 1006.92,50.00 1007.60,50.00 1008.28,50.00 1008.96,50.00 1009.64,50.00 1010.32,50.00 1011.00,50.00 1011.68,50.00 1012.36,50.00 1013.04,50.00 1013.72,50.00 1014.40,50.00 1015.08,50.00 1015.76,50.00 1016.44,50.00 1017.12,50.00 1017.81,50.00 1018.49,50.00 1019.17,50.00 1019.85,50.00 1020.53,50.00 1021.21,50.00 1021.89,50.00 1022.57,50.00 1023.25,50.00 1023.93,50.00 1024.61,50.00 1025.29,50.00 1025.97,50.00 1026.65,50.00 1027.33,50.00 1028.01,50.00 1028.69,50.00 1029.38,50.00 1030.06,50.00 1030.74,50.00 1031.42,50.00 1032.10,50.00 1032.78,50.00 1033.46,50.00 1034.14,50.00 1034.82,50.00 1035.50,50.00 1036.18,50.00 1036.86,50.00 1037.54,50.00 1038.22,50.00 1038.90,50.00 1039.58,50.00 1040.26,50.00 1040.94,50.00 1041.62,50.00 1042.31,50.00 1042.99,50.00 1043.67,50.00 1044.35,50.00 1045.03,50.00 1045.71,50.00 1046.39,50.00 1047.07,50.00 1047.75,50.00 1048.43,50.00 1049.11,50.00 1049.79,50.00 1050.47,50.00 1051.15,50.00 1051.83,50.00 1052.51,50.00 1053.19,50.00 1053.88,50.00 1054.56,50.00 1055.24,50.00 1055.92,50.00 1056.60,50.00 1057.28,50.00 1057.96,50.00 1058.64,50.00 1059.32,50.00 1060.00,50.00" fill="none" stroke="#7c3aed" stroke-width="2.2" stroke-linejoin="round" stroke-linecap="round"/>
<rect x="880" y="62" width="18" height="4" fill="#7c3aed"/>
<text x="904" y="67" font-family="Arial, sans-serif" font-size="15" fill="#111827">|p| - |p_0|</text>
<polyline points="80.00,50.00 80.68,50.00 81.36,50.00 82.04,50.00 82.72,50.00 83.40,50.00 84.08,50.00 84.76,50.00 85.44,50.00 86.12,50.00 86.81,50.00 87.49,50.00 88.17,50.00 88.85,50.00 89.53,50.00 90.21,50.00 90.89,50.00 91.57,50.00 92.25,50.00 92.93,50.00 93.61,50.00 94.29,50.00 94.97,50.00 95.65,50.00 96.33,50.00 97.01,50.00 97.69,50.00 98.38,50.00 99.06,50.00 99.74,50.00 100.42,50.00 101.10,50.00 101.78,50.00 102.46,50.00 103.14,50.00 103.82,50.00 104.50,50.00 105.18,50.00 105.86,50.00 106.54,50.00 107.22,50.00 107.90,50.00 108.58,50.00 109.26,50.00 109.94,50.00 110.62,50.00 111.31,50.00 111.99,50.00 112.67,50.00 113.35,50.00 114.03,50.00 114.71,50.00 115.39,50.00 116.07,50.00 116.75,50.00 117.43,50.00 118.11,50.00 118.79,50.00 119.47,50.00 120.15,50.00 120.83,50.00 121.51,50.00 122.19,50.00 122.88,50.00 123.56,50.00 124.24,50.00 124.92,50.00 125.60,50.00 126.28,50.00 126.96,50.00 127.64,50.00 128.32,50.00 129.00,50.00 129.68,50.00 130.36,50.00 131.04,50.00 131.72,50.00 132.40,50.00 133.08,50.00 133.76,50.00 134.44,50.00 135.12,50.00 135.81,50.00 136.49,50.00 137.17,50.00 137.85,50.00 138.53,50.00 139.21,50.00 139.89,50.00 140.57,50.00 141.25,50.00 141.93,50.00 142.61,50.00 143.29,50.00 143.97,50.00 144.65,50.00 145.33,50.00 146.01,50.00 146.69,50.00 147.38,50.00 148.06,50.00 148.74,50.00 149.42,50.00 150.10,50.00 150.78,50.00 151.46,50.00 152.14,50.00 152.82,50.00 153.50,50.00 154.18,50.00 154.86,50.00 155.54,50.00 156.22,50.00 156.90,50.00 157.58,50.00 158.26,50.00 158.94,50.00 159.62,50.00 160.31,50.00 160.99,50.00 161.67,50.00 162.35,50.00 163.03,50.00 163.71,50.00 164.39,50.00 165.07,50.00 165.75,50.00 166.43,50.00 167.11,50.00 167.79,50.00 168.47,50.00 169.15,50.00 169.83,50.00 170.51,50.00 171.19,50.00 171.88,50.00 172.56,50.00 173.24,50.00 173.92,50.00 174.60,50.00 175.28,50.00 175.96,50.00 176.64,50.00 177.32,50.00 178.00,50.00 178.68,50.00 179.36,50.00 180.04,50.00 180.72,50.00 181.40,50.00 182.08,50.00 182.76,50.00 183.44,50.00 184.12,50.00 184.81,50.00 185.49,50.00 186.17,50.00 186.85,50.00 187.53,50.00 188.21,50.00 188.89,50.00 189.57,50.00 190.25,50.00 190.93,50.00 191.61,50.00 192.29,50.00 192.97,50.00 193.65,50.00 194.33,50.00 195.01,50.00 195.69,50.00 196.38,50.00 197.06,50.00 197.74,50.00 198.42,50.00 199.10,50.00 199.78,50.00 200.46,50.00 201.14,50.00 201.82,50.00 202.50,50.00 203.18,50.00 203.86,50.00 204.54,50.00 205.22,50.00 205.90,50.00 206.58,50.00 207.26,50.00 207.94,50.00 208.62,50.00 209.31,50.00 209.99,50.00 210.67,50.00 211.35,50.00 212.03,50.00 212.71,50.00 213.39,50.00 214.07,50.00 214.75,50.00 215.43,50.00 216.11,50.00 216.79,50.00 217.47,50.00 218.15,50.00 218.83,50.00 219.51,50.00 220.19,50.00 220.88,50.00 221.56,50.00 222.24,50.00 222.92,50.00 223.60,50.00 224.28,50.00 224.96,50.00 225.64,50.00 226.32,50.00 227.00,50.00 227.68,50.00 228.36,50.00 229.04,50.00 229.72,50.00 230.40,50.00 231.08,50.00 231.76,50.00 232.44,50.00 233.12,50.00 233.81,50.00 234.49,50.00 235.17,50.00 235.85,50.00 236.53,50.00 237.21,50.00 237.89,50.00 238.57,50.00 239.25,50.00 239.93,50.00 240.61,50.00 241.29,50.00 241.97,50.00 242.65,50.00 243.33,50.00 244.01,50.00 244.69,50.00 245.37,50.00 246.06,50.00 246.74,50.00 247.42,50.00 248.10,50.00 248.78,50.00 249.46,50.00 250.14,50.00 250.82,50.00 251.50,50.00 252.18,50.00 252.86,50.00 253.54,50.00 254.22,50.00 254.90,50.00 255.58,50.00 256.26,50.00 256.94,50.00 257.62,50.00 258.31,50.00 258.99,50.00 259.67,50.00 260.35,50.00 261.03,50.00 261.71,50.00 262.39,50.00 263.07,50.00 263.75,50.00 264.43,50.00 265.11,50.00 265.79,50.00 266.47,50.00 267.15,50.00 267.83,50.00 268.51,50.00 269.19,50.00 269.88,50.00 270.56,50.00 271.24,50.00 271.92,50.00 272.60,50.00 273.28,50.00 273.96,50.00 274.64,50.00 275.32,50.00 276.00,50.00 276.68,50.00 277.36,50.00 278.04,50.00 278.72,50.00 279.40,50.00 280.08,50.00 280.76,50.00 281.44,50.00 282.12,50.00 282.81,50.00 283.49,50.00 284.17,50.00 284.85,50.00 285.53,50.00 286.21,50.00 286.89,50.00 287.57,50.00 288.25,50.00 288.93,50.00 289.61,50.00 290.29,50.00 290.97,50.00 291.65,50.00 292.33,50.00 293.01,50.00 293.69,50.00 294.38,50.00 295.06,50.00 295.74,50.00 296.42,50.00 297.10,50.00 297.78,50.00 298.46,50.00 299.14,50.00 299.82,50.00 300.50,50.00 301.18,50.00 301.86,50.00 302.54,50.00 303.22,50.00 303.90,50.00 304.58,50.00 305.26,50.00 305.94,50.00 306.62,50.00 307.31,50.00 307.99,50.00 308.67,50.00 309.35,50.00 310.03,50.00 310.71,50.00 311.39,50.00 312.07,50.00 312.75,50.00 313.43,50.00 314.11,50.00 314.79,50.00 315.47,50.00 316.15,50.00 316.83,50.00 317.51,50.00 318.19,50.00 318.88,50.00 319.56,50.00 320.24,50.00 320.92,50.00 321.60,50.00 322.28,50.00 322.96,50.00 323.64,50.00 324.32,50.00 325.00,50.00 325.68,50.00 326.36,50.00 327.04,50.00 327.72,50.00 328.40,50.00 329.08,50.00 329.76,50.00 330.44,50.00 331.12,50.00 331.81,50.00 332.49,50.00 333.17,50.00 333.85,50.00 334.53,50.00 335.21,50.00 335.89,50.00 336.57,50.00 337.25,50.00 337.93,50.00 338.61,50.00 339.29,50.00 339.97,50.00 340.65,50.00 341.33,50.00 342.01,50.00 342.69,50.00 343.38,50.00 344.06,50.00 344.74,50.00 345.42,50.00 346.10,50.00 346.78,50.00 347.46,50.00 348.14,50.00 348.82,50.00 349.50,50.00 350.18,50.00 350.86,50.00 351.54,50.00 352.22,50.00 352.90,50.00 353.58,50.00 354.26,50.00 354.94,50.00 355.62,50.00 356.31,50.00 356.99,50.00 357.67,50.00 358.35,50.00 359.03,50.00 359.71,50.00 360.39,50.00 361.07,50.00 361.75,50.00 362.43,50.00 363.11,50.00 363.79,50.00 364.47,50.00 365.15,50.00 365.83,50.00 366.51,50.00 367.19,50.00 367.88,50.00 368.56,50.00 369.24,50.00 369.92,50.00 370.60,50.00 371.28,50.00 371.96,50.00 372.64,50.00 373.32,50.00 374.00,50.00 374.68,50.00 375.36,50.00 376.04,50.00 376.72,50.00 377.40,50.00 378.08,50.00 378.76,50.00 379.44,50.00 380.12,50.00 380.81,50.00 381.49,50.00 382.17,50.00 382.85,50.00 383.53,50.00 384.21,50.00 384.89,50.00 385.57,50.00 386.25,50.00 386.93,50.00 387.61,50.00 388.29,50.00 388.97,50.00 389.65,50.00 390.33,50.00 391.01,50.00 391.69,50.00 392.38,50.00 393.06,50.00 393.74,50.00 394.42,50.00 395.10,50.00 395.78,50.00 396.46,50.00 397.14,50.00 397.82,50.00 398.50,50.00 399.18,50.00 399.86,50.00 400.54,50.00 401.22,50.00 401.90,50.00 402.58,50.00 403.26,50.00 403.94,50.00 404.62,50.00 405.31,50.00 405.99,50.00 406.67,50.00 407.35,50.00 408.03,50.00 408.71,50.00 409.39,50.00 410.07,50.00 410.75,50.00 411.43,50.00 412.11,50.00 412.79,50.00 413.47,50.00 414.15,50.00 414.83,50.00 415.51,50.00 416.19,50.00 416.88,50.00 417.56,50.00 418.24,50.00 418.92,50.00 419.60,50.00 420.28,50.00 420.96,50.00 421.64,50.00 422.32,50.00 423.00,50.00 423.68,50.00 424.36,50.00 425.04,50.00 425.72,50.00 426.40,50.00 427.08,50.00 427.76,50.00 428.44,50.00 429.12,50.00 429.81,50.00 430.49,50.00 431.17,50.00 431.85,50.00 432.53,50.00 433.21,50.00 433.89,50.00 434.57,50.00 435.25,50.00 435.93,50.00 436.61,50.00 437.29,50.00 437.97,50.00 438.65,50.00 439.33,620.00 440.01,620.00 440.69,620.00 441.37,620.00 442.06,620.00 442.74,620.00 443.42,620.00 444.10,620.00 444.78,620.00 445.46,620.00 446.14,620.00 446.82,620.00 447.50,620.00 448.18,620.00 448.86,620.00 449.54,620.00 450.22,620.00 450.90,620.00 451.58,620.00 452.26,620.00 452.94,620.00 453.63,620.00 454.31,620.00 454.99,620.00 455.67,620.00 456.35,620.00 457.03,620.00 457.71,620.00 458.39,620.00 459.07,620.00 459.75,620.00 460.43,620.00 461.11,620.00 461.79,620.00 462.47,620.00 463.15,620.00 463.83,620.00 464.51,620.00 465.19,620.00 465.88,620.00 466.56,620.00 467.24,620.00 467.92,620.00 468.60,620.00 469.28,620.00 469.96,620.00 470.64,620.00 471.32,620.00 472.00,620.00 472.68,620.00 473.36,620.00 474.04,620.00 474.72,620.00 475.40,620.00 476.08,620.00 476.76,620.00 477.44,620.00 478.12,620.00 478.81,620.00 479.49,620.00 480.17,620.00 480.85,620.00 481.53,620.00 482.21,620.00 482.89,620.00 483.57,620.00 484.25,620.00 484.93,620.00 485.61,620.00 486.29,620.00 486.97,620.00 487.65,620.00 488.33,620.00 489.01,620.00 489.69,620.00 490.38,620.00 491.06,620.00 491.74,620.00 492.42,620.00 493.10,620.00 493.78,620.00 494.46,620.00 495.14,620.00 495.82,620.00 496.50,620.00 497.18,620.00 497.86,620.00 498.54,620.00 499.22,620.00 499.90,620.00 500.58,620.00 501.26,620.00 501.94,620.00 502.62,620.00 503.31,620.00 503.99,620.00 504.67,620.00 505.35,620.00 506.03,620.00 506.71,620.00 507.39,620.00 508.07,620.00 508.75,620.00 509.43,620.00 510.11,620.00 510.79,620.00 511.47,620.00 512.15,620.00 512.83,620.00 513.51,620.00 514.19,620.00 514.88,620.00 515.56,620.00 516.24,620.00 516.92,620.00 517.60,620.00 518.28,620.00 518.96,620.00 519.64,620.00 520.32,620.00 521.00,620.00 521.68,620.00 522.36,620.00 523.04,620.00 523.72,620.00 524.40,620.00 525.08,620.00 525.76,620.00 526.44,620.00 527.12,620.00 527.81,620.00 528.49,620.00 529.17,620.00 529.85,620.00 530.53,620.00 531.21,620.00 531.89,620.00 532.57,620.00 533.25,620.00 533.93,620.00 534.61,620.00 535.29,620.00 535.97,620.00 536.65,620.00 537.33,620.00 538.01,620.00 538.69,620.00 539.38,620.00 540.06,620.00 540.74,620.00 541.42,620.00 542.10,620.00 542.78,620.00 543.46,620.00 544.14,620.00 544.82,620.00 545.50,620.00 546.18,620.00 546.86,620.00 547.54,620.00 548.22,620.00 548.90,620.00 549.58,620.00 550.26,620.00 550.94,620.00 551.62,620.00 552.31,620.00 552.99,620.00 553.67,620.00 554.35,620.00 555.03,620.00 555.71,620.00 556.39,620.00 557.07,620.00 557.75,620.00 558.43,620.00 559.11,620.00 559.79,620.00 560.47,620.00 561.15,620.00 561.83,620.00 562.51,620.00 563.19,620.00 563.88,620.00 564.56,620.00 565.24,620.00 565.92,620.00 566.60,620.00 567.28,620.00 567.96,620.00 568.64,620.00 569.32,620.00 570.00,620.00 570.68,620.00 571.36,620.00 572.04,620.00 572.72,620.00 573.40,620.00 574.08,620.00 574.76,620.00 575.44,620.00 576.12,620.00 576.81,620.00 577.49,620.00 578.17,620.00 578.85,620.00 579.53,620.00 580.21,620.00 580.89,620.00 581.57,620.00 582.25,620.00 582.93,620.00 583.61,620.00 584.29,620.00 584.97,620.00 585.65,620.00 586.33,620.00 587.01,620.00 587.69,620.00 588.38,620.00 589.06,620.00 589.74,620.00 590.42,620.00 591.10,620.00 591.78,620.00 592.46,620.00 593.14,620.00 593.82,620.00 594.50,620.00 595.18,620.00 595.86,620.00 596.54,620.00 597.22,620.00 597.90,620.00 598.58,620.00 599.26,620.00 599.94,620.00 600.62,620.00 601.31,620.00 601.99,620.00 602.67,620.00 603.35,620.00 604.03,620.00 604.71,620.00 605.39,620.00 606.07,620.00 606.75,620.00 607.43,620.00 608.11,620.00 608.79,620.00 609.47,620.00 610.15,620.00 610.83,620.00 611.51,620.00 612.19,620.00 612.88,620.00 613.56,620.00 614.24,620.00 614.92,620.00 615.60,620.00 616.28,620.00 616.96,620.00 617.64,620.00 618.32,620.00 619.00,620.00 619.68,620.00 620.36,620.00 621.04,620.00 621.72,620.00 622.40,620.00 623.08,620.00 623.76,620.00 624.44,620.00 625.12,620.00 625.81,620.00 626.49,620.00 627.17,620.00 627.85,620.00 628.53,620.00 629.21,620.00 629.89,620.00 630.57,620.00 631.25,620.00 631.93,620.00 632.61,620.00 633.29,620.00 633.97,620.00 634.65,620.00 635.33,620.00 636.01,620.00 636.69,620.00 637.38,620.00 638.06,620.00 638.74,620.00 639.42,620.00 640.10,620.00 640.78,620.00 641.46,620.00 642.14,620.00 642.82,620.00 643.50,620.00 644.18,620.00 644.86,620.00 645.54,620.00 646.22,620.00 646.90,620.00 647.58,620.00 648.26,620.00 648.94,620.00 649.62,620.00 650.31,620.00 650.99,620.00 651.67,620.00 652.35,620.00 653.03,620.00 653.71,620.00 654.39,620.00 655.07,620.00 655.75,620.00 656.43,620.00 657.11,620.00 657.79,620.00 658.47,620.00 659.15,620.00 659.83,620.00 660.51,620.00 661.19,620.00 661.88,620.00 662.56,620.00 663.24,620.00 663.92,620.00 664.60,620.00 665.28,620.00 665.96,620.00 666.64,620.00 667.32,620.00 668.00,620.00 668.68,620.00 669.36,620.00 670.04,620.00 670.72,620.00 671.40,620.00 672.08,620.00 672.76,620.00 673.44,620.00 674.13,620.00 674.81,620.00 675.49,620.00 676.17,620.00 676.85,620.00 677.53,620.00 678.21,620.00 678.89,620.00 679.57,620.00 680.25,620.00 680.93,620.00 681.61,620.00 682.29,620.00 682.97,620.00 683.65,620.00 684.33,620.00 685.01,620.00 685.69,620.00 686.38,620.00 687.06,620.00 687.74,620.00 688.42,620.00 689.10,620.00 689.78,620.00 690.46,620.00 691.14,620.00 691.82,620.00 692.50,620.00 693.18,620.00 693.86,620.00 694.54,620.00 695.22,620.00 695.90,620.00 696.58,620.00 697.26,620.00 697.94,620.00 698.62,620.00 699.31,620.00 699.99,620.00 700.67,620.00 701.35,620.00 702.03,620.00 702.71,620.00 703.39,620.00 704.07,620.00 704.75,620.00 705.43,620.00 706.11,620.00 706.79,620.00 707.47,620.00 708.15,620.00 708.83,620.00 709.51,620.00 710.19,620.00 710.87,620.00 711.56,620.00 712.24,620.00 712.92,620.00 713.60,620.00 714.28,620.00 714.96,620.00 715.64,620.00 716.32,620.00 717.00,620.00 717.68,620.00 718.36,620.00 719.04,620.00 719.72,620.00 720.40,620.00 721.08,620.00 721.76,620.00 722.44,620.00 723.12,620.00 723.81,620.00 724.49,620.00 725.17,620.00 725.85,620.00 726.53,620.00 727.21,620.00 727.89,620.00 728.57,620.00 729.25,620.00 729.93,620.00 730.61,620.00 731.29,620.00 731.97,620.00 732.65,620.00 733.33,620.00 734.01,620.00 734.69,620.00 735.38,620.00 736.06,620.00 736.74,620.00 737.42,620.00 738.10,620.00 738.78,620.00 739.46,620.00 740.14,620.00 740.82,620.00 741.50,620.00 742.18,620.00 742.86,620.00 743.54,620.00 744.22,620.00 744.90,620.00 745.58,620.00 746.26,620.00 746.94,620.00 747.62,620.00 748.31,620.00 748.99,620.00 749.67,620.00 750.35,620.00 751.03,620.00 751.71,620.00 752.39,620.00 753.07,620.00 753.75,620.00 754.43,620.00 755.11,620.00 755.79,620.00 756.47,620.00 757.15,620.00 757.83,620.00 758.51,620.00 759.19,620.00 759.88,620.00 760.56,620.00 761.24,620.00 761.92,620.00 762.60,620.00 763.28,620.00 763.96,620.00 764.64,620.00 765.32,620.00 766.00,620.00 766.68,620.00 767.36,620.00 768.04,620.00 768.72,620.00 769.40,620.00 770.08,620.00 770.76,620.00 771.44,620.00 772.12,620.00 772.81,620.00 773.49,620.00 774.17,620.00 774.85,620.00 775.53,620.00 776.21,620.00 776.89,620.00 777.57,620.00 778.25,620.00 778.93,620.00 779.61,620.00 780.29,620.00 780.97,620.00 781.65,620.00 782.33,620.00 783.01,620.00 783.69,620.00 784.38,620.00 785.06,620.00 785.74,620.00 786.42,620.00 787.10,620.00 787.78,620.00 788.46,620.00 789.14,620.00 789.82,620.00 790.50,620.00 791.18,620.00 791.86,620.00 792.54,620.00 793.22,620.00 793.90,620.00 794.58,620.00 795.26,620.00 795.94,620.00 796.63,620.00 797.31,620.00 797.99,620.00 798.67,620.00 799.35,620.00 800.03,620.00 800.71,620.00 801.39,620.00 802.07,620.00 802.75,620.00 803.43,620.00 804.11,620.00 804.79,620.00 805.47,620.00 806.15,620.00 806.83,620.00 807.51,620.00 808.19,620.00 808.88,620.00 809.56,620.00 810.24,620.00 810.92,620.00 811.60,620.00 812.28,620.00 812.96,620.00 813.64,620.00 814.32,620.00 815.00,620.00 815.68,620.00 816.36,620.00 817.04,620.00 817.72,620.00 818.40,620.00 819.08,620.00 819.76,620.00 820.44,620.00 821.12,620.00 821.81,620.00 822.49,620.00 823.17,620.00 823.85,620.00 824.53,620.00 825.21,620.00 825.89,620.00 826.57,620.00 827.25,620.00 827.93,620.00 828.61,620.00 829.29,620.00 829.97,620.00 830.65,620.00 831.33,620.00 832.01,620.00 832.69,620.00 833.37,620.00 834.06,620.00 834.74,620.00 835.42,620.00 836.10,620.00 836.78,620.00 837.46,620.00 838.14,620.00 838.82,620.00 839.50,620.00 840.18,620.00 840.86,620.00 841.54,620.00 842.22,620.00 842.90,620.00 843.58,620.00 844.26,620.00 844.94,620.00 845.62,620.00 846.31,620.00 846.99,620.00 847.67,620.00 848.35,620.00 849.03,620.00 849.71,620.00 850.39,620.00 851.07,620.00 851.75,620.00 852.43,620.00 853.11,620.00 853.79,620.00 854.47,620.00 855.15,620.00 855.83,620.00 856.51,620.00 857.19,620.00 857.88,620.00 858.56,620.00 859.24,620.00 859.92,620.00 860.60,620.00 861.28,620.00 861.96,620.00 862.64,620.00 863.32,620.00 864.00,620.00 864.68,620.00 865.36,620.00 866.04,620.00 866.72,620.00 867.40,620.00 868.08,620.00 868.76,620.00 869.44,620.00 870.12,620.00 870.81,620.00 871.49,620.00 872.17,620.00 872.85,620.00 873.53,620.00 874.21,620.00 874.89,620.00 875.57,620.00 876.25,620.00 876.93,620.00 877.61,620.00 878.29,620.00 878.97,620.00 879.65,620.00 880.33,620.00 881.01,620.00 881.69,620.00 882.38,620.00 883.06,620.00 883.74,620.00 884.42,620.00 885.10,620.00 885.78,620.00 886.46,620.00 887.14,620.00 887.82,620.00 888.50,620.00 889.18,620.00 889.86,620.00 890.54,620.00 891.22,620.00 891.90,620.00 892.58,620.00 893.26,620.00 893.94,620.00 894.62,620.00 895.31,620.00 895.99,620.00 896.67,620.00 897.35,620.00 898.03,620.00 898.71,620.00 899.39,620.00 900.07,620.00 900.75,620.00 901.43,620.00 902.11,620.00 902.79,620.00 903.47,620.00 904.15,620.00 904.83,620.00 905.51,620.00 906.19,620.00 906.88,620.00 907.56,620.00 908.24,620.00 908.92,620.00 909.60,620.00 910.28,620.00 910.96,620.00 911.64,620.00 912.32,620.00 913.00,620.00 913.68,620.00 914.36,620.00 915.04,620.00 915.72,620.00 916.40,620.00 917.08,620.00 917.76,620.00 918.44,620.00 919.13,620.00 919.81,620.00 920.49,620.00 921.17,620.00 921.85,620.00 922.53,620.00 923.21,620.00 923.89,620.00 924.57,620.00 925.25,620.00 925.93,620.00 926.61,620.00 927.29,620.00 927.97,620.00 928.65,620.00 929.33,620.00 930.01,620.00 930.69,620.00 931.38,620.00 932.06,620.00 932.74,620.00 933.42,620.00 934.10,620.00 934.78,620.00 935.46,620.00 936.14,620.00 936.82,620.00 937.50,620.00 938.18,620.00 938.86,620.00 939.54,620.00 940.22,620.00 940.90,620.00 941.58,620.00 942.26,620.00 942.94,620.00 943.62,620.00 944.31,620.00 944.99,620.00 945.67,620.00 946.35,620.00 947.03,620.00 947.71,620.00 948.39,620.00 949.07,620.00 949.75,620.00 950.43,620.00 951.11,620.00 951.79,620.00 952.47,620.00 953.15,620.00 953.83,620.00 954.51,620.00 955.19,620.00 955.87,620.00 956.56,620.00 957.24,620.00 957.92,620.00 958.60,620.00 959.28,620.00 959.96,620.00 960.64,620.00 961.32,620.00 962.00,620.00 962.68,620.00 963.36,620.00 964.04,620.00 964.72,620.00 965.40,620.00 966.08,620.00 966.76,620.00 967.44,620.00 968.12,620.00 968.81,620.00 969.49,620.00 970.17,620.00 970.85,620.00 971.53,620.00 972.21,620.00 972.89,620.00 973.57,620.00 974.25,620.00 974.93,620.00 975.61,620.00 976.29,620.00 976.97,620.00 977.65,620.00 978.33,620.00 979.01,620.00 979.69,620.00 980.38,620.00 981.06,620.00 981.74,620.00 982.42,620.00 983.10,620.00 983.78,620.00 984.46,620.00 985.14,620.00 985.82,620.00 986.50,620.00 987.18,620.00 987.86,620.00 988.54,620.00 989.22,620.00 989.90,620.00 990.58,620.00 991.26,620.00 991.94,620.00 992.62,620.00 993.31,620.00 993.99,620.00 994.67,620.00 995.35,620.00 996.03,620.00 996.71,620.00 997.39,620.00 998.07,620.00 998.75,620.00 999.43,620.00 1000.11,620.00 1000.79,620.00 1001.47,620.00 1002.15,620.00 1002.83,620.00 1003.51,620.00 1004.19,620.00 1004.88,620.00 1005.56,620.00 1006.24,620.00 1006.92,620.00 1007.60,620.00 1008.28,620.00 1008.96,620.00 1009.64,620.00 1010.32,620.00 1011.00,620.00 1011.68,620.00 1012.36,620.00 1013.04,620.00 1013.72,620.00 1014.40,620.00 1015.08,620.00 1015.76,620.00 1016.44,620.00 1017.12,620.00 1017.81,620.00 1018.49,620.00 1019.17,620.00 1019.85,620.00 1020.53,620.00 1021.21,620.00 1021.89,620.00 1022.57,620.00 1023.25,620.00 1023.93,620.00 1024.61,620.00 1025.29,620.00 1025.97,620.00 1026.65,620.00 1027.33,620.00 1028.01,620.00 1028.69,620.00 1029.38,620.00 1030.06,620.00 1030.74,620.00 1031.42,620.00 1032.10,620.00 1032.78,620.00 1033.46,620.00 1034.14,620.00 1034.82,620.00 1035.50,620.00 1036.18,620.00 1036.86,620.00 1037.54,620.00 1038.22,620.00 1038.90,620.00 1039.58,620.00 1040.26,620.00 1040.94,620.00 1041.62,620.00 1042.31,620.00 1042.99,620.00 1043.67,620.00 1044.35,620.00 1045.03,620.00 1045.71,620.00 1046.39,620.00 1047.07,620.00 1047.75,620.00 1048.43,620.00 1049.11,620.00 1049.79,620.00 1050.47,620.00 1051.15,620.00 1051.83,620.00 1052.51,620.00 1053.19,620.00 1053.88,620.00 1054.56,620.00 1055.24,620.00 1055.92,620.00 1056.60,620.00 1057.28,620.00 1057.96,620.00 1058.64,620.00 1059.32,620.00 1060.00,620.00" fill="none" stroke="#dc2626" stroke-width="2.2" stroke-linejoin="round" stroke-linecap="round"/>
<rect x="880" y="90" width="18" height="4" fill="#dc2626"/>
<text x="904" y="95" font-family="Arial, sans-serif" font-size="15" fill="#111827">KE - KE_0</text>
</svg>
