<svg xmlns="http://www.w3.org/2000/svg" width="1100" height="700" viewBox="0 0 1100 700">
<rect width="100%" height="100%" fill="#f8fafc"/>
<text x="80" y="32" font-family="Arial, sans-serif" font-size="24" fill="#111827">Head-on Elastic Collision (e=1): Conserved Quantities Drift</text>
<line x1="80.00" y1="620.00" x2="1060.00" y2="620.00" stroke="#374151" stroke-width="2"/>
<line x1="80.00" y1="620.00" x2="80.00" y2="50.00" stroke="#374151" stroke-width="2"/>
<text x="550.00" y="672" text-anchor="middle" font-family="Arial, sans-serif" font-size="16" fill="#374151">time (s)</text>
<text x="22" y="350.00" text-anchor="middle" transform="rotate(-90 22 350.00)" font-family="Arial, sans-serif" font-size="16" fill="#374151">drift from initial (J or kg m/s)</text>
<text x="80" y="646" font-family="Arial, sans-serif" font-size="13" fill="#6b7280">0.00</text>
<text x="1060" y="646" text-anchor="end" font-family="Arial, sans-serif" font-size="13" fill="#6b7280">3.00</text>
<text x="68" y="620.00" text-anchor="end" dominant-baseline="middle" font-family="Arial, sans-serif" font-size="13" fill="#6b7280">-1.00</text>
<text x="68" y="50.00" text-anchor="end" dominant-baseline="middle" font-family="Arial, sans-serif" font-size="13" fill="#6b7280">1.00</text>
<line x1="80" y1="335.00" x2="1060" y2="335.00" stroke="#9ca3af" stroke-width="1" stroke-dasharray="4,4"/>
<polyline points="80.00,335.00 80.68,335.00 81.36,335.00 82.04,335.00 82.72,335.00 83.40,335.00 84.08,335.00 84.76,335.00 85.44,335.00 86.12,335.00 86.81,335.00 87.49,335.00 88.17,335.00 88.85,335.00 89.53,335.00 90.21,335.00 90.89,335.00 91.57,335.00 92.25,335.00 92.93,335.00 93.61,335.00 94.29,335.00 94.97,335.00 95.65,335.00 96.33,335.00 97.01,335.00 97.69,335.00 98.38,335.00 99.06,335.00 99.74,335.00 100.42,335.00 101.10,335.00 101.78,335.00 102.46,335.00 103.14,335.00 103.82,335.00 104.50,335.00 105.18,335.00 105.86,335.00 106.54,335.00 107.22,335.00 107.90,335.00 108.58,335.00 109.26,335.00 109.94,335.00 110.62,335.00 111.31,335.00 111.99,335.00 112.67,335.00 113.35,335.00 114.03,335.00 114.71,335.00 115.39,335.00 116.07,335.00 116.75,335.00 117.43,335.00 118.11,335.00 118.79,335.00 119.47,335.00 120.15,335.00 120.83,335.00 121.51,335.00 122.19,335.00 122.88,335.00 123.56,335.00 124.24,335.00 124.92,335.00 125.60,335.00 126.28,335.00 126.96,335.00 127.64,335.00 128.32,335.00 129.00,335.00 129.68,335.00 130.36,335.00 131.04,335.00 131.72,335.00 132.40,335.00 133.08,335.00 133.76,335.00 134.44,335.00 135.12,335.00 135.81,335.00 136.49,335.00 137.17,335.00 137.85,335.00 138.53,335.00 139.21,335.00 139.89,335.00 140.57,335.00 141.25,335.00 141.93,335.00 142.61,335.00 143.29,335.00 143.97,335.00 144.65,335.00 145.33,335.00 146.01,335.00 146.69,335.00 147.38,335.00 148.06,335.00 148.74,335.00 149.42,335.00 150.10,335.00 150.78,335.00 151.46,335.00 152.14,335.00 152.82,335.00 153.50,335.00 154.18,335.00 154.86,335.00 155.54,335.00 156.22,335.00 156.90,335.00 157.58,335.00 158.26,335.00 158.94,335.00 159.62,335.00 160.31,335.00 160.99,335.00 161.67,335.00 162.35,335.00 163.03,335.00 163.71,335.00 164.39,335.00 165.07,335.00 165.75,335.00 166.43,335.00 167.11,335.00 167.79,335.00 168.47,335.00 169.15,335.00 169.83,335.00 170.51,335.00 171.19,335.00 171.88,335.00 172.56,335.00 173.24,335.00 173.92,335.00 174.60,335.00 175.28,335.00 175.96,335.00 176.64,335.00 177.32,335.00 178.00,335.00 178.68,335.00 179.36,335.00 180.04,335.00 180.72,335.00 181.40,335.00 182.08,335.00 182.76,335.00 183.44,335.00 184.12,335.00 184.81,335.00 185.49,335.00 186.17,335.00 186.85,335.00 187.53,335.00 188.21,335.00 188.89,335.00 189.57,335.00 190.25,335.00 190.93,335.00 191.61,335.00 192.29,335.00 192.97,335.00 193.65,335.00 194.33,335.00 195.01,335.00 195.69,335.00 196.38,335.00 197.06,335.00 197.74,335.00 198.42,335.00 199.10,335.00 199.78,335.00 200.46,335.00 201.14,335.00 201.82,335.00 202.50,335.00 203.18,335.00 203.86,335.00 204.54,335.00 205.22,335.00 205.90,335.00 206.58,335.00 207.26,335.00 207.94,335.00 208.62,335.00 209.31,335.00 209.99,335.00 210.67,335.00 211.35,335.00 212.03,335.00 212.71,335.00 213.39,335.00 214.07,335.00 214.75,335.00 215.43,335.00 216.11,335.00 216.79,335.00 217.47,335.00 218.15,335.00 218.83,335.00 219.51,335.00 220.19,335.00 220.88,335.00 221.56,335.00 222.24,335.00 222.92,335.00 223.60,335.00 224.28,335.00 224.96,335.00 225.64,335.00 226.32,335.00 227.00,335.00 227.68,335.00 228.36,335.00 229.04,335.00 229.72,335.00 230.40,335.00 231.08,335.00 231.76,335.00 232.44,335.00 233.12,335.00 233.81,335.00 234.49,335.00 235.17,335.00 235.85,335.00 236.53,335.00 237.21,335.00 237.89,335.00 238.57,335.00 239.25,335.00 239.93,335.00 240.61,335.00 241.29,335.00 241.97,335.00 242.65,335.00 243.33,335.00 244.01,335.00 244.69,335.00 245.37,335.00 246.06,335.00 246.74,335.00 247.42,335.00 248.10,335.00 248.78,335.00 249.46,335.00 250.14,335.00 250.82,335.00 251.50,335.00 252.18,335.00 252.86,335.00 253.54,335.00 254.22,335.00 254.90,335.00 255.58,335.00 256.26,335.00 256.94,335.00 257.62,335.00 258.31,335.00 258.99,335.00 259.67,335.00 260.35,335.00 261.03,335.00 261.71,335.00 262.39,335.00 263.07,335.00 263.75,335.00 264.43,335.00 265.11,335.00 265.79,335.00 266.47,335.00 267.15,335.00 267.83,335.00 268.51,335.00 269.19,335.00 269.88,335.00 270.56,335.00 271.24,335.00 271.92,335.00 272.60,335.00 273.28,335.00 273.96,335.00 274.64,335.00 275.32,335.00 276.00,335.00 276.68,335.00 277.36,335.00 278.04,335.00 278.72,335.00 279.40,335.00 280.08,335.00 280.76,335.00 281.44,335.00 282.12,335.00 282.81,335.00 283.49,335.00 284.17,335.00 284.85,335.00 285.53,335.00 286.21,335.00 286.89,335.00 287.57,335.00 288.25,335.00 288.93,335.00 289.61,335.00 290.29,335.00 290.97,335.00 291.65,335.00 292.33,335.00 293.01,335.00 293.69,335.00 294.38,335.00 295.06,335.00 295.74,335.00 296.42,335.00 297.10,335.00 297.78,335.00 298.46,335.00 299.14,335.00 299.82,335.00 300.50,335.00 301.18,335.00 301.86,335.00 302.54,335.00 303.22,335.00 303.90,335.00 304.58,335.00 305.26,335.00 305.94,335.00 306.62,335.00 307.31,335.00 307.99,335.00 308.67,335.00 309.35,335.00 310.03,335.00 310.71,335.00 311.39,335.00 312.07,335.00 312.75,335.00 313.43,335.00 314.11,335.00 314.79,335.00 315.47,335.00 316.15,335.00 316.83,335.00 317.51,335.00 318.19,335.00 318.88,335.00 319.56,335.00 320.24,335.00 320.92,335.00 321.60,335.00 322.28,335.00 322.96,335.00 323.64,335.00 324.32,335.00 325.00,335.00 325.68,335.00 326.36,335.00 327.04,335.00 327.72,335.00 328.40,335.00 329.08,335.00 329.76,335.00 330.44,335.00 331.12,335.00 331.81,335.00 332.49,335.00 333.17,335.00 333.85,335.00 334.53,335.00 335.21,335.00 335.89,335.00 336.57,335.00 337.25,335.00 337.93,335.00 338.61,335.00 339.29,335.00 339.97,335.00 340.65,335.00 341.33,335.00 342.01,335.00 342.69,335.00 343.38,335.00 344.06,335.00 344.74,335.00 345.42,335.00 346.10,335.00 346.78,335.00 347.46,335.00 348.14,335.00 348.82,335.00 349.50,335.00 350.18,335.00 350.86,335.00 351.54,335.00 352.22,335.00 352.90,335.00 353.58,335.00 354.26,335.00 354.94,335.00 355.62,335.00 356.31,335.00 356.99,335.00 357.67,335.00 358.35,335.00 359.03,335.00 359.71,335.00 360.39,335.00 361.07,335.00 361.75,335.00 362.43,335.00 363.11,335.00 363.79,335.00 364.47,335.00 365.15,335.00 365.83,335.00 366.51,335.00 367.19,335.00 367.88,335.00 368.56,335.00 369.24,335.00 369.92,335.00 370.60,335.00 371.28,335.00 371.96,335.00 372.64,335.00 373.32,335.00 374.00,335.00 374.68,335.00 375.36,335.00 376.04,335.00 376.72,335.00 377.40,335.00 378.08,335.00 378.76,335.00 379.44,335.00 380.12,335.00 380.81,335.00 381.49,335.00 382.17,335.00 382.85,335.00 383.53,335.00 384.21,335.00 384.89,335.00 385.57,335.00 386.25,335.00 386.93,335.00 387.61,335.00 388.29,335.00 388.97,335.00 389.65,335.00 390.33,335.00 391.01,335.00 391.69,335.00 392.38,335.00 393.06,335.00 393.74,335.00 394.42,335.00 395.10,335.00 395.78,335.00 396.46,335.00 397.14,335.00 397.82,335.00 398.50,335.00 399.18,335.00 399.86,335.00 400.54,335.00 401.22,335.00 401.90,335.00 402.58,335.00 403.26,335.00 403.94,335.00 404.62,335.00 405.31,335.00 405.99,335.00 406.67,335.00 407.35,335.00 408.03,335.00 408.71,335.00 409.39,335.00 410.07,335.00 410.75,335.00 411.43,335.00 412.11,335.00 412.79,335.00 413.47,335.00 414.15,335.00 414.83,335.00 415.51,335.00 416.19,335.00 416.88,335.00 417.56,335.00 418.24,335.00 418.92,335.00 419.60,335.00 420.28,335.00 420.96,335.00 421.64,335.00 422.32,335.00 423.00,335.00 423.68,335.00 424.36,335.00 425.04,335.00 425.72,335.00 426.40,335.00 427.08,335.00 427.76,335.00 428.44,335.00 429.12,335.00 429.81,335.00 430.49,335.00 431.17,335.00 431.85,335.00 432.53,335.00 433.21,335.00 433.89,335.00 434.57,335.00 435.25,335.00 435.93,335.00 436.61,335.00 437.29,335.00 437.97,335.00 438.65,335.00 439.33,335.00 440.01,335.00 440.69,335.00 441.37,335.00 442.06,335.00 442.74,335.00 443.42,335.00 444.10,335.00 444.78,335.00 445.46,335.00 446.14,335.00 446.82,335.00 447.50,335.00 448.18,335.00 448.86,335.00 449.54,335.00 450.22,335.00 450.90,335.00 451.58,335.00 452.26,335.00 452.94,335.00 453.63,335.00 454.31,335.00 454.99,335.00 455.67,335.00 456.35,335.00 457.03,335.00 457.71,335.00 458.39,335.00 459.07,335.00 459.75,335.00 460.43,335.00 461.11,335.00 461.79,335.00 462.47,335.00 463.15,335.00 463.83,335.00 464.51,335.00 465.19,335.00 465.88,335.00 466.56,335.00 467.24,335.00 467.92,335.00 468.60,335.00 469.28,335.00 469.96,335.00 470.64,335.00 471.32,335.00 472.00,335.00 472.68,335.00 473.36,335.00 474.04,335.00 474.72,335.00 475.40,335.00 476.08,335.00 476.76,335.00 477.44,335.00 478.12,335.00 478.81,335.00 479.49,335.00 480.17,335.00 480.85,335.00 481.53,335.00 482.21,335.00 482.89,335.00 483.57,335.00 484.25,335.00 484.93,335.00 485.61,335.00 486.29,335.00 486.97,335.00 487.65,335.00 488.33,335.00 489.01,335.00 489.69,335.00 490.38,335.00 491.06,335.00 491.74,335.00 492.42,335.00 493.10,335.00 493.78,335.00 494.46,335.00 495.14,335.00 495.82,335.00 496.50,335.00 497.18,335.00 497.86,335.00 498.54,335.00 499.22,335.00 499.90,335.00 500.58,335.00 501.26,335.00 501.94,335.00 502.62,335.00 503.31,335.00 503.99,335.00 504.67,335.00 505.35,335.00 506.03,335.00 506.71,335.00 507.39,335.00 508.07,335.00 508.75,335.00 509.43,335.00 510.11,335.00 510.79,335.00 511.47,335.00 512.15,335.00 512.83,335.00 513.51,335.00 514.19,335.00 514.88,335.00 515.56,335.00 516.24,335.00 516.92,335.00 517.60,335.00 518.28,335.00 518.96,335.00 519.64,335.00 520.32,335.00 521.00,335.00 521.68,335.00 522.36,335.00 523.04,335.00 523.72,335.00 524.40,335.00 525.08,335.00 525.76,335.00 526.44,335.00 527.12,335.00 527.81,335.00 528.49,335.00 529.17,335.00 529.85,335.00 530.53,335.00 531.21,335.00 531.89,335.00 532.57,335.00 533.25,335.00 533.93,335.00 534.61,335.00 535.29,335.00 535.97,335.00 536.65,335.00 537.33,335.00 538.01,335.00 538.69,335.00 539.38,335.00 540.06,335.00 540.74,335.00 541.42,335.00 542.10,335.00 542.78,335.00 543.46,335.00 544.14,335.00 544.82,335.00 545.50,335.00 546.18,335.00 546.86,335.00 547.54,335.00 548.22,335.00 548.90,335.00 549.58,335.00 550.26,335.00 550.94,335.00 551.62,335.00 552.31,335.00 552.99,335.00 553.67,335.00 554.35,335.00 555.03,335.00 555.71,335.00 556.39,335.00 557.07,335.00 557.75,335.00 558.43,335.00 559.11,335.00 559.79,335.00 560.47,335.00 561.15,335.00 561.83,335.00 562.51,335.00 563.19,335.00 563.88,335.00 564.56,335.00 565.24,335.00 565.92,335.00 566.60,335.00 567.28,335.00 567.96,335.00 568.64,335.00 569.32,335.00 570.00,335.00 570.68,335.00 571.36,335.00 572.04,335.00 572.72,335.00 573.40,335.00 574.08,335.00 574.76,335.00 575.44,335.00 576.12,335.00 576.81,335.00 577.49,335.00 578.17,335.00 578.85,335.00 579.53,335.00 580.21,335.00 580.89,335.00 581.57,335.00 582.25,335.00 582.93,335.00 583.61,335.00 584.29,335.00 584.97,335.00 585.65,335.00 586.33,335.00 587.01,335.00 587.69,335.00 588.38,335.00 589.06,335.00 589.74,335.00 590.42,335.00 591.10,335.00 591.78,335.00 592.46,335.00 593.14,335.00 593.82,335.00 594.50,335.00 595.18,335.00 595.86,335.00 596.54,335.00 597.22,335.00 597.90,335.00 598.58,335.00 599.26,335.00 599.94,335.00 600.62,335.00 601.31,335.00 601.99,335.00 602.67,335.00 603.35,335.00 604.03,335.00 604.71,335.00 605.39,335.00 606.07,335.00 606.75,335.00 607.43,335.00 608.11,335.00 608.79,335.00 609.47,335.00 610.15,335.00 610.83,335.00 611.51,335.00 612.19,335.00 612.88,335.00 613.56,335.00 614.24,335.00 614.92,335.00 615.60,335.00 616.28,335.00 616.96,335.00 617.64,335.00 618.32,335.00 619.00,335.00 619.68,335.00 620.36,335.00 621.04,335.00 621.72,335.00 622.40,335.00 623.08,335.00 623.76,335.00 624.44,335.00 625.12,335.00 625.81,335.00 626.49,335.00 627.17,335.00 627.85,335.00 628.53,335.00 629.21,335.00 629.89,335.00 630.57,335.00 631.25,335.00 631.93,335.00 632.61,335.00 633.29,335.00 633.97,335.00 634.65,335.00 635.33,335.00 636.01,335.00 636.69,335.00 637.38,335.00 638.06,335.00 638.74,335.00 639.42,335.00 640.10,335.00 640.78,335.00 641.46,335.00 642.14,335.00 642.82,335.00 643.50,335.00 644.18,335.00 644.86,335.00 645.54,335.00 646.22,335.00 646.90,335.00 647.58,335.00 648.26,335.00 648.94,335.00 649.62,335.00 650.31,335.00 650.99,335.00 651.67,335.00 652.35,335.00 653.03,335.00 653.71,335.00 654.39,335.00 655.07,335.00 655.75,335.00 656.43,335.00 657.11,335.00 657.79,335.00 658.47,335.00 659.15,335.00 659.83,335.00 660.51,335.00 661.19,335.00 661.88,335.00 662.56,335.00 663.24,335.00 663.92,335.00 664.60,335.00 665.28,335.00 665.96,335.00 666.64,335.00 667.32,335.00 668.00,335.00 668.68,335.00 669.36,335.00 670.04,335.00 670.72,335.00 671.40,335.00 672.08,335.00 672.76,335.00 673.44,335.00 674.13,335.00 674.81,335.00 675.49,335.00 676.17,335.00 676.85,335.00 677.53,335.00 678.21,335.00 678.89,335.00 679.57,335.00 680.25,335.00 680.93,335.00 681.61,335.00 682.29,335.00 682.97,335.00 683.65,335.00 684.33,335.00 685.01,335.00 685.69,335.00 686.38,335.00 687.06,335.00 687.74,335.00 688.42,335.00 689.10,335.00 689.78,335.00 690.46,335.00 691.14,335.00 691.82,335.00 692.50,335.00 693.18,335.00 693.86,335.00 694.54,335.00 695.22,335.00 695.90,335.00 696.58,335.00 697.26,335.00 697.94,335.00 698.62,335.00 699.31,335.00 699.99,335.00 700.67,335.00 701.35,335.00 702.03,335.00 702.71,335.00 703.39,335.00 704.07,335.00 704.75,335.00 705.43,335.00 706.11,335.00 706.79,335.00 707.47,335.00 708.15,335.00 708.83,335.00 709.51,335.00 710.19,335.00 710.87,335.00 711.56,335.00 712.24,335.00 712.92,335.00 713.60,335.00 714.28,335.00 714.96,335.00 715.64,335.00 716.32,335.00 717.00,335.00 717.68,335.00 718.36,335.00 719.04,335.00 719.72,335.00 720.40,335.00 721.08,335.00 721.76,335.00 722.44,335.00 723.12,335.00 723.81,335.00 724.49,335.00 725.17,335.00 725.85,335.00 726.53,335.00 727.21,335.00 727.89,335.00 728.57,335.00 729.25,335.00 729.93,335.00 730.61,335.00 731.29,335.00 731.97,335.00 732.65,335.00 733.33,335.00 734.01,335.00 734.69,335.00 735.38,335.00 736.06,335.00 736.74,335.00 737.42,335.00 738.10,335.00 738.78,335.00 739.46,335.00 740.14,335.00 740.82,335.00 741.50,335.00 742.18,335.00 742.86,335.00 743.54,335.00 744.22,335.00 744.90,335.00 745.58,335.00 746.26,335.00 746.94,335.00 747.62,335.00 748.31,335.00 748.99,335.00 749.67,335.00 750.35,335.00 751.03,335.00 751.71,335.00 752.39,335.00 753.07,335.00 753.75,335.00 754.43,335.00 755.11,335.00 755.79,335.00 756.47,335.00 757.15,335.00 757.83,335.00 758.51,335.00 759.19,335.00 759.88,335.00 760.56,335.00 761.24,335.00 761.92,335.00 762.60,335.00 763.28,335.00 763.96,335.00 764.64,335.00 765.32,335.00 766.00,335.00 766.68,335.00 767.36,335.00 768.04,335.00 768.72,335.00 769.40,335.00 770.08,335.00 770.76,335.00 771.44,335.00 772.12,335.00 772.81,335.00 773.49,335.00 774.17,335.00 774.85,335.00 775.53,335.00 776.21,335.00 776.89,335.00 777.57,335.00 778.25,335.00 778.93,335.00 779.61,335.00 780.29,335.00 780.97,335.00 781.65,335.00 782.33,335.00 783.01,335.00 783.69,335.00 784.38,335.00 785.06,335.00 785.74,335.00 786.42,335.00 787.10,335.00 787.78,335.00 788.46,335.00 789.14,335.00 789.82,335.00 790.50,335.00 791.18,335.00 791.86,335.00 792.54,335.00 793.22,335.00 793.90,335.00 794.58,335.00 795.26,335.00 795.94,335.00 796.63,335.00 797.31,335.00 797.99,335.00 798.67,335.00 799.35,335.00 800.03,335.00 800.71,335.00 801.39,335.00 802.07,335.00 802.75,335.00 803.43,335.00 804.11,335.00 804.79,335.00 805.47,335.00 806.15,335.00 806.83,335.00 807.51,335.00 808.19,335.00 808.88,335.00 809.56,335.00 810.24,335.00 810.92,335.00 811.60,335.00 812.28,335.00 812.96,335.00 813.64,335.00 814.32,335.00 815.00,335.00 815.68,335.00 816.36,335.00 817.04,335.00 817.72,335.00 818.40,335.00 819.08,335.00 819.76,335.00 820.44,335.00 821.12,335.00 821.81,335.00 822.49,335.00 823.17,335.00 823.85,335.00 824.53,335.00 825.21,335.00 825.89,335.00 826.57,335.00 827.25,335.00 827.93,335.00 828.61,335.00 829.29,335.00 829.97,335.00 830.65,335.00 831.33,335.00 832.01,335.00 832.69,335.00 833.37,335.00 834.06,335.00 834.74,335.00 835.42,335.00 836.10,335.00 836.78,335.00 837.46,335.00 838.14,335.00 838.82,335.00 839.50,335.00 840.18,335.00 840.86,335.00 841.54,335.00 842.22,335.00 842.90,335.00 843.58,335.00 844.26,335.00 844.94,335.00 845.62,335.00 846.31,335.00 846.99,335.00 847.67,335.00 848.35,335.00 849.03,335.00 849.71,335.00 850.39,335.00 851.07,335.00 851.75,335.00 852.43,335.00 853.11,335.00 853.79,335.00 854.47,335.00 855.15,335.00 855.83,335.00 856.51,335.00 857.19,335.00 857.88,335.00 858.56,335.00 859.24,335.00 859.92,335.00 860.60,335.00 861.28,335.00 861.96,335.00 862.64,335.00 863.32,335.00 864.00,335.00 864.68,335.00 865.36,335.00 866.04,335.00 866.72,335.00 867.40,335.00 868.08,335.00 868.76,335.00 869.44,335.00 870.12,335.00 870.81,335.00 871.49,335.00 872.17,335.00 872.85,335.00 873.53,335.00 874.21,335.00 874.89,335.00 875.57,335.00 876.25,335.00 876.93,335.00 877.61,335.00 878.29,335.00 878.97,335.00 879.65,335.00 880.33,335.00 881.01,335.00 881.69,335.00 882.38,335.00 883.06,335.00 883.74,335.00 884.42,335.00 885.10,335.00 885.78,335.00 886.46,335.00 887.14,335.00 887.82,335.00 888.50,335.00 889.18,335.00 889.86,335.00 890.54,335.00 891.22,335.00 891.90,335.00 892.58,335.00 893.26,335.00 893.94,335.00 894.62,335.00 895.31,335.00 895.99,335.00 896.67,335.00 897.35,335.00 898.03,335.00 898.71,335.00 899.39,335.00 900.07,335.00 900.75,335.00 901.43,335.00 902.11,335.00 902.79,335.00 903.47,335.00 904.15,335.00 904.83,335.00 905.51,335.00 906.19,335.00 906.88,335.00 907.56,335.00 908.24,335.00 908.92,335.00 909.60,335.00 910.28,335.00 910.96,335.00 911.64,335.00 912.32,335.00 913.00,335.00 913.68,335.00 914.36,335.00 915.04,335.00 915.72,335.00 916.40,335.00 917.08,335.00 917.76,335.00 918.44,335.00 919.13,335.00 919.81,335.00 920.49,335.00 921.17,335.00 921.85,335.00 922.53,335.00 923.21,335.00 923.89,335.00 924.57,335.00 925.25,335.00 925.93,335.00 926.61,335.00 927.29,335.00 927.97,335.00 928.65,335.00 929.33,335.00 930.01,335.00 930.69,335.00 931.38,335.00 932.06,335.00 932.74,335.00 933.42,335.00 934.10,335.00 934.78,335.00 935.46,335.00 936.14,335.00 936.82,335.00 937.50,335.00 938.18,335.00 938.86,335.00 939.54,335.00 940.22,335.00 940.90,335.00 941.58,335.00 942.26,335.00 942.94,335.00 943.62,335.00 944.31,335.00 944.99,335.00 945.67,335.00 946.35,335.00 947.03,335.00 947.71,335.00 948.39,335.00 949.07,335.00 949.75,335.00 950.43,335.00 951.11,335.00 951.79,335.00 952.47,335.00 953.15,335.00 953.83,335.00 954.51,335.00 955.19,335.00 955.87,335.00 956.56,335.00 957.24,335.00 957.92,335.00 958.60,335.00 959.28,335.00 959.96,335.00 960.64,335.00 961.32,335.00 962.00,335.00 962.68,335.00 963.36,335.00 964.04,335.00 964.72,335.00 965.40,335.00 966.08,335.00 966.76,335.00 967.44,335.00 968.12,335.00 968.81,335.00 969.49,335.00 970.17,335.00 970.85,335.00 971.53,335.00 972.21,335.00 972.89,335.00 973.57,335.00 974.25,335.00 974.93,335.00 975.61,335.00 976.29,335.00 976.97,335.00 977.65,335.00 978.33,335.00 979.01,335.00 979.69,335.00 980.38,335.00 981.06,335.00 981.74,335.00 982.42,335.00 983.10,335.00 983.78,335.00 984.46,335.00 985.14,335.00 985.82,335.00 986.50,335.00 987.18,335.00 987.86,335.00 988.54,335.00 989.22,335.00 989.90,335.00 990.58,335.00 991.26,335.00 991.94,335.00 992.62,335.00 993.31,335.00 993.99,335.00 994.67,335.00 995.35,335.00 996.03,335.00 996.71,335.00 997.39,335.00 998.07,335.00 998.75,335.00 999.43,335.00 1000.11,335.00 1000.79,335.00 1001.47,335.00 1002.15,335.00 1002.83,335.00 1003.51,335.00 1004.19,335.00 1004.88,335.00 1005.56,335.00 1006.24,335.00 1006.92,335.00 1007.60,335.00 1008.28,335.00 1008.96,335.00 1009.64,335.00 1010.32,335.00 1011.00,335.00 1011.68,335.00 1012.36,335.00 1013.04,335.00 1013.72,335.00 1014.40,335.00 1015.08,335.00 1015.76,335.00 1016.44,335.00 1017.12,335.00 1017.81,335.00 1018.49,335.00 1019.17,335.00 1019.85,335.00 1020.53,335.00 1021.21,335.00 1021.89,335.00 1022.57,335.00 1023.25,335.00 1023.93,335.00 1024.61,335.00 1025.29,335.00 1025.97,335.00 1026.65,335.00 1027.33,335.00 1028.01,335.00 1028.69,335.00 1029.38,335.00 1030.06,335.00 1030.74,335.00 1031.42,335.00 1032.10,335.00 1032.78,335.00 1033.46,335.00 1034.14,335.00 1034.82,335.00 1035.50,335.00 1036.18,335.00 1036.86,335.00 1037.54,335.00 1038.22,335.00 1038.90,335.00 1039.58,335.00 1040.26,335.00 1040.94,335.00 1041.62,335.00 1042.31,335.00 1042.99,335.00 1043.67,335.00 1044.35,335.00 1045.03,335.00 1045.71,335.00 1046.39,335.00 1047.07,335.00 1047.75,335.00 1048.43,335.00 1049.11,335.00 1049.79,335.00 1050.47,335.00 1051.15,335.00 1051.83,335.00 1052.51,335.00 1053.19,335.00 1053.88,335.00 1054.56,335.00 1055.24,335.00 1055.92,335.00 1056.60,335.00 1057.28,335.00 1057.96,335.00 1058.64,335.00 1059.32,335.00 1060.00,335.00" fill="none" stroke="#7c3aed" stroke-width="2.2" stroke-linejoin="round" stroke-linecap="round"/>
<rect x="880" y="62" width="18" height="4" fill="#7c3aed"/>
<text x="904" y="67" font-family="Arial, sans-serif" font-size="15" fill="#111827">|p| - |p_0|</text>
<polyline points="80.00,335.00 80.68,335.00 81.36,335.00 82.04,335.00 82.72,335.00 83.40,335.00 84.08,335.00 84.76,335.00 85.44,335.00 86.12,335.00 86.81,335.00 87.49,335.00 88.17,335.00 88.85,335.00 89.53,335.00 90.21,335.00 90.89,335.00 91.57,335.00 92.25,335.00 92.93,335.00 93.61,335.00 94.29,335.00 94.97,335.00 95.65,335.00 96.33,335.00 97.01,335.00 97.69,335.00 98.38,335.00 99.06,335.00 99.74,335.00 100.42,335.00 101.10,335.00 101.78,335.00 102.46,335.00 103.14,335.00 103.82,335.00 104.50,335.00 105.18,335.00 105.86,335.00 106.54,335.00 107.22,335.00 107.90,335.00 108.58,335.00 109.26,335.00 109.94,335.00 110.62,335.00 111.31,335.00 111.99,335.00 112.67,335.00 113.35,335.00 114.03,335.00 114.71,335.00 115.39,335.00 116.07,335.00 116.75,335.00 117.43,335.00 118.11,335.00 118.79,335.00 119.47,335.00 120.15,335.00 120.83,335.00 121.51,335.00 122.19,335.00 122.88,335.00 123.56,335.00 124.24,335.00 124.92,335.00 125.60,335.00 126.28,335.00 126.96,335.00 127.64,335.00 128.32,335.00 129.00,335.00 129.68,335.00 130.36,335.00 131.04,335.00 131.72,335.00 132.40,335.00 133.08,335.00 133.76,335.00 134.44,335.00 135.12,335.00 135.81,335.00 136.49,335.00 137.17,335.00 137.85,335.00 138.53,335.00 139.21,335.00 139.89,335.00 140.57,335.00 141.25,335.00 141.93,335.00 142.61,335.00 143.29,335.00 143.97,335.00 144.65,335.00 145.33,335.00 146.01,335.00 146.69,335.00 147.38,335.00 148.06,335.00 148.74,335.00 149.42,335.00 150.10,335.00 150.78,335.00 151.46,335.00 152.14,335.00 152.82,335.00 153.50,335.00 154.18,335.00 154.86,335.00 155.54,335.00 156.22,335.00 156.90,335.00 157.58,335.00 158.26,335.00 158.94,335.00 159.62,335.00 160.31,335.00 160.99,335.00 161.67,335.00 162.35,335.00 163.03,335.00 163.71,335.00 164.39,335.00 165.07,335.00 165.75,335.00 166.43,335.00 167.11,335.00 167.79,335.00 168.47,335.00 169.15,335.00 169.83,335.00 170.51,335.00 171.19,335.00 171.88,335.00 172.56,335.00 173.24,335.00 173.92,335.00 174.60,335.00 175.28,335.00 175.96,335.00 176.64,335.00 177.32,335.00 178.00,335.00 178.68,335.00 179.36,335.00 180.04,335.00 180.72,335.00 181.40,335.00 182.08,335.00 182.76,335.00 183.44,335.00 184.12,335.00 184.81,335.00 185.49,335.00 186.17,335.00 186.85,335.00 187.53,335.00 188.21,335.00 188.89,335.00 189.57,335.00 190.25,335.00 190.93,335.00 191.61,335.00 192.29,335.00 192.97,335.00 193.65,335.00 194.33,335.00 195.01,335.00 195.69,335.00 196.38,335.00 197.06,335.00 197.74,335.00 198.42,335.00 199.10,335.00 199.78,335.00 200.46,335.00 201.14,335.00 201.82,335.00 202.50,335.00 203.18,335.00 203.86,335.00 204.54,335.00 205.22,335.00 205.90,335.00 206.58,335.00 207.26,335.00 207.94,335.00 208.62,335.00 209.31,335.00 209.99,335.00 210.67,335.00 211.35,335.00 212.03,335.00 212.71,335.00 213.39,335.00 214.07,335.00 214.75,335.00 215.43,335.00 216.11,335.00 216.79,335.00 217.47,335.00 218.15,335.00 218.83,335.00 219.51,335.00 220.19,335.00 220.88,335.00 221.56,335.00 222.24,335.00 222.92,335.00 223.60,335.00 224.28,335.00 224.96,335.00 225.64,335.00 226.32,335.00 227.00,335.00 227.68,335.00 228.36,335.00 229.04,335.00 229.72,335.00 230.40,335.00 231.08,335.00 231.76,335.00 232.44,335.00 233.12,335.00 233.81,335.00 234.49,335.00 235.17,335.00 235.85,335.00 236.53,335.00 237.21,335.00 237.89,335.00 238.57,335.00 239.25,335.00 239.93,335.00 240.61,335.00 241.29,335.00 241.97,335.00 242.65,335.00 243.33,335.00 244.01,335.00 244.69,335.00 245.37,335.00 246.06,335.00 246.74,335.00 247.42,335.00 248.10,335.00 248.78,335.00 249.46,335.00 250.14,335.00 250.82,335.00 251.50,335.00 252.18,335.00 252.86,335.00 253.54,335.00 254.22,335.00 254.90,335.00 255.58,335.00 256.26,335.00 256.94,335.00 257.62,335.00 258.31,335.00 258.99,335.00 259.67,335.00 260.35,335.00 261.03,335.00 261.71,335.00 262.39,335.00 263.07,335.00 263.75,335.00 264.43,335.00 265.11,335.00 265.79,335.00 266.47,335.00 267.15,335.00 267.83,335.00 268.51,335.00 269.19,335.00 269.88,335.00 270.56,335.00 271.24,335.00 271.92,335.00 272.60,335.00 273.28,335.00 273.96,335.00 274.64,335.00 275.32,335.00 276.00,335.00 276.68,335.00 277.36,335.00 278.04,335.00 278.72,335.00 279.40,335.00 280.08,335.00 280.76,335.00 281.44,335.00 282.12,335.00 282.81,335.00 283.49,335.00 284.17,335.00 284.85,335.00 285.53,335.00 286.21,335.00 286.89,335.00 287.57,335.00 288.25,335.00 288.93,335.00 289.61,335.00 290.29,335.00 290.97,335.00 291.65,335.00 292.33,335.00 293.01,335.00 293.69,335.00 294.38,335.00 295.06,335.00 295.74,335.00 296.42,335.00 297.10,335.00 297.78,335.00 298.46,335.00 299.14,335.00 299.82,335.00 300.50,335.00 301.18,335.00 301.86,335.00 302.54,335.00 303.22,335.00 303.90,335.00 304.58,335.00 305.26,335.00 305.94,335.00 306.62,335.00 307.31,335.00 307.99,335.00 308.67,335.00 309.35,335.00 310.03,335.00 310.71,335.00 311.39,335.00 312.07,335.00 312.75,335.00 313.43,335.00 314.11,335.00 314.79,335.00 315.47,335.00 316.15,335.00 316.83,335.00 317.51,335.00 318.19,335.00 318.88,335.00 319.56,335.00 320.24,335.00 320.92,335.00 321.60,335.00 322.28,335.00 322.96,335.00 323.64,335.00 324.32,335.00 325.00,335.00 325.68,335.00 326.36,335.00 327.04,335.00 327.72,335.00 328.40,335.00 329.08,335.00 329.76,335.00 330.44,335.00 331.12,335.00 331.81,335.00 332.49,335.00 333.17,335.00 333.85,335.00 334.53,335.00 335.21,335.00 335.89,335.00 336.57,335.00 337.25,335.00 337.93,335.00 338.61,335.00 339.29,335.00 339.97,335.00 340.65,335.00 341.33,335.00 342.01,335.00 342.69,335.00 343.38,335.00 344.06,335.00 344.74,335.00 345.42,335.00 346.10,335.00 346.78,335.00 347.46,335.00 348.14,335.00 348.82,335.00 349.50,335.00 350.18,335.00 350.86,335.00 351.54,335.00 352.22,335.00 352.90,335.00 353.58,335.00 354.26,335.00 354.94,335.00 355.62,335.00 356.31,335.00 356.99,335.00 357.67,335.00 358.35,335.00 359.03,335.00 359.71,335.00 360.39,335.00 361.07,335.00 361.75,335.00 362.43,335.00 363.11,335.00 363.79,335.00 364.47,335.00 365.15,335.00 365.83,335.00 366.51,335.00 367.19,335.00 367.88,335.00 368.56,335.00 369.24,335.00 369.92,335.00 370.60,335.00 371.28,335.00 371.96,335.00 372.64,335.00 373.32,335.00 374.00,335.00 374.68,335.00 375.36,335.00 376.04,335.00 376.72,335.00 377.40,335.00 378.08,335.00 378.76,335.00 379.44,335.00 380.12,335.00 380.81,335.00 381.49,335.00 382.17,335.00 382.85,335.00 383.53,335.00 384.21,335.00 384.89,335.00 385.57,335.00 386.25,335.00 386.93,335.00 387.61,335.00 388.29,335.00 388.97,335.00 389.65,335.00 390.33,335.00 391.01,335.00 391.69,335.00 392.38,335.00 393.06,335.00 393.74,335.00 394.42,335.00 395.10,335.00 395.78,335.00 396.46,335.00 397.14,335.00 397.82,335.00 398.50,335.00 399.18,335.00 399.86,335.00 400.54,335.00 401.22,335.00 401.90,335.00 402.58,335.00 403.26,335.00 403.94,335.00 404.62,335.00 405.31,335.00 405.99,335.00 406.67,335.00 407.35,335.00 408.03,335.00 408.71,335.00 409.39,335.00 410.07,335.00 410.75,335.00 411.43,335.00 412.11,335.00 412.79,335.00 413.47,335.00 414.15,335.00 414.83,335.00 415.51,335.00 416.19,335.00 416.88,335.00 417.56,335.00 418.24,335.00 418.92,335.00 419.60,335.00 420.28,335.00 420.96,335.00 421.64,335.00 422.32,335.00 423.00,335.00 423.68,335.00 424.36,335.00 425.04,335.00 425.72,335.00 426.40,335.00 427.08,335.00 427.76,335.00 428.44,335.00 429.12,335.00 429.81,335.00 430.49,335.00 431.17,335.00 431.85,335.00 432.53,335.00 433.21,335.00 433.89,335.00 434.57,335.00 435.25,335.00 435.93,335.00 436.61,335.00 437.29,335.00 437.97,335.00 438.65,335.00 439.33,335.00 440.01,335.00 440.69,335.00 441.37,335.00 442.06,335.00 442.74,335.00 443.42,335.00 444.10,335.00 444.78,335.00 445.46,335.00 446.14,335.00 446.82,335.00 447.50,335.00 448.18,335.00 448.86,335.00 449.54,335.00 450.22,335.00 450.90,335.00 451.58,335.00 452.26,335.00 452.94,335.00 453.63,335.00 454.31,335.00 454.99,335.00 455.67,335.00 456.35,335.00 457.03,335.00 457.71,335.00 458.39,335.00 459.07,335.00 459.75,335.00 460.43,335.00 461.11,335.00 461.79,335.00 462.47,335.00 463.15,335.00 463.83,335.00 464.51,335.00 465.19,335.00 465.88,335.00 466.56,335.00 467.24,335.00 467.92,335.00 468.60,335.00 469.28,335.00 469.96,335.00 470.64,335.00 471.32,335.00 472.00,335.00 472.68,335.00 473.36,335.00 474.04,335.00 474.72,335.00 475.40,335.00 476.08,335.00 476.76,335.00 477.44,335.00 478.12,335.00 478.81,335.00 479.49,335.00 480.17,335.00 480.85,335.00 481.53,335.00 482.21,335.00 482.89,335.00 483.57,335.00 484.25,335.00 484.93,335.00 485.61,335.00 486.29,335.00 486.97,335.00 487.65,335.00 488.33,335.00 489.01,335.00 489.69,335.00 490.38,335.00 491.06,335.00 491.74,335.00 492.42,335.00 493.10,335.00 493.78,335.00 494.46,335.00 495.14,335.00 495.82,335.00 496.50,335.00 497.18,335.00 497.86,335.00 498.54,335.00 499.22,335.00 499.90,335.00 500.58,335.00 501.26,335.00 501.94,335.00 502.62,335.00 503.31,335.00 503.99,335.00 504.67,335.00 505.35,335.00 506.03,335.00 506.71,335.00 507.39,335.00 508.07,335.00 508.75,335.00 509.43,335.00 510.11,335.00 510.79,335.00 511.47,335.00 512.15,335.00 512.83,335.00 513.51,335.00 514.19,335.00 514.88,335.00 515.56,335.00 516.24,335.00 516.92,335.00 517.60,335.00 518.28,335.00 518.96,335.00 519.64,335.00 520.32,335.00 521.00,335.00 521.68,335.00 522.36,335.00 523.04,335.00 523.72,335.00 524.40,335.00 525.08,335.00 525.76,335.00 526.44,335.00 527.12,335.00 527.81,335.00 528.49,335.00 529.17,335.00 529.85,335.00 530.53,335.00 531.21,335.00 531.89,335.00 532.57,335.00 533.25,335.00 533.93,335.00 534.61,335.00 535.29,335.00 535.97,335.00 536.65,335.00 537.33,335.00 538.01,335.00 538.69,335.00 539.38,335.00 540.06,335.00 540.74,335.00 541.42,335.00 542.10,335.00 542.78,335.00 543.46,335.00 544.14,335.00 544.82,335.00 545.50,335.00 546.18,335.00 546.86,335.00 547.54,335.00 548.22,335.00 548.90,335.00 549.58,335.00 550.26,335.00 550.94,335.00 551.62,335.00 552.31,335.00 552.99,335.00 553.67,335.00 554.35,335.00 555.03,335.00 555.71,335.00 556.39,335.00 557.07,335.00 557.75,335.00 558.43,335.00 559.11,335.00 559.79,335.00 560.47,335.00 561.15,335.00 561.83,335.00 562.51,335.00 563.19,335.00 563.88,335.00 564.56,335.00 565.24,335.00 565.92,335.00 566.60,335.00 567.28,335.00 567.96,335.00 568.64,335.00 569.32,335.00 570.00,335.00 570.68,335.00 571.36,335.00 572.04,335.00 572.72,335.00 573.40,335.00 574.08,335.00 574.76,335.00 575.44,335.00 576.12,335.00 576.81,335.00 577.49,335.00 578.17,335.00 578.85,335.00 579.53,335.00 580.21,335.00 580.89,335.00 581.57,335.00 582.25,335.00 582.93,335.00 583.61,335.00 584.29,335.00 584.97,335.00 585.65,335.00 586.33,335.00 587.01,335.00 587.69,335.00 588.38,335.00 589.06,335.00 589.74,335.00 590.42,335.00 591.10,335.00 591.78,335.00 592.46,335.00 593.14,335.00 593.82,335.00 594.50,335.00 595.18,335.00 595.86,335.00 596.54,335.00 597.22,335.00 597.90,335.00 598.58,335.00 599.26,335.00 599.94,335.00 600.62,335.00 601.31,335.00 601.99,335.00 602.67,335.00 603.35,335.00 604.03,335.00 604.71,335.00 605.39,335.00 606.07,335.00 606.75,335.00 607.43,335.00 608.11,335.00 608.79,335.00 609.47,335.00 610.15,335.00 610.83,335.00 611.51,335.00 612.19,335.00 612.88,335.00 613.56,335.00 614.24,335.00 614.92,335.00 615.60,335.00 616.28,335.00 616.96,335.00 617.64,335.00 618.32,335.00 619.00,335.00 619.68,335.00 620.36,335.00 621.04,335.00 621.72,335.00 622.40,335.00 623.08,335.00 623.76,335.00 624.44,335.00 625.12,335.00 625.81,335.00 626.49,335.00 627.17,335.00 627.85,335.00 628.53,335.00 629.21,335.00 629.89,335.00 630.57,335.00 631.25,335.00 631.93,335.00 632.61,335.00 633.29,335.00 633.97,335.00 634.65,335.00 635.33,335.00 636.01,335.00 636.69,335.00 637.38,335.00 638.06,335.00 638.74,335.00 639.42,335.00 640.10,335.00 640.78,335.00 641.46,335.00 642.14,335.00 642.82,335.00 643.50,335.00 644.18,335.00 644.86,335.00 645.54,335.00 646.22,335.00 646.90,335.00 647.58,335.00 648.26,335.00 648.94,335.00 649.62,335.00 650.31,335.00 650.99,335.00 651.67,335.00 652.35,335.00 653.03,335.00 653.71,335.00 654.39,335.00 655.07,335.00 655.75,335.00 656.43,335.00 657.11,335.00 657.79,335.00 658.47,335.00 659.15,335.00 659.83,335.00 660.51,335.00 661.19,335.00 661.88,335.00 662.56,335.00 663.24,335.00 663.92,335.00 664.60,335.00 665.28,335.00 665.96,335.00 666.64,335.00 667.32,335.00 668.00,335.00 668.68,335.00 669.36,335.00 670.04,335.00 670.72,335.00 671.40,335.00 672.08,335.00 672.76,335.00 673.44,335.00 674.13,335.00 674.81,335.00 675.49,335.00 676.17,335.00 676.85,335.00 677.53,335.00 678.21,335.00 678.89,335.00 679.57,335.00 680.25,335.00 680.93,335.00 681.61,335.00 682.29,335.00 682.97,335.00 683.65,335.00 684.33,335.00 685.01,335.00 685.69,335.00 686.38,335.00 687.06,335.00 687.74,335.00 688.42,335.00 689.10,335.00 689.78,335.00 690.46,335.00 691.14,335.00 691.82,335.00 692.50,335.00 693.18,335.00 693.86,335.00 694.54,335.00 695.22,335.00 695.90,335.00 696.58,335.00 697.26,335.00 697.94,335.00 698.62,335.00 699.31,335.00 699.99,335.00 700.67,335.00 701.35,335.00 702.03,335.00 702.71,335.00 703.39,335.00 704.07,335.00 704.75,335.00 705.43,335.00 706.11,335.00 706.79,335.00 707.47,335.00 708.15,335.00 708.83,335.00 709.51,335.00 710.19,335.00 710.87,335.00 711.56,335.00 712.24,335.00 712.92,335.00 713.60,335.00 714.28,335.00 714.96,335.00 715.64,335.00 716.32,335.00 717.00,335.00 717.68,335.00 718.36,335.00 719.04,335.00 719.72,335.00 720.40,335.00 721.08,335.00 721.76,335.00 722.44,335.00 723.12,335.00 723.81,335.00 724.49,335.00 725.17,335.00 725.85,335.00 726.53,335.00 727.21,335.00 727.89,335.00 728.57,335.00 729.25,335.00 729.93,335.00 730.61,335.00 731.29,335.00 731.97,335.00 732.65,335.00 733.33,335.00 734.01,335.00 734.69,335.00 735.38,335.00 736.06,335.00 736.74,335.00 737.42,335.00 738.10,335.00 738.78,335.00 739.46,335.00 740.14,335.00 740.82,335.00 741.50,335.00 742.18,335.00 742.86,335.00 743.54,335.00 744.22,335.00 744.90,335.00 745.58,335.00 746.26,335.00 746.94,335.00 747.62,335.00 748.31,335.00 748.99,335.00 749.67,335.00 750.35,335.00 751.03,335.00 751.71,335.00 752.39,335.00 753.07,335.00 753.75,335.00 754.43,335.00 755.11,335.00 755.79,335.00 756.47,335.00 757.15,335.00 757.83,335.00 758.51,335.00 759.19,335.00 759.88,335.00 760.56,335.00 761.24,335.00 761.92,335.00 762.60,335.00 763.28,335.00 763.96,335.00 764.64,335.00 765.32,335.00 766.00,335.00 766.68,335.00 767.36,335.00 768.04,335.00 768.72,335.00 769.40,335.00 770.08,335.00 770.76,335.00 771.44,335.00 772.12,335.00 772.81,335.00 773.49,335.00 774.17,335.00 774.85,335.00 775.53,335.00 776.21,335.00 776.89,335.00 777.57,335.00 778.25,335.00 778.93,335.00 779.61,335.00 780.29,335.00 780.97,335.00 781.65,335.00 782.33,335.00 783.01,335.00 783.69,335.00 784.38,335.00 785.06,335.00 785.74,335.00 786.42,335.00 787.10,335.00 787.78,335.00 788.46,335.00 789.14,335.00 789.82,335.00 790.50,335.00 791.18,335.00 791.86,335.00 792.54,335.00 793.22,335.00 793.90,335.00 794.58,335.00 795.26,335.00 795.94,335.00 796.63,335.00 797.31,335.00 797.99,335.00 798.67,335.00 799.35,335.00 800.03,335.00 800.71,335.00 801.39,335.00 802.07,335.00 802.75,335.00 803.43,335.00 804.11,335.00 804.79,335.00 805.47,335.00 806.15,335.00 806.83,335.00 807.51,335.00 808.19,335.00 808.88,335.00 809.56,335.00 810.24,335.00 810.92,335.00 811.60,335.00 812.28,335.00 812.96,335.00 813.64,335.00 814.32,335.00 815.00,335.00 815.68,335.00 816.36,335.00 817.04,335.00 817.72,335.00 818.40,335.00 819.08,335.00 819.76,335.00 820.44,335.00 821.12,335.00 821.81,335.00 822.49,335.00 823.17,335.00 823.85,335.00 824.53,335.00 825.21,335.00 825.89,335.00 826.57,335.00 827.25,335.00 827.93,335.00 828.61,335.00 829.29,335.00 829.97,335.00 830.65,335.00 831.33,335.00 832.01,335.00 832.69,335.00 833.37,335.00 834.06,335.00 834.74,335.00 835.42,335.00 836.10,335.00 836.78,335.00 837.46,335.00 838.14,335.00 838.82,335.00 839.50,335.00 840.18,335.00 840.86,335.00 841.54,335.00 842.22,335.00 842.90,335.00 843.58,335.00 844.26,335.00 844.94,335.00 845.62,335.00 846.31,335.00 846.99,335.00 847.67,335.00 848.35,335.00 849.03,335.00 849.71,335.00 850.39,335.00 851.07,335.00 851.75,335.00 852.43,335.00 853.11,335.00 853.79,335.00 854.47,335.00 855.15,335.00 855.83,335.00 856.51,335.00 857.19,335.00 857.88,335.00 858.56,335.00 859.24,335.00 859.92,335.00 860.60,335.00 861.28,335.00 861.96,335.00 862.64,335.00 863.32,335.00 864.00,335.00 864.68,335.00 865.36,335.00 866.04,335.00 866.72,335.00 867.40,335.00 868.08,335.00 868.76,335.00 869.44,335.00 870.12,335.00 870.81,335.00 871.49,335.00 872.17,335.00 872.85,335.00 873.53,335.00 874.21,335.00 874.89,335.00 875.57,335.00 876.25,335.00 876.93,335.00 877.61,335.00 878.29,335.00 878.97,335.00 879.65,335.00 880.33,335.00 881.01,335.00 881.69,335.00 882.38,335.00 883.06,335.00 883.74,335.00 884.42,335.00 885.10,335.00 885.78,335.00 886.46,335.00 887.14,335.00 887.82,335.00 888.50,335.00 889.18,335.00 889.86,335.00 890.54,335.00 891.22,335.00 891.90,335.00 892.58,335.00 893.26,335.00 893.94,335.00 894.62,335.00 895.31,335.00 895.99,335.00 896.67,335.00 897.35,335.00 898.03,335.00 898.71,335.00 899.39,335.00 900.07,335.00 900.75,335.00 901.43,335.00 902.11,335.00 902.79,335.00 903.47,335.00 904.15,335.00 904.83,335.00 905.51,335.00 906.19,335.00 906.88,335.00 907.56,335.00 908.24,335.00 908.92,335.00 909.60,335.00 910.28,335.00 910.96,335.00 911.64,335.00 912.32,335.00 913.00,335.00 913.68,335.00 914.36,335.00 915.04,335.00 915.72,335.00 916.40,335.00 917.08,335.00 917.76,335.00 918.44,335.00 919.13,335.00 919.81,335.00 920.49,335.00 921.17,335.00 921.85,335.00 922.53,335.00 923.21,335.00 923.89,335.00 924.57,335.00 925.25,335.00 925.93,335.00 926.61,335.00 927.29,335.00 927.97,335.00 928.65,335.00 929.33,335.00 930.01,335.00 930.69,335.00 931.38,335.00 932.06,335.00 932.74,335.00 933.42,335.00 934.10,335.00 934.78,335.00 935.46,335.00 936.14,335.00 936.82,335.00 937.50,335.00 938.18,335.00 938.86,335.00 939.54,335.00 940.22,335.00 940.90,335.00 941.58,335.00 942.26,335.00 942.94,335.00 943.62,335.00 944.31,335.00 944.99,335.00 945.67,335.00 946.35,335.00 947.03,335.00 947.71,335.00 948.39,335.00 949.07,335.00 949.75,335.00 950.43,335.00 951.11,335.00 951.79,335.00 952.47,335.00 953.15,335.00 953.83,335.00 954.51,335.00 955.19,335.00 955.87,335.00 956.56,335.00 957.24,335.00 957.92,335.00 958.60,335.00 959.28,335.00 959.96,335.00 960.64,335.00 961.32,335.00 962.00,335.00 962.68,335.00 963.36,335.00 964.04,335.00 964.72,335.00 965.40,335.00 966.08,335.00 966.76,335.00 967.44,335.00 968.12,335.00 968.81,335.00 969.49,335.00 970.17,335.00 970.85,335.00 971.53,335.00 972.21,335.00 972.89,335.00 973.57,335.00 974.25,335.00 974.93,335.00 975.61,335.00 976.29,335.00 976.97,335.00 977.65,335.00 978.33,335.00 979.01,335.00 979.69,335.00 980.38,335.00 981.06,335.00 981.74,335.00 982.42,335.00 983.10,335.00 983.78,335.00 984.46,335.00 985.14,335.00 985.82,335.00 986.50,335.00 987.18,335.00 987.86,335.00 988.54,335.00 989.22,335.00 989.90,335.00 990.58,335.00 991.26,335.00 991.94,335.00 992.62,335.00 993.31,335.00 993.99,335.00 994.67,335.00 995.35,335.00 996.03,335.00 996.71,335.00 997.39,335.00 998.07,335.00 998.75,335.00 999.43,335.00 1000.11,335.00 1000.79,335.00 1001.47,335.00 1002.15,335.00 1002.83,335.00 1003.51,335.00 1004.19,335.00 1004.88,335.00 1005.56,335.00 1006.24,335.00 1006.92,335.00 1007.60,335.00 1008.28,335.00 1008.96,335.00 1009.64,335.00 1010.32,335.00 1011.00,335.00 1011.68,335.00 1012.36,335.00 1013.04,335.00 1013.72,335.00 1014.40,335.00 1015.08,335.00 1015.76,335.00 1016.44,335.00 1017.12,335.00 1017.81,335.00 1018.49,335.00 1019.17,335.00 1019.85,335.00 1020.53,335.00 1021.21,335.00 1021.89,335.00 1022.57,335.00 1023.25,335.00 1023.93,335.00 1024.61,335.00 1025.29,335.00 1025.97,335.00 1026.65,335.00 1027.33,335.00 1028.01,335.00 1028.69,335.00 1029.38,335.00 1030.06,335.00 1030.74,335.00 1031.42,335.00 1032.10,335.00 1032.78,335.00 1033.46,335.00 1034.14,335.00 1034.82,335.00 1035.50,335.00 1036.18,335.00 1036.86,335.00 1037.54,335.00 1038.22,335.00 1038.90,335.00 1039.58,335.00 1040.26,335.00 1040.94,335.00 1041.62,335.00 1042.31,335.00 1042.99,335.00 1043.67,335.00 1044.35,335.00 1045.03,335.00 1045.71,335.00 1046.39,335.00 1047.07,335.00 1047.75,335.00 1048.43,335.00 1049.11,335.00 1049.79,335.00 1050.47,335.00 1051.15,335.00 1051.83,335.00 1052.51,335.00 1053.19,335.00 1053.88,335.00 1054.56,335.00 1055.24,335.00 1055.92,335.00 1056.60,335.00 1057.28,335.00 1057.96,335.00 1058.64,335.00 1059.32,335.00 1060.00,335.00" fill="none" stroke="#dc2626" stroke-width="2.2" stroke-linejoin="round" stroke-linecap="round"/>
<rect x="880" y="90" width="18" height="4" fill="#dc2626"/>
<text x="904" y="95" font-family="Arial, sans-serif" font-size="15" fill="#111827">KE - KE_0</text>
</svg>
