<svg xmlns="http://www.w3.org/2000/svg" width="1100" height="700" viewBox="0 0 1100 700">
<rect width="100%" height="100%" fill="#f8fafc"/>
<text x="90" y="32" font-family="Arial, sans-serif" font-size="24" fill="#111827">Infinite Square Well Eigenstates</text>
<line x1="90.00" y1="620.00" x2="1060.00" y2="620.00" stroke="#374151" stroke-width="2"/>
<line x1="90.00" y1="620.00" x2="90.00" y2="50.00" stroke="#374151" stroke-width="2"/>
<text x="550.00" y="672" text-anchor="middle" font-family="Arial, sans-serif" font-size="16" fill="#374151">position x</text>
<text x="24" y="350.00" text-anchor="middle" transform="rotate(-90 24 350.00)" font-family="Arial, sans-serif" font-size="16" fill="#374151">energy  (with phi_n drawn at E_n)</text>
<text x="90" y="646" font-family="Arial, sans-serif" font-size="13" fill="#6b7280">0.00</text>
<text x="1060" y="646" text-anchor="end" font-family="Arial, sans-serif" font-size="13" fill="#6b7280">10.00</text>
<text x="78" y="620.00" text-anchor="end" dominant-baseline="middle" font-family="Arial, sans-serif" font-size="13" fill="#6b7280">-0.12</text>
<text x="78" y="50.00" text-anchor="end" dominant-baseline="middle" font-family="Arial, sans-serif" font-size="13" fill="#6b7280">1.58</text>
<polyline points="90.00,580.46 90.95,580.46 91.90,580.46 92.84,580.46 93.79,580.46 94.74,580.46 95.69,580.46 96.64,580.46 97.59,580.46 98.53,580.46 99.48,580.46 100.43,580.46 101.38,580.46 102.33,580.46 103.27,580.46 104.22,580.46 105.17,580.46 106.12,580.46 107.07,580.46 108.02,580.46 108.96,580.46 109.91,580.46 110.86,580.46 111.81,580.46 112.76,580.46 113.70,580.46 114.65,580.46 115.60,580.46 116.55,580.46 117.50,580.46 118.45,580.46 119.39,580.46 120.34,580.46 121.29,580.46 122.24,580.46 123.19,580.46 124.13,580.46 125.08,580.46 126.03,580.46 126.98,580.46 127.93,580.46 128.88,580.46 129.82,580.46 130.77,580.46 131.72,580.46 132.67,580.46 133.62,580.46 134.57,580.46 135.51,580.46 136.46,580.46 137.41,580.46 138.36,580.46 139.31,580.46 140.25,580.46 141.20,580.46 142.15,580.46 143.10,580.46 144.05,580.46 145.00,580.46 145.94,580.46 146.89,580.46 147.84,580.46 148.79,580.46 149.74,580.46 150.68,580.46 151.63,580.46 152.58,580.46 153.53,580.46 154.48,580.46 155.43,580.46 156.37,580.46 157.32,580.46 158.27,580.46 159.22,580.46 160.17,580.46 161.11,580.46 162.06,580.46 163.01,580.46 163.96,580.46 164.91,580.46 165.86,580.46 166.80,580.46 167.75,580.46 168.70,580.46 169.65,580.46 170.60,580.46 171.54,580.46 172.49,580.46 173.44,580.46 174.39,580.46 175.34,580.46 176.29,580.46 177.23,580.46 178.18,580.46 179.13,580.46 180.08,580.46 181.03,580.46 181.97,580.46 182.92,580.46 183.87,580.46 184.82,580.46 185.77,580.46 186.72,580.46 187.66,580.46 188.61,580.46 189.56,580.46 190.51,580.46 191.46,580.46 192.40,580.46 193.35,580.46 194.30,580.46 195.25,580.46 196.20,580.46 197.15,580.46 198.09,580.46 199.04,580.46 199.99,580.46 200.94,580.46 201.89,580.46 202.83,580.46 203.78,580.46 204.73,580.46 205.68,580.46 206.63,580.46 207.58,580.46 208.52,580.46 209.47,580.46 210.42,580.46 211.37,580.46 212.32,580.46 213.26,580.46 214.21,580.46 215.16,580.46 216.11,580.46 217.06,580.46 218.01,580.46 218.95,580.46 219.90,580.46 220.85,580.46 221.80,580.46 222.75,580.46 223.70,580.46 224.64,580.46 225.59,580.46 226.54,580.46 227.49,580.46 228.44,580.46 229.38,580.46 230.33,580.46 231.28,580.46 232.23,580.46 233.18,580.46 234.13,580.46 235.07,580.46 236.02,580.46 236.97,580.46 237.92,580.46 238.87,580.46 239.81,580.46 240.76,580.46 241.71,580.46 242.66,580.46 243.61,580.46 244.56,580.46 245.50,580.46 246.45,580.46 247.40,580.46 248.35,580.46 249.30,580.46 250.24,580.46 251.19,580.46 252.14,580.46 253.09,580.46 254.04,580.46 254.99,580.46 255.93,580.46 256.88,580.46 257.83,580.46 258.78,580.46 259.73,580.46 260.67,580.46 261.62,580.46 262.57,580.46 263.52,580.46 264.47,580.46 265.42,580.46 266.36,580.46 267.31,580.46 268.26,580.46 269.21,580.46 270.16,580.46 271.10,580.46 272.05,580.46 273.00,580.46 273.95,580.46 274.90,580.46 275.85,580.46 276.79,580.46 277.74,580.46 278.69,580.46 279.64,580.46 280.59,580.46 281.53,580.46 282.48,580.46 283.43,580.46 284.38,580.46 285.33,580.46 286.28,580.46 287.22,580.46 288.17,580.46 289.12,580.46 290.07,580.46 291.02,580.46 291.96,580.46 292.91,580.46 293.86,580.46 294.81,580.46 295.76,580.46 296.71,580.46 297.65,580.46 298.60,580.46 299.55,580.46 300.50,580.46 301.45,580.46 302.39,580.46 303.34,580.46 304.29,580.46 305.24,580.46 306.19,580.46 307.14,580.46 308.08,580.46 309.03,580.46 309.98,580.46 310.93,580.46 311.88,580.46 312.83,580.46 313.77,580.46 314.72,580.46 315.67,580.46 316.62,580.46 317.57,580.46 318.51,580.46 319.46,580.46 320.41,580.46 321.36,580.46 322.31,580.46 323.26,580.46 324.20,580.46 325.15,580.46 326.10,580.46 327.05,580.46 328.00,580.46 328.94,580.46 329.89,580.46 330.84,580.46 331.79,580.46 332.74,580.46 333.69,580.46 334.63,580.46 335.58,580.46 336.53,580.46 337.48,580.46 338.43,580.46 339.37,580.46 340.32,580.46 341.27,580.46 342.22,580.46 343.17,580.46 344.12,580.46 345.06,580.46 346.01,580.46 346.96,580.46 347.91,580.46 348.86,580.46 349.80,580.46 350.75,580.46 351.70,580.46 352.65,580.46 353.60,580.46 354.55,580.46 355.49,580.46 356.44,580.46 357.39,580.46 358.34,580.46 359.29,580.46 360.23,580.46 361.18,580.46 362.13,580.46 363.08,580.46 364.03,580.46 364.98,580.46 365.92,580.46 366.87,580.46 367.82,580.46 368.77,580.46 369.72,580.46 370.66,580.46 371.61,580.46 372.56,580.46 373.51,580.46 374.46,580.46 375.41,580.46 376.35,580.46 377.30,580.46 378.25,580.46 379.20,580.46 380.15,580.46 381.09,580.46 382.04,580.46 382.99,580.46 383.94,580.46 384.89,580.46 385.84,580.46 386.78,580.46 387.73,580.46 388.68,580.46 389.63,580.46 390.58,580.46 391.52,580.46 392.47,580.46 393.42,580.46 394.37,580.46 395.32,580.46 396.27,580.46 397.21,580.46 398.16,580.46 399.11,580.46 400.06,580.46 401.01,580.46 401.96,580.46 402.90,580.46 403.85,580.46 404.80,580.46 405.75,580.46 406.70,580.46 407.64,580.46 408.59,580.46 409.54,580.46 410.49,580.46 411.44,580.46 412.39,580.46 413.33,580.46 414.28,580.46 415.23,580.46 416.18,580.46 417.13,580.46 418.07,580.46 419.02,580.46 419.97,580.46 420.92,580.46 421.87,580.46 422.82,580.46 423.76,580.46 424.71,580.46 425.66,580.46 426.61,580.46 427.56,580.46 428.50,580.46 429.45,580.46 430.40,580.46 431.35,580.46 432.30,580.46 433.25,580.46 434.19,580.46 435.14,580.46 436.09,580.46 437.04,580.46 437.99,580.46 438.93,580.46 439.88,580.46 440.83,580.46 441.78,580.46 442.73,580.46 443.68,580.46 444.62,580.46 445.57,580.46 446.52,580.46 447.47,580.46 448.42,580.46 449.36,580.46 450.31,580.46 451.26,580.46 452.21,580.46 453.16,580.46 454.11,580.46 455.05,580.46 456.00,580.46 456.95,580.46 457.90,580.46 458.85,580.46 459.79,580.46 460.74,580.46 461.69,580.46 462.64,580.46 463.59,580.46 464.54,580.46 465.48,580.46 466.43,580.46 467.38,580.46 468.33,580.46 469.28,580.46 470.22,580.46 471.17,580.46 472.12,580.46 473.07,580.46 474.02,580.46 474.97,580.46 475.91,580.46 476.86,580.46 477.81,580.46 478.76,580.46 479.71,580.46 480.65,580.46 481.60,580.46 482.55,580.46 483.50,580.46 484.45,580.46 485.40,580.46 486.34,580.46 487.29,580.46 488.24,580.46 489.19,580.46 490.14,580.46 491.09,580.46 492.03,580.46 492.98,580.46 493.93,580.46 494.88,580.46 495.83,580.46 496.77,580.46 497.72,580.46 498.67,580.46 499.62,580.46 500.57,580.46 501.52,580.46 502.46,580.46 503.41,580.46 504.36,580.46 505.31,580.46 506.26,580.46 507.20,580.46 508.15,580.46 509.10,580.46 510.05,580.46 511.00,580.46 511.95,580.46 512.89,580.46 513.84,580.46 514.79,580.46 515.74,580.46 516.69,580.46 517.63,580.46 518.58,580.46 519.53,580.46 520.48,580.46 521.43,580.46 522.38,580.46 523.32,580.46 524.27,580.46 525.22,580.46 526.17,580.46 527.12,580.46 528.06,580.46 529.01,580.46 529.96,580.46 530.91,580.46 531.86,580.46 532.81,580.46 533.75,580.46 534.70,580.46 535.65,580.46 536.60,580.46 537.55,580.46 538.49,580.46 539.44,580.46 540.39,580.46 541.34,580.46 542.29,580.46 543.24,580.46 544.18,580.46 545.13,580.46 546.08,580.46 547.03,580.46 547.98,580.46 548.92,580.46 549.87,580.46 550.82,580.46 551.77,580.46 552.72,580.46 553.67,580.46 554.61,580.46 555.56,580.46 556.51,580.46 557.46,580.46 558.41,580.46 559.35,580.46 560.30,580.46 561.25,580.46 562.20,580.46 563.15,580.46 564.10,580.46 565.04,580.46 565.99,580.46 566.94,580.46 567.89,580.46 568.84,580.46 569.78,580.46 570.73,580.46 571.68,580.46 572.63,580.46 573.58,580.46 574.53,580.46 575.47,580.46 576.42,580.46 577.37,580.46 578.32,580.46 579.27,580.46 580.22,580.46 581.16,580.46 582.11,580.46 583.06,580.46 584.01,580.46 584.96,580.46 585.90,580.46 586.85,580.46 587.80,580.46 588.75,580.46 589.70,580.46 590.65,580.46 591.59,580.46 592.54,580.46 593.49,580.46 594.44,580.46 595.39,580.46 596.33,580.46 597.28,580.46 598.23,580.46 599.18,580.46 600.13,580.46 601.08,580.46 602.02,580.46 602.97,580.46 603.92,580.46 604.87,580.46 605.82,580.46 606.76,580.46 607.71,580.46 608.66,580.46 609.61,580.46 610.56,580.46 611.51,580.46 612.45,580.46 613.40,580.46 614.35,580.46 615.30,580.46 616.25,580.46 617.19,580.46 618.14,580.46 619.09,580.46 620.04,580.46 620.99,580.46 621.94,580.46 622.88,580.46 623.83,580.46 624.78,580.46 625.73,580.46 626.68,580.46 627.62,580.46 628.57,580.46 629.52,580.46 630.47,580.46 631.42,580.46 632.37,580.46 633.31,580.46 634.26,580.46 635.21,580.46 636.16,580.46 637.11,580.46 638.05,580.46 639.00,580.46 639.95,580.46 640.90,580.46 641.85,580.46 642.80,580.46 643.74,580.46 644.69,580.46 645.64,580.46 646.59,580.46 647.54,580.46 648.48,580.46 649.43,580.46 650.38,580.46 651.33,580.46 652.28,580.46 653.23,580.46 654.17,580.46 655.12,580.46 656.07,580.46 657.02,580.46 657.97,580.46 658.91,580.46 659.86,580.46 660.81,580.46 661.76,580.46 662.71,580.46 663.66,580.46 664.60,580.46 665.55,580.46 666.50,580.46 667.45,580.46 668.40,580.46 669.35,580.46 670.29,580.46 671.24,580.46 672.19,580.46 673.14,580.46 674.09,580.46 675.03,580.46 675.98,580.46 676.93,580.46 677.88,580.46 678.83,580.46 679.78,580.46 680.72,580.46 681.67,580.46 682.62,580.46 683.57,580.46 684.52,580.46 685.46,580.46 686.41,580.46 687.36,580.46 688.31,580.46 689.26,580.46 690.21,580.46 691.15,580.46 692.10,580.46 693.05,580.46 694.00,580.46 694.95,580.46 695.89,580.46 696.84,580.46 697.79,580.46 698.74,580.46 699.69,580.46 700.64,580.46 701.58,580.46 702.53,580.46 703.48,580.46 704.43,580.46 705.38,580.46 706.32,580.46 707.27,580.46 708.22,580.46 709.17,580.46 710.12,580.46 711.07,580.46 712.01,580.46 712.96,580.46 713.91,580.46 714.86,580.46 715.81,580.46 716.75,580.46 717.70,580.46 718.65,580.46 719.60,580.46 720.55,580.46 721.50,580.46 722.44,580.46 723.39,580.46 724.34,580.46 725.29,580.46 726.24,580.46 727.18,580.46 728.13,580.46 729.08,580.46 730.03,580.46 730.98,580.46 731.93,580.46 732.87,580.46 733.82,580.46 734.77,580.46 735.72,580.46 736.67,580.46 737.61,580.46 738.56,580.46 739.51,580.46 740.46,580.46 741.41,580.46 742.36,580.46 743.30,580.46 744.25,580.46 745.20,580.46 746.15,580.46 747.10,580.46 748.04,580.46 748.99,580.46 749.94,580.46 750.89,580.46 751.84,580.46 752.79,580.46 753.73,580.46 754.68,580.46 755.63,580.46 756.58,580.46 757.53,580.46 758.48,580.46 759.42,580.46 760.37,580.46 761.32,580.46 762.27,580.46 763.22,580.46 764.16,580.46 765.11,580.46 766.06,580.46 767.01,580.46 767.96,580.46 768.91,580.46 769.85,580.46 770.80,580.46 771.75,580.46 772.70,580.46 773.65,580.46 774.59,580.46 775.54,580.46 776.49,580.46 777.44,580.46 778.39,580.46 779.34,580.46 780.28,580.46 781.23,580.46 782.18,580.46 783.13,580.46 784.08,580.46 785.02,580.46 785.97,580.46 786.92,580.46 787.87,580.46 788.82,580.46 789.77,580.46 790.71,580.46 791.66,580.46 792.61,580.46 793.56,580.46 794.51,580.46 795.45,580.46 796.40,580.46 797.35,580.46 798.30,580.46 799.25,580.46 800.20,580.46 801.14,580.46 802.09,580.46 803.04,580.46 803.99,580.46 804.94,580.46 805.88,580.46 806.83,580.46 807.78,580.46 808.73,580.46 809.68,580.46 810.63,580.46 811.57,580.46 812.52,580.46 813.47,580.46 814.42,580.46 815.37,580.46 816.31,580.46 817.26,580.46 818.21,580.46 819.16,580.46 820.11,580.46 821.06,580.46 822.00,580.46 822.95,580.46 823.90,580.46 824.85,580.46 825.80,580.46 826.74,580.46 827.69,580.46 828.64,580.46 829.59,580.46 830.54,580.46 831.49,580.46 832.43,580.46 833.38,580.46 834.33,580.46 835.28,580.46 836.23,580.46 837.17,580.46 838.12,580.46 839.07,580.46 840.02,580.46 840.97,580.46 841.92,580.46 842.86,580.46 843.81,580.46 844.76,580.46 845.71,580.46 846.66,580.46 847.61,580.46 848.55,580.46 849.50,580.46 850.45,580.46 851.40,580.46 852.35,580.46 853.29,580.46 854.24,580.46 855.19,580.46 856.14,580.46 857.09,580.46 858.04,580.46 858.98,580.46 859.93,580.46 860.88,580.46 861.83,580.46 862.78,580.46 863.72,580.46 864.67,580.46 865.62,580.46 866.57,580.46 867.52,580.46 868.47,580.46 869.41,580.46 870.36,580.46 871.31,580.46 872.26,580.46 873.21,580.46 874.15,580.46 875.10,580.46 876.05,580.46 877.00,580.46 877.95,580.46 878.90,580.46 879.84,580.46 880.79,580.46 881.74,580.46 882.69,580.46 883.64,580.46 884.58,580.46 885.53,580.46 886.48,580.46 887.43,580.46 888.38,580.46 889.33,580.46 890.27,580.46 891.22,580.46 892.17,580.46 893.12,580.46 894.07,580.46 895.01,580.46 895.96,580.46 896.91,580.46 897.86,580.46 898.81,580.46 899.76,580.46 900.70,580.46 901.65,580.46 902.60,580.46 903.55,580.46 904.50,580.46 905.44,580.46 906.39,580.46 907.34,580.46 908.29,580.46 909.24,580.46 910.19,580.46 911.13,580.46 912.08,580.46 913.03,580.46 913.98,580.46 914.93,580.46 915.87,580.46 916.82,580.46 917.77,580.46 918.72,580.46 919.67,580.46 920.62,580.46 921.56,580.46 922.51,580.46 923.46,580.46 924.41,580.46 925.36,580.46 926.30,580.46 927.25,580.46 928.20,580.46 929.15,580.46 930.10,580.46 931.05,580.46 931.99,580.46 932.94,580.46 933.89,580.46 934.84,580.46 935.79,580.46 936.74,580.46 937.68,580.46 938.63,580.46 939.58,580.46 940.53,580.46 941.48,580.46 942.42,580.46 943.37,580.46 944.32,580.46 945.27,580.46 946.22,580.46 947.17,580.46 948.11,580.46 949.06,580.46 950.01,580.46 950.96,580.46 951.91,580.46 952.85,580.46 953.80,580.46 954.75,580.46 955.70,580.46 956.65,580.46 957.60,580.46 958.54,580.46 959.49,580.46 960.44,580.46 961.39,580.46 962.34,580.46 963.28,580.46 964.23,580.46 965.18,580.46 966.13,580.46 967.08,580.46 968.03,580.46 968.97,580.46 969.92,580.46 970.87,580.46 971.82,580.46 972.77,580.46 973.71,580.46 974.66,580.46 975.61,580.46 976.56,580.46 977.51,580.46 978.46,580.46 979.40,580.46 980.35,580.46 981.30,580.46 982.25,580.46 983.20,580.46 984.14,580.46 985.09,580.46 986.04,580.46 986.99,580.46 987.94,580.46 988.89,580.46 989.83,580.46 990.78,580.46 991.73,580.46 992.68,580.46 993.63,580.46 994.57,580.46 995.52,580.46 996.47,580.46 997.42,580.46 998.37,580.46 999.32,580.46 1000.26,580.46 1001.21,580.46 1002.16,580.46 1003.11,580.46 1004.06,580.46 1005.00,580.46 1005.95,580.46 1006.90,580.46 1007.85,580.46 1008.80,580.46 1009.75,580.46 1010.69,580.46 1011.64,580.46 1012.59,580.46 1013.54,580.46 1014.49,580.46 1015.43,580.46 1016.38,580.46 1017.33,580.46 1018.28,580.46 1019.23,580.46 1020.18,580.46 1021.12,580.46 1022.07,580.46 1023.02,580.46 1023.97,580.46 1024.92,580.46 1025.87,580.46 1026.81,580.46 1027.76,580.46 1028.71,580.46 1029.66,580.46 1030.61,580.46 1031.55,580.46 1032.50,580.46 1033.45,580.46 1034.40,580.46 1035.35,580.46 1036.30,580.46 1037.24,580.46 1038.19,580.46 1039.14,580.46 1040.09,580.46 1041.04,580.46 1041.98,580.46 1042.93,580.46 1043.88,580.46 1044.83,580.46 1045.78,580.46 1046.73,580.46 1047.67,580.46 1048.62,580.46 1049.57,580.46 1050.52,580.46 1051.47,580.46 1052.41,580.46 1053.36,580.46 1054.31,580.46 1055.26,580.46 1056.21,580.46 1057.16,580.46 1058.10,580.46 1059.05,580.46 1060.00,580.46" fill="none" stroke="#374151" stroke-width="2.4"/>
<line x1="90.00" y1="563.99" x2="1060.00" y2="563.99" stroke="#2563eb" stroke-width="0.8" stroke-dasharray="4,4" opacity="0.5"/>
<polyline points="90.00,563.81 90.95,563.63 91.90,563.44 92.84,563.26 93.79,563.08 94.74,562.90 95.69,562.72 96.64,562.54 97.59,562.36 98.53,562.17 99.48,561.99 100.43,561.81 101.38,561.63 102.33,561.45 103.27,561.27 104.22,561.09 105.17,560.91 106.12,560.72 107.07,560.54 108.02,560.36 108.96,560.18 109.91,560.00 110.86,559.82 111.81,559.64 112.76,559.46 113.70,559.28 114.65,559.10 115.60,558.92 116.55,558.73 117.50,558.55 118.45,558.37 119.39,558.19 120.34,558.01 121.29,557.83 122.24,557.65 123.19,557.47 124.13,557.29 125.08,557.11 126.03,556.93 126.98,556.75 127.93,556.57 128.88,556.39 129.82,556.21 130.77,556.03 131.72,555.85 132.67,555.67 133.62,555.49 134.57,555.31 135.51,555.13 136.46,554.95 137.41,554.78 138.36,554.60 139.31,554.42 140.25,554.24 141.20,554.06 142.15,553.88 143.10,553.70 144.05,553.52 145.00,553.34 145.94,553.17 146.89,552.99 147.84,552.81 148.79,552.63 149.74,552.45 150.68,552.28 151.63,552.10 152.58,551.92 153.53,551.74 154.48,551.57 155.43,551.39 156.37,551.21 157.32,551.03 158.27,550.86 159.22,550.68 160.17,550.50 161.11,550.33 162.06,550.15 163.01,549.97 163.96,549.80 164.91,549.62 165.86,549.45 166.80,549.27 167.75,549.09 168.70,548.92 169.65,548.74 170.60,548.57 171.54,548.39 172.49,548.22 173.44,548.04 174.39,547.87 175.34,547.69 176.29,547.52 177.23,547.35 178.18,547.17 179.13,547.00 180.08,546.82 181.03,546.65 181.97,546.48 182.92,546.30 183.87,546.13 184.82,545.96 185.77,545.79 186.72,545.61 187.66,545.44 188.61,545.27 189.56,545.10 190.51,544.92 191.46,544.75 192.40,544.58 193.35,544.41 194.30,544.24 195.25,544.07 196.20,543.90 197.15,543.73 198.09,543.56 199.04,543.39 199.99,543.22 200.94,543.05 201.89,542.88 202.83,542.71 203.78,542.54 204.73,542.37 205.68,542.20 206.63,542.03 207.58,541.86 208.52,541.69 209.47,541.53 210.42,541.36 211.37,541.19 212.32,541.02 213.26,540.86 214.21,540.69 215.16,540.52 216.11,540.36 217.06,540.19 218.01,540.02 218.95,539.86 219.90,539.69 220.85,539.53 221.80,539.36 222.75,539.20 223.70,539.03 224.64,538.87 225.59,538.70 226.54,538.54 227.49,538.38 228.44,538.21 229.38,538.05 230.33,537.89 231.28,537.72 232.23,537.56 233.18,537.40 234.13,537.24 235.07,537.07 236.02,536.91 236.97,536.75 237.92,536.59 238.87,536.43 239.81,536.27 240.76,536.11 241.71,535.95 242.66,535.79 243.61,535.63 244.56,535.47 245.50,535.31 246.45,535.15 247.40,534.99 248.35,534.84 249.30,534.68 250.24,534.52 251.19,534.36 252.14,534.21 253.09,534.05 254.04,533.89 254.99,533.74 255.93,533.58 256.88,533.43 257.83,533.27 258.78,533.12 259.73,532.96 260.67,532.81 261.62,532.65 262.57,532.50 263.52,532.34 264.47,532.19 265.42,532.04 266.36,531.89 267.31,531.73 268.26,531.58 269.21,531.43 270.16,531.28 271.10,531.13 272.05,530.98 273.00,530.82 273.95,530.67 274.90,530.52 275.85,530.37 276.79,530.23 277.74,530.08 278.69,529.93 279.64,529.78 280.59,529.63 281.53,529.48 282.48,529.34 283.43,529.19 284.38,529.04 285.33,528.90 286.28,528.75 287.22,528.60 288.17,528.46 289.12,528.31 290.07,528.17 291.02,528.02 291.96,527.88 292.91,527.74 293.86,527.59 294.81,527.45 295.76,527.31 296.71,527.16 297.65,527.02 298.60,526.88 299.55,526.74 300.50,526.60 301.45,526.46 302.39,526.32 303.34,526.18 304.29,526.04 305.24,525.90 306.19,525.76 307.14,525.62 308.08,525.48 309.03,525.34 309.98,525.21 310.93,525.07 311.88,524.93 312.83,524.80 313.77,524.66 314.72,524.53 315.67,524.39 316.62,524.26 317.57,524.12 318.51,523.99 319.46,523.85 320.41,523.72 321.36,523.59 322.31,523.45 323.26,523.32 324.20,523.19 325.15,523.06 326.10,522.93 327.05,522.80 328.00,522.67 328.94,522.54 329.89,522.41 330.84,522.28 331.79,522.15 332.74,522.02 333.69,521.89 334.63,521.76 335.58,521.64 336.53,521.51 337.48,521.38 338.43,521.26 339.37,521.13 340.32,521.01 341.27,520.88 342.22,520.76 343.17,520.63 344.12,520.51 345.06,520.39 346.01,520.26 346.96,520.14 347.91,520.02 348.86,519.90 349.80,519.78 350.75,519.66 351.70,519.53 352.65,519.41 353.60,519.30 354.55,519.18 355.49,519.06 356.44,518.94 357.39,518.82 358.34,518.70 359.29,518.59 360.23,518.47 361.18,518.35 362.13,518.24 363.08,518.12 364.03,518.01 364.98,517.89 365.92,517.78 366.87,517.67 367.82,517.55 368.77,517.44 369.72,517.33 370.66,517.22 371.61,517.11 372.56,516.99 373.51,516.88 374.46,516.77 375.41,516.66 376.35,516.55 377.30,516.45 378.25,516.34 379.20,516.23 380.15,516.12 381.09,516.02 382.04,515.91 382.99,515.80 383.94,515.70 384.89,515.59 385.84,515.49 386.78,515.38 387.73,515.28 388.68,515.18 389.63,515.07 390.58,514.97 391.52,514.87 392.47,514.77 393.42,514.67 394.37,514.57 395.32,514.47 396.27,514.37 397.21,514.27 398.16,514.17 399.11,514.07 400.06,513.97 401.01,513.87 401.96,513.78 402.90,513.68 403.85,513.59 404.80,513.49 405.75,513.39 406.70,513.30 407.64,513.21 408.59,513.11 409.54,513.02 410.49,512.93 411.44,512.83 412.39,512.74 413.33,512.65 414.28,512.56 415.23,512.47 416.18,512.38 417.13,512.29 418.07,512.20 419.02,512.12 419.97,512.03 420.92,511.94 421.87,511.85 422.82,511.77 423.76,511.68 424.71,511.60 425.66,511.51 426.61,511.43 427.56,511.34 428.50,511.26 429.45,511.18 430.40,511.09 431.35,511.01 432.30,510.93 433.25,510.85 434.19,510.77 435.14,510.69 436.09,510.61 437.04,510.53 437.99,510.45 438.93,510.38 439.88,510.30 440.83,510.22 441.78,510.14 442.73,510.07 443.68,509.99 444.62,509.92 445.57,509.84 446.52,509.77 447.47,509.70 448.42,509.62 449.36,509.55 450.31,509.48 451.26,509.41 452.21,509.34 453.16,509.27 454.11,509.20 455.05,509.13 456.00,509.06 456.95,508.99 457.90,508.92 458.85,508.86 459.79,508.79 460.74,508.72 461.69,508.66 462.64,508.59 463.59,508.53 464.54,508.46 465.48,508.40 466.43,508.34 467.38,508.28 468.33,508.21 469.28,508.15 470.22,508.09 471.17,508.03 472.12,507.97 473.07,507.91 474.02,507.85 474.97,507.79 475.91,507.74 476.86,507.68 477.81,507.62 478.76,507.57 479.71,507.51 480.65,507.45 481.60,507.40 482.55,507.35 483.50,507.29 484.45,507.24 485.40,507.19 486.34,507.14 487.29,507.08 488.24,507.03 489.19,506.98 490.14,506.93 491.09,506.88 492.03,506.83 492.98,506.79 493.93,506.74 494.88,506.69 495.83,506.64 496.77,506.60 497.72,506.55 498.67,506.51 499.62,506.46 500.57,506.42 501.52,506.38 502.46,506.33 503.41,506.29 504.36,506.25 505.31,506.21 506.26,506.17 507.20,506.13 508.15,506.09 509.10,506.05 510.05,506.01 511.00,505.97 511.95,505.93 512.89,505.90 513.84,505.86 514.79,505.83 515.74,505.79 516.69,505.76 517.63,505.72 518.58,505.69 519.53,505.65 520.48,505.62 521.43,505.59 522.38,505.56 523.32,505.53 524.27,505.50 525.22,505.47 526.17,505.44 527.12,505.41 528.06,505.38 529.01,505.35 529.96,505.33 530.91,505.30 531.86,505.28 532.81,505.25 533.75,505.22 534.70,505.20 535.65,505.18 536.60,505.15 537.55,505.13 538.49,505.11 539.44,505.09 540.39,505.07 541.34,505.05 542.29,505.03 543.24,505.01 544.18,504.99 545.13,504.97 546.08,504.95 547.03,504.94 547.98,504.92 548.92,504.90 549.87,504.89 550.82,504.87 551.77,504.86 552.72,504.84 553.67,504.83 554.61,504.82 555.56,504.81 556.51,504.80 557.46,504.78 558.41,504.77 559.35,504.76 560.30,504.75 561.25,504.75 562.20,504.74 563.15,504.73 564.10,504.72 565.04,504.72 565.99,504.71 566.94,504.71 567.89,504.70 568.84,504.70 569.78,504.69 570.73,504.69 571.68,504.69 572.63,504.68 573.58,504.68 574.53,504.68 575.47,504.68 576.42,504.68 577.37,504.68 578.32,504.68 579.27,504.69 580.22,504.69 581.16,504.69 582.11,504.69 583.06,504.70 584.01,504.70 584.96,504.71 585.90,504.71 586.85,504.72 587.80,504.73 588.75,504.73 589.70,504.74 590.65,504.75 591.59,504.76 592.54,504.77 593.49,504.78 594.44,504.79 595.39,504.80 596.33,504.81 597.28,504.83 598.23,504.84 599.18,504.85 600.13,504.87 601.08,504.88 602.02,504.90 602.97,504.91 603.92,504.93 604.87,504.95 605.82,504.96 606.76,504.98 607.71,505.00 608.66,505.02 609.61,505.04 610.56,505.06 611.51,505.08 612.45,505.10 613.40,505.12 614.35,505.15 615.30,505.17 616.25,505.19 617.19,505.22 618.14,505.24 619.09,505.27 620.04,505.29 620.99,505.32 621.94,505.34 622.88,505.37 623.83,505.40 624.78,505.43 625.73,505.46 626.68,505.49 627.62,505.52 628.57,505.55 629.52,505.58 630.47,505.61 631.42,505.64 632.37,505.68 633.31,505.71 634.26,505.74 635.21,505.78 636.16,505.81 637.11,505.85 638.05,505.88 639.00,505.92 639.95,505.96 640.90,506.00 641.85,506.03 642.80,506.07 643.74,506.11 644.69,506.15 645.64,506.19 646.59,506.23 647.54,506.28 648.48,506.32 649.43,506.36 650.38,506.40 651.33,506.45 652.28,506.49 653.23,506.54 654.17,506.58 655.12,506.63 656.07,506.67 657.02,506.72 657.97,506.77 658.91,506.82 659.86,506.87 660.81,506.92 661.76,506.97 662.71,507.02 663.66,507.07 664.60,507.12 665.55,507.17 666.50,507.22 667.45,507.27 668.40,507.33 669.35,507.38 670.29,507.44 671.24,507.49 672.19,507.55 673.14,507.60 674.09,507.66 675.03,507.72 675.98,507.77 676.93,507.83 677.88,507.89 678.83,507.95 679.78,508.01 680.72,508.07 681.67,508.13 682.62,508.19 683.57,508.26 684.52,508.32 685.46,508.38 686.41,508.44 687.36,508.51 688.31,508.57 689.26,508.64 690.21,508.70 691.15,508.77 692.10,508.84 693.05,508.90 694.00,508.97 694.95,509.04 695.89,509.11 696.84,509.18 697.79,509.25 698.74,509.32 699.69,509.39 700.64,509.46 701.58,509.53 702.53,509.60 703.48,509.68 704.43,509.75 705.38,509.82 706.32,509.90 707.27,509.97 708.22,510.05 709.17,510.12 710.12,510.20 711.07,510.28 712.01,510.35 712.96,510.43 713.91,510.51 714.86,510.59 715.81,510.67 716.75,510.75 717.70,510.83 718.65,510.91 719.60,510.99 720.55,511.07 721.50,511.16 722.44,511.24 723.39,511.32 724.34,511.41 725.29,511.49 726.24,511.58 727.18,511.66 728.13,511.75 729.08,511.83 730.03,511.92 730.98,512.01 731.93,512.10 732.87,512.18 733.82,512.27 734.77,512.36 735.72,512.45 736.67,512.54 737.61,512.63 738.56,512.72 739.51,512.82 740.46,512.91 741.41,513.00 742.36,513.09 743.30,513.19 744.25,513.28 745.20,513.38 746.15,513.47 747.10,513.57 748.04,513.66 748.99,513.76 749.94,513.86 750.89,513.95 751.84,514.05 752.79,514.15 753.73,514.25 754.68,514.35 755.63,514.45 756.58,514.55 757.53,514.65 758.48,514.75 759.42,514.85 760.37,514.95 761.32,515.06 762.27,515.16 763.22,515.26 764.16,515.37 765.11,515.47 766.06,515.58 767.01,515.68 767.96,515.79 768.91,515.89 769.85,516.00 770.80,516.11 771.75,516.22 772.70,516.32 773.65,516.43 774.59,516.54 775.54,516.65 776.49,516.76 777.44,516.87 778.39,516.98 779.34,517.09 780.28,517.21 781.23,517.32 782.18,517.43 783.13,517.54 784.08,517.66 785.02,517.77 785.97,517.88 786.92,518.00 787.87,518.11 788.82,518.23 789.77,518.35 790.71,518.46 791.66,518.58 792.61,518.70 793.56,518.81 794.51,518.93 795.45,519.05 796.40,519.17 797.35,519.29 798.30,519.41 799.25,519.53 800.20,519.65 801.14,519.77 802.09,519.89 803.04,520.01 803.99,520.14 804.94,520.26 805.88,520.38 806.83,520.51 807.78,520.63 808.73,520.75 809.68,520.88 810.63,521.00 811.57,521.13 812.52,521.26 813.47,521.38 814.42,521.51 815.37,521.64 816.31,521.76 817.26,521.89 818.21,522.02 819.16,522.15 820.11,522.28 821.06,522.41 822.00,522.54 822.95,522.67 823.90,522.80 824.85,522.93 825.80,523.06 826.74,523.19 827.69,523.33 828.64,523.46 829.59,523.59 830.54,523.73 831.49,523.86 832.43,523.99 833.38,524.13 834.33,524.26 835.28,524.40 836.23,524.54 837.17,524.67 838.12,524.81 839.07,524.94 840.02,525.08 840.97,525.22 841.92,525.36 842.86,525.50 843.81,525.63 844.76,525.77 845.71,525.91 846.66,526.05 847.61,526.19 848.55,526.33 849.50,526.47 850.45,526.62 851.40,526.76 852.35,526.90 853.29,527.04 854.24,527.18 855.19,527.33 856.14,527.47 857.09,527.61 858.04,527.76 858.98,527.90 859.93,528.05 860.88,528.19 861.83,528.34 862.78,528.48 863.72,528.63 864.67,528.77 865.62,528.92 866.57,529.07 867.52,529.22 868.47,529.36 869.41,529.51 870.36,529.66 871.31,529.81 872.26,529.96 873.21,530.11 874.15,530.26 875.10,530.41 876.05,530.56 877.00,530.71 877.95,530.86 878.90,531.01 879.84,531.16 880.79,531.31 881.74,531.46 882.69,531.62 883.64,531.77 884.58,531.92 885.53,532.08 886.48,532.23 887.43,532.38 888.38,532.54 889.33,532.69 890.27,532.85 891.22,533.00 892.17,533.16 893.12,533.31 894.07,533.47 895.01,533.63 895.96,533.78 896.91,533.94 897.86,534.10 898.81,534.25 899.76,534.41 900.70,534.57 901.65,534.73 902.60,534.89 903.55,535.05 904.50,535.20 905.44,535.36 906.39,535.52 907.34,535.68 908.29,535.84 909.24,536.00 910.19,536.16 911.13,536.33 912.08,536.49 913.03,536.65 913.98,536.81 914.93,536.97 915.87,537.13 916.82,537.30 917.77,537.46 918.72,537.62 919.67,537.79 920.62,537.95 921.56,538.11 922.51,538.28 923.46,538.44 924.41,538.61 925.36,538.77 926.30,538.94 927.25,539.10 928.20,539.27 929.15,539.43 930.10,539.60 931.05,539.76 931.99,539.93 932.94,540.10 933.89,540.26 934.84,540.43 935.79,540.60 936.74,540.77 937.68,540.93 938.63,541.10 939.58,541.27 940.53,541.44 941.48,541.61 942.42,541.77 943.37,541.94 944.32,542.11 945.27,542.28 946.22,542.45 947.17,542.62 948.11,542.79 949.06,542.96 950.01,543.13 950.96,543.30 951.91,543.47 952.85,543.64 953.80,543.82 954.75,543.99 955.70,544.16 956.65,544.33 957.60,544.50 958.54,544.67 959.49,544.85 960.44,545.02 961.39,545.19 962.34,545.36 963.28,545.54 964.23,545.71 965.18,545.88 966.13,546.06 967.08,546.23 968.03,546.41 968.97,546.58 969.92,546.75 970.87,546.93 971.82,547.10 972.77,547.28 973.71,547.45 974.66,547.63 975.61,547.80 976.56,547.98 977.51,548.15 978.46,548.33 979.40,548.50 980.35,548.68 981.30,548.86 982.25,549.03 983.20,549.21 984.14,549.39 985.09,549.56 986.04,549.74 986.99,549.92 987.94,550.09 988.89,550.27 989.83,550.45 990.78,550.62 991.73,550.80 992.68,550.98 993.63,551.16 994.57,551.34 995.52,551.51 996.47,551.69 997.42,551.87 998.37,552.05 999.32,552.23 1000.26,552.40 1001.21,552.58 1002.16,552.76 1003.11,552.94 1004.06,553.12 1005.00,553.30 1005.95,553.48 1006.90,553.66 1007.85,553.84 1008.80,554.02 1009.75,554.20 1010.69,554.38 1011.64,554.56 1012.59,554.74 1013.54,554.92 1014.49,555.10 1015.43,555.28 1016.38,555.46 1017.33,555.64 1018.28,555.82 1019.23,556.00 1020.18,556.18 1021.12,556.36 1022.07,556.54 1023.02,556.72 1023.97,556.90 1024.92,557.08 1025.87,557.26 1026.81,557.44 1027.76,557.62 1028.71,557.81 1029.66,557.99 1030.61,558.17 1031.55,558.35 1032.50,558.53 1033.45,558.71 1034.40,558.89 1035.35,559.08 1036.30,559.26 1037.24,559.44 1038.19,559.62 1039.14,559.80 1040.09,559.98 1041.04,560.17 1041.98,560.35 1042.93,560.53 1043.88,560.71 1044.83,560.89 1045.78,561.07 1046.73,561.26 1047.67,561.44 1048.62,561.62 1049.57,561.80 1050.52,561.98 1051.47,562.17 1052.41,562.35 1053.36,562.53 1054.31,562.71 1055.26,562.90 1056.21,563.08 1057.16,563.26 1058.10,563.44 1059.05,563.62 1060.00,563.81" fill="none" stroke="#2563eb" stroke-width="1.8"/>
<text x="96" y="559.99" font-family="Arial, sans-serif" font-size="12" fill="#2563eb">n=0, E=0.049</text>
<line x1="90.00" y1="514.57" x2="1060.00" y2="514.57" stroke="#dc2626" stroke-width="0.8" stroke-dasharray="4,4" opacity="0.5"/>
<polyline points="90.00,514.20 90.95,513.84 91.90,513.47 92.84,513.11 93.79,512.75 94.74,512.38 95.69,512.02 96.64,511.66 97.59,511.29 98.53,510.93 99.48,510.57 100.43,510.21 101.38,509.84 102.33,509.48 103.27,509.12 104.22,508.76 105.17,508.39 106.12,508.03 107.07,507.67 108.02,507.31 108.96,506.95 109.91,506.59 110.86,506.23 111.81,505.87 112.76,505.51 113.70,505.15 114.65,504.79 115.60,504.43 116.55,504.08 117.50,503.72 118.45,503.36 119.39,503.00 120.34,502.65 121.29,502.29 122.24,501.94 123.19,501.58 124.13,501.23 125.08,500.87 126.03,500.52 126.98,500.16 127.93,499.81 128.88,499.46 129.82,499.11 130.77,498.76 131.72,498.41 132.67,498.06 133.62,497.71 134.57,497.36 135.51,497.01 136.46,496.67 137.41,496.32 138.36,495.97 139.31,495.63 140.25,495.29 141.20,494.94 142.15,494.60 143.10,494.26 144.05,493.92 145.00,493.58 145.94,493.24 146.89,492.90 147.84,492.56 148.79,492.22 149.74,491.88 150.68,491.55 151.63,491.21 152.58,490.88 153.53,490.55 154.48,490.22 155.43,489.88 156.37,489.55 157.32,489.23 158.27,488.90 159.22,488.57 160.17,488.24 161.11,487.92 162.06,487.59 163.01,487.27 163.96,486.95 164.91,486.63 165.86,486.31 166.80,485.99 167.75,485.67 168.70,485.35 169.65,485.04 170.60,484.72 171.54,484.41 172.49,484.09 173.44,483.78 174.39,483.47 175.34,483.16 176.29,482.86 177.23,482.55 178.18,482.24 179.13,481.94 180.08,481.64 181.03,481.33 181.97,481.03 182.92,480.74 183.87,480.44 184.82,480.14 185.77,479.84 186.72,479.55 187.66,479.26 188.61,478.97 189.56,478.68 190.51,478.39 191.46,478.10 192.40,477.81 193.35,477.53 194.30,477.25 195.25,476.96 196.20,476.68 197.15,476.40 198.09,476.13 199.04,475.85 199.99,475.58 200.94,475.30 201.89,475.03 202.83,474.76 203.78,474.49 204.73,474.22 205.68,473.96 206.63,473.69 207.58,473.43 208.52,473.17 209.47,472.91 210.42,472.65 211.37,472.40 212.32,472.14 213.26,471.89 214.21,471.64 215.16,471.39 216.11,471.14 217.06,470.89 218.01,470.65 218.95,470.40 219.90,470.16 220.85,469.92 221.80,469.68 222.75,469.44 223.70,469.21 224.64,468.98 225.59,468.74 226.54,468.51 227.49,468.29 228.44,468.06 229.38,467.84 230.33,467.61 231.28,467.39 232.23,467.17 233.18,466.95 234.13,466.74 235.07,466.52 236.02,466.31 236.97,466.10 237.92,465.89 238.87,465.69 239.81,465.48 240.76,465.28 241.71,465.08 242.66,464.88 243.61,464.68 244.56,464.48 245.50,464.29 246.45,464.10 247.40,463.91 248.35,463.72 249.30,463.53 250.24,463.35 251.19,463.17 252.14,462.99 253.09,462.81 254.04,462.63 254.99,462.46 255.93,462.28 256.88,462.11 257.83,461.94 258.78,461.78 259.73,461.61 260.67,461.45 261.62,461.29 262.57,461.13 263.52,460.97 264.47,460.82 265.42,460.67 266.36,460.52 267.31,460.37 268.26,460.22 269.21,460.08 270.16,459.93 271.10,459.79 272.05,459.65 273.00,459.52 273.95,459.38 274.90,459.25 275.85,459.12 276.79,458.99 277.74,458.87 278.69,458.74 279.64,458.62 280.59,458.50 281.53,458.39 282.48,458.27 283.43,458.16 284.38,458.05 285.33,457.94 286.28,457.83 287.22,457.72 288.17,457.62 289.12,457.52 290.07,457.42 291.02,457.33 291.96,457.23 292.91,457.14 293.86,457.05 294.81,456.96 295.76,456.88 296.71,456.79 297.65,456.71 298.60,456.63 299.55,456.56 300.50,456.48 301.45,456.41 302.39,456.34 303.34,456.27 304.29,456.21 305.24,456.14 306.19,456.08 307.14,456.02 308.08,455.97 309.03,455.91 309.98,455.86 310.93,455.81 311.88,455.76 312.83,455.71 313.77,455.67 314.72,455.63 315.67,455.59 316.62,455.55 317.57,455.52 318.51,455.48 319.46,455.45 320.41,455.42 321.36,455.40 322.31,455.38 323.26,455.35 324.20,455.33 325.15,455.32 326.10,455.30 327.05,455.29 328.00,455.28 328.94,455.27 329.89,455.26 330.84,455.26 331.79,455.26 332.74,455.26 333.69,455.26 334.63,455.27 335.58,455.28 336.53,455.28 337.48,455.30 338.43,455.31 339.37,455.33 340.32,455.35 341.27,455.37 342.22,455.39 343.17,455.41 344.12,455.44 345.06,455.47 346.01,455.50 346.96,455.54 347.91,455.57 348.86,455.61 349.80,455.65 350.75,455.70 351.70,455.74 352.65,455.79 353.60,455.84 354.55,455.89 355.49,455.94 356.44,456.00 357.39,456.06 358.34,456.12 359.29,456.18 360.23,456.25 361.18,456.31 362.13,456.38 363.08,456.45 364.03,456.53 364.98,456.60 365.92,456.68 366.87,456.76 367.82,456.84 368.77,456.93 369.72,457.02 370.66,457.10 371.61,457.20 372.56,457.29 373.51,457.38 374.46,457.48 375.41,457.58 376.35,457.68 377.30,457.79 378.25,457.89 379.20,458.00 380.15,458.11 381.09,458.22 382.04,458.34 382.99,458.45 383.94,458.57 384.89,458.69 385.84,458.82 386.78,458.94 387.73,459.07 388.68,459.20 389.63,459.33 390.58,459.46 391.52,459.60 392.47,459.74 393.42,459.88 394.37,460.02 395.32,460.16 396.27,460.31 397.21,460.45 398.16,460.60 399.11,460.76 400.06,460.91 401.01,461.07 401.96,461.22 402.90,461.38 403.85,461.55 404.80,461.71 405.75,461.88 406.70,462.04 407.64,462.21 408.59,462.38 409.54,462.56 410.49,462.73 411.44,462.91 412.39,463.09 413.33,463.27 414.28,463.46 415.23,463.64 416.18,463.83 417.13,464.02 418.07,464.21 419.02,464.40 419.97,464.60 420.92,464.79 421.87,464.99 422.82,465.19 423.76,465.39 424.71,465.60 425.66,465.80 426.61,466.01 427.56,466.22 428.50,466.43 429.45,466.65 430.40,466.86 431.35,467.08 432.30,467.30 433.25,467.52 434.19,467.74 435.14,467.96 436.09,468.19 437.04,468.42 437.99,468.65 438.93,468.88 439.88,469.11 440.83,469.34 441.78,469.58 442.73,469.82 443.68,470.06 444.62,470.30 445.57,470.54 446.52,470.78 447.47,471.03 448.42,471.28 449.36,471.53 450.31,471.78 451.26,472.03 452.21,472.28 453.16,472.54 454.11,472.80 455.05,473.06 456.00,473.32 456.95,473.58 457.90,473.84 458.85,474.11 459.79,474.37 460.74,474.64 461.69,474.91 462.64,475.18 463.59,475.45 464.54,475.73 465.48,476.00 466.43,476.28 467.38,476.56 468.33,476.84 469.28,477.12 470.22,477.40 471.17,477.69 472.12,477.97 473.07,478.26 474.02,478.55 474.97,478.83 475.91,479.13 476.86,479.42 477.81,479.71 478.76,480.01 479.71,480.30 480.65,480.60 481.60,480.90 482.55,481.20 483.50,481.50 484.45,481.80 485.40,482.10 486.34,482.41 487.29,482.71 488.24,483.02 489.19,483.33 490.14,483.64 491.09,483.95 492.03,484.26 492.98,484.57 493.93,484.89 494.88,485.20 495.83,485.52 496.77,485.84 497.72,486.15 498.67,486.47 499.62,486.79 500.57,487.12 501.52,487.44 502.46,487.76 503.41,488.09 504.36,488.41 505.31,488.74 506.26,489.07 507.20,489.40 508.15,489.72 509.10,490.06 510.05,490.39 511.00,490.72 511.95,491.05 512.89,491.39 513.84,491.72 514.79,492.06 515.74,492.39 516.69,492.73 517.63,493.07 518.58,493.41 519.53,493.75 520.48,494.09 521.43,494.43 522.38,494.77 523.32,495.11 524.27,495.46 525.22,495.80 526.17,496.15 527.12,496.49 528.06,496.84 529.01,497.19 529.96,497.53 530.91,497.88 531.86,498.23 532.81,498.58 533.75,498.93 534.70,499.28 535.65,499.63 536.60,499.98 537.55,500.34 538.49,500.69 539.44,501.04 540.39,501.40 541.34,501.75 542.29,502.10 543.24,502.46 544.18,502.82 545.13,503.17 546.08,503.53 547.03,503.89 547.98,504.24 548.92,504.60 549.87,504.96 550.82,505.32 551.77,505.68 552.72,506.04 553.67,506.40 554.61,506.76 555.56,507.12 556.51,507.48 557.46,507.84 558.41,508.20 559.35,508.56 560.30,508.92 561.25,509.28 562.20,509.64 563.15,510.01 564.10,510.37 565.04,510.73 565.99,511.09 566.94,511.46 567.89,511.82 568.84,512.18 569.78,512.54 570.73,512.91 571.68,513.27 572.63,513.63 573.58,514.00 574.53,514.36 575.47,514.72 576.42,515.08 577.37,515.45 578.32,515.81 579.27,516.17 580.22,516.54 581.16,516.90 582.11,517.26 583.06,517.63 584.01,517.99 584.96,518.35 585.90,518.71 586.85,519.07 587.80,519.44 588.75,519.80 589.70,520.16 590.65,520.52 591.59,520.88 592.54,521.24 593.49,521.60 594.44,521.96 595.39,522.32 596.33,522.68 597.28,523.04 598.23,523.40 599.18,523.76 600.13,524.12 601.08,524.48 602.02,524.83 602.97,525.19 603.92,525.55 604.87,525.91 605.82,526.26 606.76,526.62 607.71,526.97 608.66,527.33 609.61,527.68 610.56,528.04 611.51,528.39 612.45,528.74 613.40,529.09 614.35,529.44 615.30,529.80 616.25,530.15 617.19,530.50 618.14,530.85 619.09,531.19 620.04,531.54 620.99,531.89 621.94,532.24 622.88,532.58 623.83,532.93 624.78,533.27 625.73,533.62 626.68,533.96 627.62,534.30 628.57,534.64 629.52,534.98 630.47,535.33 631.42,535.66 632.37,536.00 633.31,536.34 634.26,536.68 635.21,537.01 636.16,537.35 637.11,537.68 638.05,538.02 639.00,538.35 639.95,538.68 640.90,539.01 641.85,539.34 642.80,539.67 643.74,540.00 644.69,540.33 645.64,540.65 646.59,540.98 647.54,541.30 648.48,541.63 649.43,541.95 650.38,542.27 651.33,542.59 652.28,542.91 653.23,543.23 654.17,543.54 655.12,543.86 656.07,544.17 657.02,544.49 657.97,544.80 658.91,545.11 659.86,545.42 660.81,545.73 661.76,546.04 662.71,546.35 663.66,546.65 664.60,546.96 665.55,547.26 666.50,547.56 667.45,547.86 668.40,548.16 669.35,548.46 670.29,548.76 671.24,549.05 672.19,549.34 673.14,549.64 674.09,549.93 675.03,550.22 675.98,550.51 676.93,550.80 677.88,551.08 678.83,551.37 679.78,551.65 680.72,551.93 681.67,552.21 682.62,552.49 683.57,552.77 684.52,553.05 685.46,553.32 686.41,553.59 687.36,553.87 688.31,554.14 689.26,554.41 690.21,554.67 691.15,554.94 692.10,555.20 693.05,555.47 694.00,555.73 694.95,555.99 695.89,556.25 696.84,556.50 697.79,556.76 698.74,557.01 699.69,557.26 700.64,557.51 701.58,557.76 702.53,558.01 703.48,558.25 704.43,558.50 705.38,558.74 706.32,558.98 707.27,559.22 708.22,559.46 709.17,559.69 710.12,559.93 711.07,560.16 712.01,560.39 712.96,560.62 713.91,560.84 714.86,561.07 715.81,561.29 716.75,561.51 717.70,561.73 718.65,561.95 719.60,562.17 720.55,562.38 721.50,562.60 722.44,562.81 723.39,563.02 724.34,563.22 725.29,563.43 726.24,563.63 727.18,563.83 728.13,564.03 729.08,564.23 730.03,564.43 730.98,564.62 731.93,564.82 732.87,565.01 733.82,565.19 734.77,565.38 735.72,565.57 736.67,565.75 737.61,565.93 738.56,566.11 739.51,566.29 740.46,566.46 741.41,566.63 742.36,566.81 743.30,566.97 744.25,567.14 745.20,567.31 746.15,567.47 747.10,567.63 748.04,567.79 748.99,567.95 749.94,568.10 750.89,568.26 751.84,568.41 752.79,568.56 753.73,568.71 754.68,568.85 755.63,568.99 756.58,569.14 757.53,569.27 758.48,569.41 759.42,569.55 760.37,569.68 761.32,569.81 762.27,569.94 763.22,570.07 764.16,570.19 765.11,570.31 766.06,570.43 767.01,570.55 767.96,570.67 768.91,570.78 769.85,570.89 770.80,571.00 771.75,571.11 772.70,571.22 773.65,571.32 774.59,571.42 775.54,571.52 776.49,571.62 777.44,571.71 778.39,571.81 779.34,571.90 780.28,571.98 781.23,572.07 782.18,572.16 783.13,572.24 784.08,572.32 785.02,572.39 785.97,572.47 786.92,572.54 787.87,572.61 788.82,572.68 789.77,572.75 790.71,572.82 791.66,572.88 792.61,572.94 793.56,573.00 794.51,573.05 795.45,573.11 796.40,573.16 797.35,573.21 798.30,573.25 799.25,573.30 800.20,573.34 801.14,573.38 802.09,573.42 803.04,573.45 803.99,573.49 804.94,573.52 805.88,573.55 806.83,573.58 807.78,573.60 808.73,573.62 809.68,573.64 810.63,573.66 811.57,573.68 812.52,573.69 813.47,573.70 814.42,573.71 815.37,573.72 816.31,573.73 817.26,573.73 818.21,573.73 819.16,573.73 820.11,573.72 821.06,573.72 822.00,573.71 822.95,573.70 823.90,573.68 824.85,573.67 825.80,573.65 826.74,573.63 827.69,573.61 828.64,573.59 829.59,573.56 830.54,573.53 831.49,573.50 832.43,573.47 833.38,573.43 834.33,573.40 835.28,573.36 836.23,573.32 837.17,573.27 838.12,573.23 839.07,573.18 840.02,573.13 840.97,573.07 841.92,573.02 842.86,572.96 843.81,572.90 844.76,572.84 845.71,572.78 846.66,572.71 847.61,572.64 848.55,572.57 849.50,572.50 850.45,572.43 851.40,572.35 852.35,572.27 853.29,572.19 854.24,572.11 855.19,572.02 856.14,571.93 857.09,571.84 858.04,571.75 858.98,571.66 859.93,571.56 860.88,571.46 861.83,571.36 862.78,571.26 863.72,571.15 864.67,571.05 865.62,570.94 866.57,570.83 867.52,570.71 868.47,570.60 869.41,570.48 870.36,570.36 871.31,570.24 872.26,570.12 873.21,569.99 874.15,569.86 875.10,569.73 876.05,569.60 877.00,569.47 877.95,569.33 878.90,569.19 879.84,569.05 880.79,568.91 881.74,568.77 882.69,568.62 883.64,568.47 884.58,568.32 885.53,568.17 886.48,568.01 887.43,567.86 888.38,567.70 889.33,567.54 890.27,567.38 891.22,567.21 892.17,567.04 893.12,566.88 894.07,566.71 895.01,566.53 895.96,566.36 896.91,566.18 897.86,566.01 898.81,565.83 899.76,565.64 900.70,565.46 901.65,565.27 902.60,565.09 903.55,564.90 904.50,564.70 905.44,564.51 906.39,564.32 907.34,564.12 908.29,563.92 909.24,563.72 910.19,563.52 911.13,563.31 912.08,563.10 913.03,562.90 913.98,562.69 914.93,562.47 915.87,562.26 916.82,562.05 917.77,561.83 918.72,561.61 919.67,561.39 920.62,561.17 921.56,560.94 922.51,560.72 923.46,560.49 924.41,560.26 925.36,560.03 926.30,559.79 927.25,559.56 928.20,559.32 929.15,559.09 930.10,558.85 931.05,558.60 931.99,558.36 932.94,558.12 933.89,557.87 934.84,557.62 935.79,557.37 936.74,557.12 937.68,556.87 938.63,556.62 939.58,556.36 940.53,556.10 941.48,555.84 942.42,555.58 943.37,555.32 944.32,555.06 945.27,554.79 946.22,554.53 947.17,554.26 948.11,553.99 949.06,553.72 950.01,553.44 950.96,553.17 951.91,552.89 952.85,552.62 953.80,552.34 954.75,552.06 955.70,551.78 956.65,551.50 957.60,551.21 958.54,550.93 959.49,550.64 960.44,550.35 961.39,550.06 962.34,549.77 963.28,549.48 964.23,549.19 965.18,548.89 966.13,548.60 967.08,548.30 968.03,548.00 968.97,547.70 969.92,547.40 970.87,547.10 971.82,546.79 972.77,546.49 973.71,546.18 974.66,545.88 975.61,545.57 976.56,545.26 977.51,544.95 978.46,544.64 979.40,544.32 980.35,544.01 981.30,543.69 982.25,543.38 983.20,543.06 984.14,542.74 985.09,542.42 986.04,542.10 986.99,541.78 987.94,541.46 988.89,541.14 989.83,540.81 990.78,540.49 991.73,540.16 992.68,539.83 993.63,539.50 994.57,539.17 995.52,538.84 996.47,538.51 997.42,538.18 998.37,537.85 999.32,537.51 1000.26,537.18 1001.21,536.84 1002.16,536.51 1003.11,536.17 1004.06,535.83 1005.00,535.49 1005.95,535.15 1006.90,534.81 1007.85,534.47 1008.80,534.13 1009.75,533.79 1010.69,533.45 1011.64,533.10 1012.59,532.76 1013.54,532.41 1014.49,532.07 1015.43,531.72 1016.38,531.37 1017.33,531.02 1018.28,530.67 1019.23,530.33 1020.18,529.98 1021.12,529.63 1022.07,529.27 1023.02,528.92 1023.97,528.57 1024.92,528.22 1025.87,527.87 1026.81,527.51 1027.76,527.16 1028.71,526.80 1029.66,526.45 1030.61,526.09 1031.55,525.74 1032.50,525.38 1033.45,525.02 1034.40,524.67 1035.35,524.31 1036.30,523.95 1037.24,523.59 1038.19,523.24 1039.14,522.88 1040.09,522.52 1041.04,522.16 1041.98,521.80 1042.93,521.44 1043.88,521.08 1044.83,520.72 1045.78,520.36 1046.73,520.00 1047.67,519.64 1048.62,519.27 1049.57,518.91 1050.52,518.55 1051.47,518.19 1052.41,517.83 1053.36,517.46 1054.31,517.10 1055.26,516.74 1056.21,516.38 1057.16,516.02 1058.10,515.65 1059.05,515.29 1060.00,514.93" fill="none" stroke="#dc2626" stroke-width="1.8"/>
<text x="96" y="510.57" font-family="Arial, sans-serif" font-size="12" fill="#dc2626">n=1, E=0.197</text>
<line x1="90.00" y1="432.19" x2="1060.00" y2="432.19" stroke="#059669" stroke-width="0.8" stroke-dasharray="4,4" opacity="0.5"/>
<polyline points="90.00,431.65 90.95,431.10 91.90,430.56 92.84,430.01 93.79,429.47 94.74,428.92 95.69,428.38 96.64,427.84 97.59,427.29 98.53,426.75 99.48,426.21 100.43,425.66 101.38,425.12 102.33,424.58 103.27,424.04 104.22,423.50 105.17,422.96 106.12,422.42 107.07,421.89 108.02,421.35 108.96,420.81 109.91,420.28 110.86,419.75 111.81,419.21 112.76,418.68 113.70,418.15 114.65,417.62 115.60,417.09 116.55,416.57 117.50,416.04 118.45,415.52 119.39,415.00 120.34,414.47 121.29,413.95 122.24,413.44 123.19,412.92 124.13,412.40 125.08,411.89 126.03,411.38 126.98,410.87 127.93,410.36 128.88,409.86 129.82,409.35 130.77,408.85 131.72,408.35 132.67,407.85 133.62,407.36 134.57,406.86 135.51,406.37 136.46,405.88 137.41,405.39 138.36,404.91 139.31,404.42 140.25,403.94 141.20,403.46 142.15,402.99 143.10,402.52 144.05,402.04 145.00,401.58 145.94,401.11 146.89,400.65 147.84,400.19 148.79,399.73 149.74,399.28 150.68,398.82 151.63,398.37 152.58,397.93 153.53,397.48 154.48,397.04 155.43,396.61 156.37,396.17 157.32,395.74 158.27,395.31 159.22,394.89 160.17,394.46 161.11,394.04 162.06,393.63 163.01,393.22 163.96,392.81 164.91,392.40 165.86,392.00 166.80,391.60 167.75,391.20 168.70,390.81 169.65,390.42 170.60,390.04 171.54,389.66 172.49,389.28 173.44,388.90 174.39,388.53 175.34,388.17 176.29,387.80 177.23,387.44 178.18,387.09 179.13,386.73 180.08,386.39 181.03,386.04 181.97,385.70 182.92,385.37 183.87,385.03 184.82,384.70 185.77,384.38 186.72,384.06 187.66,383.74 188.61,383.43 189.56,383.12 190.51,382.82 191.46,382.52 192.40,382.22 193.35,381.93 194.30,381.65 195.25,381.36 196.20,381.08 197.15,380.81 198.09,380.54 199.04,380.27 199.99,380.01 200.94,379.76 201.89,379.50 202.83,379.26 203.78,379.01 204.73,378.77 205.68,378.54 206.63,378.31 207.58,378.09 208.52,377.86 209.47,377.65 210.42,377.44 211.37,377.23 212.32,377.03 213.26,376.83 214.21,376.64 215.16,376.45 216.11,376.27 217.06,376.09 218.01,375.91 218.95,375.75 219.90,375.58 220.85,375.42 221.80,375.27 222.75,375.12 223.70,374.97 224.64,374.83 225.59,374.70 226.54,374.57 227.49,374.44 228.44,374.32 229.38,374.20 230.33,374.09 231.28,373.99 232.23,373.89 233.18,373.79 234.13,373.70 235.07,373.61 236.02,373.53 236.97,373.45 237.92,373.38 238.87,373.32 239.81,373.25 240.76,373.20 241.71,373.15 242.66,373.10 243.61,373.06 244.56,373.02 245.50,372.99 246.45,372.96 247.40,372.94 248.35,372.93 249.30,372.92 250.24,372.91 251.19,372.91 252.14,372.91 253.09,372.92 254.04,372.93 254.99,372.95 255.93,372.98 256.88,373.00 257.83,373.04 258.78,373.08 259.73,373.12 260.67,373.17 261.62,373.22 262.57,373.28 263.52,373.35 264.47,373.41 265.42,373.49 266.36,373.57 267.31,373.65 268.26,373.74 269.21,373.83 270.16,373.93 271.10,374.03 272.05,374.14 273.00,374.25 273.95,374.37 274.90,374.50 275.85,374.62 276.79,374.76 277.74,374.89 278.69,375.04 279.64,375.18 280.59,375.34 281.53,375.49 282.48,375.65 283.43,375.82 284.38,375.99 285.33,376.17 286.28,376.35 287.22,376.53 288.17,376.72 289.12,376.92 290.07,377.12 291.02,377.32 291.96,377.53 292.91,377.74 293.86,377.96 294.81,378.19 295.76,378.41 296.71,378.64 297.65,378.88 298.60,379.12 299.55,379.37 300.50,379.62 301.45,379.87 302.39,380.13 303.34,380.39 304.29,380.66 305.24,380.93 306.19,381.21 307.14,381.49 308.08,381.77 309.03,382.06 309.98,382.35 310.93,382.65 311.88,382.95 312.83,383.26 313.77,383.57 314.72,383.88 315.67,384.20 316.62,384.52 317.57,384.85 318.51,385.18 319.46,385.51 320.41,385.85 321.36,386.19 322.31,386.54 323.26,386.89 324.20,387.24 325.15,387.60 326.10,387.96 327.05,388.33 328.00,388.70 328.94,389.07 329.89,389.44 330.84,389.82 331.79,390.21 332.74,390.59 333.69,390.98 334.63,391.38 335.58,391.78 336.53,392.18 337.48,392.58 338.43,392.99 339.37,393.40 340.32,393.81 341.27,394.23 342.22,394.65 343.17,395.07 344.12,395.50 345.06,395.93 346.01,396.36 346.96,396.80 347.91,397.24 348.86,397.68 349.80,398.12 350.75,398.57 351.70,399.02 352.65,399.48 353.60,399.93 354.55,400.39 355.49,400.85 356.44,401.32 357.39,401.78 358.34,402.25 359.29,402.72 360.23,403.20 361.18,403.68 362.13,404.16 363.08,404.64 364.03,405.12 364.98,405.61 365.92,406.10 366.87,406.59 367.82,407.08 368.77,407.57 369.72,408.07 370.66,408.57 371.61,409.07 372.56,409.57 373.51,410.08 374.46,410.59 375.41,411.09 376.35,411.61 377.30,412.12 378.25,412.63 379.20,413.15 380.15,413.66 381.09,414.18 382.04,414.70 382.99,415.22 383.94,415.75 384.89,416.27 385.84,416.80 386.78,417.33 387.73,417.85 388.68,418.38 389.63,418.91 390.58,419.45 391.52,419.98 392.47,420.51 393.42,421.05 394.37,421.59 395.32,422.12 396.27,422.66 397.21,423.20 398.16,423.74 399.11,424.28 400.06,424.82 401.01,425.36 401.96,425.90 402.90,426.44 403.85,426.99 404.80,427.53 405.75,428.07 406.70,428.62 407.64,429.16 408.59,429.71 409.54,430.25 410.49,430.80 411.44,431.34 412.39,431.89 413.33,432.43 414.28,432.98 415.23,433.52 416.18,434.07 417.13,434.61 418.07,435.16 419.02,435.70 419.97,436.25 420.92,436.79 421.87,437.33 422.82,437.88 423.76,438.42 424.71,438.96 425.66,439.50 426.61,440.04 427.56,440.58 428.50,441.12 429.45,441.66 430.40,442.20 431.35,442.74 432.30,443.27 433.25,443.81 434.19,444.34 435.14,444.88 436.09,445.41 437.04,445.94 437.99,446.47 438.93,447.00 439.88,447.52 440.83,448.05 441.78,448.58 442.73,449.10 443.68,449.62 444.62,450.14 445.57,450.66 446.52,451.18 447.47,451.69 448.42,452.21 449.36,452.72 450.31,453.23 451.26,453.74 452.21,454.25 453.16,454.75 454.11,455.26 455.05,455.76 456.00,456.26 456.95,456.75 457.90,457.25 458.85,457.74 459.79,458.23 460.74,458.72 461.69,459.21 462.64,459.69 463.59,460.17 464.54,460.65 465.48,461.13 466.43,461.61 467.38,462.08 468.33,462.55 469.28,463.01 470.22,463.48 471.17,463.94 472.12,464.40 473.07,464.86 474.02,465.31 474.97,465.76 475.91,466.21 476.86,466.65 477.81,467.10 478.76,467.54 479.71,467.97 480.65,468.41 481.60,468.84 482.55,469.26 483.50,469.69 484.45,470.11 485.40,470.53 486.34,470.94 487.29,471.35 488.24,471.76 489.19,472.16 490.14,472.56 491.09,472.96 492.03,473.36 492.98,473.75 493.93,474.13 494.88,474.52 495.83,474.90 496.77,475.27 497.72,475.65 498.67,476.02 499.62,476.38 500.57,476.74 501.52,477.10 502.46,477.46 503.41,477.81 504.36,478.15 505.31,478.50 506.26,478.83 507.20,479.17 508.15,479.50 509.10,479.83 510.05,480.15 511.00,480.47 511.95,480.78 512.89,481.09 513.84,481.40 514.79,481.70 515.74,482.00 516.69,482.29 517.63,482.58 518.58,482.87 519.53,483.15 520.48,483.43 521.43,483.70 522.38,483.97 523.32,484.23 524.27,484.49 525.22,484.74 526.17,484.99 527.12,485.24 528.06,485.48 529.01,485.72 529.96,485.95 530.91,486.18 531.86,486.40 532.81,486.62 533.75,486.84 534.70,487.04 535.65,487.25 536.60,487.45 537.55,487.65 538.49,487.84 539.44,488.02 540.39,488.20 541.34,488.38 542.29,488.55 543.24,488.72 544.18,488.88 545.13,489.04 546.08,489.19 547.03,489.34 547.98,489.48 548.92,489.62 549.87,489.76 550.82,489.88 551.77,490.01 552.72,490.13 553.67,490.24 554.61,490.35 555.56,490.45 556.51,490.55 557.46,490.65 558.41,490.74 559.35,490.82 560.30,490.90 561.25,490.97 562.20,491.04 563.15,491.11 564.10,491.17 565.04,491.22 565.99,491.27 566.94,491.32 567.89,491.36 568.84,491.39 569.78,491.42 570.73,491.44 571.68,491.46 572.63,491.48 573.58,491.49 574.53,491.49 575.47,491.49 576.42,491.49 577.37,491.47 578.32,491.46 579.27,491.44 580.22,491.41 581.16,491.38 582.11,491.35 583.06,491.31 584.01,491.26 584.96,491.21 585.90,491.15 586.85,491.09 587.80,491.03 588.75,490.96 589.70,490.88 590.65,490.80 591.59,490.72 592.54,490.63 593.49,490.53 594.44,490.43 595.39,490.32 596.33,490.21 597.28,490.10 598.23,489.98 599.18,489.86 600.13,489.73 601.08,489.59 602.02,489.45 602.97,489.31 603.92,489.16 604.87,489.00 605.82,488.85 606.76,488.68 607.71,488.51 608.66,488.34 609.61,488.16 610.56,487.98 611.51,487.79 612.45,487.60 613.40,487.41 614.35,487.20 615.30,487.00 616.25,486.79 617.19,486.57 618.14,486.35 619.09,486.13 620.04,485.90 620.99,485.67 621.94,485.43 622.88,485.19 623.83,484.94 624.78,484.69 625.73,484.43 626.68,484.17 627.62,483.91 628.57,483.64 629.52,483.36 630.47,483.09 631.42,482.81 632.37,482.52 633.31,482.23 634.26,481.93 635.21,481.63 636.16,481.33 637.11,481.02 638.05,480.71 639.00,480.40 639.95,480.08 640.90,479.75 641.85,479.43 642.80,479.10 643.74,478.76 644.69,478.42 645.64,478.08 646.59,477.73 647.54,477.38 648.48,477.02 649.43,476.66 650.38,476.30 651.33,475.94 652.28,475.57 653.23,475.19 654.17,474.81 655.12,474.43 656.07,474.05 657.02,473.66 657.97,473.27 658.91,472.88 659.86,472.48 660.81,472.07 661.76,471.67 662.71,471.26 663.66,470.85 664.60,470.43 665.55,470.02 666.50,469.59 667.45,469.17 668.40,468.74 669.35,468.31 670.29,467.88 671.24,467.44 672.19,467.00 673.14,466.56 674.09,466.11 675.03,465.66 675.98,465.21 676.93,464.76 677.88,464.30 678.83,463.84 679.78,463.38 680.72,462.91 681.67,462.45 682.62,461.98 683.57,461.50 684.52,461.03 685.46,460.55 686.41,460.07 687.36,459.59 688.31,459.10 689.26,458.62 690.21,458.13 691.15,457.64 692.10,457.14 693.05,456.65 694.00,456.15 694.95,455.65 695.89,455.15 696.84,454.64 697.79,454.14 698.74,453.63 699.69,453.12 700.64,452.61 701.58,452.10 702.53,451.58 703.48,451.07 704.43,450.55 705.38,450.03 706.32,449.51 707.27,448.99 708.22,448.46 709.17,447.94 710.12,447.41 711.07,446.89 712.01,446.36 712.96,445.83 713.91,445.30 714.86,444.76 715.81,444.23 716.75,443.70 717.70,443.16 718.65,442.62 719.60,442.09 720.55,441.55 721.50,441.01 722.44,440.47 723.39,439.93 724.34,439.39 725.29,438.85 726.24,438.31 727.18,437.76 728.13,437.22 729.08,436.68 730.03,436.13 730.98,435.59 731.93,435.04 732.87,434.50 733.82,433.96 734.77,433.41 735.72,432.87 736.67,432.32 737.61,431.77 738.56,431.23 739.51,430.68 740.46,430.14 741.41,429.60 742.36,429.05 743.30,428.51 744.25,427.96 745.20,427.42 746.15,426.88 747.10,426.33 748.04,425.79 748.99,425.25 749.94,424.71 750.89,424.17 751.84,423.63 752.79,423.09 753.73,422.55 754.68,422.01 755.63,421.48 756.58,420.94 757.53,420.41 758.48,419.87 759.42,419.34 760.37,418.81 761.32,418.28 762.27,417.75 763.22,417.22 764.16,416.69 765.11,416.17 766.06,415.64 767.01,415.12 767.96,414.60 768.91,414.08 769.85,413.56 770.80,413.04 771.75,412.53 772.70,412.01 773.65,411.50 774.59,410.99 775.54,410.48 776.49,409.98 777.44,409.47 778.39,408.97 779.34,408.47 780.28,407.97 781.23,407.48 782.18,406.98 783.13,406.49 784.08,406.00 785.02,405.51 785.97,405.02 786.92,404.54 787.87,404.06 788.82,403.58 789.77,403.10 790.71,402.63 791.66,402.16 792.61,401.69 793.56,401.22 794.51,400.76 795.45,400.30 796.40,399.84 797.35,399.39 798.30,398.93 799.25,398.48 800.20,398.04 801.14,397.59 802.09,397.15 803.04,396.71 803.99,396.28 804.94,395.84 805.88,395.42 806.83,394.99 807.78,394.57 808.73,394.15 809.68,393.73 810.63,393.32 811.57,392.91 812.52,392.50 813.47,392.10 814.42,391.70 815.37,391.30 816.31,390.91 817.26,390.52 818.21,390.13 819.16,389.75 820.11,389.37 821.06,388.99 822.00,388.62 822.95,388.25 823.90,387.89 824.85,387.53 825.80,387.17 826.74,386.82 827.69,386.47 828.64,386.13 829.59,385.78 830.54,385.45 831.49,385.11 832.43,384.78 833.38,384.46 834.33,384.14 835.28,383.82 836.23,383.51 837.17,383.20 838.12,382.89 839.07,382.59 840.02,382.29 840.97,382.00 841.92,381.71 842.86,381.43 843.81,381.15 844.76,380.87 845.71,380.60 846.66,380.34 847.61,380.07 848.55,379.82 849.50,379.56 850.45,379.31 851.40,379.07 852.35,378.83 853.29,378.59 854.24,378.36 855.19,378.14 856.14,377.91 857.09,377.70 858.04,377.48 858.98,377.28 859.93,377.07 860.88,376.87 861.83,376.68 862.78,376.49 863.72,376.31 864.67,376.13 865.62,375.95 866.57,375.78 867.52,375.61 868.47,375.45 869.41,375.30 870.36,375.15 871.31,375.00 872.26,374.86 873.21,374.72 874.15,374.59 875.10,374.46 876.05,374.34 877.00,374.22 877.95,374.11 878.90,374.00 879.84,373.90 880.79,373.80 881.74,373.71 882.69,373.62 883.64,373.54 884.58,373.46 885.53,373.39 886.48,373.32 887.43,373.26 888.38,373.20 889.33,373.14 890.27,373.10 891.22,373.05 892.17,373.02 893.12,372.98 894.07,372.95 895.01,372.93 895.96,372.91 896.91,372.90 897.86,372.89 898.81,372.89 899.76,372.89 900.70,372.90 901.65,372.91 902.60,372.93 903.55,372.95 904.50,372.98 905.44,373.01 906.39,373.04 907.34,373.09 908.29,373.13 909.24,373.19 910.19,373.24 911.13,373.30 912.08,373.37 913.03,373.44 913.98,373.52 914.93,373.60 915.87,373.69 916.82,373.78 917.77,373.88 918.72,373.98 919.67,374.09 920.62,374.20 921.56,374.31 922.51,374.43 923.46,374.56 924.41,374.69 925.36,374.83 926.30,374.97 927.25,375.11 928.20,375.26 929.15,375.42 930.10,375.58 931.05,375.74 931.99,375.91 932.94,376.09 933.89,376.27 934.84,376.45 935.79,376.64 936.74,376.83 937.68,377.03 938.63,377.23 939.58,377.44 940.53,377.65 941.48,377.87 942.42,378.09 943.37,378.31 944.32,378.54 945.27,378.78 946.22,379.02 947.17,379.26 948.11,379.51 949.06,379.76 950.01,380.02 950.96,380.28 951.91,380.54 952.85,380.81 953.80,381.09 954.75,381.37 955.70,381.65 956.65,381.94 957.60,382.23 958.54,382.53 959.49,382.83 960.44,383.13 961.39,383.44 962.34,383.75 963.28,384.07 964.23,384.39 965.18,384.71 966.13,385.04 967.08,385.37 968.03,385.71 968.97,386.05 969.92,386.39 970.87,386.74 971.82,387.09 972.77,387.45 973.71,387.81 974.66,388.17 975.61,388.54 976.56,388.91 977.51,389.29 978.46,389.66 979.40,390.05 980.35,390.43 981.30,390.82 982.25,391.21 983.20,391.61 984.14,392.01 985.09,392.41 986.04,392.82 986.99,393.22 987.94,393.64 988.89,394.05 989.83,394.47 990.78,394.89 991.73,395.32 992.68,395.75 993.63,396.18 994.57,396.61 995.52,397.05 996.47,397.49 997.42,397.94 998.37,398.38 999.32,398.83 1000.26,399.28 1001.21,399.74 1002.16,400.20 1003.11,400.66 1004.06,401.12 1005.00,401.59 1005.95,402.05 1006.90,402.52 1007.85,403.00 1008.80,403.47 1009.75,403.95 1010.69,404.43 1011.64,404.92 1012.59,405.40 1013.54,405.89 1014.49,406.38 1015.43,406.87 1016.38,407.36 1017.33,407.86 1018.28,408.36 1019.23,408.86 1020.18,409.36 1021.12,409.86 1022.07,410.37 1023.02,410.88 1023.97,411.39 1024.92,411.90 1025.87,412.41 1026.81,412.93 1027.76,413.44 1028.71,413.96 1029.66,414.48 1030.61,415.00 1031.55,415.52 1032.50,416.05 1033.45,416.57 1034.40,417.10 1035.35,417.63 1036.30,418.16 1037.24,418.69 1038.19,419.22 1039.14,419.75 1040.09,420.28 1041.04,420.82 1041.98,421.35 1042.93,421.89 1043.88,422.43 1044.83,422.97 1045.78,423.50 1046.73,424.04 1047.67,424.58 1048.62,425.13 1049.57,425.67 1050.52,426.21 1051.47,426.75 1052.41,427.29 1053.36,427.84 1054.31,428.38 1055.26,428.93 1056.21,429.47 1057.16,430.01 1058.10,430.56 1059.05,431.10 1060.00,431.65" fill="none" stroke="#059669" stroke-width="1.8"/>
<text x="96" y="428.19" font-family="Arial, sans-serif" font-size="12" fill="#059669">n=2, E=0.442</text>
<line x1="90.00" y1="316.88" x2="1060.00" y2="316.88" stroke="#7c3aed" stroke-width="0.8" stroke-dasharray="4,4" opacity="0.5"/>
<polyline points="90.00,317.60 90.95,318.33 91.90,319.06 92.84,319.78 93.79,320.51 94.74,321.24 95.69,321.96 96.64,322.69 97.59,323.41 98.53,324.13 99.48,324.85 100.43,325.57 101.38,326.29 102.33,327.01 103.27,327.72 104.22,328.44 105.17,329.15 106.12,329.86 107.07,330.57 108.02,331.27 108.96,331.98 109.91,332.68 110.86,333.38 111.81,334.08 112.76,334.77 113.70,335.46 114.65,336.15 115.60,336.84 116.55,337.52 117.50,338.20 118.45,338.88 119.39,339.55 120.34,340.22 121.29,340.89 122.24,341.55 123.19,342.21 124.13,342.87 125.08,343.52 126.03,344.17 126.98,344.81 127.93,345.45 128.88,346.08 129.82,346.71 130.77,347.34 131.72,347.96 132.67,348.58 133.62,349.19 134.57,349.80 135.51,350.40 136.46,351.00 137.41,351.59 138.36,352.18 139.31,352.76 140.25,353.33 141.20,353.90 142.15,354.47 143.10,355.03 144.05,355.58 145.00,356.13 145.94,356.67 146.89,357.21 147.84,357.74 148.79,358.26 149.74,358.78 150.68,359.29 151.63,359.80 152.58,360.29 153.53,360.79 154.48,361.27 155.43,361.75 156.37,362.22 157.32,362.69 158.27,363.15 159.22,363.60 160.17,364.04 161.11,364.48 162.06,364.91 163.01,365.33 163.96,365.75 164.91,366.15 165.86,366.56 166.80,366.95 167.75,367.33 168.70,367.71 169.65,368.08 170.60,368.45 171.54,368.80 172.49,369.15 173.44,369.49 174.39,369.82 175.34,370.14 176.29,370.46 177.23,370.77 178.18,371.06 179.13,371.36 180.08,371.64 181.03,371.91 181.97,372.18 182.92,372.44 183.87,372.69 184.82,372.93 185.77,373.16 186.72,373.39 187.66,373.60 188.61,373.81 189.56,374.01 190.51,374.20 191.46,374.38 192.40,374.55 193.35,374.72 194.30,374.87 195.25,375.02 196.20,375.16 197.15,375.29 198.09,375.41 199.04,375.52 199.99,375.62 200.94,375.72 201.89,375.80 202.83,375.88 203.78,375.95 204.73,376.01 205.68,376.06 206.63,376.10 207.58,376.13 208.52,376.15 209.47,376.17 210.42,376.17 211.37,376.17 212.32,376.16 213.26,376.14 214.21,376.11 215.16,376.07 216.11,376.02 217.06,375.96 218.01,375.90 218.95,375.82 219.90,375.74 220.85,375.64 221.80,375.54 222.75,375.43 223.70,375.31 224.64,375.19 225.59,375.05 226.54,374.90 227.49,374.75 228.44,374.59 229.38,374.42 230.33,374.24 231.28,374.05 232.23,373.85 233.18,373.64 234.13,373.43 235.07,373.21 236.02,372.98 236.97,372.74 237.92,372.49 238.87,372.23 239.81,371.97 240.76,371.69 241.71,371.41 242.66,371.12 243.61,370.83 244.56,370.52 245.50,370.21 246.45,369.88 247.40,369.55 248.35,369.22 249.30,368.87 250.24,368.52 251.19,368.16 252.14,367.79 253.09,367.41 254.04,367.03 254.99,366.63 255.93,366.24 256.88,365.83 257.83,365.42 258.78,364.99 259.73,364.57 260.67,364.13 261.62,363.69 262.57,363.24 263.52,362.78 264.47,362.32 265.42,361.85 266.36,361.37 267.31,360.88 268.26,360.39 269.21,359.90 270.16,359.39 271.10,358.88 272.05,358.37 273.00,357.84 273.95,357.32 274.90,356.78 275.85,356.24 276.79,355.69 277.74,355.14 278.69,354.58 279.64,354.02 280.59,353.45 281.53,352.87 282.48,352.29 283.43,351.71 284.38,351.12 285.33,350.52 286.28,349.92 287.22,349.31 288.17,348.70 289.12,348.09 290.07,347.47 291.02,346.84 291.96,346.21 292.91,345.58 293.86,344.94 294.81,344.30 295.76,343.65 296.71,343.00 297.65,342.34 298.60,341.69 299.55,341.02 300.50,340.36 301.45,339.69 302.39,339.01 303.34,338.34 304.29,337.66 305.24,336.98 306.19,336.29 307.14,335.60 308.08,334.91 309.03,334.22 309.98,333.52 310.93,332.82 311.88,332.12 312.83,331.42 313.77,330.71 314.72,330.00 315.67,329.29 316.62,328.58 317.57,327.87 318.51,327.15 319.46,326.43 320.41,325.72 321.36,325.00 322.31,324.28 323.26,323.55 324.20,322.83 325.15,322.11 326.10,321.38 327.05,320.66 328.00,319.93 328.94,319.21 329.89,318.48 330.84,317.75 331.79,317.02 332.74,316.30 333.69,315.57 334.63,314.84 335.58,314.12 336.53,313.39 337.48,312.67 338.43,311.94 339.37,311.22 340.32,310.49 341.27,309.77 342.22,309.05 343.17,308.33 344.12,307.61 345.06,306.89 346.01,306.18 346.96,305.46 347.91,304.75 348.86,304.04 349.80,303.33 350.75,302.62 351.70,301.92 352.65,301.22 353.60,300.52 354.55,299.82 355.49,299.12 356.44,298.43 357.39,297.74 358.34,297.06 359.29,296.37 360.23,295.69 361.18,295.01 362.13,294.34 363.08,293.67 364.03,293.00 364.98,292.34 365.92,291.68 366.87,291.02 367.82,290.37 368.77,289.72 369.72,289.08 370.66,288.44 371.61,287.80 372.56,287.17 373.51,286.54 374.46,285.92 375.41,285.30 376.35,284.69 377.30,284.08 378.25,283.48 379.20,282.88 380.15,282.29 381.09,281.70 382.04,281.12 382.99,280.54 383.94,279.97 384.89,279.40 385.84,278.84 386.78,278.28 387.73,277.74 388.68,277.19 389.63,276.65 390.58,276.12 391.52,275.60 392.47,275.08 393.42,274.57 394.37,274.06 395.32,273.56 396.27,273.07 397.21,272.58 398.16,272.10 399.11,271.63 400.06,271.16 401.01,270.70 401.96,270.25 402.90,269.80 403.85,269.36 404.80,268.93 405.75,268.51 406.70,268.09 407.64,267.68 408.59,267.28 409.54,266.89 410.49,266.50 411.44,266.12 412.39,265.75 413.33,265.38 414.28,265.03 415.23,264.68 416.18,264.34 417.13,264.00 418.07,263.68 419.02,263.36 419.97,263.05 420.92,262.75 421.87,262.46 422.82,262.17 423.76,261.90 424.71,261.63 425.66,261.37 426.61,261.12 427.56,260.87 428.50,260.64 429.45,260.41 430.40,260.19 431.35,259.98 432.30,259.78 433.25,259.59 434.19,259.41 435.14,259.23 436.09,259.07 437.04,258.91 437.99,258.76 438.93,258.62 439.88,258.49 440.83,258.37 441.78,258.25 442.73,258.15 443.68,258.05 444.62,257.96 445.57,257.89 446.52,257.82 447.47,257.76 448.42,257.70 449.36,257.66 450.31,257.63 451.26,257.60 452.21,257.59 453.16,257.58 454.11,257.58 455.05,257.59 456.00,257.61 456.95,257.64 457.90,257.68 458.85,257.72 459.79,257.78 460.74,257.84 461.69,257.91 462.64,258.00 463.59,258.09 464.54,258.19 465.48,258.29 466.43,258.41 467.38,258.54 468.33,258.67 469.28,258.81 470.22,258.97 471.17,259.13 472.12,259.30 473.07,259.48 474.02,259.66 474.97,259.86 475.91,260.06 476.86,260.27 477.81,260.49 478.76,260.72 479.71,260.96 480.65,261.21 481.60,261.46 482.55,261.73 483.50,262.00 484.45,262.28 485.40,262.56 486.34,262.86 487.29,263.16 488.24,263.48 489.19,263.80 490.14,264.12 491.09,264.46 492.03,264.80 492.98,265.16 493.93,265.52 494.88,265.88 495.83,266.26 496.77,266.64 497.72,267.03 498.67,267.43 499.62,267.83 500.57,268.25 501.52,268.66 502.46,269.09 503.41,269.53 504.36,269.97 505.31,270.42 506.26,270.87 507.20,271.33 508.15,271.80 509.10,272.28 510.05,272.76 511.00,273.25 511.95,273.74 512.89,274.25 513.84,274.76 514.79,275.27 515.74,275.79 516.69,276.32 517.63,276.85 518.58,277.39 519.53,277.94 520.48,278.49 521.43,279.04 522.38,279.61 523.32,280.18 524.27,280.75 525.22,281.33 526.17,281.91 527.12,282.50 528.06,283.10 529.01,283.70 529.96,284.30 530.91,284.91 531.86,285.53 532.81,286.15 533.75,286.77 534.70,287.40 535.65,288.03 536.60,288.67 537.55,289.31 538.49,289.96 539.44,290.61 540.39,291.26 541.34,291.92 542.29,292.58 543.24,293.25 544.18,293.91 545.13,294.59 546.08,295.26 547.03,295.94 547.98,296.62 548.92,297.31 549.87,297.99 550.82,298.68 551.77,299.38 552.72,300.07 553.67,300.77 554.61,301.47 555.56,302.18 556.51,302.88 557.46,303.59 558.41,304.30 559.35,305.01 560.30,305.72 561.25,306.44 562.20,307.16 563.15,307.87 564.10,308.59 565.04,309.31 565.99,310.03 566.94,310.76 567.89,311.48 568.84,312.21 569.78,312.93 570.73,313.66 571.68,314.38 572.63,315.11 573.58,315.84 574.53,316.56 575.47,317.29 576.42,318.02 577.37,318.74 578.32,319.47 579.27,320.20 580.22,320.92 581.16,321.65 582.11,322.37 583.06,323.09 584.01,323.82 584.96,324.54 585.90,325.26 586.85,325.98 587.80,326.70 588.75,327.41 589.70,328.13 590.65,328.84 591.59,329.55 592.54,330.26 593.49,330.97 594.44,331.67 595.39,332.38 596.33,333.08 597.28,333.77 598.23,334.47 599.18,335.16 600.13,335.85 601.08,336.54 602.02,337.22 602.97,337.91 603.92,338.58 604.87,339.26 605.82,339.93 606.76,340.60 607.71,341.26 608.66,341.92 609.61,342.58 610.56,343.23 611.51,343.88 612.45,344.53 613.40,345.17 614.35,345.81 615.30,346.44 616.25,347.07 617.19,347.69 618.14,348.31 619.09,348.92 620.04,349.53 620.99,350.14 621.94,350.74 622.88,351.33 623.83,351.92 624.78,352.50 625.73,353.08 626.68,353.66 627.62,354.22 628.57,354.78 629.52,355.34 630.47,355.89 631.42,356.44 632.37,356.97 633.31,357.51 634.26,358.03 635.21,358.55 636.16,359.07 637.11,359.58 638.05,360.08 639.00,360.57 639.95,361.06 640.90,361.54 641.85,362.02 642.80,362.49 643.74,362.95 644.69,363.40 645.64,363.85 646.59,364.29 647.54,364.72 648.48,365.15 649.43,365.57 650.38,365.98 651.33,366.38 652.28,366.78 653.23,367.17 654.17,367.55 655.12,367.92 656.07,368.29 657.02,368.65 657.97,369.00 658.91,369.34 659.86,369.68 660.81,370.00 661.76,370.32 662.71,370.63 663.66,370.94 664.60,371.23 665.55,371.52 666.50,371.80 667.45,372.07 668.40,372.33 669.35,372.58 670.29,372.83 671.24,373.06 672.19,373.29 673.14,373.51 674.09,373.72 675.03,373.93 675.98,374.12 676.93,374.31 677.88,374.48 678.83,374.65 679.78,374.81 680.72,374.96 681.67,375.10 682.62,375.24 683.57,375.36 684.52,375.48 685.46,375.59 686.41,375.68 687.36,375.77 688.31,375.85 689.26,375.93 690.21,375.99 691.15,376.04 692.10,376.09 693.05,376.12 694.00,376.15 694.95,376.17 695.89,376.18 696.84,376.18 697.79,376.17 698.74,376.15 699.69,376.13 700.64,376.09 701.58,376.05 702.53,376.00 703.48,375.93 704.43,375.86 705.38,375.78 706.32,375.70 707.27,375.60 708.22,375.49 709.17,375.38 710.12,375.26 711.07,375.12 712.01,374.98 712.96,374.83 713.91,374.67 714.86,374.51 715.81,374.33 716.75,374.15 717.70,373.95 718.65,373.75 719.60,373.54 720.55,373.32 721.50,373.09 722.44,372.86 723.39,372.61 724.34,372.36 725.29,372.10 726.24,371.83 727.18,371.55 728.13,371.27 729.08,370.98 730.03,370.67 730.98,370.36 731.93,370.05 732.87,369.72 733.82,369.39 734.77,369.04 735.72,368.69 736.67,368.34 737.61,367.97 738.56,367.60 739.51,367.22 740.46,366.83 741.41,366.43 742.36,366.03 743.30,365.62 744.25,365.20 745.20,364.78 746.15,364.35 747.10,363.91 748.04,363.46 748.99,363.01 749.94,362.55 750.89,362.08 751.84,361.61 752.79,361.12 753.73,360.64 754.68,360.14 755.63,359.64 756.58,359.14 757.53,358.62 758.48,358.10 759.42,357.58 760.37,357.05 761.32,356.51 762.27,355.96 763.22,355.41 764.16,354.86 765.11,354.30 766.06,353.73 767.01,353.16 767.96,352.58 768.91,352.00 769.85,351.41 770.80,350.82 771.75,350.22 772.70,349.61 773.65,349.00 774.59,348.39 775.54,347.77 776.49,347.15 777.44,346.52 778.39,345.89 779.34,345.25 780.28,344.61 781.23,343.97 782.18,343.32 783.13,342.67 784.08,342.01 785.02,341.35 785.97,340.69 786.92,340.02 787.87,339.35 788.82,338.67 789.77,338.00 790.71,337.32 791.66,336.63 792.61,335.95 793.56,335.26 794.51,334.56 795.45,333.87 796.40,333.17 797.35,332.47 798.30,331.77 799.25,331.06 800.20,330.36 801.14,329.65 802.09,328.94 803.04,328.22 803.99,327.51 804.94,326.79 805.88,326.08 806.83,325.36 807.78,324.64 808.73,323.91 809.68,323.19 810.63,322.47 811.57,321.75 812.52,321.02 813.47,320.29 814.42,319.57 815.37,318.84 816.31,318.12 817.26,317.39 818.21,316.66 819.16,315.93 820.11,315.21 821.06,314.48 822.00,313.76 822.95,313.03 823.90,312.30 824.85,311.58 825.80,310.86 826.74,310.13 827.69,309.41 828.64,308.69 829.59,307.97 830.54,307.25 831.49,306.54 832.43,305.82 833.38,305.11 834.33,304.40 835.28,303.69 836.23,302.98 837.17,302.27 838.12,301.57 839.07,300.87 840.02,300.17 840.97,299.47 841.92,298.78 842.86,298.09 843.81,297.40 844.76,296.72 845.71,296.03 846.66,295.36 847.61,294.68 848.55,294.01 849.50,293.34 850.45,292.67 851.40,292.01 852.35,291.35 853.29,290.70 854.24,290.05 855.19,289.40 856.14,288.76 857.09,288.12 858.04,287.49 858.98,286.86 859.93,286.23 860.88,285.61 861.83,285.00 862.78,284.39 863.72,283.78 864.67,283.18 865.62,282.59 866.57,282.00 867.52,281.41 868.47,280.83 869.41,280.26 870.36,279.69 871.31,279.12 872.26,278.57 873.21,278.01 874.15,277.47 875.10,276.93 876.05,276.39 877.00,275.86 877.95,275.34 878.90,274.83 879.84,274.32 880.79,273.81 881.74,273.32 882.69,272.83 883.64,272.34 884.58,271.87 885.53,271.40 886.48,270.93 887.43,270.48 888.38,270.03 889.33,269.59 890.27,269.15 891.22,268.72 892.17,268.30 893.12,267.89 894.07,267.48 895.01,267.08 895.96,266.69 896.91,266.31 897.86,265.93 898.81,265.57 899.76,265.20 900.70,264.85 901.65,264.51 902.60,264.17 903.55,263.84 904.50,263.52 905.44,263.21 906.39,262.90 907.34,262.60 908.29,262.31 909.24,262.03 910.19,261.76 911.13,261.50 912.08,261.24 913.03,260.99 913.98,260.75 914.93,260.52 915.87,260.30 916.82,260.09 917.77,259.88 918.72,259.69 919.67,259.50 920.62,259.32 921.56,259.15 922.51,258.99 923.46,258.83 924.41,258.69 925.36,258.55 926.30,258.42 927.25,258.31 928.20,258.20 929.15,258.09 930.10,258.00 931.05,257.92 931.99,257.85 932.94,257.78 933.89,257.72 934.84,257.68 935.79,257.64 936.74,257.61 937.68,257.59 938.63,257.57 939.58,257.57 940.53,257.58 941.48,257.59 942.42,257.62 943.37,257.65 944.32,257.69 945.27,257.74 946.22,257.80 947.17,257.87 948.11,257.94 949.06,258.03 950.01,258.12 950.96,258.23 951.91,258.34 952.85,258.46 953.80,258.59 954.75,258.73 955.70,258.88 956.65,259.03 957.60,259.20 958.54,259.37 959.49,259.55 960.44,259.74 961.39,259.94 962.34,260.15 963.28,260.37 964.23,260.59 965.18,260.82 966.13,261.07 967.08,261.32 968.03,261.58 968.97,261.84 969.92,262.12 970.87,262.40 971.82,262.69 972.77,262.99 973.71,263.30 974.66,263.61 975.61,263.94 976.56,264.27 977.51,264.61 978.46,264.96 979.40,265.31 980.35,265.67 981.30,266.05 982.25,266.42 983.20,266.81 984.14,267.20 985.09,267.60 986.04,268.01 986.99,268.43 987.94,268.85 988.89,269.28 989.83,269.72 990.78,270.16 991.73,270.61 992.68,271.07 993.63,271.54 994.57,272.01 995.52,272.49 996.47,272.97 997.42,273.47 998.37,273.96 999.32,274.47 1000.26,274.98 1001.21,275.50 1002.16,276.02 1003.11,276.55 1004.06,277.09 1005.00,277.63 1005.95,278.18 1006.90,278.73 1007.85,279.29 1008.80,279.86 1009.75,280.43 1010.69,281.00 1011.64,281.58 1012.59,282.17 1013.54,282.76 1014.49,283.36 1015.43,283.96 1016.38,284.57 1017.33,285.18 1018.28,285.80 1019.23,286.42 1020.18,287.05 1021.12,287.68 1022.07,288.31 1023.02,288.95 1023.97,289.59 1024.92,290.24 1025.87,290.89 1026.81,291.55 1027.76,292.21 1028.71,292.87 1029.66,293.54 1030.61,294.21 1031.55,294.88 1032.50,295.56 1033.45,296.24 1034.40,296.92 1035.35,297.61 1036.30,298.30 1037.24,298.99 1038.19,299.68 1039.14,300.38 1040.09,301.08 1041.04,301.78 1041.98,302.48 1042.93,303.19 1043.88,303.90 1044.83,304.61 1045.78,305.32 1046.73,306.03 1047.67,306.75 1048.62,307.47 1049.57,308.19 1050.52,308.91 1051.47,309.63 1052.41,310.35 1053.36,311.07 1054.31,311.80 1055.26,312.52 1056.21,313.25 1057.16,313.97 1058.10,314.70 1059.05,315.42 1060.00,316.15" fill="none" stroke="#7c3aed" stroke-width="1.8"/>
<text x="96" y="312.88" font-family="Arial, sans-serif" font-size="12" fill="#7c3aed">n=3, E=0.786</text>
<line x1="90.00" y1="168.61" x2="1060.00" y2="168.61" stroke="#d97706" stroke-width="0.8" stroke-dasharray="4,4" opacity="0.5"/>
<polyline points="90.00,167.70 90.95,166.80 91.90,165.89 92.84,164.98 93.79,164.08 94.74,163.17 95.69,162.27 96.64,161.37 97.59,160.47 98.53,159.57 99.48,158.67 100.43,157.78 101.38,156.89 102.33,156.00 103.27,155.12 104.22,154.23 105.17,153.35 106.12,152.48 107.07,151.61 108.02,150.74 108.96,149.88 109.91,149.02 110.86,148.16 111.81,147.31 112.76,146.47 113.70,145.63 114.65,144.80 115.60,143.97 116.55,143.15 117.50,142.33 118.45,141.52 119.39,140.72 120.34,139.92 121.29,139.13 122.24,138.34 123.19,137.57 124.13,136.80 125.08,136.04 126.03,135.28 126.98,134.53 127.93,133.80 128.88,133.07 129.82,132.34 130.77,131.63 131.72,130.93 132.67,130.23 133.62,129.54 134.57,128.87 135.51,128.20 136.46,127.54 137.41,126.89 138.36,126.25 139.31,125.62 140.25,125.00 141.20,124.39 142.15,123.79 143.10,123.20 144.05,122.63 145.00,122.06 145.94,121.50 146.89,120.96 147.84,120.43 148.79,119.90 149.74,119.39 150.68,118.89 151.63,118.41 152.58,117.93 153.53,117.47 154.48,117.01 155.43,116.57 156.37,116.15 157.32,115.73 158.27,115.33 159.22,114.94 160.17,114.56 161.11,114.20 162.06,113.84 163.01,113.50 163.96,113.18 164.91,112.86 165.86,112.56 166.80,112.28 167.75,112.00 168.70,111.74 169.65,111.50 170.60,111.26 171.54,111.04 172.49,110.83 173.44,110.64 174.39,110.46 175.34,110.30 176.29,110.14 177.23,110.00 178.18,109.88 179.13,109.77 180.08,109.67 181.03,109.59 181.97,109.52 182.92,109.46 183.87,109.42 184.82,109.39 185.77,109.38 186.72,109.38 187.66,109.39 188.61,109.42 189.56,109.46 190.51,109.52 191.46,109.59 192.40,109.67 193.35,109.77 194.30,109.88 195.25,110.00 196.20,110.14 197.15,110.30 198.09,110.46 199.04,110.64 199.99,110.83 200.94,111.04 201.89,111.26 202.83,111.50 203.78,111.74 204.73,112.00 205.68,112.28 206.63,112.56 207.58,112.86 208.52,113.18 209.47,113.50 210.42,113.84 211.37,114.20 212.32,114.56 213.26,114.94 214.21,115.33 215.16,115.73 216.11,116.15 217.06,116.57 218.01,117.01 218.95,117.47 219.90,117.93 220.85,118.41 221.80,118.89 222.75,119.39 223.70,119.90 224.64,120.43 225.59,120.96 226.54,121.50 227.49,122.06 228.44,122.63 229.38,123.20 230.33,123.79 231.28,124.39 232.23,125.00 233.18,125.62 234.13,126.25 235.07,126.89 236.02,127.54 236.97,128.20 237.92,128.86 238.87,129.54 239.81,130.23 240.76,130.92 241.71,131.63 242.66,132.34 243.61,133.06 244.56,133.80 245.50,134.53 246.45,135.28 247.40,136.03 248.35,136.80 249.30,137.57 250.24,138.34 251.19,139.13 252.14,139.92 253.09,140.71 254.04,141.52 254.99,142.33 255.93,143.15 256.88,143.97 257.83,144.80 258.78,145.63 259.73,146.47 260.67,147.31 261.62,148.16 262.57,149.02 263.52,149.88 264.47,150.74 265.42,151.61 266.36,152.48 267.31,153.36 268.26,154.23 269.21,155.12 270.16,156.00 271.10,156.89 272.05,157.78 273.00,158.68 273.95,159.57 274.90,160.47 275.85,161.37 276.79,162.27 277.74,163.18 278.69,164.08 279.64,164.99 280.59,165.89 281.53,166.80 282.48,167.71 283.43,168.61 284.38,169.52 285.33,170.43 286.28,171.34 287.22,172.24 288.17,173.15 289.12,174.05 290.07,174.96 291.02,175.86 291.96,176.76 292.91,177.66 293.86,178.55 294.81,179.45 295.76,180.34 296.71,181.23 297.65,182.11 298.60,183.00 299.55,183.87 300.50,184.75 301.45,185.62 302.39,186.49 303.34,187.35 304.29,188.21 305.24,189.07 306.19,189.92 307.14,190.76 308.08,191.60 309.03,192.43 309.98,193.26 310.93,194.09 311.88,194.90 312.83,195.71 313.77,196.52 314.72,197.31 315.67,198.11 316.62,198.89 317.57,199.67 318.51,200.44 319.46,201.20 320.41,201.95 321.36,202.70 322.31,203.44 323.26,204.17 324.20,204.89 325.15,205.60 326.10,206.31 327.05,207.00 328.00,207.69 328.94,208.37 329.89,209.04 330.84,209.70 331.79,210.35 332.74,210.99 333.69,211.61 334.63,212.23 335.58,212.84 336.53,213.44 337.48,214.03 338.43,214.61 339.37,215.18 340.32,215.73 341.27,216.28 342.22,216.81 343.17,217.33 344.12,217.84 345.06,218.34 346.01,218.83 346.96,219.31 347.91,219.77 348.86,220.22 349.80,220.66 350.75,221.09 351.70,221.51 352.65,221.91 353.60,222.30 354.55,222.68 355.49,223.04 356.44,223.39 357.39,223.73 358.34,224.06 359.29,224.37 360.23,224.67 361.18,224.96 362.13,225.23 363.08,225.50 364.03,225.74 364.98,225.98 365.92,226.20 366.87,226.40 367.82,226.60 368.77,226.78 369.72,226.94 370.66,227.10 371.61,227.23 372.56,227.36 373.51,227.47 374.46,227.57 375.41,227.65 376.35,227.72 377.30,227.78 378.25,227.82 379.20,227.85 380.15,227.86 381.09,227.86 382.04,227.85 382.99,227.82 383.94,227.78 384.89,227.72 385.84,227.65 386.78,227.57 387.73,227.47 388.68,227.36 389.63,227.23 390.58,227.10 391.52,226.94 392.47,226.78 393.42,226.60 394.37,226.41 395.32,226.20 396.27,225.98 397.21,225.74 398.16,225.50 399.11,225.24 400.06,224.96 401.01,224.68 401.96,224.37 402.90,224.06 403.85,223.74 404.80,223.40 405.75,223.04 406.70,222.68 407.64,222.30 408.59,221.91 409.54,221.51 410.49,221.09 411.44,220.66 412.39,220.22 413.33,219.77 414.28,219.31 415.23,218.83 416.18,218.35 417.13,217.85 418.07,217.33 419.02,216.81 419.97,216.28 420.92,215.73 421.87,215.18 422.82,214.61 423.76,214.03 424.71,213.45 425.66,212.85 426.61,212.24 427.56,211.62 428.50,210.99 429.45,210.35 430.40,209.70 431.35,209.04 432.30,208.37 433.25,207.69 434.19,207.01 435.14,206.31 436.09,205.61 437.04,204.89 437.99,204.17 438.93,203.44 439.88,202.70 440.83,201.95 441.78,201.20 442.73,200.44 443.68,199.67 444.62,198.89 445.57,198.11 446.52,197.32 447.47,196.52 448.42,195.71 449.36,194.90 450.31,194.09 451.26,193.26 452.21,192.43 453.16,191.60 454.11,190.76 455.05,189.92 456.00,189.07 456.95,188.21 457.90,187.35 458.85,186.49 459.79,185.62 460.74,184.75 461.69,183.87 462.64,182.99 463.59,182.11 464.54,181.23 465.48,180.34 466.43,179.45 467.38,178.55 468.33,177.65 469.28,176.76 470.22,175.86 471.17,174.95 472.12,174.05 473.07,173.15 474.02,172.24 474.97,171.33 475.91,170.42 476.86,169.52 477.81,168.61 478.76,167.70 479.71,166.79 480.65,165.89 481.60,164.98 482.55,164.07 483.50,163.17 484.45,162.26 485.40,161.36 486.34,160.46 487.29,159.56 488.24,158.67 489.19,157.77 490.14,156.88 491.09,155.99 492.03,155.11 492.98,154.22 493.93,153.34 494.88,152.47 495.83,151.60 496.77,150.73 497.72,149.86 498.67,149.01 499.62,148.15 500.57,147.30 501.52,146.46 502.46,145.62 503.41,144.78 504.36,143.95 505.31,143.13 506.26,142.31 507.20,141.50 508.15,140.70 509.10,139.90 510.05,139.11 511.00,138.32 511.95,137.55 512.89,136.78 513.84,136.02 514.79,135.26 515.74,134.51 516.69,133.78 517.63,133.04 518.58,132.32 519.53,131.61 520.48,130.90 521.43,130.21 522.38,129.52 523.32,128.84 524.27,128.17 525.22,127.51 526.17,126.86 527.12,126.22 528.06,125.59 529.01,124.97 529.96,124.37 530.91,123.77 531.86,123.18 532.81,122.60 533.75,122.03 534.70,121.48 535.65,120.93 536.60,120.40 537.55,119.87 538.49,119.36 539.44,118.86 540.39,118.38 541.34,117.90 542.29,117.44 543.24,116.98 544.18,116.54 545.13,116.12 546.08,115.70 547.03,115.30 547.98,114.91 548.92,114.53 549.87,114.16 550.82,113.81 551.77,113.47 552.72,113.14 553.67,112.83 554.61,112.53 555.56,112.24 556.51,111.97 557.46,111.71 558.41,111.46 559.35,111.23 560.30,111.01 561.25,110.80 562.20,110.61 563.15,110.43 564.10,110.26 565.04,110.11 565.99,109.97 566.94,109.84 567.89,109.73 568.84,109.64 569.78,109.55 570.73,109.48 571.68,109.43 572.63,109.38 573.58,109.36 574.53,109.34 575.47,109.34 576.42,109.36 577.37,109.38 578.32,109.43 579.27,109.48 580.22,109.55 581.16,109.63 582.11,109.73 583.06,109.84 584.01,109.97 584.96,110.11 585.90,110.26 586.85,110.42 587.80,110.60 588.75,110.80 589.70,111.00 590.65,111.23 591.59,111.46 592.54,111.71 593.49,111.97 594.44,112.24 595.39,112.53 596.33,112.83 597.28,113.14 598.23,113.47 599.18,113.81 600.13,114.16 601.08,114.53 602.02,114.90 602.97,115.29 603.92,115.70 604.87,116.11 605.82,116.54 606.76,116.98 607.71,117.43 608.66,117.90 609.61,118.37 610.56,118.86 611.51,119.36 612.45,119.87 613.40,120.39 614.35,120.93 615.30,121.47 616.25,122.03 617.19,122.60 618.14,123.17 619.09,123.76 620.04,124.36 620.99,124.97 621.94,125.59 622.88,126.22 623.83,126.86 624.78,127.51 625.73,128.17 626.68,128.84 627.62,129.52 628.57,130.20 629.52,130.90 630.47,131.61 631.42,132.32 632.37,133.04 633.31,133.77 634.26,134.51 635.21,135.26 636.16,136.01 637.11,136.78 638.05,137.55 639.00,138.32 639.95,139.11 640.90,139.90 641.85,140.70 642.80,141.50 643.74,142.31 644.69,143.13 645.64,143.95 646.59,144.78 647.54,145.62 648.48,146.46 649.43,147.30 650.38,148.15 651.33,149.01 652.28,149.87 653.23,150.73 654.17,151.60 655.12,152.47 656.07,153.35 657.02,154.23 657.97,155.11 658.91,155.99 659.86,156.88 660.81,157.78 661.76,158.67 662.71,159.57 663.66,160.47 664.60,161.37 665.55,162.27 666.50,163.17 667.45,164.08 668.40,164.98 669.35,165.89 670.29,166.80 671.24,167.71 672.19,168.62 673.14,169.52 674.09,170.43 675.03,171.34 675.98,172.25 676.93,173.15 677.88,174.06 678.83,174.96 679.78,175.87 680.72,176.77 681.67,177.67 682.62,178.56 683.57,179.46 684.52,180.35 685.46,181.24 686.41,182.12 687.36,183.01 688.31,183.89 689.26,184.76 690.21,185.64 691.15,186.50 692.10,187.37 693.05,188.23 694.00,189.08 694.95,189.93 695.89,190.78 696.84,191.62 697.79,192.45 698.74,193.28 699.69,194.11 700.64,194.92 701.58,195.73 702.53,196.54 703.48,197.34 704.43,198.13 705.38,198.91 706.32,199.69 707.27,200.46 708.22,201.22 709.17,201.98 710.12,202.72 711.07,203.46 712.01,204.19 712.96,204.92 713.91,205.63 714.86,206.34 715.81,207.03 716.75,207.72 717.70,208.40 718.65,209.07 719.60,209.73 720.55,210.38 721.50,211.02 722.44,211.65 723.39,212.27 724.34,212.88 725.29,213.48 726.24,214.07 727.18,214.64 728.13,215.21 729.08,215.77 730.03,216.31 730.98,216.85 731.93,217.37 732.87,217.88 733.82,218.38 734.77,218.87 735.72,219.35 736.67,219.81 737.61,220.26 738.56,220.70 739.51,221.13 740.46,221.55 741.41,221.95 742.36,222.34 743.30,222.72 744.25,223.08 745.20,223.44 746.15,223.78 747.10,224.10 748.04,224.42 748.99,224.72 749.94,225.00 750.89,225.28 751.84,225.54 752.79,225.79 753.73,226.02 754.68,226.24 755.63,226.45 756.58,226.64 757.53,226.82 758.48,226.99 759.42,227.14 760.37,227.28 761.32,227.40 762.27,227.52 763.22,227.61 764.16,227.70 765.11,227.77 766.06,227.82 767.01,227.86 767.96,227.89 768.91,227.90 769.85,227.90 770.80,227.89 771.75,227.86 772.70,227.82 773.65,227.77 774.59,227.70 775.54,227.61 776.49,227.52 777.44,227.40 778.39,227.28 779.34,227.14 780.28,226.99 781.23,226.82 782.18,226.64 783.13,226.45 784.08,226.24 785.02,226.02 785.97,225.79 786.92,225.54 787.87,225.28 788.82,225.01 789.77,224.72 790.71,224.42 791.66,224.10 792.61,223.78 793.56,223.44 794.51,223.09 795.45,222.72 796.40,222.34 797.35,221.95 798.30,221.55 799.25,221.13 800.20,220.70 801.14,220.26 802.09,219.81 803.04,219.35 803.99,218.87 804.94,218.38 805.88,217.88 806.83,217.37 807.78,216.85 808.73,216.32 809.68,215.77 810.63,215.21 811.57,214.65 812.52,214.07 813.47,213.48 814.42,212.88 815.37,212.27 816.31,211.65 817.26,211.02 818.21,210.38 819.16,209.73 820.11,209.07 821.06,208.40 822.00,207.72 822.95,207.04 823.90,206.34 824.85,205.63 825.80,204.92 826.74,204.20 827.69,203.47 828.64,202.73 829.59,201.98 830.54,201.22 831.49,200.46 832.43,199.69 833.38,198.91 834.33,198.13 835.28,197.34 836.23,196.54 837.17,195.73 838.12,194.92 839.07,194.11 840.02,193.28 840.97,192.45 841.92,191.62 842.86,190.78 843.81,189.93 844.76,189.08 845.71,188.23 846.66,187.37 847.61,186.50 848.55,185.63 849.50,184.76 850.45,183.89 851.40,183.01 852.35,182.12 853.29,181.24 854.24,180.35 855.19,179.45 856.14,178.56 857.09,177.66 858.04,176.76 858.98,175.86 859.93,174.96 860.88,174.06 861.83,173.15 862.78,172.24 863.72,171.34 864.67,170.43 865.62,169.52 866.57,168.61 867.52,167.70 868.47,166.79 869.41,165.88 870.36,164.98 871.31,164.07 872.26,163.17 873.21,162.26 874.15,161.36 875.10,160.46 876.05,159.56 877.00,158.66 877.95,157.77 878.90,156.87 879.84,155.98 880.79,155.10 881.74,154.21 882.69,153.33 883.64,152.46 884.58,151.59 885.53,150.72 886.48,149.85 887.43,148.99 888.38,148.14 889.33,147.29 890.27,146.44 891.22,145.60 892.17,144.77 893.12,143.94 894.07,143.11 895.01,142.30 895.96,141.48 896.91,140.68 897.86,139.88 898.81,139.09 899.76,138.31 900.70,137.53 901.65,136.76 902.60,135.99 903.55,135.24 904.50,134.49 905.44,133.75 906.39,133.02 907.34,132.30 908.29,131.58 909.24,130.88 910.19,130.18 911.13,129.49 912.08,128.82 913.03,128.15 913.98,127.49 914.93,126.84 915.87,126.20 916.82,125.57 917.77,124.95 918.72,124.34 919.67,123.74 920.62,123.15 921.56,122.57 922.51,122.00 923.46,121.45 924.41,120.90 925.36,120.37 926.30,119.84 927.25,119.33 928.20,118.83 929.15,118.34 930.10,117.87 931.05,117.40 931.99,116.95 932.94,116.51 933.89,116.08 934.84,115.67 935.79,115.26 936.74,114.87 937.68,114.49 938.63,114.13 939.58,113.78 940.53,113.44 941.48,113.11 942.42,112.80 943.37,112.50 944.32,112.21 945.27,111.93 946.22,111.67 947.17,111.42 948.11,111.19 949.06,110.97 950.01,110.76 950.96,110.57 951.91,110.39 952.85,110.22 953.80,110.07 954.75,109.93 955.70,109.81 956.65,109.70 957.60,109.60 958.54,109.52 959.49,109.45 960.44,109.39 961.39,109.35 962.34,109.32 963.28,109.31 964.23,109.31 965.18,109.32 966.13,109.35 967.08,109.39 968.03,109.45 968.97,109.52 969.92,109.60 970.87,109.70 971.82,109.81 972.77,109.93 973.71,110.07 974.66,110.22 975.61,110.39 976.56,110.57 977.51,110.76 978.46,110.97 979.40,111.19 980.35,111.42 981.30,111.67 982.25,111.93 983.20,112.21 984.14,112.49 985.09,112.80 986.04,113.11 986.99,113.44 987.94,113.78 988.89,114.13 989.83,114.49 990.78,114.87 991.73,115.26 992.68,115.67 993.63,116.08 994.57,116.51 995.52,116.95 996.47,117.40 997.42,117.87 998.37,118.34 999.32,118.83 1000.26,119.33 1001.21,119.84 1002.16,120.37 1003.11,120.90 1004.06,121.44 1005.00,122.00 1005.95,122.57 1006.90,123.15 1007.85,123.74 1008.80,124.34 1009.75,124.95 1010.69,125.57 1011.64,126.20 1012.59,126.84 1013.54,127.49 1014.49,128.15 1015.43,128.81 1016.38,129.49 1017.33,130.18 1018.28,130.88 1019.23,131.58 1020.18,132.30 1021.12,133.02 1022.07,133.75 1023.02,134.49 1023.97,135.24 1024.92,135.99 1025.87,136.76 1026.81,137.53 1027.76,138.30 1028.71,139.09 1029.66,139.88 1030.61,140.68 1031.55,141.48 1032.50,142.30 1033.45,143.11 1034.40,143.94 1035.35,144.77 1036.30,145.60 1037.24,146.44 1038.19,147.29 1039.14,148.14 1040.09,148.99 1041.04,149.85 1041.98,150.72 1042.93,151.59 1043.88,152.46 1044.83,153.34 1045.78,154.22 1046.73,155.10 1047.67,155.99 1048.62,156.87 1049.57,157.77 1050.52,158.66 1051.47,159.56 1052.41,160.46 1053.36,161.36 1054.31,162.26 1055.26,163.17 1056.21,164.07 1057.16,164.98 1058.10,165.89 1059.05,166.80 1060.00,167.70" fill="none" stroke="#d97706" stroke-width="1.8"/>
<text x="96" y="164.61" font-family="Arial, sans-serif" font-size="12" fill="#d97706">n=4, E=1.229</text>
</svg>
