<svg xmlns="http://www.w3.org/2000/svg" width="1100" height="700" viewBox="0 0 1100 700">
<rect width="100%" height="100%" fill="#f8fafc"/>
<text x="90" y="32" font-family="Arial, sans-serif" font-size="24" fill="#111827">FDTD: Driven Standing Wave in a Cavity: E_z(x)</text>
<line x1="90.00" y1="620.00" x2="1060.00" y2="620.00" stroke="#374151" stroke-width="2"/>
<line x1="90.00" y1="620.00" x2="90.00" y2="50.00" stroke="#374151" stroke-width="2"/>
<text x="550.00" y="672" text-anchor="middle" font-family="Arial, sans-serif" font-size="16" fill="#374151">position x</text>
<text x="24" y="350.00" text-anchor="middle" transform="rotate(-90 24 350.00)" font-family="Arial, sans-serif" font-size="16" fill="#374151">electric field E_z</text>
<text x="90" y="646" font-family="Arial, sans-serif" font-size="13" fill="#6b7280">-10.00</text>
<text x="1060" y="646" text-anchor="end" font-family="Arial, sans-serif" font-size="13" fill="#6b7280">10.00</text>
<text x="78" y="620.00" text-anchor="end" dominant-baseline="middle" font-family="Arial, sans-serif" font-size="13" fill="#6b7280">-2.21</text>
<text x="78" y="50.00" text-anchor="end" dominant-baseline="middle" font-family="Arial, sans-serif" font-size="13" fill="#6b7280">2.21</text>
<line x1="90.00" y1="335.00" x2="1060.00" y2="335.00" stroke="#9ca3af" stroke-width="1" stroke-dasharray="3,3"/>
<polyline points="90.00,335.00 91.21,335.00 92.43,335.00 93.64,335.00 94.86,335.00 96.07,335.00 97.28,335.00 98.50,335.00 99.71,335.00 100.93,335.00 102.14,335.00 103.35,335.00 104.57,335.00 105.78,335.00 107.00,335.00 108.21,335.00 109.42,335.00 110.64,335.00 111.85,335.00 113.07,335.00 114.28,335.00 115.49,335.00 116.71,335.00 117.92,335.00 119.14,335.00 120.35,335.00 121.56,335.00 122.78,335.00 123.99,335.00 125.21,335.00 126.42,335.00 127.63,335.00 128.85,335.00 130.06,335.00 131.28,335.00 132.49,335.00 133.70,335.00 134.92,335.00 136.13,335.00 137.35,335.00 138.56,335.00 139.77,335.00 140.99,335.00 142.20,335.00 143.42,335.00 144.63,335.00 145.84,335.00 147.06,335.00 148.27,335.00 149.49,335.00 150.70,335.00 151.91,335.00 153.13,335.00 154.34,335.00 155.56,335.00 156.77,335.00 157.98,335.00 159.20,335.00 160.41,335.00 161.63,335.00 162.84,335.00 164.06,335.00 165.27,335.00 166.48,335.00 167.70,335.00 168.91,335.00 170.13,335.00 171.34,335.00 172.55,335.00 173.77,335.00 174.98,335.00 176.20,335.00 177.41,335.00 178.62,335.00 179.84,335.00 181.05,335.00 182.27,335.00 183.48,335.00 184.69,335.00 185.91,335.00 187.12,335.00 188.34,335.00 189.55,335.00 190.76,335.00 191.98,335.00 193.19,335.00 194.41,335.00 195.62,335.00 196.83,335.00 198.05,335.00 199.26,335.00 200.48,335.00 201.69,335.00 202.90,335.00 204.12,335.00 205.33,335.00 206.55,335.00 207.76,335.00 208.97,335.00 210.19,335.00 211.40,335.00 212.62,335.00 213.83,335.00 215.04,335.00 216.26,335.00 217.47,335.00 218.69,335.00 219.90,335.00 221.11,335.00 222.33,335.00 223.54,335.00 224.76,335.00 225.97,335.00 227.18,335.00 228.40,335.00 229.61,335.00 230.83,335.00 232.04,335.00 233.25,335.00 234.47,335.00 235.68,335.00 236.90,335.00 238.11,335.00 239.32,335.00 240.54,335.00 241.75,335.00 242.97,335.00 244.18,335.00 245.39,335.00 246.61,335.00 247.82,335.00 249.04,335.00 250.25,335.00 251.46,335.00 252.68,335.00 253.89,335.00 255.11,335.00 256.32,335.00 257.53,335.00 258.75,335.00 259.96,335.00 261.18,335.00 262.39,335.00 263.60,335.00 264.82,335.00 266.03,335.00 267.25,335.00 268.46,335.00 269.67,335.00 270.89,335.00 272.10,335.00 273.32,335.00 274.53,335.00 275.74,335.00 276.96,335.00 278.17,335.00 279.39,335.00 280.60,335.00 281.81,335.00 283.03,335.00 284.24,335.00 285.46,335.00 286.67,335.00 287.88,335.00 289.10,335.00 290.31,335.00 291.53,335.00 292.74,335.00 293.95,335.00 295.17,335.00 296.38,335.00 297.60,335.00 298.81,335.00 300.03,335.00 301.24,335.00 302.45,335.00 303.67,335.00 304.88,335.00 306.10,335.00 307.31,335.00 308.52,335.00 309.74,335.00 310.95,335.00 312.17,335.00 313.38,335.00 314.59,335.00 315.81,335.00 317.02,335.00 318.24,335.00 319.45,335.00 320.66,335.00 321.88,335.00 323.09,335.00 324.31,335.00 325.52,335.00 326.73,335.00 327.95,335.00 329.16,335.00 330.38,335.00 331.59,335.00 332.80,335.00 334.02,335.00 335.23,335.00 336.45,335.00 337.66,335.00 338.87,335.00 340.09,335.00 341.30,335.00 342.52,335.00 343.73,335.00 344.94,335.00 346.16,335.00 347.37,335.00 348.59,335.00 349.80,335.00 351.01,335.00 352.23,335.00 353.44,335.00 354.66,335.00 355.87,335.00 357.08,335.00 358.30,335.00 359.51,335.00 360.73,335.00 361.94,335.00 363.15,335.00 364.37,335.00 365.58,335.00 366.80,335.00 368.01,335.00 369.22,335.00 370.44,335.00 371.65,335.00 372.87,335.00 374.08,335.00 375.29,335.00 376.51,335.00 377.72,335.00 378.94,335.00 380.15,335.00 381.36,335.00 382.58,335.00 383.79,335.00 385.01,335.00 386.22,335.00 387.43,335.00 388.65,335.00 389.86,335.00 391.08,335.00 392.29,335.00 393.50,335.00 394.72,335.00 395.93,335.00 397.15,335.00 398.36,335.00 399.57,335.00 400.79,335.00 402.00,335.00 403.22,335.00 404.43,335.00 405.64,335.00 406.86,335.00 408.07,335.00 409.29,335.00 410.50,335.00 411.71,335.00 412.93,335.00 414.14,335.00 415.36,335.00 416.57,335.00 417.78,335.00 419.00,335.00 420.21,335.00 421.43,335.00 422.64,335.00 423.85,335.00 425.07,335.00 426.28,335.00 427.50,335.00 428.71,335.00 429.92,335.00 431.14,335.00 432.35,335.00 433.57,335.00 434.78,335.00 435.99,335.00 437.21,335.00 438.42,335.00 439.64,335.00 440.85,335.00 442.07,335.00 443.28,335.00 444.49,335.00 445.71,335.00 446.92,335.00 448.14,335.00 449.35,335.00 450.56,335.00 451.78,335.00 452.99,335.00 454.21,335.00 455.42,335.00 456.63,335.00 457.85,335.00 459.06,335.00 460.28,335.00 461.49,335.00 462.70,335.00 463.92,335.00 465.13,335.00 466.35,335.00 467.56,335.00 468.77,335.00 469.99,335.00 471.20,335.00 472.42,335.00 473.63,335.00 474.84,335.00 476.06,335.00 477.27,335.00 478.49,335.00 479.70,335.00 480.91,335.00 482.13,335.00 483.34,335.00 484.56,335.00 485.77,335.00 486.98,335.00 488.20,335.00 489.41,335.00 490.63,335.00 491.84,335.00 493.05,335.00 494.27,335.00 495.48,335.00 496.70,335.00 497.91,335.00 499.12,335.00 500.34,335.00 501.55,335.00 502.77,335.00 503.98,335.00 505.19,335.00 506.41,335.00 507.62,335.00 508.84,335.00 510.05,335.00 511.26,335.00 512.48,335.00 513.69,335.00 514.91,335.00 516.12,335.00 517.33,335.00 518.55,335.00 519.76,335.00 520.98,335.00 522.19,335.00 523.40,335.00 524.62,335.00 525.83,335.00 527.05,335.00 528.26,335.00 529.47,335.00 530.69,335.00 531.90,335.00 533.12,335.00 534.33,335.00 535.54,335.00 536.76,335.00 537.97,335.00 539.19,335.00 540.40,335.00 541.61,335.00 542.83,335.00 544.04,335.00 545.26,335.00 546.47,335.00 547.68,335.00 548.90,335.00 550.11,335.00 551.33,335.00 552.54,335.00 553.75,335.00 554.97,335.00 556.18,335.00 557.40,335.00 558.61,335.00 559.82,335.00 561.04,335.00 562.25,335.00 563.47,335.00 564.68,335.00 565.89,335.00 567.11,335.00 568.32,335.00 569.54,335.00 570.75,335.00 571.96,335.00 573.18,335.00 574.39,335.00 575.61,335.00 576.82,335.00 578.04,335.00 579.25,335.00 580.46,335.00 581.68,335.00 582.89,335.00 584.11,335.00 585.32,335.00 586.53,335.00 587.75,335.00 588.96,335.00 590.18,335.00 591.39,335.00 592.60,335.00 593.82,335.00 595.03,335.00 596.25,335.00 597.46,335.00 598.67,335.00 599.89,335.00 601.10,335.00 602.32,335.00 603.53,335.00 604.74,335.00 605.96,335.00 607.17,335.00 608.39,335.00 609.60,335.00 610.81,335.00 612.03,335.00 613.24,335.00 614.46,335.00 615.67,335.00 616.88,335.00 618.10,335.00 619.31,335.00 620.53,335.00 621.74,335.00 622.95,335.00 624.17,335.00 625.38,335.00 626.60,335.00 627.81,335.00 629.02,335.00 630.24,335.00 631.45,335.00 632.67,335.00 633.88,335.00 635.09,335.00 636.31,335.00 637.52,335.00 638.74,335.00 639.95,335.00 641.16,335.00 642.38,335.00 643.59,335.00 644.81,335.00 646.02,335.00 647.23,335.00 648.45,335.00 649.66,335.00 650.88,335.00 652.09,335.00 653.30,335.00 654.52,335.00 655.73,335.00 656.95,335.00 658.16,335.00 659.37,335.00 660.59,335.00 661.80,335.00 663.02,335.00 664.23,335.00 665.44,335.00 666.66,335.00 667.87,335.00 669.09,335.00 670.30,335.00 671.51,335.00 672.73,335.00 673.94,335.00 675.16,335.00 676.37,335.00 677.58,335.00 678.80,335.00 680.01,335.00 681.23,335.00 682.44,335.00 683.65,335.00 684.87,335.00 686.08,335.00 687.30,335.00 688.51,335.00 689.72,335.00 690.94,335.00 692.15,335.00 693.37,335.00 694.58,335.00 695.79,335.00 697.01,335.00 698.22,335.00 699.44,335.00 700.65,335.00 701.86,335.00 703.08,335.00 704.29,335.00 705.51,335.00 706.72,335.00 707.93,335.00 709.15,335.00 710.36,335.00 711.58,335.00 712.79,335.00 714.01,335.00 715.22,335.00 716.43,335.00 717.65,335.00 718.86,335.00 720.08,335.00 721.29,335.00 722.50,335.00 723.72,335.00 724.93,335.00 726.15,335.00 727.36,335.00 728.57,335.00 729.79,335.00 731.00,335.00 732.22,335.00 733.43,335.00 734.64,335.00 735.86,335.00 737.07,335.00 738.29,335.00 739.50,335.00 740.71,335.00 741.93,335.00 743.14,335.00 744.36,335.00 745.57,335.00 746.78,335.00 748.00,335.00 749.21,335.00 750.43,335.00 751.64,335.00 752.85,335.00 754.07,335.00 755.28,335.00 756.50,335.00 757.71,335.00 758.92,335.00 760.14,335.00 761.35,335.00 762.57,335.00 763.78,335.00 764.99,335.00 766.21,335.00 767.42,335.00 768.64,335.00 769.85,335.00 771.06,335.00 772.28,335.00 773.49,335.00 774.71,335.00 775.92,335.00 777.13,335.00 778.35,335.00 779.56,335.00 780.78,335.00 781.99,335.00 783.20,335.00 784.42,335.00 785.63,335.00 786.85,335.00 788.06,335.00 789.27,335.00 790.49,335.00 791.70,335.00 792.92,335.00 794.13,335.00 795.34,335.00 796.56,335.00 797.77,335.00 798.99,335.00 800.20,335.00 801.41,335.00 802.63,335.00 803.84,335.00 805.06,335.00 806.27,335.00 807.48,335.00 808.70,335.00 809.91,335.00 811.13,335.00 812.34,335.00 813.55,335.00 814.77,335.00 815.98,335.00 817.20,335.00 818.41,335.00 819.62,335.00 820.84,335.00 822.05,335.00 823.27,335.00 824.48,335.00 825.69,335.00 826.91,335.00 828.12,335.00 829.34,335.00 830.55,335.00 831.76,335.00 832.98,335.00 834.19,335.00 835.41,335.00 836.62,335.00 837.83,335.00 839.05,335.00 840.26,335.00 841.48,335.00 842.69,335.00 843.90,335.00 845.12,335.00 846.33,335.00 847.55,335.00 848.76,335.00 849.97,335.00 851.19,335.00 852.40,335.00 853.62,335.00 854.83,335.00 856.05,335.00 857.26,335.00 858.47,335.00 859.69,335.00 860.90,335.00 862.12,335.00 863.33,335.00 864.54,335.00 865.76,335.00 866.97,335.00 868.19,335.00 869.40,335.00 870.61,335.00 871.83,335.00 873.04,335.00 874.26,335.00 875.47,335.00 876.68,335.00 877.90,335.00 879.11,335.00 880.33,335.00 881.54,335.00 882.75,335.00 883.97,335.00 885.18,335.00 886.40,335.00 887.61,335.00 888.82,335.00 890.04,335.00 891.25,335.00 892.47,335.00 893.68,335.00 894.89,335.00 896.11,335.00 897.32,335.00 898.54,335.00 899.75,335.00 900.96,335.00 902.18,335.00 903.39,335.00 904.61,335.00 905.82,335.00 907.03,335.00 908.25,335.00 909.46,335.00 910.68,335.00 911.89,335.00 913.10,335.00 914.32,335.00 915.53,335.00 916.75,335.00 917.96,335.00 919.17,335.00 920.39,335.00 921.60,335.00 922.82,335.00 924.03,335.00 925.24,335.00 926.46,335.00 927.67,335.00 928.89,335.00 930.10,335.00 931.31,335.00 932.53,335.00 933.74,335.00 934.96,335.00 936.17,335.00 937.38,335.00 938.60,335.00 939.81,335.00 941.03,335.00 942.24,335.00 943.45,335.00 944.67,335.00 945.88,335.00 947.10,335.00 948.31,335.00 949.52,335.00 950.74,335.00 951.95,335.00 953.17,335.00 954.38,335.00 955.59,335.00 956.81,335.00 958.02,335.00 959.24,335.00 960.45,335.00 961.66,335.00 962.88,335.00 964.09,335.00 965.31,335.00 966.52,335.00 967.73,335.00 968.95,335.00 970.16,335.00 971.38,335.00 972.59,335.00 973.80,335.00 975.02,335.00 976.23,335.00 977.45,335.00 978.66,335.00 979.87,335.00 981.09,335.00 982.30,335.00 983.52,335.00 984.73,335.00 985.94,335.00 987.16,335.00 988.37,335.00 989.59,335.00 990.80,335.00 992.02,335.00 993.23,335.00 994.44,335.00 995.66,335.00 996.87,335.00 998.09,335.00 999.30,335.00 1000.51,335.00 1001.73,335.00 1002.94,335.00 1004.16,335.00 1005.37,335.00 1006.58,335.00 1007.80,335.00 1009.01,335.00 1010.23,335.00 1011.44,335.00 1012.65,335.00 1013.87,335.00 1015.08,335.00 1016.30,335.00 1017.51,335.00 1018.72,335.00 1019.94,335.00 1021.15,335.00 1022.37,335.00 1023.58,335.00 1024.79,335.00 1026.01,335.00 1027.22,335.00 1028.44,335.00 1029.65,335.00 1030.86,335.00 1032.08,335.00 1033.29,335.00 1034.51,335.00 1035.72,335.00 1036.93,335.00 1038.15,335.00 1039.36,335.00 1040.58,335.00 1041.79,335.00 1043.00,335.00 1044.22,335.00 1045.43,335.00 1046.65,335.00 1047.86,335.00 1049.07,335.00 1050.29,335.00 1051.50,335.00 1052.72,335.00 1053.93,335.00 1055.14,335.00 1056.36,335.00 1057.57,335.00 1058.79,335.00 1060.00,335.00" fill="none" stroke="#2840dc" stroke-width="1.8" opacity="0.85"/>
<polyline points="90.00,335.00 91.21,337.42 92.43,339.83 93.64,342.25 94.86,344.66 96.07,347.06 97.28,349.46 98.50,351.85 99.71,354.22 100.93,356.60 102.14,358.95 103.35,361.28 104.57,363.63 105.78,365.94 107.00,368.20 108.21,370.53 109.42,372.77 110.64,374.97 111.85,377.25 113.07,379.41 114.28,381.53 115.49,383.76 116.71,385.82 117.92,387.86 119.14,390.03 120.35,391.98 121.56,393.92 122.78,396.02 123.99,397.84 125.21,399.70 126.42,401.71 127.63,403.39 128.85,405.16 130.06,407.05 131.28,408.60 132.49,410.27 133.70,412.02 134.92,413.45 136.13,415.01 137.35,416.60 138.56,417.92 139.77,419.34 140.99,420.76 142.20,421.98 143.42,423.25 144.63,424.48 145.84,425.62 147.06,426.71 148.27,427.76 149.49,428.81 150.70,429.70 151.91,430.58 153.13,431.53 154.34,432.21 155.56,432.93 156.77,433.76 157.98,434.24 159.20,434.81 160.41,435.46 161.63,435.78 162.84,436.19 164.06,436.65 165.27,436.83 166.48,437.07 167.70,437.30 168.91,437.40 170.13,437.44 171.34,437.43 172.55,437.45 173.77,437.29 174.98,437.07 176.20,436.99 177.41,436.62 178.62,436.21 179.84,435.99 181.05,435.44 182.27,434.88 183.48,434.44 184.69,433.77 185.91,433.07 187.12,432.37 188.34,431.62 189.55,430.77 190.76,429.81 191.98,428.98 193.19,427.98 194.41,426.80 195.62,425.86 196.83,424.70 198.05,423.39 199.26,422.24 200.48,420.96 201.69,419.57 202.90,418.17 204.12,416.77 205.33,415.35 206.55,413.69 207.76,412.18 208.97,410.68 210.19,408.86 211.40,407.22 212.62,405.56 213.83,403.71 215.04,401.89 216.26,400.05 217.47,398.24 218.69,396.24 219.90,394.23 221.11,392.42 222.33,390.29 223.54,388.18 224.76,386.22 225.97,384.08 227.18,381.91 228.40,379.72 229.61,377.62 230.83,375.42 232.04,373.03 233.25,370.91 234.47,368.67 235.68,366.25 236.90,363.99 238.11,361.70 239.32,359.38 240.54,356.93 241.75,354.57 242.97,352.34 244.18,349.81 245.39,347.39 246.61,345.10 247.82,342.67 249.04,340.22 250.25,337.74 251.46,335.46 252.68,333.03 253.89,330.46 255.11,328.17 256.32,325.79 257.53,323.34 258.75,320.88 259.96,318.53 261.18,316.27 262.39,313.74 263.60,311.38 264.82,309.15 266.03,306.78 267.25,304.43 268.46,302.07 269.67,299.94 270.89,297.65 272.10,295.27 273.32,293.16 274.53,290.99 275.74,288.82 276.96,286.57 278.17,284.49 279.39,282.55 280.60,280.34 281.81,278.29 283.03,276.34 284.24,274.44 285.46,272.47 286.67,270.43 287.88,268.73 289.10,266.93 290.31,265.06 291.53,263.27 292.74,261.60 293.95,260.08 295.17,258.29 296.38,256.68 297.60,255.23 298.81,253.77 300.03,252.29 301.24,250.74 302.45,249.54 303.67,248.28 304.88,246.93 306.10,245.67 307.31,244.52 308.52,243.58 309.74,242.39 310.95,241.31 312.17,240.41 313.38,239.58 314.59,238.75 315.81,237.76 317.02,237.11 318.24,236.50 319.45,235.88 320.66,235.20 321.88,234.60 323.09,234.32 324.31,233.89 325.52,233.47 326.73,233.08 327.95,232.92 329.16,232.88 330.38,232.62 331.59,232.50 332.80,232.46 334.02,232.67 335.23,232.76 336.45,232.76 337.66,232.99 338.87,233.31 340.09,233.79 341.30,234.02 342.52,234.38 343.73,234.93 344.94,235.59 346.16,236.24 347.37,236.70 348.59,237.43 349.80,238.27 351.01,239.22 352.23,240.01 353.44,240.79 354.66,241.85 355.87,242.96 357.08,244.16 358.30,245.11 359.51,246.23 360.73,247.53 361.94,248.94 363.15,250.31 364.37,251.48 365.58,252.91 366.80,254.42 368.01,256.13 369.22,257.61 370.44,259.07 371.65,260.69 372.87,262.46 374.08,264.37 375.29,266.02 376.51,267.73 377.72,269.47 378.94,271.52 380.15,273.55 381.36,275.44 382.58,277.30 383.79,279.20 385.01,281.43 386.22,283.58 387.43,285.73 388.65,287.66 389.86,289.74 391.08,292.00 392.29,294.36 393.50,296.67 394.72,298.72 395.93,300.91 397.15,303.15 398.36,305.69 399.57,308.08 400.79,310.37 402.00,312.54 403.22,314.81 404.43,317.35 405.64,319.85 406.86,322.35 408.07,324.54 409.29,326.84 410.50,329.19 411.71,331.81 412.93,334.37 414.14,336.77 415.36,339.03 416.57,341.25 417.78,343.74 419.00,346.27 420.21,348.89 421.43,351.19 422.64,353.44 423.85,355.60 425.07,358.01 426.28,360.54 427.50,363.04 428.71,365.40 429.92,367.47 431.14,369.61 432.35,371.76 433.57,374.23 434.78,376.61 435.99,378.97 437.21,380.98 438.42,382.93 439.64,384.87 440.85,387.01 442.07,389.31 443.28,391.53 444.49,393.63 445.71,395.39 446.92,397.14 448.14,398.81 449.35,400.80 450.56,402.80 451.78,404.89 452.99,406.70 454.21,408.31 455.42,409.70 456.63,411.09 457.85,412.66 459.06,414.35 460.28,416.19 461.49,417.82 462.70,419.32 463.92,420.42 465.13,421.50 466.35,422.44 467.56,423.67 468.77,424.96 469.99,426.45 471.20,427.79 472.42,428.97 473.63,429.82 474.84,430.42 476.06,430.93 477.27,431.43 478.49,432.18 479.70,433.03 480.91,434.11 482.13,435.04 483.34,435.92 484.56,436.37 485.77,436.64 486.98,436.52 488.20,436.41 489.41,436.21 490.63,436.27 491.84,436.47 493.05,436.94 494.27,437.49 495.48,438.05 496.70,438.47 497.91,438.59 499.12,438.41 500.34,437.80 501.55,436.94 502.77,435.75 503.98,434.53 505.19,433.19 506.41,432.09 507.62,431.08 508.84,430.48 510.05,430.07 511.26,430.14 512.48,430.42 513.69,431.12 514.91,431.96 516.12,433.14 517.33,434.39 518.55,435.86 519.76,437.33 520.98,438.93 522.19,440.50 523.40,442.11 524.62,443.68 525.83,445.23 527.05,446.74 528.26,448.20 529.47,449.61 530.69,450.95 531.90,452.26 533.12,453.46 534.33,454.65 535.54,455.71 536.76,456.78 537.97,457.70 539.19,458.65 540.40,459.42 541.61,460.23 542.83,460.86 544.04,461.54 545.26,462.03 546.47,462.56 547.68,462.91 548.90,463.30 550.11,463.50 551.33,463.76 552.54,463.81 553.75,463.93 554.97,463.84 556.18,463.81 557.40,463.57 558.61,463.40 559.82,463.02 561.04,462.71 562.25,462.19 563.47,461.73 564.68,461.07 565.89,460.48 567.11,459.68 568.32,458.94 569.54,458.00 570.75,457.12 571.96,456.05 573.18,455.04 574.39,453.83 575.61,452.69 576.82,453.83 578.04,455.04 579.25,456.05 580.46,457.12 581.68,458.00 582.89,458.94 584.11,459.68 585.32,460.48 586.53,461.07 587.75,461.73 588.96,462.19 590.18,462.71 591.39,463.02 592.60,463.40 593.82,463.57 595.03,463.81 596.25,463.84 597.46,463.93 598.67,463.81 599.89,463.76 601.10,463.50 602.32,463.30 603.53,462.91 604.74,462.56 605.96,462.03 607.17,461.54 608.39,460.86 609.60,460.23 610.81,459.42 612.03,458.65 613.24,457.71 614.46,456.79 615.67,455.72 616.88,454.66 618.10,453.47 619.31,452.28 620.53,450.98 621.74,449.66 622.95,448.27 624.17,446.84 625.38,445.39 626.60,443.91 627.81,442.45 629.02,440.97 630.24,439.61 631.45,438.26 632.67,437.11 633.88,436.05 635.09,435.30 636.31,434.71 637.52,434.53 638.74,434.56 639.95,435.06 641.16,435.75 642.38,436.86 643.59,438.04 644.81,439.47 646.02,440.77 647.23,442.05 648.45,442.97 649.66,443.67 650.88,443.91 652.09,443.86 653.30,443.50 654.52,443.01 655.73,442.51 656.95,442.11 658.16,441.95 659.37,441.96 660.59,442.18 661.80,442.35 663.02,442.50 664.23,442.27 665.44,441.85 666.66,441.00 667.87,440.10 669.09,439.04 670.30,438.22 671.51,437.47 672.73,437.00 673.94,436.48 675.16,435.91 676.37,435.04 677.58,433.89 678.80,432.52 680.01,431.04 681.23,429.72 682.44,428.49 683.65,427.52 684.87,426.43 686.08,425.31 687.30,423.77 688.51,422.12 689.72,420.23 690.94,418.52 692.15,416.90 693.37,415.49 694.58,414.02 695.79,412.39 697.01,410.50 698.22,408.37 699.44,406.29 700.65,404.26 701.86,402.51 703.08,400.69 704.29,398.88 705.51,396.68 706.72,394.41 707.93,392.00 709.15,389.82 710.36,387.75 711.58,385.75 712.79,383.61 714.01,381.19 715.22,378.69 716.43,376.14 717.65,373.88 718.86,371.63 720.08,369.47 721.29,366.98 722.50,364.40 723.72,361.72 724.93,359.24 726.15,356.92 727.36,354.59 728.57,352.15 729.79,349.41 731.00,346.76 732.22,344.13 733.43,341.81 734.64,339.39 735.86,336.90 737.07,334.16 738.29,331.45 739.50,328.93 740.71,326.52 741.93,324.18 743.14,321.55 744.36,318.92 745.57,316.22 746.78,313.84 748.00,311.49 749.21,309.11 750.43,306.53 751.64,303.88 752.85,301.48 754.07,299.15 755.28,296.96 756.50,294.48 757.71,292.02 758.92,289.57 760.14,287.39 761.35,285.28 762.57,283.02 763.78,280.70 764.99,278.33 766.21,276.31 767.42,274.28 768.64,272.29 769.85,270.07 771.06,267.94 772.28,266.02 773.49,264.19 774.71,262.40 775.92,260.34 777.13,258.46 778.35,256.68 779.56,255.14 780.78,253.46 781.99,251.68 783.20,250.01 784.42,248.47 785.63,247.18 786.85,245.66 788.06,244.17 789.27,242.70 790.49,241.51 791.70,240.41 792.92,239.12 794.13,237.90 795.34,236.71 796.56,235.87 797.77,234.92 798.99,233.93 800.20,232.94 801.41,232.14 802.63,231.58 803.84,230.82 805.06,230.12 806.27,229.42 807.48,229.04 808.70,228.68 809.91,228.16 811.13,227.75 812.34,227.44 813.55,227.41 814.77,227.20 815.98,226.99 817.20,226.91 818.41,227.00 819.62,227.21 820.84,227.17 822.05,227.34 823.27,227.62 824.48,228.07 825.69,228.41 826.91,228.67 828.12,229.26 829.34,229.86 830.55,230.53 831.76,231.04 832.98,231.74 834.19,232.69 835.41,233.50 836.62,234.36 837.83,235.19 839.05,236.35 840.26,237.47 841.48,238.46 842.69,239.61 843.90,240.86 845.12,242.28 846.33,243.49 847.55,244.78 848.76,246.32 849.97,247.83 851.19,249.36 852.40,250.78 853.62,252.51 854.83,254.27 856.05,255.88 857.26,257.60 858.47,259.40 859.69,261.39 860.90,263.18 862.12,265.00 863.33,267.08 864.54,269.10 865.76,271.13 866.97,273.07 868.19,275.27 869.40,277.51 870.61,279.54 871.83,281.75 873.04,284.01 874.26,286.36 875.47,288.56 876.68,290.78 877.90,293.29 879.11,295.61 880.33,297.93 881.54,300.32 882.75,302.81 883.97,305.31 885.18,307.59 886.40,310.14 887.61,312.72 888.82,315.14 890.04,317.62 891.25,320.14 892.47,322.79 893.68,325.23 894.89,327.69 896.11,330.39 897.32,332.90 898.54,335.39 899.75,337.93 900.96,340.54 902.18,343.12 903.39,345.49 904.61,348.14 905.82,350.73 907.03,353.13 908.25,355.65 909.46,358.17 910.68,360.72 911.89,363.08 913.10,365.51 914.32,368.11 915.53,370.41 916.75,372.76 917.96,375.24 919.17,377.58 920.39,379.88 921.60,382.13 922.82,384.52 924.03,386.77 925.24,388.84 926.46,391.18 927.67,393.35 928.89,395.37 930.10,397.51 931.31,399.60 932.53,401.64 933.74,403.53 934.96,405.52 936.17,407.55 937.38,409.25 938.60,411.12 939.81,413.01 941.03,414.64 942.24,416.35 943.45,418.04 944.67,419.67 945.88,421.18 947.10,422.65 948.31,424.25 949.52,425.57 950.74,426.86 951.95,428.34 953.17,429.51 954.38,430.66 955.59,431.92 956.81,432.99 958.02,434.01 959.24,434.98 960.45,435.98 961.66,436.86 962.88,437.56 964.09,438.46 965.31,439.17 966.52,439.67 967.73,440.41 968.95,440.93 970.16,441.30 971.38,441.80 972.59,442.16 973.80,442.41 975.02,442.65 976.23,442.85 977.45,442.99 978.66,442.95 979.87,443.01 981.09,443.01 982.30,442.73 983.52,442.64 984.73,442.46 985.94,441.99 987.16,441.73 988.37,441.35 989.59,440.74 990.80,440.28 992.02,439.70 993.23,438.98 994.44,438.29 995.66,437.53 996.87,436.70 998.09,435.77 999.30,434.85 1000.51,433.91 1001.73,432.75 1002.94,431.68 1004.16,430.61 1005.37,429.24 1006.58,428.04 1007.80,426.81 1009.01,425.27 1010.23,423.94 1011.44,422.54 1012.65,420.86 1013.87,419.39 1015.08,417.82 1016.30,416.03 1017.51,414.41 1018.72,412.69 1019.94,410.80 1021.15,409.03 1022.37,407.16 1023.58,405.19 1024.79,403.28 1026.01,401.28 1027.22,399.24 1028.44,397.17 1029.65,395.08 1030.86,392.96 1032.08,390.76 1033.29,388.58 1034.51,386.38 1035.72,384.06 1036.93,381.82 1038.15,379.54 1039.36,377.12 1040.58,374.83 1041.79,372.47 1043.00,369.97 1044.22,367.64 1045.43,365.21 1046.65,362.65 1047.86,360.28 1049.07,357.79 1050.29,355.19 1051.50,352.81 1052.72,350.26 1053.93,347.64 1055.14,345.24 1056.36,342.65 1057.57,340.02 1058.79,337.62 1060.00,335.00" fill="none" stroke="#4940bc" stroke-width="1.8" opacity="0.85"/>
<polyline points="90.00,335.00 91.21,335.05 92.43,334.79 93.64,334.61 94.86,334.46 96.07,334.62 97.28,334.46 98.50,334.18 99.71,334.07 100.93,334.07 102.14,334.15 103.35,333.81 104.57,333.65 105.78,333.62 107.00,333.68 108.21,333.56 109.42,333.20 110.64,333.21 111.85,333.22 113.07,333.22 114.28,332.93 115.49,332.73 116.71,332.84 117.92,332.80 119.14,332.68 120.35,332.37 121.56,332.39 122.78,332.46 123.99,332.34 125.21,332.16 126.42,331.98 127.63,332.09 128.85,332.03 130.06,331.89 131.28,331.74 132.49,331.69 133.70,331.73 134.92,331.60 136.13,331.53 137.35,331.43 138.56,331.39 139.77,331.35 140.99,331.30 142.20,331.26 143.42,331.14 144.63,331.06 145.84,331.08 147.06,331.11 148.27,331.00 149.49,330.83 150.70,330.81 151.91,330.96 153.13,330.92 154.34,330.72 155.56,330.61 156.77,330.72 157.98,330.86 159.20,330.66 160.41,330.55 161.63,330.54 162.84,330.69 164.06,330.69 165.27,330.51 166.48,330.54 167.70,330.51 168.91,330.63 170.13,330.57 171.34,330.57 172.55,330.56 173.77,330.44 174.98,330.60 176.20,330.63 177.41,330.69 178.62,330.50 179.84,330.48 181.05,330.73 182.27,330.77 183.48,330.73 184.69,330.55 185.91,330.70 187.12,330.87 188.34,330.88 189.55,330.84 190.76,330.81 191.98,330.90 193.19,330.96 194.41,331.06 195.62,331.14 196.83,331.09 198.05,331.01 199.26,331.20 200.48,331.38 201.69,331.45 202.90,331.29 204.12,331.31 205.33,331.57 206.55,331.65 207.76,331.74 208.97,331.64 210.19,331.76 211.40,331.81 212.62,331.93 213.83,332.16 215.04,332.13 216.26,332.12 217.47,332.08 218.69,332.38 219.90,332.59 221.11,332.54 222.33,332.52 223.54,332.60 224.76,332.78 225.97,332.92 227.18,333.04 228.40,333.11 229.61,333.09 230.83,333.08 232.04,333.39 233.25,333.58 234.47,333.64 235.68,333.54 236.90,333.61 238.11,333.88 239.32,333.95 240.54,334.17 241.75,334.18 242.97,334.21 244.18,334.20 245.39,334.40 246.61,334.74 247.82,334.78 249.04,334.73 250.25,334.76 251.46,334.92 252.68,335.09 253.89,335.28 255.11,335.40 256.32,335.45 257.53,335.31 258.75,335.50 259.96,335.79 261.18,335.94 262.39,336.01 263.60,335.93 264.82,336.08 266.03,336.08 267.25,336.33 268.46,336.60 269.67,336.65 270.89,336.56 272.10,336.55 273.32,336.75 274.53,336.95 275.74,337.09 276.96,337.22 278.17,337.25 279.39,337.08 280.60,337.25 281.81,337.45 283.03,337.72 284.24,337.74 285.46,337.72 286.67,337.77 287.88,337.67 289.10,337.88 290.31,338.15 291.53,338.31 292.74,338.24 293.95,338.19 295.17,338.19 296.38,338.29 297.60,338.40 298.81,338.73 300.03,338.78 301.24,338.62 302.45,338.61 303.67,338.58 304.88,338.77 306.10,338.88 307.31,339.13 308.52,339.16 309.74,338.97 310.95,338.88 312.17,338.98 313.38,339.05 314.59,339.27 315.81,339.43 317.02,339.41 318.24,339.26 319.45,339.06 320.66,339.22 321.88,339.24 323.09,339.45 324.31,339.63 325.52,339.60 326.73,339.39 327.95,339.26 329.16,339.23 330.38,339.33 331.59,339.46 332.80,339.68 334.02,339.72 335.23,339.43 336.45,339.36 337.66,339.19 338.87,339.20 340.09,339.33 341.30,339.56 342.52,339.63 343.73,339.51 344.94,339.32 346.16,339.17 347.37,338.94 348.59,339.00 349.80,339.27 351.01,339.31 352.23,339.42 353.44,339.29 354.66,339.09 355.87,338.76 357.08,338.64 358.30,338.69 359.51,338.81 360.73,338.90 361.94,339.13 363.15,338.95 364.37,338.68 365.58,338.47 366.80,338.18 368.01,338.09 369.22,338.15 370.44,338.38 371.65,338.48 372.87,338.49 374.08,338.38 375.29,338.13 376.51,337.65 377.72,337.53 378.94,337.38 380.15,337.38 381.36,337.61 382.58,337.80 383.79,337.82 385.01,337.72 386.22,337.47 387.43,337.10 388.65,336.70 389.86,336.46 391.08,336.49 392.29,336.44 393.50,336.75 394.72,336.95 395.93,336.97 397.15,336.88 398.36,336.68 399.57,336.17 400.79,335.79 402.00,335.43 403.22,335.26 404.43,335.21 405.64,335.39 406.86,335.71 408.07,335.87 409.29,336.02 410.50,336.04 411.71,335.71 412.93,335.27 414.14,334.89 415.36,334.25 416.57,333.91 417.78,333.71 419.00,333.70 420.21,333.85 421.43,334.23 422.64,334.58 423.85,334.92 425.07,335.06 426.28,335.16 427.50,334.86 428.71,334.41 429.92,333.91 431.14,333.15 432.35,332.45 433.57,331.97 434.78,331.48 435.99,331.24 437.21,331.41 438.42,331.60 439.64,332.13 440.85,332.79 442.07,333.55 443.28,334.24 444.49,334.97 445.71,335.48 446.92,335.83 448.14,335.82 449.35,335.72 450.56,335.12 451.78,334.27 452.99,333.19 454.21,331.73 455.42,329.94 456.63,328.14 457.85,325.89 459.06,323.53 460.28,321.13 461.49,318.46 462.70,315.72 463.92,313.01 465.13,310.12 466.35,307.21 467.56,304.35 468.77,301.38 469.99,298.47 471.20,295.51 472.42,292.63 473.63,289.68 474.84,286.79 476.06,283.94 477.27,281.11 478.49,278.20 479.70,275.54 480.91,272.69 482.13,269.96 483.34,267.34 484.56,264.67 485.77,261.97 486.98,259.56 488.20,256.91 489.41,254.43 490.63,252.06 491.84,249.62 493.05,247.22 494.27,245.05 495.48,242.69 496.70,240.52 497.91,238.42 499.12,236.29 500.34,234.24 501.55,232.31 502.77,230.34 503.98,228.49 505.19,226.69 506.41,224.94 507.62,223.26 508.84,221.63 510.05,220.10 511.26,218.58 512.48,217.15 513.69,215.81 514.91,214.49 516.12,213.23 517.33,212.15 518.55,210.98 519.76,209.97 520.98,209.06 522.19,208.13 523.40,207.28 524.62,206.66 525.83,205.85 527.05,205.31 528.26,204.82 529.47,204.30 530.69,203.91 531.90,203.71 533.12,203.32 534.33,203.25 535.54,203.17 536.76,203.08 537.97,203.16 539.19,203.38 540.40,203.42 541.61,203.82 542.83,204.16 544.04,204.51 545.26,205.05 546.47,205.68 547.68,206.17 548.90,207.02 550.11,207.75 551.33,208.56 552.54,209.54 553.75,210.56 554.97,211.50 556.18,212.77 557.40,213.89 558.61,215.14 559.82,216.53 561.04,217.93 562.25,219.30 563.47,220.97 564.68,222.46 565.89,224.12 567.11,225.89 568.32,227.64 569.54,229.41 570.75,231.44 571.96,233.28 573.18,235.32 574.39,237.42 575.61,239.51 576.82,237.56 578.04,235.83 579.25,233.90 580.46,232.23 581.68,230.56 582.89,228.89 584.11,227.31 585.32,225.91 586.53,224.32 587.75,223.03 588.96,221.71 590.18,220.39 591.39,219.21 592.60,218.16 593.82,216.95 595.03,216.07 596.25,215.11 597.46,214.19 598.67,213.44 599.89,212.75 601.10,211.95 602.32,211.50 603.53,210.91 604.74,210.41 605.96,210.09 607.17,209.79 608.39,209.41 609.60,209.39 610.81,209.19 612.03,209.13 613.24,209.23 614.46,209.32 615.67,209.39 616.88,209.79 618.10,209.99 619.31,210.37 620.53,210.89 621.74,211.37 622.95,211.90 624.17,212.69 625.38,213.29 626.60,214.11 627.81,215.02 629.02,215.90 630.24,216.87 631.45,218.01 632.67,219.04 633.88,220.27 635.09,221.53 636.31,222.82 637.52,224.19 638.74,225.66 639.95,227.13 641.16,228.70 642.38,230.32 643.59,232.01 644.81,233.72 646.02,235.51 647.23,237.40 648.45,239.25 649.66,241.21 650.88,243.26 652.09,245.27 653.30,247.35 654.52,249.61 655.73,251.69 656.95,253.99 658.16,256.33 659.37,258.60 660.59,260.97 661.80,263.51 663.02,265.81 664.23,268.40 665.44,270.96 666.66,273.47 667.87,276.08 669.09,278.81 670.30,281.34 671.51,284.13 672.73,286.84 673.94,289.58 675.16,292.34 676.37,295.18 677.58,297.94 678.80,300.79 680.01,303.60 681.23,306.49 682.44,309.25 683.65,312.11 684.87,314.95 686.08,317.65 687.30,320.40 688.51,323.14 689.72,325.62 690.94,328.13 692.15,330.57 693.37,332.63 694.58,334.73 695.79,336.56 697.01,338.04 698.22,339.34 699.44,340.40 700.65,340.97 701.86,341.41 703.08,341.43 704.29,341.22 705.51,340.67 706.72,340.02 707.93,339.14 709.15,338.21 710.36,337.26 711.58,336.52 712.79,335.71 714.01,335.28 715.22,335.10 716.43,335.00 717.65,335.24 718.86,335.72 720.08,336.08 721.29,336.59 722.50,337.05 723.72,337.19 724.93,337.25 726.15,337.04 727.36,336.66 728.57,336.07 729.79,335.52 731.00,334.99 732.22,334.58 733.43,334.31 734.64,334.46 735.86,334.50 737.07,334.82 738.29,335.19 739.50,335.33 740.71,335.34 741.93,335.28 743.14,334.86 744.36,334.41 745.57,333.97 746.78,333.58 748.00,333.37 749.21,333.32 750.43,333.56 751.64,333.71 752.85,333.90 754.07,334.05 755.28,333.93 756.50,333.54 757.71,333.31 758.92,332.81 760.14,332.52 761.35,332.42 762.57,332.49 763.78,332.62 764.99,332.82 766.21,332.94 767.42,332.87 768.64,332.56 769.85,332.28 771.06,331.97 772.28,331.60 773.49,331.69 774.71,331.75 775.92,331.90 777.13,332.05 778.35,332.10 779.56,331.86 780.78,331.59 781.99,331.27 783.20,331.13 784.42,330.97 785.63,331.14 786.85,331.39 788.06,331.38 789.27,331.41 790.49,331.26 791.70,330.93 792.92,330.67 794.13,330.62 795.34,330.64 796.56,330.82 797.77,330.92 798.99,331.09 800.20,330.84 801.41,330.61 802.63,330.47 803.84,330.31 805.06,330.34 806.27,330.58 807.48,330.73 808.70,330.73 809.91,330.62 811.13,330.43 812.34,330.29 813.55,330.11 814.77,330.38 815.98,330.52 817.20,330.61 818.41,330.64 819.62,330.53 820.84,330.30 822.05,330.20 823.27,330.30 824.48,330.51 825.69,330.62 826.91,330.69 828.12,330.72 829.34,330.40 830.55,330.38 831.76,330.44 832.98,330.63 834.19,330.78 835.41,330.89 836.62,330.89 837.83,330.70 839.05,330.58 840.26,330.76 841.48,330.92 842.69,331.04 843.90,331.24 845.12,331.14 846.33,331.07 847.55,330.93 848.76,331.16 849.97,331.38 851.19,331.47 852.40,331.61 853.62,331.57 854.83,331.43 856.05,331.45 857.26,331.69 858.47,331.92 859.69,332.04 860.90,331.99 862.12,332.07 863.33,331.92 864.54,332.07 865.76,332.35 866.97,332.54 868.19,332.60 869.40,332.50 870.61,332.58 871.83,332.61 873.04,332.78 874.26,333.07 875.47,333.23 876.68,333.12 877.90,333.11 879.11,333.19 880.33,333.45 881.54,333.59 882.75,333.74 883.97,333.87 885.18,333.69 886.40,333.81 887.61,334.00 888.82,334.31 890.04,334.38 891.25,334.35 892.47,334.44 893.68,334.47 894.89,334.62 896.11,334.90 897.32,335.08 898.54,335.03 899.75,334.99 900.96,335.10 902.18,335.43 903.39,335.50 904.61,335.65 905.82,335.68 907.03,335.66 908.25,335.78 909.46,335.94 910.68,336.30 911.89,336.24 913.10,336.20 914.32,336.28 915.53,336.48 916.75,336.69 917.96,336.75 919.17,336.85 920.39,336.85 921.60,336.86 922.82,337.06 924.03,337.35 925.24,337.37 926.46,337.32 927.67,337.30 928.89,337.57 930.10,337.73 931.31,337.77 932.53,337.87 933.74,337.81 934.96,337.94 936.17,338.00 937.38,338.28 938.60,338.34 939.81,338.19 941.03,338.25 942.24,338.41 943.45,338.68 944.67,338.62 945.88,338.58 947.10,338.65 948.31,338.75 949.52,338.87 950.74,338.95 951.95,338.99 953.17,338.94 954.38,338.93 955.59,339.11 956.81,339.32 958.02,339.21 959.24,339.13 960.45,339.14 961.66,339.41 962.88,339.47 964.09,339.33 965.31,339.36 966.52,339.36 967.73,339.53 968.95,339.49 970.16,339.54 971.38,339.52 972.59,339.42 973.80,339.55 975.02,339.60 976.23,339.70 977.45,339.49 978.66,339.43 979.87,339.60 981.09,339.69 982.30,339.64 983.52,339.40 984.73,339.48 985.94,339.61 987.16,339.61 988.37,339.48 989.59,339.38 990.80,339.46 992.02,339.47 993.23,339.43 994.44,339.37 995.66,339.32 996.87,339.26 998.09,339.27 999.30,339.27 1000.51,339.24 1001.73,339.07 1002.94,339.01 1004.16,339.09 1005.37,339.09 1006.58,338.96 1007.80,338.72 1009.01,338.81 1010.23,338.88 1011.44,338.78 1012.65,338.55 1013.87,338.42 1015.08,338.61 1016.30,338.53 1017.51,338.36 1018.72,338.14 1019.94,338.19 1021.15,338.28 1022.37,338.06 1023.58,337.93 1024.79,337.78 1026.01,337.90 1027.22,337.79 1028.44,337.58 1029.65,337.51 1030.86,337.41 1032.08,337.47 1033.29,337.24 1034.51,337.15 1035.72,337.06 1036.93,336.99 1038.15,336.95 1039.36,336.72 1040.58,336.71 1041.79,336.55 1043.00,336.51 1044.22,336.39 1045.43,336.24 1046.65,336.21 1047.86,336.01 1049.07,336.01 1050.29,335.84 1051.50,335.76 1052.72,335.65 1053.93,335.49 1055.14,335.49 1056.36,335.29 1057.57,335.25 1058.79,335.06 1060.00,335.00" fill="none" stroke="#6a409c" stroke-width="1.8" opacity="0.85"/>
<polyline points="90.00,335.00 91.21,329.48 92.43,323.64 93.64,317.93 94.86,312.10 96.07,306.43 97.28,300.90 98.50,295.45 99.71,289.67 100.93,284.07 102.14,278.41 103.35,272.82 104.57,267.56 105.78,262.12 107.00,256.66 108.21,251.20 109.42,245.86 110.64,240.49 111.85,235.50 113.07,230.30 114.28,225.13 115.49,220.11 116.71,215.03 117.92,210.13 119.14,205.34 120.35,200.59 121.56,195.81 122.78,191.33 123.99,186.66 125.21,182.18 126.42,177.82 127.63,173.48 128.85,169.37 130.06,165.36 131.28,161.32 132.49,157.25 133.70,153.43 134.92,149.63 136.13,146.22 137.35,142.85 138.56,139.38 139.77,135.92 140.99,132.61 142.20,129.57 143.42,126.82 144.63,124.18 145.84,121.33 147.06,118.55 148.27,115.90 149.49,113.62 150.70,111.60 151.91,109.63 153.13,107.56 154.34,105.51 155.56,103.68 156.77,102.13 157.98,100.78 159.20,99.52 160.41,98.30 161.63,97.13 162.84,96.15 164.06,95.33 165.27,94.58 166.48,94.07 167.70,93.78 168.91,93.52 170.13,93.45 171.34,93.29 172.55,93.20 173.77,93.47 174.98,94.07 176.20,94.72 177.41,95.48 178.62,96.12 179.84,96.71 181.05,97.87 182.27,99.14 183.48,100.62 184.69,102.15 185.91,103.68 187.12,105.20 188.34,107.09 189.55,109.01 190.76,111.01 191.98,113.43 193.19,115.79 194.41,118.39 195.62,120.90 196.83,123.43 198.05,126.00 199.26,129.07 200.48,132.30 201.69,135.64 202.90,138.95 204.12,142.10 205.33,145.49 206.55,149.01 207.76,152.82 208.97,156.64 210.19,160.62 211.40,164.72 212.62,168.85 213.83,172.91 215.04,177.03 216.26,181.24 217.47,185.72 218.69,190.58 219.90,195.33 221.11,199.93 222.33,204.63 223.54,209.25 224.76,214.09 225.97,219.18 227.18,224.18 228.40,229.39 229.61,234.74 230.83,240.03 232.04,245.12 233.25,250.31 234.47,255.39 235.68,260.90 236.90,266.58 238.11,272.20 239.32,277.79 240.54,283.27 241.75,288.85 242.97,294.27 244.18,299.81 245.39,305.33 246.61,311.14 247.82,317.02 249.04,322.99 250.25,328.63 251.46,334.10 252.68,339.74 253.89,345.27 255.11,350.93 256.32,356.70 257.53,362.42 258.75,368.29 259.96,374.19 261.18,379.70 262.39,385.05 263.60,390.43 264.82,395.86 266.03,401.37 267.25,407.00 268.46,412.46 269.67,418.09 270.89,423.53 272.10,428.85 273.32,433.80 274.53,438.68 275.74,443.77 276.96,448.80 278.17,453.94 279.39,459.01 280.60,464.06 281.81,468.94 283.03,473.83 284.24,478.16 285.46,482.42 286.67,486.79 287.88,491.10 289.10,495.48 290.31,499.85 291.53,504.12 292.74,508.42 293.95,512.48 295.17,516.25 296.38,519.67 297.60,523.06 298.81,526.50 300.03,529.81 301.24,533.11 302.45,536.47 303.67,539.89 304.88,543.04 306.10,546.18 307.31,548.70 308.52,551.16 309.74,553.54 310.95,555.64 312.17,557.63 313.38,559.70 314.59,561.87 315.81,564.02 317.02,566.05 318.24,567.87 319.45,569.50 320.66,570.91 321.88,572.04 323.09,572.79 324.31,573.35 325.52,574.05 326.73,574.71 327.95,575.13 329.16,575.84 330.38,576.36 331.59,576.96 332.80,577.29 334.02,577.30 335.23,577.03 336.45,576.57 337.66,575.85 338.87,574.77 340.09,573.57 341.30,572.48 342.52,571.40 343.73,570.19 344.94,569.08 346.16,568.04 347.37,566.86 348.59,565.64 349.80,564.09 351.01,562.16 352.23,560.24 353.44,557.82 354.66,555.15 355.87,552.12 357.08,549.19 358.30,546.15 359.51,542.94 360.73,539.84 361.94,536.91 363.15,533.99 364.37,531.17 365.58,528.30 366.80,525.33 368.01,522.40 369.22,519.32 370.44,515.77 371.65,512.05 372.87,508.12 374.08,503.86 375.29,499.22 376.51,494.21 377.72,489.30 378.94,483.97 380.15,478.63 381.36,473.22 382.58,467.80 383.79,462.55 385.01,457.43 386.22,452.30 387.43,447.47 388.65,442.89 389.86,438.57 391.08,434.22 392.29,430.23 393.50,426.51 394.72,422.94 395.93,419.34 397.15,416.07 398.36,412.92 399.57,409.78 400.79,406.82 402.00,403.76 403.22,400.90 404.43,398.08 405.64,395.21 406.86,392.35 408.07,389.47 409.29,386.76 410.50,383.96 411.71,380.91 412.93,378.21 414.14,375.36 415.36,372.48 416.57,369.48 417.78,366.63 419.00,363.76 420.21,360.80 421.43,357.79 422.64,354.89 423.85,351.89 425.07,348.96 426.28,345.94 427.50,342.92 428.71,339.93 429.92,337.06 431.14,333.92 432.35,330.91 433.57,327.98 434.78,325.03 435.99,321.98 437.21,318.90 438.42,316.11 439.64,313.13 440.85,310.05 442.07,307.20 443.28,304.29 444.49,301.41 445.71,298.48 446.92,295.58 448.14,292.86 449.35,289.94 450.56,287.22 451.78,284.39 452.99,281.66 454.21,279.02 455.42,276.32 456.63,273.59 457.85,271.06 459.06,268.51 460.28,265.97 461.49,263.33 462.70,261.02 463.92,258.63 465.13,256.17 466.35,253.77 467.56,251.65 468.77,249.37 469.99,247.10 471.20,244.96 472.42,242.96 473.63,240.89 474.84,238.83 476.06,236.92 477.27,235.14 478.49,233.19 479.70,231.48 480.91,229.74 482.13,228.11 483.34,226.54 484.56,224.94 485.77,223.52 486.98,222.10 488.20,220.77 489.41,219.51 490.63,218.17 491.84,217.15 493.05,216.06 494.27,214.94 495.48,214.03 496.70,213.15 497.91,212.41 499.12,211.50 500.34,210.85 501.55,210.39 502.77,209.72 503.98,209.20 505.19,208.87 506.41,208.57 507.62,208.28 508.84,207.95 510.05,208.02 511.26,207.94 512.48,207.85 513.69,207.97 514.91,208.21 516.12,208.42 517.33,208.64 518.55,209.03 519.76,209.61 520.98,209.97 522.19,210.57 523.40,211.25 524.62,212.02 525.83,212.73 527.05,213.59 528.26,214.55 529.47,215.56 530.69,216.53 531.90,217.72 533.12,218.89 534.33,220.17 535.54,221.43 536.76,222.86 537.97,224.28 539.19,225.80 540.40,227.33 541.61,228.99 542.83,230.64 544.04,232.42 545.26,234.18 546.47,236.06 547.68,237.95 548.90,239.96 550.11,241.91 551.33,244.02 552.54,246.12 553.75,248.33 554.97,250.48 556.18,252.78 557.40,255.10 558.61,257.47 559.82,259.79 561.04,262.31 562.25,264.76 563.47,267.30 564.68,269.78 565.89,272.46 567.11,275.07 568.32,277.70 569.54,280.38 570.75,283.18 571.96,285.87 573.18,288.66 574.39,291.43 575.61,294.36 576.82,291.35 578.04,288.46 579.25,285.62 580.46,282.81 581.68,279.93 582.89,277.16 584.11,274.43 585.32,271.75 586.53,268.96 587.75,266.40 588.96,263.79 590.18,261.22 591.39,258.64 592.60,256.22 593.82,253.77 595.03,251.37 596.25,248.98 597.46,246.76 598.67,244.46 599.89,242.28 601.10,240.09 602.32,238.05 603.53,235.97 604.74,234.00 605.96,232.04 607.17,230.22 608.39,228.36 609.60,226.64 610.81,224.91 612.03,223.31 613.24,221.71 614.46,220.24 615.67,218.72 616.88,217.42 618.10,216.07 619.31,214.84 620.53,213.60 621.74,212.55 622.95,211.51 624.17,210.48 625.38,209.55 626.60,208.83 627.81,207.98 629.02,207.28 630.24,206.63 631.45,206.19 632.67,205.63 633.88,205.14 635.09,204.92 636.31,204.68 637.52,204.36 638.74,204.28 639.95,204.26 641.16,204.37 642.38,204.27 643.59,204.53 644.81,204.88 646.02,205.08 647.23,205.44 648.45,205.95 649.66,206.54 650.88,207.09 652.09,207.64 653.30,208.59 654.52,209.34 655.73,210.15 656.95,211.16 658.16,212.19 659.37,213.32 660.59,214.37 661.80,215.65 663.02,217.01 664.23,218.27 665.44,219.74 666.66,221.21 667.87,222.76 669.09,224.43 670.30,226.02 671.51,227.81 672.73,229.57 673.94,231.49 675.16,233.36 676.37,235.27 677.58,237.37 678.80,239.50 680.01,241.50 681.23,243.71 682.44,246.01 683.65,248.33 684.87,250.51 686.08,252.96 687.30,255.45 688.51,257.92 689.72,260.27 690.94,262.96 692.15,265.58 693.37,268.14 694.58,270.79 695.79,273.55 697.01,276.30 698.22,279.06 699.44,281.78 700.65,284.74 701.86,287.51 703.08,290.46 704.29,293.34 705.51,296.21 706.72,299.29 707.93,302.23 709.15,305.17 710.36,308.19 711.58,311.25 712.79,314.37 714.01,317.24 715.22,320.35 716.43,323.56 717.65,326.53 718.86,329.57 720.08,332.68 721.29,335.86 722.50,338.86 723.72,341.91 724.93,345.03 726.15,348.15 727.36,351.16 728.57,354.24 729.79,357.26 731.00,360.33 732.22,363.40 733.43,366.40 734.64,369.29 735.86,372.46 737.07,375.40 738.29,378.37 739.50,381.25 740.71,384.34 741.93,387.38 743.14,390.19 744.36,393.23 745.57,396.36 746.78,399.35 748.00,402.50 749.21,405.61 750.43,408.94 751.64,412.32 752.85,415.79 754.07,419.41 755.28,423.16 756.50,427.25 757.71,431.40 758.92,435.68 760.14,440.26 761.35,445.25 762.57,450.16 763.78,455.30 764.99,460.72 766.21,466.26 767.42,471.80 768.64,477.35 769.85,482.87 771.06,488.42 772.28,493.62 773.49,498.78 774.71,503.43 775.92,507.98 777.13,512.30 778.35,516.09 779.56,519.62 780.78,523.07 781.99,526.33 783.20,529.35 784.42,532.31 785.63,535.41 786.85,538.56 788.06,541.71 789.27,544.94 790.49,548.23 791.70,551.53 792.92,554.82 794.13,557.90 795.34,560.55 796.56,563.33 797.77,565.59 798.99,567.53 800.20,569.14 801.41,570.65 802.63,572.05 803.84,573.25 805.06,574.46 806.27,575.76 807.48,577.06 808.70,578.49 809.91,579.71 811.13,580.76 812.34,581.78 813.55,582.56 814.77,582.81 815.98,582.83 817.20,582.73 818.41,582.34 819.62,581.95 820.84,581.31 822.05,580.90 823.27,580.43 824.48,580.05 825.69,579.49 826.91,578.64 828.12,577.73 829.34,576.62 830.55,574.97 831.76,573.13 832.98,571.22 834.19,569.22 835.41,567.19 836.62,565.19 837.83,563.08 839.05,561.09 840.26,559.01 841.48,556.55 842.69,553.86 843.90,550.84 845.12,547.89 846.33,544.50 847.55,541.12 848.76,537.77 849.97,534.48 851.19,531.24 852.40,527.93 853.62,524.27 854.83,520.49 856.05,516.65 857.26,512.39 858.47,507.96 859.69,503.55 860.90,499.18 862.12,494.95 863.33,490.64 864.54,486.20 865.76,481.70 866.97,476.98 868.19,472.20 869.40,466.93 870.61,461.72 871.83,456.60 873.04,451.58 874.26,446.49 875.47,441.49 876.68,436.27 877.90,430.98 879.11,425.69 880.33,419.89 881.54,414.14 882.75,408.49 883.97,402.98 885.18,397.50 886.40,392.01 887.61,386.39 888.82,380.73 890.04,374.95 891.25,369.03 892.47,362.95 893.68,357.02 894.89,351.34 896.11,345.76 897.32,340.00 898.54,334.30 899.75,328.36 900.96,322.41 902.18,316.57 903.39,310.47 904.61,304.63 905.82,299.01 907.03,293.52 908.25,287.84 909.46,282.19 910.68,276.22 911.89,270.44 913.10,264.83 914.32,259.19 915.53,253.72 916.75,248.33 917.96,243.10 919.17,237.74 920.39,232.30 921.60,226.76 922.82,221.39 924.03,216.29 925.24,211.44 926.46,206.53 927.67,201.55 928.89,196.69 930.10,191.79 931.31,186.93 932.53,182.29 933.74,177.61 934.96,173.29 936.17,169.21 937.38,164.96 938.60,160.64 939.81,156.36 941.03,152.21 942.24,148.34 943.45,144.86 944.67,141.14 945.88,137.64 947.10,134.14 948.31,130.71 949.52,127.39 950.74,124.19 951.95,121.18 953.17,118.39 954.38,115.91 955.59,113.22 956.81,110.60 958.02,107.91 959.24,105.63 960.45,103.60 961.66,101.80 962.88,100.03 964.09,98.12 965.31,96.41 966.52,94.86 967.73,93.52 968.95,92.29 970.16,91.34 971.38,90.37 972.59,89.65 973.80,88.99 975.02,88.22 976.23,87.72 977.45,87.54 978.66,87.53 979.87,87.75 981.09,87.92 982.30,87.89 983.52,88.19 984.73,88.82 985.94,89.63 987.16,90.68 988.37,91.65 989.59,92.50 990.80,93.71 992.02,95.09 993.23,96.65 994.44,98.40 995.66,100.21 996.87,102.00 998.09,104.09 999.30,106.20 1000.51,108.38 1001.73,110.88 1002.94,113.44 1004.16,116.22 1005.37,119.03 1006.58,121.86 1007.80,124.66 1009.01,127.85 1010.23,131.20 1011.44,134.74 1012.65,138.31 1013.87,141.68 1015.08,145.22 1016.30,148.96 1017.51,153.10 1018.72,157.24 1019.94,161.44 1021.15,165.39 1022.37,169.52 1023.58,173.93 1024.79,178.58 1026.01,183.36 1027.22,187.93 1028.44,192.55 1029.65,197.13 1030.86,202.13 1032.08,207.22 1033.29,212.42 1034.51,217.44 1035.72,222.47 1036.93,227.61 1038.15,232.91 1039.36,238.48 1040.58,243.87 1041.79,249.34 1043.00,254.66 1044.22,260.19 1045.43,265.79 1046.65,271.58 1047.86,277.25 1049.07,282.86 1050.29,288.55 1051.50,294.18 1052.72,300.10 1053.93,305.91 1055.14,311.78 1056.36,317.47 1057.57,323.30 1058.79,329.06 1060.00,335.00" fill="none" stroke="#8c407d" stroke-width="1.8" opacity="0.85"/>
<polyline points="90.00,335.00 91.21,335.49 92.43,335.90 93.64,336.09 94.86,336.01 96.07,336.05 97.28,336.50 98.50,336.76 99.71,337.39 100.93,337.86 102.14,338.09 103.35,338.08 104.57,338.10 105.78,338.33 107.00,338.64 108.21,339.09 109.42,339.73 110.64,340.01 111.85,339.98 113.07,340.15 114.28,340.13 115.49,340.40 116.71,340.76 117.92,341.36 119.14,341.72 120.35,341.80 121.56,341.93 122.78,342.01 123.99,342.00 125.21,342.36 126.42,342.82 127.63,343.09 128.85,343.38 130.06,343.48 131.28,343.66 132.49,343.61 133.70,343.82 134.92,344.14 136.13,344.28 137.35,344.47 138.56,344.78 139.77,344.92 140.99,345.06 142.20,345.21 143.42,345.31 144.63,345.33 145.84,345.29 147.06,345.59 148.27,345.80 149.49,346.06 150.70,346.35 151.91,346.41 153.13,346.23 154.34,346.09 155.56,346.07 156.77,346.26 157.98,346.55 159.20,346.91 160.41,347.09 161.63,346.96 162.84,346.78 164.06,346.61 165.27,346.57 166.48,346.71 167.70,346.89 168.91,347.05 170.13,347.12 171.34,347.10 172.55,347.03 173.77,346.99 174.98,346.90 176.20,346.70 177.41,346.61 178.62,346.57 179.84,346.67 181.05,346.80 182.27,347.01 183.48,346.99 184.69,346.66 185.91,346.28 187.12,346.08 188.34,345.84 189.55,345.90 190.76,346.14 191.98,346.15 193.19,346.09 194.41,345.87 195.62,345.81 196.83,345.46 198.05,345.19 199.26,345.02 200.48,344.74 201.69,344.45 202.90,344.60 204.12,344.67 205.33,344.74 206.55,344.61 207.76,344.28 208.97,343.88 210.19,343.26 211.40,343.10 212.62,342.92 213.83,342.80 215.04,342.72 216.26,342.67 217.47,342.54 218.69,342.52 219.90,342.27 221.11,341.99 222.33,341.48 223.54,340.87 224.76,340.47 225.97,340.23 227.18,340.27 228.40,340.20 229.61,340.15 230.83,340.06 232.04,339.82 233.25,339.48 234.47,339.23 235.68,338.80 236.90,338.12 238.11,337.59 239.32,337.31 240.54,337.08 241.75,337.09 242.97,337.16 244.18,337.11 245.39,336.85 246.61,336.60 247.82,336.36 249.04,335.96 250.25,335.32 251.46,334.82 252.68,334.16 253.89,333.79 255.11,333.67 256.32,333.58 257.53,333.70 258.75,333.57 259.96,333.48 261.18,333.38 262.39,333.26 263.60,332.86 264.82,332.33 266.03,331.64 267.25,331.08 268.46,330.42 269.67,330.16 270.89,330.04 272.10,329.78 273.32,329.70 274.53,329.82 275.74,330.02 276.96,330.05 278.17,330.09 279.39,329.83 280.60,329.37 281.81,328.87 283.03,328.35 284.24,327.83 285.46,327.16 286.67,326.51 287.88,326.09 289.10,325.86 290.31,325.94 291.53,325.98 292.74,326.14 293.95,326.42 295.17,326.61 296.38,326.83 297.60,327.23 298.81,327.07 300.03,326.81 301.24,326.37 302.45,325.96 303.67,325.38 304.88,324.63 306.10,323.95 307.31,323.14 308.52,322.52 309.74,322.09 310.95,321.93 312.17,321.79 313.38,321.84 314.59,322.03 315.81,322.57 317.02,323.33 318.24,324.02 319.45,324.64 320.66,325.48 321.88,326.15 323.09,326.76 324.31,327.40 325.52,327.70 326.73,327.69 327.95,327.54 329.16,327.23 330.38,326.84 331.59,325.87 332.80,324.79 334.02,323.42 335.23,321.94 336.45,320.34 337.66,318.41 338.87,316.35 340.09,314.12 341.30,311.78 342.52,309.34 343.73,307.05 344.94,304.41 346.16,301.61 347.37,298.97 348.59,296.40 349.80,293.67 351.01,290.97 352.23,288.12 353.44,285.40 354.66,282.72 355.87,280.04 357.08,277.41 358.30,274.71 359.51,271.98 360.73,269.41 361.94,266.84 363.15,264.52 364.37,261.83 365.58,259.28 366.80,256.93 368.01,254.67 369.22,252.30 370.44,249.97 371.65,247.73 372.87,245.46 374.08,243.46 375.29,241.35 376.51,239.29 377.72,237.32 378.94,235.28 380.15,233.43 381.36,231.79 382.58,229.97 383.79,228.15 385.01,226.46 386.22,225.02 387.43,223.55 388.65,222.01 389.86,220.54 391.08,219.25 392.29,217.98 393.50,216.88 394.72,215.65 395.93,214.60 397.15,213.53 398.36,212.65 399.57,211.75 400.79,211.10 402.00,210.26 403.22,209.43 404.43,209.03 405.64,208.55 406.86,208.06 408.07,207.63 409.29,207.22 410.50,207.12 411.71,207.01 412.93,206.86 414.14,206.70 415.36,206.86 416.57,206.99 417.78,207.16 419.00,207.47 420.21,207.72 421.43,208.13 422.64,208.59 423.85,209.22 425.07,209.84 426.28,210.44 427.50,211.13 428.71,212.04 429.92,212.99 431.14,213.97 432.35,214.81 433.57,215.91 434.78,217.24 435.99,218.46 437.21,219.62 438.42,220.98 439.64,222.40 440.85,223.97 442.07,225.50 443.28,227.05 444.49,228.62 445.71,230.53 446.92,232.17 448.14,234.08 449.35,236.00 450.56,237.83 451.78,239.86 452.99,241.99 454.21,244.11 455.42,246.21 456.63,248.36 457.85,250.63 459.06,253.01 460.28,255.47 461.49,257.58 462.70,260.09 463.92,262.65 465.13,265.23 466.35,267.71 467.56,270.18 468.77,272.89 469.99,275.64 471.20,278.35 472.42,280.94 473.63,283.68 474.84,286.59 476.06,289.40 477.27,292.21 478.49,295.00 479.70,297.95 480.91,300.86 482.13,303.78 483.34,306.75 484.56,309.62 485.77,312.65 486.98,315.63 488.20,318.63 489.41,321.66 490.63,324.64 491.84,327.57 493.05,330.70 494.27,333.78 495.48,336.70 496.70,339.69 497.91,342.76 499.12,345.80 500.34,348.89 501.55,351.76 502.77,354.67 503.98,357.83 505.19,360.86 506.41,363.64 507.62,366.60 508.84,369.51 510.05,372.54 511.26,375.41 512.48,378.14 513.69,380.91 514.91,383.95 516.12,386.71 517.33,389.32 518.55,392.06 519.76,394.78 520.98,397.51 522.19,400.17 523.40,402.54 524.62,405.19 525.83,407.79 527.05,410.27 528.26,412.54 529.47,415.00 530.69,417.33 531.90,419.70 533.12,421.94 534.33,423.99 535.54,426.23 536.76,428.43 537.97,430.37 539.19,432.38 540.40,434.27 541.61,436.24 542.83,438.03 544.04,439.86 545.26,441.42 546.47,443.19 547.68,444.81 548.90,446.26 550.11,447.77 551.33,449.16 552.54,450.50 553.75,451.84 554.97,452.98 556.18,454.16 557.40,455.21 558.61,456.32 559.82,457.13 561.04,458.13 562.25,458.87 563.47,459.62 564.68,460.35 565.89,460.89 567.11,461.44 568.32,461.92 569.54,462.29 570.75,462.63 571.96,462.86 573.18,463.09 574.39,463.10 575.61,463.27 576.82,462.54 578.04,461.92 579.25,461.18 580.46,460.32 581.68,459.46 582.89,458.49 584.11,457.46 585.32,456.37 586.53,455.21 587.75,453.98 588.96,452.64 590.18,451.40 591.39,449.82 592.60,448.43 593.82,446.83 595.03,445.23 596.25,443.58 597.46,441.81 598.67,439.98 599.89,438.17 601.10,436.30 602.32,434.26 603.53,432.22 604.74,430.22 605.96,428.00 607.17,425.96 608.39,423.56 609.60,421.31 610.81,419.05 612.03,416.69 613.24,414.17 614.46,411.71 615.67,409.25 616.88,406.71 618.10,404.14 619.31,401.41 620.53,398.70 621.74,396.23 622.95,393.36 624.17,390.55 625.38,387.72 626.60,384.98 627.81,382.16 629.02,379.26 630.24,376.19 631.45,373.33 632.67,370.56 633.88,367.48 635.09,364.36 636.31,361.45 637.52,358.43 638.74,355.52 639.95,352.35 641.16,349.18 642.38,346.22 643.59,343.32 644.81,340.07 646.02,336.95 647.23,333.91 648.45,330.89 649.66,327.86 650.88,324.72 652.09,321.53 653.30,318.64 654.52,315.62 655.73,312.48 656.95,309.46 658.16,306.47 659.37,303.46 660.59,300.56 661.80,297.53 663.02,294.58 664.23,291.68 665.44,288.81 666.66,285.92 667.87,283.14 669.09,280.28 670.30,277.43 671.51,274.79 672.73,272.08 673.94,269.40 675.16,266.66 676.37,264.07 677.58,261.62 678.80,259.09 680.01,256.55 681.23,254.00 682.44,251.73 683.65,249.49 684.87,247.09 686.08,244.75 687.30,242.55 688.51,240.60 689.72,238.40 690.94,236.36 692.15,234.27 693.37,232.40 694.58,230.67 695.79,228.73 697.01,226.93 698.22,225.29 699.44,223.64 700.65,222.09 701.86,220.60 703.08,219.15 704.29,217.64 705.51,216.48 706.72,215.15 707.93,214.05 709.15,212.90 710.36,211.71 711.58,210.81 712.79,210.06 714.01,209.11 715.22,208.25 716.43,207.55 717.65,207.03 718.86,206.51 720.08,205.96 721.29,205.41 722.50,205.17 723.72,204.98 724.93,204.75 726.15,204.54 727.36,204.52 728.57,204.53 729.79,204.68 731.00,204.81 732.22,205.09 733.43,205.32 734.64,205.65 735.86,206.26 737.07,206.74 738.29,207.36 739.50,207.90 740.71,208.62 741.93,209.59 743.14,210.51 744.36,211.30 745.57,212.24 746.78,213.50 748.00,214.64 749.21,215.84 750.43,217.13 751.64,218.33 752.85,219.92 754.07,221.36 755.28,222.92 756.50,224.51 757.71,226.16 758.92,227.80 760.14,229.71 761.35,231.63 762.57,233.46 763.78,235.28 764.99,237.36 766.21,239.54 767.42,241.68 768.64,243.74 769.85,245.94 771.06,248.24 772.28,250.65 773.49,253.02 774.71,255.37 775.92,257.80 777.13,260.37 778.35,262.80 779.56,265.57 780.78,268.19 781.99,270.65 783.20,273.40 784.42,276.18 785.63,279.06 786.85,281.74 788.06,284.52 789.27,287.29 790.49,290.31 791.70,293.23 792.92,296.05 794.13,298.97 795.34,301.88 796.56,304.80 797.77,307.83 798.99,310.80 800.20,313.73 801.41,316.45 802.63,319.43 803.84,322.43 805.06,325.23 806.27,327.90 807.48,330.59 808.70,333.12 809.91,335.82 811.13,338.17 812.34,340.40 813.55,342.50 814.77,344.38 815.98,346.12 817.20,347.74 818.41,349.16 819.62,350.00 820.84,350.78 822.05,351.40 823.27,351.81 824.48,351.83 825.69,351.55 826.91,351.15 828.12,350.52 829.34,349.81 830.55,349.10 831.76,348.10 832.98,347.16 834.19,346.19 835.41,345.40 836.62,344.91 837.83,344.43 839.05,343.88 840.26,343.80 841.48,343.85 842.69,344.13 843.90,344.45 845.12,344.92 846.33,345.27 847.55,345.56 848.76,345.99 849.97,346.27 851.19,346.34 852.40,346.00 853.62,345.68 854.83,345.16 856.05,344.66 857.26,344.05 858.47,343.29 859.69,342.64 860.90,342.14 862.12,341.69 863.33,341.69 864.54,341.71 865.76,341.63 866.97,341.72 868.19,341.93 869.40,342.14 870.61,342.17 871.83,341.99 873.04,341.75 874.26,341.09 875.47,340.58 876.68,340.10 877.90,339.51 879.11,338.90 880.33,338.38 881.54,338.10 882.75,338.00 883.97,338.13 885.18,338.10 886.40,338.17 887.61,338.03 888.82,337.84 890.04,337.57 891.25,337.32 892.47,336.69 893.68,336.00 894.89,335.35 896.11,334.97 897.32,334.65 898.54,334.43 899.75,334.53 900.96,334.31 902.18,334.19 903.39,334.22 904.61,334.11 905.82,333.80 907.03,333.28 908.25,332.65 909.46,332.09 910.68,331.56 911.89,331.35 913.10,331.21 914.32,331.02 915.53,330.94 916.75,330.83 917.96,330.78 919.17,330.73 920.39,330.30 921.60,329.86 922.82,329.26 924.03,328.74 925.24,328.35 926.46,328.29 927.67,328.26 928.89,328.10 930.10,328.02 931.31,327.94 932.53,327.80 933.74,327.47 934.96,327.25 936.17,326.74 937.38,326.18 938.60,325.81 939.81,325.86 941.03,325.77 942.24,325.91 943.45,325.90 944.67,325.72 945.88,325.41 947.10,325.06 948.31,324.91 949.52,324.55 950.74,324.28 951.95,324.12 953.17,324.02 954.38,324.04 955.59,324.25 956.81,324.21 958.02,324.17 959.24,323.76 960.45,323.34 961.66,323.11 962.88,322.96 964.09,323.09 965.31,323.18 966.52,323.28 967.73,323.27 968.95,323.08 970.16,323.01 971.38,322.97 972.59,322.70 973.80,322.61 975.02,322.54 976.23,322.52 977.45,322.65 978.66,322.90 979.87,323.14 981.09,323.01 982.30,322.78 983.52,322.65 984.73,322.41 985.94,322.46 987.16,322.82 988.37,323.14 989.59,323.24 990.80,323.26 992.02,323.22 993.23,323.07 994.44,323.00 995.66,323.22 996.87,323.42 998.09,323.49 999.30,323.73 1000.51,323.89 1001.73,323.99 1002.94,324.04 1004.16,324.24 1005.37,324.22 1006.58,324.23 1007.80,324.36 1009.01,324.67 1010.23,324.95 1011.44,325.26 1012.65,325.54 1013.87,325.53 1015.08,325.45 1016.30,325.47 1017.51,325.74 1018.72,326.02 1019.94,326.58 1021.15,326.91 1022.37,327.11 1023.58,327.02 1024.79,327.02 1026.01,327.15 1027.22,327.43 1028.44,327.95 1029.65,328.45 1030.86,328.73 1032.08,328.81 1033.29,328.86 1034.51,328.86 1035.72,329.18 1036.93,329.52 1038.15,330.12 1039.36,330.46 1040.58,330.69 1041.79,330.80 1043.00,330.84 1044.22,331.04 1045.43,331.41 1046.65,331.87 1047.86,332.31 1049.07,332.66 1050.29,332.77 1051.50,332.97 1052.72,333.01 1053.93,333.41 1055.14,333.77 1056.36,334.25 1057.57,334.64 1058.79,334.86 1060.00,335.00" fill="none" stroke="#ad405d" stroke-width="1.8" opacity="0.85"/>
<polyline points="90.00,335.00 91.21,340.71 92.43,346.44 93.64,351.99 94.86,357.08 96.07,362.27 97.28,367.43 98.50,372.80 99.71,378.22 100.93,383.78 102.14,389.52 103.35,395.23 104.57,400.41 105.78,405.56 107.00,410.54 108.21,415.42 109.42,420.18 110.64,425.22 111.85,430.51 113.07,435.80 114.28,441.03 115.49,445.99 116.71,450.95 117.92,455.46 119.14,459.67 120.35,463.95 121.56,468.42 122.78,472.85 123.99,477.42 125.21,482.00 126.42,486.62 127.63,490.84 128.85,494.76 130.06,498.48 131.28,502.19 132.49,505.73 133.70,509.16 134.92,512.87 136.13,516.53 137.35,520.05 138.56,523.37 139.77,526.67 140.99,529.80 142.20,532.73 143.42,535.45 144.63,538.20 145.84,540.78 147.06,543.14 148.27,545.30 149.49,547.50 150.70,549.66 151.91,551.74 153.13,553.85 154.34,555.99 155.56,557.95 156.77,559.54 157.98,560.84 159.20,561.84 160.41,562.66 161.63,563.35 162.84,564.11 164.06,564.97 165.27,565.93 166.48,566.78 167.70,567.41 168.91,567.90 170.13,568.01 171.34,567.93 172.55,567.74 173.77,567.28 174.98,566.79 176.20,566.18 177.41,565.35 178.62,564.38 179.84,563.44 181.05,562.52 182.27,561.60 183.48,560.69 184.69,559.65 185.91,558.42 187.12,556.93 188.34,554.75 189.55,552.62 190.76,550.34 191.98,547.80 193.19,545.37 194.41,542.96 195.62,540.59 196.83,538.01 198.05,535.37 199.26,532.70 200.48,530.17 201.69,527.47 202.90,524.50 204.12,521.53 205.33,518.32 206.55,514.40 207.76,510.52 208.97,506.36 210.19,502.32 211.40,498.23 212.62,494.12 213.83,490.14 215.04,486.10 216.26,482.02 217.47,477.84 218.69,473.92 219.90,469.94 221.11,465.89 222.33,461.69 223.54,457.23 224.76,452.37 225.97,447.43 227.18,442.14 228.40,436.89 229.61,431.49 230.83,426.21 232.04,420.75 233.25,415.14 234.47,409.66 235.68,404.35 236.90,399.21 238.11,394.20 239.32,389.39 240.54,384.65 241.75,379.90 242.97,374.83 244.18,369.86 245.39,365.03 246.61,359.99 247.82,354.74 249.04,349.42 250.25,343.83 251.46,337.89 252.68,331.80 253.89,325.66 255.11,319.50 256.32,313.45 257.53,307.09 258.75,300.78 259.96,294.58 261.18,288.31 262.39,282.40 263.60,276.77 264.82,271.24 266.03,266.12 267.25,261.05 268.46,256.22 269.67,251.51 270.89,247.43 272.10,243.61 273.32,239.98 274.53,236.59 275.74,233.36 276.96,230.44 278.17,227.55 279.39,224.98 280.60,222.78 281.81,220.79 283.03,218.75 284.24,216.78 285.46,214.94 286.67,213.45 287.88,211.87 289.10,210.65 290.31,209.49 291.53,208.31 292.74,207.17 293.95,206.18 295.17,205.15 296.38,204.45 297.60,203.94 298.81,203.30 300.03,202.69 301.24,202.08 302.45,201.69 303.67,201.42 304.88,201.21 306.10,201.07 307.31,201.07 308.52,201.10 309.74,200.87 310.95,201.02 312.17,201.36 313.38,201.73 314.59,202.15 315.81,202.48 317.02,202.97 318.24,203.46 319.45,204.15 320.66,204.99 321.88,205.79 323.09,206.69 324.31,207.69 325.52,208.49 326.73,209.57 327.95,210.76 329.16,212.20 330.38,213.49 331.59,214.77 332.80,216.02 334.02,217.63 335.23,219.21 336.45,220.81 337.66,222.61 338.87,224.40 340.09,226.10 341.30,227.87 342.52,229.86 343.73,231.85 344.94,234.05 346.16,236.22 347.37,238.20 348.59,240.33 349.80,242.57 351.01,245.11 352.23,247.46 353.44,249.82 354.66,252.34 355.87,254.74 357.08,257.29 358.30,259.89 359.51,262.58 360.73,265.41 361.94,268.08 363.15,270.64 364.37,273.46 365.58,276.30 366.80,279.29 368.01,282.24 369.22,285.12 370.44,287.84 371.65,290.91 372.87,293.97 374.08,297.02 375.29,300.02 376.51,303.18 377.72,306.20 378.94,309.16 380.15,312.30 381.36,315.51 382.58,318.75 383.79,321.84 385.01,324.93 386.22,327.96 387.43,331.12 388.65,334.56 389.86,337.63 391.08,340.79 392.29,343.81 393.50,346.95 394.72,350.22 395.93,353.36 397.15,356.45 398.36,359.64 399.57,362.69 400.79,365.65 402.00,368.79 403.22,371.88 404.43,375.02 405.64,377.96 406.86,380.89 408.07,383.76 409.29,386.67 410.50,389.80 411.71,392.75 412.93,395.33 414.14,398.12 415.36,400.94 416.57,403.74 417.78,406.46 419.00,409.14 420.21,411.66 421.43,414.18 422.64,416.78 423.85,419.28 425.07,421.70 426.28,424.16 427.50,426.45 428.71,428.71 429.92,430.81 431.14,433.16 432.35,435.34 433.57,437.45 434.78,439.30 435.99,441.21 437.21,443.12 438.42,445.14 439.64,446.92 440.85,448.53 442.07,450.13 443.28,451.61 444.49,453.35 445.71,454.88 446.92,456.09 448.14,457.44 449.35,458.64 450.56,459.90 451.78,460.99 452.99,462.11 454.21,463.05 455.42,463.90 456.63,464.69 457.85,465.55 459.06,466.16 460.28,466.82 461.49,467.51 462.70,467.73 463.92,468.11 465.13,468.52 466.35,468.85 467.56,469.03 468.77,469.02 469.99,468.99 471.20,468.90 472.42,468.91 473.63,468.84 474.84,468.42 476.06,467.88 477.27,467.56 478.49,467.16 479.70,466.61 480.91,465.97 482.13,465.09 483.34,464.30 484.56,463.51 485.77,462.69 486.98,461.62 488.20,460.45 489.41,459.29 490.63,458.15 491.84,456.86 493.05,455.55 494.27,454.07 495.48,452.59 496.70,451.01 497.91,449.43 499.12,447.74 500.34,446.03 501.55,444.22 502.77,442.32 503.98,440.38 505.19,438.40 506.41,436.39 507.62,434.39 508.84,432.13 510.05,429.85 511.26,427.61 512.48,425.43 513.69,423.04 514.91,420.65 516.12,418.03 517.33,415.56 518.55,413.06 519.76,410.62 520.98,407.92 522.19,405.03 523.40,402.39 524.62,399.74 525.83,396.98 527.05,394.20 528.26,391.19 529.47,388.23 530.69,385.40 531.90,382.67 533.12,379.58 534.33,376.48 535.54,373.36 536.76,370.53 537.97,367.44 539.19,364.44 540.40,361.27 541.61,357.95 542.83,354.98 544.04,352.02 545.26,348.82 546.47,345.54 547.68,342.33 548.90,339.25 550.11,336.14 551.33,333.06 552.54,329.80 553.75,326.54 554.97,323.33 556.18,320.51 557.40,317.23 558.61,314.03 559.82,310.90 561.04,307.76 562.25,304.78 563.47,301.77 564.68,298.66 565.89,295.48 567.11,292.47 568.32,289.68 569.54,286.72 570.75,283.66 571.96,280.73 573.18,277.89 574.39,274.97 575.61,272.44 576.82,274.79 578.04,277.25 579.25,279.85 580.46,282.62 581.68,285.34 582.89,287.91 584.11,290.59 585.32,293.31 586.53,296.07 587.75,299.03 588.96,301.81 590.18,304.40 591.39,307.25 592.60,310.30 593.82,313.10 595.03,316.07 596.25,318.77 597.46,321.69 598.67,324.59 599.89,327.67 601.10,330.62 602.32,333.29 603.53,336.19 604.74,339.27 605.96,342.21 607.17,345.13 608.39,347.99 609.60,350.73 610.81,353.68 612.03,356.78 613.24,359.59 614.46,362.36 615.67,365.01 616.88,368.05 618.10,370.86 619.31,373.69 620.53,376.41 621.74,378.98 622.95,381.70 624.17,384.62 625.38,387.29 626.60,389.78 627.81,392.30 629.02,394.91 630.24,397.55 631.45,400.11 632.67,402.50 633.88,404.86 635.09,407.13 636.31,409.72 637.52,412.03 638.74,414.23 639.95,416.37 641.16,418.56 642.38,420.72 643.59,422.88 644.81,424.88 646.02,426.80 647.23,428.70 648.45,430.63 649.66,432.48 650.88,434.26 652.09,435.93 653.30,437.61 654.52,439.18 655.73,440.75 656.95,442.21 658.16,443.71 659.37,445.06 660.59,446.32 661.80,447.50 663.02,448.74 664.23,449.90 665.44,450.99 666.66,451.93 667.87,452.77 669.09,453.55 670.30,454.56 671.51,455.34 672.73,455.85 673.94,456.37 675.16,456.88 676.37,457.44 677.58,457.91 678.80,458.22 680.01,458.32 681.23,458.39 682.44,458.68 683.65,458.88 684.87,458.71 686.08,458.53 687.30,458.43 688.51,458.10 689.72,457.97 690.94,457.63 692.15,457.08 693.37,456.56 694.58,455.96 695.79,455.45 697.01,454.63 698.22,453.92 699.44,453.14 700.65,452.14 701.86,451.07 703.08,450.16 704.29,449.06 705.51,447.95 706.72,446.75 707.93,445.26 709.15,443.94 710.36,442.60 711.58,441.26 712.79,439.74 714.01,437.90 715.22,436.30 716.43,434.63 717.65,433.05 718.86,431.18 720.08,429.25 721.29,427.24 722.50,425.34 723.72,423.34 724.93,421.36 726.15,419.21 727.36,416.95 728.57,414.78 729.79,412.54 731.00,410.18 732.22,407.93 733.43,405.66 734.64,403.15 735.86,400.52 737.07,398.12 738.29,395.64 739.50,393.17 740.71,390.58 741.93,387.84 743.14,385.06 744.36,382.45 745.57,379.93 746.78,377.22 748.00,374.24 749.21,371.55 750.43,368.70 751.64,365.90 752.85,363.17 754.07,360.28 755.28,357.43 756.50,354.50 757.71,351.55 758.92,348.65 760.14,345.88 761.35,342.97 762.57,340.12 763.78,337.01 764.99,334.01 766.21,331.21 767.42,328.42 768.64,325.57 769.85,322.44 771.06,319.53 772.28,316.71 773.49,313.78 774.71,311.02 775.92,308.18 777.13,305.32 778.35,302.36 779.56,299.64 780.78,296.76 781.99,294.07 783.20,291.47 784.42,288.75 785.63,285.83 786.85,283.14 788.06,280.57 789.27,278.13 790.49,275.55 791.70,272.91 792.92,270.36 794.13,267.87 795.34,265.44 796.56,263.13 797.77,260.80 798.99,258.50 800.20,256.18 801.41,253.82 802.63,251.70 803.84,249.54 805.06,247.62 806.27,245.70 807.48,243.40 808.70,241.43 809.91,239.62 811.13,237.88 812.34,236.09 813.55,234.40 814.77,232.73 815.98,230.98 817.20,229.45 818.41,227.90 819.62,226.62 820.84,225.29 822.05,223.99 823.27,222.57 824.48,221.33 825.69,220.19 826.91,219.33 828.12,218.36 829.34,217.37 830.55,216.41 831.76,215.61 832.98,214.88 834.19,214.16 835.41,213.64 836.62,213.33 837.83,212.70 839.05,212.14 840.26,211.86 841.48,211.55 842.69,211.54 843.90,211.48 845.12,211.37 846.33,211.33 847.55,211.35 848.76,211.55 849.97,211.78 851.19,212.22 852.40,212.65 853.62,213.14 854.83,213.59 856.05,214.00 857.26,214.88 858.47,215.84 859.69,216.80 860.90,217.71 862.12,218.86 863.33,220.03 864.54,221.33 865.76,222.78 866.97,224.66 868.19,226.49 869.40,228.46 870.61,230.51 871.83,232.75 873.04,235.32 874.26,238.28 875.47,241.33 876.68,244.70 877.90,248.24 879.11,251.93 880.33,256.06 881.54,260.33 882.75,265.06 883.97,270.13 885.18,275.42 886.40,280.55 887.61,286.02 888.82,291.81 890.04,297.58 891.25,303.57 892.47,309.59 893.68,315.57 894.89,321.47 896.11,326.96 897.32,332.53 898.54,338.07 899.75,343.45 900.96,348.60 902.18,353.51 903.39,358.27 904.61,362.77 905.82,367.19 907.03,371.74 908.25,376.25 909.46,380.95 910.68,385.58 911.89,390.27 913.10,394.91 914.32,399.86 915.53,405.04 916.75,410.21 917.96,415.55 919.17,420.84 920.39,426.02 921.60,430.92 922.82,435.66 924.03,440.27 925.24,445.04 926.46,449.28 927.67,453.36 928.89,457.35 930.10,461.14 931.31,464.66 932.53,468.40 933.74,472.24 934.96,476.29 936.17,480.30 937.38,484.23 938.60,488.18 939.81,492.11 941.03,495.85 942.24,499.45 943.45,503.24 944.67,506.53 945.88,509.69 947.10,512.48 948.31,514.98 949.52,517.41 950.74,519.83 951.95,522.27 953.17,524.85 954.38,527.41 955.59,529.99 956.81,532.36 958.02,534.67 959.24,536.81 960.45,538.93 961.66,540.95 962.88,542.54 964.09,544.09 965.31,545.28 966.52,546.22 967.73,546.95 968.95,547.73 970.16,548.80 971.38,549.75 972.59,550.72 973.80,551.69 975.02,552.45 976.23,552.94 977.45,553.01 978.66,553.06 979.87,553.03 981.09,552.74 982.30,552.28 983.52,551.78 984.73,551.27 985.94,550.45 987.16,549.62 988.37,549.01 989.59,548.27 990.80,547.55 992.02,546.49 993.23,545.28 994.44,543.83 995.66,541.88 996.87,539.74 998.09,537.74 999.30,535.80 1000.51,533.79 1001.73,531.95 1002.94,530.08 1004.16,527.97 1005.37,525.60 1006.58,522.94 1007.80,520.06 1009.01,517.25 1010.23,514.09 1011.44,511.07 1012.65,508.09 1013.87,504.98 1015.08,501.72 1016.30,498.49 1017.51,495.10 1018.72,491.63 1019.94,488.13 1021.15,484.40 1022.37,480.65 1023.58,476.75 1024.79,472.59 1026.01,468.37 1027.22,464.28 1028.44,459.98 1029.65,455.94 1030.86,451.85 1032.08,447.70 1033.29,443.41 1034.51,438.99 1035.72,434.16 1036.93,429.34 1038.15,424.43 1039.36,419.51 1040.58,414.85 1041.79,410.27 1043.00,405.71 1044.22,401.14 1045.43,396.39 1046.65,391.23 1047.86,386.10 1049.07,380.71 1050.29,375.40 1051.50,370.27 1052.72,365.38 1053.93,360.50 1055.14,355.83 1056.36,350.86 1057.57,345.75 1058.79,340.50 1060.00,335.00" fill="none" stroke="#ce403d" stroke-width="1.8" opacity="0.85"/>
<polyline points="90.00,335.00 91.21,334.60 92.43,334.37 93.64,334.23 94.86,333.88 96.07,333.68 97.28,333.43 98.50,333.39 99.71,333.21 100.93,332.89 102.14,332.56 103.35,332.27 104.57,332.00 105.78,331.57 107.00,331.03 108.21,330.87 109.42,330.68 110.64,330.59 111.85,330.45 113.07,330.49 114.28,330.52 115.49,330.51 116.71,330.28 117.92,329.77 119.14,329.41 120.35,328.87 121.56,328.30 122.78,327.66 123.99,327.39 125.21,327.36 126.42,327.41 127.63,327.63 128.85,327.90 130.06,328.14 131.28,328.34 132.49,328.14 133.70,327.71 134.92,327.12 136.13,326.64 137.35,325.90 138.56,325.30 139.77,325.01 140.99,324.89 142.20,324.97 143.42,325.11 144.63,325.35 145.84,325.49 147.06,325.73 148.27,325.81 149.49,325.70 150.70,325.67 151.91,325.67 153.13,325.54 154.34,325.34 155.56,325.16 156.77,324.83 157.98,324.30 159.20,323.91 160.41,323.37 161.63,322.90 162.84,322.73 164.06,322.78 165.27,323.02 166.48,323.50 167.70,324.12 168.91,324.65 170.13,325.16 171.34,325.58 172.55,325.72 173.77,325.64 174.98,325.67 176.20,325.66 177.41,325.36 178.62,325.17 179.84,324.89 181.05,324.47 182.27,324.03 183.48,323.38 184.69,322.66 185.91,322.27 187.12,322.06 188.34,321.99 189.55,322.10 190.76,322.58 191.98,323.38 193.19,323.97 194.41,324.64 195.62,325.39 196.83,326.18 198.05,327.13 199.26,328.06 200.48,328.87 201.69,329.95 202.90,330.90 204.12,331.55 205.33,331.85 206.55,331.98 207.76,331.89 208.97,331.70 210.19,331.09 211.40,330.58 212.62,329.91 213.83,329.01 215.04,327.96 216.26,326.42 217.47,324.81 218.69,322.91 219.90,320.93 221.11,318.92 222.33,316.85 223.54,314.72 224.76,312.64 225.97,310.32 227.18,307.92 228.40,305.36 229.61,302.68 230.83,299.95 232.04,297.63 233.25,295.04 234.47,292.56 235.68,290.09 236.90,287.72 238.11,285.16 239.32,282.39 240.54,279.80 241.75,277.17 242.97,274.87 244.18,272.56 245.39,270.19 246.61,267.85 247.82,265.67 249.04,263.36 250.25,260.83 251.46,258.47 252.68,256.40 253.89,254.28 255.11,252.37 256.32,250.42 257.53,248.43 258.75,246.45 259.96,244.50 261.18,242.48 262.39,240.65 263.60,238.93 264.82,237.33 266.03,235.89 267.25,234.37 268.46,232.81 269.67,231.19 270.89,229.61 272.10,228.34 273.32,227.07 274.53,225.83 275.74,224.76 276.96,223.81 278.17,222.82 279.39,221.70 280.60,220.45 281.81,219.73 283.03,218.93 284.24,218.29 285.46,217.77 286.67,217.15 287.88,216.64 289.10,216.14 290.31,215.64 291.53,215.10 292.74,214.94 293.95,214.85 295.17,214.81 296.38,214.83 297.60,214.84 298.81,214.71 300.03,214.72 301.24,214.95 302.45,215.35 303.67,215.60 304.88,216.15 306.10,216.66 307.31,217.29 308.52,217.68 309.74,218.20 310.95,218.88 312.17,219.79 313.38,220.86 314.59,221.74 315.81,222.75 317.02,223.73 318.24,224.73 319.45,225.90 320.66,227.07 321.88,228.39 323.09,229.96 324.31,231.35 325.52,232.81 326.73,234.37 327.95,235.67 329.16,237.23 330.38,239.06 331.59,241.03 332.80,242.80 334.02,244.57 335.23,246.47 336.45,248.36 337.66,250.30 338.87,252.28 340.09,254.45 341.30,256.66 342.52,258.99 343.73,261.15 344.94,263.26 346.16,265.46 347.37,267.78 348.59,270.23 349.80,272.82 351.01,275.28 352.23,277.76 353.44,280.06 354.66,282.65 355.87,285.17 357.08,287.87 358.30,290.40 359.51,293.14 360.73,296.07 361.94,298.56 363.15,301.10 364.37,303.84 365.58,306.58 366.80,309.46 368.01,312.41 369.22,315.17 370.44,317.89 371.65,320.56 372.87,323.36 374.08,326.30 375.29,329.16 376.51,332.07 377.72,334.84 378.94,337.77 380.15,340.50 381.36,343.27 382.58,346.02 383.79,348.90 385.01,351.94 386.22,354.78 387.43,357.48 388.65,360.08 389.86,362.85 391.08,365.61 392.29,368.45 393.50,371.30 394.72,374.03 395.93,376.48 397.15,379.07 398.36,381.82 399.57,384.41 400.79,386.91 402.00,389.63 403.22,392.12 404.43,394.64 405.64,396.96 406.86,399.26 408.07,401.72 409.29,404.13 410.50,406.50 411.71,408.89 412.93,410.96 414.14,412.95 415.36,415.08 416.57,417.33 417.78,419.48 419.00,421.51 420.21,423.40 421.43,425.13 422.64,427.00 423.85,428.93 425.07,430.55 426.28,432.45 427.50,434.00 428.71,435.63 429.92,437.07 431.14,438.51 432.35,439.95 433.57,441.30 434.78,442.66 435.99,444.03 437.21,445.18 438.42,446.09 439.64,447.05 440.85,448.16 442.07,449.29 443.28,450.11 444.49,450.91 445.71,451.56 446.92,452.07 448.14,452.73 449.35,453.43 450.56,454.09 451.78,454.28 452.99,454.57 454.21,454.82 455.42,455.07 456.63,455.25 457.85,455.36 459.06,455.40 460.28,455.31 461.49,455.12 462.70,454.89 463.92,454.74 465.13,454.32 466.35,453.98 467.56,453.64 468.77,453.07 469.99,452.37 471.20,451.69 472.42,450.94 473.63,450.29 474.84,449.57 476.06,448.58 477.27,447.49 478.49,446.38 479.70,445.27 480.91,444.25 482.13,443.18 483.34,441.83 484.56,440.32 485.77,438.87 486.98,437.36 488.20,436.12 489.41,434.62 490.63,432.82 491.84,431.11 493.05,429.32 494.27,427.48 495.48,425.84 496.70,424.01 497.91,422.04 499.12,419.86 500.34,417.86 501.55,415.81 502.77,413.78 503.98,411.58 505.19,409.34 506.41,407.13 507.62,404.77 508.84,402.33 510.05,400.19 511.26,397.72 512.48,395.20 513.69,392.80 514.91,390.29 516.12,387.74 517.33,385.08 518.55,382.53 519.76,380.05 520.98,377.32 522.19,374.66 523.40,371.88 524.62,369.26 525.83,366.39 527.05,363.74 528.26,361.15 529.47,358.27 530.69,355.29 531.90,352.55 533.12,349.76 534.33,347.06 535.54,344.21 536.76,341.36 537.97,338.48 539.19,335.46 540.40,332.74 541.61,330.09 542.83,327.28 544.04,324.30 545.26,321.31 546.47,318.65 547.68,315.77 548.90,313.15 550.11,310.40 551.33,307.55 552.54,304.59 553.75,301.85 554.97,299.29 556.18,296.78 557.40,293.94 558.61,291.23 559.82,288.52 561.04,285.88 562.25,283.43 563.47,281.00 564.68,278.53 565.89,275.78 567.11,273.21 568.32,270.96 569.54,268.63 570.75,266.42 571.96,263.96 573.18,261.67 574.39,259.29 575.61,257.13 576.82,260.04 578.04,262.93 579.25,265.50 580.46,268.23 581.68,271.05 582.89,274.10 584.11,277.09 585.32,280.10 586.53,283.10 587.75,285.88 588.96,288.92 590.18,292.12 591.39,295.41 592.60,298.54 593.82,301.43 595.03,304.65 596.25,307.76 597.46,311.05 598.67,314.38 599.89,317.67 601.10,320.71 602.32,323.82 603.53,327.08 604.74,330.58 605.96,333.80 607.17,337.04 608.39,340.20 609.60,343.39 610.81,346.64 612.03,349.91 613.24,353.38 614.46,356.48 615.67,359.47 616.88,362.75 618.10,365.94 619.31,369.21 620.53,372.31 621.74,375.47 622.95,378.49 624.17,381.49 625.38,384.54 626.60,387.74 627.81,390.70 629.02,393.60 630.24,396.44 631.45,399.49 632.67,402.24 633.88,405.02 635.09,407.97 636.31,410.64 637.52,413.32 638.74,415.97 639.95,418.55 641.16,421.18 642.38,423.58 643.59,426.14 644.81,428.65 646.02,430.97 647.23,433.10 648.45,435.40 649.66,437.69 650.88,439.84 652.09,441.96 653.30,444.06 654.52,445.77 655.73,447.67 656.95,449.56 658.16,451.48 659.37,453.31 660.59,454.78 661.80,456.21 663.02,457.77 664.23,459.21 665.44,460.75 666.66,462.14 667.87,463.27 669.09,464.21 670.30,465.33 671.51,466.45 672.73,467.48 673.94,468.45 675.16,469.09 676.37,469.68 677.58,470.40 678.80,470.97 680.01,471.56 681.23,472.02 682.44,472.30 683.65,472.50 684.87,472.71 686.08,472.77 687.30,472.91 688.51,472.86 689.72,472.72 690.94,472.59 692.15,472.33 693.37,471.83 694.58,471.35 695.79,471.01 697.01,470.48 698.22,469.88 699.44,469.06 700.65,468.23 701.86,467.20 703.08,466.32 704.29,465.49 705.51,464.51 706.72,463.23 707.93,461.73 709.15,460.51 710.36,459.18 711.58,457.82 712.79,456.36 714.01,454.77 715.22,453.04 716.43,451.16 717.65,449.50 718.86,447.76 720.08,445.81 721.29,443.82 722.50,441.91 723.72,439.69 724.93,437.58 726.15,435.22 727.36,433.06 728.57,430.84 729.79,428.55 731.00,426.11 732.22,423.50 733.43,420.92 734.64,418.29 735.86,415.87 737.07,413.37 738.29,410.57 739.50,407.81 740.71,404.80 741.93,401.98 743.14,399.35 744.36,396.46 745.57,393.45 746.78,390.59 748.00,387.51 749.21,384.43 750.43,381.32 751.64,378.33 752.85,375.26 754.07,372.20 755.28,369.07 756.50,365.92 757.71,362.58 758.92,359.25 760.14,356.13 761.35,353.20 762.57,349.95 763.78,346.61 764.99,343.27 766.21,339.97 767.42,336.71 768.64,333.54 769.85,330.42 771.06,327.11 772.28,323.88 773.49,320.56 774.71,317.33 775.92,313.99 777.13,310.86 778.35,307.73 779.56,304.60 780.78,301.62 781.99,298.23 783.20,294.93 784.42,291.86 785.63,288.88 786.85,285.99 788.06,282.96 789.27,279.89 790.49,276.92 791.70,273.90 792.92,270.89 794.13,268.17 795.34,265.38 796.56,262.63 797.77,259.87 798.99,257.33 800.20,254.40 801.41,251.65 802.63,249.13 803.84,246.75 805.06,244.43 806.27,242.01 807.48,239.49 808.70,237.11 809.91,234.78 811.13,232.64 812.34,230.46 813.55,228.45 814.77,226.53 815.98,224.56 817.20,222.54 818.41,220.61 819.62,218.75 820.84,216.98 822.05,215.54 823.27,214.04 824.48,212.61 825.69,210.97 826.91,209.38 828.12,208.22 829.34,206.94 830.55,205.72 831.76,204.73 832.98,203.84 834.19,202.87 835.41,201.93 836.62,200.97 837.83,200.11 839.05,199.51 840.26,199.11 841.48,198.68 842.69,198.24 843.90,197.92 845.12,197.42 846.33,197.22 847.55,197.03 848.76,197.09 849.97,197.09 851.19,197.31 852.40,197.66 853.62,197.86 854.83,197.93 856.05,198.25 857.26,198.75 858.47,199.50 859.69,200.17 860.90,200.90 862.12,201.74 863.33,202.63 864.54,203.37 865.76,204.31 866.97,205.34 868.19,206.47 869.40,208.04 870.61,209.30 871.83,210.69 873.04,212.07 874.26,213.43 875.47,214.89 876.68,216.54 877.90,218.37 879.11,220.14 880.33,222.04 881.54,224.12 882.75,226.03 883.97,227.79 885.18,229.74 886.40,231.91 887.61,234.18 888.82,236.57 890.04,238.90 891.25,241.28 892.47,243.74 893.68,246.17 894.89,248.41 896.11,250.87 897.32,253.55 898.54,256.37 899.75,259.15 900.96,261.95 902.18,264.68 903.39,267.48 904.61,270.15 905.82,272.92 907.03,275.83 908.25,278.82 909.46,281.86 910.68,285.10 911.89,288.10 913.10,291.06 914.32,293.95 915.53,296.84 916.75,299.96 917.96,302.89 919.17,306.10 920.39,309.14 921.60,312.32 922.82,315.42 924.03,318.18 925.24,320.74 926.46,323.60 927.67,326.34 928.89,328.92 930.10,331.54 931.31,334.13 932.53,336.52 933.74,338.79 934.96,340.54 936.17,342.19 937.38,343.66 938.60,345.13 939.81,346.38 941.03,347.24 942.24,348.32 943.45,348.94 944.67,349.24 945.88,349.23 947.10,349.01 948.31,348.54 949.52,348.09 950.74,347.58 951.95,347.00 953.17,346.46 954.38,345.88 955.59,345.22 956.81,344.55 958.02,343.83 959.24,343.28 960.45,342.81 961.66,342.76 962.88,342.93 964.09,343.19 965.31,343.69 966.52,344.28 967.73,344.92 968.95,345.39 970.16,345.80 971.38,346.27 972.59,346.81 973.80,347.29 975.02,347.59 976.23,347.87 977.45,348.05 978.66,347.99 979.87,347.60 981.09,346.96 982.30,346.31 983.52,345.82 984.73,345.28 985.94,344.78 987.16,344.66 988.37,344.78 989.59,344.95 990.80,345.07 992.02,345.23 993.23,345.44 994.44,345.69 995.66,345.82 996.87,345.91 998.09,346.00 999.30,346.28 1000.51,346.35 1001.73,346.07 1002.94,345.79 1004.16,345.46 1005.37,344.81 1006.58,344.20 1007.80,343.55 1009.01,343.13 1010.23,343.02 1011.44,343.07 1012.65,343.24 1013.87,343.51 1015.08,343.96 1016.30,344.21 1017.51,344.14 1018.72,343.89 1019.94,343.66 1021.15,343.05 1022.37,342.52 1023.58,342.01 1024.79,341.49 1026.01,341.26 1027.22,341.18 1028.44,340.95 1029.65,340.95 1030.86,340.91 1032.08,340.92 1033.29,340.69 1034.51,340.49 1035.72,340.36 1036.93,340.04 1038.15,339.79 1039.36,339.56 1040.58,339.22 1041.79,338.87 1043.00,338.72 1044.22,338.22 1045.43,337.88 1046.65,337.63 1047.86,337.32 1049.07,337.06 1050.29,336.91 1051.50,336.78 1052.72,336.72 1053.93,336.52 1055.14,336.48 1056.36,336.12 1057.57,335.80 1058.79,335.50 1060.00,335.00" fill="none" stroke="#f0401e" stroke-width="1.8" opacity="0.85"/>
<text x="870" y="62" font-family="Arial, sans-serif" font-size="14" fill="#2840dc">t=0.00 (early)</text>
<text x="870" y="84" font-family="Arial, sans-serif" font-size="14" fill="#f0401e">t=112.64 (late)</text>
</svg>
