<svg xmlns="http://www.w3.org/2000/svg" width="1100" height="700" viewBox="0 0 1100 700">
<rect width="100%" height="100%" fill="#f8fafc"/>
<text x="80" y="32" font-family="Arial, sans-serif" font-size="24" fill="#111827">Single Mode Initialization (j = 3, N = 32): Initial Mode Energies</text>
<line x1="80.00" y1="620.00" x2="1060.00" y2="620.00" stroke="#374151" stroke-width="2"/>
<line x1="80.00" y1="620.00" x2="80.00" y2="50.00" stroke="#374151" stroke-width="2"/>
<text x="550.00" y="672" text-anchor="middle" font-family="Arial, sans-serif" font-size="16" fill="#374151">mode index j</text>
<text x="22" y="350.00" text-anchor="middle" transform="rotate(-90 22 350.00)" font-family="Arial, sans-serif" font-size="16" fill="#374151">mode energy E_j (J)</text>
<text x="80" y="646" font-family="Arial, sans-serif" font-size="13" fill="#6b7280">0.50</text>
<text x="1060" y="646" text-anchor="end" font-family="Arial, sans-serif" font-size="13" fill="#6b7280">12.50</text>
<text x="68" y="620.00" text-anchor="end" dominant-baseline="middle" font-family="Arial, sans-serif" font-size="13" fill="#6b7280">0.00</text>
<text x="68" y="50.00" text-anchor="end" dominant-baseline="middle" font-family="Arial, sans-serif" font-size="13" fill="#6b7280">0.78</text>
<rect x="92.25" y="620.00" width="57.17" height="0.00" fill="#2563eb" stroke="#1e3a8a" stroke-width="0.5"/>
<rect x="173.92" y="620.00" width="57.17" height="0.00" fill="#2563eb" stroke="#1e3a8a" stroke-width="0.5"/>
<rect x="255.58" y="101.82" width="57.17" height="518.18" fill="#2563eb" stroke="#1e3a8a" stroke-width="0.5"/>
<rect x="337.25" y="620.00" width="57.17" height="0.00" fill="#2563eb" stroke="#1e3a8a" stroke-width="0.5"/>
<rect x="418.92" y="620.00" width="57.17" height="0.00" fill="#2563eb" stroke="#1e3a8a" stroke-width="0.5"/>
<rect x="500.58" y="620.00" width="57.17" height="0.00" fill="#2563eb" stroke="#1e3a8a" stroke-width="0.5"/>
<rect x="582.25" y="620.00" width="57.17" height="0.00" fill="#2563eb" stroke="#1e3a8a" stroke-width="0.5"/>
<rect x="663.92" y="620.00" width="57.17" height="0.00" fill="#2563eb" stroke="#1e3a8a" stroke-width="0.5"/>
<rect x="745.58" y="620.00" width="57.17" height="0.00" fill="#2563eb" stroke="#1e3a8a" stroke-width="0.5"/>
<rect x="827.25" y="620.00" width="57.17" height="0.00" fill="#2563eb" stroke="#1e3a8a" stroke-width="0.5"/>
<rect x="908.92" y="620.00" width="57.17" height="0.00" fill="#2563eb" stroke="#1e3a8a" stroke-width="0.5"/>
<rect x="990.58" y="620.00" width="57.17" height="0.00" fill="#2563eb" stroke="#1e3a8a" stroke-width="0.5"/>
</svg>
