<svg xmlns="http://www.w3.org/2000/svg" width="1100" height="700" viewBox="0 0 1100 700">
<rect width="100%" height="100%" fill="#f8fafc"/>
<text x="80" y="32" font-family="Arial, sans-serif" font-size="24" fill="#111827">Triangle Pluck (N = 32): Initial Mode Energies</text>
<line x1="80.00" y1="620.00" x2="1060.00" y2="620.00" stroke="#374151" stroke-width="2"/>
<line x1="80.00" y1="620.00" x2="80.00" y2="50.00" stroke="#374151" stroke-width="2"/>
<text x="550.00" y="672" text-anchor="middle" font-family="Arial, sans-serif" font-size="16" fill="#374151">mode index j</text>
<text x="22" y="350.00" text-anchor="middle" transform="rotate(-90 22 350.00)" font-family="Arial, sans-serif" font-size="16" fill="#374151">mode energy E_j (J)</text>
<text x="80" y="646" font-family="Arial, sans-serif" font-size="13" fill="#6b7280">0.50</text>
<text x="1060" y="646" text-anchor="end" font-family="Arial, sans-serif" font-size="13" fill="#6b7280">20.50</text>
<text x="68" y="620.00" text-anchor="end" dominant-baseline="middle" font-family="Arial, sans-serif" font-size="13" fill="#6b7280">0.00</text>
<text x="68" y="50.00" text-anchor="end" dominant-baseline="middle" font-family="Arial, sans-serif" font-size="13" fill="#6b7280">0.06</text>
<rect x="87.35" y="101.82" width="34.30" height="518.18" fill="#2563eb" stroke="#1e3a8a" stroke-width="0.5"/>
<rect x="136.35" y="620.00" width="34.30" height="0.00" fill="#2563eb" stroke="#1e3a8a" stroke-width="0.5"/>
<rect x="185.35" y="563.21" width="34.30" height="56.79" fill="#2563eb" stroke="#1e3a8a" stroke-width="0.5"/>
<rect x="234.35" y="620.00" width="34.30" height="0.00" fill="#2563eb" stroke="#1e3a8a" stroke-width="0.5"/>
<rect x="283.35" y="600.12" width="34.30" height="19.88" fill="#2563eb" stroke="#1e3a8a" stroke-width="0.5"/>
<rect x="332.35" y="620.00" width="34.30" height="0.00" fill="#2563eb" stroke="#1e3a8a" stroke-width="0.5"/>
<rect x="381.35" y="610.28" width="34.30" height="9.72" fill="#2563eb" stroke="#1e3a8a" stroke-width="0.5"/>
<rect x="430.35" y="620.00" width="34.30" height="0.00" fill="#2563eb" stroke="#1e3a8a" stroke-width="0.5"/>
<rect x="479.35" y="614.46" width="34.30" height="5.54" fill="#2563eb" stroke="#1e3a8a" stroke-width="0.5"/>
<rect x="528.35" y="620.00" width="34.30" height="0.00" fill="#2563eb" stroke="#1e3a8a" stroke-width="0.5"/>
<rect x="577.35" y="616.57" width="34.30" height="3.43" fill="#2563eb" stroke="#1e3a8a" stroke-width="0.5"/>
<rect x="626.35" y="620.00" width="34.30" height="0.00" fill="#2563eb" stroke="#1e3a8a" stroke-width="0.5"/>
<rect x="675.35" y="617.78" width="34.30" height="2.22" fill="#2563eb" stroke="#1e3a8a" stroke-width="0.5"/>
<rect x="724.35" y="620.00" width="34.30" height="0.00" fill="#2563eb" stroke="#1e3a8a" stroke-width="0.5"/>
<rect x="773.35" y="618.52" width="34.30" height="1.48" fill="#2563eb" stroke="#1e3a8a" stroke-width="0.5"/>
<rect x="822.35" y="620.00" width="34.30" height="0.00" fill="#2563eb" stroke="#1e3a8a" stroke-width="0.5"/>
<rect x="871.35" y="619.02" width="34.30" height="0.98" fill="#2563eb" stroke="#1e3a8a" stroke-width="0.5"/>
<rect x="920.35" y="620.00" width="34.30" height="0.00" fill="#2563eb" stroke="#1e3a8a" stroke-width="0.5"/>
<rect x="969.35" y="619.35" width="34.30" height="0.65" fill="#2563eb" stroke="#1e3a8a" stroke-width="0.5"/>
<rect x="1018.35" y="620.00" width="34.30" height="0.00" fill="#2563eb" stroke="#1e3a8a" stroke-width="0.5"/>
</svg>
