<svg xmlns="http://www.w3.org/2000/svg" width="1100" height="700" viewBox="0 0 1100 700">
<rect width="100%" height="100%" fill="#f8fafc"/>
<text x="80" y="32" font-family="Arial, sans-serif" font-size="24" fill="#111827">Mode Mixture (j = 1, 3, 7): Mode Energies vs Time</text>
<line x1="80.00" y1="620.00" x2="1060.00" y2="620.00" stroke="#374151" stroke-width="2"/>
<line x1="80.00" y1="620.00" x2="80.00" y2="50.00" stroke="#374151" stroke-width="2"/>
<text x="550.00" y="672" text-anchor="middle" font-family="Arial, sans-serif" font-size="16" fill="#374151">time (s)</text>
<text x="22" y="350.00" text-anchor="middle" transform="rotate(-90 22 350.00)" font-family="Arial, sans-serif" font-size="16" fill="#374151">energy (J)</text>
<text x="80" y="646" font-family="Arial, sans-serif" font-size="13" fill="#6b7280">0.00</text>
<text x="1060" y="646" text-anchor="end" font-family="Arial, sans-serif" font-size="13" fill="#6b7280">60.00</text>
<text x="68" y="620.00" text-anchor="end" dominant-baseline="middle" font-family="Arial, sans-serif" font-size="13" fill="#6b7280">-0.07</text>
<text x="68" y="50.00" text-anchor="end" dominant-baseline="middle" font-family="Arial, sans-serif" font-size="13" fill="#6b7280">0.74</text>
<polyline points="80.00,334.61 81.63,334.61 83.27,334.61 84.90,334.61 86.53,334.61 88.17,334.61 89.80,334.61 91.43,334.61 93.07,334.61 94.70,334.61 96.33,334.61 97.97,334.61 99.60,334.61 101.23,334.61 102.87,334.61 104.50,334.61 106.13,334.61 107.77,334.61 109.40,334.61 111.03,334.61 112.67,334.61 114.30,334.61 115.93,334.61 117.57,334.61 119.20,334.61 120.83,334.61 122.47,334.61 124.10,334.61 125.73,334.61 127.37,334.61 129.00,334.61 130.63,334.61 132.27,334.61 133.90,334.61 135.53,334.61 137.17,334.61 138.80,334.61 140.43,334.61 142.07,334.61 143.70,334.61 145.33,334.61 146.97,334.61 148.60,334.61 150.23,334.61 151.87,334.61 153.50,334.61 155.13,334.61 156.77,334.61 158.40,334.61 160.03,334.61 161.67,334.61 163.30,334.61 164.93,334.61 166.57,334.61 168.20,334.61 169.83,334.61 171.47,334.61 173.10,334.61 174.73,334.61 176.37,334.61 178.00,334.61 179.63,334.61 181.27,334.61 182.90,334.61 184.53,334.61 186.17,334.61 187.80,334.61 189.43,334.61 191.07,334.61 192.70,334.61 194.33,334.61 195.97,334.61 197.60,334.61 199.23,334.61 200.87,334.61 202.50,334.61 204.13,334.61 205.77,334.61 207.40,334.61 209.03,334.61 210.67,334.61 212.30,334.61 213.93,334.61 215.57,334.61 217.20,334.61 218.83,334.61 220.47,334.61 222.10,334.61 223.73,334.61 225.37,334.61 227.00,334.61 228.63,334.61 230.27,334.61 231.90,334.61 233.53,334.61 235.17,334.61 236.80,334.61 238.43,334.61 240.07,334.61 241.70,334.61 243.33,334.61 244.97,334.61 246.60,334.61 248.23,334.61 249.87,334.61 251.50,334.61 253.13,334.61 254.77,334.61 256.40,334.61 258.03,334.61 259.67,334.61 261.30,334.61 262.93,334.61 264.57,334.61 266.20,334.61 267.83,334.61 269.47,334.61 271.10,334.61 272.73,334.61 274.37,334.61 276.00,334.61 277.63,334.61 279.27,334.61 280.90,334.61 282.53,334.61 284.17,334.61 285.80,334.61 287.43,334.61 289.07,334.61 290.70,334.61 292.33,334.61 293.97,334.61 295.60,334.61 297.23,334.61 298.87,334.61 300.50,334.61 302.13,334.61 303.77,334.61 305.40,334.61 307.03,334.61 308.67,334.61 310.30,334.61 311.93,334.61 313.57,334.61 315.20,334.61 316.83,334.61 318.47,334.61 320.10,334.61 321.73,334.61 323.37,334.61 325.00,334.61 326.63,334.61 328.27,334.61 329.90,334.61 331.53,334.61 333.17,334.61 334.80,334.61 336.43,334.61 338.07,334.61 339.70,334.61 341.33,334.61 342.97,334.61 344.60,334.61 346.23,334.61 347.87,334.61 349.50,334.61 351.13,334.61 352.77,334.61 354.40,334.61 356.03,334.61 357.67,334.61 359.30,334.61 360.93,334.61 362.57,334.61 364.20,334.61 365.83,334.61 367.47,334.61 369.10,334.61 370.73,334.61 372.37,334.61 374.00,334.61 375.63,334.61 377.27,334.61 378.90,334.61 380.53,334.61 382.17,334.61 383.80,334.61 385.43,334.61 387.07,334.61 388.70,334.61 390.33,334.61 391.97,334.61 393.60,334.61 395.23,334.61 396.87,334.61 398.50,334.61 400.13,334.61 401.77,334.61 403.40,334.61 405.03,334.61 406.67,334.61 408.30,334.61 409.93,334.61 411.57,334.61 413.20,334.61 414.83,334.61 416.47,334.61 418.10,334.61 419.73,334.61 421.37,334.61 423.00,334.61 424.63,334.61 426.27,334.61 427.90,334.61 429.53,334.61 431.17,334.61 432.80,334.61 434.43,334.61 436.07,334.61 437.70,334.61 439.33,334.61 440.97,334.61 442.60,334.61 444.23,334.61 445.87,334.61 447.50,334.61 449.13,334.61 450.77,334.61 452.40,334.61 454.03,334.61 455.67,334.61 457.30,334.61 458.93,334.61 460.57,334.61 462.20,334.61 463.83,334.61 465.47,334.61 467.10,334.61 468.73,334.61 470.37,334.61 472.00,334.61 473.63,334.61 475.27,334.61 476.90,334.61 478.53,334.61 480.17,334.61 481.80,334.61 483.43,334.61 485.07,334.61 486.70,334.61 488.33,334.61 489.97,334.61 491.60,334.61 493.23,334.61 494.87,334.61 496.50,334.61 498.13,334.61 499.77,334.61 501.40,334.61 503.03,334.61 504.67,334.61 506.30,334.61 507.93,334.61 509.57,334.61 511.20,334.61 512.83,334.61 514.47,334.61 516.10,334.61 517.73,334.61 519.37,334.61 521.00,334.61 522.63,334.61 524.27,334.61 525.90,334.61 527.53,334.61 529.17,334.61 530.80,334.61 532.43,334.61 534.07,334.61 535.70,334.61 537.33,334.61 538.97,334.61 540.60,334.61 542.23,334.61 543.87,334.61 545.50,334.61 547.13,334.61 548.77,334.61 550.40,334.61 552.03,334.61 553.67,334.61 555.30,334.61 556.93,334.61 558.57,334.61 560.20,334.61 561.83,334.61 563.47,334.61 565.10,334.61 566.73,334.61 568.37,334.61 570.00,334.61 571.63,334.61 573.27,334.61 574.90,334.61 576.53,334.61 578.17,334.61 579.80,334.61 581.43,334.61 583.07,334.61 584.70,334.61 586.33,334.61 587.97,334.61 589.60,334.61 591.23,334.61 592.87,334.61 594.50,334.61 596.13,334.61 597.77,334.61 599.40,334.61 601.03,334.61 602.67,334.61 604.30,334.61 605.93,334.61 607.57,334.61 609.20,334.61 610.83,334.61 612.47,334.61 614.10,334.61 615.73,334.61 617.37,334.61 619.00,334.61 620.63,334.61 622.27,334.61 623.90,334.61 625.53,334.61 627.17,334.61 628.80,334.61 630.43,334.61 632.07,334.61 633.70,334.61 635.33,334.61 636.97,334.61 638.60,334.61 640.23,334.61 641.87,334.61 643.50,334.61 645.13,334.61 646.77,334.61 648.40,334.61 650.03,334.61 651.67,334.61 653.30,334.61 654.93,334.61 656.57,334.61 658.20,334.61 659.83,334.61 661.47,334.61 663.10,334.61 664.73,334.61 666.37,334.61 668.00,334.61 669.63,334.61 671.27,334.61 672.90,334.61 674.53,334.61 676.17,334.61 677.80,334.61 679.43,334.61 681.07,334.61 682.70,334.61 684.33,334.61 685.97,334.61 687.60,334.61 689.23,334.61 690.87,334.61 692.50,334.61 694.13,334.61 695.77,334.61 697.40,334.61 699.03,334.61 700.67,334.61 702.30,334.61 703.93,334.61 705.57,334.61 707.20,334.61 708.83,334.61 710.47,334.61 712.10,334.61 713.73,334.61 715.37,334.61 717.00,334.61 718.63,334.61 720.27,334.61 721.90,334.61 723.53,334.61 725.17,334.61 726.80,334.61 728.43,334.61 730.07,334.61 731.70,334.61 733.33,334.61 734.97,334.61 736.60,334.61 738.23,334.61 739.87,334.61 741.50,334.61 743.13,334.61 744.77,334.61 746.40,334.61 748.03,334.61 749.67,334.61 751.30,334.61 752.93,334.61 754.57,334.61 756.20,334.61 757.83,334.61 759.47,334.61 761.10,334.61 762.73,334.61 764.37,334.61 766.00,334.61 767.63,334.61 769.27,334.61 770.90,334.61 772.53,334.61 774.17,334.61 775.80,334.61 777.43,334.61 779.07,334.61 780.70,334.61 782.33,334.61 783.97,334.61 785.60,334.61 787.23,334.61 788.87,334.61 790.50,334.61 792.13,334.61 793.77,334.61 795.40,334.61 797.03,334.61 798.67,334.61 800.30,334.61 801.93,334.61 803.57,334.61 805.20,334.61 806.83,334.61 808.47,334.61 810.10,334.61 811.73,334.61 813.37,334.61 815.00,334.61 816.63,334.61 818.27,334.61 819.90,334.61 821.53,334.61 823.17,334.61 824.80,334.61 826.43,334.61 828.07,334.61 829.70,334.61 831.33,334.61 832.97,334.61 834.60,334.61 836.23,334.61 837.87,334.61 839.50,334.61 841.13,334.61 842.77,334.61 844.40,334.61 846.03,334.61 847.67,334.61 849.30,334.61 850.93,334.61 852.57,334.61 854.20,334.61 855.83,334.61 857.47,334.61 859.10,334.61 860.73,334.61 862.37,334.61 864.00,334.61 865.63,334.61 867.27,334.61 868.90,334.61 870.53,334.61 872.17,334.61 873.80,334.61 875.43,334.61 877.07,334.61 878.70,334.61 880.33,334.61 881.97,334.61 883.60,334.61 885.23,334.61 886.87,334.61 888.50,334.61 890.13,334.61 891.77,334.61 893.40,334.61 895.03,334.61 896.67,334.61 898.30,334.61 899.93,334.61 901.57,334.61 903.20,334.61 904.83,334.61 906.47,334.61 908.10,334.61 909.73,334.61 911.37,334.61 913.00,334.61 914.63,334.61 916.27,334.61 917.90,334.61 919.53,334.61 921.17,334.61 922.80,334.61 924.43,334.61 926.07,334.61 927.70,334.61 929.33,334.61 930.97,334.61 932.60,334.61 934.23,334.61 935.87,334.61 937.50,334.61 939.13,334.61 940.77,334.61 942.40,334.61 944.03,334.61 945.67,334.61 947.30,334.61 948.93,334.61 950.57,334.61 952.20,334.61 953.83,334.61 955.47,334.61 957.10,334.61 958.73,334.61 960.37,334.61 962.00,334.61 963.63,334.61 965.27,334.61 966.90,334.61 968.53,334.61 970.17,334.61 971.80,334.61 973.43,334.61 975.07,334.61 976.70,334.61 978.33,334.61 979.97,334.61 981.60,334.61 983.23,334.61 984.87,334.61 986.50,334.61 988.13,334.61 989.77,334.61 991.40,334.61 993.03,334.61 994.67,334.61 996.30,334.61 997.93,334.61 999.57,334.61 1001.20,334.61 1002.83,334.61 1004.47,334.61 1006.10,334.61 1007.73,334.61 1009.37,334.61 1011.00,334.61 1012.63,334.61 1014.27,334.61 1015.90,334.61 1017.53,334.61 1019.17,334.61 1020.80,334.61 1022.43,334.61 1024.07,334.61 1025.70,334.61 1027.33,334.61 1028.97,334.61 1030.60,334.61 1032.23,334.61 1033.87,334.61 1035.50,334.61 1037.13,334.61 1038.77,334.61 1040.40,334.61 1042.03,334.61 1043.67,334.61 1045.30,334.61 1046.93,334.61 1048.57,334.61 1050.20,334.61 1051.83,334.61 1053.47,334.61 1055.10,334.61 1056.73,334.61 1058.37,334.61 1060.00,334.61" fill="none" stroke="#2563eb" stroke-width="2.0" stroke-linejoin="round" stroke-linecap="round"/>
<rect x="880" y="62" width="18" height="4" fill="#2563eb"/>
<text x="904" y="67" font-family="Arial, sans-serif" font-size="13" fill="#111827">mode 7</text>
<polyline points="80.00,391.61 81.63,391.61 83.27,391.61 84.90,391.61 86.53,391.61 88.17,391.61 89.80,391.61 91.43,391.61 93.07,391.61 94.70,391.61 96.33,391.61 97.97,391.61 99.60,391.61 101.23,391.61 102.87,391.61 104.50,391.61 106.13,391.61 107.77,391.61 109.40,391.61 111.03,391.61 112.67,391.61 114.30,391.61 115.93,391.61 117.57,391.61 119.20,391.61 120.83,391.61 122.47,391.61 124.10,391.61 125.73,391.61 127.37,391.61 129.00,391.61 130.63,391.61 132.27,391.61 133.90,391.61 135.53,391.61 137.17,391.61 138.80,391.61 140.43,391.61 142.07,391.61 143.70,391.61 145.33,391.61 146.97,391.61 148.60,391.61 150.23,391.61 151.87,391.61 153.50,391.61 155.13,391.61 156.77,391.61 158.40,391.61 160.03,391.61 161.67,391.61 163.30,391.61 164.93,391.61 166.57,391.61 168.20,391.61 169.83,391.61 171.47,391.61 173.10,391.61 174.73,391.61 176.37,391.61 178.00,391.61 179.63,391.61 181.27,391.61 182.90,391.61 184.53,391.61 186.17,391.61 187.80,391.61 189.43,391.61 191.07,391.61 192.70,391.61 194.33,391.61 195.97,391.61 197.60,391.61 199.23,391.61 200.87,391.61 202.50,391.61 204.13,391.61 205.77,391.61 207.40,391.61 209.03,391.61 210.67,391.61 212.30,391.61 213.93,391.61 215.57,391.61 217.20,391.61 218.83,391.61 220.47,391.61 222.10,391.61 223.73,391.61 225.37,391.61 227.00,391.61 228.63,391.61 230.27,391.61 231.90,391.61 233.53,391.61 235.17,391.61 236.80,391.61 238.43,391.61 240.07,391.61 241.70,391.61 243.33,391.61 244.97,391.61 246.60,391.61 248.23,391.61 249.87,391.61 251.50,391.61 253.13,391.61 254.77,391.61 256.40,391.61 258.03,391.61 259.67,391.61 261.30,391.61 262.93,391.61 264.57,391.61 266.20,391.61 267.83,391.61 269.47,391.61 271.10,391.61 272.73,391.61 274.37,391.61 276.00,391.61 277.63,391.61 279.27,391.61 280.90,391.61 282.53,391.61 284.17,391.61 285.80,391.61 287.43,391.61 289.07,391.61 290.70,391.61 292.33,391.61 293.97,391.61 295.60,391.61 297.23,391.61 298.87,391.61 300.50,391.61 302.13,391.61 303.77,391.61 305.40,391.61 307.03,391.61 308.67,391.61 310.30,391.61 311.93,391.61 313.57,391.61 315.20,391.61 316.83,391.61 318.47,391.61 320.10,391.61 321.73,391.61 323.37,391.61 325.00,391.61 326.63,391.61 328.27,391.61 329.90,391.61 331.53,391.61 333.17,391.61 334.80,391.61 336.43,391.61 338.07,391.61 339.70,391.61 341.33,391.61 342.97,391.61 344.60,391.61 346.23,391.61 347.87,391.61 349.50,391.61 351.13,391.61 352.77,391.61 354.40,391.61 356.03,391.61 357.67,391.61 359.30,391.61 360.93,391.61 362.57,391.61 364.20,391.61 365.83,391.61 367.47,391.61 369.10,391.61 370.73,391.61 372.37,391.61 374.00,391.61 375.63,391.61 377.27,391.61 378.90,391.61 380.53,391.61 382.17,391.61 383.80,391.61 385.43,391.61 387.07,391.61 388.70,391.61 390.33,391.61 391.97,391.61 393.60,391.61 395.23,391.61 396.87,391.61 398.50,391.61 400.13,391.61 401.77,391.61 403.40,391.61 405.03,391.61 406.67,391.61 408.30,391.61 409.93,391.61 411.57,391.61 413.20,391.61 414.83,391.61 416.47,391.61 418.10,391.61 419.73,391.61 421.37,391.61 423.00,391.61 424.63,391.61 426.27,391.61 427.90,391.61 429.53,391.61 431.17,391.61 432.80,391.61 434.43,391.61 436.07,391.61 437.70,391.61 439.33,391.61 440.97,391.61 442.60,391.61 444.23,391.61 445.87,391.61 447.50,391.61 449.13,391.61 450.77,391.61 452.40,391.61 454.03,391.61 455.67,391.61 457.30,391.61 458.93,391.61 460.57,391.61 462.20,391.61 463.83,391.61 465.47,391.61 467.10,391.61 468.73,391.61 470.37,391.61 472.00,391.61 473.63,391.61 475.27,391.61 476.90,391.61 478.53,391.61 480.17,391.61 481.80,391.61 483.43,391.61 485.07,391.61 486.70,391.61 488.33,391.61 489.97,391.61 491.60,391.61 493.23,391.61 494.87,391.61 496.50,391.61 498.13,391.61 499.77,391.61 501.40,391.61 503.03,391.61 504.67,391.61 506.30,391.61 507.93,391.61 509.57,391.61 511.20,391.61 512.83,391.61 514.47,391.61 516.10,391.61 517.73,391.61 519.37,391.61 521.00,391.61 522.63,391.61 524.27,391.61 525.90,391.61 527.53,391.61 529.17,391.61 530.80,391.61 532.43,391.61 534.07,391.61 535.70,391.61 537.33,391.61 538.97,391.61 540.60,391.61 542.23,391.61 543.87,391.61 545.50,391.61 547.13,391.61 548.77,391.61 550.40,391.61 552.03,391.61 553.67,391.61 555.30,391.61 556.93,391.61 558.57,391.61 560.20,391.61 561.83,391.61 563.47,391.61 565.10,391.61 566.73,391.61 568.37,391.61 570.00,391.61 571.63,391.61 573.27,391.61 574.90,391.61 576.53,391.61 578.17,391.61 579.80,391.61 581.43,391.61 583.07,391.61 584.70,391.61 586.33,391.61 587.97,391.61 589.60,391.61 591.23,391.61 592.87,391.61 594.50,391.61 596.13,391.61 597.77,391.61 599.40,391.61 601.03,391.61 602.67,391.61 604.30,391.61 605.93,391.61 607.57,391.61 609.20,391.61 610.83,391.61 612.47,391.61 614.10,391.61 615.73,391.61 617.37,391.61 619.00,391.61 620.63,391.61 622.27,391.61 623.90,391.61 625.53,391.61 627.17,391.61 628.80,391.61 630.43,391.61 632.07,391.61 633.70,391.61 635.33,391.61 636.97,391.61 638.60,391.61 640.23,391.61 641.87,391.61 643.50,391.61 645.13,391.61 646.77,391.61 648.40,391.61 650.03,391.61 651.67,391.61 653.30,391.61 654.93,391.61 656.57,391.61 658.20,391.61 659.83,391.61 661.47,391.61 663.10,391.61 664.73,391.61 666.37,391.61 668.00,391.61 669.63,391.61 671.27,391.61 672.90,391.61 674.53,391.61 676.17,391.61 677.80,391.61 679.43,391.61 681.07,391.61 682.70,391.61 684.33,391.61 685.97,391.61 687.60,391.61 689.23,391.61 690.87,391.61 692.50,391.61 694.13,391.61 695.77,391.61 697.40,391.61 699.03,391.61 700.67,391.61 702.30,391.61 703.93,391.61 705.57,391.61 707.20,391.61 708.83,391.61 710.47,391.61 712.10,391.61 713.73,391.61 715.37,391.61 717.00,391.61 718.63,391.61 720.27,391.61 721.90,391.61 723.53,391.61 725.17,391.61 726.80,391.61 728.43,391.61 730.07,391.61 731.70,391.61 733.33,391.61 734.97,391.61 736.60,391.61 738.23,391.61 739.87,391.61 741.50,391.61 743.13,391.61 744.77,391.61 746.40,391.61 748.03,391.61 749.67,391.61 751.30,391.61 752.93,391.61 754.57,391.61 756.20,391.61 757.83,391.61 759.47,391.61 761.10,391.61 762.73,391.61 764.37,391.61 766.00,391.61 767.63,391.61 769.27,391.61 770.90,391.61 772.53,391.61 774.17,391.61 775.80,391.61 777.43,391.61 779.07,391.61 780.70,391.61 782.33,391.61 783.97,391.61 785.60,391.61 787.23,391.61 788.87,391.61 790.50,391.61 792.13,391.61 793.77,391.61 795.40,391.61 797.03,391.61 798.67,391.61 800.30,391.61 801.93,391.61 803.57,391.61 805.20,391.61 806.83,391.61 808.47,391.61 810.10,391.61 811.73,391.61 813.37,391.61 815.00,391.61 816.63,391.61 818.27,391.61 819.90,391.61 821.53,391.61 823.17,391.61 824.80,391.61 826.43,391.61 828.07,391.61 829.70,391.61 831.33,391.61 832.97,391.61 834.60,391.61 836.23,391.61 837.87,391.61 839.50,391.61 841.13,391.61 842.77,391.61 844.40,391.61 846.03,391.61 847.67,391.61 849.30,391.61 850.93,391.61 852.57,391.61 854.20,391.61 855.83,391.61 857.47,391.61 859.10,391.61 860.73,391.61 862.37,391.61 864.00,391.61 865.63,391.61 867.27,391.61 868.90,391.61 870.53,391.61 872.17,391.61 873.80,391.61 875.43,391.61 877.07,391.61 878.70,391.61 880.33,391.61 881.97,391.61 883.60,391.61 885.23,391.61 886.87,391.61 888.50,391.61 890.13,391.61 891.77,391.61 893.40,391.61 895.03,391.61 896.67,391.61 898.30,391.61 899.93,391.61 901.57,391.61 903.20,391.61 904.83,391.61 906.47,391.61 908.10,391.61 909.73,391.61 911.37,391.61 913.00,391.61 914.63,391.61 916.27,391.61 917.90,391.61 919.53,391.61 921.17,391.61 922.80,391.61 924.43,391.61 926.07,391.61 927.70,391.61 929.33,391.61 930.97,391.61 932.60,391.61 934.23,391.61 935.87,391.61 937.50,391.61 939.13,391.61 940.77,391.61 942.40,391.61 944.03,391.61 945.67,391.61 947.30,391.61 948.93,391.61 950.57,391.61 952.20,391.61 953.83,391.61 955.47,391.61 957.10,391.61 958.73,391.61 960.37,391.61 962.00,391.61 963.63,391.61 965.27,391.61 966.90,391.61 968.53,391.61 970.17,391.61 971.80,391.61 973.43,391.61 975.07,391.61 976.70,391.61 978.33,391.61 979.97,391.61 981.60,391.61 983.23,391.61 984.87,391.61 986.50,391.61 988.13,391.61 989.77,391.61 991.40,391.61 993.03,391.61 994.67,391.61 996.30,391.61 997.93,391.61 999.57,391.61 1001.20,391.61 1002.83,391.61 1004.47,391.61 1006.10,391.61 1007.73,391.61 1009.37,391.61 1011.00,391.61 1012.63,391.61 1014.27,391.61 1015.90,391.61 1017.53,391.61 1019.17,391.61 1020.80,391.61 1022.43,391.61 1024.07,391.61 1025.70,391.61 1027.33,391.61 1028.97,391.61 1030.60,391.61 1032.23,391.61 1033.87,391.61 1035.50,391.61 1037.13,391.61 1038.77,391.61 1040.40,391.61 1042.03,391.61 1043.67,391.61 1045.30,391.61 1046.93,391.61 1048.57,391.61 1050.20,391.61 1051.83,391.61 1053.47,391.61 1055.10,391.61 1056.73,391.61 1058.37,391.61 1060.00,391.61" fill="none" stroke="#dc2626" stroke-width="2.0" stroke-linejoin="round" stroke-linecap="round"/>
<rect x="880" y="86" width="18" height="4" fill="#dc2626"/>
<text x="904" y="91" font-family="Arial, sans-serif" font-size="13" fill="#111827">mode 3</text>
<polyline points="80.00,516.28 81.63,516.28 83.27,516.28 84.90,516.28 86.53,516.28 88.17,516.28 89.80,516.28 91.43,516.28 93.07,516.28 94.70,516.28 96.33,516.28 97.97,516.28 99.60,516.28 101.23,516.28 102.87,516.28 104.50,516.28 106.13,516.28 107.77,516.28 109.40,516.28 111.03,516.28 112.67,516.28 114.30,516.28 115.93,516.28 117.57,516.28 119.20,516.28 120.83,516.28 122.47,516.28 124.10,516.28 125.73,516.28 127.37,516.28 129.00,516.28 130.63,516.28 132.27,516.28 133.90,516.28 135.53,516.28 137.17,516.28 138.80,516.28 140.43,516.28 142.07,516.28 143.70,516.28 145.33,516.28 146.97,516.28 148.60,516.28 150.23,516.28 151.87,516.28 153.50,516.28 155.13,516.28 156.77,516.28 158.40,516.28 160.03,516.28 161.67,516.28 163.30,516.28 164.93,516.28 166.57,516.28 168.20,516.28 169.83,516.28 171.47,516.28 173.10,516.28 174.73,516.28 176.37,516.28 178.00,516.28 179.63,516.28 181.27,516.28 182.90,516.28 184.53,516.28 186.17,516.28 187.80,516.28 189.43,516.28 191.07,516.28 192.70,516.28 194.33,516.28 195.97,516.28 197.60,516.28 199.23,516.28 200.87,516.28 202.50,516.28 204.13,516.28 205.77,516.28 207.40,516.28 209.03,516.28 210.67,516.28 212.30,516.28 213.93,516.28 215.57,516.28 217.20,516.28 218.83,516.28 220.47,516.28 222.10,516.28 223.73,516.28 225.37,516.28 227.00,516.28 228.63,516.28 230.27,516.28 231.90,516.28 233.53,516.28 235.17,516.28 236.80,516.28 238.43,516.28 240.07,516.28 241.70,516.28 243.33,516.28 244.97,516.28 246.60,516.28 248.23,516.28 249.87,516.28 251.50,516.28 253.13,516.28 254.77,516.28 256.40,516.28 258.03,516.28 259.67,516.28 261.30,516.28 262.93,516.28 264.57,516.28 266.20,516.28 267.83,516.28 269.47,516.28 271.10,516.28 272.73,516.28 274.37,516.28 276.00,516.28 277.63,516.28 279.27,516.28 280.90,516.28 282.53,516.28 284.17,516.28 285.80,516.28 287.43,516.28 289.07,516.28 290.70,516.28 292.33,516.28 293.97,516.28 295.60,516.28 297.23,516.28 298.87,516.28 300.50,516.28 302.13,516.28 303.77,516.28 305.40,516.28 307.03,516.28 308.67,516.28 310.30,516.28 311.93,516.28 313.57,516.28 315.20,516.28 316.83,516.28 318.47,516.28 320.10,516.28 321.73,516.28 323.37,516.28 325.00,516.28 326.63,516.28 328.27,516.28 329.90,516.28 331.53,516.28 333.17,516.28 334.80,516.28 336.43,516.28 338.07,516.28 339.70,516.28 341.33,516.28 342.97,516.28 344.60,516.28 346.23,516.28 347.87,516.28 349.50,516.28 351.13,516.28 352.77,516.28 354.40,516.28 356.03,516.28 357.67,516.28 359.30,516.28 360.93,516.28 362.57,516.28 364.20,516.28 365.83,516.28 367.47,516.28 369.10,516.28 370.73,516.28 372.37,516.28 374.00,516.28 375.63,516.28 377.27,516.28 378.90,516.28 380.53,516.28 382.17,516.28 383.80,516.28 385.43,516.28 387.07,516.28 388.70,516.28 390.33,516.28 391.97,516.28 393.60,516.28 395.23,516.28 396.87,516.28 398.50,516.28 400.13,516.28 401.77,516.28 403.40,516.28 405.03,516.28 406.67,516.28 408.30,516.28 409.93,516.28 411.57,516.28 413.20,516.28 414.83,516.28 416.47,516.28 418.10,516.28 419.73,516.28 421.37,516.28 423.00,516.28 424.63,516.28 426.27,516.28 427.90,516.28 429.53,516.28 431.17,516.28 432.80,516.28 434.43,516.28 436.07,516.28 437.70,516.28 439.33,516.28 440.97,516.28 442.60,516.28 444.23,516.28 445.87,516.28 447.50,516.28 449.13,516.28 450.77,516.28 452.40,516.28 454.03,516.28 455.67,516.28 457.30,516.28 458.93,516.28 460.57,516.28 462.20,516.28 463.83,516.28 465.47,516.28 467.10,516.28 468.73,516.28 470.37,516.28 472.00,516.28 473.63,516.28 475.27,516.28 476.90,516.28 478.53,516.28 480.17,516.28 481.80,516.28 483.43,516.28 485.07,516.28 486.70,516.28 488.33,516.28 489.97,516.28 491.60,516.28 493.23,516.28 494.87,516.28 496.50,516.28 498.13,516.28 499.77,516.28 501.40,516.28 503.03,516.28 504.67,516.28 506.30,516.28 507.93,516.28 509.57,516.28 511.20,516.28 512.83,516.28 514.47,516.28 516.10,516.28 517.73,516.28 519.37,516.28 521.00,516.28 522.63,516.28 524.27,516.28 525.90,516.28 527.53,516.28 529.17,516.28 530.80,516.28 532.43,516.28 534.07,516.28 535.70,516.28 537.33,516.28 538.97,516.28 540.60,516.28 542.23,516.28 543.87,516.28 545.50,516.28 547.13,516.28 548.77,516.28 550.40,516.28 552.03,516.28 553.67,516.28 555.30,516.28 556.93,516.28 558.57,516.28 560.20,516.28 561.83,516.28 563.47,516.28 565.10,516.28 566.73,516.28 568.37,516.28 570.00,516.28 571.63,516.28 573.27,516.28 574.90,516.28 576.53,516.28 578.17,516.28 579.80,516.28 581.43,516.28 583.07,516.28 584.70,516.28 586.33,516.28 587.97,516.28 589.60,516.28 591.23,516.28 592.87,516.28 594.50,516.28 596.13,516.28 597.77,516.28 599.40,516.28 601.03,516.28 602.67,516.28 604.30,516.28 605.93,516.28 607.57,516.28 609.20,516.28 610.83,516.28 612.47,516.28 614.10,516.28 615.73,516.28 617.37,516.28 619.00,516.28 620.63,516.28 622.27,516.28 623.90,516.28 625.53,516.28 627.17,516.28 628.80,516.28 630.43,516.28 632.07,516.28 633.70,516.28 635.33,516.28 636.97,516.28 638.60,516.28 640.23,516.28 641.87,516.28 643.50,516.28 645.13,516.28 646.77,516.28 648.40,516.28 650.03,516.28 651.67,516.28 653.30,516.28 654.93,516.28 656.57,516.28 658.20,516.28 659.83,516.28 661.47,516.28 663.10,516.28 664.73,516.28 666.37,516.28 668.00,516.28 669.63,516.28 671.27,516.28 672.90,516.28 674.53,516.28 676.17,516.28 677.80,516.28 679.43,516.28 681.07,516.28 682.70,516.28 684.33,516.28 685.97,516.28 687.60,516.28 689.23,516.28 690.87,516.28 692.50,516.28 694.13,516.28 695.77,516.28 697.40,516.28 699.03,516.28 700.67,516.28 702.30,516.28 703.93,516.28 705.57,516.28 707.20,516.28 708.83,516.28 710.47,516.28 712.10,516.28 713.73,516.28 715.37,516.28 717.00,516.28 718.63,516.28 720.27,516.28 721.90,516.28 723.53,516.28 725.17,516.28 726.80,516.28 728.43,516.28 730.07,516.28 731.70,516.28 733.33,516.28 734.97,516.28 736.60,516.28 738.23,516.28 739.87,516.28 741.50,516.28 743.13,516.28 744.77,516.28 746.40,516.28 748.03,516.28 749.67,516.28 751.30,516.28 752.93,516.28 754.57,516.28 756.20,516.28 757.83,516.28 759.47,516.28 761.10,516.28 762.73,516.28 764.37,516.28 766.00,516.28 767.63,516.28 769.27,516.28 770.90,516.28 772.53,516.28 774.17,516.28 775.80,516.28 777.43,516.28 779.07,516.28 780.70,516.28 782.33,516.28 783.97,516.28 785.60,516.28 787.23,516.28 788.87,516.28 790.50,516.28 792.13,516.28 793.77,516.28 795.40,516.28 797.03,516.28 798.67,516.28 800.30,516.28 801.93,516.28 803.57,516.28 805.20,516.28 806.83,516.28 808.47,516.28 810.10,516.28 811.73,516.28 813.37,516.28 815.00,516.28 816.63,516.28 818.27,516.28 819.90,516.28 821.53,516.28 823.17,516.28 824.80,516.28 826.43,516.28 828.07,516.28 829.70,516.28 831.33,516.28 832.97,516.28 834.60,516.28 836.23,516.28 837.87,516.28 839.50,516.28 841.13,516.28 842.77,516.28 844.40,516.28 846.03,516.28 847.67,516.28 849.30,516.28 850.93,516.28 852.57,516.28 854.20,516.28 855.83,516.28 857.47,516.28 859.10,516.28 860.73,516.28 862.37,516.28 864.00,516.28 865.63,516.28 867.27,516.28 868.90,516.28 870.53,516.28 872.17,516.28 873.80,516.28 875.43,516.28 877.07,516.28 878.70,516.28 880.33,516.28 881.97,516.28 883.60,516.28 885.23,516.28 886.87,516.28 888.50,516.28 890.13,516.28 891.77,516.28 893.40,516.28 895.03,516.28 896.67,516.28 898.30,516.28 899.93,516.28 901.57,516.28 903.20,516.28 904.83,516.28 906.47,516.28 908.10,516.28 909.73,516.28 911.37,516.28 913.00,516.28 914.63,516.28 916.27,516.28 917.90,516.28 919.53,516.28 921.17,516.28 922.80,516.28 924.43,516.28 926.07,516.28 927.70,516.28 929.33,516.28 930.97,516.28 932.60,516.28 934.23,516.28 935.87,516.28 937.50,516.28 939.13,516.28 940.77,516.28 942.40,516.28 944.03,516.28 945.67,516.28 947.30,516.28 948.93,516.28 950.57,516.28 952.20,516.28 953.83,516.28 955.47,516.28 957.10,516.28 958.73,516.28 960.37,516.28 962.00,516.28 963.63,516.28 965.27,516.28 966.90,516.28 968.53,516.28 970.17,516.28 971.80,516.28 973.43,516.28 975.07,516.28 976.70,516.28 978.33,516.28 979.97,516.28 981.60,516.28 983.23,516.28 984.87,516.28 986.50,516.28 988.13,516.28 989.77,516.28 991.40,516.28 993.03,516.28 994.67,516.28 996.30,516.28 997.93,516.28 999.57,516.28 1001.20,516.28 1002.83,516.28 1004.47,516.28 1006.10,516.28 1007.73,516.28 1009.37,516.28 1011.00,516.28 1012.63,516.28 1014.27,516.28 1015.90,516.28 1017.53,516.28 1019.17,516.28 1020.80,516.28 1022.43,516.28 1024.07,516.28 1025.70,516.28 1027.33,516.28 1028.97,516.28 1030.60,516.28 1032.23,516.28 1033.87,516.28 1035.50,516.28 1037.13,516.28 1038.77,516.28 1040.40,516.28 1042.03,516.28 1043.67,516.28 1045.30,516.28 1046.93,516.28 1048.57,516.28 1050.20,516.28 1051.83,516.28 1053.47,516.28 1055.10,516.28 1056.73,516.28 1058.37,516.28 1060.00,516.28" fill="none" stroke="#059669" stroke-width="2.0" stroke-linejoin="round" stroke-linecap="round"/>
<rect x="880" y="110" width="18" height="4" fill="#059669"/>
<text x="904" y="115" font-family="Arial, sans-serif" font-size="13" fill="#111827">mode 1</text>
<polyline points="80.00,572.50 81.63,572.50 83.27,572.50 84.90,572.50 86.53,572.50 88.17,572.50 89.80,572.50 91.43,572.50 93.07,572.50 94.70,572.50 96.33,572.50 97.97,572.50 99.60,572.50 101.23,572.50 102.87,572.50 104.50,572.50 106.13,572.50 107.77,572.50 109.40,572.50 111.03,572.50 112.67,572.50 114.30,572.50 115.93,572.50 117.57,572.50 119.20,572.50 120.83,572.50 122.47,572.50 124.10,572.50 125.73,572.50 127.37,572.50 129.00,572.50 130.63,572.50 132.27,572.50 133.90,572.50 135.53,572.50 137.17,572.50 138.80,572.50 140.43,572.50 142.07,572.50 143.70,572.50 145.33,572.50 146.97,572.50 148.60,572.50 150.23,572.50 151.87,572.50 153.50,572.50 155.13,572.50 156.77,572.50 158.40,572.50 160.03,572.50 161.67,572.50 163.30,572.50 164.93,572.50 166.57,572.50 168.20,572.50 169.83,572.50 171.47,572.50 173.10,572.50 174.73,572.50 176.37,572.50 178.00,572.50 179.63,572.50 181.27,572.50 182.90,572.50 184.53,572.50 186.17,572.50 187.80,572.50 189.43,572.50 191.07,572.50 192.70,572.50 194.33,572.50 195.97,572.50 197.60,572.50 199.23,572.50 200.87,572.50 202.50,572.50 204.13,572.50 205.77,572.50 207.40,572.50 209.03,572.50 210.67,572.50 212.30,572.50 213.93,572.50 215.57,572.50 217.20,572.50 218.83,572.50 220.47,572.50 222.10,572.50 223.73,572.50 225.37,572.50 227.00,572.50 228.63,572.50 230.27,572.50 231.90,572.50 233.53,572.50 235.17,572.50 236.80,572.50 238.43,572.50 240.07,572.50 241.70,572.50 243.33,572.50 244.97,572.50 246.60,572.50 248.23,572.50 249.87,572.50 251.50,572.50 253.13,572.50 254.77,572.50 256.40,572.50 258.03,572.50 259.67,572.50 261.30,572.50 262.93,572.50 264.57,572.50 266.20,572.50 267.83,572.50 269.47,572.50 271.10,572.50 272.73,572.50 274.37,572.50 276.00,572.50 277.63,572.50 279.27,572.50 280.90,572.50 282.53,572.50 284.17,572.50 285.80,572.50 287.43,572.50 289.07,572.50 290.70,572.50 292.33,572.50 293.97,572.50 295.60,572.50 297.23,572.50 298.87,572.50 300.50,572.50 302.13,572.50 303.77,572.50 305.40,572.50 307.03,572.50 308.67,572.50 310.30,572.50 311.93,572.50 313.57,572.50 315.20,572.50 316.83,572.50 318.47,572.50 320.10,572.50 321.73,572.50 323.37,572.50 325.00,572.50 326.63,572.50 328.27,572.50 329.90,572.50 331.53,572.50 333.17,572.50 334.80,572.50 336.43,572.50 338.07,572.50 339.70,572.50 341.33,572.50 342.97,572.50 344.60,572.50 346.23,572.50 347.87,572.50 349.50,572.50 351.13,572.50 352.77,572.50 354.40,572.50 356.03,572.50 357.67,572.50 359.30,572.50 360.93,572.50 362.57,572.50 364.20,572.50 365.83,572.50 367.47,572.50 369.10,572.50 370.73,572.50 372.37,572.50 374.00,572.50 375.63,572.50 377.27,572.50 378.90,572.50 380.53,572.50 382.17,572.50 383.80,572.50 385.43,572.50 387.07,572.50 388.70,572.50 390.33,572.50 391.97,572.50 393.60,572.50 395.23,572.50 396.87,572.50 398.50,572.50 400.13,572.50 401.77,572.50 403.40,572.50 405.03,572.50 406.67,572.50 408.30,572.50 409.93,572.50 411.57,572.50 413.20,572.50 414.83,572.50 416.47,572.50 418.10,572.50 419.73,572.50 421.37,572.50 423.00,572.50 424.63,572.50 426.27,572.50 427.90,572.50 429.53,572.50 431.17,572.50 432.80,572.50 434.43,572.50 436.07,572.50 437.70,572.50 439.33,572.50 440.97,572.50 442.60,572.50 444.23,572.50 445.87,572.50 447.50,572.50 449.13,572.50 450.77,572.50 452.40,572.50 454.03,572.50 455.67,572.50 457.30,572.50 458.93,572.50 460.57,572.50 462.20,572.50 463.83,572.50 465.47,572.50 467.10,572.50 468.73,572.50 470.37,572.50 472.00,572.50 473.63,572.50 475.27,572.50 476.90,572.50 478.53,572.50 480.17,572.50 481.80,572.50 483.43,572.50 485.07,572.50 486.70,572.50 488.33,572.50 489.97,572.50 491.60,572.50 493.23,572.50 494.87,572.50 496.50,572.50 498.13,572.50 499.77,572.50 501.40,572.50 503.03,572.50 504.67,572.50 506.30,572.50 507.93,572.50 509.57,572.50 511.20,572.50 512.83,572.50 514.47,572.50 516.10,572.50 517.73,572.50 519.37,572.50 521.00,572.50 522.63,572.50 524.27,572.50 525.90,572.50 527.53,572.50 529.17,572.50 530.80,572.50 532.43,572.50 534.07,572.50 535.70,572.50 537.33,572.50 538.97,572.50 540.60,572.50 542.23,572.50 543.87,572.50 545.50,572.50 547.13,572.50 548.77,572.50 550.40,572.50 552.03,572.50 553.67,572.50 555.30,572.50 556.93,572.50 558.57,572.50 560.20,572.50 561.83,572.50 563.47,572.50 565.10,572.50 566.73,572.50 568.37,572.50 570.00,572.50 571.63,572.50 573.27,572.50 574.90,572.50 576.53,572.50 578.17,572.50 579.80,572.50 581.43,572.50 583.07,572.50 584.70,572.50 586.33,572.50 587.97,572.50 589.60,572.50 591.23,572.50 592.87,572.50 594.50,572.50 596.13,572.50 597.77,572.50 599.40,572.50 601.03,572.50 602.67,572.50 604.30,572.50 605.93,572.50 607.57,572.50 609.20,572.50 610.83,572.50 612.47,572.50 614.10,572.50 615.73,572.50 617.37,572.50 619.00,572.50 620.63,572.50 622.27,572.50 623.90,572.50 625.53,572.50 627.17,572.50 628.80,572.50 630.43,572.50 632.07,572.50 633.70,572.50 635.33,572.50 636.97,572.50 638.60,572.50 640.23,572.50 641.87,572.50 643.50,572.50 645.13,572.50 646.77,572.50 648.40,572.50 650.03,572.50 651.67,572.50 653.30,572.50 654.93,572.50 656.57,572.50 658.20,572.50 659.83,572.50 661.47,572.50 663.10,572.50 664.73,572.50 666.37,572.50 668.00,572.50 669.63,572.50 671.27,572.50 672.90,572.50 674.53,572.50 676.17,572.50 677.80,572.50 679.43,572.50 681.07,572.50 682.70,572.50 684.33,572.50 685.97,572.50 687.60,572.50 689.23,572.50 690.87,572.50 692.50,572.50 694.13,572.50 695.77,572.50 697.40,572.50 699.03,572.50 700.67,572.50 702.30,572.50 703.93,572.50 705.57,572.50 707.20,572.50 708.83,572.50 710.47,572.50 712.10,572.50 713.73,572.50 715.37,572.50 717.00,572.50 718.63,572.50 720.27,572.50 721.90,572.50 723.53,572.50 725.17,572.50 726.80,572.50 728.43,572.50 730.07,572.50 731.70,572.50 733.33,572.50 734.97,572.50 736.60,572.50 738.23,572.50 739.87,572.50 741.50,572.50 743.13,572.50 744.77,572.50 746.40,572.50 748.03,572.50 749.67,572.50 751.30,572.50 752.93,572.50 754.57,572.50 756.20,572.50 757.83,572.50 759.47,572.50 761.10,572.50 762.73,572.50 764.37,572.50 766.00,572.50 767.63,572.50 769.27,572.50 770.90,572.50 772.53,572.50 774.17,572.50 775.80,572.50 777.43,572.50 779.07,572.50 780.70,572.50 782.33,572.50 783.97,572.50 785.60,572.50 787.23,572.50 788.87,572.50 790.50,572.50 792.13,572.50 793.77,572.50 795.40,572.50 797.03,572.50 798.67,572.50 800.30,572.50 801.93,572.50 803.57,572.50 805.20,572.50 806.83,572.50 808.47,572.50 810.10,572.50 811.73,572.50 813.37,572.50 815.00,572.50 816.63,572.50 818.27,572.50 819.90,572.50 821.53,572.50 823.17,572.50 824.80,572.50 826.43,572.50 828.07,572.50 829.70,572.50 831.33,572.50 832.97,572.50 834.60,572.50 836.23,572.50 837.87,572.50 839.50,572.50 841.13,572.50 842.77,572.50 844.40,572.50 846.03,572.50 847.67,572.50 849.30,572.50 850.93,572.50 852.57,572.50 854.20,572.50 855.83,572.50 857.47,572.50 859.10,572.50 860.73,572.50 862.37,572.50 864.00,572.50 865.63,572.50 867.27,572.50 868.90,572.50 870.53,572.50 872.17,572.50 873.80,572.50 875.43,572.50 877.07,572.50 878.70,572.50 880.33,572.50 881.97,572.50 883.60,572.50 885.23,572.50 886.87,572.50 888.50,572.50 890.13,572.50 891.77,572.50 893.40,572.50 895.03,572.50 896.67,572.50 898.30,572.50 899.93,572.50 901.57,572.50 903.20,572.50 904.83,572.50 906.47,572.50 908.10,572.50 909.73,572.50 911.37,572.50 913.00,572.50 914.63,572.50 916.27,572.50 917.90,572.50 919.53,572.50 921.17,572.50 922.80,572.50 924.43,572.50 926.07,572.50 927.70,572.50 929.33,572.50 930.97,572.50 932.60,572.50 934.23,572.50 935.87,572.50 937.50,572.50 939.13,572.50 940.77,572.50 942.40,572.50 944.03,572.50 945.67,572.50 947.30,572.50 948.93,572.50 950.57,572.50 952.20,572.50 953.83,572.50 955.47,572.50 957.10,572.50 958.73,572.50 960.37,572.50 962.00,572.50 963.63,572.50 965.27,572.50 966.90,572.50 968.53,572.50 970.17,572.50 971.80,572.50 973.43,572.50 975.07,572.50 976.70,572.50 978.33,572.50 979.97,572.50 981.60,572.50 983.23,572.50 984.87,572.50 986.50,572.50 988.13,572.50 989.77,572.50 991.40,572.50 993.03,572.50 994.67,572.50 996.30,572.50 997.93,572.50 999.57,572.50 1001.20,572.50 1002.83,572.50 1004.47,572.50 1006.10,572.50 1007.73,572.50 1009.37,572.50 1011.00,572.50 1012.63,572.50 1014.27,572.50 1015.90,572.50 1017.53,572.50 1019.17,572.50 1020.80,572.50 1022.43,572.50 1024.07,572.50 1025.70,572.50 1027.33,572.50 1028.97,572.50 1030.60,572.50 1032.23,572.50 1033.87,572.50 1035.50,572.50 1037.13,572.50 1038.77,572.50 1040.40,572.50 1042.03,572.50 1043.67,572.50 1045.30,572.50 1046.93,572.50 1048.57,572.50 1050.20,572.50 1051.83,572.50 1053.47,572.50 1055.10,572.50 1056.73,572.50 1058.37,572.50 1060.00,572.50" fill="none" stroke="#f59e0b" stroke-width="2.0" stroke-linejoin="round" stroke-linecap="round"/>
<rect x="880" y="134" width="18" height="4" fill="#f59e0b"/>
<text x="904" y="139" font-family="Arial, sans-serif" font-size="13" fill="#111827">mode 2</text>
<polyline points="80.00,572.50 81.63,572.50 83.27,572.50 84.90,572.50 86.53,572.50 88.17,572.50 89.80,572.50 91.43,572.50 93.07,572.50 94.70,572.50 96.33,572.50 97.97,572.50 99.60,572.50 101.23,572.50 102.87,572.50 104.50,572.50 106.13,572.50 107.77,572.50 109.40,572.50 111.03,572.50 112.67,572.50 114.30,572.50 115.93,572.50 117.57,572.50 119.20,572.50 120.83,572.50 122.47,572.50 124.10,572.50 125.73,572.50 127.37,572.50 129.00,572.50 130.63,572.50 132.27,572.50 133.90,572.50 135.53,572.50 137.17,572.50 138.80,572.50 140.43,572.50 142.07,572.50 143.70,572.50 145.33,572.50 146.97,572.50 148.60,572.50 150.23,572.50 151.87,572.50 153.50,572.50 155.13,572.50 156.77,572.50 158.40,572.50 160.03,572.50 161.67,572.50 163.30,572.50 164.93,572.50 166.57,572.50 168.20,572.50 169.83,572.50 171.47,572.50 173.10,572.50 174.73,572.50 176.37,572.50 178.00,572.50 179.63,572.50 181.27,572.50 182.90,572.50 184.53,572.50 186.17,572.50 187.80,572.50 189.43,572.50 191.07,572.50 192.70,572.50 194.33,572.50 195.97,572.50 197.60,572.50 199.23,572.50 200.87,572.50 202.50,572.50 204.13,572.50 205.77,572.50 207.40,572.50 209.03,572.50 210.67,572.50 212.30,572.50 213.93,572.50 215.57,572.50 217.20,572.50 218.83,572.50 220.47,572.50 222.10,572.50 223.73,572.50 225.37,572.50 227.00,572.50 228.63,572.50 230.27,572.50 231.90,572.50 233.53,572.50 235.17,572.50 236.80,572.50 238.43,572.50 240.07,572.50 241.70,572.50 243.33,572.50 244.97,572.50 246.60,572.50 248.23,572.50 249.87,572.50 251.50,572.50 253.13,572.50 254.77,572.50 256.40,572.50 258.03,572.50 259.67,572.50 261.30,572.50 262.93,572.50 264.57,572.50 266.20,572.50 267.83,572.50 269.47,572.50 271.10,572.50 272.73,572.50 274.37,572.50 276.00,572.50 277.63,572.50 279.27,572.50 280.90,572.50 282.53,572.50 284.17,572.50 285.80,572.50 287.43,572.50 289.07,572.50 290.70,572.50 292.33,572.50 293.97,572.50 295.60,572.50 297.23,572.50 298.87,572.50 300.50,572.50 302.13,572.50 303.77,572.50 305.40,572.50 307.03,572.50 308.67,572.50 310.30,572.50 311.93,572.50 313.57,572.50 315.20,572.50 316.83,572.50 318.47,572.50 320.10,572.50 321.73,572.50 323.37,572.50 325.00,572.50 326.63,572.50 328.27,572.50 329.90,572.50 331.53,572.50 333.17,572.50 334.80,572.50 336.43,572.50 338.07,572.50 339.70,572.50 341.33,572.50 342.97,572.50 344.60,572.50 346.23,572.50 347.87,572.50 349.50,572.50 351.13,572.50 352.77,572.50 354.40,572.50 356.03,572.50 357.67,572.50 359.30,572.50 360.93,572.50 362.57,572.50 364.20,572.50 365.83,572.50 367.47,572.50 369.10,572.50 370.73,572.50 372.37,572.50 374.00,572.50 375.63,572.50 377.27,572.50 378.90,572.50 380.53,572.50 382.17,572.50 383.80,572.50 385.43,572.50 387.07,572.50 388.70,572.50 390.33,572.50 391.97,572.50 393.60,572.50 395.23,572.50 396.87,572.50 398.50,572.50 400.13,572.50 401.77,572.50 403.40,572.50 405.03,572.50 406.67,572.50 408.30,572.50 409.93,572.50 411.57,572.50 413.20,572.50 414.83,572.50 416.47,572.50 418.10,572.50 419.73,572.50 421.37,572.50 423.00,572.50 424.63,572.50 426.27,572.50 427.90,572.50 429.53,572.50 431.17,572.50 432.80,572.50 434.43,572.50 436.07,572.50 437.70,572.50 439.33,572.50 440.97,572.50 442.60,572.50 444.23,572.50 445.87,572.50 447.50,572.50 449.13,572.50 450.77,572.50 452.40,572.50 454.03,572.50 455.67,572.50 457.30,572.50 458.93,572.50 460.57,572.50 462.20,572.50 463.83,572.50 465.47,572.50 467.10,572.50 468.73,572.50 470.37,572.50 472.00,572.50 473.63,572.50 475.27,572.50 476.90,572.50 478.53,572.50 480.17,572.50 481.80,572.50 483.43,572.50 485.07,572.50 486.70,572.50 488.33,572.50 489.97,572.50 491.60,572.50 493.23,572.50 494.87,572.50 496.50,572.50 498.13,572.50 499.77,572.50 501.40,572.50 503.03,572.50 504.67,572.50 506.30,572.50 507.93,572.50 509.57,572.50 511.20,572.50 512.83,572.50 514.47,572.50 516.10,572.50 517.73,572.50 519.37,572.50 521.00,572.50 522.63,572.50 524.27,572.50 525.90,572.50 527.53,572.50 529.17,572.50 530.80,572.50 532.43,572.50 534.07,572.50 535.70,572.50 537.33,572.50 538.97,572.50 540.60,572.50 542.23,572.50 543.87,572.50 545.50,572.50 547.13,572.50 548.77,572.50 550.40,572.50 552.03,572.50 553.67,572.50 555.30,572.50 556.93,572.50 558.57,572.50 560.20,572.50 561.83,572.50 563.47,572.50 565.10,572.50 566.73,572.50 568.37,572.50 570.00,572.50 571.63,572.50 573.27,572.50 574.90,572.50 576.53,572.50 578.17,572.50 579.80,572.50 581.43,572.50 583.07,572.50 584.70,572.50 586.33,572.50 587.97,572.50 589.60,572.50 591.23,572.50 592.87,572.50 594.50,572.50 596.13,572.50 597.77,572.50 599.40,572.50 601.03,572.50 602.67,572.50 604.30,572.50 605.93,572.50 607.57,572.50 609.20,572.50 610.83,572.50 612.47,572.50 614.10,572.50 615.73,572.50 617.37,572.50 619.00,572.50 620.63,572.50 622.27,572.50 623.90,572.50 625.53,572.50 627.17,572.50 628.80,572.50 630.43,572.50 632.07,572.50 633.70,572.50 635.33,572.50 636.97,572.50 638.60,572.50 640.23,572.50 641.87,572.50 643.50,572.50 645.13,572.50 646.77,572.50 648.40,572.50 650.03,572.50 651.67,572.50 653.30,572.50 654.93,572.50 656.57,572.50 658.20,572.50 659.83,572.50 661.47,572.50 663.10,572.50 664.73,572.50 666.37,572.50 668.00,572.50 669.63,572.50 671.27,572.50 672.90,572.50 674.53,572.50 676.17,572.50 677.80,572.50 679.43,572.50 681.07,572.50 682.70,572.50 684.33,572.50 685.97,572.50 687.60,572.50 689.23,572.50 690.87,572.50 692.50,572.50 694.13,572.50 695.77,572.50 697.40,572.50 699.03,572.50 700.67,572.50 702.30,572.50 703.93,572.50 705.57,572.50 707.20,572.50 708.83,572.50 710.47,572.50 712.10,572.50 713.73,572.50 715.37,572.50 717.00,572.50 718.63,572.50 720.27,572.50 721.90,572.50 723.53,572.50 725.17,572.50 726.80,572.50 728.43,572.50 730.07,572.50 731.70,572.50 733.33,572.50 734.97,572.50 736.60,572.50 738.23,572.50 739.87,572.50 741.50,572.50 743.13,572.50 744.77,572.50 746.40,572.50 748.03,572.50 749.67,572.50 751.30,572.50 752.93,572.50 754.57,572.50 756.20,572.50 757.83,572.50 759.47,572.50 761.10,572.50 762.73,572.50 764.37,572.50 766.00,572.50 767.63,572.50 769.27,572.50 770.90,572.50 772.53,572.50 774.17,572.50 775.80,572.50 777.43,572.50 779.07,572.50 780.70,572.50 782.33,572.50 783.97,572.50 785.60,572.50 787.23,572.50 788.87,572.50 790.50,572.50 792.13,572.50 793.77,572.50 795.40,572.50 797.03,572.50 798.67,572.50 800.30,572.50 801.93,572.50 803.57,572.50 805.20,572.50 806.83,572.50 808.47,572.50 810.10,572.50 811.73,572.50 813.37,572.50 815.00,572.50 816.63,572.50 818.27,572.50 819.90,572.50 821.53,572.50 823.17,572.50 824.80,572.50 826.43,572.50 828.07,572.50 829.70,572.50 831.33,572.50 832.97,572.50 834.60,572.50 836.23,572.50 837.87,572.50 839.50,572.50 841.13,572.50 842.77,572.50 844.40,572.50 846.03,572.50 847.67,572.50 849.30,572.50 850.93,572.50 852.57,572.50 854.20,572.50 855.83,572.50 857.47,572.50 859.10,572.50 860.73,572.50 862.37,572.50 864.00,572.50 865.63,572.50 867.27,572.50 868.90,572.50 870.53,572.50 872.17,572.50 873.80,572.50 875.43,572.50 877.07,572.50 878.70,572.50 880.33,572.50 881.97,572.50 883.60,572.50 885.23,572.50 886.87,572.50 888.50,572.50 890.13,572.50 891.77,572.50 893.40,572.50 895.03,572.50 896.67,572.50 898.30,572.50 899.93,572.50 901.57,572.50 903.20,572.50 904.83,572.50 906.47,572.50 908.10,572.50 909.73,572.50 911.37,572.50 913.00,572.50 914.63,572.50 916.27,572.50 917.90,572.50 919.53,572.50 921.17,572.50 922.80,572.50 924.43,572.50 926.07,572.50 927.70,572.50 929.33,572.50 930.97,572.50 932.60,572.50 934.23,572.50 935.87,572.50 937.50,572.50 939.13,572.50 940.77,572.50 942.40,572.50 944.03,572.50 945.67,572.50 947.30,572.50 948.93,572.50 950.57,572.50 952.20,572.50 953.83,572.50 955.47,572.50 957.10,572.50 958.73,572.50 960.37,572.50 962.00,572.50 963.63,572.50 965.27,572.50 966.90,572.50 968.53,572.50 970.17,572.50 971.80,572.50 973.43,572.50 975.07,572.50 976.70,572.50 978.33,572.50 979.97,572.50 981.60,572.50 983.23,572.50 984.87,572.50 986.50,572.50 988.13,572.50 989.77,572.50 991.40,572.50 993.03,572.50 994.67,572.50 996.30,572.50 997.93,572.50 999.57,572.50 1001.20,572.50 1002.83,572.50 1004.47,572.50 1006.10,572.50 1007.73,572.50 1009.37,572.50 1011.00,572.50 1012.63,572.50 1014.27,572.50 1015.90,572.50 1017.53,572.50 1019.17,572.50 1020.80,572.50 1022.43,572.50 1024.07,572.50 1025.70,572.50 1027.33,572.50 1028.97,572.50 1030.60,572.50 1032.23,572.50 1033.87,572.50 1035.50,572.50 1037.13,572.50 1038.77,572.50 1040.40,572.50 1042.03,572.50 1043.67,572.50 1045.30,572.50 1046.93,572.50 1048.57,572.50 1050.20,572.50 1051.83,572.50 1053.47,572.50 1055.10,572.50 1056.73,572.50 1058.37,572.50 1060.00,572.50" fill="none" stroke="#7c3aed" stroke-width="2.0" stroke-linejoin="round" stroke-linecap="round"/>
<rect x="880" y="158" width="18" height="4" fill="#7c3aed"/>
<text x="904" y="163" font-family="Arial, sans-serif" font-size="13" fill="#111827">mode 4</text>
<polyline points="80.00,572.50 81.63,572.50 83.27,572.50 84.90,572.50 86.53,572.50 88.17,572.50 89.80,572.50 91.43,572.50 93.07,572.50 94.70,572.50 96.33,572.50 97.97,572.50 99.60,572.50 101.23,572.50 102.87,572.50 104.50,572.50 106.13,572.50 107.77,572.50 109.40,572.50 111.03,572.50 112.67,572.50 114.30,572.50 115.93,572.50 117.57,572.50 119.20,572.50 120.83,572.50 122.47,572.50 124.10,572.50 125.73,572.50 127.37,572.50 129.00,572.50 130.63,572.50 132.27,572.50 133.90,572.50 135.53,572.50 137.17,572.50 138.80,572.50 140.43,572.50 142.07,572.50 143.70,572.50 145.33,572.50 146.97,572.50 148.60,572.50 150.23,572.50 151.87,572.50 153.50,572.50 155.13,572.50 156.77,572.50 158.40,572.50 160.03,572.50 161.67,572.50 163.30,572.50 164.93,572.50 166.57,572.50 168.20,572.50 169.83,572.50 171.47,572.50 173.10,572.50 174.73,572.50 176.37,572.50 178.00,572.50 179.63,572.50 181.27,572.50 182.90,572.50 184.53,572.50 186.17,572.50 187.80,572.50 189.43,572.50 191.07,572.50 192.70,572.50 194.33,572.50 195.97,572.50 197.60,572.50 199.23,572.50 200.87,572.50 202.50,572.50 204.13,572.50 205.77,572.50 207.40,572.50 209.03,572.50 210.67,572.50 212.30,572.50 213.93,572.50 215.57,572.50 217.20,572.50 218.83,572.50 220.47,572.50 222.10,572.50 223.73,572.50 225.37,572.50 227.00,572.50 228.63,572.50 230.27,572.50 231.90,572.50 233.53,572.50 235.17,572.50 236.80,572.50 238.43,572.50 240.07,572.50 241.70,572.50 243.33,572.50 244.97,572.50 246.60,572.50 248.23,572.50 249.87,572.50 251.50,572.50 253.13,572.50 254.77,572.50 256.40,572.50 258.03,572.50 259.67,572.50 261.30,572.50 262.93,572.50 264.57,572.50 266.20,572.50 267.83,572.50 269.47,572.50 271.10,572.50 272.73,572.50 274.37,572.50 276.00,572.50 277.63,572.50 279.27,572.50 280.90,572.50 282.53,572.50 284.17,572.50 285.80,572.50 287.43,572.50 289.07,572.50 290.70,572.50 292.33,572.50 293.97,572.50 295.60,572.50 297.23,572.50 298.87,572.50 300.50,572.50 302.13,572.50 303.77,572.50 305.40,572.50 307.03,572.50 308.67,572.50 310.30,572.50 311.93,572.50 313.57,572.50 315.20,572.50 316.83,572.50 318.47,572.50 320.10,572.50 321.73,572.50 323.37,572.50 325.00,572.50 326.63,572.50 328.27,572.50 329.90,572.50 331.53,572.50 333.17,572.50 334.80,572.50 336.43,572.50 338.07,572.50 339.70,572.50 341.33,572.50 342.97,572.50 344.60,572.50 346.23,572.50 347.87,572.50 349.50,572.50 351.13,572.50 352.77,572.50 354.40,572.50 356.03,572.50 357.67,572.50 359.30,572.50 360.93,572.50 362.57,572.50 364.20,572.50 365.83,572.50 367.47,572.50 369.10,572.50 370.73,572.50 372.37,572.50 374.00,572.50 375.63,572.50 377.27,572.50 378.90,572.50 380.53,572.50 382.17,572.50 383.80,572.50 385.43,572.50 387.07,572.50 388.70,572.50 390.33,572.50 391.97,572.50 393.60,572.50 395.23,572.50 396.87,572.50 398.50,572.50 400.13,572.50 401.77,572.50 403.40,572.50 405.03,572.50 406.67,572.50 408.30,572.50 409.93,572.50 411.57,572.50 413.20,572.50 414.83,572.50 416.47,572.50 418.10,572.50 419.73,572.50 421.37,572.50 423.00,572.50 424.63,572.50 426.27,572.50 427.90,572.50 429.53,572.50 431.17,572.50 432.80,572.50 434.43,572.50 436.07,572.50 437.70,572.50 439.33,572.50 440.97,572.50 442.60,572.50 444.23,572.50 445.87,572.50 447.50,572.50 449.13,572.50 450.77,572.50 452.40,572.50 454.03,572.50 455.67,572.50 457.30,572.50 458.93,572.50 460.57,572.50 462.20,572.50 463.83,572.50 465.47,572.50 467.10,572.50 468.73,572.50 470.37,572.50 472.00,572.50 473.63,572.50 475.27,572.50 476.90,572.50 478.53,572.50 480.17,572.50 481.80,572.50 483.43,572.50 485.07,572.50 486.70,572.50 488.33,572.50 489.97,572.50 491.60,572.50 493.23,572.50 494.87,572.50 496.50,572.50 498.13,572.50 499.77,572.50 501.40,572.50 503.03,572.50 504.67,572.50 506.30,572.50 507.93,572.50 509.57,572.50 511.20,572.50 512.83,572.50 514.47,572.50 516.10,572.50 517.73,572.50 519.37,572.50 521.00,572.50 522.63,572.50 524.27,572.50 525.90,572.50 527.53,572.50 529.17,572.50 530.80,572.50 532.43,572.50 534.07,572.50 535.70,572.50 537.33,572.50 538.97,572.50 540.60,572.50 542.23,572.50 543.87,572.50 545.50,572.50 547.13,572.50 548.77,572.50 550.40,572.50 552.03,572.50 553.67,572.50 555.30,572.50 556.93,572.50 558.57,572.50 560.20,572.50 561.83,572.50 563.47,572.50 565.10,572.50 566.73,572.50 568.37,572.50 570.00,572.50 571.63,572.50 573.27,572.50 574.90,572.50 576.53,572.50 578.17,572.50 579.80,572.50 581.43,572.50 583.07,572.50 584.70,572.50 586.33,572.50 587.97,572.50 589.60,572.50 591.23,572.50 592.87,572.50 594.50,572.50 596.13,572.50 597.77,572.50 599.40,572.50 601.03,572.50 602.67,572.50 604.30,572.50 605.93,572.50 607.57,572.50 609.20,572.50 610.83,572.50 612.47,572.50 614.10,572.50 615.73,572.50 617.37,572.50 619.00,572.50 620.63,572.50 622.27,572.50 623.90,572.50 625.53,572.50 627.17,572.50 628.80,572.50 630.43,572.50 632.07,572.50 633.70,572.50 635.33,572.50 636.97,572.50 638.60,572.50 640.23,572.50 641.87,572.50 643.50,572.50 645.13,572.50 646.77,572.50 648.40,572.50 650.03,572.50 651.67,572.50 653.30,572.50 654.93,572.50 656.57,572.50 658.20,572.50 659.83,572.50 661.47,572.50 663.10,572.50 664.73,572.50 666.37,572.50 668.00,572.50 669.63,572.50 671.27,572.50 672.90,572.50 674.53,572.50 676.17,572.50 677.80,572.50 679.43,572.50 681.07,572.50 682.70,572.50 684.33,572.50 685.97,572.50 687.60,572.50 689.23,572.50 690.87,572.50 692.50,572.50 694.13,572.50 695.77,572.50 697.40,572.50 699.03,572.50 700.67,572.50 702.30,572.50 703.93,572.50 705.57,572.50 707.20,572.50 708.83,572.50 710.47,572.50 712.10,572.50 713.73,572.50 715.37,572.50 717.00,572.50 718.63,572.50 720.27,572.50 721.90,572.50 723.53,572.50 725.17,572.50 726.80,572.50 728.43,572.50 730.07,572.50 731.70,572.50 733.33,572.50 734.97,572.50 736.60,572.50 738.23,572.50 739.87,572.50 741.50,572.50 743.13,572.50 744.77,572.50 746.40,572.50 748.03,572.50 749.67,572.50 751.30,572.50 752.93,572.50 754.57,572.50 756.20,572.50 757.83,572.50 759.47,572.50 761.10,572.50 762.73,572.50 764.37,572.50 766.00,572.50 767.63,572.50 769.27,572.50 770.90,572.50 772.53,572.50 774.17,572.50 775.80,572.50 777.43,572.50 779.07,572.50 780.70,572.50 782.33,572.50 783.97,572.50 785.60,572.50 787.23,572.50 788.87,572.50 790.50,572.50 792.13,572.50 793.77,572.50 795.40,572.50 797.03,572.50 798.67,572.50 800.30,572.50 801.93,572.50 803.57,572.50 805.20,572.50 806.83,572.50 808.47,572.50 810.10,572.50 811.73,572.50 813.37,572.50 815.00,572.50 816.63,572.50 818.27,572.50 819.90,572.50 821.53,572.50 823.17,572.50 824.80,572.50 826.43,572.50 828.07,572.50 829.70,572.50 831.33,572.50 832.97,572.50 834.60,572.50 836.23,572.50 837.87,572.50 839.50,572.50 841.13,572.50 842.77,572.50 844.40,572.50 846.03,572.50 847.67,572.50 849.30,572.50 850.93,572.50 852.57,572.50 854.20,572.50 855.83,572.50 857.47,572.50 859.10,572.50 860.73,572.50 862.37,572.50 864.00,572.50 865.63,572.50 867.27,572.50 868.90,572.50 870.53,572.50 872.17,572.50 873.80,572.50 875.43,572.50 877.07,572.50 878.70,572.50 880.33,572.50 881.97,572.50 883.60,572.50 885.23,572.50 886.87,572.50 888.50,572.50 890.13,572.50 891.77,572.50 893.40,572.50 895.03,572.50 896.67,572.50 898.30,572.50 899.93,572.50 901.57,572.50 903.20,572.50 904.83,572.50 906.47,572.50 908.10,572.50 909.73,572.50 911.37,572.50 913.00,572.50 914.63,572.50 916.27,572.50 917.90,572.50 919.53,572.50 921.17,572.50 922.80,572.50 924.43,572.50 926.07,572.50 927.70,572.50 929.33,572.50 930.97,572.50 932.60,572.50 934.23,572.50 935.87,572.50 937.50,572.50 939.13,572.50 940.77,572.50 942.40,572.50 944.03,572.50 945.67,572.50 947.30,572.50 948.93,572.50 950.57,572.50 952.20,572.50 953.83,572.50 955.47,572.50 957.10,572.50 958.73,572.50 960.37,572.50 962.00,572.50 963.63,572.50 965.27,572.50 966.90,572.50 968.53,572.50 970.17,572.50 971.80,572.50 973.43,572.50 975.07,572.50 976.70,572.50 978.33,572.50 979.97,572.50 981.60,572.50 983.23,572.50 984.87,572.50 986.50,572.50 988.13,572.50 989.77,572.50 991.40,572.50 993.03,572.50 994.67,572.50 996.30,572.50 997.93,572.50 999.57,572.50 1001.20,572.50 1002.83,572.50 1004.47,572.50 1006.10,572.50 1007.73,572.50 1009.37,572.50 1011.00,572.50 1012.63,572.50 1014.27,572.50 1015.90,572.50 1017.53,572.50 1019.17,572.50 1020.80,572.50 1022.43,572.50 1024.07,572.50 1025.70,572.50 1027.33,572.50 1028.97,572.50 1030.60,572.50 1032.23,572.50 1033.87,572.50 1035.50,572.50 1037.13,572.50 1038.77,572.50 1040.40,572.50 1042.03,572.50 1043.67,572.50 1045.30,572.50 1046.93,572.50 1048.57,572.50 1050.20,572.50 1051.83,572.50 1053.47,572.50 1055.10,572.50 1056.73,572.50 1058.37,572.50 1060.00,572.50" fill="none" stroke="#0891b2" stroke-width="2.0" stroke-linejoin="round" stroke-linecap="round"/>
<rect x="880" y="182" width="18" height="4" fill="#0891b2"/>
<text x="904" y="187" font-family="Arial, sans-serif" font-size="13" fill="#111827">mode 5</text>
<polyline points="80.00,97.50 81.63,97.50 83.27,97.50 84.90,97.50 86.53,97.50 88.17,97.50 89.80,97.50 91.43,97.50 93.07,97.50 94.70,97.50 96.33,97.50 97.97,97.50 99.60,97.50 101.23,97.50 102.87,97.50 104.50,97.50 106.13,97.50 107.77,97.50 109.40,97.50 111.03,97.50 112.67,97.50 114.30,97.50 115.93,97.50 117.57,97.50 119.20,97.50 120.83,97.50 122.47,97.50 124.10,97.50 125.73,97.50 127.37,97.50 129.00,97.50 130.63,97.50 132.27,97.50 133.90,97.50 135.53,97.50 137.17,97.50 138.80,97.50 140.43,97.50 142.07,97.50 143.70,97.50 145.33,97.50 146.97,97.50 148.60,97.50 150.23,97.50 151.87,97.50 153.50,97.50 155.13,97.50 156.77,97.50 158.40,97.50 160.03,97.50 161.67,97.50 163.30,97.50 164.93,97.50 166.57,97.50 168.20,97.50 169.83,97.50 171.47,97.50 173.10,97.50 174.73,97.50 176.37,97.50 178.00,97.50 179.63,97.50 181.27,97.50 182.90,97.50 184.53,97.50 186.17,97.50 187.80,97.50 189.43,97.50 191.07,97.50 192.70,97.50 194.33,97.50 195.97,97.50 197.60,97.50 199.23,97.50 200.87,97.50 202.50,97.50 204.13,97.50 205.77,97.50 207.40,97.50 209.03,97.50 210.67,97.50 212.30,97.50 213.93,97.50 215.57,97.50 217.20,97.50 218.83,97.50 220.47,97.50 222.10,97.50 223.73,97.50 225.37,97.50 227.00,97.50 228.63,97.50 230.27,97.50 231.90,97.50 233.53,97.50 235.17,97.50 236.80,97.50 238.43,97.50 240.07,97.50 241.70,97.50 243.33,97.50 244.97,97.50 246.60,97.50 248.23,97.50 249.87,97.50 251.50,97.50 253.13,97.50 254.77,97.50 256.40,97.50 258.03,97.50 259.67,97.50 261.30,97.50 262.93,97.50 264.57,97.50 266.20,97.50 267.83,97.50 269.47,97.50 271.10,97.50 272.73,97.50 274.37,97.50 276.00,97.50 277.63,97.50 279.27,97.50 280.90,97.50 282.53,97.50 284.17,97.50 285.80,97.50 287.43,97.50 289.07,97.50 290.70,97.50 292.33,97.50 293.97,97.50 295.60,97.50 297.23,97.50 298.87,97.50 300.50,97.50 302.13,97.50 303.77,97.50 305.40,97.50 307.03,97.50 308.67,97.50 310.30,97.50 311.93,97.50 313.57,97.50 315.20,97.50 316.83,97.50 318.47,97.50 320.10,97.50 321.73,97.50 323.37,97.50 325.00,97.50 326.63,97.50 328.27,97.50 329.90,97.50 331.53,97.50 333.17,97.50 334.80,97.50 336.43,97.50 338.07,97.50 339.70,97.50 341.33,97.50 342.97,97.50 344.60,97.50 346.23,97.50 347.87,97.50 349.50,97.50 351.13,97.50 352.77,97.50 354.40,97.50 356.03,97.50 357.67,97.50 359.30,97.50 360.93,97.50 362.57,97.50 364.20,97.50 365.83,97.50 367.47,97.50 369.10,97.50 370.73,97.50 372.37,97.50 374.00,97.50 375.63,97.50 377.27,97.50 378.90,97.50 380.53,97.50 382.17,97.50 383.80,97.50 385.43,97.50 387.07,97.50 388.70,97.50 390.33,97.50 391.97,97.50 393.60,97.50 395.23,97.50 396.87,97.50 398.50,97.50 400.13,97.50 401.77,97.50 403.40,97.50 405.03,97.50 406.67,97.50 408.30,97.50 409.93,97.50 411.57,97.50 413.20,97.50 414.83,97.50 416.47,97.50 418.10,97.50 419.73,97.50 421.37,97.50 423.00,97.50 424.63,97.50 426.27,97.50 427.90,97.50 429.53,97.50 431.17,97.50 432.80,97.50 434.43,97.50 436.07,97.50 437.70,97.50 439.33,97.50 440.97,97.50 442.60,97.50 444.23,97.50 445.87,97.50 447.50,97.50 449.13,97.50 450.77,97.50 452.40,97.50 454.03,97.50 455.67,97.50 457.30,97.50 458.93,97.50 460.57,97.50 462.20,97.50 463.83,97.50 465.47,97.50 467.10,97.50 468.73,97.50 470.37,97.50 472.00,97.50 473.63,97.50 475.27,97.50 476.90,97.50 478.53,97.50 480.17,97.50 481.80,97.50 483.43,97.50 485.07,97.50 486.70,97.50 488.33,97.50 489.97,97.50 491.60,97.50 493.23,97.50 494.87,97.50 496.50,97.50 498.13,97.50 499.77,97.50 501.40,97.50 503.03,97.50 504.67,97.50 506.30,97.50 507.93,97.50 509.57,97.50 511.20,97.50 512.83,97.50 514.47,97.50 516.10,97.50 517.73,97.50 519.37,97.50 521.00,97.50 522.63,97.50 524.27,97.50 525.90,97.50 527.53,97.50 529.17,97.50 530.80,97.50 532.43,97.50 534.07,97.50 535.70,97.50 537.33,97.50 538.97,97.50 540.60,97.50 542.23,97.50 543.87,97.50 545.50,97.50 547.13,97.50 548.77,97.50 550.40,97.50 552.03,97.50 553.67,97.50 555.30,97.50 556.93,97.50 558.57,97.50 560.20,97.50 561.83,97.50 563.47,97.50 565.10,97.50 566.73,97.50 568.37,97.50 570.00,97.50 571.63,97.50 573.27,97.50 574.90,97.50 576.53,97.50 578.17,97.50 579.80,97.50 581.43,97.50 583.07,97.50 584.70,97.50 586.33,97.50 587.97,97.50 589.60,97.50 591.23,97.50 592.87,97.50 594.50,97.50 596.13,97.50 597.77,97.50 599.40,97.50 601.03,97.50 602.67,97.50 604.30,97.50 605.93,97.50 607.57,97.50 609.20,97.50 610.83,97.50 612.47,97.50 614.10,97.50 615.73,97.50 617.37,97.50 619.00,97.50 620.63,97.50 622.27,97.50 623.90,97.50 625.53,97.50 627.17,97.50 628.80,97.50 630.43,97.50 632.07,97.50 633.70,97.50 635.33,97.50 636.97,97.50 638.60,97.50 640.23,97.50 641.87,97.50 643.50,97.50 645.13,97.50 646.77,97.50 648.40,97.50 650.03,97.50 651.67,97.50 653.30,97.50 654.93,97.50 656.57,97.50 658.20,97.50 659.83,97.50 661.47,97.50 663.10,97.50 664.73,97.50 666.37,97.50 668.00,97.50 669.63,97.50 671.27,97.50 672.90,97.50 674.53,97.50 676.17,97.50 677.80,97.50 679.43,97.50 681.07,97.50 682.70,97.50 684.33,97.50 685.97,97.50 687.60,97.50 689.23,97.50 690.87,97.50 692.50,97.50 694.13,97.50 695.77,97.50 697.40,97.50 699.03,97.50 700.67,97.50 702.30,97.50 703.93,97.50 705.57,97.50 707.20,97.50 708.83,97.50 710.47,97.50 712.10,97.50 713.73,97.50 715.37,97.50 717.00,97.50 718.63,97.50 720.27,97.50 721.90,97.50 723.53,97.50 725.17,97.50 726.80,97.50 728.43,97.50 730.07,97.50 731.70,97.50 733.33,97.50 734.97,97.50 736.60,97.50 738.23,97.50 739.87,97.50 741.50,97.50 743.13,97.50 744.77,97.50 746.40,97.50 748.03,97.50 749.67,97.50 751.30,97.50 752.93,97.50 754.57,97.50 756.20,97.50 757.83,97.50 759.47,97.50 761.10,97.50 762.73,97.50 764.37,97.50 766.00,97.50 767.63,97.50 769.27,97.50 770.90,97.50 772.53,97.50 774.17,97.50 775.80,97.50 777.43,97.50 779.07,97.50 780.70,97.50 782.33,97.50 783.97,97.50 785.60,97.50 787.23,97.50 788.87,97.50 790.50,97.50 792.13,97.50 793.77,97.50 795.40,97.50 797.03,97.50 798.67,97.50 800.30,97.50 801.93,97.50 803.57,97.50 805.20,97.50 806.83,97.50 808.47,97.50 810.10,97.50 811.73,97.50 813.37,97.50 815.00,97.50 816.63,97.50 818.27,97.50 819.90,97.50 821.53,97.50 823.17,97.50 824.80,97.50 826.43,97.50 828.07,97.50 829.70,97.50 831.33,97.50 832.97,97.50 834.60,97.50 836.23,97.50 837.87,97.50 839.50,97.50 841.13,97.50 842.77,97.50 844.40,97.50 846.03,97.50 847.67,97.50 849.30,97.50 850.93,97.50 852.57,97.50 854.20,97.50 855.83,97.50 857.47,97.50 859.10,97.50 860.73,97.50 862.37,97.50 864.00,97.50 865.63,97.50 867.27,97.50 868.90,97.50 870.53,97.50 872.17,97.50 873.80,97.50 875.43,97.50 877.07,97.50 878.70,97.50 880.33,97.50 881.97,97.50 883.60,97.50 885.23,97.50 886.87,97.50 888.50,97.50 890.13,97.50 891.77,97.50 893.40,97.50 895.03,97.50 896.67,97.50 898.30,97.50 899.93,97.50 901.57,97.50 903.20,97.50 904.83,97.50 906.47,97.50 908.10,97.50 909.73,97.50 911.37,97.50 913.00,97.50 914.63,97.50 916.27,97.50 917.90,97.50 919.53,97.50 921.17,97.50 922.80,97.50 924.43,97.50 926.07,97.50 927.70,97.50 929.33,97.50 930.97,97.50 932.60,97.50 934.23,97.50 935.87,97.50 937.50,97.50 939.13,97.50 940.77,97.50 942.40,97.50 944.03,97.50 945.67,97.50 947.30,97.50 948.93,97.50 950.57,97.50 952.20,97.50 953.83,97.50 955.47,97.50 957.10,97.50 958.73,97.50 960.37,97.50 962.00,97.50 963.63,97.50 965.27,97.50 966.90,97.50 968.53,97.50 970.17,97.50 971.80,97.50 973.43,97.50 975.07,97.50 976.70,97.50 978.33,97.50 979.97,97.50 981.60,97.50 983.23,97.50 984.87,97.50 986.50,97.50 988.13,97.50 989.77,97.50 991.40,97.50 993.03,97.50 994.67,97.50 996.30,97.50 997.93,97.50 999.57,97.50 1001.20,97.50 1002.83,97.50 1004.47,97.50 1006.10,97.50 1007.73,97.50 1009.37,97.50 1011.00,97.50 1012.63,97.50 1014.27,97.50 1015.90,97.50 1017.53,97.50 1019.17,97.50 1020.80,97.50 1022.43,97.50 1024.07,97.50 1025.70,97.50 1027.33,97.50 1028.97,97.50 1030.60,97.50 1032.23,97.50 1033.87,97.50 1035.50,97.50 1037.13,97.50 1038.77,97.50 1040.40,97.50 1042.03,97.50 1043.67,97.50 1045.30,97.50 1046.93,97.50 1048.57,97.50 1050.20,97.50 1051.83,97.50 1053.47,97.50 1055.10,97.50 1056.73,97.50 1058.37,97.50 1060.00,97.50" fill="none" stroke="#111827" stroke-width="2.0" stroke-linejoin="round" stroke-linecap="round"/>
<rect x="880" y="206" width="18" height="4" fill="#111827"/>
<text x="904" y="211" font-family="Arial, sans-serif" font-size="13" fill="#111827">E_chain</text>
</svg>
