<svg xmlns="http://www.w3.org/2000/svg" width="1100" height="700" viewBox="0 0 1100 700">
<rect width="100%" height="100%" fill="#f8fafc"/>
<text x="80" y="32" font-family="Arial, sans-serif" font-size="24" fill="#111827">Gaussian Pulse (N = 64): Initial Mode Energies</text>
<line x1="80.00" y1="620.00" x2="1060.00" y2="620.00" stroke="#374151" stroke-width="2"/>
<line x1="80.00" y1="620.00" x2="80.00" y2="50.00" stroke="#374151" stroke-width="2"/>
<text x="550.00" y="672" text-anchor="middle" font-family="Arial, sans-serif" font-size="16" fill="#374151">mode index j</text>
<text x="22" y="350.00" text-anchor="middle" transform="rotate(-90 22 350.00)" font-family="Arial, sans-serif" font-size="16" fill="#374151">mode energy E_j (J)</text>
<text x="80" y="646" font-family="Arial, sans-serif" font-size="13" fill="#6b7280">0.50</text>
<text x="1060" y="646" text-anchor="end" font-family="Arial, sans-serif" font-size="13" fill="#6b7280">30.50</text>
<text x="68" y="620.00" text-anchor="end" dominant-baseline="middle" font-family="Arial, sans-serif" font-size="13" fill="#6b7280">0.00</text>
<text x="68" y="50.00" text-anchor="end" dominant-baseline="middle" font-family="Arial, sans-serif" font-size="13" fill="#6b7280">0.04</text>
<rect x="84.90" y="603.25" width="22.87" height="16.75" fill="#2563eb" stroke="#1e3a8a" stroke-width="0.5"/>
<rect x="117.57" y="619.83" width="22.87" height="0.17" fill="#2563eb" stroke="#1e3a8a" stroke-width="0.5"/>
<rect x="150.23" y="483.15" width="22.87" height="136.85" fill="#2563eb" stroke="#1e3a8a" stroke-width="0.5"/>
<rect x="182.90" y="617.75" width="22.87" height="2.25" fill="#2563eb" stroke="#1e3a8a" stroke-width="0.5"/>
<rect x="215.57" y="306.38" width="22.87" height="313.62" fill="#2563eb" stroke="#1e3a8a" stroke-width="0.5"/>
<rect x="248.23" y="611.01" width="22.87" height="8.99" fill="#2563eb" stroke="#1e3a8a" stroke-width="0.5"/>
<rect x="280.90" y="159.37" width="22.87" height="460.63" fill="#2563eb" stroke="#1e3a8a" stroke-width="0.5"/>
<rect x="313.57" y="599.47" width="22.87" height="20.53" fill="#2563eb" stroke="#1e3a8a" stroke-width="0.5"/>
<rect x="346.23" y="101.82" width="22.87" height="518.18" fill="#2563eb" stroke="#1e3a8a" stroke-width="0.5"/>
<rect x="378.90" y="586.99" width="22.87" height="33.01" fill="#2563eb" stroke="#1e3a8a" stroke-width="0.5"/>
<rect x="411.57" y="141.65" width="22.87" height="478.35" fill="#2563eb" stroke="#1e3a8a" stroke-width="0.5"/>
<rect x="444.23" y="578.93" width="22.87" height="41.07" fill="#2563eb" stroke="#1e3a8a" stroke-width="0.5"/>
<rect x="476.90" y="245.15" width="22.87" height="374.85" fill="#2563eb" stroke="#1e3a8a" stroke-width="0.5"/>
<rect x="509.57" y="578.40" width="22.87" height="41.60" fill="#2563eb" stroke="#1e3a8a" stroke-width="0.5"/>
<rect x="542.23" y="365.81" width="22.87" height="254.19" fill="#2563eb" stroke="#1e3a8a" stroke-width="0.5"/>
<rect x="574.90" y="584.63" width="22.87" height="35.37" fill="#2563eb" stroke="#1e3a8a" stroke-width="0.5"/>
<rect x="607.57" y="469.08" width="22.87" height="150.92" fill="#2563eb" stroke="#1e3a8a" stroke-width="0.5"/>
<rect x="640.23" y="594.28" width="22.87" height="25.72" fill="#2563eb" stroke="#1e3a8a" stroke-width="0.5"/>
<rect x="672.90" y="540.92" width="22.87" height="79.08" fill="#2563eb" stroke="#1e3a8a" stroke-width="0.5"/>
<rect x="705.57" y="603.77" width="22.87" height="16.23" fill="#2563eb" stroke="#1e3a8a" stroke-width="0.5"/>
<rect x="738.23" y="583.25" width="22.87" height="36.75" fill="#2563eb" stroke="#1e3a8a" stroke-width="0.5"/>
<rect x="770.90" y="611.04" width="22.87" height="8.96" fill="#2563eb" stroke="#1e3a8a" stroke-width="0.5"/>
<rect x="803.57" y="604.79" width="22.87" height="15.21" fill="#2563eb" stroke="#1e3a8a" stroke-width="0.5"/>
<rect x="836.23" y="615.64" width="22.87" height="4.36" fill="#2563eb" stroke="#1e3a8a" stroke-width="0.5"/>
<rect x="868.90" y="614.38" width="22.87" height="5.62" fill="#2563eb" stroke="#1e3a8a" stroke-width="0.5"/>
<rect x="901.57" y="618.12" width="22.87" height="1.88" fill="#2563eb" stroke="#1e3a8a" stroke-width="0.5"/>
<rect x="934.23" y="618.15" width="22.87" height="1.85" fill="#2563eb" stroke="#1e3a8a" stroke-width="0.5"/>
<rect x="966.90" y="619.29" width="22.87" height="0.71" fill="#2563eb" stroke="#1e3a8a" stroke-width="0.5"/>
<rect x="999.57" y="619.45" width="22.87" height="0.55" fill="#2563eb" stroke="#1e3a8a" stroke-width="0.5"/>
<rect x="1032.23" y="619.76" width="22.87" height="0.24" fill="#2563eb" stroke="#1e3a8a" stroke-width="0.5"/>
</svg>
