<svg xmlns="http://www.w3.org/2000/svg" width="1100" height="700" viewBox="0 0 1100 700">
<rect width="100%" height="100%" fill="#f8fafc"/>
<text x="90" y="32" font-family="Arial, sans-serif" font-size="24" fill="#111827">2D Ising Model: Order Parameter vs Temperature</text>
<line x1="90.00" y1="620.00" x2="1060.00" y2="620.00" stroke="#374151" stroke-width="2"/>
<line x1="90.00" y1="620.00" x2="90.00" y2="50.00" stroke="#374151" stroke-width="2"/>
<text x="550.00" y="672" text-anchor="middle" font-family="Arial, sans-serif" font-size="16" fill="#374151">temperature T (units of J, k_B=1)</text>
<text x="24" y="350.00" text-anchor="middle" transform="rotate(-90 24 350.00)" font-family="Arial, sans-serif" font-size="16" fill="#374151">&lt;|m|&gt;  and  (e+2)/2</text>
<text x="90" y="646" font-family="Arial, sans-serif" font-size="13" fill="#6b7280">1.00</text>
<text x="1060" y="646" text-anchor="end" font-family="Arial, sans-serif" font-size="13" fill="#6b7280">3.60</text>
<text x="78" y="620.00" text-anchor="end" dominant-baseline="middle" font-family="Arial, sans-serif" font-size="13" fill="#6b7280">0.00</text>
<text x="78" y="50.00" text-anchor="end" dominant-baseline="middle" font-family="Arial, sans-serif" font-size="13" fill="#6b7280">1.05</text>
<line x1="563.50" y1="620.00" x2="563.50" y2="50.00" stroke="#059669" stroke-width="1.6" stroke-dasharray="6,4"/>
<text x="569.50" y="66.00" font-family="Arial, sans-serif" font-size="14" fill="#059669">T_c = 2.269</text>
<polyline points="90.00,77.51 127.31,78.00 164.62,78.77 201.92,80.01 239.23,81.81 276.54,84.54 313.85,88.20 351.15,92.73 388.46,100.49 425.77,111.32 463.08,124.61 500.38,158.25 537.69,199.01 575.00,362.75 612.31,469.07 649.62,538.04 686.92,550.69 724.23,574.15 761.54,579.92 798.85,590.04 836.15,592.09 873.46,592.67 910.77,591.90 948.08,594.53 985.38,593.88 1022.69,599.50 1060.00,598.28" fill="none" stroke="#2563eb" stroke-width="2.4" stroke-linejoin="round"/>
<circle cx="90.00" cy="77.51" r="3" fill="#2563eb"/>
<circle cx="127.31" cy="78.00" r="3" fill="#2563eb"/>
<circle cx="164.62" cy="78.77" r="3" fill="#2563eb"/>
<circle cx="201.92" cy="80.01" r="3" fill="#2563eb"/>
<circle cx="239.23" cy="81.81" r="3" fill="#2563eb"/>
<circle cx="276.54" cy="84.54" r="3" fill="#2563eb"/>
<circle cx="313.85" cy="88.20" r="3" fill="#2563eb"/>
<circle cx="351.15" cy="92.73" r="3" fill="#2563eb"/>
<circle cx="388.46" cy="100.49" r="3" fill="#2563eb"/>
<circle cx="425.77" cy="111.32" r="3" fill="#2563eb"/>
<circle cx="463.08" cy="124.61" r="3" fill="#2563eb"/>
<circle cx="500.38" cy="158.25" r="3" fill="#2563eb"/>
<circle cx="537.69" cy="199.01" r="3" fill="#2563eb"/>
<circle cx="575.00" cy="362.75" r="3" fill="#2563eb"/>
<circle cx="612.31" cy="469.07" r="3" fill="#2563eb"/>
<circle cx="649.62" cy="538.04" r="3" fill="#2563eb"/>
<circle cx="686.92" cy="550.69" r="3" fill="#2563eb"/>
<circle cx="724.23" cy="574.15" r="3" fill="#2563eb"/>
<circle cx="761.54" cy="579.92" r="3" fill="#2563eb"/>
<circle cx="798.85" cy="590.04" r="3" fill="#2563eb"/>
<circle cx="836.15" cy="592.09" r="3" fill="#2563eb"/>
<circle cx="873.46" cy="592.67" r="3" fill="#2563eb"/>
<circle cx="910.77" cy="591.90" r="3" fill="#2563eb"/>
<circle cx="948.08" cy="594.53" r="3" fill="#2563eb"/>
<circle cx="985.38" cy="593.88" r="3" fill="#2563eb"/>
<circle cx="1022.69" cy="599.50" r="3" fill="#2563eb"/>
<circle cx="1060.00" cy="598.28" r="3" fill="#2563eb"/>
<polyline points="90.00,619.28 127.31,618.34 164.62,616.89 201.92,614.56 239.23,611.36 276.54,606.61 313.85,600.45 351.15,593.11 388.46,581.88 425.77,567.58 463.08,551.91 500.38,524.74 537.69,496.24 575.00,443.10 612.31,408.56 649.62,378.09 686.92,356.60 724.23,336.80 761.54,323.35 798.85,310.71 836.15,297.98 873.46,288.86 910.77,280.69 948.08,271.35 985.38,263.69 1022.69,257.18 1060.00,249.68" fill="none" stroke="#a16207" stroke-width="1.8" stroke-linejoin="round"/>
<rect x="780" y="62" width="18" height="12" fill="#2563eb"/>
<text x="804" y="73" font-family="Arial, sans-serif" font-size="15" fill="#111827">&lt;|m|&gt; magnetization</text>
<rect x="780" y="88" width="18" height="12" fill="#a16207"/>
<text x="804" y="99" font-family="Arial, sans-serif" font-size="15" fill="#111827">energy (rescaled)</text>
<rect x="780" y="114" width="18" height="12" fill="#059669"/>
<text x="804" y="125" font-family="Arial, sans-serif" font-size="15" fill="#111827">Onsager T_c</text>
</svg>
