<svg xmlns="http://www.w3.org/2000/svg" width="1100" height="700" viewBox="0 0 1100 700">
<rect width="100%" height="100%" fill="#f8fafc"/>
<text x="90" y="32" font-family="Arial, sans-serif" font-size="24" fill="#111827">2D Ising Model: Response Functions Peak at T_c</text>
<line x1="90.00" y1="620.00" x2="1060.00" y2="620.00" stroke="#374151" stroke-width="2"/>
<line x1="90.00" y1="620.00" x2="90.00" y2="50.00" stroke="#374151" stroke-width="2"/>
<text x="550.00" y="672" text-anchor="middle" font-family="Arial, sans-serif" font-size="16" fill="#374151">temperature T (units of J)</text>
<text x="24" y="350.00" text-anchor="middle" transform="rotate(-90 24 350.00)" font-family="Arial, sans-serif" font-size="16" fill="#374151">normalized response</text>
<text x="90" y="646" font-family="Arial, sans-serif" font-size="13" fill="#6b7280">1.00</text>
<text x="1060" y="646" text-anchor="end" font-family="Arial, sans-serif" font-size="13" fill="#6b7280">3.60</text>
<text x="78" y="620.00" text-anchor="end" dominant-baseline="middle" font-family="Arial, sans-serif" font-size="13" fill="#6b7280">0.00</text>
<text x="78" y="50.00" text-anchor="end" dominant-baseline="middle" font-family="Arial, sans-serif" font-size="13" fill="#6b7280">1.10</text>
<line x1="563.50" y1="620.00" x2="563.50" y2="50.00" stroke="#059669" stroke-width="1.6" stroke-dasharray="6,4"/>
<text x="569.50" y="66.00" font-family="Arial, sans-serif" font-size="14" fill="#059669">T_c = 2.269</text>
<polyline points="90.00,619.98 127.31,619.95 164.62,619.91 201.92,619.83 239.23,619.75 276.54,619.51 313.85,619.26 351.15,618.97 388.46,618.42 425.77,616.31 463.08,613.49 500.38,596.61 537.69,536.87 575.00,326.35 612.31,101.82 649.62,466.03 686.92,534.07 724.23,575.72 761.54,583.88 798.85,599.04 836.15,602.76 873.46,604.15 910.77,603.96 948.08,606.18 985.38,605.34 1022.69,610.75 1060.00,611.07" fill="none" stroke="#dc2626" stroke-width="2.4" stroke-linejoin="round"/>
<circle cx="90.00" cy="619.98" r="3" fill="#dc2626"/>
<circle cx="127.31" cy="619.95" r="3" fill="#dc2626"/>
<circle cx="164.62" cy="619.91" r="3" fill="#dc2626"/>
<circle cx="201.92" cy="619.83" r="3" fill="#dc2626"/>
<circle cx="239.23" cy="619.75" r="3" fill="#dc2626"/>
<circle cx="276.54" cy="619.51" r="3" fill="#dc2626"/>
<circle cx="313.85" cy="619.26" r="3" fill="#dc2626"/>
<circle cx="351.15" cy="618.97" r="3" fill="#dc2626"/>
<circle cx="388.46" cy="618.42" r="3" fill="#dc2626"/>
<circle cx="425.77" cy="616.31" r="3" fill="#dc2626"/>
<circle cx="463.08" cy="613.49" r="3" fill="#dc2626"/>
<circle cx="500.38" cy="596.61" r="3" fill="#dc2626"/>
<circle cx="537.69" cy="536.87" r="3" fill="#dc2626"/>
<circle cx="575.00" cy="326.35" r="3" fill="#dc2626"/>
<circle cx="612.31" cy="101.82" r="3" fill="#dc2626"/>
<circle cx="649.62" cy="466.03" r="3" fill="#dc2626"/>
<circle cx="686.92" cy="534.07" r="3" fill="#dc2626"/>
<circle cx="724.23" cy="575.72" r="3" fill="#dc2626"/>
<circle cx="761.54" cy="583.88" r="3" fill="#dc2626"/>
<circle cx="798.85" cy="599.04" r="3" fill="#dc2626"/>
<circle cx="836.15" cy="602.76" r="3" fill="#dc2626"/>
<circle cx="873.46" cy="604.15" r="3" fill="#dc2626"/>
<circle cx="910.77" cy="603.96" r="3" fill="#dc2626"/>
<circle cx="948.08" cy="606.18" r="3" fill="#dc2626"/>
<circle cx="985.38" cy="605.34" r="3" fill="#dc2626"/>
<circle cx="1022.69" cy="610.75" r="3" fill="#dc2626"/>
<circle cx="1060.00" cy="611.07" r="3" fill="#dc2626"/>
<polyline points="90.00,613.20 127.31,606.29 164.62,599.32 201.92,587.18 239.23,576.99 276.54,551.08 313.85,533.38 351.15,510.84 388.46,499.60 425.77,423.18 463.08,384.97 500.38,303.95 537.69,101.82 575.00,194.85 612.31,170.88 649.62,340.94 686.92,375.17 724.23,412.63 761.54,462.49 798.85,488.00 836.15,488.68 873.46,511.96 910.77,510.34 948.08,526.08 985.38,534.66 1022.69,541.94 1060.00,554.55" fill="none" stroke="#7c3aed" stroke-width="2.4" stroke-linejoin="round"/>
<circle cx="90.00" cy="613.20" r="3" fill="#7c3aed"/>
<circle cx="127.31" cy="606.29" r="3" fill="#7c3aed"/>
<circle cx="164.62" cy="599.32" r="3" fill="#7c3aed"/>
<circle cx="201.92" cy="587.18" r="3" fill="#7c3aed"/>
<circle cx="239.23" cy="576.99" r="3" fill="#7c3aed"/>
<circle cx="276.54" cy="551.08" r="3" fill="#7c3aed"/>
<circle cx="313.85" cy="533.38" r="3" fill="#7c3aed"/>
<circle cx="351.15" cy="510.84" r="3" fill="#7c3aed"/>
<circle cx="388.46" cy="499.60" r="3" fill="#7c3aed"/>
<circle cx="425.77" cy="423.18" r="3" fill="#7c3aed"/>
<circle cx="463.08" cy="384.97" r="3" fill="#7c3aed"/>
<circle cx="500.38" cy="303.95" r="3" fill="#7c3aed"/>
<circle cx="537.69" cy="101.82" r="3" fill="#7c3aed"/>
<circle cx="575.00" cy="194.85" r="3" fill="#7c3aed"/>
<circle cx="612.31" cy="170.88" r="3" fill="#7c3aed"/>
<circle cx="649.62" cy="340.94" r="3" fill="#7c3aed"/>
<circle cx="686.92" cy="375.17" r="3" fill="#7c3aed"/>
<circle cx="724.23" cy="412.63" r="3" fill="#7c3aed"/>
<circle cx="761.54" cy="462.49" r="3" fill="#7c3aed"/>
<circle cx="798.85" cy="488.00" r="3" fill="#7c3aed"/>
<circle cx="836.15" cy="488.68" r="3" fill="#7c3aed"/>
<circle cx="873.46" cy="511.96" r="3" fill="#7c3aed"/>
<circle cx="910.77" cy="510.34" r="3" fill="#7c3aed"/>
<circle cx="948.08" cy="526.08" r="3" fill="#7c3aed"/>
<circle cx="985.38" cy="534.66" r="3" fill="#7c3aed"/>
<circle cx="1022.69" cy="541.94" r="3" fill="#7c3aed"/>
<circle cx="1060.00" cy="554.55" r="3" fill="#7c3aed"/>
<rect x="780" y="62" width="18" height="12" fill="#dc2626"/>
<text x="804" y="73" font-family="Arial, sans-serif" font-size="15" fill="#111827">susceptibility (max 31.2)</text>
<rect x="780" y="88" width="18" height="12" fill="#7c3aed"/>
<text x="804" y="99" font-family="Arial, sans-serif" font-size="15" fill="#111827">specific heat (max 1.61)</text>
<rect x="780" y="114" width="18" height="12" fill="#059669"/>
<text x="804" y="125" font-family="Arial, sans-serif" font-size="15" fill="#111827">Onsager T_c</text>
</svg>
