<svg xmlns="http://www.w3.org/2000/svg" width="1100" height="700" viewBox="0 0 1100 700">
<rect width="100%" height="100%" fill="#f8fafc"/>
<text x="80" y="32" font-family="Arial, sans-serif" font-size="24" fill="#111827">Pendulum Energy</text>
<line x1="80.00" y1="620.00" x2="1060.00" y2="620.00" stroke="#374151" stroke-width="2"/>
<line x1="80.00" y1="620.00" x2="80.00" y2="50.00" stroke="#374151" stroke-width="2"/>
<text x="550.00" y="672" text-anchor="middle" font-family="Arial, sans-serif" font-size="16" fill="#374151">time (s)</text>
<text x="22" y="350.00" text-anchor="middle" transform="rotate(-90 22 350.00)" font-family="Arial, sans-serif" font-size="16" fill="#374151">total energy (J)</text>
<text x="80" y="646" font-family="Arial, sans-serif" font-size="13" fill="#6b7280">0.00</text>
<text x="1060" y="646" text-anchor="end" font-family="Arial, sans-serif" font-size="13" fill="#6b7280">12.00</text>
<text x="68" y="620.00" text-anchor="end" dominant-baseline="middle" font-family="Arial, sans-serif" font-size="13" fill="#6b7280">0.00</text>
<text x="68" y="50.00" text-anchor="end" dominant-baseline="middle" font-family="Arial, sans-serif" font-size="13" fill="#6b7280">10.85</text>
<polyline points="80.00,105.02 80.68,105.15 81.36,105.28 82.04,105.41 82.72,105.54 83.40,105.67 84.08,105.80 84.76,105.93 85.44,106.06 86.12,106.19 86.81,106.32 87.49,106.44 88.17,106.57 88.85,106.69 89.53,106.82 90.21,106.94 90.89,107.06 91.57,107.18 92.25,107.29 92.93,107.41 93.61,107.52 94.29,107.63 94.97,107.74 95.65,107.85 96.33,107.95 97.01,108.05 97.69,108.15 98.38,108.25 99.06,108.34 99.74,108.44 100.42,108.52 101.10,108.61 101.78,108.69 102.46,108.77 103.14,108.84 103.82,108.91 104.50,108.98 105.18,109.04 105.86,109.10 106.54,109.15 107.22,109.20 107.90,109.25 108.58,109.29 109.26,109.33 109.94,109.36 110.62,109.39 111.31,109.41 111.99,109.42 112.67,109.43 113.35,109.44 114.03,109.44 114.71,109.43 115.39,109.42 116.07,109.41 116.75,109.38 117.43,109.36 118.11,109.32 118.79,109.28 119.47,109.24 120.15,109.19 120.83,109.13 121.51,109.07 122.19,109.00 122.88,108.92 123.56,108.84 124.24,108.76 124.92,108.67 125.60,108.57 126.28,108.47 126.96,108.36 127.64,108.24 128.32,108.13 129.00,108.00 129.68,107.88 130.36,107.74 131.04,107.61 131.72,107.46 132.40,107.32 133.08,107.17 133.76,107.02 134.44,106.86 135.12,106.70 135.81,106.54 136.49,106.38 137.17,106.21 137.85,106.04 138.53,105.87 139.21,105.70 139.89,105.52 140.57,105.35 141.25,105.17 141.93,105.00 142.61,104.82 143.29,104.65 143.97,104.47 144.65,104.30 145.33,104.13 146.01,103.96 146.69,103.79 147.38,103.62 148.06,103.46 148.74,103.29 149.42,103.13 150.10,102.98 150.78,102.82 151.46,102.67 152.14,102.53 152.82,102.39 153.50,102.25 154.18,102.12 154.86,101.99 155.54,101.86 156.22,101.74 156.90,101.63 157.58,101.52 158.26,101.42 158.94,101.32 159.62,101.23 160.31,101.14 160.99,101.06 161.67,100.98 162.35,100.91 163.03,100.85 163.71,100.79 164.39,100.74 165.07,100.69 165.75,100.65 166.43,100.62 167.11,100.59 167.79,100.56 168.47,100.55 169.15,100.54 169.83,100.53 170.51,100.53 171.19,100.53 171.88,100.54 172.56,100.56 173.24,100.58 173.92,100.60 174.60,100.63 175.28,100.67 175.96,100.71 176.64,100.75 177.32,100.80 178.00,100.86 178.68,100.92 179.36,100.98 180.04,101.04 180.72,101.11 181.40,101.19 182.08,101.26 182.76,101.34 183.44,101.43 184.12,101.52 184.81,101.61 185.49,101.70 186.17,101.80 186.85,101.89 187.53,102.00 188.21,102.10 188.89,102.21 189.57,102.32 190.25,102.43 190.93,102.54 191.61,102.65 192.29,102.77 192.97,102.89 193.65,103.01 194.33,103.13 195.01,103.25 195.69,103.38 196.38,103.50 197.06,103.63 197.74,103.75 198.42,103.88 199.10,104.01 199.78,104.14 200.46,104.27 201.14,104.40 201.82,104.53 202.50,104.66 203.18,104.79 203.86,104.92 204.54,105.06 205.22,105.19 205.90,105.32 206.58,105.45 207.26,105.58 207.94,105.71 208.62,105.84 209.31,105.97 209.99,106.10 210.67,106.23 211.35,106.35 212.03,106.48 212.71,106.60 213.39,106.73 214.07,106.85 214.75,106.97 215.43,107.09 216.11,107.21 216.79,107.33 217.47,107.44 218.15,107.55 218.83,107.66 219.51,107.77 220.19,107.88 220.88,107.98 221.56,108.08 222.24,108.18 222.92,108.28 223.60,108.37 224.28,108.46 224.96,108.55 225.64,108.63 226.32,108.71 227.00,108.79 227.68,108.86 228.36,108.93 229.04,109.00 229.72,109.06 230.40,109.12 231.08,109.17 231.76,109.22 232.44,109.26 233.12,109.30 233.81,109.34 234.49,109.37 235.17,109.39 235.85,109.41 236.53,109.43 237.21,109.44 237.89,109.44 238.57,109.44 239.25,109.43 239.93,109.42 240.61,109.40 241.29,109.38 241.97,109.35 242.65,109.31 243.33,109.27 244.01,109.22 244.69,109.17 245.37,109.11 246.06,109.05 246.74,108.98 247.42,108.90 248.10,108.82 248.78,108.73 249.46,108.64 250.14,108.54 250.82,108.43 251.50,108.33 252.18,108.21 252.86,108.09 253.54,107.97 254.22,107.84 254.90,107.70 255.58,107.57 256.26,107.42 256.94,107.28 257.62,107.13 258.31,106.97 258.99,106.82 259.67,106.66 260.35,106.49 261.03,106.33 261.71,106.16 262.39,105.99 263.07,105.82 263.75,105.65 264.43,105.47 265.11,105.30 265.79,105.12 266.47,104.95 267.15,104.77 267.83,104.60 268.51,104.42 269.19,104.25 269.88,104.08 270.56,103.91 271.24,103.74 271.92,103.57 272.60,103.41 273.28,103.25 273.96,103.09 274.64,102.93 275.32,102.78 276.00,102.63 276.68,102.49 277.36,102.35 278.04,102.21 278.72,102.08 279.40,101.95 280.08,101.83 280.76,101.71 281.44,101.60 282.12,101.49 282.81,101.39 283.49,101.29 284.17,101.20 284.85,101.12 285.53,101.04 286.21,100.96 286.89,100.89 287.57,100.83 288.25,100.78 288.93,100.72 289.61,100.68 290.29,100.64 290.97,100.61 291.65,100.58 292.33,100.56 293.01,100.54 293.69,100.53 294.38,100.53 295.06,100.53 295.74,100.54 296.42,100.55 297.10,100.56 297.78,100.59 298.46,100.61 299.14,100.64 299.82,100.68 300.50,100.72 301.18,100.77 301.86,100.82 302.54,100.87 303.22,100.93 303.90,101.00 304.58,101.06 305.26,101.13 305.94,101.21 306.62,101.29 307.31,101.37 307.99,101.45 308.67,101.54 309.35,101.63 310.03,101.73 310.71,101.82 311.39,101.92 312.07,102.03 312.75,102.13 313.43,102.24 314.11,102.35 314.79,102.46 315.47,102.57 316.15,102.69 316.83,102.80 317.51,102.92 318.19,103.04 318.88,103.17 319.56,103.29 320.24,103.41 320.92,103.54 321.60,103.66 322.28,103.79 322.96,103.92 323.64,104.05 324.32,104.18 325.00,104.31 325.68,104.44 326.36,104.57 327.04,104.70 327.72,104.83 328.40,104.96 329.08,105.10 329.76,105.23 330.44,105.36 331.12,105.49 331.81,105.62 332.49,105.75 333.17,105.88 333.85,106.01 334.53,106.14 335.21,106.26 335.89,106.39 336.57,106.52 337.25,106.64 337.93,106.76 338.61,106.89 339.29,107.01 339.97,107.13 340.65,107.24 341.33,107.36 342.01,107.47 342.69,107.59 343.38,107.70 344.06,107.80 344.74,107.91 345.42,108.01 346.10,108.11 346.78,108.21 347.46,108.31 348.14,108.40 348.82,108.49 349.50,108.57 350.18,108.66 350.86,108.74 351.54,108.81 352.22,108.88 352.90,108.95 353.58,109.02 354.26,109.08 354.94,109.13 355.62,109.18 356.31,109.23 356.99,109.27 357.67,109.31 358.35,109.35 359.03,109.37 359.71,109.40 360.39,109.42 361.07,109.43 361.75,109.44 362.43,109.44 363.11,109.44 363.79,109.43 364.47,109.41 365.15,109.39 365.83,109.37 366.51,109.34 367.19,109.30 367.88,109.26 368.56,109.21 369.24,109.15 369.92,109.09 370.60,109.03 371.28,108.95 371.96,108.88 372.64,108.79 373.32,108.70 374.00,108.61 374.68,108.51 375.36,108.40 376.04,108.29 376.72,108.18 377.40,108.05 378.08,107.93 378.76,107.80 379.44,107.66 380.12,107.52 380.81,107.38 381.49,107.23 382.17,107.08 382.85,106.93 383.53,106.77 384.21,106.61 384.89,106.45 385.57,106.28 386.25,106.11 386.93,105.94 387.61,105.77 388.29,105.60 388.97,105.42 389.65,105.25 390.33,105.07 391.01,104.90 391.69,104.72 392.38,104.55 393.06,104.37 393.74,104.20 394.42,104.03 395.10,103.86 395.78,103.69 396.46,103.52 397.14,103.36 397.82,103.20 398.50,103.04 399.18,102.89 399.86,102.74 400.54,102.59 401.22,102.45 401.90,102.31 402.58,102.17 403.26,102.04 403.94,101.91 404.62,101.79 405.31,101.68 405.99,101.57 406.67,101.46 407.35,101.36 408.03,101.27 408.71,101.18 409.39,101.09 410.07,101.01 410.75,100.94 411.43,100.88 412.11,100.81 412.79,100.76 413.47,100.71 414.15,100.67 414.83,100.63 415.51,100.60 416.19,100.57 416.88,100.55 417.56,100.54 418.24,100.53 418.92,100.53 419.60,100.53 420.28,100.54 420.96,100.55 421.64,100.57 422.32,100.59 423.00,100.62 423.68,100.65 424.36,100.69 425.04,100.74 425.72,100.78 426.40,100.83 427.08,100.89 427.76,100.95 428.44,101.02 429.12,101.08 429.81,101.16 430.49,101.23 431.17,101.31 431.85,101.39 432.53,101.48 433.21,101.57 433.89,101.66 434.57,101.76 435.25,101.85 435.93,101.95 436.61,102.06 437.29,102.16 437.97,102.27 438.65,102.38 439.33,102.49 440.01,102.61 440.69,102.72 441.37,102.84 442.06,102.96 442.74,103.08 443.42,103.20 444.10,103.32 444.78,103.45 445.46,103.57 446.14,103.70 446.82,103.83 447.50,103.96 448.18,104.09 448.86,104.22 449.54,104.35 450.22,104.48 450.90,104.61 451.58,104.74 452.26,104.87 452.94,105.00 453.63,105.13 454.31,105.26 454.99,105.40 455.67,105.53 456.35,105.66 457.03,105.79 457.71,105.92 458.39,106.05 459.07,106.17 459.75,106.30 460.43,106.43 461.11,106.55 461.79,106.68 462.47,106.80 463.15,106.92 463.83,107.04 464.51,107.16 465.19,107.28 465.88,107.39 466.56,107.51 467.24,107.62 467.92,107.73 468.60,107.83 469.28,107.94 469.96,108.04 470.64,108.14 471.32,108.24 472.00,108.33 472.68,108.42 473.36,108.51 474.04,108.60 474.72,108.68 475.40,108.76 476.08,108.83 476.76,108.90 477.44,108.97 478.12,109.03 478.81,109.09 479.49,109.15 480.17,109.20 480.85,109.24 481.53,109.29 482.21,109.32 482.89,109.36 483.57,109.38 484.25,109.40 484.93,109.42 485.61,109.43 486.29,109.44 486.97,109.44 487.65,109.44 488.33,109.43 489.01,109.41 489.69,109.39 490.38,109.36 491.06,109.33 491.74,109.29 492.42,109.24 493.10,109.19 493.78,109.14 494.46,109.07 495.14,109.01 495.82,108.93 496.50,108.85 497.18,108.77 497.86,108.68 498.54,108.58 499.22,108.48 499.90,108.37 500.58,108.26 501.26,108.14 501.94,108.02 502.62,107.89 503.31,107.76 503.99,107.62 504.67,107.48 505.35,107.34 506.03,107.19 506.71,107.04 507.39,106.88 508.07,106.72 508.75,106.56 509.43,106.40 510.11,106.23 510.79,106.06 511.47,105.89 512.15,105.72 512.83,105.55 513.51,105.37 514.19,105.20 514.88,105.02 515.56,104.85 516.24,104.67 516.92,104.50 517.60,104.32 518.28,104.15 518.96,103.98 519.64,103.81 520.32,103.64 521.00,103.48 521.68,103.31 522.36,103.15 523.04,103.00 523.72,102.84 524.40,102.69 525.08,102.55 525.76,102.40 526.44,102.27 527.12,102.13 527.81,102.00 528.49,101.88 529.17,101.76 529.85,101.64 530.53,101.53 531.21,101.43 531.89,101.33 532.57,101.24 533.25,101.15 533.93,101.07 534.61,100.99 535.29,100.92 535.97,100.86 536.65,100.80 537.33,100.75 538.01,100.70 538.69,100.66 539.38,100.62 540.06,100.59 540.74,100.57 541.42,100.55 542.10,100.54 542.78,100.53 543.46,100.53 544.14,100.53 544.82,100.54 545.50,100.56 546.18,100.58 546.86,100.60 547.54,100.63 548.22,100.67 548.90,100.70 549.58,100.75 550.26,100.80 550.94,100.85 551.62,100.91 552.31,100.97 552.99,101.03 553.67,101.10 554.35,101.18 555.03,101.25 555.71,101.33 556.39,101.42 557.07,101.51 557.75,101.60 558.43,101.69 559.11,101.78 559.79,101.88 560.47,101.98 561.15,102.09 561.83,102.19 562.51,102.30 563.19,102.41 563.88,102.53 564.56,102.64 565.24,102.76 565.92,102.87 566.60,102.99 567.28,103.11 567.96,103.24 568.64,103.36 569.32,103.49 570.00,103.61 570.68,103.74 571.36,103.87 572.04,103.99 572.72,104.12 573.40,104.25 574.08,104.38 574.76,104.52 575.44,104.65 576.12,104.78 576.81,104.91 577.49,105.04 578.17,105.17 578.85,105.30 579.53,105.43 580.21,105.57 580.89,105.70 581.57,105.83 582.25,105.95 582.93,106.08 583.61,106.21 584.29,106.34 584.97,106.46 585.65,106.59 586.33,106.71 587.01,106.84 587.69,106.96 588.38,107.08 589.06,107.20 589.74,107.31 590.42,107.43 591.10,107.54 591.78,107.65 592.46,107.76 593.14,107.87 593.82,107.97 594.50,108.07 595.18,108.17 595.86,108.27 596.54,108.36 597.22,108.45 597.90,108.54 598.58,108.62 599.26,108.70 599.94,108.78 600.62,108.85 601.31,108.92 601.99,108.99 602.67,109.05 603.35,109.11 604.03,109.16 604.71,109.21 605.39,109.26 606.07,109.30 606.75,109.33 607.43,109.36 608.11,109.39 608.79,109.41 609.47,109.43 610.15,109.44 610.83,109.44 611.51,109.44 612.19,109.43 612.88,109.42 613.56,109.40 614.24,109.38 614.92,109.35 615.60,109.32 616.28,109.28 616.96,109.23 617.64,109.18 618.32,109.12 619.00,109.06 619.68,108.99 620.36,108.91 621.04,108.83 621.72,108.74 622.40,108.65 623.08,108.55 623.76,108.45 624.44,108.34 625.12,108.22 625.81,108.11 626.49,107.98 627.17,107.85 627.85,107.72 628.53,107.58 629.21,107.44 629.89,107.29 630.57,107.14 631.25,106.99 631.93,106.84 632.61,106.68 633.29,106.51 633.97,106.35 634.65,106.18 635.33,106.01 636.01,105.84 636.69,105.67 637.38,105.49 638.06,105.32 638.74,105.15 639.42,104.97 640.10,104.79 640.78,104.62 641.46,104.45 642.14,104.27 642.82,104.10 643.50,103.93 644.18,103.76 644.86,103.59 645.54,103.43 646.22,103.27 646.90,103.11 647.58,102.95 648.26,102.80 648.94,102.65 649.62,102.50 650.31,102.36 650.99,102.23 651.67,102.09 652.35,101.97 653.03,101.84 653.71,101.72 654.39,101.61 655.07,101.50 655.75,101.40 656.43,101.30 657.11,101.21 657.79,101.13 658.47,101.05 659.15,100.97 659.83,100.90 660.51,100.84 661.19,100.78 661.88,100.73 662.56,100.69 663.24,100.65 663.92,100.61 664.60,100.58 665.28,100.56 665.96,100.54 666.64,100.53 667.32,100.53 668.00,100.53 668.68,100.53 669.36,100.55 670.04,100.56 670.72,100.58 671.40,100.61 672.08,100.64 672.76,100.68 673.44,100.72 674.13,100.76 674.81,100.81 675.49,100.87 676.17,100.93 676.85,100.99 677.53,101.05 678.21,101.13 678.89,101.20 679.57,101.28 680.25,101.36 680.93,101.44 681.61,101.53 682.29,101.62 682.97,101.72 683.65,101.81 684.33,101.91 685.01,102.01 685.69,102.12 686.38,102.23 687.06,102.33 687.74,102.45 688.42,102.56 689.10,102.67 689.78,102.79 690.46,102.91 691.14,103.03 691.82,103.15 692.50,103.27 693.18,103.40 693.86,103.52 694.54,103.65 695.22,103.78 695.90,103.90 696.58,104.03 697.26,104.16 697.94,104.29 698.62,104.42 699.31,104.55 699.99,104.68 700.67,104.82 701.35,104.95 702.03,105.08 702.71,105.21 703.39,105.34 704.07,105.47 704.75,105.60 705.43,105.73 706.11,105.86 706.79,105.99 707.47,106.12 708.15,106.25 708.83,106.38 709.51,106.50 710.19,106.63 710.87,106.75 711.56,106.87 712.24,106.99 712.92,107.11 713.60,107.23 714.28,107.35 714.96,107.46 715.64,107.57 716.32,107.68 717.00,107.79 717.68,107.90 718.36,108.00 719.04,108.10 719.72,108.20 720.40,108.29 721.08,108.39 721.76,108.48 722.44,108.56 723.12,108.65 723.81,108.73 724.49,108.80 725.17,108.87 725.85,108.94 726.53,109.01 727.21,109.07 727.89,109.13 728.57,109.18 729.25,109.23 729.93,109.27 730.61,109.31 731.29,109.34 731.97,109.37 732.65,109.40 733.33,109.41 734.01,109.43 734.69,109.44 735.38,109.44 736.06,109.44 736.74,109.43 737.42,109.42 738.10,109.40 738.78,109.37 739.46,109.34 740.14,109.31 740.82,109.26 741.50,109.21 742.18,109.16 742.86,109.10 743.54,109.04 744.22,108.96 744.90,108.89 745.58,108.80 746.26,108.72 746.94,108.62 747.62,108.52 748.31,108.42 748.99,108.31 749.67,108.19 750.35,108.07 751.03,107.94 751.71,107.81 752.39,107.68 753.07,107.54 753.75,107.40 754.43,107.25 755.11,107.10 755.79,106.95 756.47,106.79 757.15,106.63 757.83,106.47 758.51,106.30 759.19,106.13 759.88,105.96 760.56,105.79 761.24,105.62 761.92,105.44 762.60,105.27 763.28,105.09 763.96,104.92 764.64,104.74 765.32,104.57 766.00,104.39 766.68,104.22 767.36,104.05 768.04,103.88 768.72,103.71 769.40,103.54 770.08,103.38 770.76,103.22 771.44,103.06 772.12,102.91 772.81,102.75 773.49,102.61 774.17,102.46 774.85,102.32 775.53,102.19 776.21,102.06 776.89,101.93 777.57,101.81 778.25,101.69 778.93,101.58 779.61,101.47 780.29,101.37 780.97,101.28 781.65,101.19 782.33,101.10 783.01,101.02 783.69,100.95 784.38,100.88 785.06,100.82 785.74,100.77 786.42,100.72 787.10,100.67 787.78,100.64 788.46,100.60 789.14,100.58 789.82,100.56 790.50,100.54 791.18,100.53 791.86,100.53 792.54,100.53 793.22,100.54 793.90,100.55 794.58,100.57 795.26,100.59 795.94,100.62 796.63,100.65 797.31,100.69 797.99,100.73 798.67,100.78 799.35,100.83 800.03,100.88 800.71,100.94 801.39,101.01 802.07,101.08 802.75,101.15 803.43,101.22 804.11,101.30 804.79,101.38 805.47,101.47 806.15,101.56 806.83,101.65 807.51,101.74 808.19,101.84 808.88,101.94 809.56,102.04 810.24,102.15 810.92,102.26 811.60,102.37 812.28,102.48 812.96,102.59 813.64,102.71 814.32,102.82 815.00,102.94 815.68,103.06 816.36,103.19 817.04,103.31 817.72,103.43 818.40,103.56 819.08,103.69 819.76,103.81 820.44,103.94 821.12,104.07 821.81,104.20 822.49,104.33 823.17,104.46 823.85,104.59 824.53,104.72 825.21,104.85 825.89,104.99 826.57,105.12 827.25,105.25 827.93,105.38 828.61,105.51 829.29,105.64 829.97,105.77 830.65,105.90 831.33,106.03 832.01,106.16 832.69,106.29 833.37,106.41 834.06,106.54 834.74,106.66 835.42,106.79 836.10,106.91 836.78,107.03 837.46,107.15 838.14,107.26 838.82,107.38 839.50,107.49 840.18,107.60 840.86,107.71 841.54,107.82 842.22,107.93 842.90,108.03 843.58,108.13 844.26,108.23 844.94,108.32 845.62,108.41 846.31,108.50 846.99,108.59 847.67,108.67 848.35,108.75 849.03,108.82 849.71,108.90 850.39,108.96 851.07,109.03 851.75,109.09 852.43,109.14 853.11,109.19 853.79,109.24 854.47,109.28 855.15,109.32 855.83,109.35 856.51,109.38 857.19,109.40 857.88,109.42 858.56,109.43 859.24,109.44 859.92,109.44 860.60,109.44 861.28,109.43 861.96,109.41 862.64,109.39 863.32,109.36 864.00,109.33 864.68,109.29 865.36,109.25 866.04,109.20 866.72,109.14 867.40,109.08 868.08,109.02 868.76,108.94 869.44,108.86 870.12,108.78 870.81,108.69 871.49,108.59 872.17,108.49 872.85,108.38 873.53,108.27 874.21,108.16 874.89,108.03 875.57,107.91 876.25,107.78 876.93,107.64 877.61,107.50 878.29,107.36 878.97,107.21 879.65,107.06 880.33,106.90 881.01,106.74 881.69,106.58 882.38,106.42 883.06,106.25 883.74,106.08 884.42,105.91 885.10,105.74 885.78,105.57 886.46,105.39 887.14,105.22 887.82,105.04 888.50,104.87 889.18,104.69 889.86,104.52 890.54,104.34 891.22,104.17 891.90,104.00 892.58,103.83 893.26,103.66 893.94,103.50 894.62,103.33 895.31,103.17 895.99,103.02 896.67,102.86 897.35,102.71 898.03,102.56 898.71,102.42 899.39,102.28 900.07,102.15 900.75,102.02 901.43,101.89 902.11,101.77 902.79,101.66 903.47,101.55 904.15,101.44 904.83,101.34 905.51,101.25 906.19,101.16 906.88,101.08 907.56,101.00 908.24,100.93 908.92,100.86 909.60,100.81 910.28,100.75 910.96,100.70 911.64,100.66 912.32,100.63 913.00,100.59 913.68,100.57 914.36,100.55 915.04,100.54 915.72,100.53 916.40,100.53 917.08,100.53 917.76,100.54 918.44,100.55 919.13,100.57 919.81,100.60 920.49,100.63 921.17,100.66 921.85,100.70 922.53,100.74 923.21,100.79 923.89,100.84 924.57,100.90 925.25,100.96 925.93,101.03 926.61,101.10 927.29,101.17 927.97,101.24 928.65,101.32 929.33,101.41 930.01,101.49 930.69,101.58 931.38,101.68 932.06,101.77 932.74,101.87 933.42,101.97 934.10,102.07 934.78,102.18 935.46,102.29 936.14,102.40 936.82,102.51 937.50,102.63 938.18,102.74 938.86,102.86 939.54,102.98 940.22,103.10 940.90,103.22 941.58,103.35 942.26,103.47 942.94,103.60 943.62,103.72 944.31,103.85 944.99,103.98 945.67,104.11 946.35,104.24 947.03,104.37 947.71,104.50 948.39,104.63 949.07,104.76 949.75,104.89 950.43,105.02 951.11,105.16 951.79,105.29 952.47,105.42 953.15,105.55 953.83,105.68 954.51,105.81 955.19,105.94 955.87,106.07 956.56,106.20 957.24,106.32 957.92,106.45 958.60,106.57 959.28,106.70 959.96,106.82 960.64,106.94 961.32,107.06 962.00,107.18 962.68,107.30 963.36,107.41 964.04,107.53 964.72,107.64 965.40,107.75 966.08,107.85 966.76,107.96 967.44,108.06 968.12,108.16 968.81,108.26 969.49,108.35 970.17,108.44 970.85,108.53 971.53,108.61 972.21,108.69 972.89,108.77 973.57,108.85 974.25,108.92 974.93,108.98 975.61,109.04 976.29,109.10 976.97,109.16 977.65,109.21 978.33,109.25 979.01,109.29 979.69,109.33 980.38,109.36 981.06,109.39 981.74,109.41 982.42,109.42 983.10,109.43 983.78,109.44 984.46,109.44 985.14,109.43 985.82,109.42 986.50,109.41 987.18,109.38 987.86,109.36 988.54,109.32 989.22,109.28 989.90,109.24 990.58,109.18 991.26,109.13 991.94,109.06 992.62,108.99 993.31,108.92 993.99,108.84 994.67,108.75 995.35,108.66 996.03,108.56 996.71,108.46 997.39,108.35 998.07,108.24 998.75,108.12 999.43,108.00 1000.11,107.87 1000.79,107.74 1001.47,107.60 1002.15,107.46 1002.83,107.31 1003.51,107.16 1004.19,107.01 1004.88,106.85 1005.56,106.70 1006.24,106.53 1006.92,106.37 1007.60,106.20 1008.28,106.03 1008.96,105.86 1009.64,105.69 1010.32,105.52 1011.00,105.34 1011.68,105.17 1012.36,104.99 1013.04,104.82 1013.72,104.64 1014.40,104.47 1015.08,104.29 1015.76,104.12 1016.44,103.95 1017.12,103.78 1017.81,103.61 1018.49,103.45 1019.17,103.29 1019.85,103.13 1020.53,102.97 1021.21,102.82 1021.89,102.67 1022.57,102.52 1023.25,102.38 1023.93,102.24 1024.61,102.11 1025.29,101.98 1025.97,101.86 1026.65,101.74 1027.33,101.63 1028.01,101.52 1028.69,101.41 1029.38,101.32 1030.06,101.22 1030.74,101.14 1031.42,101.06 1032.10,100.98 1032.78,100.91 1033.46,100.85 1034.14,100.79 1034.82,100.74 1035.50,100.69 1036.18,100.65 1036.86,100.62 1037.54,100.59 1038.22,100.56 1038.90,100.55 1039.58,100.54 1040.26,100.53 1040.94,100.53 1041.62,100.53 1042.31,100.54 1042.99,100.56 1043.67,100.58 1044.35,100.61 1045.03,100.64 1045.71,100.67 1046.39,100.71 1047.07,100.76 1047.75,100.81 1048.43,100.86 1049.11,100.92 1049.79,100.98 1050.47,101.05 1051.15,101.12 1051.83,101.19 1052.51,101.27 1053.19,101.35 1053.88,101.43 1054.56,101.52 1055.24,101.61 1055.92,101.70 1056.60,101.80 1057.28,101.90 1057.96,102.00 1058.64,102.11 1059.32,102.21 1060.00,102.32" fill="none" stroke="#2563eb" stroke-width="3" stroke-linejoin="round" stroke-linecap="round"/>
<rect x="870" y="62" width="18" height="4" fill="#2563eb"/>
<text x="898" y="67" font-family="Arial, sans-serif" font-size="15" fill="#111827">nonlinear</text>
<polyline points="80.00,55.26 80.68,55.45 81.36,55.64 82.04,55.83 82.72,56.02 83.40,56.21 84.08,56.40 84.76,56.59 85.44,56.77 86.12,56.96 86.81,57.14 87.49,57.31 88.17,57.49 88.85,57.66 89.53,57.83 90.21,57.99 90.89,58.15 91.57,58.31 92.25,58.46 92.93,58.61 93.61,58.75 94.29,58.89 94.97,59.03 95.65,59.15 96.33,59.28 97.01,59.39 97.69,59.51 98.38,59.61 99.06,59.71 99.74,59.81 100.42,59.89 101.10,59.97 101.78,60.05 102.46,60.12 103.14,60.18 103.82,60.23 104.50,60.28 105.18,60.32 105.86,60.36 106.54,60.38 107.22,60.40 107.90,60.42 108.58,60.42 109.26,60.42 109.94,60.41 110.62,60.40 111.31,60.37 111.99,60.34 112.67,60.31 113.35,60.26 114.03,60.21 114.71,60.16 115.39,60.09 116.07,60.02 116.75,59.94 117.43,59.86 118.11,59.77 118.79,59.67 119.47,59.57 120.15,59.46 120.83,59.35 121.51,59.23 122.19,59.11 122.88,58.98 123.56,58.84 124.24,58.70 124.92,58.55 125.60,58.40 126.28,58.25 126.96,58.09 127.64,57.93 128.32,57.76 129.00,57.59 129.68,57.42 130.36,57.25 131.04,57.07 131.72,56.89 132.40,56.70 133.08,56.52 133.76,56.33 134.44,56.14 135.12,55.95 135.81,55.76 136.49,55.57 137.17,55.38 137.85,55.19 138.53,54.99 139.21,54.80 139.89,54.61 140.57,54.42 141.25,54.23 141.93,54.04 142.61,53.86 143.29,53.67 143.97,53.49 144.65,53.31 145.33,53.13 146.01,52.96 146.69,52.78 147.38,52.62 148.06,52.45 148.74,52.29 149.42,52.13 150.10,51.98 150.78,51.83 151.46,51.69 152.14,51.55 152.82,51.41 153.50,51.28 154.18,51.16 154.86,51.04 155.54,50.93 156.22,50.82 156.90,50.72 157.58,50.63 158.26,50.54 158.94,50.46 159.62,50.38 160.31,50.31 160.99,50.25 161.67,50.19 162.35,50.15 163.03,50.10 163.71,50.07 164.39,50.04 165.07,50.02 165.75,50.01 166.43,50.00 167.11,50.00 167.79,50.01 168.47,50.02 169.15,50.05 169.83,50.07 170.51,50.11 171.19,50.15 171.88,50.20 172.56,50.26 173.24,50.32 173.92,50.39 174.60,50.47 175.28,50.55 175.96,50.64 176.64,50.73 177.32,50.84 178.00,50.94 178.68,51.06 179.36,51.18 180.04,51.30 180.72,51.43 181.40,51.57 182.08,51.70 182.76,51.85 183.44,52.00 184.12,52.15 184.81,52.31 185.49,52.47 186.17,52.64 186.85,52.81 187.53,52.98 188.21,53.15 188.89,53.33 189.57,53.51 190.25,53.70 190.93,53.88 191.61,54.07 192.29,54.26 192.97,54.45 193.65,54.64 194.33,54.83 195.01,55.02 195.69,55.21 196.38,55.40 197.06,55.60 197.74,55.79 198.42,55.98 199.10,56.17 199.78,56.36 200.46,56.54 201.14,56.73 201.82,56.91 202.50,57.09 203.18,57.27 203.86,57.44 204.54,57.62 205.22,57.79 205.90,57.95 206.58,58.11 207.26,58.27 207.94,58.42 208.62,58.57 209.31,58.72 209.99,58.86 210.67,58.99 211.35,59.12 212.03,59.25 212.71,59.37 213.39,59.48 214.07,59.59 214.75,59.69 215.43,59.78 216.11,59.87 216.79,59.95 217.47,60.03 218.15,60.10 218.83,60.16 219.51,60.22 220.19,60.27 220.88,60.31 221.56,60.35 222.24,60.38 222.92,60.40 223.60,60.41 224.28,60.42 224.96,60.42 225.64,60.41 226.32,60.40 227.00,60.38 227.68,60.35 228.36,60.32 229.04,60.28 229.72,60.23 230.40,60.17 231.08,60.11 231.76,60.04 232.44,59.96 233.12,59.88 233.81,59.79 234.49,59.70 235.17,59.60 235.85,59.49 236.53,59.38 237.21,59.26 237.89,59.14 238.57,59.01 239.25,58.87 239.93,58.73 240.61,58.59 241.29,58.44 241.97,58.29 242.65,58.13 243.33,57.97 244.01,57.81 244.69,57.64 245.37,57.47 246.06,57.29 246.74,57.11 247.42,56.93 248.10,56.75 248.78,56.56 249.46,56.38 250.14,56.19 250.82,56.00 251.50,55.81 252.18,55.62 252.86,55.43 253.54,55.23 254.22,55.04 254.90,54.85 255.58,54.66 256.26,54.47 256.94,54.28 257.62,54.09 258.31,53.90 258.99,53.72 259.67,53.53 260.35,53.35 261.03,53.17 261.71,53.00 262.39,52.83 263.07,52.66 263.75,52.49 264.43,52.33 265.11,52.17 265.79,52.02 266.47,51.87 267.15,51.72 267.83,51.58 268.51,51.45 269.19,51.32 269.88,51.19 270.56,51.07 271.24,50.96 271.92,50.85 272.60,50.75 273.28,50.65 273.96,50.56 274.64,50.48 275.32,50.40 276.00,50.33 276.68,50.27 277.36,50.21 278.04,50.16 278.72,50.11 279.40,50.08 280.08,50.05 280.76,50.03 281.44,50.01 282.12,50.00 282.81,50.00 283.49,50.01 284.17,50.02 284.85,50.04 285.53,50.07 286.21,50.10 286.89,50.14 287.57,50.19 288.25,50.24 288.93,50.31 289.61,50.37 290.29,50.45 290.97,50.53 291.65,50.62 292.33,50.71 293.01,50.81 293.69,50.92 294.38,51.03 295.06,51.15 295.74,51.27 296.42,51.40 297.10,51.53 297.78,51.67 298.46,51.81 299.14,51.96 299.82,52.11 300.50,52.27 301.18,52.43 301.86,52.60 302.54,52.76 303.22,52.94 303.90,53.11 304.58,53.29 305.26,53.47 305.94,53.65 306.62,53.83 307.31,54.02 307.99,54.21 308.67,54.40 309.35,54.59 310.03,54.78 310.71,54.97 311.39,55.16 312.07,55.36 312.75,55.55 313.43,55.74 314.11,55.93 314.79,56.12 315.47,56.31 316.15,56.50 316.83,56.68 317.51,56.87 318.19,57.05 318.88,57.23 319.56,57.40 320.24,57.57 320.92,57.74 321.60,57.91 322.28,58.07 322.96,58.23 323.64,58.39 324.32,58.54 325.00,58.68 325.68,58.82 326.36,58.96 327.04,59.09 327.72,59.22 328.40,59.34 329.08,59.45 329.76,59.56 330.44,59.66 331.12,59.76 331.81,59.85 332.49,59.94 333.17,60.01 333.85,60.08 334.53,60.15 335.21,60.21 335.89,60.26 336.57,60.30 337.25,60.34 337.93,60.37 338.61,60.39 339.29,60.41 339.97,60.42 340.65,60.42 341.33,60.42 342.01,60.40 342.69,60.39 343.38,60.36 344.06,60.33 344.74,60.29 345.42,60.24 346.10,60.19 346.78,60.12 347.46,60.06 348.14,59.98 348.82,59.90 349.50,59.82 350.18,59.72 350.86,59.62 351.54,59.52 352.22,59.41 352.90,59.29 353.58,59.17 354.26,59.04 354.94,58.91 355.62,58.77 356.31,58.63 356.99,58.48 357.67,58.33 358.35,58.17 359.03,58.01 359.71,57.85 360.39,57.68 361.07,57.51 361.75,57.33 362.43,57.16 363.11,56.98 363.79,56.79 364.47,56.61 365.15,56.42 365.83,56.24 366.51,56.05 367.19,55.86 367.88,55.67 368.56,55.47 369.24,55.28 369.92,55.09 370.60,54.90 371.28,54.71 371.96,54.51 372.64,54.32 373.32,54.14 374.00,53.95 374.68,53.76 375.36,53.58 376.04,53.40 376.72,53.22 377.40,53.04 378.08,52.87 378.76,52.70 379.44,52.53 380.12,52.37 380.81,52.21 381.49,52.05 382.17,51.90 382.85,51.76 383.53,51.62 384.21,51.48 384.89,51.35 385.57,51.22 386.25,51.10 386.93,50.98 387.61,50.87 388.29,50.77 388.97,50.67 389.65,50.58 390.33,50.50 391.01,50.42 391.69,50.35 392.38,50.28 393.06,50.22 393.74,50.17 394.42,50.12 395.10,50.09 395.78,50.05 396.46,50.03 397.14,50.01 397.82,50.00 398.50,50.00 399.18,50.00 399.86,50.02 400.54,50.03 401.22,50.06 401.90,50.09 402.58,50.13 403.26,50.18 403.94,50.23 404.62,50.29 405.31,50.36 405.99,50.43 406.67,50.51 407.35,50.59 408.03,50.69 408.71,50.79 409.39,50.89 410.07,51.00 410.75,51.12 411.43,51.24 412.11,51.37 412.79,51.50 413.47,51.64 414.15,51.78 414.83,51.92 415.51,52.08 416.19,52.23 416.88,52.39 417.56,52.56 418.24,52.72 418.92,52.89 419.60,53.07 420.28,53.24 420.96,53.42 421.64,53.60 422.32,53.79 423.00,53.97 423.68,54.16 424.36,54.35 425.04,54.54 425.72,54.73 426.40,54.92 427.08,55.12 427.76,55.31 428.44,55.50 429.12,55.69 429.81,55.88 430.49,56.07 431.17,56.26 431.85,56.45 432.53,56.64 433.21,56.82 433.89,57.00 434.57,57.18 435.25,57.36 435.93,57.53 436.61,57.70 437.29,57.87 437.97,58.03 438.65,58.19 439.33,58.35 440.01,58.50 440.69,58.65 441.37,58.79 442.06,58.93 442.74,59.06 443.42,59.19 444.10,59.31 444.78,59.42 445.46,59.53 446.14,59.64 446.82,59.74 447.50,59.83 448.18,59.91 448.86,59.99 449.54,60.07 450.22,60.13 450.90,60.19 451.58,60.25 452.26,60.29 452.94,60.33 453.63,60.36 454.31,60.39 454.99,60.41 455.67,60.42 456.35,60.42 457.03,60.42 457.71,60.41 458.39,60.39 459.07,60.37 459.75,60.34 460.43,60.30 461.11,60.25 461.79,60.20 462.47,60.14 463.15,60.07 463.83,60.00 464.51,59.92 465.19,59.84 465.88,59.75 466.56,59.65 467.24,59.55 467.92,59.44 468.60,59.32 469.28,59.20 469.96,59.07 470.64,58.94 471.32,58.80 472.00,58.66 472.68,58.52 473.36,58.36 474.04,58.21 474.72,58.05 475.40,57.89 476.08,57.72 476.76,57.55 477.44,57.38 478.12,57.20 478.81,57.02 479.49,56.84 480.17,56.66 480.85,56.47 481.53,56.28 482.21,56.09 482.89,55.90 483.57,55.71 484.25,55.52 484.93,55.33 485.61,55.14 486.29,54.94 486.97,54.75 487.65,54.56 488.33,54.37 489.01,54.18 489.69,53.99 490.38,53.81 491.06,53.62 491.74,53.44 492.42,53.26 493.10,53.09 493.78,52.91 494.46,52.74 495.14,52.57 495.82,52.41 496.50,52.25 497.18,52.09 497.86,51.94 498.54,51.79 499.22,51.65 499.90,51.51 500.58,51.38 501.26,51.25 501.94,51.13 502.62,51.01 503.31,50.90 503.99,50.80 504.67,50.70 505.35,50.60 506.03,50.52 506.71,50.44 507.39,50.36 508.07,50.30 508.75,50.24 509.43,50.18 510.11,50.13 510.79,50.09 511.47,50.06 512.15,50.04 512.83,50.02 513.51,50.00 514.19,50.00 514.88,50.00 515.56,50.01 516.24,50.03 516.92,50.05 517.60,50.08 518.28,50.12 518.96,50.16 519.64,50.22 520.32,50.27 521.00,50.34 521.68,50.41 522.36,50.49 523.04,50.57 523.72,50.66 524.40,50.76 525.08,50.86 525.76,50.97 526.44,51.09 527.12,51.21 527.81,51.33 528.49,51.46 529.17,51.60 529.85,51.74 530.53,51.89 531.21,52.04 531.89,52.19 532.57,52.35 533.25,52.51 533.93,52.68 534.61,52.85 535.29,53.02 535.97,53.20 536.65,53.38 537.33,53.56 538.01,53.74 538.69,53.93 539.38,54.12 540.06,54.30 540.74,54.49 541.42,54.69 542.10,54.88 542.78,55.07 543.46,55.26 544.14,55.45 544.82,55.65 545.50,55.84 546.18,56.03 546.86,56.22 547.54,56.40 548.22,56.59 548.90,56.78 549.58,56.96 550.26,57.14 550.94,57.32 551.62,57.49 552.31,57.66 552.99,57.83 553.67,57.99 554.35,58.15 555.03,58.31 555.71,58.46 556.39,58.61 557.07,58.75 557.75,58.89 558.43,59.03 559.11,59.16 559.79,59.28 560.47,59.40 561.15,59.51 561.83,59.61 562.51,59.71 563.19,59.81 563.88,59.89 564.56,59.98 565.24,60.05 565.92,60.12 566.60,60.18 567.28,60.23 567.96,60.28 568.64,60.32 569.32,60.36 570.00,60.38 570.68,60.40 571.36,60.42 572.04,60.42 572.72,60.42 573.40,60.41 574.08,60.40 574.76,60.37 575.44,60.34 576.12,60.31 576.81,60.26 577.49,60.21 578.17,60.16 578.85,60.09 579.53,60.02 580.21,59.94 580.89,59.86 581.57,59.77 582.25,59.67 582.93,59.57 583.61,59.46 584.29,59.35 584.97,59.23 585.65,59.10 586.33,58.97 587.01,58.84 587.69,58.70 588.38,58.55 589.06,58.40 589.74,58.25 590.42,58.09 591.10,57.93 591.78,57.76 592.46,57.59 593.14,57.42 593.82,57.24 594.50,57.07 595.18,56.89 595.86,56.70 596.54,56.52 597.22,56.33 597.90,56.14 598.58,55.95 599.26,55.76 599.94,55.57 600.62,55.38 601.31,55.18 601.99,54.99 602.67,54.80 603.35,54.61 604.03,54.42 604.71,54.23 605.39,54.04 606.07,53.85 606.75,53.67 607.43,53.49 608.11,53.31 608.79,53.13 609.47,52.95 610.15,52.78 610.83,52.61 611.51,52.45 612.19,52.29 612.88,52.13 613.56,51.98 614.24,51.83 614.92,51.68 615.60,51.55 616.28,51.41 616.96,51.28 617.64,51.16 618.32,51.04 619.00,50.93 619.68,50.82 620.36,50.72 621.04,50.63 621.72,50.54 622.40,50.46 623.08,50.38 623.76,50.31 624.44,50.25 625.12,50.19 625.81,50.15 626.49,50.10 627.17,50.07 627.85,50.04 628.53,50.02 629.21,50.01 629.89,50.00 630.57,50.00 631.25,50.01 631.93,50.02 632.61,50.05 633.29,50.07 633.97,50.11 634.65,50.15 635.33,50.20 636.01,50.26 636.69,50.32 637.38,50.39 638.06,50.47 638.74,50.55 639.42,50.64 640.10,50.74 640.78,50.84 641.46,50.95 642.14,51.06 642.82,51.18 643.50,51.30 644.18,51.43 644.86,51.57 645.54,51.71 646.22,51.85 646.90,52.00 647.58,52.15 648.26,52.31 648.94,52.47 649.62,52.64 650.31,52.81 650.99,52.98 651.67,53.16 652.35,53.33 653.03,53.51 653.71,53.70 654.39,53.88 655.07,54.07 655.75,54.26 656.43,54.45 657.11,54.64 657.79,54.83 658.47,55.02 659.15,55.21 659.83,55.41 660.51,55.60 661.19,55.79 661.88,55.98 662.56,56.17 663.24,56.36 663.92,56.55 664.60,56.73 665.28,56.91 665.96,57.09 666.64,57.27 667.32,57.45 668.00,57.62 668.68,57.79 669.36,57.95 670.04,58.11 670.72,58.27 671.40,58.43 672.08,58.58 672.76,58.72 673.44,58.86 674.13,58.99 674.81,59.12 675.49,59.25 676.17,59.37 676.85,59.48 677.53,59.59 678.21,59.69 678.89,59.78 679.57,59.87 680.25,59.96 680.93,60.03 681.61,60.10 682.29,60.16 682.97,60.22 683.65,60.27 684.33,60.31 685.01,60.35 685.69,60.38 686.38,60.40 687.06,60.41 687.74,60.42 688.42,60.42 689.10,60.41 689.78,60.40 690.46,60.38 691.14,60.35 691.82,60.32 692.50,60.27 693.18,60.23 693.86,60.17 694.54,60.11 695.22,60.04 695.90,59.96 696.58,59.88 697.26,59.79 697.94,59.70 698.62,59.60 699.31,59.49 699.99,59.38 700.67,59.26 701.35,59.14 702.03,59.01 702.71,58.87 703.39,58.73 704.07,58.59 704.75,58.44 705.43,58.29 706.11,58.13 706.79,57.97 707.47,57.80 708.15,57.63 708.83,57.46 709.51,57.29 710.19,57.11 710.87,56.93 711.56,56.75 712.24,56.56 712.92,56.38 713.60,56.19 714.28,56.00 714.96,55.81 715.64,55.62 716.32,55.42 717.00,55.23 717.68,55.04 718.36,54.85 719.04,54.66 719.72,54.47 720.40,54.28 721.08,54.09 721.76,53.90 722.44,53.71 723.12,53.53 723.81,53.35 724.49,53.17 725.17,53.00 725.85,52.82 726.53,52.65 727.21,52.49 727.89,52.33 728.57,52.17 729.25,52.01 729.93,51.87 730.61,51.72 731.29,51.58 731.97,51.44 732.65,51.31 733.33,51.19 734.01,51.07 734.69,50.96 735.38,50.85 736.06,50.75 736.74,50.65 737.42,50.56 738.10,50.48 738.78,50.40 739.46,50.33 740.14,50.26 740.82,50.21 741.50,50.16 742.18,50.11 742.86,50.08 743.54,50.05 744.22,50.03 744.90,50.01 745.58,50.00 746.26,50.00 746.94,50.01 747.62,50.02 748.31,50.04 748.99,50.07 749.67,50.10 750.35,50.14 751.03,50.19 751.71,50.24 752.39,50.31 753.07,50.37 753.75,50.45 754.43,50.53 755.11,50.62 755.79,50.71 756.47,50.81 757.15,50.92 757.83,51.03 758.51,51.15 759.19,51.27 759.88,51.40 760.56,51.53 761.24,51.67 761.92,51.82 762.60,51.96 763.28,52.12 763.96,52.27 764.64,52.43 765.32,52.60 766.00,52.77 766.68,52.94 767.36,53.11 768.04,53.29 768.72,53.47 769.40,53.65 770.08,53.84 770.76,54.02 771.44,54.21 772.12,54.40 772.81,54.59 773.49,54.78 774.17,54.97 774.85,55.17 775.53,55.36 776.21,55.55 776.89,55.74 777.57,55.93 778.25,56.12 778.93,56.31 779.61,56.50 780.29,56.68 780.97,56.87 781.65,57.05 782.33,57.23 783.01,57.40 783.69,57.58 784.38,57.75 785.06,57.91 785.74,58.08 786.42,58.23 787.10,58.39 787.78,58.54 788.46,58.68 789.14,58.83 789.82,58.96 790.50,59.09 791.18,59.22 791.86,59.34 792.54,59.45 793.22,59.56 793.90,59.66 794.58,59.76 795.26,59.85 795.94,59.94 796.63,60.01 797.31,60.09 797.99,60.15 798.67,60.21 799.35,60.26 800.03,60.30 800.71,60.34 801.39,60.37 802.07,60.39 802.75,60.41 803.43,60.42 804.11,60.42 804.79,60.42 805.47,60.40 806.15,60.39 806.83,60.36 807.51,60.33 808.19,60.29 808.88,60.24 809.56,60.18 810.24,60.12 810.92,60.06 811.60,59.98 812.28,59.90 812.96,59.82 813.64,59.72 814.32,59.62 815.00,59.52 815.68,59.41 816.36,59.29 817.04,59.17 817.72,59.04 818.40,58.91 819.08,58.77 819.76,58.62 820.44,58.48 821.12,58.33 821.81,58.17 822.49,58.01 823.17,57.84 823.85,57.68 824.53,57.51 825.21,57.33 825.89,57.15 826.57,56.97 827.25,56.79 827.93,56.61 828.61,56.42 829.29,56.23 829.97,56.05 830.65,55.85 831.33,55.66 832.01,55.47 832.69,55.28 833.37,55.09 834.06,54.89 834.74,54.70 835.42,54.51 836.10,54.32 836.78,54.13 837.46,53.95 838.14,53.76 838.82,53.58 839.50,53.40 840.18,53.22 840.86,53.04 841.54,52.87 842.22,52.70 842.90,52.53 843.58,52.37 844.26,52.21 844.94,52.05 845.62,51.90 846.31,51.76 846.99,51.61 847.67,51.48 848.35,51.35 849.03,51.22 849.71,51.10 850.39,50.98 851.07,50.87 851.75,50.77 852.43,50.67 853.11,50.58 853.79,50.50 854.47,50.42 855.15,50.35 855.83,50.28 856.51,50.22 857.19,50.17 857.88,50.12 858.56,50.09 859.24,50.05 859.92,50.03 860.60,50.01 861.28,50.00 861.96,50.00 862.64,50.00 863.32,50.02 864.00,50.03 864.68,50.06 865.36,50.09 866.04,50.13 866.72,50.18 867.40,50.23 868.08,50.29 868.76,50.36 869.44,50.43 870.12,50.51 870.81,50.60 871.49,50.69 872.17,50.79 872.85,50.89 873.53,51.00 874.21,51.12 874.89,51.24 875.57,51.37 876.25,51.50 876.93,51.64 877.61,51.78 878.29,51.93 878.97,52.08 879.65,52.23 880.33,52.39 881.01,52.56 881.69,52.72 882.38,52.89 883.06,53.07 883.74,53.25 884.42,53.42 885.10,53.61 885.78,53.79 886.46,53.98 887.14,54.16 887.82,54.35 888.50,54.54 889.18,54.73 889.86,54.93 890.54,55.12 891.22,55.31 891.90,55.50 892.58,55.70 893.26,55.89 893.94,56.08 894.62,56.27 895.31,56.45 895.99,56.64 896.67,56.82 897.35,57.00 898.03,57.18 898.71,57.36 899.39,57.53 900.07,57.70 900.75,57.87 901.43,58.04 902.11,58.19 902.79,58.35 903.47,58.50 904.15,58.65 904.83,58.79 905.51,58.93 906.19,59.06 906.88,59.19 907.56,59.31 908.24,59.42 908.92,59.54 909.60,59.64 910.28,59.74 910.96,59.83 911.64,59.92 912.32,60.00 913.00,60.07 913.68,60.13 914.36,60.19 915.04,60.25 915.72,60.29 916.40,60.33 917.08,60.36 917.76,60.39 918.44,60.41 919.13,60.42 919.81,60.42 920.49,60.42 921.17,60.41 921.85,60.39 922.53,60.37 923.21,60.33 923.89,60.30 924.57,60.25 925.25,60.20 925.93,60.14 926.61,60.07 927.29,60.00 927.97,59.92 928.65,59.84 929.33,59.75 930.01,59.65 930.69,59.54 931.38,59.43 932.06,59.32 932.74,59.20 933.42,59.07 934.10,58.94 934.78,58.80 935.46,58.66 936.14,58.51 936.82,58.36 937.50,58.21 938.18,58.05 938.86,57.89 939.54,57.72 940.22,57.55 940.90,57.37 941.58,57.20 942.26,57.02 942.94,56.84 943.62,56.65 944.31,56.47 944.99,56.28 945.67,56.09 946.35,55.90 947.03,55.71 947.71,55.52 948.39,55.33 949.07,55.13 949.75,54.94 950.43,54.75 951.11,54.56 951.79,54.37 952.47,54.18 953.15,53.99 953.83,53.81 954.51,53.62 955.19,53.44 955.87,53.26 956.56,53.08 957.24,52.91 957.92,52.74 958.60,52.57 959.28,52.41 959.96,52.25 960.64,52.09 961.32,51.94 962.00,51.79 962.68,51.65 963.36,51.51 964.04,51.38 964.72,51.25 965.40,51.13 966.08,51.01 966.76,50.90 967.44,50.80 968.12,50.70 968.81,50.60 969.49,50.52 970.17,50.44 970.85,50.36 971.53,50.30 972.21,50.23 972.89,50.18 973.57,50.13 974.25,50.09 974.93,50.06 975.61,50.04 976.29,50.02 976.97,50.00 977.65,50.00 978.33,50.00 979.01,50.01 979.69,50.03 980.38,50.05 981.06,50.08 981.74,50.12 982.42,50.16 983.10,50.22 983.78,50.27 984.46,50.34 985.14,50.41 985.82,50.49 986.50,50.57 987.18,50.66 987.86,50.76 988.54,50.86 989.22,50.97 989.90,51.09 990.58,51.21 991.26,51.33 991.94,51.47 992.62,51.60 993.31,51.74 993.99,51.89 994.67,52.04 995.35,52.19 996.03,52.35 996.71,52.52 997.39,52.68 998.07,52.85 998.75,53.03 999.43,53.20 1000.11,53.38 1000.79,53.56 1001.47,53.75 1002.15,53.93 1002.83,54.12 1003.51,54.31 1004.19,54.50 1004.88,54.69 1005.56,54.88 1006.24,55.07 1006.92,55.26 1007.60,55.46 1008.28,55.65 1008.96,55.84 1009.64,56.03 1010.32,56.22 1011.00,56.41 1011.68,56.59 1012.36,56.78 1013.04,56.96 1013.72,57.14 1014.40,57.32 1015.08,57.49 1015.76,57.66 1016.44,57.83 1017.12,58.00 1017.81,58.16 1018.49,58.31 1019.17,58.46 1019.85,58.61 1020.53,58.76 1021.21,58.89 1021.89,59.03 1022.57,59.16 1023.25,59.28 1023.93,59.40 1024.61,59.51 1025.29,59.61 1025.97,59.71 1026.65,59.81 1027.33,59.90 1028.01,59.98 1028.69,60.05 1029.38,60.12 1030.06,60.18 1030.74,60.23 1031.42,60.28 1032.10,60.32 1032.78,60.36 1033.46,60.38 1034.14,60.40 1034.82,60.42 1035.50,60.42 1036.18,60.42 1036.86,60.41 1037.54,60.40 1038.22,60.37 1038.90,60.34 1039.58,60.31 1040.26,60.26 1040.94,60.21 1041.62,60.15 1042.31,60.09 1042.99,60.02 1043.67,59.94 1044.35,59.86 1045.03,59.77 1045.71,59.67 1046.39,59.57 1047.07,59.46 1047.75,59.35 1048.43,59.23 1049.11,59.10 1049.79,58.97 1050.47,58.84 1051.15,58.70 1051.83,58.55 1052.51,58.40 1053.19,58.25 1053.88,58.09 1054.56,57.93 1055.24,57.76 1055.92,57.59 1056.60,57.42 1057.28,57.24 1057.96,57.06 1058.64,56.88 1059.32,56.70 1060.00,56.51" fill="none" stroke="#dc2626" stroke-width="3" stroke-linejoin="round" stroke-linecap="round"/>
<rect x="870" y="90" width="18" height="4" fill="#dc2626"/>
<text x="898" y="95" font-family="Arial, sans-serif" font-size="15" fill="#111827">small_angle</text>
</svg>
