<svg xmlns="http://www.w3.org/2000/svg" width="1100" height="700" viewBox="0 0 1100 700">
<rect width="100%" height="100%" fill="#f8fafc"/>
<text x="80" y="32" font-family="Arial, sans-serif" font-size="24" fill="#111827">Pendulum Angle</text>
<line x1="80.00" y1="620.00" x2="1060.00" y2="620.00" stroke="#374151" stroke-width="2"/>
<line x1="80.00" y1="620.00" x2="80.00" y2="50.00" stroke="#374151" stroke-width="2"/>
<text x="550.00" y="672" text-anchor="middle" font-family="Arial, sans-serif" font-size="16" fill="#374151">time (s)</text>
<text x="22" y="350.00" text-anchor="middle" transform="rotate(-90 22 350.00)" font-family="Arial, sans-serif" font-size="16" fill="#374151">angle (rad)</text>
<text x="80" y="646" font-family="Arial, sans-serif" font-size="13" fill="#6b7280">0.00</text>
<text x="1060" y="646" text-anchor="end" font-family="Arial, sans-serif" font-size="13" fill="#6b7280">12.00</text>
<text x="68" y="620.00" text-anchor="end" dominant-baseline="middle" font-family="Arial, sans-serif" font-size="13" fill="#6b7280">-1.05</text>
<text x="68" y="50.00" text-anchor="end" dominant-baseline="middle" font-family="Arial, sans-serif" font-size="13" fill="#6b7280">1.05</text>
<polyline points="80.00,50.01 80.68,50.09 81.36,50.25 82.04,50.49 82.72,50.81 83.40,51.22 84.08,51.70 84.76,52.26 85.44,52.90 86.12,53.62 86.81,54.42 87.49,55.30 88.17,56.26 88.85,57.30 89.53,58.41 90.21,59.61 90.89,60.88 91.57,62.24 92.25,63.67 92.93,65.18 93.61,66.76 94.29,68.43 94.97,70.17 95.65,71.98 96.33,73.88 97.01,75.85 97.69,77.89 98.38,80.01 99.06,82.21 99.74,84.48 100.42,86.82 101.10,89.23 101.78,91.72 102.46,94.28 103.14,96.92 103.82,99.62 104.50,102.39 105.18,105.24 105.86,108.15 106.54,111.13 107.22,114.18 107.90,117.30 108.58,120.48 109.26,123.73 109.94,127.05 110.62,130.43 111.31,133.87 111.99,137.37 112.67,140.94 113.35,144.56 114.03,148.25 114.71,151.99 115.39,155.80 116.07,159.65 116.75,163.57 117.43,167.54 118.11,171.56 118.79,175.64 119.47,179.76 120.15,183.94 120.83,188.16 121.51,192.44 122.19,196.76 122.88,201.12 123.56,205.53 124.24,209.98 124.92,214.47 125.60,219.00 126.28,223.57 126.96,228.18 127.64,232.82 128.32,237.50 129.00,242.20 129.68,246.94 130.36,251.71 131.04,256.51 131.72,261.33 132.40,266.18 133.08,271.05 133.76,275.94 134.44,280.86 135.12,285.79 135.81,290.73 136.49,295.70 137.17,300.67 137.85,305.66 138.53,310.66 139.21,315.66 139.89,320.68 140.57,325.69 141.25,330.71 141.93,335.74 142.61,340.76 143.29,345.78 143.97,350.79 144.65,355.80 145.33,360.81 146.01,365.80 146.69,370.79 147.38,375.76 148.06,380.72 148.74,385.66 149.42,390.59 150.10,395.49 150.78,400.38 151.46,405.24 152.14,410.08 152.82,414.90 153.50,419.69 154.18,424.45 154.86,429.18 155.54,433.88 156.22,438.54 156.90,443.18 157.58,447.77 158.26,452.33 158.94,456.85 159.62,461.33 160.31,465.77 160.99,470.16 161.67,474.51 162.35,478.82 163.03,483.08 163.71,487.29 164.39,491.45 165.07,495.56 165.75,499.62 166.43,503.63 167.11,507.58 167.79,511.48 168.47,515.33 169.15,519.11 169.83,522.84 170.51,526.51 171.19,530.12 171.88,533.66 172.56,537.15 173.24,540.57 173.92,543.93 174.60,547.23 175.28,550.46 175.96,553.62 176.64,556.72 177.32,559.75 178.00,562.71 178.68,565.60 179.36,568.43 180.04,571.18 180.72,573.86 181.40,576.48 182.08,579.02 182.76,581.48 183.44,583.88 184.12,586.20 184.81,588.45 185.49,590.62 186.17,592.72 186.85,594.74 187.53,596.69 188.21,598.56 188.89,600.35 189.57,602.07 190.25,603.71 190.93,605.27 191.61,606.76 192.29,608.17 192.97,609.50 193.65,610.75 194.33,611.92 195.01,613.02 195.69,614.03 196.38,614.97 197.06,615.83 197.74,616.60 198.42,617.30 199.10,617.92 199.78,618.45 200.46,618.91 201.14,619.29 201.82,619.59 202.50,619.80 203.18,619.94 203.86,620.00 204.54,619.97 205.22,619.87 205.90,619.69 206.58,619.42 207.26,619.08 207.94,618.65 208.62,618.15 209.31,617.57 209.99,616.90 210.67,616.16 211.35,615.33 212.03,614.43 212.71,613.45 213.39,612.39 214.07,611.25 214.75,610.03 215.43,608.73 216.11,607.35 216.79,605.90 217.47,604.37 218.15,602.76 218.83,601.07 219.51,599.31 220.19,597.47 220.88,595.56 221.56,593.56 222.24,591.50 222.92,589.36 223.60,587.14 224.28,584.85 224.96,582.48 225.64,580.05 226.32,577.54 227.00,574.96 227.68,572.30 228.36,569.58 229.04,566.78 229.72,563.92 230.40,560.99 231.08,557.98 231.76,554.91 232.44,551.78 233.12,548.57 233.81,545.31 234.49,541.97 235.17,538.58 235.85,535.12 236.53,531.59 237.21,528.01 237.89,524.37 238.57,520.66 239.25,516.90 239.93,513.08 240.61,509.21 241.29,505.28 241.97,501.29 242.65,497.25 243.33,493.16 244.01,489.02 244.69,484.83 245.37,480.59 246.06,476.31 246.74,471.97 247.42,467.60 248.10,463.18 248.78,458.71 249.46,454.21 250.14,449.67 250.82,445.09 251.50,440.47 252.18,435.82 252.86,431.13 253.54,426.41 254.22,421.67 254.90,416.89 255.58,412.08 256.26,407.25 256.94,402.40 257.62,397.52 258.31,392.62 258.99,387.71 259.67,382.77 260.35,377.82 261.03,372.85 261.71,367.87 262.39,362.88 263.07,357.88 263.75,352.87 264.43,347.86 265.11,342.84 265.79,337.82 266.47,332.80 267.15,327.78 267.83,322.76 268.51,317.74 269.19,312.73 269.88,307.73 270.56,302.74 271.24,297.76 271.92,292.79 272.60,287.84 273.28,282.90 273.96,277.98 274.64,273.08 275.32,268.20 276.00,263.34 276.68,258.51 277.36,253.70 278.04,248.92 278.72,244.17 279.40,239.44 280.08,234.75 280.76,230.10 281.44,225.48 282.12,220.89 282.81,216.34 283.49,211.84 284.17,207.37 284.85,202.94 285.53,198.56 286.21,194.22 286.89,189.93 287.57,185.69 288.25,181.49 288.93,177.34 289.61,173.24 290.29,169.20 290.97,165.21 291.65,161.27 292.33,157.39 293.01,153.56 293.69,149.79 294.38,146.08 295.06,142.43 295.74,138.84 296.42,135.31 297.10,131.85 297.78,128.44 298.46,125.10 299.14,121.82 299.82,118.61 300.50,115.47 301.18,112.39 301.86,109.38 302.54,106.44 303.22,103.56 303.90,100.76 304.58,98.03 305.26,95.37 305.94,92.78 306.62,90.26 307.31,87.81 307.99,85.44 308.67,83.14 309.35,80.91 310.03,78.76 310.71,76.69 311.39,74.69 312.07,72.76 312.75,70.91 313.43,69.14 314.11,67.44 314.79,65.83 315.47,64.28 316.15,62.82 316.83,61.44 317.51,60.13 318.19,58.90 318.88,57.75 319.56,56.68 320.24,55.69 320.92,54.77 321.60,53.94 322.28,53.19 322.96,52.51 323.64,51.92 324.32,51.41 325.00,50.97 325.68,50.62 326.36,50.34 327.04,50.15 327.72,50.04 328.40,50.00 329.08,50.05 329.76,50.18 330.44,50.38 331.12,50.67 331.81,51.04 332.49,51.49 333.17,52.01 333.85,52.62 334.53,53.31 335.21,54.08 335.89,54.92 336.57,55.85 337.25,56.86 337.93,57.94 338.61,59.10 339.29,60.35 339.97,61.67 340.65,63.07 341.33,64.54 342.01,66.10 342.69,67.73 343.38,69.44 344.06,71.22 344.74,73.08 345.42,75.02 346.10,77.04 346.78,79.12 347.46,81.29 348.14,83.53 348.82,85.84 349.50,88.22 350.18,90.68 350.86,93.21 351.54,95.82 352.22,98.49 352.90,101.23 353.58,104.05 354.26,106.93 354.94,109.89 355.62,112.91 356.31,116.00 356.99,119.16 357.67,122.38 358.35,125.66 359.03,129.02 359.71,132.43 360.39,135.91 361.07,139.45 361.75,143.05 362.43,146.71 363.11,150.43 363.79,154.21 364.47,158.05 365.15,161.94 365.83,165.89 366.51,169.89 367.19,173.94 367.88,178.04 368.56,182.20 369.24,186.41 369.92,190.66 370.60,194.96 371.28,199.30 371.96,203.69 372.64,208.13 373.32,212.60 374.00,217.12 374.68,221.67 375.36,226.26 376.04,230.89 376.72,235.55 377.40,240.25 378.08,244.97 378.76,249.73 379.44,254.52 380.12,259.33 380.81,264.17 381.49,269.03 382.17,273.91 382.85,278.82 383.53,283.74 384.21,288.68 384.89,293.64 385.57,298.61 386.25,303.59 386.93,308.58 387.61,313.59 388.29,318.60 388.97,323.61 389.65,328.63 390.33,333.65 391.01,338.68 391.69,343.70 392.38,348.71 393.06,353.73 393.74,358.73 394.42,363.73 395.10,368.72 395.78,373.70 396.46,378.66 397.14,383.61 397.82,388.55 398.50,393.46 399.18,398.36 399.86,403.23 400.54,408.08 401.22,412.91 401.90,417.71 402.58,422.48 403.26,427.22 403.94,431.93 404.62,436.61 405.31,441.26 405.99,445.87 406.67,450.44 407.35,454.98 408.03,459.48 408.71,463.93 409.39,468.35 410.07,472.72 410.75,477.04 411.43,481.32 412.11,485.55 412.79,489.73 413.47,493.86 414.15,497.95 414.83,501.98 415.51,505.95 416.19,509.87 416.88,513.74 417.56,517.55 418.24,521.30 418.92,524.99 419.60,528.63 420.28,532.20 420.96,535.71 421.64,539.16 422.32,542.55 423.00,545.87 423.68,549.13 424.36,552.32 425.04,555.44 425.72,558.50 426.40,561.49 427.08,564.41 427.76,567.26 428.44,570.05 429.12,572.76 429.81,575.40 430.49,577.97 431.17,580.47 431.85,582.89 432.53,585.24 433.21,587.52 433.89,589.73 434.57,591.86 435.25,593.91 435.93,595.89 436.61,597.79 437.29,599.62 437.97,601.37 438.65,603.04 439.33,604.64 440.01,606.15 440.69,607.59 441.37,608.96 442.06,610.24 442.74,611.45 443.42,612.57 444.10,613.62 444.78,614.59 445.46,615.48 446.14,616.29 446.82,617.02 447.50,617.67 448.18,618.24 448.86,618.73 449.54,619.14 450.22,619.47 450.90,619.72 451.58,619.89 452.26,619.98 452.94,619.99 453.63,619.92 454.31,619.77 454.99,619.54 455.67,619.23 456.35,618.84 457.03,618.37 457.71,617.82 458.39,617.19 459.07,616.48 459.75,615.68 460.43,614.81 461.11,613.87 461.79,612.84 462.47,611.73 463.15,610.54 463.83,609.28 464.51,607.93 465.19,606.51 465.88,605.01 466.56,603.44 467.24,601.78 467.92,600.05 468.60,598.24 469.28,596.36 469.96,594.40 470.64,592.36 471.32,590.25 472.00,588.07 472.68,585.81 473.36,583.47 474.04,581.07 474.72,578.59 475.40,576.04 476.08,573.41 476.76,570.72 477.44,567.95 478.12,565.12 478.81,562.21 479.49,559.24 480.17,556.20 480.85,553.09 481.53,549.91 482.21,546.67 482.89,543.36 483.57,539.99 484.25,536.56 484.93,533.06 485.61,529.50 486.29,525.89 486.97,522.21 487.65,518.47 488.33,514.67 489.01,510.82 489.69,506.91 490.38,502.95 491.06,498.94 491.74,494.87 492.42,490.75 493.10,486.58 493.78,482.36 494.46,478.09 495.14,473.78 495.82,469.42 496.50,465.01 497.18,460.57 497.86,456.08 498.54,451.56 499.22,446.99 499.90,442.39 500.58,437.75 501.26,433.08 501.94,428.38 502.62,423.64 503.31,418.87 503.99,414.08 504.67,409.26 505.35,404.42 506.03,399.55 506.71,394.66 507.39,389.75 508.07,384.82 508.75,379.87 509.43,374.91 510.11,369.94 510.79,364.95 511.47,359.96 512.15,354.95 512.83,349.94 513.51,344.92 514.19,339.90 514.88,334.88 515.56,329.86 516.24,324.84 516.92,319.82 517.60,314.81 518.28,309.81 518.96,304.81 519.64,299.82 520.32,294.85 521.00,289.89 521.68,284.94 522.36,280.02 523.04,275.11 523.72,270.22 524.40,265.35 525.08,260.51 525.76,255.69 526.44,250.90 527.12,246.13 527.81,241.40 528.49,236.70 529.17,232.03 529.85,227.39 530.53,222.79 531.21,218.23 531.89,213.70 532.57,209.22 533.25,204.77 533.93,200.37 534.61,196.02 535.29,191.71 535.97,187.44 536.65,183.22 537.33,179.06 538.01,174.94 538.69,170.87 539.38,166.86 540.06,162.90 540.74,158.99 541.42,155.14 542.10,151.35 542.78,147.62 543.46,143.94 544.14,140.32 544.82,136.77 545.50,133.28 546.18,129.85 546.86,126.48 547.54,123.17 548.22,119.94 548.90,116.76 549.58,113.66 550.26,110.62 550.94,107.65 551.62,104.75 552.31,101.92 552.99,99.15 553.67,96.46 554.35,93.84 555.03,91.29 555.71,88.82 556.39,86.41 557.07,84.08 557.75,81.83 558.43,79.65 559.11,77.54 559.79,75.51 560.47,73.55 561.15,71.67 561.83,69.87 562.51,68.14 563.19,66.49 563.88,64.91 564.56,63.42 565.24,62.00 565.92,60.66 566.60,59.40 567.28,58.22 567.96,57.11 568.64,56.09 569.32,55.14 570.00,54.28 570.68,53.49 571.36,52.78 572.04,52.16 572.72,51.61 573.40,51.14 574.08,50.75 574.76,50.45 575.44,50.22 576.12,50.07 576.81,50.01 577.49,50.02 578.17,50.11 578.85,50.29 579.53,50.54 580.21,50.88 580.89,51.29 581.57,51.79 582.25,52.36 582.93,53.02 583.61,53.75 584.29,54.56 584.97,55.46 585.65,56.43 586.33,57.48 587.01,58.61 587.69,59.82 588.38,61.11 589.06,62.48 589.74,63.92 590.42,65.44 591.10,67.04 591.78,68.72 592.46,70.47 593.14,72.30 593.82,74.21 594.50,76.19 595.18,78.25 595.86,80.38 596.54,82.59 597.22,84.87 597.90,87.22 598.58,89.65 599.26,92.15 599.94,94.73 600.62,97.37 601.31,100.09 601.99,102.87 602.67,105.73 603.35,108.65 604.03,111.65 604.71,114.71 605.39,117.84 606.07,121.03 606.75,124.29 607.43,127.62 608.11,131.01 608.79,134.46 609.47,137.97 610.15,141.55 610.83,145.19 611.51,148.88 612.19,152.64 612.88,156.45 613.56,160.32 614.24,164.24 614.92,168.22 615.60,172.25 616.28,176.34 616.96,180.47 617.64,184.66 618.32,188.89 619.00,193.17 619.68,197.50 620.36,201.87 621.04,206.28 621.72,210.74 622.40,215.24 623.08,219.78 623.76,224.35 624.44,228.97 625.12,233.61 625.81,238.30 626.49,243.01 627.17,247.75 627.85,252.53 628.53,257.33 629.21,262.16 629.89,267.01 630.57,271.88 631.25,276.78 631.93,281.70 632.61,286.63 633.29,291.58 633.97,296.54 634.65,301.52 635.33,306.51 636.01,311.51 636.69,316.52 637.38,321.53 638.06,326.55 638.74,331.57 639.42,336.59 640.10,341.61 640.78,346.63 641.46,351.65 642.14,356.66 642.82,361.66 643.50,366.65 644.18,371.64 644.86,376.61 645.54,381.56 646.22,386.50 646.90,391.42 647.58,396.33 648.26,401.21 648.94,406.07 649.62,410.91 650.31,415.72 650.99,420.50 651.67,425.26 652.35,429.98 653.03,434.68 653.71,439.34 654.39,443.96 655.07,448.55 655.75,453.10 656.43,457.62 657.11,462.09 657.79,466.52 658.47,470.91 659.15,475.25 659.83,479.55 660.51,483.80 661.19,488.00 661.88,492.16 662.56,496.26 663.24,500.31 663.92,504.31 664.60,508.25 665.28,512.14 665.96,515.97 666.64,519.75 667.32,523.47 668.00,527.13 668.68,530.72 669.36,534.26 670.04,537.74 670.72,541.15 671.40,544.50 672.08,547.78 672.76,551.00 673.44,554.15 674.13,557.24 674.81,560.26 675.49,563.21 676.17,566.09 676.85,568.90 677.53,571.64 678.21,574.31 678.89,576.91 679.57,579.44 680.25,581.90 680.93,584.28 681.61,586.59 682.29,588.82 682.97,590.98 683.65,593.07 684.33,595.08 685.01,597.01 685.69,598.87 686.38,600.65 687.06,602.36 687.74,603.98 688.42,605.53 689.10,607.01 689.78,608.40 690.46,609.72 691.14,610.96 691.82,612.12 692.50,613.20 693.18,614.20 693.86,615.12 694.54,615.96 695.22,616.73 695.90,617.41 696.58,618.01 697.26,618.54 697.94,618.98 698.62,619.35 699.31,619.63 699.99,619.83 700.67,619.96 701.35,620.00 702.03,619.96 702.71,619.85 703.39,619.65 704.07,619.37 704.75,619.01 705.43,618.57 706.11,618.06 706.79,617.46 707.47,616.78 708.15,616.02 708.83,615.19 709.51,614.27 710.19,613.27 710.87,612.20 711.56,611.04 712.24,609.81 712.92,608.50 713.60,607.11 714.28,605.64 714.96,604.10 715.64,602.48 716.32,600.78 717.00,599.00 717.68,597.15 718.36,595.22 719.04,593.22 719.72,591.14 720.40,588.98 721.08,586.75 721.76,584.45 722.44,582.07 723.12,579.62 723.81,577.10 724.49,574.51 725.17,571.84 725.85,569.11 726.53,566.30 727.21,563.42 727.89,560.48 728.57,557.47 729.25,554.38 729.93,551.24 730.61,548.02 731.29,544.74 731.97,541.40 732.65,537.99 733.33,534.52 734.01,530.99 734.69,527.39 735.38,523.74 736.06,520.03 736.74,516.26 737.42,512.43 738.10,508.54 738.78,504.60 739.46,500.61 740.14,496.56 740.82,492.46 741.50,488.31 742.18,484.11 742.86,479.87 743.54,475.57 744.22,471.23 744.90,466.85 745.58,462.42 746.26,457.95 746.94,453.44 747.62,448.89 748.31,444.30 748.99,439.68 749.67,435.02 750.35,430.33 751.03,425.61 751.71,420.85 752.39,416.07 753.07,411.26 753.75,406.43 754.43,401.57 755.11,396.69 755.79,391.79 756.47,386.87 757.15,381.93 757.83,376.97 758.51,372.00 759.19,367.02 759.88,362.03 760.56,357.03 761.24,352.02 761.92,347.00 762.60,341.98 763.28,336.96 763.96,331.94 764.64,326.92 765.32,321.90 766.00,316.89 766.68,311.88 767.36,306.88 768.04,301.89 768.72,296.91 769.40,291.95 770.08,286.99 770.76,282.06 771.44,277.14 772.12,272.24 772.81,267.37 773.49,262.51 774.17,257.68 774.85,252.88 775.53,248.11 776.21,243.36 776.89,238.64 777.57,233.96 778.25,229.31 778.93,224.69 779.61,220.11 780.29,215.57 780.97,211.07 781.65,206.61 782.33,202.19 783.01,197.82 783.69,193.49 784.38,189.20 785.06,184.97 785.74,180.78 786.42,176.64 787.10,172.55 787.78,168.52 788.46,164.53 789.14,160.61 789.82,156.73 790.50,152.92 791.18,149.16 791.86,145.46 792.54,141.82 793.22,138.24 793.90,134.72 794.58,131.26 795.26,127.87 795.94,124.54 796.63,121.27 797.31,118.07 797.99,114.94 798.67,111.87 799.35,108.87 800.03,105.94 800.71,103.08 801.39,100.29 802.07,97.57 802.75,94.92 803.43,92.34 804.11,89.84 804.79,87.40 805.47,85.04 806.15,82.75 806.83,80.54 807.51,78.40 808.19,76.34 808.88,74.35 809.56,72.44 810.24,70.60 810.92,68.84 811.60,67.16 812.28,65.56 812.96,64.03 813.64,62.58 814.32,61.21 815.00,59.91 815.68,58.70 816.36,57.56 817.04,56.50 817.72,55.53 818.40,54.63 819.08,53.81 819.76,53.07 820.44,52.41 821.12,51.83 821.81,51.33 822.49,50.90 823.17,50.56 823.85,50.30 824.53,50.12 825.21,50.02 825.89,50.00 826.57,50.07 827.25,50.21 827.93,50.43 828.61,50.73 829.29,51.11 829.97,51.57 830.65,52.11 831.33,52.73 832.01,53.44 832.69,54.22 833.37,55.08 834.06,56.02 834.74,57.04 835.42,58.13 836.10,59.31 836.78,60.57 837.46,61.90 838.14,63.31 838.82,64.80 839.50,66.37 840.18,68.01 840.86,69.74 841.54,71.53 842.22,73.41 842.90,75.36 843.58,77.39 844.26,79.49 844.94,81.66 845.62,83.91 846.31,86.24 846.99,88.64 847.67,91.11 848.35,93.65 849.03,96.27 849.71,98.95 850.39,101.71 851.07,104.54 851.75,107.43 852.43,110.40 853.11,113.43 853.79,116.53 854.47,119.70 855.15,122.93 855.83,126.23 856.51,129.59 857.19,133.02 857.88,136.51 858.56,140.06 859.24,143.67 859.92,147.34 860.60,151.07 861.28,154.86 861.96,158.71 862.64,162.61 863.32,166.56 864.00,170.57 864.68,174.64 865.36,178.75 866.04,182.91 866.72,187.13 867.40,191.39 868.08,195.70 868.76,200.05 869.44,204.45 870.12,208.89 870.81,213.37 871.49,217.89 872.17,222.45 872.85,227.05 873.53,231.68 874.21,236.35 874.89,241.05 875.57,245.78 876.25,250.54 876.93,255.33 877.61,260.15 878.29,264.99 878.97,269.86 879.65,274.75 880.33,279.65 881.01,284.58 881.69,289.52 882.38,294.48 883.06,299.46 883.74,304.44 884.42,309.44 885.10,314.44 885.78,319.45 886.46,324.47 887.14,329.49 887.82,334.51 888.50,339.53 889.18,344.55 889.86,349.57 890.54,354.58 891.22,359.59 891.90,364.58 892.58,369.57 893.26,374.55 893.94,379.51 894.62,384.45 895.31,389.38 895.99,394.30 896.67,399.19 897.35,404.06 898.03,408.90 898.71,413.73 899.39,418.52 900.07,423.29 900.75,428.03 901.43,432.73 902.11,437.41 902.79,442.05 903.47,446.65 904.15,451.22 904.83,455.75 905.51,460.24 906.19,464.69 906.88,469.09 907.56,473.46 908.24,477.77 908.92,482.04 909.60,486.27 910.28,490.44 910.96,494.56 911.64,498.64 912.32,502.66 913.00,506.62 913.68,510.54 914.36,514.39 915.04,518.19 915.72,521.93 916.40,525.62 917.08,529.24 917.76,532.80 918.44,536.30 919.13,539.74 919.81,543.12 920.49,546.43 921.17,549.67 921.85,552.85 922.53,555.97 923.21,559.01 923.89,561.99 924.57,564.90 925.25,567.74 925.93,570.51 926.61,573.22 927.29,575.84 927.97,578.40 928.65,580.89 929.33,583.30 930.01,585.64 930.69,587.90 931.38,590.09 932.06,592.21 932.74,594.25 933.42,596.22 934.10,598.11 934.78,599.92 935.46,601.66 936.14,603.32 936.82,604.90 937.50,606.41 938.18,607.83 938.86,609.18 939.54,610.45 940.22,611.64 940.90,612.76 941.58,613.79 942.26,614.75 942.94,615.62 943.62,616.42 944.31,617.14 944.99,617.77 945.67,618.33 946.35,618.81 947.03,619.21 947.71,619.52 948.39,619.76 949.07,619.92 949.75,619.99 950.43,619.99 951.11,619.90 951.79,619.74 952.47,619.49 953.15,619.17 953.83,618.77 954.51,618.28 955.19,617.72 955.87,617.07 956.56,616.35 957.24,615.54 957.92,614.66 958.60,613.70 959.28,612.65 959.96,611.53 960.64,610.33 961.32,609.05 962.00,607.70 962.68,606.26 963.36,604.75 964.04,603.16 964.72,601.49 965.40,599.75 966.08,597.93 966.76,596.03 967.44,594.06 968.12,592.01 968.81,589.89 969.49,587.69 970.17,585.42 970.85,583.07 971.53,580.65 972.21,578.16 972.89,575.59 973.57,572.96 974.25,570.25 974.93,567.47 975.61,564.63 976.29,561.71 976.97,558.72 977.65,555.67 978.33,552.55 979.01,549.36 979.69,546.11 980.38,542.79 981.06,539.41 981.74,535.97 982.42,532.46 983.10,528.89 983.78,525.26 984.46,521.57 985.14,517.83 985.82,514.02 986.50,510.16 987.18,506.24 987.86,502.27 988.54,498.25 989.22,494.17 989.90,490.04 990.58,485.86 991.26,481.63 991.94,477.36 992.62,473.04 993.31,468.67 993.99,464.26 994.67,459.81 995.35,455.31 996.03,450.78 996.71,446.21 997.39,441.60 998.07,436.96 998.75,432.28 999.43,427.57 1000.11,422.83 1000.79,418.06 1001.47,413.26 1002.15,408.44 1002.83,403.59 1003.51,398.72 1004.19,393.82 1004.88,388.91 1005.56,383.98 1006.24,379.03 1006.92,374.06 1007.60,369.09 1008.28,364.10 1008.96,359.10 1009.64,354.10 1010.32,349.08 1011.00,344.07 1011.68,339.05 1012.36,334.02 1013.04,329.00 1013.72,323.98 1014.40,318.97 1015.08,313.96 1015.76,308.95 1016.44,303.96 1017.12,298.97 1017.81,294.00 1018.49,289.05 1019.17,284.10 1019.85,279.18 1020.53,274.27 1021.21,269.39 1021.89,264.52 1022.57,259.68 1023.25,254.87 1023.93,250.08 1024.61,245.32 1025.29,240.59 1025.97,235.90 1026.65,231.23 1027.33,226.60 1028.01,222.01 1028.69,217.45 1029.38,212.93 1030.06,208.46 1030.74,204.02 1031.42,199.63 1032.10,195.28 1032.78,190.97 1033.46,186.72 1034.14,182.51 1034.82,178.35 1035.50,174.24 1036.18,170.18 1036.86,166.18 1037.54,162.23 1038.22,158.33 1038.90,154.49 1039.58,150.71 1040.26,146.98 1040.94,143.32 1041.62,139.71 1042.31,136.17 1042.99,132.69 1043.67,129.27 1044.35,125.91 1045.03,122.62 1045.71,119.39 1046.39,116.23 1047.07,113.14 1047.75,110.11 1048.43,107.15 1049.11,104.26 1049.79,101.44 1050.47,98.69 1051.15,96.01 1051.83,93.40 1052.51,90.87 1053.19,88.40 1053.88,86.01 1054.56,83.69 1055.24,81.45 1055.92,79.28 1056.60,77.19 1057.28,75.17 1057.96,73.22 1058.64,71.36 1059.32,69.57 1060.00,67.85" fill="none" stroke="#2563eb" stroke-width="3" stroke-linejoin="round" stroke-linecap="round"/>
<rect x="870" y="62" width="18" height="4" fill="#2563eb"/>
<text x="898" y="67" font-family="Arial, sans-serif" font-size="15" fill="#111827">nonlinear</text>
<polyline points="80.00,50.01 80.68,50.11 81.36,50.30 82.04,50.59 82.72,50.98 83.40,51.47 84.08,52.05 84.76,52.72 85.44,53.50 86.12,54.37 86.81,55.33 87.49,56.39 88.17,57.55 88.85,58.80 89.53,60.14 90.21,61.58 90.89,63.11 91.57,64.73 92.25,66.45 92.93,68.25 93.61,70.15 94.29,72.14 94.97,74.21 95.65,76.38 96.33,78.63 97.01,80.97 97.69,83.40 98.38,85.92 99.06,88.51 99.74,91.20 100.42,93.96 101.10,96.81 101.78,99.74 102.46,102.74 103.14,105.83 103.82,109.00 104.50,112.24 105.18,115.56 105.86,118.95 106.54,122.42 107.22,125.96 107.90,129.57 108.58,133.25 109.26,136.99 109.94,140.81 110.62,144.69 111.31,148.64 111.99,152.65 112.67,156.72 113.35,160.86 114.03,165.05 114.71,169.30 115.39,173.61 116.07,177.97 116.75,182.38 117.43,186.85 118.11,191.37 118.79,195.93 119.47,200.55 120.15,205.21 120.83,209.91 121.51,214.66 122.19,219.45 122.88,224.27 123.56,229.14 124.24,234.04 124.92,238.97 125.60,243.94 126.28,248.94 126.96,253.97 127.64,259.02 128.32,264.11 129.00,269.21 129.68,274.34 130.36,279.49 131.04,284.65 131.72,289.84 132.40,295.04 133.08,300.25 133.76,305.48 134.44,310.71 135.12,315.96 135.81,321.21 136.49,326.46 137.17,331.72 137.85,336.98 138.53,342.24 139.21,347.50 139.89,352.75 140.57,357.99 141.25,363.23 141.93,368.46 142.61,373.68 143.29,378.88 143.97,384.07 144.65,389.24 145.33,394.39 146.01,399.53 146.69,404.64 147.38,409.73 148.06,414.79 148.74,419.82 149.42,424.83 150.10,429.80 150.78,434.75 151.46,439.66 152.14,444.53 152.82,449.37 153.50,454.16 154.18,458.92 154.86,463.64 155.54,468.31 156.22,472.93 156.90,477.51 157.58,482.04 158.26,486.52 158.94,490.95 159.62,495.32 160.31,499.64 160.99,503.91 161.67,508.12 162.35,512.26 163.03,516.35 163.71,520.38 164.39,524.34 165.07,528.24 165.75,532.07 166.43,535.84 167.11,539.53 167.79,543.16 168.47,546.72 169.15,550.20 169.83,553.61 170.51,556.95 171.19,560.21 171.88,563.40 172.56,566.50 173.24,569.53 173.92,572.48 174.60,575.35 175.28,578.13 175.96,580.83 176.64,583.45 177.32,585.99 178.00,588.44 178.68,590.80 179.36,593.07 180.04,595.26 180.72,597.36 181.40,599.37 182.08,601.29 182.76,603.12 183.44,604.86 184.12,606.50 184.81,608.05 185.49,609.51 186.17,610.88 186.85,612.15 187.53,613.33 188.21,614.42 188.89,615.40 189.57,616.30 190.25,617.09 190.93,617.80 191.61,618.40 192.29,618.91 192.97,619.32 193.65,619.64 194.33,619.85 195.01,619.98 195.69,620.00 196.38,619.93 197.06,619.76 197.74,619.49 198.42,619.13 199.10,618.66 199.78,618.11 200.46,617.45 201.14,616.70 201.82,615.86 202.50,614.92 203.18,613.88 203.86,612.75 204.54,611.52 205.22,610.20 205.90,608.79 206.58,607.28 207.26,605.68 207.94,603.99 208.62,602.20 209.31,600.33 209.99,598.36 210.67,596.31 211.35,594.17 212.03,591.93 212.71,589.61 213.39,587.21 214.07,584.72 214.75,582.14 215.43,579.48 216.11,576.73 216.79,573.91 217.47,571.00 218.15,568.01 218.83,564.94 219.51,561.79 220.19,558.57 220.88,555.27 221.56,551.90 222.24,548.45 222.92,544.93 223.60,541.34 224.28,537.67 224.96,533.94 225.64,530.14 226.32,526.28 227.00,522.34 227.68,518.35 228.36,514.29 229.04,510.17 229.72,506.00 230.40,501.76 231.08,497.47 231.76,493.12 232.44,488.72 233.12,484.26 233.81,479.75 234.49,475.20 235.17,470.60 235.85,465.95 236.53,461.26 237.21,456.52 237.89,451.74 238.57,446.93 239.25,442.07 239.93,437.18 240.61,432.25 241.29,427.29 241.97,422.30 242.65,417.28 243.33,412.23 244.01,407.16 244.69,402.06 245.37,396.93 246.06,391.79 246.74,386.63 247.42,381.44 248.10,376.25 248.78,371.04 249.46,365.82 250.14,360.58 250.82,355.34 251.50,350.09 252.18,344.84 252.86,339.58 253.54,334.32 254.22,329.06 254.90,323.81 255.58,318.55 256.26,313.30 256.94,308.07 257.62,302.83 258.31,297.61 258.99,292.41 259.67,287.21 260.35,282.04 261.03,276.88 261.71,271.74 262.39,266.62 263.07,261.53 263.75,256.46 264.43,251.42 265.11,246.41 265.79,241.42 266.47,236.47 267.15,231.55 267.83,226.67 268.51,221.83 269.19,217.02 269.88,212.25 270.56,207.53 271.24,202.85 271.92,198.21 272.60,193.62 273.28,189.08 273.96,184.58 274.64,180.14 275.32,175.75 276.00,171.42 276.68,167.14 277.36,162.92 278.04,158.76 278.72,154.65 279.40,150.61 280.08,146.63 280.76,142.72 281.44,138.87 282.12,135.09 282.81,131.37 283.49,127.73 284.17,124.16 284.85,120.65 285.53,117.22 286.21,113.87 286.89,110.59 287.57,107.39 288.25,104.26 288.93,101.21 289.61,98.24 290.29,95.36 290.97,92.55 291.65,89.83 292.33,87.19 293.01,84.63 293.69,82.16 294.38,79.78 295.06,77.48 295.74,75.27 296.42,73.15 297.10,71.12 297.78,69.18 298.46,67.33 299.14,65.57 299.82,63.90 300.50,62.32 301.18,60.84 301.86,59.45 302.54,58.15 303.22,56.95 303.90,55.85 304.58,54.83 305.26,53.92 305.94,53.10 306.62,52.37 307.31,51.74 307.99,51.21 308.67,50.77 309.35,50.43 310.03,50.19 310.71,50.05 311.39,50.00 312.07,50.05 312.75,50.20 313.43,50.44 314.11,50.78 314.79,51.22 315.47,51.75 316.15,52.38 316.83,53.10 317.51,53.93 318.19,54.84 318.88,55.86 319.56,56.97 320.24,58.17 320.92,59.47 321.60,60.86 322.28,62.34 322.96,63.92 323.64,65.59 324.32,67.35 325.00,69.20 325.68,71.14 326.36,73.18 327.04,75.30 327.72,77.51 328.40,79.81 329.08,82.19 329.76,84.66 330.44,87.22 331.12,89.86 331.81,92.58 332.49,95.39 333.17,98.28 333.85,101.25 334.53,104.30 335.21,107.42 335.89,110.63 336.57,113.91 337.25,117.26 337.93,120.69 338.61,124.20 339.29,127.77 339.97,131.42 340.65,135.13 341.33,138.92 342.01,142.77 342.69,146.68 343.38,150.66 344.06,154.70 344.74,158.81 345.42,162.97 346.10,167.19 346.78,171.47 347.46,175.81 348.14,180.19 348.82,184.64 349.50,189.13 350.18,193.67 350.86,198.26 351.54,202.90 352.22,207.58 352.90,212.31 353.58,217.08 354.26,221.88 354.94,226.73 355.62,231.61 356.31,236.53 356.99,241.48 357.67,246.47 358.35,251.48 359.03,256.52 359.71,261.59 360.39,266.68 361.07,271.80 361.75,276.94 362.43,282.10 363.11,287.28 363.79,292.47 364.47,297.68 365.15,302.90 365.83,308.13 366.51,313.37 367.19,318.61 367.88,323.87 368.56,329.12 369.24,334.38 369.92,339.64 370.60,344.90 371.28,350.15 371.96,355.40 372.64,360.64 373.32,365.88 374.00,371.10 374.68,376.31 375.36,381.51 376.04,386.69 376.72,391.85 377.40,396.99 378.08,402.12 378.76,407.21 379.44,412.29 380.12,417.34 380.81,422.36 381.49,427.35 382.17,432.31 382.85,437.24 383.53,442.13 384.21,446.98 384.89,451.80 385.57,456.58 386.25,461.31 386.93,466.00 387.61,470.65 388.29,475.25 388.97,479.81 389.65,484.31 390.33,488.77 391.01,493.17 391.69,497.52 392.38,501.81 393.06,506.04 393.74,510.22 394.42,514.34 395.10,518.40 395.78,522.39 396.46,526.32 397.14,530.19 397.82,533.98 398.50,537.72 399.18,541.38 399.86,544.97 400.54,548.49 401.22,551.94 401.90,555.31 402.58,558.61 403.26,561.83 403.94,564.98 404.62,568.04 405.31,571.03 405.99,573.94 406.67,576.77 407.35,579.51 408.03,582.17 408.71,584.75 409.39,587.24 410.07,589.64 410.75,591.96 411.43,594.19 412.11,596.33 412.79,598.39 413.47,600.35 414.15,602.23 414.83,604.01 415.51,605.70 416.19,607.30 416.88,608.80 417.56,610.22 418.24,611.54 418.92,612.76 419.60,613.89 420.28,614.93 420.96,615.87 421.64,616.71 422.32,617.46 423.00,618.11 423.68,618.67 424.36,619.13 425.04,619.49 425.72,619.76 426.40,619.93 427.08,620.00 427.76,619.97 428.44,619.85 429.12,619.63 429.81,619.32 430.49,618.90 431.17,618.39 431.85,617.79 432.53,617.09 433.21,616.29 433.89,615.39 434.57,614.40 435.25,613.32 435.93,612.14 436.61,610.87 437.29,609.50 437.97,608.04 438.65,606.48 439.33,604.84 440.01,603.10 440.69,601.27 441.37,599.35 442.06,597.34 442.74,595.24 443.42,593.05 444.10,590.77 444.78,588.41 445.46,585.96 446.14,583.42 446.82,580.80 447.50,578.10 448.18,575.31 448.86,572.44 449.54,569.50 450.22,566.47 450.90,563.36 451.58,560.17 452.26,556.91 452.94,553.57 453.63,550.16 454.31,546.68 454.99,543.12 455.67,539.49 456.35,535.79 457.03,532.03 457.71,528.19 458.39,524.29 459.07,520.33 459.75,516.30 460.43,512.22 461.11,508.07 461.79,503.86 462.47,499.59 463.15,495.27 463.83,490.90 464.51,486.47 465.19,481.99 465.88,477.46 466.56,472.88 467.24,468.25 467.92,463.58 468.60,458.87 469.28,454.11 469.96,449.31 470.64,444.47 471.32,439.60 472.00,434.69 472.68,429.75 473.36,424.77 474.04,419.76 474.72,414.73 475.40,409.67 476.08,404.58 476.76,399.47 477.44,394.33 478.12,389.18 478.81,384.01 479.49,378.82 480.17,373.61 480.85,368.40 481.53,363.17 482.21,357.93 482.89,352.69 483.57,347.43 484.25,342.18 484.93,336.92 485.61,331.66 486.29,326.40 486.97,321.15 487.65,315.90 488.33,310.65 489.01,305.42 489.69,300.19 490.38,294.98 491.06,289.78 491.74,284.59 492.42,279.43 493.10,274.28 493.78,269.15 494.46,264.05 495.14,258.96 495.82,253.91 496.50,248.88 497.18,243.88 497.86,238.92 498.54,233.98 499.22,229.08 499.90,224.22 500.58,219.39 501.26,214.60 501.94,209.86 502.62,205.15 503.31,200.49 503.99,195.88 504.67,191.31 505.35,186.80 506.03,182.33 506.71,177.92 507.39,173.55 508.07,169.25 508.75,165.00 509.43,160.81 510.11,156.67 510.79,152.60 511.47,148.59 512.15,144.65 512.83,140.76 513.51,136.95 514.19,133.20 514.88,129.52 515.56,125.91 516.24,122.38 516.92,118.91 517.60,115.52 518.28,112.20 518.96,108.96 519.64,105.79 520.32,102.71 521.00,99.70 521.68,96.77 522.36,93.93 523.04,91.16 523.72,88.48 524.40,85.89 525.08,83.37 525.76,80.95 526.44,78.61 527.12,76.35 527.81,74.19 528.49,72.11 529.17,70.13 529.85,68.23 530.53,66.43 531.21,64.71 531.89,63.09 532.57,61.56 533.25,60.13 533.93,58.78 534.61,57.53 535.29,56.38 535.97,55.32 536.65,54.36 537.33,53.49 538.01,52.72 538.69,52.04 539.38,51.46 540.06,50.98 540.74,50.59 541.42,50.30 542.10,50.11 542.78,50.01 543.46,50.01 544.14,50.11 544.82,50.31 545.50,50.60 546.18,50.99 546.86,51.47 547.54,52.05 548.22,52.73 548.90,53.51 549.58,54.38 550.26,55.34 550.94,56.41 551.62,57.56 552.31,58.81 552.99,60.16 553.67,61.60 554.35,63.13 555.03,64.75 555.71,66.47 556.39,68.27 557.07,70.17 557.75,72.16 558.43,74.24 559.11,76.41 559.79,78.66 560.47,81.00 561.15,83.43 561.83,85.95 562.51,88.54 563.19,91.23 563.88,93.99 564.56,96.84 565.24,99.77 565.92,102.78 566.60,105.87 567.28,109.03 567.96,112.28 568.64,115.60 569.32,118.99 570.00,122.46 570.68,126.00 571.36,129.61 572.04,133.29 572.72,137.04 573.40,140.86 574.08,144.74 574.76,148.69 575.44,152.70 576.12,156.77 576.81,160.90 577.49,165.10 578.17,169.35 578.85,173.66 579.53,178.02 580.21,182.44 580.89,186.90 581.57,191.42 582.25,195.99 582.93,200.60 583.61,205.26 584.29,209.97 584.97,214.71 585.65,219.50 586.33,224.33 587.01,229.20 587.69,234.10 588.38,239.03 589.06,244.00 589.74,249.00 590.42,254.03 591.10,259.08 591.78,264.16 592.46,269.27 593.14,274.40 593.82,279.55 594.50,284.72 595.18,289.90 595.86,295.10 596.54,300.31 597.22,305.54 597.90,310.78 598.58,316.02 599.26,321.27 599.94,326.53 600.62,331.78 601.31,337.04 601.99,342.30 602.67,347.56 603.35,352.81 604.03,358.05 604.71,363.29 605.39,368.52 606.07,373.74 606.75,378.94 607.43,384.13 608.11,389.30 608.79,394.45 609.47,399.59 610.15,404.70 610.83,409.79 611.51,414.85 612.19,419.88 612.88,424.89 613.56,429.86 614.24,434.81 614.92,439.71 615.60,444.59 616.28,449.42 616.96,454.22 617.64,458.98 618.32,463.69 619.00,468.36 619.68,472.99 620.36,477.56 621.04,482.09 621.72,486.57 622.40,491.00 623.08,495.37 623.76,499.70 624.44,503.96 625.12,508.17 625.81,512.31 626.49,516.40 627.17,520.42 627.85,524.39 628.53,528.28 629.21,532.12 629.89,535.88 630.57,539.58 631.25,543.20 631.93,546.76 632.61,550.24 633.29,553.65 633.97,556.99 634.65,560.25 635.33,563.43 636.01,566.54 636.69,569.57 637.38,572.51 638.06,575.38 638.74,578.16 639.42,580.87 640.10,583.48 640.78,586.02 641.46,588.46 642.14,590.83 642.82,593.10 643.50,595.29 644.18,597.38 644.86,599.39 645.54,601.31 646.22,603.14 646.90,604.88 647.58,606.52 648.26,608.07 648.94,609.53 649.62,610.90 650.31,612.17 650.99,613.35 651.67,614.43 652.35,615.42 653.03,616.31 653.71,617.10 654.39,617.80 655.07,618.41 655.75,618.91 656.43,619.33 657.11,619.64 657.79,619.86 658.47,619.98 659.15,620.00 659.83,619.92 660.51,619.75 661.19,619.49 661.88,619.12 662.56,618.66 663.24,618.10 663.92,617.45 664.60,616.69 665.28,615.85 665.96,614.90 666.64,613.87 667.32,612.73 668.00,611.51 668.68,610.19 669.36,608.77 670.04,607.26 670.72,605.66 671.40,603.97 672.08,602.18 672.76,600.31 673.44,598.34 674.13,596.28 674.81,594.14 675.49,591.91 676.17,589.59 676.85,587.18 677.53,584.69 678.21,582.11 678.89,579.45 679.57,576.70 680.25,573.87 680.93,570.96 681.61,567.97 682.29,564.90 682.97,561.76 683.65,558.53 684.33,555.23 685.01,551.86 685.69,548.41 686.38,544.89 687.06,541.29 687.74,537.63 688.42,533.90 689.10,530.10 689.78,526.23 690.46,522.30 691.14,518.30 691.82,514.24 692.50,510.12 693.18,505.95 693.86,501.71 694.54,497.41 695.22,493.07 695.90,488.66 696.58,484.21 697.26,479.70 697.94,475.15 698.62,470.54 699.31,465.89 699.99,461.20 700.67,456.46 701.35,451.69 702.03,446.87 702.71,442.01 703.39,437.12 704.07,432.19 704.75,427.23 705.43,422.24 706.11,417.22 706.79,412.17 707.47,407.10 708.15,401.99 708.83,396.87 709.51,391.73 710.19,386.56 710.87,381.38 711.56,376.19 712.24,370.98 712.92,365.75 713.60,360.52 714.28,355.28 714.96,350.03 715.64,344.78 716.32,339.52 717.00,334.26 717.68,329.00 718.36,323.74 719.04,318.49 719.72,313.24 720.40,308.00 721.08,302.77 721.76,297.55 722.44,292.35 723.12,287.15 723.81,281.98 724.49,276.82 725.17,271.68 725.85,266.56 726.53,261.47 727.21,256.40 727.89,251.36 728.57,246.35 729.25,241.37 729.93,236.41 730.61,231.50 731.29,226.61 731.97,221.77 732.65,216.96 733.33,212.20 734.01,207.47 734.69,202.79 735.38,198.15 736.06,193.56 736.74,189.02 737.42,184.53 738.10,180.09 738.78,175.70 739.46,171.37 740.14,167.09 740.82,162.87 741.50,158.71 742.18,154.61 742.86,150.57 743.54,146.59 744.22,142.67 744.90,138.83 745.58,135.04 746.26,131.33 746.94,127.69 747.62,124.11 748.31,120.61 748.99,117.18 749.67,113.83 750.35,110.55 751.03,107.35 751.71,104.22 752.39,101.18 753.07,98.21 753.75,95.32 754.43,92.52 755.11,89.80 755.79,87.16 756.47,84.60 757.15,82.14 757.83,79.75 758.51,77.46 759.19,75.25 759.88,73.13 760.56,71.10 761.24,69.16 761.92,67.31 762.60,65.55 763.28,63.88 763.96,62.31 764.64,60.82 765.32,59.43 766.00,58.14 766.68,56.94 767.36,55.83 768.04,54.82 768.72,53.91 769.40,53.09 770.08,52.36 770.76,51.73 771.44,51.20 772.12,50.77 772.81,50.43 773.49,50.19 774.17,50.05 774.85,50.00 775.53,50.05 776.21,50.20 776.89,50.44 777.57,50.78 778.25,51.22 778.93,51.76 779.61,52.39 780.29,53.11 780.97,53.94 781.65,54.86 782.33,55.87 783.01,56.98 783.69,58.18 784.38,59.48 785.06,60.87 785.74,62.36 786.42,63.94 787.10,65.61 787.78,67.37 788.46,69.22 789.14,71.17 789.82,73.20 790.50,75.32 791.18,77.54 791.86,79.83 792.54,82.22 793.22,84.69 793.90,87.25 794.58,89.89 795.26,92.62 795.94,95.42 796.63,98.31 797.31,101.28 797.99,104.33 798.67,107.46 799.35,110.67 800.03,113.95 800.71,117.30 801.39,120.74 802.07,124.24 802.75,127.82 803.43,131.46 804.11,135.18 804.79,138.96 805.47,142.81 806.15,146.73 806.83,150.71 807.51,154.75 808.19,158.85 808.88,163.02 809.56,167.24 810.24,171.52 810.92,175.86 811.60,180.25 812.28,184.69 812.96,189.18 813.64,193.73 814.32,198.32 815.00,202.95 815.68,207.64 816.36,212.36 817.04,217.13 817.72,221.94 818.40,226.79 819.08,231.67 819.76,236.59 820.44,241.54 821.12,246.53 821.81,251.54 822.49,256.58 823.17,261.65 823.85,266.75 824.53,271.86 825.21,277.00 825.89,282.16 826.57,287.34 827.25,292.53 827.93,297.74 828.61,302.96 829.29,308.19 829.97,313.43 830.65,318.68 831.33,323.93 832.01,329.19 832.69,334.44 833.37,339.70 834.06,344.96 834.74,350.21 835.42,355.46 836.10,360.71 836.78,365.94 837.46,371.16 838.14,376.37 838.82,381.57 839.50,386.75 840.18,391.91 840.86,397.05 841.54,402.18 842.22,407.27 842.90,412.35 843.58,417.40 844.26,422.42 844.94,427.41 845.62,432.37 846.31,437.29 846.99,442.18 847.67,447.04 848.35,451.86 849.03,456.63 849.71,461.37 850.39,466.06 851.07,470.71 851.75,475.31 852.43,479.86 853.11,484.37 853.79,488.82 854.47,493.22 855.15,497.57 855.83,501.86 856.51,506.09 857.19,510.27 857.88,514.39 858.56,518.44 859.24,522.44 859.92,526.37 860.60,530.23 861.28,534.03 861.96,537.76 862.64,541.42 863.32,545.01 864.00,548.53 864.68,551.98 865.36,555.35 866.04,558.65 866.72,561.87 867.40,565.01 868.08,568.08 868.76,571.07 869.44,573.97 870.12,576.80 870.81,579.54 871.49,582.20 872.17,584.77 872.85,587.27 873.53,589.67 874.21,591.99 874.89,594.22 875.57,596.36 876.25,598.41 876.93,600.37 877.61,602.25 878.29,604.03 878.97,605.72 879.65,607.32 880.33,608.82 881.01,610.23 881.69,611.55 882.38,612.78 883.06,613.91 883.74,614.94 884.42,615.88 885.10,616.72 885.78,617.47 886.46,618.12 887.14,618.68 887.82,619.13 888.50,619.50 889.18,619.76 889.86,619.93 890.54,620.00 891.22,619.97 891.90,619.85 892.58,619.63 893.26,619.31 893.94,618.90 894.62,618.39 895.31,617.78 895.99,617.08 896.67,616.28 897.35,615.38 898.03,614.39 898.71,613.31 899.39,612.12 900.07,610.85 900.75,609.48 901.43,608.02 902.11,606.46 902.79,604.82 903.47,603.08 904.15,601.24 904.83,599.32 905.51,597.31 906.19,595.21 906.88,593.02 907.56,590.74 908.24,588.38 908.92,585.93 909.60,583.39 910.28,580.77 910.96,578.07 911.64,575.28 912.32,572.41 913.00,569.46 913.68,566.43 914.36,563.32 915.04,560.14 915.72,556.87 916.40,553.53 917.08,550.12 917.76,546.64 918.44,543.08 919.13,539.45 919.81,535.75 920.49,531.98 921.17,528.15 921.85,524.25 922.53,520.28 923.21,516.26 923.89,512.17 924.57,508.02 925.25,503.81 925.93,499.54 926.61,495.22 927.29,490.85 927.97,486.42 928.65,481.93 929.33,477.40 930.01,472.82 930.69,468.20 931.38,463.53 932.06,458.81 932.74,454.05 933.42,449.25 934.10,444.42 934.78,439.54 935.46,434.63 936.14,429.69 936.82,424.71 937.50,419.70 938.18,414.67 938.86,409.61 939.54,404.52 940.22,399.41 940.90,394.27 941.58,389.12 942.26,383.95 942.94,378.76 943.62,373.55 944.31,368.34 944.99,363.11 945.67,357.87 946.35,352.62 947.03,347.37 947.71,342.12 948.39,336.86 949.07,331.60 949.75,326.34 950.43,321.09 951.11,315.84 951.79,310.59 952.47,305.36 953.15,300.13 953.83,294.92 954.51,289.72 955.19,284.53 955.87,279.37 956.56,274.22 957.24,269.09 957.92,263.99 958.60,258.90 959.28,253.85 959.96,248.82 960.64,243.82 961.32,238.86 962.00,233.92 962.68,229.02 963.36,224.16 964.04,219.33 964.72,214.55 965.40,209.80 966.08,205.10 966.76,200.44 967.44,195.83 968.12,191.26 968.81,186.74 969.49,182.28 970.17,177.86 970.85,173.50 971.53,169.20 972.21,164.95 972.89,160.76 973.57,156.63 974.25,152.55 974.93,148.55 975.61,144.60 976.29,140.72 976.97,136.90 977.65,133.16 978.33,129.48 979.01,125.87 979.69,122.33 980.38,118.87 981.06,115.48 981.74,112.16 982.42,108.92 983.10,105.76 983.78,102.67 984.46,99.67 985.14,96.74 985.82,93.89 986.50,91.13 987.18,88.45 987.86,85.86 988.54,83.34 989.22,80.92 989.90,78.58 990.58,76.33 991.26,74.16 991.94,72.09 992.62,70.10 993.31,68.21 993.99,66.41 994.67,64.69 995.35,63.07 996.03,61.54 996.71,60.11 997.39,58.77 998.07,57.52 998.75,56.37 999.43,55.31 1000.11,54.35 1000.79,53.48 1001.47,52.71 1002.15,52.03 1002.83,51.45 1003.51,50.97 1004.19,50.59 1004.88,50.30 1005.56,50.11 1006.24,50.01 1006.92,50.01 1007.60,50.11 1008.28,50.31 1008.96,50.60 1009.64,50.99 1010.32,51.48 1011.00,52.06 1011.68,52.74 1012.36,53.52 1013.04,54.39 1013.72,55.36 1014.40,56.42 1015.08,57.58 1015.76,58.83 1016.44,60.17 1017.12,61.61 1017.81,63.15 1018.49,64.77 1019.17,66.49 1019.85,68.30 1020.53,70.20 1021.21,72.19 1021.89,74.26 1022.57,76.43 1023.25,78.69 1023.93,81.03 1024.61,83.46 1025.29,85.98 1025.97,88.58 1026.65,91.26 1027.33,94.03 1028.01,96.88 1028.69,99.81 1029.38,102.82 1030.06,105.90 1030.74,109.07 1031.42,112.32 1032.10,115.64 1032.78,119.03 1033.46,122.50 1034.14,126.04 1034.82,129.65 1035.50,133.33 1036.18,137.08 1036.86,140.90 1037.54,144.78 1038.22,148.73 1038.90,152.75 1039.58,156.82 1040.26,160.95 1040.94,165.15 1041.62,169.40 1042.31,173.71 1042.99,178.07 1043.67,182.49 1044.35,186.96 1045.03,191.47 1045.71,196.04 1046.39,200.66 1047.07,205.32 1047.75,210.02 1048.43,214.77 1049.11,219.56 1049.79,224.39 1050.47,229.25 1051.15,234.15 1051.83,239.09 1052.51,244.06 1053.19,249.06 1053.88,254.09 1054.56,259.14 1055.24,264.22 1055.92,269.33 1056.60,274.46 1057.28,279.61 1057.96,284.78 1058.64,289.96 1059.32,295.16 1060.00,300.38" fill="none" stroke="#dc2626" stroke-width="3" stroke-linejoin="round" stroke-linecap="round"/>
<rect x="870" y="90" width="18" height="4" fill="#dc2626"/>
<text x="898" y="95" font-family="Arial, sans-serif" font-size="15" fill="#111827">small_angle</text>
</svg>
