<svg xmlns="http://www.w3.org/2000/svg" width="1100" height="700" viewBox="0 0 1100 700">
<rect width="100%" height="100%" fill="#f8fafc"/>
<text x="80" y="32" font-family="Arial, sans-serif" font-size="24" fill="#111827">Total Mechanical Energy</text>
<line x1="80.00" y1="620.00" x2="1060.00" y2="620.00" stroke="#374151" stroke-width="2"/>
<line x1="80.00" y1="620.00" x2="80.00" y2="50.00" stroke="#374151" stroke-width="2"/>
<text x="550.00" y="672" text-anchor="middle" font-family="Arial, sans-serif" font-size="16" fill="#374151">time (s)</text>
<text x="22" y="350.00" text-anchor="middle" transform="rotate(-90 22 350.00)" font-family="Arial, sans-serif" font-size="16" fill="#374151">total energy (J)</text>
<text x="80" y="646" font-family="Arial, sans-serif" font-size="13" fill="#6b7280">0.00</text>
<text x="1060" y="646" text-anchor="end" font-family="Arial, sans-serif" font-size="13" fill="#6b7280">3.68</text>
<text x="68" y="620.00" text-anchor="end" dominant-baseline="middle" font-family="Arial, sans-serif" font-size="13" fill="#6b7280">0.00</text>
<text x="68" y="50.00" text-anchor="end" dominant-baseline="middle" font-family="Arial, sans-serif" font-size="13" fill="#6b7280">324.00</text>
<polyline points="80.00,50.00 84.43,50.00 88.87,50.00 93.30,50.00 97.74,50.00 102.17,50.00 106.61,50.00 111.04,50.00 115.48,50.00 119.91,50.00 124.34,50.00 128.78,50.00 133.21,50.00 137.65,50.00 142.08,50.00 146.52,50.00 150.95,50.00 155.38,50.00 159.82,50.00 164.25,50.00 168.69,50.00 173.12,50.00 177.56,50.00 181.99,50.00 186.43,50.00 190.86,50.00 195.29,50.00 199.73,50.00 204.16,50.00 208.60,50.00 213.03,50.00 217.47,50.00 221.90,50.00 226.33,50.00 230.77,50.00 235.20,50.00 239.64,50.00 244.07,50.00 248.51,50.00 252.94,50.00 257.38,50.00 261.81,50.00 266.24,50.00 270.68,50.00 275.11,50.00 279.55,50.00 283.98,50.00 288.42,50.00 292.85,50.00 297.29,50.00 301.72,50.00 306.15,50.00 310.59,50.00 315.02,50.00 319.46,50.00 323.89,50.00 328.33,50.00 332.76,50.00 337.19,50.00 341.63,50.00 346.06,50.00 350.50,50.00 354.93,50.00 359.37,50.00 363.80,50.00 368.24,50.00 372.67,50.00 377.10,50.00 381.54,50.00 385.97,50.00 390.41,50.00 394.84,50.00 399.28,50.00 403.71,50.00 408.14,50.00 412.58,50.00 417.01,50.00 421.45,50.00 425.88,50.00 430.32,50.00 434.75,50.00 439.19,50.00 443.62,50.00 448.05,50.00 452.49,50.00 456.92,50.00 461.36,50.00 465.79,50.00 470.23,50.00 474.66,50.00 479.10,50.00 483.53,50.00 487.96,50.00 492.40,50.00 496.83,50.00 501.27,50.00 505.70,50.00 510.14,50.00 514.57,50.00 519.00,50.00 523.44,50.00 527.87,50.00 532.31,50.00 536.74,50.00 541.18,50.00 545.61,50.00 550.05,50.00 554.48,50.00 558.91,50.00 563.35,50.00 567.78,50.00 572.22,50.00 576.65,50.00 581.09,50.00 585.52,50.00 589.95,50.00 594.39,50.00 598.82,50.00 603.26,50.00 607.69,50.00 612.13,50.00 616.56,50.00 621.00,50.00 625.43,50.00 629.86,50.00 634.30,50.00 638.73,50.00 643.17,50.00 647.60,50.00 652.04,50.00 656.47,50.00 660.90,50.00 665.34,50.00 669.77,50.00 674.21,50.00 678.64,50.00 683.08,50.00 687.51,50.00 691.95,50.00 696.38,50.00 700.81,50.00 705.25,50.00 709.68,50.00 714.12,50.00 718.55,50.00 722.99,50.00 727.42,50.00 731.86,50.00 736.29,50.00 740.72,50.00 745.16,50.00 749.59,50.00 754.03,50.00 758.46,50.00 762.90,50.00 767.33,50.00 771.76,50.00 776.20,50.00 780.63,50.00 785.07,50.00 789.50,50.00 793.94,50.00 798.37,50.00 802.81,50.00 807.24,50.00 811.67,50.00 816.11,50.00 820.54,50.00 824.98,50.00 829.41,50.00 833.85,50.00 838.28,50.00 842.72,50.00 847.15,50.00 851.58,50.00 856.02,50.00 860.45,50.00 864.89,50.00 869.32,50.00 873.76,50.00 878.19,50.00 882.62,50.00 887.06,50.00 891.49,50.00 895.93,50.00 900.36,50.00 904.80,50.00 909.23,50.00 913.67,50.00 918.10,50.00 922.53,50.00 926.97,50.00 931.40,50.00 935.84,50.00 940.27,50.00 944.71,50.00 949.14,50.00 953.57,50.00 958.01,50.00 962.44,50.00 966.88,50.00 971.31,50.00 975.75,50.00 980.18,50.00 984.62,50.00 989.05,50.00 993.48,50.00 997.92,50.00 1002.35,50.00 1006.79,50.00 1011.22,50.00 1015.66,50.00 1020.09,50.00 1024.52,50.00 1028.96,50.00 1033.39,50.00 1037.83,50.00 1042.26,50.00 1046.70,50.00 1051.13,50.00 1055.57,50.00 1060.00,50.00" fill="none" stroke="#2563eb" stroke-width="3" stroke-linejoin="round" stroke-linecap="round"/>
<rect x="870" y="62" width="18" height="4" fill="#2563eb"/>
<text x="898" y="67" font-family="Arial, sans-serif" font-size="15" fill="#111827">ideal</text>
<polyline points="80.00,50.00 84.43,61.82 88.87,73.12 93.30,83.93 97.74,94.26 102.17,104.15 106.61,113.62 111.04,122.68 115.48,131.35 119.91,139.67 124.34,147.63 128.78,155.26 133.21,162.58 137.65,169.60 142.08,176.33 146.52,182.79 150.95,188.99 155.38,194.94 159.82,200.65 164.25,206.14 168.69,211.41 173.12,216.47 177.56,221.34 181.99,226.01 186.43,230.51 190.86,234.84 195.29,239.00 199.73,243.01 204.16,246.86 208.60,250.57 213.03,254.14 217.47,257.59 221.90,260.90 226.33,264.10 230.77,267.18 235.20,270.15 239.64,273.01 244.07,275.77 248.51,278.44 252.94,281.01 257.38,283.49 261.81,285.89 266.24,288.21 270.68,290.45 275.11,292.62 279.55,294.71 283.98,296.74 288.42,298.70 292.85,300.59 297.29,302.43 301.72,304.21 306.15,305.94 310.59,307.61 315.02,309.23 319.46,310.80 323.89,312.33 328.33,313.82 332.76,315.26 337.19,316.66 341.63,318.03 346.06,319.35 350.50,320.64 354.93,321.90 359.37,323.13 363.80,324.33 368.24,325.49 372.67,326.63 377.10,327.75 381.54,328.84 385.97,329.90 390.41,330.94 394.84,331.97 399.28,332.97 403.71,333.95 408.14,334.91 412.58,335.86 417.01,336.79 421.45,337.71 425.88,338.61 430.32,339.50 434.75,340.37 439.19,341.24 443.62,342.09 448.05,342.93 452.49,343.77 456.92,344.59 461.36,345.41 465.79,346.22 470.23,347.02 474.66,347.82 479.10,348.62 483.53,349.41 487.96,350.19 492.40,350.97 496.83,351.75 501.27,352.53 505.70,353.31 510.14,354.08 514.57,354.86 519.00,355.64 523.44,356.41 527.87,357.19 532.31,357.97 536.74,358.75 541.18,359.54 545.61,360.33 550.05,361.12 554.48,361.92 558.91,362.72 563.35,363.53 567.78,364.35 572.22,365.17 576.65,366.00 581.09,366.83 585.52,367.68 589.95,368.53 594.39,369.39 598.82,370.26 603.26,371.14 607.69,372.02 612.13,372.92 616.56,373.83 621.00,374.76 625.43,375.69 629.86,376.64 634.30,377.59 638.73,378.56 643.17,379.55 647.60,380.55 652.04,381.56 656.47,382.59 660.90,383.63 665.34,384.69 669.77,385.76 674.21,386.85 678.64,387.96 683.08,389.08 687.51,390.22 691.95,391.37 696.38,392.55 700.81,393.74 705.25,394.95 709.68,396.19 714.12,397.44 718.55,398.71 722.99,399.99 727.42,401.30 731.86,402.63 736.29,403.98 740.72,405.36 745.16,406.75 749.59,408.17 754.03,409.60 758.46,411.06 762.90,412.54 767.33,414.05 771.76,415.57 776.20,417.12 780.63,418.70 785.07,420.30 789.50,421.92 793.94,423.56 798.37,425.23 802.81,426.93 807.24,428.65 811.67,430.39 816.11,432.16 820.54,433.95 824.98,435.77 829.41,437.62 833.85,439.49 838.28,441.39 842.72,443.31 847.15,445.26 851.58,447.24 856.02,449.24" fill="none" stroke="#dc2626" stroke-width="3" stroke-linejoin="round" stroke-linecap="round"/>
<rect x="870" y="90" width="18" height="4" fill="#dc2626"/>
<text x="898" y="95" font-family="Arial, sans-serif" font-size="15" fill="#111827">drag</text>
</svg>
