<svg xmlns="http://www.w3.org/2000/svg" width="1100" height="700" viewBox="0 0 1100 700">
<rect width="100%" height="100%" fill="#f8fafc"/>
<text x="90" y="32" font-family="Arial, sans-serif" font-size="24" fill="#111827">Advection-Diffusion (drift + lattice walk): Displacement Distribution</text>
<line x1="90.00" y1="620.00" x2="1060.00" y2="620.00" stroke="#374151" stroke-width="2"/>
<line x1="90.00" y1="620.00" x2="90.00" y2="50.00" stroke="#374151" stroke-width="2"/>
<text x="550.00" y="672" text-anchor="middle" font-family="Arial, sans-serif" font-size="16" fill="#374151">x displacement (m)</text>
<text x="24" y="350.00" text-anchor="middle" transform="rotate(-90 24 350.00)" font-family="Arial, sans-serif" font-size="16" fill="#374151">probability density</text>
<text x="90" y="646" font-family="Arial, sans-serif" font-size="13" fill="#6b7280">-4.11</text>
<text x="1060" y="646" text-anchor="end" font-family="Arial, sans-serif" font-size="13" fill="#6b7280">124.29</text>
<text x="78" y="620.00" text-anchor="end" dominant-baseline="middle" font-family="Arial, sans-serif" font-size="13" fill="#6b7280">0.00</text>
<text x="78" y="50.00" text-anchor="end" dominant-baseline="middle" font-family="Arial, sans-serif" font-size="13" fill="#6b7280">0.04</text>
<rect x="90.00" y="620.00" width="23.25" height="0.00" fill="#2563eb" opacity="0.55"/>
<rect x="114.25" y="620.00" width="23.25" height="0.00" fill="#2563eb" opacity="0.55"/>
<rect x="138.50" y="620.00" width="23.25" height="0.00" fill="#2563eb" opacity="0.55"/>
<rect x="162.75" y="620.00" width="23.25" height="0.00" fill="#2563eb" opacity="0.55"/>
<rect x="187.00" y="620.00" width="23.25" height="0.00" fill="#2563eb" opacity="0.55"/>
<rect x="211.25" y="618.84" width="23.25" height="1.16" fill="#2563eb" opacity="0.55"/>
<rect x="235.50" y="613.05" width="23.25" height="6.95" fill="#2563eb" opacity="0.55"/>
<rect x="259.75" y="611.89" width="23.25" height="8.11" fill="#2563eb" opacity="0.55"/>
<rect x="284.00" y="609.58" width="23.25" height="10.42" fill="#2563eb" opacity="0.55"/>
<rect x="308.25" y="601.47" width="23.25" height="18.53" fill="#2563eb" opacity="0.55"/>
<rect x="332.50" y="562.10" width="23.25" height="57.90" fill="#2563eb" opacity="0.55"/>
<rect x="356.75" y="560.94" width="23.25" height="59.06" fill="#2563eb" opacity="0.55"/>
<rect x="381.00" y="531.99" width="23.25" height="88.01" fill="#2563eb" opacity="0.55"/>
<rect x="405.25" y="489.14" width="23.25" height="130.86" fill="#2563eb" opacity="0.55"/>
<rect x="429.50" y="368.70" width="23.25" height="251.30" fill="#2563eb" opacity="0.55"/>
<rect x="453.75" y="374.49" width="23.25" height="245.51" fill="#2563eb" opacity="0.55"/>
<rect x="478.00" y="358.28" width="23.25" height="261.72" fill="#2563eb" opacity="0.55"/>
<rect x="502.25" y="259.84" width="23.25" height="360.16" fill="#2563eb" opacity="0.55"/>
<rect x="526.50" y="255.21" width="23.25" height="364.79" fill="#2563eb" opacity="0.55"/>
<rect x="550.75" y="124.35" width="23.25" height="495.65" fill="#2563eb" opacity="0.55"/>
<rect x="575.00" y="215.84" width="23.25" height="404.16" fill="#2563eb" opacity="0.55"/>
<rect x="599.25" y="247.10" width="23.25" height="372.90" fill="#2563eb" opacity="0.55"/>
<rect x="623.50" y="294.58" width="23.25" height="325.42" fill="#2563eb" opacity="0.55"/>
<rect x="647.75" y="351.33" width="23.25" height="268.67" fill="#2563eb" opacity="0.55"/>
<rect x="672.00" y="294.58" width="23.25" height="325.42" fill="#2563eb" opacity="0.55"/>
<rect x="696.25" y="434.71" width="23.25" height="185.29" fill="#2563eb" opacity="0.55"/>
<rect x="720.50" y="497.25" width="23.25" height="122.75" fill="#2563eb" opacity="0.55"/>
<rect x="744.75" y="528.51" width="23.25" height="91.49" fill="#2563eb" opacity="0.55"/>
<rect x="769.00" y="551.67" width="23.25" height="68.33" fill="#2563eb" opacity="0.55"/>
<rect x="793.25" y="566.73" width="23.25" height="53.27" fill="#2563eb" opacity="0.55"/>
<rect x="817.50" y="589.89" width="23.25" height="30.11" fill="#2563eb" opacity="0.55"/>
<rect x="841.75" y="607.26" width="23.25" height="12.74" fill="#2563eb" opacity="0.55"/>
<rect x="866.00" y="613.05" width="23.25" height="6.95" fill="#2563eb" opacity="0.55"/>
<rect x="890.25" y="616.53" width="23.25" height="3.47" fill="#2563eb" opacity="0.55"/>
<rect x="914.50" y="618.84" width="23.25" height="1.16" fill="#2563eb" opacity="0.55"/>
<rect x="938.75" y="620.00" width="23.25" height="0.00" fill="#2563eb" opacity="0.55"/>
<rect x="963.00" y="620.00" width="23.25" height="0.00" fill="#2563eb" opacity="0.55"/>
<rect x="987.25" y="620.00" width="23.25" height="0.00" fill="#2563eb" opacity="0.55"/>
<rect x="1011.50" y="620.00" width="23.25" height="0.00" fill="#2563eb" opacity="0.55"/>
<rect x="1035.75" y="620.00" width="23.25" height="0.00" fill="#2563eb" opacity="0.55"/>
<polyline points="90.00,619.99 114.25,619.96 138.50,619.90 162.75,619.75 187.00,619.43 211.25,618.73 235.50,617.31 259.75,614.60 284.00,609.73 308.25,601.42 332.50,588.09 356.75,567.94 381.00,539.33 405.25,501.29 429.50,454.06 453.75,399.70 478.00,342.23 502.25,287.34 526.50,241.61 550.75,211.20 575.00,200.54 599.25,211.20 623.50,241.61 647.75,287.34 672.00,342.23 696.25,399.70 720.50,454.06 744.75,501.29 769.00,539.33 793.25,567.94 817.50,588.09 841.75,601.42 866.00,609.73 890.25,614.60 914.50,617.31 938.75,618.73 963.00,619.43 987.25,619.75 1011.50,619.90 1035.75,619.96 1060.00,619.99" fill="none" stroke="#dc2626" stroke-width="3"/>
<rect x="780" y="62" width="18" height="12" fill="#2563eb"/>
<text x="804" y="73" font-family="Arial, sans-serif" font-size="15" fill="#111827">final displacements</text>
<rect x="780" y="88" width="18" height="12" fill="#dc2626"/>
<text x="804" y="99" font-family="Arial, sans-serif" font-size="15" fill="#111827">Gaussian N(mu, 2Dt)</text>
</svg>
