<svg xmlns="http://www.w3.org/2000/svg" width="1100" height="700" viewBox="0 0 1100 700">
<rect width="100%" height="100%" fill="#f8fafc"/>
<text x="90" y="32" font-family="Arial, sans-serif" font-size="24" fill="#111827">Gaussian Step Walk (matched D): Mean-Square Displacement</text>
<line x1="90.00" y1="620.00" x2="1060.00" y2="620.00" stroke="#374151" stroke-width="2"/>
<line x1="90.00" y1="620.00" x2="90.00" y2="50.00" stroke="#374151" stroke-width="2"/>
<text x="550.00" y="672" text-anchor="middle" font-family="Arial, sans-serif" font-size="16" fill="#374151">time t (steps x tau)</text>
<text x="24" y="350.00" text-anchor="middle" transform="rotate(-90 24 350.00)" font-family="Arial, sans-serif" font-size="16" fill="#374151">spread &lt;|r - &lt;r&gt;|^2&gt; (m^2)</text>
<text x="90" y="646" font-family="Arial, sans-serif" font-size="13" fill="#6b7280">0.00</text>
<text x="1060" y="646" text-anchor="end" font-family="Arial, sans-serif" font-size="13" fill="#6b7280">400.00</text>
<text x="78" y="620.00" text-anchor="end" dominant-baseline="middle" font-family="Arial, sans-serif" font-size="13" fill="#6b7280">0.00</text>
<text x="78" y="50.00" text-anchor="end" dominant-baseline="middle" font-family="Arial, sans-serif" font-size="13" fill="#6b7280">441.30</text>
<polyline points="90.00,620.00 92.42,618.71 94.85,617.42 97.28,616.13 99.70,614.83 102.12,613.54 104.55,612.25 106.97,610.96 109.40,609.67 111.83,608.38 114.25,607.08 116.67,605.79 119.10,604.50 121.53,603.21 123.95,601.92 126.38,600.63 128.80,599.33 131.22,598.04 133.65,596.75 136.07,595.46 138.50,594.17 140.93,592.88 143.35,591.58 145.78,590.29 148.20,589.00 150.62,587.71 153.05,586.42 155.48,585.13 157.90,583.83 160.32,582.54 162.75,581.25 165.18,579.96 167.60,578.67 170.03,577.38 172.45,576.08 174.88,574.79 177.30,573.50 179.72,572.21 182.15,570.92 184.57,569.63 187.00,568.33 189.43,567.04 191.85,565.75 194.27,564.46 196.70,563.17 199.12,561.88 201.55,560.58 203.97,559.29 206.40,558.00 208.82,556.71 211.25,555.42 213.68,554.13 216.10,552.84 218.53,551.54 220.95,550.25 223.38,548.96 225.80,547.67 228.22,546.38 230.65,545.09 233.07,543.79 235.50,542.50 237.92,541.21 240.35,539.92 242.78,538.63 245.20,537.34 247.62,536.04 250.05,534.75 252.48,533.46 254.90,532.17 257.32,530.88 259.75,529.59 262.17,528.29 264.60,527.00 267.02,525.71 269.45,524.42 271.88,523.13 274.30,521.84 276.73,520.54 279.15,519.25 281.58,517.96 284.00,516.67 286.43,515.38 288.85,514.09 291.27,512.79 293.70,511.50 296.12,510.21 298.55,508.92 300.98,507.63 303.40,506.34 305.83,505.04 308.25,503.75 310.68,502.46 313.10,501.17 315.52,499.88 317.95,498.59 320.38,497.29 322.80,496.00 325.23,494.71 327.65,493.42 330.07,492.13 332.50,490.84 334.93,489.55 337.35,488.25 339.77,486.96 342.20,485.67 344.62,484.38 347.05,483.09 349.48,481.80 351.90,480.50 354.33,479.21 356.75,477.92 359.18,476.63 361.60,475.34 364.02,474.05 366.45,472.75 368.88,471.46 371.30,470.17 373.72,468.88 376.15,467.59 378.57,466.30 381.00,465.00 383.43,463.71 385.85,462.42 388.27,461.13 390.70,459.84 393.12,458.55 395.55,457.25 397.98,455.96 400.40,454.67 402.82,453.38 405.25,452.09 407.68,450.80 410.10,449.50 412.53,448.21 414.95,446.92 417.38,445.63 419.80,444.34 422.23,443.05 424.65,441.75 427.07,440.46 429.50,439.17 431.92,437.88 434.35,436.59 436.77,435.30 439.20,434.00 441.62,432.71 444.05,431.42 446.47,430.13 448.90,428.84 451.32,427.55 453.75,426.26 456.18,424.96 458.60,423.67 461.03,422.38 463.45,421.09 465.88,419.80 468.30,418.51 470.73,417.21 473.15,415.92 475.58,414.63 478.00,413.34 480.43,412.05 482.85,410.76 485.27,409.46 487.70,408.17 490.12,406.88 492.55,405.59 494.97,404.30 497.40,403.01 499.82,401.71 502.25,400.42 504.68,399.13 507.10,397.84 509.52,396.55 511.95,395.26 514.38,393.96 516.80,392.67 519.23,391.38 521.65,390.09 524.08,388.80 526.50,387.51 528.92,386.21 531.35,384.92 533.78,383.63 536.20,382.34 538.62,381.05 541.05,379.76 543.48,378.46 545.90,377.17 548.33,375.88 550.75,374.59 553.17,373.30 555.60,372.01 558.02,370.72 560.45,369.42 562.88,368.13 565.30,366.84 567.72,365.55 570.15,364.26 572.58,362.97 575.00,361.67 577.42,360.38 579.85,359.09 582.27,357.80 584.70,356.51 587.12,355.22 589.55,353.92 591.97,352.63 594.40,351.34 596.83,350.05 599.25,348.76 601.67,347.47 604.10,346.17 606.52,344.88 608.95,343.59 611.38,342.30 613.80,341.01 616.23,339.72 618.65,338.42 621.07,337.13 623.50,335.84 625.92,334.55 628.35,333.26 630.77,331.97 633.20,330.67 635.62,329.38 638.05,328.09 640.48,326.80 642.90,325.51 645.33,324.22 647.75,322.92 650.18,321.63 652.60,320.34 655.02,319.05 657.45,317.76 659.88,316.47 662.30,315.17 664.73,313.88 667.15,312.59 669.58,311.30 672.00,310.01 674.43,308.72 676.85,307.43 679.28,306.13 681.70,304.84 684.12,303.55 686.55,302.26 688.98,300.97 691.40,299.68 693.83,298.38 696.25,297.09 698.67,295.80 701.10,294.51 703.52,293.22 705.95,291.93 708.38,290.63 710.80,289.34 713.22,288.05 715.65,286.76 718.07,285.47 720.50,284.18 722.92,282.88 725.35,281.59 727.77,280.30 730.20,279.01 732.62,277.72 735.05,276.43 737.48,275.13 739.90,273.84 742.32,272.55 744.75,271.26 747.17,269.97 749.60,268.68 752.02,267.38 754.45,266.09 756.88,264.80 759.30,263.51 761.73,262.22 764.15,260.93 766.58,259.63 769.00,258.34 771.43,257.05 773.85,255.76 776.27,254.47 778.70,253.18 781.12,251.88 783.55,250.59 785.98,249.30 788.40,248.01 790.83,246.72 793.25,245.43 795.68,244.14 798.10,242.84 800.53,241.55 802.95,240.26 805.38,238.97 807.80,237.68 810.23,236.39 812.65,235.09 815.08,233.80 817.50,232.51 819.92,231.22 822.35,229.93 824.77,228.64 827.20,227.34 829.62,226.05 832.05,224.76 834.47,223.47 836.90,222.18 839.32,220.89 841.75,219.59 844.17,218.30 846.60,217.01 849.02,215.72 851.45,214.43 853.88,213.14 856.30,211.84 858.73,210.55 861.15,209.26 863.57,207.97 866.00,206.68 868.42,205.39 870.85,204.09 873.27,202.80 875.70,201.51 878.12,200.22 880.55,198.93 882.98,197.64 885.40,196.34 887.83,195.05 890.25,193.76 892.68,192.47 895.10,191.18 897.52,189.89 899.95,188.59 902.38,187.30 904.80,186.01 907.23,184.72 909.65,183.43 912.08,182.14 914.50,180.85 916.93,179.55 919.35,178.26 921.78,176.97 924.20,175.68 926.62,174.39 929.05,173.10 931.48,171.80 933.90,170.51 936.33,169.22 938.75,167.93 941.17,166.64 943.60,165.35 946.02,164.05 948.45,162.76 950.88,161.47 953.30,160.18 955.72,158.89 958.15,157.60 960.57,156.30 963.00,155.01 965.42,153.72 967.85,152.43 970.27,151.14 972.70,149.85 975.12,148.55 977.55,147.26 979.98,145.97 982.40,144.68 984.82,143.39 987.25,142.10 989.67,140.80 992.10,139.51 994.52,138.22 996.95,136.93 999.38,135.64 1001.80,134.35 1004.23,133.05 1006.65,131.76 1009.08,130.47 1011.50,129.18 1013.93,127.89 1016.35,126.60 1018.77,125.30 1021.20,124.01 1023.62,122.72 1026.05,121.43 1028.47,120.14 1030.90,118.85 1033.33,117.56 1035.75,116.26 1038.18,114.97 1040.60,113.68 1043.03,112.39 1045.45,111.10 1047.88,109.81 1050.30,108.51 1052.72,107.22 1055.15,105.93 1057.58,104.64 1060.00,103.35" fill="none" stroke="#dc2626" stroke-width="3.0" stroke-linejoin="round"/>
<polyline points="90.00,620.00 92.42,618.71 94.85,617.38 97.28,616.05 99.70,614.76 102.12,613.43 104.55,612.18 106.97,611.05 109.40,609.76 111.83,608.50 114.25,607.23 116.67,605.81 119.10,604.60 121.53,603.37 123.95,602.04 126.38,600.52 128.80,599.27 131.22,597.83 133.65,596.47 136.07,595.38 138.50,593.94 140.93,592.56 143.35,591.32 145.78,589.82 148.20,588.55 150.62,587.38 153.05,586.22 155.48,584.83 157.90,583.68 160.32,582.16 162.75,580.78 165.18,579.59 167.60,578.46 170.03,577.24 172.45,575.97 174.88,574.98 177.30,573.73 179.72,572.53 182.15,571.33 184.57,570.11 187.00,568.84 189.43,567.48 191.85,566.53 194.27,565.28 196.70,564.00 199.12,562.65 201.55,561.32 203.97,559.88 206.40,558.83 208.82,557.27 211.25,555.89 213.68,554.82 216.10,553.16 218.53,551.85 220.95,550.45 223.38,549.26 225.80,547.99 228.22,546.70 230.65,545.84 233.07,544.53 235.50,542.89 237.92,541.50 240.35,540.42 242.78,538.99 245.20,537.74 247.62,535.78 250.05,534.48 252.48,532.97 254.90,531.57 257.32,530.26 259.75,529.38 262.17,527.96 264.60,526.55 267.02,525.05 269.45,523.42 271.88,522.05 274.30,520.84 276.73,519.23 279.15,518.43 281.58,516.82 284.00,516.19 286.43,514.87 288.85,513.29 291.27,511.68 293.70,510.34 296.12,509.06 298.55,507.64 300.98,506.10 303.40,505.25 305.83,503.82 308.25,501.91 310.68,500.98 313.10,500.45 315.52,499.04 317.95,497.82 320.38,496.49 322.80,495.08 325.23,494.15 327.65,492.72 330.07,491.06 332.50,490.06 334.93,488.71 337.35,487.39 339.77,486.10 342.20,484.89 344.62,483.18 347.05,481.86 349.48,480.94 351.90,479.77 354.33,478.41 356.75,477.26 359.18,476.36 361.60,475.22 364.02,473.86 366.45,472.75 368.88,471.08 371.30,469.80 373.72,468.38 376.15,467.24 378.57,465.87 381.00,465.03 383.43,463.53 385.85,461.94 388.27,460.67 390.70,459.26 393.12,458.41 395.55,457.40 397.98,456.05 400.40,454.79 402.82,453.41 405.25,451.99 407.68,450.44 410.10,449.18 412.53,448.57 414.95,447.42 417.38,445.47 419.80,444.37 422.23,442.83 424.65,440.91 427.07,439.36 429.50,437.48 431.92,436.71 434.35,435.00 436.77,433.99 439.20,432.62 441.62,431.23 444.05,429.60 446.47,428.45 448.90,427.48 451.32,426.19 453.75,424.78 456.18,423.61 458.60,422.24 461.03,421.42 463.45,420.02 465.88,418.48 468.30,417.33 470.73,415.96 473.15,414.85 475.58,413.49 478.00,412.13 480.43,411.04 482.85,409.43 485.27,407.79 487.70,406.82 490.12,405.14 492.55,403.58 494.97,402.40 497.40,401.14 499.82,399.63 502.25,398.22 504.68,396.34 507.10,394.43 509.52,393.12 511.95,391.68 514.38,390.57 516.80,389.21 519.23,388.06 521.65,386.48 524.08,385.38 526.50,384.24 528.92,382.48 531.35,381.54 533.78,380.40 536.20,379.55 538.62,377.53 541.05,376.42 543.48,374.77 545.90,373.16 548.33,370.89 550.75,369.48 553.17,368.33 555.60,367.56 558.02,366.50 560.45,365.79 562.88,364.58 565.30,363.08 567.72,361.93 570.15,359.73 572.58,358.82 575.00,357.83 577.42,356.74 579.85,355.63 582.27,353.93 584.70,352.77 587.12,351.11 589.55,350.26 591.97,349.64 594.40,347.62 596.83,346.91 599.25,345.75 601.67,345.26 604.10,344.15 606.52,342.69 608.95,341.44 611.38,339.48 613.80,338.83 616.23,337.63 618.65,336.69 621.07,335.39 623.50,334.03 625.92,332.57 628.35,331.89 630.77,330.04 633.20,328.97 635.62,327.47 638.05,326.57 640.48,325.20 642.90,324.77 645.33,323.31 647.75,322.21 650.18,321.25 652.60,319.90 655.02,318.40 657.45,316.94 659.88,315.56 662.30,314.28 664.73,312.95 667.15,311.72 669.58,310.32 672.00,309.12 674.43,307.42 676.85,306.03 679.28,304.94 681.70,302.68 684.12,301.79 686.55,300.06 688.98,298.20 691.40,297.63 693.83,295.75 696.25,294.06 698.67,292.40 701.10,291.63 703.52,290.85 705.95,289.77 708.38,287.36 710.80,286.29 713.22,284.68 715.65,282.49 718.07,281.23 720.50,280.24 722.92,278.77 725.35,276.99 727.77,275.11 730.20,273.73 732.62,273.31 735.05,272.17 737.48,271.43 739.90,270.73 742.32,268.67 744.75,266.59 747.17,266.11 749.60,264.55 752.02,264.14 754.45,263.50 756.88,261.96 759.30,260.08 761.73,258.80 764.15,257.06 766.58,256.18 769.00,254.69 771.43,253.19 773.85,252.03 776.27,251.22 778.70,249.90 781.12,248.61 783.55,246.86 785.98,245.93 788.40,243.94 790.83,242.94 793.25,241.97 795.68,240.07 798.10,238.83 800.53,237.30 802.95,235.51 805.38,234.53 807.80,232.98 810.23,231.41 812.65,231.15 815.08,229.61 817.50,229.33 819.92,227.98 822.35,226.37 824.77,224.04 827.20,223.05 829.62,220.97 832.05,220.06 834.47,218.32 836.90,216.47 839.32,214.71 841.75,214.35 844.17,213.18 846.60,212.33 849.02,211.10 851.45,209.50 853.88,208.40 856.30,206.95 858.73,206.21 861.15,205.19 863.57,203.83 866.00,202.31 868.42,201.05 870.85,200.29 873.27,198.91 875.70,198.24 878.12,196.46 880.55,193.93 882.98,192.86 885.40,191.12 887.83,190.78 890.25,189.11 892.68,187.85 895.10,186.85 897.52,185.97 899.95,184.52 902.38,183.03 904.80,181.81 907.23,180.74 909.65,179.38 912.08,177.56 914.50,175.70 916.93,174.35 919.35,172.60 921.78,169.63 924.20,168.01 926.62,166.25 929.05,165.07 931.48,164.03 933.90,162.64 936.33,162.16 938.75,161.86 941.17,159.69 943.60,158.49 946.02,156.80 948.45,155.80 950.88,154.20 953.30,152.42 955.72,151.78 958.15,150.03 960.57,150.19 963.00,149.48 965.42,148.09 967.85,146.72 970.27,145.47 972.70,144.59 975.12,142.62 977.55,141.74 979.98,141.77 982.40,140.97 984.82,140.42 987.25,139.19 989.67,138.05 992.10,136.74 994.52,135.09 996.95,133.57 999.38,132.34 1001.80,130.82 1004.23,130.38 1006.65,129.80 1009.08,128.27 1011.50,126.98 1013.93,125.35 1016.35,123.38 1018.77,122.11 1021.20,120.89 1023.62,119.91 1026.05,119.10 1028.47,118.79 1030.90,116.74 1033.33,115.94 1035.75,114.37 1038.18,113.70 1040.60,112.27 1043.03,110.31 1045.45,108.96 1047.88,107.75 1050.30,107.20 1052.72,105.95 1055.15,104.50 1057.58,102.81 1060.00,101.82" fill="none" stroke="#2563eb" stroke-width="2.0" stroke-linejoin="round"/>
<rect x="780" y="62" width="18" height="12" fill="#dc2626"/>
<text x="804" y="73" font-family="Arial, sans-serif" font-size="15" fill="#111827">4 D t (theory)</text>
<rect x="780" y="88" width="18" height="12" fill="#2563eb"/>
<text x="804" y="99" font-family="Arial, sans-serif" font-size="15" fill="#111827">measured variance</text>
</svg>
