<svg xmlns="http://www.w3.org/2000/svg" width="1100" height="700" viewBox="0 0 1100 700">
<rect width="100%" height="100%" fill="#f8fafc"/>
<text x="80" y="32" font-family="Arial, sans-serif" font-size="24" fill="#111827">Bouncing Rod (e=1.0)</text>
<line x1="80.00" y1="620.00" x2="1060.00" y2="620.00" stroke="#374151" stroke-width="2"/>
<line x1="80.00" y1="620.00" x2="80.00" y2="50.00" stroke="#374151" stroke-width="2"/>
<text x="550.00" y="672" text-anchor="middle" font-family="Arial, sans-serif" font-size="16" fill="#374151">x (m)</text>
<text x="22" y="350.00" text-anchor="middle" transform="rotate(-90 22 350.00)" font-family="Arial, sans-serif" font-size="16" fill="#374151">y (m)</text>
<text x="80" y="646" font-family="Arial, sans-serif" font-size="13" fill="#6b7280">-1.44</text>
<text x="1060" y="646" text-anchor="end" font-family="Arial, sans-serif" font-size="13" fill="#6b7280">1.44</text>
<text x="68" y="620.00" text-anchor="end" dominant-baseline="middle" font-family="Arial, sans-serif" font-size="13" fill="#6b7280">-0.01</text>
<text x="68" y="50.00" text-anchor="end" dominant-baseline="middle" font-family="Arial, sans-serif" font-size="13" fill="#6b7280">1.67</text>
<polyline points="570.00,108.20 570.00,108.20 570.00,108.20 570.00,108.21 570.00,108.22 570.00,108.24 570.00,108.26 570.00,108.28 570.00,108.31 570.00,108.34 570.00,108.38 570.00,108.41 570.00,108.46 570.00,108.50 570.00,108.55 570.00,108.60 570.00,108.66 570.00,108.72 570.00,108.78 570.00,108.85 570.00,108.92 570.00,108.99 570.00,109.07 570.00,109.15 570.00,109.24 570.00,109.33 570.00,109.42 570.00,109.51 570.00,109.61 570.00,109.72 570.00,109.82 570.00,109.93 570.00,110.05 570.00,110.17 570.00,110.29 570.00,110.41 570.00,110.54 570.00,110.67 570.00,110.81 570.00,110.95 570.00,111.09 570.00,111.24 570.00,111.39 570.00,111.54 570.00,111.70 570.00,111.86 570.00,112.02 570.00,112.19 570.00,112.36 570.00,112.54 570.00,112.72 570.00,112.90 570.00,113.09 570.00,113.28 570.00,113.47 570.00,113.67 570.00,113.87 570.00,114.07 570.00,114.28 570.00,114.49 570.00,114.71 570.00,114.92 570.00,115.15 570.00,115.37 570.00,115.60 570.00,115.84 570.00,116.07 570.00,116.31 570.00,116.56 570.00,116.81 570.00,117.06 570.00,117.31 570.00,117.57 570.00,117.83 570.00,118.10 570.00,118.37 570.00,118.64 570.00,118.92 570.00,119.20 570.00,119.48 570.00,119.77 570.00,120.06 570.00,120.36 570.00,120.65 570.00,120.96 570.00,121.26 570.00,121.57 570.00,121.88 570.00,122.20 570.00,122.52 570.00,122.84 570.00,123.17 570.00,123.50 570.00,123.84 570.00,124.17 570.00,124.52 570.00,124.86 570.00,125.21 570.00,125.56 570.00,125.92 570.00,126.28 570.00,126.64 570.00,127.01 570.00,127.38 570.00,127.76 570.00,128.13 570.00,128.51 570.00,128.90 570.00,129.29 570.00,129.68 570.00,130.08 570.00,130.48 570.00,130.88 570.00,131.29 570.00,131.70 570.00,132.11 570.00,132.53 570.00,132.95 570.00,133.38 570.00,133.80 570.00,134.24 570.00,134.67 570.00,135.11 570.00,135.55 570.00,136.00 570.00,136.45 570.00,136.91 570.00,137.36 570.00,137.82 570.00,138.29 570.00,138.76 570.00,139.23 570.00,139.70 570.00,140.18 570.00,140.67 570.00,141.15 570.00,141.64 570.00,142.14 570.00,142.63 570.00,143.14 570.00,143.64 570.00,144.15 570.00,144.66 570.00,145.18 570.00,145.69 570.00,146.22 570.00,146.74 570.00,147.27 570.00,147.81 570.00,148.34 570.00,148.88 570.00,149.43 570.00,149.98 570.00,150.53 570.00,151.08 570.00,151.64 570.00,152.20 570.00,152.77 570.00,153.34 570.00,153.91 570.00,154.49 570.00,155.07 570.00,155.65 570.00,156.24 570.00,156.83 570.00,157.43 570.00,158.03 570.00,158.63 570.00,159.24 570.00,159.84 570.00,160.46 570.00,161.07 570.00,161.69 570.00,162.32 570.00,162.95 570.00,163.58 570.00,164.21 570.00,164.85 570.00,165.49 570.00,166.14 570.00,166.79 570.00,167.44 570.00,168.10 570.00,168.76 570.00,169.42 570.00,170.09 570.00,170.76 570.00,171.43 570.00,172.11 570.00,172.79 570.00,173.48 570.00,174.17 570.00,174.86 570.00,175.56 570.00,176.26 570.00,176.96 570.00,177.67 570.00,178.38 570.00,179.09 570.00,179.81 570.00,180.53 570.00,181.26 570.00,181.98 570.00,182.72 570.00,183.45 570.00,184.19 570.00,184.94 570.00,185.68 570.00,186.43 570.00,187.19 570.00,187.94 570.00,188.71 570.00,189.47 570.00,190.24 570.00,191.01 570.00,191.79 570.00,192.57 570.00,193.35 570.00,194.14 570.00,194.93 570.00,195.72 570.00,196.52 570.00,197.32 570.00,198.12 570.00,198.93 570.00,199.74 570.00,200.56 570.00,201.38 570.00,202.20 570.00,203.03 570.00,203.86 570.00,204.69 570.00,205.53 570.00,206.37 570.00,207.21 570.00,208.06 570.00,208.91 570.00,209.77 570.00,210.63 570.00,211.49 570.00,212.36 570.00,213.23 570.00,214.10 570.00,214.98 570.00,215.86 570.00,216.74 570.00,217.63 570.00,218.52 570.00,219.42 570.00,220.32 570.00,221.22 570.00,222.12 570.00,223.03 570.00,223.95 570.00,224.86 570.00,225.78 570.00,226.71 570.00,227.64 570.00,228.57 570.00,229.50 570.00,230.44 570.00,231.38 570.00,232.33 570.00,233.28 570.00,234.23 570.00,235.19 570.00,236.15 570.00,237.11 570.00,238.08 570.00,239.05 570.00,240.02 570.00,241.00 570.00,241.99 570.00,242.97 570.00,243.96 570.00,244.95 570.00,245.95 570.00,246.95 570.00,247.95 570.00,248.96 570.00,249.97 570.00,250.99 570.00,252.00 570.00,253.03 570.00,254.05 570.00,255.08 570.00,256.11 570.00,257.15 570.00,258.19 570.00,259.23 570.00,260.28 570.00,261.33 570.00,262.38 570.00,263.44 570.00,264.50 570.00,265.57 570.00,266.64 570.00,267.71 570.00,268.78 570.00,269.86 570.00,270.95 570.00,272.03 570.00,273.13 570.00,274.22 570.00,275.32 570.00,276.42 570.00,277.52 570.00,278.63 570.00,279.74 570.00,280.86 570.00,281.98 570.00,283.10 570.00,284.23 570.00,285.36 570.00,286.49 570.00,287.63 570.00,288.77 570.00,289.92 570.00,291.06 570.00,292.22 570.00,293.37 570.00,294.53 570.00,295.69 570.00,296.86 570.00,298.03 570.00,299.20 570.00,300.38 570.00,301.56 570.00,302.75 570.00,303.93 570.00,305.13 570.00,306.32 570.00,307.52 570.00,308.72 570.00,309.93 570.00,311.14 570.00,312.35 570.00,313.57 570.00,314.79 570.00,316.01 570.00,317.24 570.00,318.47 570.00,319.71 570.00,320.95 570.00,322.19 570.00,323.44 570.00,324.68 570.00,325.94 570.00,327.19 570.00,328.46 570.00,329.72 570.00,330.99 570.00,332.26 570.00,333.53 570.00,334.81 570.00,336.09 570.00,337.38 570.00,338.67 570.00,339.96 570.00,341.26 570.00,342.56 570.00,343.86 570.00,345.17 570.00,346.48 570.00,347.80 570.00,349.11 570.00,350.44 570.00,351.76 570.00,353.09 570.00,354.42 570.00,355.76 570.00,357.10 570.00,358.44 570.00,359.79 570.00,361.14 570.00,362.50 570.00,363.85 570.00,365.22 570.00,366.58 570.00,367.95 570.00,369.32 570.00,370.70 570.00,372.08 570.00,373.46 570.00,374.85 570.00,376.24 570.00,377.63 570.00,379.03 570.00,380.43 570.00,381.84 570.00,383.25 570.00,384.66 570.00,386.07 570.00,387.49 570.00,388.92 570.00,390.34 570.00,391.77 570.00,393.21 570.00,394.65 570.00,396.09 570.00,397.53 570.00,398.98 570.00,400.43 570.00,401.89 570.00,403.35 570.00,404.81 570.00,406.28 570.00,407.75 570.00,409.22 570.00,410.70 570.00,412.18 570.00,413.66 570.00,415.15 570.00,416.65 570.00,418.14 570.00,419.64 570.00,421.14 570.00,422.65 570.00,424.16 570.00,425.67 570.00,427.19 570.00,428.71 570.00,430.23 570.00,431.76 570.00,433.29 570.00,434.83 570.00,436.37 570.00,437.91 570.00,439.46 570.00,441.01 570.00,442.56 570.00,444.12 570.00,445.68 570.00,447.24 570.00,448.81 570.00,450.38 570.00,451.96 570.00,453.54 570.00,455.12 570.00,456.70 570.00,458.29 570.00,459.89 570.00,461.48 570.00,463.08 570.00,464.69 570.00,466.30 570.00,467.91 570.00,469.52 570.00,471.14 570.00,472.76 570.00,474.39 570.00,476.02 570.00,477.65 570.00,479.29 570.00,480.93 570.00,482.57 570.00,484.22 570.00,485.87 570.00,487.52 570.00,489.18 570.00,490.84 570.00,492.51 570.00,494.18 570.00,495.85 570.00,497.53 570.00,499.21 570.00,500.89 570.00,502.58 570.00,504.27 570.00,505.96 570.00,507.66 570.00,509.36 570.00,511.07 570.00,512.78 570.00,514.49 570.00,516.21 570.00,517.93 570.00,519.65 570.00,521.38 570.00,523.11 570.00,524.84 570.00,526.58 570.00,528.32 570.00,530.06 570.00,531.81 570.00,533.57 570.00,535.32 570.00,537.08 570.00,538.84 570.00,540.61 570.00,542.38 570.00,544.16 570.00,545.93 570.00,547.71 570.00,549.50 570.00,551.29 570.00,553.08 570.00,554.88 570.00,556.67 570.00,558.48 570.00,560.28 570.00,562.09 570.00,563.91 570.00,565.73 570.00,567.55 570.00,569.37 570.00,571.20 570.00,573.03 570.00,574.87 570.00,576.71 570.00,578.55 570.00,580.39 570.00,582.24 570.00,584.10 570.00,585.96 570.00,587.82 570.00,589.68 570.00,591.55 570.00,593.42 570.00,595.30 570.00,597.17 570.00,599.06 570.00,600.94 570.00,602.83 570.00,603.74 570.00,604.64 570.00,605.55 570.00,606.46 570.00,607.38 570.00,608.30 570.00,609.22 570.00,610.15 570.00,611.08 570.00,610.10 570.00,609.12 570.00,608.14 570.00,607.16 570.00,606.19 570.00,605.23 570.00,604.26 570.00,603.30 570.00,602.35 570.00,600.46 570.00,598.58 570.00,596.70 570.00,594.82 570.00,592.95 570.00,591.08 570.00,589.21 570.00,587.35 570.00,585.49 570.00,583.63 570.00,581.78 570.00,579.93 570.00,578.09 570.00,576.25 570.00,574.41 570.00,572.58 570.00,570.75 570.00,568.92 570.00,567.10 570.00,565.28 570.00,563.46 570.00,561.65 570.00,559.84 570.00,558.04 570.00,556.24 570.00,554.44 570.00,552.65 570.00,550.86 570.00,549.07 570.00,547.29 570.00,545.51 570.00,543.73 570.00,541.96 570.00,540.19 570.00,538.42 570.00,536.66 570.00,534.91 570.00,533.15 570.00,531.40 570.00,529.65 570.00,527.91 570.00,526.17 570.00,524.44 570.00,522.70 570.00,520.98 570.00,519.25 570.00,517.53 570.00,515.81 570.00,514.10 570.00,512.39 570.00,510.68 570.00,508.97 570.00,507.28 570.00,505.58 570.00,503.89 570.00,502.20 570.00,500.51 570.00,498.83 570.00,497.15 570.00,495.48 570.00,493.81 570.00,492.14 570.00,490.48 570.00,488.82 570.00,487.16 570.00,485.51 570.00,483.86 570.00,482.21 570.00,480.57 570.00,478.93 570.00,477.30 570.00,475.67 570.00,474.04 570.00,472.41 570.00,470.79 570.00,469.18 570.00,467.57 570.00,465.96 570.00,464.35 570.00,462.75 570.00,461.15 570.00,459.55 570.00,457.96 570.00,456.38 570.00,454.79 570.00,453.21 570.00,451.63 570.00,450.06 570.00,448.49 570.00,446.92 570.00,445.36 570.00,443.80 570.00,442.25 570.00,440.70 570.00,439.15 570.00,437.60 570.00,436.06 570.00,434.53 570.00,432.99 570.00,431.46 570.00,429.94 570.00,428.42 570.00,426.90 570.00,425.38 570.00,423.87 570.00,422.36 570.00,420.86 570.00,419.36 570.00,417.86 570.00,416.36 570.00,414.87 570.00,413.39 570.00,411.91 570.00,410.43 570.00,408.95 570.00,407.48 570.00,406.01 570.00,404.55 570.00,403.08 570.00,401.63 570.00,400.17 570.00,398.72 570.00,397.28 570.00,395.83 570.00,394.39 570.00,392.96 570.00,391.53 570.00,390.10 570.00,388.67 570.00,387.25 570.00,385.83 570.00,384.42 570.00,383.01 570.00,381.60 570.00,380.20 570.00,378.80 570.00,377.40 570.00,376.01 570.00,374.62 570.00,373.24 570.00,371.86 570.00,370.48 570.00,369.10 570.00,367.73 570.00,366.37 570.00,365.00 570.00,363.64 570.00,362.29 570.00,360.93 570.00,359.58 570.00,358.24 570.00,356.90 570.00,355.56 570.00,354.22 570.00,352.89 570.00,351.57 570.00,350.24 570.00,348.92 570.00,347.61 570.00,346.29 570.00,344.98 570.00,343.68 570.00,342.38 570.00,341.08 570.00,339.78 570.00,338.49 570.00,337.20 570.00,335.92 570.00,334.64 570.00,333.36 570.00,332.09 570.00,330.82 570.00,329.56 570.00,328.29 570.00,327.03 570.00,325.78 570.00,324.53 570.00,323.28 570.00,322.04 570.00,320.80 570.00,319.56 570.00,318.33 570.00,317.10 570.00,315.87 570.00,314.65 570.00,313.43 570.00,312.21 570.00,311.00 570.00,309.79 570.00,308.59 570.00,307.39 570.00,306.19 570.00,305.00 570.00,303.81 570.00,302.62 570.00,301.44 570.00,300.26 570.00,299.09 570.00,297.91 570.00,296.75 570.00,295.58 570.00,294.42 570.00,293.26 570.00,292.11 570.00,290.96 570.00,289.81 570.00,288.67 570.00,287.53 570.00,286.40 570.00,285.26 570.00,284.14 570.00,283.01 570.00,281.89 570.00,280.77 570.00,279.66 570.00,278.55 570.00,277.44 570.00,276.34 570.00,275.24 570.00,274.14 570.00,273.05 570.00,271.96 570.00,270.88 570.00,269.80 570.00,268.72 570.00,267.64 570.00,266.57 570.00,265.51 570.00,264.44 570.00,263.38 570.00,262.33 570.00,261.28 570.00,260.23 570.00,259.18 570.00,258.14 570.00,257.10 570.00,256.07 570.00,255.04 570.00,254.01 570.00,252.99 570.00,251.97 570.00,250.95 570.00,249.94 570.00,248.93 570.00,247.92 570.00,246.92 570.00,245.92 570.00,244.93 570.00,243.94 570.00,242.95 570.00,241.97 570.00,240.99 570.00,240.01 570.00,239.04 570.00,238.07 570.00,237.10 570.00,236.14 570.00,235.18 570.00,234.23 570.00,233.28 570.00,232.33 570.00,231.38 570.00,230.44 570.00,229.51 570.00,228.57 570.00,227.65 570.00,226.72 570.00,225.80 570.00,224.88 570.00,223.96 570.00,223.05 570.00,222.14 570.00,221.24 570.00,220.34 570.00,219.44 570.00,218.55 570.00,217.66 570.00,216.77 570.00,215.89 570.00,215.01 570.00,214.14 570.00,213.27 570.00,212.40 570.00,211.53 570.00,210.67 570.00,209.82 570.00,208.96 570.00,208.11 570.00,207.27 570.00,206.42 570.00,205.58 570.00,204.75 570.00,203.92 570.00,203.09 570.00,202.26 570.00,201.44 570.00,200.63 570.00,199.81 570.00,199.00 570.00,198.20 570.00,197.39 570.00,196.59 570.00,195.80 570.00,195.01 570.00,194.22 570.00,193.43 570.00,192.65 570.00,191.87 570.00,191.10 570.00,190.33 570.00,189.56 570.00,188.80 570.00,188.04 570.00,187.28 570.00,186.53 570.00,185.78 570.00,185.04 570.00,184.30 570.00,183.56 570.00,182.83 570.00,182.09 570.00,181.37 570.00,180.64 570.00,179.93 570.00,179.21 570.00,178.50 570.00,177.79 570.00,177.08 570.00,176.38 570.00,175.68 570.00,174.99 570.00,174.30 570.00,173.61 570.00,172.93 570.00,172.25 570.00,171.57 570.00,170.90 570.00,170.23 570.00,169.56 570.00,168.90 570.00,168.24 570.00,167.59 570.00,166.94 570.00,166.29 570.00,165.65 570.00,165.01 570.00,164.37 570.00,163.74 570.00,163.11 570.00,162.48 570.00,161.86 570.00,161.24 570.00,160.63 570.00,160.02 570.00,159.41 570.00,158.81 570.00,158.20 570.00,157.61 570.00,157.01 570.00,156.43 570.00,155.84 570.00,155.26 570.00,154.68 570.00,154.10 570.00,153.53 570.00,152.96 570.00,152.40 570.00,151.84 570.00,151.28 570.00,150.73 570.00,150.18 570.00,149.63 570.00,149.09 570.00,148.55 570.00,148.02 570.00,147.49 570.00,146.96 570.00,146.43 570.00,145.91 570.00,145.40 570.00,144.88 570.00,144.37 570.00,143.87 570.00,143.36 570.00,142.86 570.00,142.37 570.00,141.88 570.00,141.39 570.00,140.90 570.00,140.42 570.00,139.95 570.00,139.47 570.00,139.00 570.00,138.54 570.00,138.07 570.00,137.61 570.00,137.16 570.00,136.71 570.00,136.26 570.00,135.81 570.00,135.37 570.00,134.93 570.00,134.50 570.00,134.07 570.00,133.64 570.00,133.22 570.00,132.80 570.00,132.38 570.00,131.97 570.00,131.56 570.00,131.16 570.00,130.76 570.00,130.36 570.00,129.96 570.00,129.57 570.00,129.19 570.00,128.80 570.00,128.42 570.00,128.05 570.00,127.68 570.00,127.31 570.00,126.94 570.00,126.58 570.00,126.22 570.00,125.87 570.00,125.52 570.00,125.17 570.00,124.83 570.00,124.49 570.00,124.15 570.00,123.82 570.00,123.49 570.00,123.16 570.00,122.84 570.00,122.52 570.00,122.21 570.00,121.90 570.00,121.59 570.00,121.29 570.00,120.99 570.00,120.69 570.00,120.40 570.00,120.11 570.00,119.82 570.00,119.54 570.00,119.26 570.00,118.99 570.00,118.71 570.00,118.45 570.00,118.18 570.00,117.92 570.00,117.67 570.00,117.41 570.00,117.16 570.00,116.92 570.00,116.68 570.00,116.44 570.00,116.20 570.00,115.97 570.00,115.74 570.00,115.52 570.00,115.30 570.00,115.08 570.00,114.87 570.00,114.66 570.00,114.45 570.00,114.25 570.00,114.05 570.00,113.85 570.00,113.66 570.00,113.47 570.00,113.29 570.00,113.11 570.00,112.93 570.00,112.76 570.00,112.59 570.00,112.42 570.00,112.26 570.00,112.10 570.00,111.95 570.00,111.79 570.00,111.65 570.00,111.50 570.00,111.36 570.00,111.22 570.00,111.09 570.00,110.96 570.00,110.83 570.00,110.71 570.00,110.59 570.00,110.47 570.00,110.36 570.00,110.25 570.00,110.15 570.00,110.05 570.00,109.95 570.00,109.86 570.00,109.77 570.00,109.68 570.00,109.60 570.00,109.52 570.00,109.44 570.00,109.37 570.00,109.30 570.00,109.23 570.00,109.17 570.00,109.11 570.00,109.06 570.00,109.01 570.00,108.96 570.00,108.92 570.00,108.88 570.00,108.84 570.00,108.81 570.00,108.78 570.00,108.76 570.00,108.74 570.00,108.72 570.00,108.70 570.00,108.69 570.00,108.69 570.00,108.68 570.00,108.68 570.00,108.69 570.00,108.69 570.00,108.70 570.00,108.72 570.00,108.74 570.00,108.76 570.00,108.78 570.00,108.81 570.00,108.84 570.00,108.88 570.00,108.92 570.00,108.96 570.00,109.01 570.00,109.06 570.00,109.12 570.00,109.17 570.00,109.24 570.00,109.30 570.00,109.37 570.00,109.44 570.00,109.52 570.00,109.60 570.00,109.68 570.00,109.77 570.00,109.86 570.00,109.95 570.00,110.05 570.00,110.15 570.00,110.26 570.00,110.36 570.00,110.48 570.00,110.59 570.00,110.71 570.00,110.84 570.00,110.96 570.00,111.09 570.00,111.23 570.00,111.36 570.00,111.50 570.00,111.65 570.00,111.80 570.00,111.95 570.00,112.10 570.00,112.26 570.00,112.43 570.00,112.59 570.00,112.76 570.00,112.94 570.00,113.11 570.00,113.30 570.00,113.48 570.00,113.67 570.00,113.86 570.00,114.05 570.00,114.25 570.00,114.46 570.00,114.66 570.00,114.87 570.00,115.09 570.00,115.30 570.00,115.52 570.00,115.75 570.00,115.98 570.00,116.21 570.00,116.44 570.00,116.68 570.00,116.92 570.00,117.17 570.00,117.42 570.00,117.67 570.00,117.93 570.00,118.19 570.00,118.45 570.00,118.72 570.00,118.99 570.00,119.27 570.00,119.55 570.00,119.83 570.00,120.11 570.00,120.40 570.00,120.70 570.00,120.99 570.00,121.29 570.00,121.60 570.00,121.90 570.00,122.22 570.00,122.53 570.00,122.85 570.00,123.17 570.00,123.50 570.00,123.83 570.00,124.16 570.00,124.49 570.00,124.83 570.00,125.18 570.00,125.53 570.00,125.88 570.00,126.23 570.00,126.59 570.00,126.95 570.00,127.32 570.00,127.68 570.00,128.06 570.00,128.43 570.00,128.81 570.00,129.20 570.00,129.58 570.00,129.97 570.00,130.37 570.00,130.77 570.00,131.17 570.00,131.57 570.00,131.98 570.00,132.39 570.00,132.81 570.00,133.23 570.00,133.65 570.00,134.08 570.00,134.51 570.00,134.94 570.00,135.38 570.00,135.82 570.00,136.27 570.00,136.72 570.00,137.17 570.00,137.62 570.00,138.08 570.00,138.55 570.00,139.01 570.00,139.48 570.00,139.96 570.00,140.43 570.00,140.92 570.00,141.40 570.00,141.89 570.00,142.38 570.00,142.88 570.00,143.38 570.00,143.88 570.00,144.38 570.00,144.89 570.00,145.41 570.00,145.93 570.00,146.45 570.00,146.97 570.00,147.50 570.00,148.03 570.00,148.57 570.00,149.10 570.00,149.65 570.00,150.19 570.00,150.74 570.00,151.30 570.00,151.85 570.00,152.41 570.00,152.98 570.00,153.55 570.00,154.12 570.00,154.69 570.00,155.27 570.00,155.85 570.00,156.44 570.00,157.03 570.00,157.62 570.00,158.22 570.00,158.82 570.00,159.42 570.00,160.03 570.00,160.64 570.00,161.26 570.00,161.88 570.00,162.50 570.00,163.12 570.00,163.75 570.00,164.39 570.00,165.02 570.00,165.66 570.00,166.31 570.00,166.95 570.00,167.61 570.00,168.26 570.00,168.92 570.00,169.58 570.00,170.25 570.00,170.92 570.00,171.59 570.00,172.26 570.00,172.94 570.00,173.63 570.00,174.32 570.00,175.01 570.00,175.70 570.00,176.40 570.00,177.10 570.00,177.81 570.00,178.51 570.00,179.23 570.00,179.94 570.00,180.66 570.00,181.39 570.00,182.11 570.00,182.84 570.00,183.58 570.00,184.32 570.00,185.06 570.00,185.80 570.00,186.55 570.00,187.30 570.00,188.06 570.00,188.82 570.00,189.58 570.00,190.35 570.00,191.12 570.00,191.89 570.00,192.67 570.00,193.45 570.00,194.24 570.00,195.03 570.00,195.82 570.00,196.61 570.00,197.41 570.00,198.22 570.00,199.02 570.00,199.83 570.00,200.65 570.00,201.46 570.00,202.28 570.00,203.11 570.00,203.94 570.00,204.77 570.00,205.61 570.00,206.44 570.00,207.29 570.00,208.13 570.00,208.98 570.00,209.84 570.00,210.69 570.00,211.56 570.00,212.42 570.00,213.29 570.00,214.16 570.00,215.03 570.00,215.91 570.00,216.80 570.00,217.68 570.00,218.57 570.00,219.47 570.00,220.36 570.00,221.26 570.00,222.17 570.00,223.07 570.00,223.99 570.00,224.90 570.00,225.82 570.00,226.74 570.00,227.67 570.00,228.60 570.00,229.53 570.00,230.47 570.00,231.41 570.00,232.35 570.00,233.30 570.00,234.25 570.00,235.21 570.00,236.16 570.00,237.13 570.00,238.09 570.00,239.06 570.00,240.03 570.00,241.01 570.00,241.99 570.00,242.97 570.00,243.96 570.00,244.95 570.00,245.95 570.00,246.95 570.00,247.95 570.00,248.95 570.00,249.96 570.00,250.98 570.00,251.99 570.00,253.01 570.00,254.04 570.00,255.06 570.00,256.09 570.00,257.13 570.00,258.17 570.00,259.21 570.00,260.25 570.00,261.30 570.00,262.35 570.00,263.41 570.00,264.47 570.00,265.53 570.00,266.60 570.00,267.67 570.00,268.75 570.00,269.82 570.00,270.90 570.00,271.99 570.00,273.08 570.00,274.17 570.00,275.27 570.00,276.37 570.00,277.47 570.00,278.58 570.00,279.69 570.00,280.80 570.00,281.92 570.00,283.04 570.00,284.16 570.00,285.29 570.00,286.42 570.00,287.56 570.00,288.70 570.00,289.84 570.00,290.99 570.00,292.14 570.00,293.29 570.00,294.45 570.00,295.61 570.00,296.78 570.00,297.94 570.00,299.12 570.00,300.29 570.00,301.47 570.00,302.65 570.00,303.84 570.00,305.03 570.00,306.22 570.00,307.42 570.00,308.62 570.00,309.83 570.00,311.03 570.00,312.25 570.00,313.46 570.00,314.68 570.00,315.90 570.00,317.13 570.00,318.36 570.00,319.59 570.00,320.83 570.00,322.07 570.00,323.31 570.00,324.56 570.00,325.81 570.00,327.07 570.00,328.33 570.00,329.59 570.00,330.85 570.00,332.12 570.00,333.40 570.00,334.67 570.00,335.95 570.00,337.24 570.00,338.52 570.00,339.82 570.00,341.11 570.00,342.41 570.00,343.71 570.00,345.02 570.00,346.33 570.00,347.64 570.00,348.96 570.00,350.28 570.00,351.60 570.00,352.93 570.00,354.26 570.00,355.59 570.00,356.93 570.00,358.27 570.00,359.62 570.00,360.97 570.00,362.32 570.00,363.68 570.00,365.04 570.00,366.40 570.00,367.77 570.00,369.14 570.00,370.51 570.00,371.89 570.00,373.27 570.00,374.66 570.00,376.05 570.00,377.44 570.00,378.83 570.00,380.23 570.00,381.64 570.00,383.04 570.00,384.45 570.00,385.87 570.00,387.29 570.00,388.71 570.00,390.13 570.00,391.56 570.00,392.99 570.00,394.43 570.00,395.87 570.00,397.31 570.00,398.76 570.00,400.21 570.00,401.66 570.00,403.12 570.00,404.58 570.00,406.05 570.00,407.52 570.00,408.99 570.00,410.46 570.00,411.94 570.00,413.43 570.00,414.91 570.00,416.40 570.00,417.90 570.00,419.39 570.00,420.89 570.00,422.40 570.00,423.91 570.00,425.42 570.00,426.93 570.00,428.45 570.00,429.98 570.00,431.50 570.00,433.03 570.00,434.57 570.00,436.10 570.00,437.64 570.00,439.19 570.00,440.74 570.00,442.29 570.00,443.84 570.00,445.40 570.00,446.96 570.00,448.53 570.00,450.10 570.00,451.67 570.00,453.25 570.00,454.83 570.00,456.42 570.00,458.00 570.00,459.59 570.00,461.19 570.00,462.79 570.00,464.39 570.00,466.00 570.00,467.61 570.00,469.22 570.00,470.84 570.00,472.46 570.00,474.08 570.00,475.71 570.00,477.34 570.00,478.97 570.00,480.61 570.00,482.25 570.00,483.90 570.00,485.55 570.00,487.20 570.00,488.86 570.00,490.52 570.00,492.18 570.00,493.85 570.00,495.52 570.00,497.19 570.00,498.87 570.00,500.55 570.00,502.24 570.00,503.93 570.00,505.62 570.00,507.32 570.00,509.02 570.00,510.72 570.00,512.43 570.00,514.14 570.00,515.85 570.00,517.57 570.00,519.29 570.00,521.02 570.00,522.75 570.00,524.48 570.00,526.22 570.00,527.96 570.00,529.70 570.00,531.45 570.00,533.20 570.00,534.95 570.00,536.71 570.00,538.47 570.00,540.23 570.00,542.00 570.00,543.78 570.00,545.55 570.00,547.33 570.00,549.11 570.00,550.90 570.00,552.69 570.00,551.35 570.00,550.01 570.00,548.67 570.00,547.34 570.00,546.01 570.00,544.68 570.00,543.36 570.00,542.04 570.00,540.73 570.00,539.42 570.00,538.11 570.00,536.81 570.00,535.51 570.00,534.21 570.00,532.92 570.00,531.63 570.00,530.34 570.00,529.06 570.00,527.78 570.00,526.51 570.00,525.24 570.00,523.97 570.00,522.71 570.00,521.45 570.00,520.19 570.00,518.94 570.00,517.69 570.00,516.44 570.00,515.20 570.00,513.96 570.00,512.73 570.00,511.49 570.00,510.27 570.00,509.04 570.00,507.82 570.00,506.61 570.00,505.39 570.00,504.18 570.00,502.98 570.00,501.77 570.00,500.58 570.00,499.38 570.00,498.19 570.00,497.00 570.00,495.82 570.00,494.64 570.00,493.46 570.00,492.29 570.00,491.12 570.00,489.95 570.00,488.79 570.00,487.63 570.00,486.47 570.00,485.32 570.00,484.17 570.00,483.03 570.00,481.89 570.00,480.75 570.00,479.62 570.00,478.49 570.00,477.36 570.00,476.24 570.00,475.12 570.00,474.00 570.00,472.89 570.00,471.78 570.00,470.68 570.00,469.58 570.00,468.48 570.00,467.38 570.00,466.29 570.00,465.21 570.00,464.12 570.00,463.04 570.00,461.97 570.00,460.90 570.00,459.83 570.00,458.76 570.00,457.70 570.00,456.64 570.00,455.59 570.00,454.54 570.00,453.49 570.00,452.45 570.00,451.41 570.00,450.37 570.00,449.34 570.00,448.31 570.00,447.29 570.00,446.27 570.00,445.25 570.00,444.23 570.00,443.22 570.00,442.22 570.00,441.21 570.00,440.21 570.00,439.22 570.00,438.22 570.00,437.23 570.00,436.25 570.00,435.27 570.00,434.29 570.00,433.31 570.00,432.34 570.00,431.38 570.00,430.41 570.00,429.45 570.00,428.50 570.00,427.54 570.00,426.59 570.00,425.65 570.00,424.71 570.00,423.77 570.00,422.83 570.00,421.90 570.00,420.97 570.00,420.05 570.00,419.13 570.00,418.21 570.00,417.30 570.00,416.39 570.00,415.48 570.00,414.58 570.00,413.68 570.00,412.79 570.00,411.90 570.00,411.01 570.00,410.13 570.00,409.25 570.00,408.37 570.00,407.50 570.00,406.63 570.00,405.76 570.00,404.90 570.00,404.04 570.00,403.18 570.00,402.33 570.00,401.48 570.00,400.64 570.00,399.80 570.00,398.96 570.00,398.13 570.00,397.30 570.00,396.47 570.00,395.65 570.00,394.83 570.00,394.01 570.00,393.20 570.00,392.39 570.00,391.59 570.00,390.79 570.00,389.99 570.00,389.20 570.00,388.41 570.00,387.62 570.00,386.84 570.00,386.06 570.00,385.28 570.00,384.51 570.00,383.74 570.00,382.98 570.00,382.22 570.00,381.46 570.00,380.71 570.00,379.96 570.00,379.21 570.00,378.47 570.00,377.73 570.00,376.99 570.00,376.26 570.00,375.53 570.00,374.80 570.00,374.08 570.00,373.37 570.00,372.65 570.00,371.94 570.00,371.23 570.00,370.53 570.00,369.83 570.00,369.13 570.00,368.44 570.00,367.75 570.00,367.07 570.00,366.39 570.00,365.71 570.00,365.03 570.00,364.36 570.00,363.70 570.00,363.03 570.00,362.37 570.00,361.72 570.00,361.06 570.00,360.42 570.00,359.77 570.00,359.13 570.00,358.49 570.00,357.86 570.00,357.22 570.00,356.60 570.00,355.97 570.00,355.35 570.00,354.74 570.00,354.12 570.00,353.51 570.00,352.91 570.00,352.31 570.00,351.71 570.00,351.11 570.00,350.52 570.00,349.94 570.00,349.35 570.00,348.77 570.00,348.19 570.00,347.62 570.00,347.05 570.00,346.49 570.00,345.92 570.00,345.36 570.00,344.81 570.00,344.26 570.00,343.71 570.00,343.17 570.00,342.63 570.00,342.09 570.00,341.56 570.00,341.03 570.00,340.50 570.00,339.98 570.00,339.46 570.00,338.94 570.00,338.43 570.00,337.92 570.00,337.42 570.00,336.92 570.00,336.42 570.00,335.93 570.00,335.44 570.00,334.95 570.00,334.47 570.00,333.99 570.00,333.51 570.00,333.04 570.00,332.57 570.00,332.11 570.00,331.65 570.00,331.19 570.00,330.74 570.00,330.29 570.00,329.84 570.00,329.40 570.00,328.96 570.00,328.52 570.00,328.09 570.00,327.66 570.00,327.24 570.00,326.82 570.00,326.40 570.00,325.99 570.00,325.58 570.00,325.17 570.00,324.77 570.00,324.37 570.00,323.97 570.00,323.58 570.00,323.19 570.00,322.80 570.00,322.42 570.00,322.05 570.00,321.67 570.00,321.30 570.00,320.93 570.00,320.57 570.00,320.21 570.00,319.85 570.00,319.50 570.00,319.15 570.00,318.81 570.00,318.47 570.00,318.13 570.00,317.79 570.00,317.46 570.00,317.14 570.00,316.81 570.00,316.49 570.00,316.18 570.00,315.86 570.00,315.55 570.00,315.25 570.00,314.95 570.00,314.65 570.00,314.35 570.00,314.06 570.00,313.78 570.00,313.49 570.00,313.21 570.00,312.94 570.00,312.66 570.00,312.39 570.00,312.13 570.00,311.87 570.00,311.61 570.00,311.35 570.00,311.10 570.00,310.85 570.00,310.61 570.00,310.37 570.00,310.13 570.00,309.90 570.00,309.67 570.00,309.44 570.00,309.22 570.00,309.00 570.00,308.79 570.00,308.58 570.00,308.37 570.00,308.16 570.00,307.96 570.00,307.77 570.00,307.57 570.00,307.38 570.00,307.20 570.00,307.02 570.00,306.84 570.00,306.66 570.00,306.49 570.00,306.32 570.00,306.16 570.00,306.00 570.00,305.84 570.00,305.69 570.00,305.54 570.00,305.39 570.00,305.25 570.00,305.11 570.00,304.97 570.00,304.84 570.00,304.71 570.00,304.59 570.00,304.47 570.00,304.35 570.00,304.24 570.00,304.12 570.00,304.02 570.00,303.92 570.00,303.82 570.00,303.72 570.00,303.63 570.00,303.54 570.00,303.46 570.00,303.37 570.00,303.30 570.00,303.22 570.00,303.15 570.00,303.09 570.00,303.02 570.00,302.96 570.00,302.91 570.00,302.85 570.00,302.81 570.00,302.76 570.00,302.72 570.00,302.68 570.00,302.65 570.00,302.62 570.00,302.59 570.00,302.57 570.00,302.55 570.00,302.53 570.00,302.52 570.00,302.51 570.00,302.50 570.00,302.50 570.00,302.50 570.00,302.51 570.00,302.52 570.00,302.53 570.00,302.55 570.00,302.57 570.00,302.59 570.00,302.62 570.00,302.65 570.00,302.68 570.00,302.72 570.00,302.76 570.00,302.81 570.00,302.86 570.00,302.91 570.00,302.97 570.00,303.03 570.00,303.09 570.00,303.16 570.00,303.23 570.00,303.30 570.00,303.38 570.00,303.46 570.00,303.55 570.00,303.64 570.00,303.73 570.00,303.82 570.00,303.92 570.00,304.03 570.00,304.13 570.00,304.24 570.00,304.36 570.00,304.48 570.00,304.60 570.00,304.72 570.00,304.85 570.00,304.98 570.00,305.12 570.00,305.26 570.00,305.40 570.00,305.55 570.00,305.70 570.00,305.85 570.00,306.01 570.00,306.17 570.00,306.34 570.00,306.50 570.00,306.68 570.00,306.85 570.00,307.03 570.00,307.21 570.00,307.40 570.00,307.59 570.00,307.78 570.00,307.98 570.00,308.18 570.00,308.39 570.00,308.59 570.00,308.81 570.00,309.02 570.00,309.24 570.00,309.46 570.00,309.69 570.00,309.92 570.00,310.15 570.00,310.39 570.00,310.63 570.00,310.87 570.00,311.12 570.00,311.37 570.00,311.63 570.00,311.89 570.00,312.15 570.00,312.42 570.00,312.69 570.00,312.96 570.00,313.24 570.00,313.52 570.00,313.80 570.00,314.09 570.00,314.38 570.00,314.67 570.00,314.97 570.00,315.28 570.00,315.58 570.00,315.89 570.00,316.20 570.00,316.52 570.00,316.84 570.00,317.16 570.00,317.49 570.00,317.82 570.00,318.16 570.00,318.50 570.00,318.84 570.00,319.18 570.00,319.53 570.00,319.88 570.00,320.24 570.00,320.60 570.00,320.96 570.00,321.33 570.00,321.70 570.00,322.08 570.00,322.46 570.00,322.84 570.00,323.22 570.00,323.61 570.00,324.00 570.00,324.40 570.00,324.80 570.00,325.20 570.00,325.61 570.00,326.02 570.00,326.44 570.00,326.85 570.00,327.28 570.00,327.70 570.00,328.13 570.00,328.56 570.00,329.00 570.00,329.44 570.00,329.88 570.00,330.33 570.00,330.78 570.00,331.23 570.00,331.69 570.00,332.15 570.00,332.62 570.00,333.08 570.00,333.56 570.00,334.03 570.00,334.51 570.00,334.99 570.00,335.48 570.00,335.97 570.00,336.46 570.00,336.96 570.00,337.46 570.00,337.97 570.00,338.48 570.00,338.99 570.00,339.50 570.00,340.02 570.00,340.55 570.00,341.07 570.00,341.60 570.00,342.14 570.00,342.67 570.00,343.21 570.00,343.76 570.00,344.31 570.00,344.86 570.00,345.41 570.00,345.97 570.00,346.53 570.00,347.10 570.00,347.67 570.00,348.24 570.00,348.82 570.00,349.40 570.00,349.99 570.00,350.57 570.00,351.17 570.00,351.76 570.00,352.36 570.00,352.96 570.00,353.57 570.00,354.18 570.00,354.79 570.00,355.41 570.00,356.03 570.00,356.65 570.00,357.28 570.00,357.91 570.00,358.55 570.00,359.18 570.00,359.83 570.00,360.47 570.00,361.12 570.00,361.77 570.00,362.43 570.00,363.09 570.00,363.75 570.00,364.42 570.00,365.09 570.00,365.77 570.00,366.45 570.00,367.13 570.00,367.81 570.00,368.50 570.00,369.20 570.00,369.89 570.00,370.59 570.00,371.30 570.00,372.00 570.00,372.71 570.00,373.43 570.00,374.15 570.00,374.87 570.00,375.59 570.00,376.32 570.00,377.05 570.00,377.79 570.00,378.53 570.00,379.27 570.00,380.02 570.00,380.77 570.00,381.53 570.00,382.28 570.00,383.04 570.00,383.81 570.00,384.58 570.00,385.35 570.00,386.13 570.00,386.91 570.00,387.69 570.00,388.48 570.00,389.27 570.00,390.06 570.00,390.86 570.00,391.66 570.00,392.46 570.00,393.27 570.00,394.09 570.00,394.90 570.00,395.72 570.00,396.54 570.00,397.37 570.00,398.20 570.00,399.03 570.00,399.87 570.00,400.71 570.00,401.56 570.00,402.41 570.00,403.26 570.00,404.11 570.00,404.97 570.00,405.83 570.00,406.70 570.00,407.57 570.00,408.44 570.00,409.32 570.00,410.20 570.00,411.09 570.00,411.98 570.00,412.87 570.00,413.76 570.00,414.66 570.00,415.56 570.00,416.47 570.00,417.38 570.00,418.29 570.00,419.21 570.00,420.13 570.00,421.05 570.00,421.98 570.00,422.91 570.00,423.85 570.00,424.79 570.00,425.73 570.00,426.68 570.00,427.63 570.00,428.58 570.00,429.54 570.00,430.50 570.00,431.46 570.00,432.43 570.00,433.40 570.00,434.37 570.00,435.35 570.00,436.33 570.00,437.32 570.00,438.31 570.00,439.30 570.00,440.30 570.00,441.30 570.00,442.30 570.00,443.31 570.00,444.32 570.00,445.34 570.00,446.35 570.00,447.38 570.00,448.40 570.00,449.43 570.00,450.46 570.00,451.50 570.00,452.54 570.00,453.58 570.00,454.63 570.00,455.68 570.00,456.74 570.00,457.79 570.00,458.85 570.00,459.92 570.00,460.99 570.00,462.06 570.00,463.14 570.00,464.22 570.00,465.30 570.00,466.39 570.00,467.48 570.00,468.57 570.00,469.67 570.00,470.77 570.00,471.88 570.00,472.99 570.00,474.10 570.00,475.21 570.00,476.33 570.00,477.46 570.00,478.58 570.00,479.71 570.00,480.85 570.00,481.99 570.00,483.13 570.00,484.27 570.00,485.42 570.00,486.57 570.00,487.73 570.00,488.89 570.00,490.05 570.00,491.22 570.00,492.39 570.00,493.56 570.00,494.74 570.00,495.92 570.00,497.10 570.00,498.29 570.00,499.48 570.00,500.68 570.00,501.88 570.00,503.08 570.00,504.29 570.00,505.50 570.00,506.71 570.00,507.93 570.00,509.15 570.00,510.37 570.00,511.60 570.00,512.83 570.00,514.07 570.00,515.31 570.00,516.55 570.00,517.80 570.00,519.05 570.00,520.30 570.00,521.56 570.00,522.82 570.00,524.08 570.00,525.35 570.00,526.62 570.00,527.89 570.00,529.17 570.00,530.46 570.00,531.74 570.00,533.03 570.00,534.32 570.00,535.62 570.00,536.92 570.00,538.23 570.00,539.53 570.00,540.84 570.00,542.16 570.00,543.48 570.00,544.80 570.00,546.12 570.00,547.45 570.00,548.79 570.00,550.12 570.00,551.46 570.00,552.81 570.00,554.16 570.00,555.51 570.00,556.86 570.00,558.22 570.00,559.58 570.00,560.95 570.00,562.32 570.00,563.69 570.00,565.06 570.00,566.44 570.00,567.83 570.00,569.21 570.00,570.61 570.00,572.00 570.00,573.40 570.00,574.80 570.00,576.20 570.00,577.61 570.00,579.03 570.00,580.44 570.00,581.86 570.00,583.29 570.00,584.71 570.00,586.14 570.00,587.58 570.00,589.01 570.00,590.46 570.00,591.90 570.00,593.35 570.00,594.80 570.00,596.26 570.00,597.72 570.00,599.18 570.00,600.65 570.00,602.12 570.00,603.59 570.00,603.27 570.00,602.94 570.00,602.63 570.00,602.31 570.00,602.00 570.00,601.69 570.00,601.39 570.00,601.09 570.00,600.79 570.00,600.50 570.00,598.72 570.00,596.95 570.00,595.18 570.00,593.41 570.00,591.65 570.00,589.89 570.00,588.13 570.00,586.38 570.00,584.63 570.00,582.89 570.00,581.14 570.00,579.41 570.00,577.67 570.00,575.94 570.00,574.21 570.00,572.49 570.00,570.77 570.00,569.05 570.00,567.34 570.00,565.63 570.00,563.93 570.00,562.22 570.00,560.53 570.00,558.83 570.00,557.14 570.00,555.45 570.00,553.77 570.00,552.09 570.00,550.41 570.00,548.74 570.00,547.07 570.00,545.41 570.00,543.74 570.00,542.09 570.00,540.43 570.00,538.78 570.00,537.13 570.00,535.49 570.00,533.85 570.00,532.21 570.00,530.58 570.00,528.95 570.00,527.32 570.00,525.70 570.00,524.08 570.00,522.47 570.00,520.86 570.00,519.25 570.00,517.64 570.00,516.04 570.00,514.45 570.00,512.85 570.00,511.26 570.00,509.68 570.00,508.09 570.00,506.52 570.00,504.94 570.00,503.37 570.00,501.80 570.00,500.24 570.00,498.68 570.00,497.12 570.00,495.56 570.00,494.01 570.00,492.47 570.00,490.93 570.00,489.39 570.00,487.85 570.00,486.32 570.00,484.79 570.00,483.27 570.00,481.75 570.00,480.23 570.00,478.71 570.00,477.20 570.00,475.70 570.00,474.20 570.00,472.70 570.00,471.20 570.00,469.71 570.00,468.22 570.00,466.73 570.00,465.25 570.00,463.78 570.00,462.30 570.00,460.83 570.00,459.37 570.00,457.90 570.00,456.44 570.00,454.99 570.00,453.53 570.00,452.09 570.00,450.64 570.00,449.20 570.00,447.76 570.00,446.33 570.00,444.90 570.00,443.47 570.00,442.05 570.00,440.63 570.00,439.21 570.00,437.80 570.00,436.39 570.00,434.98 570.00,433.58 570.00,432.18 570.00,430.79 570.00,429.40 570.00,428.01 570.00,426.63 570.00,425.25 570.00,423.87 570.00,422.50 570.00,421.13 570.00,419.77 570.00,418.40 570.00,417.05 570.00,415.69 570.00,414.34 570.00,412.99 570.00,411.65 570.00,410.31 570.00,408.97 570.00,407.64 570.00,406.31 570.00,404.98 570.00,403.66 570.00,402.34 570.00,401.03 570.00,399.72 570.00,398.41 570.00,397.11 570.00,395.81 570.00,394.51 570.00,393.22 570.00,391.93 570.00,390.64 570.00,389.36 570.00,388.08 570.00,386.80 570.00,385.53 570.00,384.27 570.00,383.00 570.00,381.74 570.00,380.48 570.00,379.23 570.00,377.98 570.00,376.73 570.00,375.49 570.00,374.25 570.00,373.02 570.00,371.79 570.00,370.56 570.00,369.33 570.00,368.11 570.00,366.90 570.00,365.68 570.00,364.47 570.00,363.27 570.00,362.06 570.00,360.86 570.00,359.67 570.00,358.48 570.00,357.29 570.00,356.10 570.00,354.92 570.00,353.75 570.00,352.57 570.00,351.40 570.00,350.24 570.00,349.07 570.00,347.91 570.00,346.76 570.00,345.61 570.00,344.46 570.00,343.31 570.00,342.17 570.00,341.03 570.00,339.90 570.00,338.77 570.00,337.64 570.00,336.52 570.00,335.40 570.00,334.28 570.00,333.17 570.00,332.06 570.00,330.96 570.00,329.86 570.00,328.76 570.00,327.66 570.00,326.57 570.00,325.49 570.00,324.40 570.00,323.32 570.00,322.25 570.00,321.17 570.00,320.11 570.00,319.04 570.00,317.98 570.00,316.92 570.00,315.87 570.00,314.82 570.00,313.77 570.00,312.72 570.00,311.68 570.00,310.65 570.00,309.62 570.00,308.59 570.00,307.56 570.00,306.54 570.00,305.52 570.00,304.51 570.00,303.50 570.00,302.49 570.00,301.48 570.00,300.48 570.00,299.49 570.00,298.49 570.00,297.51 570.00,296.52 570.00,295.54 570.00,294.56 570.00,293.58 570.00,292.61 570.00,291.65 570.00,290.68 570.00,289.72 570.00,288.76 570.00,287.81 570.00,286.86 570.00,285.92 570.00,284.97 570.00,284.03 570.00,283.10 570.00,282.17 570.00,281.24 570.00,280.32 570.00,279.40 570.00,278.48 570.00,277.56 570.00,276.66 570.00,275.75 570.00,274.85 570.00,273.95 570.00,273.05 570.00,272.16 570.00,271.27 570.00,270.39 570.00,269.51 570.00,268.63 570.00,267.76 570.00,266.89 570.00,266.02 570.00,265.16 570.00,264.30 570.00,263.44 570.00,262.59 570.00,261.74 570.00,260.90 570.00,260.06 570.00,259.22 570.00,258.39 570.00,257.56 570.00,256.73 570.00,255.91 570.00,255.09 570.00,254.27 570.00,253.46 570.00,252.65 570.00,251.85 570.00,251.04 570.00,250.25 570.00,249.45 570.00,248.66 570.00,247.88 570.00,247.09 570.00,246.31 570.00,245.54 570.00,244.76 570.00,244.00 570.00,243.23 570.00,242.47 570.00,241.71 570.00,240.96 570.00,240.21 570.00,239.46 570.00,238.72 570.00,237.98 570.00,237.24 570.00,236.51 570.00,235.78 570.00,235.05 570.00,234.33 570.00,233.61 570.00,232.90 570.00,232.19 570.00,231.48 570.00,230.78 570.00,230.08 570.00,229.38 570.00,228.69 570.00,228.00 570.00,227.31 570.00,226.63 570.00,225.95 570.00,225.28 570.00,224.61 570.00,223.94 570.00,223.28 570.00,222.62 570.00,221.96 570.00,221.31 570.00,220.66 570.00,220.01 570.00,219.37 570.00,218.73 570.00,218.10 570.00,217.47 570.00,216.84 570.00,216.21 570.00,215.59 570.00,214.98 570.00,214.36 570.00,213.75 570.00,213.15 570.00,212.55 570.00,211.95 570.00,211.35 570.00,210.76 570.00,210.17 570.00,209.59 570.00,209.01 570.00,208.43 570.00,207.86 570.00,207.29 570.00,206.72 570.00,206.16 570.00,205.60 570.00,205.04 570.00,204.49 570.00,203.94 570.00,203.40 570.00,202.86 570.00,202.32 570.00,201.79 570.00,201.26 570.00,200.73 570.00,200.21 570.00,199.69 570.00,199.17 570.00,198.66 570.00,198.15 570.00,197.65 570.00,197.15 570.00,196.65 570.00,196.16 570.00,195.67 570.00,195.18 570.00,194.70 570.00,194.22 570.00,193.74 570.00,193.27 570.00,192.80 570.00,192.34 570.00,191.88 570.00,191.42 570.00,190.96 570.00,190.51 570.00,190.07 570.00,189.62 570.00,189.18 570.00,188.75 570.00,188.32 570.00,187.89 570.00,187.46 570.00,187.04 570.00,186.62 570.00,186.21 570.00,185.80 570.00,185.39 570.00,184.99 570.00,184.59 570.00,184.19 570.00,183.80 570.00,183.41 570.00,183.02 570.00,182.64 570.00,182.26 570.00,181.89 570.00,181.52 570.00,181.15 570.00,180.79 570.00,180.43 570.00,180.07 570.00,179.72 570.00,179.37 570.00,179.02 570.00,178.68 570.00,178.34 570.00,178.01 570.00,177.68 570.00,177.35 570.00,177.03 570.00,176.71 570.00,176.39 570.00,176.08 570.00,175.77 570.00,175.46 570.00,175.16 570.00,174.86 570.00,174.57 570.00,174.28 570.00,173.99 570.00,173.70 570.00,173.42 570.00,173.15 570.00,172.87 570.00,172.60 570.00,172.34 570.00,172.08 570.00,171.82 570.00,171.56 570.00,171.31 570.00,171.06 570.00,170.82 570.00,170.58 570.00,170.34 570.00,170.11 570.00,169.88 570.00,169.65 570.00,169.43 570.00,169.21 570.00,168.99 570.00,168.78 570.00,168.57 570.00,168.37 570.00,168.17 570.00,167.97 570.00,167.78 570.00,167.59 570.00,167.40 570.00,167.22 570.00,167.04 570.00,166.86 570.00,166.69 570.00,166.52 570.00,166.36 570.00,166.20 570.00,166.04 570.00,165.89 570.00,165.74 570.00,165.59 570.00,165.45 570.00,165.31 570.00,165.17 570.00,165.04 570.00,164.91 570.00,164.79 570.00,164.66 570.00,164.55 570.00,164.43 570.00,164.32 570.00,164.22 570.00,164.11 570.00,164.01 570.00,163.92 570.00,163.82 570.00,163.74 570.00,163.65 570.00,163.57 570.00,163.49 570.00,163.42 570.00,163.35 570.00,163.28 570.00,163.22 570.00,163.16 570.00,163.10 570.00,163.05 570.00,163.00 570.00,162.95 570.00,162.91 570.00,162.87 570.00,162.84 570.00,162.81 570.00,162.78 570.00,162.76 570.00,162.74 570.00,162.72 570.00,162.71 570.00,162.70 570.00,162.69 570.00,162.69 570.00,162.69 570.00,162.70 570.00,162.71 570.00,162.72 570.00,162.73 570.00,162.75 570.00,162.78 570.00,162.80 570.00,162.84 570.00,162.87 570.00,162.91 570.00,162.95 570.00,162.99 570.00,163.04 570.00,163.09 570.00,163.15 570.00,163.21 570.00,163.27 570.00,163.34 570.00,163.41 570.00,163.48 570.00,163.56 570.00,163.64 570.00,163.73 570.00,163.82 570.00,163.91 570.00,164.00 570.00,164.10 570.00,164.21 570.00,164.31 570.00,164.42 570.00,164.54 570.00,164.65 570.00,164.78 570.00,164.90 570.00,165.03 570.00,165.16 570.00,165.30 570.00,165.43" fill="none" stroke="#2563eb" stroke-width="1.4" stroke-dasharray="3,3" opacity="0.6"/>
<line x1="504.16" y1="125.01" x2="635.84" y2="91.38" stroke="#2563eb" stroke-width="2.2" stroke-linecap="round" opacity="0.30"/>
<line x1="504.16" y1="162.51" x2="635.84" y2="128.88" stroke="#2563eb" stroke-width="2.2" stroke-linecap="round" opacity="0.33"/>
<line x1="504.16" y1="275.00" x2="635.84" y2="241.38" stroke="#2563eb" stroke-width="2.2" stroke-linecap="round" opacity="0.36"/>
<line x1="504.16" y1="462.49" x2="635.84" y2="428.87" stroke="#2563eb" stroke-width="2.2" stroke-linecap="round" opacity="0.39"/>
<line x1="504.99" y1="558.22" x2="635.01" y2="518.63" stroke="#2563eb" stroke-width="2.2" stroke-linecap="round" opacity="0.42"/>
<line x1="510.79" y1="355.39" x2="629.21" y2="288.68" stroke="#2563eb" stroke-width="2.2" stroke-linecap="round" opacity="0.45"/>
<line x1="519.38" y1="225.98" x2="620.62" y2="135.31" stroke="#2563eb" stroke-width="2.2" stroke-linecap="round" opacity="0.48"/>
<line x1="530.35" y1="169.44" x2="609.65" y2="59.06" stroke="#2563eb" stroke-width="2.2" stroke-linecap="round" opacity="0.51"/>
<line x1="543.19" y1="185.29" x2="596.81" y2="60.41" stroke="#2563eb" stroke-width="2.2" stroke-linecap="round" opacity="0.54"/>
<line x1="557.28" y1="273.20" x2="582.72" y2="139.69" stroke="#2563eb" stroke-width="2.2" stroke-linecap="round" opacity="0.57"/>
<line x1="571.98" y1="432.96" x2="568.02" y2="297.11" stroke="#2563eb" stroke-width="2.2" stroke-linecap="round" opacity="0.60"/>
<line x1="625.83" y1="558.93" x2="514.17" y2="481.45" stroke="#2563eb" stroke-width="2.2" stroke-linecap="round" opacity="0.63"/>
<line x1="514.04" y1="415.54" x2="625.96" y2="338.44" stroke="#2563eb" stroke-width="2.2" stroke-linecap="round" opacity="0.66"/>
<line x1="553.71" y1="242.82" x2="586.29" y2="374.76" stroke="#2563eb" stroke-width="2.2" stroke-linecap="round" opacity="0.69"/>
<line x1="637.47" y1="323.65" x2="502.53" y2="307.51" stroke="#2563eb" stroke-width="2.2" stroke-linecap="round" opacity="0.72"/>
<line x1="538.62" y1="457.64" x2="601.38" y2="337.10" stroke="#2563eb" stroke-width="2.2" stroke-linecap="round" opacity="0.75"/>
<line x1="524.70" y1="503.50" x2="615.30" y2="604.81" stroke="#2563eb" stroke-width="2.2" stroke-linecap="round" opacity="0.78"/>
<line x1="553.50" y1="507.97" x2="586.50" y2="376.13" stroke="#2563eb" stroke-width="2.2" stroke-linecap="round" opacity="0.81"/>
<line x1="630.01" y1="242.97" x2="509.99" y2="306.73" stroke="#2563eb" stroke-width="2.2" stroke-linecap="round" opacity="0.84"/>
<line x1="506.14" y1="159.41" x2="633.86" y2="205.88" stroke="#2563eb" stroke-width="2.2" stroke-linecap="round" opacity="0.87"/>
<line x1="595.50" y1="228.42" x2="544.50" y2="102.45" stroke="#2563eb" stroke-width="2.2" stroke-linecap="round" opacity="0.90"/>
<line x1="595.50" y1="228.42" x2="544.50" y2="102.45" stroke="#2563eb" stroke-width="3.6" stroke-linecap="round"/>
<circle cx="570.00" cy="165.43" r="4" fill="#111827"/>
</svg>
