<svg xmlns="http://www.w3.org/2000/svg" width="1100" height="700" viewBox="0 0 1100 700">
<rect width="100%" height="100%" fill="#f8fafc"/>
<text x="80" y="32" font-family="Arial, sans-serif" font-size="24" fill="#111827">Spinning Rod Thrown Under Gravity: Energy</text>
<line x1="80.00" y1="620.00" x2="1060.00" y2="620.00" stroke="#374151" stroke-width="2"/>
<line x1="80.00" y1="620.00" x2="80.00" y2="50.00" stroke="#374151" stroke-width="2"/>
<text x="550.00" y="672" text-anchor="middle" font-family="Arial, sans-serif" font-size="16" fill="#374151">time (s)</text>
<text x="22" y="350.00" text-anchor="middle" transform="rotate(-90 22 350.00)" font-family="Arial, sans-serif" font-size="16" fill="#374151">energy (J)</text>
<text x="80" y="646" font-family="Arial, sans-serif" font-size="13" fill="#6b7280">0.00</text>
<text x="1060" y="646" text-anchor="end" font-family="Arial, sans-serif" font-size="13" fill="#6b7280">1.20</text>
<text x="68" y="620.00" text-anchor="end" dominant-baseline="middle" font-family="Arial, sans-serif" font-size="13" fill="#6b7280">-2.27</text>
<text x="68" y="50.00" text-anchor="end" dominant-baseline="middle" font-family="Arial, sans-serif" font-size="13" fill="#6b7280">24.93</text>
<polyline points="80.00,97.50 81.70,100.07 83.40,102.62 85.10,105.17 86.81,107.71 88.51,110.24 90.21,112.76 91.91,115.27 93.61,117.78 95.31,120.27 97.01,122.76 98.72,125.24 100.42,127.71 102.12,130.17 103.82,132.62 105.52,135.06 107.22,137.50 108.92,139.92 110.62,142.34 112.33,144.74 114.03,147.14 115.73,149.53 117.43,151.92 119.13,154.29 120.83,156.65 122.53,159.01 124.24,161.35 125.94,163.69 127.64,166.02 129.34,168.34 131.04,170.65 132.74,172.96 134.44,175.25 136.15,177.53 137.85,179.81 139.55,182.08 141.25,184.34 142.95,186.59 144.65,188.83 146.35,191.06 148.06,193.29 149.76,195.50 151.46,197.71 153.16,199.91 154.86,202.09 156.56,204.27 158.26,206.45 159.97,208.61 161.67,210.76 163.37,212.91 165.07,215.04 166.77,217.17 168.47,219.29 170.17,221.40 171.88,223.50 173.58,225.60 175.28,227.68 176.98,229.75 178.68,231.82 180.38,233.88 182.08,235.93 183.78,237.97 185.49,240.00 187.19,242.02 188.89,244.04 190.59,246.04 192.29,248.04 193.99,250.02 195.69,252.00 197.40,253.97 199.10,255.93 200.80,257.89 202.50,259.83 204.20,261.77 205.90,263.69 207.60,265.61 209.31,267.52 211.01,269.42 212.71,271.31 214.41,273.19 216.11,275.07 217.81,276.93 219.51,278.79 221.22,280.64 222.92,282.48 224.62,284.31 226.32,286.13 228.02,287.94 229.72,289.74 231.42,291.54 233.12,293.32 234.83,295.10 236.53,296.87 238.23,298.63 239.93,300.38 241.63,302.12 243.33,303.86 245.03,305.58 246.74,307.30 248.44,309.01 250.14,310.71 251.84,312.40 253.54,314.08 255.24,315.75 256.94,317.41 258.65,319.07 260.35,320.71 262.05,322.35 263.75,323.98 265.45,325.60 267.15,327.21 268.85,328.81 270.56,330.41 272.26,331.99 273.96,333.57 275.66,335.14 277.36,336.70 279.06,338.25 280.76,339.79 282.47,341.32 284.17,342.84 285.87,344.36 287.57,345.86 289.27,347.36 290.97,348.85 292.67,350.33 294.38,351.80 296.08,353.26 297.78,354.72 299.48,356.16 301.18,357.60 302.88,359.03 304.58,360.45 306.28,361.86 307.99,363.26 309.69,364.65 311.39,366.03 313.09,367.41 314.79,368.77 316.49,370.13 318.19,371.48 319.90,372.82 321.60,374.15 323.30,375.47 325.00,376.79 326.70,378.09 328.40,379.39 330.10,380.68 331.81,381.95 333.51,383.22 335.21,384.48 336.91,385.74 338.61,386.98 340.31,388.22 342.01,389.44 343.72,390.66 345.42,391.87 347.12,393.07 348.82,394.26 350.52,395.44 352.22,396.61 353.92,397.78 355.63,398.94 357.33,400.08 359.03,401.22 360.73,402.35 362.43,403.47 364.13,404.58 365.83,405.69 367.53,406.78 369.24,407.87 370.94,408.95 372.64,410.02 374.34,411.08 376.04,412.13 377.74,413.17 379.44,414.20 381.15,415.23 382.85,416.24 384.55,417.25 386.25,418.25 387.95,419.24 389.65,420.22 391.35,421.19 393.06,422.16 394.76,423.11 396.46,424.06 398.16,424.99 399.86,425.92 401.56,426.84 403.26,427.75 404.97,428.65 406.67,429.55 408.37,430.43 410.07,431.31 411.77,432.18 413.47,433.03 415.17,433.88 416.88,434.73 418.58,435.56 420.28,436.38 421.98,437.20 423.68,438.00 425.38,438.80 427.08,439.59 428.78,440.37 430.49,441.14 432.19,441.90 433.89,442.65 435.59,443.40 437.29,444.13 438.99,444.86 440.69,445.58 442.40,446.29 444.10,446.99 445.80,447.68 447.50,448.37 449.20,449.04 450.90,449.71 452.60,450.36 454.31,451.01 456.01,451.65 457.71,452.28 459.41,452.91 461.11,453.52 462.81,454.12 464.51,454.72 466.22,455.31 467.92,455.88 469.62,456.45 471.32,457.02 473.02,457.57 474.72,458.11 476.42,458.65 478.12,459.17 479.83,459.69 481.53,460.20 483.23,460.70 484.93,461.19 486.63,461.67 488.33,462.14 490.03,462.61 491.74,463.06 493.44,463.51 495.14,463.95 496.84,464.38 498.54,464.80 500.24,465.21 501.94,465.61 503.65,466.01 505.35,466.39 507.05,466.77 508.75,467.14 510.45,467.50 512.15,467.85 513.85,468.19 515.56,468.53 517.26,468.85 518.96,469.17 520.66,469.47 522.36,469.77 524.06,470.06 525.76,470.34 527.47,470.61 529.17,470.88 530.87,471.13 532.57,471.38 534.27,471.61 535.97,471.84 537.67,472.06 539.38,472.27 541.08,472.47 542.78,472.67 544.48,472.85 546.18,473.03 547.88,473.20 549.58,473.35 551.28,473.50 552.99,473.64 554.69,473.78 556.39,473.90 558.09,474.01 559.79,474.12 561.49,474.22 563.19,474.30 564.90,474.38 566.60,474.45 568.30,474.52 570.00,474.57 571.70,474.61 573.40,474.65 575.10,474.68 576.81,474.69 578.51,474.70 580.21,474.71 581.91,474.70 583.61,474.68 585.31,474.65 587.01,474.62 588.72,474.58 590.42,474.53 592.12,474.46 593.82,474.40 595.52,474.32 597.22,474.23 598.92,474.13 600.62,474.03 602.33,473.92 604.03,473.80 605.73,473.66 607.43,473.53 609.13,473.38 610.83,473.22 612.53,473.05 614.24,472.88 615.94,472.70 617.64,472.51 619.34,472.30 621.04,472.10 622.74,471.88 624.44,471.65 626.15,471.41 627.85,471.17 629.55,470.92 631.25,470.66 632.95,470.38 634.65,470.11 636.35,469.82 638.06,469.52 639.76,469.21 641.46,468.90 643.16,468.58 644.86,468.25 646.56,467.90 648.26,467.55 649.97,467.20 651.67,466.83 653.37,466.45 655.07,466.07 656.77,465.68 658.47,465.27 660.17,464.86 661.88,464.44 663.58,464.02 665.28,463.58 666.98,463.13 668.68,462.68 670.38,462.22 672.08,461.74 673.78,461.26 675.49,460.77 677.19,460.28 678.89,459.77 680.59,459.25 682.29,458.73 683.99,458.19 685.69,457.65 687.40,457.10 689.10,456.54 690.80,455.97 692.50,455.40 694.20,454.81 695.90,454.22 697.60,453.61 699.31,453.00 701.01,452.38 702.71,451.75 704.41,451.11 706.11,450.47 707.81,449.81 709.51,449.15 711.22,448.47 712.92,447.79 714.62,447.10 716.32,446.40 718.02,445.69 719.72,444.97 721.42,444.25 723.12,443.51 724.83,442.77 726.53,442.02 728.23,441.26 729.93,440.49 731.63,439.71 733.33,438.92 735.03,438.13 736.74,437.32 738.44,436.51 740.14,435.69 741.84,434.86 743.54,434.02 745.24,433.17 746.94,432.31 748.65,431.44 750.35,430.57 752.05,429.69 753.75,428.79 755.45,427.89 757.15,426.98 758.85,426.07 760.56,425.14 762.26,424.20 763.96,423.26 765.66,422.30 767.36,421.34 769.06,420.37 770.76,419.39 772.47,418.40 774.17,417.41 775.87,416.40 777.57,415.39 779.27,414.36 780.97,413.33 782.67,412.29 784.38,411.24 786.08,410.18 787.78,409.11 789.48,408.04 791.18,406.95 792.88,405.86 794.58,404.76 796.28,403.65 797.99,402.53 799.69,401.40 801.39,400.26 803.09,399.12 804.79,397.96 806.49,396.80 808.19,395.62 809.90,394.44 811.60,393.25 813.30,392.06 815.00,390.85 816.70,389.63 818.40,388.41 820.10,387.17 821.81,385.93 823.51,384.68 825.21,383.42 826.91,382.15 828.61,380.88 830.31,379.59 832.01,378.29 833.72,376.99 835.42,375.68 837.12,374.36 838.82,373.03 840.52,371.69 842.22,370.34 843.92,368.99 845.62,367.62 847.33,366.25 849.03,364.87 850.73,363.47 852.43,362.07 854.13,360.67 855.83,359.25 857.53,357.82 859.24,356.39 860.94,354.94 862.64,353.49 864.34,352.03 866.04,350.56 867.74,349.08 869.44,347.59 871.15,346.10 872.85,344.59 874.55,343.08 876.25,341.56 877.95,340.03 879.65,338.49 881.35,336.94 883.06,335.38 884.76,333.81 886.46,332.24 888.16,330.66 889.86,329.06 891.56,327.46 893.26,325.85 894.97,324.23 896.67,322.61 898.37,320.97 900.07,319.33 901.77,317.67 903.47,316.01 905.17,314.34 906.88,312.66 908.58,310.97 910.28,309.27 911.98,307.57 913.68,305.85 915.38,304.13 917.08,302.40 918.78,300.65 920.49,298.90 922.19,297.15 923.89,295.38 925.59,293.60 927.29,291.82 928.99,290.02 930.69,288.22 932.40,286.41 934.10,284.59 935.80,282.76 937.50,280.92 939.20,279.08 940.90,277.22 942.60,275.36 944.31,273.49 946.01,271.61 947.71,269.72 949.41,267.82 951.11,265.91 952.81,263.99 954.51,262.07 956.22,260.13 957.92,258.19 959.62,256.24 961.32,254.28 963.02,252.31 964.72,250.33 966.42,248.35 968.12,246.35 969.83,244.35 971.53,242.34 973.23,240.31 974.93,238.28 976.63,236.25 978.33,234.20 980.03,232.14 981.74,230.08 983.44,228.00 985.14,225.92 986.84,223.83 988.54,221.73 990.24,219.62 991.94,217.50 993.65,215.38 995.35,213.24 997.05,211.10 998.75,208.95 1000.45,206.78 1002.15,204.61 1003.85,202.44 1005.56,200.25 1007.26,198.05 1008.96,195.85 1010.66,193.63 1012.36,191.41 1014.06,189.18 1015.76,186.94 1017.47,184.69 1019.17,182.43 1020.87,180.17 1022.57,177.89 1024.27,175.61 1025.97,173.31 1027.67,171.01 1029.38,168.70 1031.08,166.38 1032.78,164.06 1034.48,161.72 1036.18,159.37 1037.88,157.02 1039.58,154.66 1041.28,152.29 1042.99,149.91 1044.69,147.52 1046.39,145.12 1048.09,142.71 1049.79,140.30 1051.49,137.87 1053.19,135.44 1054.90,133.00 1056.60,130.55 1058.30,128.09 1060.00,125.62" fill="none" stroke="#dc2626" stroke-width="2.2" stroke-linejoin="round" stroke-linecap="round"/>
<rect x="880" y="62" width="18" height="4" fill="#dc2626"/>
<text x="904" y="67" font-family="Arial, sans-serif" font-size="15" fill="#111827">KE (J)</text>
<polyline points="80.00,572.50 81.70,569.93 83.40,567.38 85.10,564.83 86.81,562.29 88.51,559.76 90.21,557.24 91.91,554.73 93.61,552.22 95.31,549.73 97.01,547.24 98.72,544.76 100.42,542.29 102.12,539.83 103.82,537.38 105.52,534.94 107.22,532.50 108.92,530.08 110.62,527.66 112.33,525.26 114.03,522.86 115.73,520.47 117.43,518.08 119.13,515.71 120.83,513.35 122.53,510.99 124.24,508.65 125.94,506.31 127.64,503.98 129.34,501.66 131.04,499.35 132.74,497.04 134.44,494.75 136.15,492.47 137.85,490.19 139.55,487.92 141.25,485.66 142.95,483.41 144.65,481.17 146.35,478.94 148.06,476.71 149.76,474.50 151.46,472.29 153.16,470.09 154.86,467.91 156.56,465.73 158.26,463.55 159.97,461.39 161.67,459.24 163.37,457.09 165.07,454.96 166.77,452.83 168.47,450.71 170.17,448.60 171.88,446.50 173.58,444.40 175.28,442.32 176.98,440.25 178.68,438.18 180.38,436.12 182.08,434.07 183.78,432.03 185.49,430.00 187.19,427.98 188.89,425.96 190.59,423.96 192.29,421.96 193.99,419.98 195.69,418.00 197.40,416.03 199.10,414.07 200.80,412.11 202.50,410.17 204.20,408.23 205.90,406.31 207.60,404.39 209.31,402.48 211.01,400.58 212.71,398.69 214.41,396.81 216.11,394.93 217.81,393.07 219.51,391.21 221.22,389.36 222.92,387.52 224.62,385.69 226.32,383.87 228.02,382.06 229.72,380.26 231.42,378.46 233.12,376.68 234.83,374.90 236.53,373.13 238.23,371.37 239.93,369.62 241.63,367.88 243.33,366.14 245.03,364.42 246.74,362.70 248.44,360.99 250.14,359.29 251.84,357.60 253.54,355.92 255.24,354.25 256.94,352.59 258.65,350.93 260.35,349.29 262.05,347.65 263.75,346.02 265.45,344.40 267.15,342.79 268.85,341.19 270.56,339.59 272.26,338.01 273.96,336.43 275.66,334.86 277.36,333.30 279.06,331.75 280.76,330.21 282.47,328.68 284.17,327.16 285.87,325.64 287.57,324.14 289.27,322.64 290.97,321.15 292.67,319.67 294.38,318.20 296.08,316.74 297.78,315.28 299.48,313.84 301.18,312.40 302.88,310.97 304.58,309.55 306.28,308.14 307.99,306.74 309.69,305.35 311.39,303.97 313.09,302.59 314.79,301.23 316.49,299.87 318.19,298.52 319.90,297.18 321.60,295.85 323.30,294.53 325.00,293.21 326.70,291.91 328.40,290.61 330.10,289.32 331.81,288.05 333.51,286.78 335.21,285.52 336.91,284.26 338.61,283.02 340.31,281.78 342.01,280.56 343.72,279.34 345.42,278.13 347.12,276.93 348.82,275.74 350.52,274.56 352.22,273.39 353.92,272.22 355.63,271.06 357.33,269.92 359.03,268.78 360.73,267.65 362.43,266.53 364.13,265.42 365.83,264.31 367.53,263.22 369.24,262.13 370.94,261.05 372.64,259.98 374.34,258.92 376.04,257.87 377.74,256.83 379.44,255.80 381.15,254.77 382.85,253.76 384.55,252.75 386.25,251.75 387.95,250.76 389.65,249.78 391.35,248.81 393.06,247.84 394.76,246.89 396.46,245.94 398.16,245.01 399.86,244.08 401.56,243.16 403.26,242.25 404.97,241.35 406.67,240.45 408.37,239.57 410.07,238.69 411.77,237.82 413.47,236.97 415.17,236.12 416.88,235.27 418.58,234.44 420.28,233.62 421.98,232.80 423.68,232.00 425.38,231.20 427.08,230.41 428.78,229.63 430.49,228.86 432.19,228.10 433.89,227.35 435.59,226.60 437.29,225.87 438.99,225.14 440.69,224.42 442.40,223.71 444.10,223.01 445.80,222.32 447.50,221.63 449.20,220.96 450.90,220.29 452.60,219.64 454.31,218.99 456.01,218.35 457.71,217.72 459.41,217.09 461.11,216.48 462.81,215.88 464.51,215.28 466.22,214.69 467.92,214.12 469.62,213.55 471.32,212.98 473.02,212.43 474.72,211.89 476.42,211.35 478.12,210.83 479.83,210.31 481.53,209.80 483.23,209.30 484.93,208.81 486.63,208.33 488.33,207.86 490.03,207.39 491.74,206.94 493.44,206.49 495.14,206.05 496.84,205.62 498.54,205.20 500.24,204.79 501.94,204.39 503.65,203.99 505.35,203.61 507.05,203.23 508.75,202.86 510.45,202.50 512.15,202.15 513.85,201.81 515.56,201.47 517.26,201.15 518.96,200.83 520.66,200.53 522.36,200.23 524.06,199.94 525.76,199.66 527.47,199.39 529.17,199.12 530.87,198.87 532.57,198.62 534.27,198.39 535.97,198.16 537.67,197.94 539.38,197.73 541.08,197.53 542.78,197.33 544.48,197.15 546.18,196.97 547.88,196.80 549.58,196.65 551.28,196.50 552.99,196.36 554.69,196.22 556.39,196.10 558.09,195.99 559.79,195.88 561.49,195.78 563.19,195.70 564.90,195.62 566.60,195.55 568.30,195.48 570.00,195.43 571.70,195.39 573.40,195.35 575.10,195.32 576.81,195.31 578.51,195.30 580.21,195.29 581.91,195.30 583.61,195.32 585.31,195.35 587.01,195.38 588.72,195.42 590.42,195.47 592.12,195.54 593.82,195.60 595.52,195.68 597.22,195.77 598.92,195.87 600.62,195.97 602.33,196.08 604.03,196.20 605.73,196.34 607.43,196.47 609.13,196.62 610.83,196.78 612.53,196.95 614.24,197.12 615.94,197.30 617.64,197.49 619.34,197.70 621.04,197.90 622.74,198.12 624.44,198.35 626.15,198.59 627.85,198.83 629.55,199.08 631.25,199.34 632.95,199.62 634.65,199.89 636.35,200.18 638.06,200.48 639.76,200.79 641.46,201.10 643.16,201.42 644.86,201.76 646.56,202.10 648.26,202.45 649.97,202.80 651.67,203.17 653.37,203.55 655.07,203.93 656.77,204.32 658.47,204.73 660.17,205.14 661.88,205.56 663.58,205.98 665.28,206.42 666.98,206.87 668.68,207.32 670.38,207.78 672.08,208.26 673.78,208.74 675.49,209.23 677.19,209.72 678.89,210.23 680.59,210.75 682.29,211.27 683.99,211.81 685.69,212.35 687.40,212.90 689.10,213.46 690.80,214.03 692.50,214.60 694.20,215.19 695.90,215.78 697.60,216.39 699.31,217.00 701.01,217.62 702.71,218.25 704.41,218.89 706.11,219.53 707.81,220.19 709.51,220.85 711.22,221.53 712.92,222.21 714.62,222.90 716.32,223.60 718.02,224.31 719.72,225.03 721.42,225.75 723.12,226.49 724.83,227.23 726.53,227.98 728.23,228.74 729.93,229.51 731.63,230.29 733.33,231.08 735.03,231.87 736.74,232.68 738.44,233.49 740.14,234.31 741.84,235.14 743.54,235.98 745.24,236.83 746.94,237.69 748.65,238.56 750.35,239.43 752.05,240.31 753.75,241.21 755.45,242.11 757.15,243.02 758.85,243.93 760.56,244.86 762.26,245.80 763.96,246.74 765.66,247.70 767.36,248.66 769.06,249.63 770.76,250.61 772.47,251.60 774.17,252.59 775.87,253.60 777.57,254.61 779.27,255.64 780.97,256.67 782.67,257.71 784.38,258.76 786.08,259.82 787.78,260.89 789.48,261.96 791.18,263.05 792.88,264.14 794.58,265.24 796.28,266.35 797.99,267.47 799.69,268.60 801.39,269.74 803.09,270.88 804.79,272.04 806.49,273.20 808.19,274.38 809.90,275.56 811.60,276.75 813.30,277.94 815.00,279.15 816.70,280.37 818.40,281.59 820.10,282.83 821.81,284.07 823.51,285.32 825.21,286.58 826.91,287.85 828.61,289.12 830.31,290.41 832.01,291.71 833.72,293.01 835.42,294.32 837.12,295.64 838.82,296.97 840.52,298.31 842.22,299.66 843.92,301.01 845.62,302.38 847.33,303.75 849.03,305.13 850.73,306.53 852.43,307.93 854.13,309.33 855.83,310.75 857.53,312.18 859.24,313.61 860.94,315.06 862.64,316.51 864.34,317.97 866.04,319.44 867.74,320.92 869.44,322.41 871.15,323.90 872.85,325.41 874.55,326.92 876.25,328.44 877.95,329.97 879.65,331.51 881.35,333.06 883.06,334.62 884.76,336.19 886.46,337.76 888.16,339.34 889.86,340.94 891.56,342.54 893.26,344.15 894.97,345.77 896.67,347.39 898.37,349.03 900.07,350.67 901.77,352.33 903.47,353.99 905.17,355.66 906.88,357.34 908.58,359.03 910.28,360.73 911.98,362.43 913.68,364.15 915.38,365.87 917.08,367.60 918.78,369.35 920.49,371.10 922.19,372.85 923.89,374.62 925.59,376.40 927.29,378.18 928.99,379.98 930.69,381.78 932.40,383.59 934.10,385.41 935.80,387.24 937.50,389.08 939.20,390.92 940.90,392.78 942.60,394.64 944.31,396.51 946.01,398.39 947.71,400.28 949.41,402.18 951.11,404.09 952.81,406.01 954.51,407.93 956.22,409.87 957.92,411.81 959.62,413.76 961.32,415.72 963.02,417.69 964.72,419.67 966.42,421.65 968.12,423.65 969.83,425.65 971.53,427.66 973.23,429.69 974.93,431.72 976.63,433.75 978.33,435.80 980.03,437.86 981.74,439.92 983.44,442.00 985.14,444.08 986.84,446.17 988.54,448.27 990.24,450.38 991.94,452.50 993.65,454.62 995.35,456.76 997.05,458.90 998.75,461.05 1000.45,463.22 1002.15,465.39 1003.85,467.56 1005.56,469.75 1007.26,471.95 1008.96,474.15 1010.66,476.37 1012.36,478.59 1014.06,480.82 1015.76,483.06 1017.47,485.31 1019.17,487.57 1020.87,489.83 1022.57,492.11 1024.27,494.39 1025.97,496.69 1027.67,498.99 1029.38,501.30 1031.08,503.62 1032.78,505.94 1034.48,508.28 1036.18,510.63 1037.88,512.98 1039.58,515.34 1041.28,517.71 1042.99,520.09 1044.69,522.48 1046.39,524.88 1048.09,527.29 1049.79,529.70 1051.49,532.13 1053.19,534.56 1054.90,537.00 1056.60,539.45 1058.30,541.91 1060.00,544.38" fill="none" stroke="#2563eb" stroke-width="2.2" stroke-linejoin="round" stroke-linecap="round"/>
<rect x="880" y="90" width="18" height="4" fill="#2563eb"/>
<text x="904" y="95" font-family="Arial, sans-serif" font-size="15" fill="#111827">PE (J)</text>
<polyline points="80.00,97.50 81.70,97.50 83.40,97.50 85.10,97.50 86.81,97.50 88.51,97.50 90.21,97.50 91.91,97.50 93.61,97.50 95.31,97.50 97.01,97.50 98.72,97.50 100.42,97.50 102.12,97.50 103.82,97.50 105.52,97.50 107.22,97.50 108.92,97.50 110.62,97.50 112.33,97.50 114.03,97.50 115.73,97.50 117.43,97.50 119.13,97.50 120.83,97.50 122.53,97.50 124.24,97.50 125.94,97.50 127.64,97.50 129.34,97.50 131.04,97.50 132.74,97.50 134.44,97.50 136.15,97.50 137.85,97.50 139.55,97.50 141.25,97.50 142.95,97.50 144.65,97.50 146.35,97.50 148.06,97.50 149.76,97.50 151.46,97.50 153.16,97.50 154.86,97.50 156.56,97.50 158.26,97.50 159.97,97.50 161.67,97.50 163.37,97.50 165.07,97.50 166.77,97.50 168.47,97.50 170.17,97.50 171.88,97.50 173.58,97.50 175.28,97.50 176.98,97.50 178.68,97.50 180.38,97.50 182.08,97.50 183.78,97.50 185.49,97.50 187.19,97.50 188.89,97.50 190.59,97.50 192.29,97.50 193.99,97.50 195.69,97.50 197.40,97.50 199.10,97.50 200.80,97.50 202.50,97.50 204.20,97.50 205.90,97.50 207.60,97.50 209.31,97.50 211.01,97.50 212.71,97.50 214.41,97.50 216.11,97.50 217.81,97.50 219.51,97.50 221.22,97.50 222.92,97.50 224.62,97.50 226.32,97.50 228.02,97.50 229.72,97.50 231.42,97.50 233.12,97.50 234.83,97.50 236.53,97.50 238.23,97.50 239.93,97.50 241.63,97.50 243.33,97.50 245.03,97.50 246.74,97.50 248.44,97.50 250.14,97.50 251.84,97.50 253.54,97.50 255.24,97.50 256.94,97.50 258.65,97.50 260.35,97.50 262.05,97.50 263.75,97.50 265.45,97.50 267.15,97.50 268.85,97.50 270.56,97.50 272.26,97.50 273.96,97.50 275.66,97.50 277.36,97.50 279.06,97.50 280.76,97.50 282.47,97.50 284.17,97.50 285.87,97.50 287.57,97.50 289.27,97.50 290.97,97.50 292.67,97.50 294.38,97.50 296.08,97.50 297.78,97.50 299.48,97.50 301.18,97.50 302.88,97.50 304.58,97.50 306.28,97.50 307.99,97.50 309.69,97.50 311.39,97.50 313.09,97.50 314.79,97.50 316.49,97.50 318.19,97.50 319.90,97.50 321.60,97.50 323.30,97.50 325.00,97.50 326.70,97.50 328.40,97.50 330.10,97.50 331.81,97.50 333.51,97.50 335.21,97.50 336.91,97.50 338.61,97.50 340.31,97.50 342.01,97.50 343.72,97.50 345.42,97.50 347.12,97.50 348.82,97.50 350.52,97.50 352.22,97.50 353.92,97.50 355.63,97.50 357.33,97.50 359.03,97.50 360.73,97.50 362.43,97.50 364.13,97.50 365.83,97.50 367.53,97.50 369.24,97.50 370.94,97.50 372.64,97.50 374.34,97.50 376.04,97.50 377.74,97.50 379.44,97.50 381.15,97.50 382.85,97.50 384.55,97.50 386.25,97.50 387.95,97.50 389.65,97.50 391.35,97.50 393.06,97.50 394.76,97.50 396.46,97.50 398.16,97.50 399.86,97.50 401.56,97.50 403.26,97.50 404.97,97.50 406.67,97.50 408.37,97.50 410.07,97.50 411.77,97.50 413.47,97.50 415.17,97.50 416.88,97.50 418.58,97.50 420.28,97.50 421.98,97.50 423.68,97.50 425.38,97.50 427.08,97.50 428.78,97.50 430.49,97.50 432.19,97.50 433.89,97.50 435.59,97.50 437.29,97.50 438.99,97.50 440.69,97.50 442.40,97.50 444.10,97.50 445.80,97.50 447.50,97.50 449.20,97.50 450.90,97.50 452.60,97.50 454.31,97.50 456.01,97.50 457.71,97.50 459.41,97.50 461.11,97.50 462.81,97.50 464.51,97.50 466.22,97.50 467.92,97.50 469.62,97.50 471.32,97.50 473.02,97.50 474.72,97.50 476.42,97.50 478.12,97.50 479.83,97.50 481.53,97.50 483.23,97.50 484.93,97.50 486.63,97.50 488.33,97.50 490.03,97.50 491.74,97.50 493.44,97.50 495.14,97.50 496.84,97.50 498.54,97.50 500.24,97.50 501.94,97.50 503.65,97.50 505.35,97.50 507.05,97.50 508.75,97.50 510.45,97.50 512.15,97.50 513.85,97.50 515.56,97.50 517.26,97.50 518.96,97.50 520.66,97.50 522.36,97.50 524.06,97.50 525.76,97.50 527.47,97.50 529.17,97.50 530.87,97.50 532.57,97.50 534.27,97.50 535.97,97.50 537.67,97.50 539.38,97.50 541.08,97.50 542.78,97.50 544.48,97.50 546.18,97.50 547.88,97.50 549.58,97.50 551.28,97.50 552.99,97.50 554.69,97.50 556.39,97.50 558.09,97.50 559.79,97.50 561.49,97.50 563.19,97.50 564.90,97.50 566.60,97.50 568.30,97.50 570.00,97.50 571.70,97.50 573.40,97.50 575.10,97.50 576.81,97.50 578.51,97.50 580.21,97.50 581.91,97.50 583.61,97.50 585.31,97.50 587.01,97.50 588.72,97.50 590.42,97.50 592.12,97.50 593.82,97.50 595.52,97.50 597.22,97.50 598.92,97.50 600.62,97.50 602.33,97.50 604.03,97.50 605.73,97.50 607.43,97.50 609.13,97.50 610.83,97.50 612.53,97.50 614.24,97.50 615.94,97.50 617.64,97.50 619.34,97.50 621.04,97.50 622.74,97.50 624.44,97.50 626.15,97.50 627.85,97.50 629.55,97.50 631.25,97.50 632.95,97.50 634.65,97.50 636.35,97.50 638.06,97.50 639.76,97.50 641.46,97.50 643.16,97.50 644.86,97.50 646.56,97.50 648.26,97.50 649.97,97.50 651.67,97.50 653.37,97.50 655.07,97.50 656.77,97.50 658.47,97.50 660.17,97.50 661.88,97.50 663.58,97.50 665.28,97.50 666.98,97.50 668.68,97.50 670.38,97.50 672.08,97.50 673.78,97.50 675.49,97.50 677.19,97.50 678.89,97.50 680.59,97.50 682.29,97.50 683.99,97.50 685.69,97.50 687.40,97.50 689.10,97.50 690.80,97.50 692.50,97.50 694.20,97.50 695.90,97.50 697.60,97.50 699.31,97.50 701.01,97.50 702.71,97.50 704.41,97.50 706.11,97.50 707.81,97.50 709.51,97.50 711.22,97.50 712.92,97.50 714.62,97.50 716.32,97.50 718.02,97.50 719.72,97.50 721.42,97.50 723.12,97.50 724.83,97.50 726.53,97.50 728.23,97.50 729.93,97.50 731.63,97.50 733.33,97.50 735.03,97.50 736.74,97.50 738.44,97.50 740.14,97.50 741.84,97.50 743.54,97.50 745.24,97.50 746.94,97.50 748.65,97.50 750.35,97.50 752.05,97.50 753.75,97.50 755.45,97.50 757.15,97.50 758.85,97.50 760.56,97.50 762.26,97.50 763.96,97.50 765.66,97.50 767.36,97.50 769.06,97.50 770.76,97.50 772.47,97.50 774.17,97.50 775.87,97.50 777.57,97.50 779.27,97.50 780.97,97.50 782.67,97.50 784.38,97.50 786.08,97.50 787.78,97.50 789.48,97.50 791.18,97.50 792.88,97.50 794.58,97.50 796.28,97.50 797.99,97.50 799.69,97.50 801.39,97.50 803.09,97.50 804.79,97.50 806.49,97.50 808.19,97.50 809.90,97.50 811.60,97.50 813.30,97.50 815.00,97.50 816.70,97.50 818.40,97.50 820.10,97.50 821.81,97.50 823.51,97.50 825.21,97.50 826.91,97.50 828.61,97.50 830.31,97.50 832.01,97.50 833.72,97.50 835.42,97.50 837.12,97.50 838.82,97.50 840.52,97.50 842.22,97.50 843.92,97.50 845.62,97.50 847.33,97.50 849.03,97.50 850.73,97.50 852.43,97.50 854.13,97.50 855.83,97.50 857.53,97.50 859.24,97.50 860.94,97.50 862.64,97.50 864.34,97.50 866.04,97.50 867.74,97.50 869.44,97.50 871.15,97.50 872.85,97.50 874.55,97.50 876.25,97.50 877.95,97.50 879.65,97.50 881.35,97.50 883.06,97.50 884.76,97.50 886.46,97.50 888.16,97.50 889.86,97.50 891.56,97.50 893.26,97.50 894.97,97.50 896.67,97.50 898.37,97.50 900.07,97.50 901.77,97.50 903.47,97.50 905.17,97.50 906.88,97.50 908.58,97.50 910.28,97.50 911.98,97.50 913.68,97.50 915.38,97.50 917.08,97.50 918.78,97.50 920.49,97.50 922.19,97.50 923.89,97.50 925.59,97.50 927.29,97.50 928.99,97.50 930.69,97.50 932.40,97.50 934.10,97.50 935.80,97.50 937.50,97.50 939.20,97.50 940.90,97.50 942.60,97.50 944.31,97.50 946.01,97.50 947.71,97.50 949.41,97.50 951.11,97.50 952.81,97.50 954.51,97.50 956.22,97.50 957.92,97.50 959.62,97.50 961.32,97.50 963.02,97.50 964.72,97.50 966.42,97.50 968.12,97.50 969.83,97.50 971.53,97.50 973.23,97.50 974.93,97.50 976.63,97.50 978.33,97.50 980.03,97.50 981.74,97.50 983.44,97.50 985.14,97.50 986.84,97.50 988.54,97.50 990.24,97.50 991.94,97.50 993.65,97.50 995.35,97.50 997.05,97.50 998.75,97.50 1000.45,97.50 1002.15,97.50 1003.85,97.50 1005.56,97.50 1007.26,97.50 1008.96,97.50 1010.66,97.50 1012.36,97.50 1014.06,97.50 1015.76,97.50 1017.47,97.50 1019.17,97.50 1020.87,97.50 1022.57,97.50 1024.27,97.50 1025.97,97.50 1027.67,97.50 1029.38,97.50 1031.08,97.50 1032.78,97.50 1034.48,97.50 1036.18,97.50 1037.88,97.50 1039.58,97.50 1041.28,97.50 1042.99,97.50 1044.69,97.50 1046.39,97.50 1048.09,97.50 1049.79,97.50 1051.49,97.50 1053.19,97.50 1054.90,97.50 1056.60,97.50 1058.30,97.50 1060.00,97.50" fill="none" stroke="#111827" stroke-width="2.2" stroke-linejoin="round" stroke-linecap="round"/>
<rect x="880" y="118" width="18" height="4" fill="#111827"/>
<text x="904" y="123" font-family="Arial, sans-serif" font-size="15" fill="#111827">E (J)</text>
</svg>
