<svg xmlns="http://www.w3.org/2000/svg" width="1100" height="700" viewBox="0 0 1100 700">
<rect width="100%" height="100%" fill="#f8fafc"/>
<text x="90" y="32" font-family="Arial, sans-serif" font-size="24" fill="#111827">Square-Well Two-Mode Beating: |psi|^2</text>
<line x1="90.00" y1="620.00" x2="1060.00" y2="620.00" stroke="#374151" stroke-width="2"/>
<line x1="90.00" y1="620.00" x2="90.00" y2="50.00" stroke="#374151" stroke-width="2"/>
<text x="550.00" y="672" text-anchor="middle" font-family="Arial, sans-serif" font-size="16" fill="#374151">position x</text>
<text x="24" y="350.00" text-anchor="middle" transform="rotate(-90 24 350.00)" font-family="Arial, sans-serif" font-size="16" fill="#374151">probability density |psi|^2</text>
<text x="90" y="646" font-family="Arial, sans-serif" font-size="13" fill="#6b7280">0.00</text>
<text x="1060" y="646" text-anchor="end" font-family="Arial, sans-serif" font-size="13" fill="#6b7280">10.00</text>
<text x="78" y="620.00" text-anchor="end" dominant-baseline="middle" font-family="Arial, sans-serif" font-size="13" fill="#6b7280">0.000</text>
<text x="78" y="50.00" text-anchor="end" dominant-baseline="middle" font-family="Arial, sans-serif" font-size="13" fill="#6b7280">0.356</text>
<polyline points="90.00,620.00 91.90,619.95 93.80,619.78 95.69,619.51 97.59,619.13 99.49,618.64 101.39,618.04 103.29,617.34 105.19,616.53 107.08,615.61 108.98,614.58 110.88,613.45 112.78,612.21 114.68,610.86 116.58,609.41 118.47,607.86 120.37,606.20 122.27,604.44 124.17,602.58 126.07,600.62 127.96,598.56 129.86,596.40 131.76,594.14 133.66,591.78 135.56,589.33 137.46,586.78 139.35,584.14 141.25,581.41 143.15,578.58 145.05,575.67 146.95,572.66 148.85,569.57 150.74,566.39 152.64,563.13 154.54,559.79 156.44,556.36 158.34,552.85 160.23,549.27 162.13,545.60 164.03,541.87 165.93,538.06 167.83,534.17 169.73,530.22 171.62,526.20 173.52,522.11 175.42,517.96 177.32,513.74 179.22,509.46 181.12,505.13 183.01,500.74 184.91,496.29 186.81,491.79 188.71,487.23 190.61,482.63 192.50,477.98 194.40,473.29 196.30,468.56 198.20,463.78 200.10,458.96 202.00,454.11 203.89,449.22 205.79,444.30 207.69,439.35 209.59,434.38 211.49,429.37 213.39,424.35 215.28,419.30 217.18,414.23 219.08,409.15 220.98,404.05 222.88,398.94 224.77,393.82 226.67,388.69 228.57,383.55 230.47,378.42 232.37,373.28 234.27,368.14 236.16,363.00 238.06,357.87 239.96,352.75 241.86,347.64 243.76,342.54 245.66,337.46 247.55,332.39 249.45,327.34 251.35,322.31 253.25,317.30 255.15,312.32 257.05,307.37 258.94,302.44 260.84,297.55 262.74,292.69 264.64,287.87 266.54,283.08 268.43,278.33 270.33,273.63 272.23,268.97 274.13,264.35 276.03,259.78 277.93,255.27 279.82,250.80 281.72,246.38 283.62,242.02 285.52,237.72 287.42,233.48 289.32,229.29 291.21,225.17 293.11,221.11 295.01,217.12 296.91,213.19 298.81,209.34 300.70,205.55 302.60,201.83 304.50,198.19 306.40,194.62 308.30,191.13 310.20,187.71 312.09,184.38 313.99,181.12 315.89,177.94 317.79,174.85 319.69,171.84 321.59,168.91 323.48,166.07 325.38,163.32 327.28,160.65 329.18,158.08 331.08,155.59 332.97,153.19 334.87,150.88 336.77,148.67 338.67,146.55 340.57,144.52 342.47,142.59 344.36,140.75 346.26,139.01 348.16,137.36 350.06,135.81 351.96,134.36 353.86,133.00 355.75,131.75 357.65,130.59 359.55,129.52 361.45,128.56 363.35,127.70 365.24,126.93 367.14,126.27 369.04,125.70 370.94,125.23 372.84,124.86 374.74,124.59 376.63,124.42 378.53,124.35 380.43,124.37 382.33,124.50 384.23,124.72 386.13,125.04 388.02,125.46 389.92,125.97 391.82,126.58 393.72,127.29 395.62,128.09 397.51,128.99 399.41,129.98 401.31,131.06 403.21,132.24 405.11,133.51 407.01,134.87 408.90,136.32 410.80,137.86 412.70,139.49 414.60,141.21 416.50,143.02 418.40,144.91 420.29,146.88 422.19,148.94 424.09,151.09 425.99,153.31 427.89,155.62 429.78,158.00 431.68,160.47 433.58,163.01 435.48,165.63 437.38,168.32 439.28,171.08 441.17,173.92 443.07,176.83 444.97,179.80 446.87,182.85 448.77,185.96 450.67,189.14 452.56,192.38 454.46,195.68 456.36,199.04 458.26,202.46 460.16,205.94 462.05,209.47 463.95,213.06 465.85,216.70 467.75,220.40 469.65,224.14 471.55,227.93 473.44,231.77 475.34,235.65 477.24,239.58 479.14,243.54 481.04,247.55 482.94,251.59 484.83,255.67 486.73,259.79 488.63,263.94 490.53,268.12 492.43,272.33 494.32,276.56 496.22,280.83 498.12,285.12 500.02,289.43 501.92,293.76 503.82,298.11 505.71,302.48 507.61,306.86 509.51,311.26 511.41,315.67 513.31,320.10 515.21,324.53 517.10,328.97 519.00,333.41 520.90,337.86 522.80,342.32 524.70,346.77 526.59,351.22 528.49,355.67 530.39,360.12 532.29,364.56 534.19,369.00 536.09,373.43 537.98,377.85 539.88,382.25 541.78,386.65 543.68,391.03 545.58,395.39 547.48,399.74 549.37,404.06 551.27,408.37 553.17,412.66 555.07,416.92 556.97,421.16 558.86,425.38 560.76,429.57 562.66,433.73 564.56,437.86 566.46,441.96 568.36,446.03 570.25,450.07 572.15,454.08 574.05,458.05 575.95,461.98 577.85,465.88 579.75,469.74 581.64,473.56 583.54,477.34 585.44,481.08 587.34,484.78 589.24,488.44 591.14,492.05 593.03,495.62 594.93,499.14 596.83,502.62 598.73,506.05 600.63,509.44 602.52,512.77 604.42,516.06 606.32,519.30 608.22,522.49 610.12,525.63 612.02,528.72 613.91,531.76 615.81,534.75 617.71,537.68 619.61,540.57 621.51,543.40 623.41,546.18 625.30,548.90 627.20,551.57 629.10,554.19 631.00,556.75 632.90,559.26 634.79,561.71 636.69,564.11 638.59,566.46 640.49,568.75 642.39,570.99 644.29,573.17 646.18,575.30 648.08,577.37 649.98,579.39 651.88,581.35 653.78,583.26 655.68,585.12 657.57,586.92 659.47,588.67 661.37,590.37 663.27,592.01 665.17,593.60 667.06,595.13 668.96,596.62 670.86,598.05 672.76,599.43 674.66,600.77 676.56,602.05 678.45,603.28 680.35,604.46 682.25,605.59 684.15,606.68 686.05,607.71 687.95,608.70 689.84,609.64 691.74,610.54 693.64,611.39 695.54,612.19 697.44,612.95 699.33,613.67 701.23,614.34 703.13,614.98 705.03,615.57 706.93,616.12 708.83,616.63 710.72,617.10 712.62,617.53 714.52,617.92 716.42,618.28 718.32,618.60 720.22,618.88 722.11,619.14 724.01,619.35 725.91,619.54 727.81,619.69 729.71,619.81 731.60,619.90 733.50,619.96 735.40,619.99 737.30,620.00 739.20,619.98 741.10,619.93 742.99,619.85 744.89,619.76 746.79,619.64 748.69,619.49 750.59,619.33 752.49,619.14 754.38,618.93 756.28,618.71 758.18,618.46 760.08,618.20 761.98,617.93 763.87,617.63 765.77,617.33 767.67,617.01 769.57,616.67 771.47,616.32 773.37,615.97 775.26,615.60 777.16,615.22 779.06,614.83 780.96,614.44 782.86,614.03 784.76,613.63 786.65,613.21 788.55,612.79 790.45,612.37 792.35,611.94 794.25,611.51 796.14,611.08 798.04,610.64 799.94,610.21 801.84,609.78 803.74,609.34 805.64,608.91 807.53,608.48 809.43,608.05 811.33,607.63 813.23,607.21 815.13,606.79 817.03,606.38 818.92,605.97 820.82,605.57 822.72,605.18 824.62,604.79 826.52,604.41 828.41,604.04 830.31,603.68 832.21,603.33 834.11,602.98 836.01,602.65 837.91,602.32 839.80,602.01 841.70,601.70 843.60,601.41 845.50,601.13 847.40,600.86 849.30,600.60 851.19,600.36 853.09,600.13 854.99,599.91 856.89,599.70 858.79,599.50 860.68,599.32 862.58,599.16 864.48,599.00 866.38,598.86 868.28,598.73 870.18,598.62 872.07,598.52 873.97,598.44 875.87,598.37 877.77,598.31 879.67,598.26 881.57,598.23 883.46,598.22 885.36,598.22 887.26,598.23 889.16,598.25 891.06,598.29 892.95,598.34 894.85,598.41 896.75,598.49 898.65,598.58 900.55,598.69 902.45,598.81 904.34,598.94 906.24,599.08 908.14,599.23 910.04,599.40 911.94,599.58 913.84,599.77 915.73,599.97 917.63,600.18 919.53,600.40 921.43,600.63 923.33,600.87 925.23,601.12 927.12,601.38 929.02,601.65 930.92,601.93 932.82,602.22 934.72,602.51 936.61,602.81 938.51,603.12 940.41,603.44 942.31,603.76 944.21,604.09 946.11,604.42 948.00,604.76 949.90,605.10 951.80,605.45 953.70,605.80 955.60,606.16 957.50,606.52 959.39,606.88 961.29,607.24 963.19,607.60 965.09,607.97 966.99,608.34 968.88,608.71 970.78,609.07 972.68,609.44 974.58,609.81 976.48,610.18 978.38,610.54 980.27,610.91 982.17,611.27 984.07,611.62 985.97,611.98 987.87,612.33 989.77,612.68 991.66,613.02 993.56,613.36 995.46,613.70 997.36,614.03 999.26,614.35 1001.15,614.67 1003.05,614.98 1004.95,615.28 1006.85,615.58 1008.75,615.87 1010.65,616.15 1012.54,616.42 1014.44,616.69 1016.34,616.95 1018.24,617.20 1020.14,617.44 1022.04,617.67 1023.93,617.89 1025.83,618.10 1027.73,618.30 1029.63,618.49 1031.53,618.67 1033.42,618.84 1035.32,618.99 1037.22,619.14 1039.12,619.28 1041.02,619.40 1042.92,619.51 1044.81,619.61 1046.71,619.71 1048.61,619.78 1050.51,619.85 1052.41,619.90 1054.31,619.95 1056.20,619.98 1058.10,619.99 1060.00,620.00" fill="none" stroke="#2840dc" stroke-width="1.8" opacity="0.85"/>
<polyline points="90.00,619.99 91.90,619.96 93.80,619.90 95.69,619.83 97.59,619.73 99.49,619.61 101.39,619.46 103.29,619.29 105.19,619.09 107.08,618.88 108.98,618.67 110.88,618.44 112.78,618.18 114.68,617.89 116.58,617.56 118.47,617.20 120.37,616.81 122.27,616.42 124.17,616.04 126.07,615.65 127.96,615.26 129.86,614.79 131.76,614.31 133.66,613.78 135.56,613.28 137.46,612.78 139.35,612.29 141.25,611.80 143.15,611.29 145.05,610.82 146.95,610.27 148.85,609.72 150.74,609.08 152.64,608.42 154.54,607.77 156.44,607.08 158.34,606.48 160.23,605.84 162.13,605.25 164.03,604.64 165.93,603.96 167.83,603.31 169.73,602.57 171.62,601.92 173.52,601.25 175.42,600.53 177.32,599.82 179.22,598.97 181.12,598.20 183.01,597.40 184.91,596.59 186.81,595.86 188.71,594.98 190.61,594.15 192.50,593.28 194.40,592.35 196.30,591.55 198.20,590.64 200.10,589.77 202.00,588.92 203.89,588.00 205.79,587.30 207.69,586.61 209.59,585.88 211.49,585.21 213.39,584.31 215.28,583.49 217.18,582.75 219.08,581.88 220.98,581.12 222.88,580.25 224.77,579.27 226.67,578.47 228.57,577.64 230.47,576.93 232.37,576.47 234.27,575.89 236.16,575.29 238.06,574.59 239.96,573.63 241.86,572.88 243.76,572.32 245.66,571.74 247.55,571.31 249.45,570.72 251.35,569.98 253.25,569.42 255.15,568.80 257.05,568.11 258.94,567.56 260.84,566.91 262.74,566.31 264.64,565.99 266.54,565.62 268.43,565.26 270.33,565.03 272.23,564.59 274.13,564.08 276.03,563.76 277.93,563.38 279.82,563.09 281.72,562.96 283.62,562.61 285.52,562.21 287.42,561.98 289.32,561.66 291.21,561.36 293.11,561.24 295.01,561.00 296.91,560.74 298.81,560.67 300.70,560.54 302.60,560.41 304.50,560.56 306.40,560.67 308.30,560.60 310.20,560.64 312.09,560.66 313.99,560.62 315.89,560.79 317.79,560.95 319.69,560.88 321.59,560.92 323.48,561.10 325.38,561.13 327.28,561.19 329.18,561.37 331.08,561.43 332.97,561.52 334.87,561.81 336.77,562.00 338.67,562.08 340.57,562.30 342.47,562.51 344.36,562.59 346.26,562.85 348.16,563.22 350.06,563.40 351.96,563.52 353.86,563.74 355.75,563.90 357.65,564.10 359.55,564.47 361.45,564.74 363.35,564.85 365.24,565.18 367.14,565.70 369.04,566.11 370.94,566.50 372.84,566.94 374.74,567.20 376.63,567.32 378.53,567.61 380.43,567.95 382.33,568.19 384.23,568.45 386.13,568.74 388.02,568.89 389.92,569.10 391.82,569.58 393.72,570.05 395.62,570.28 397.51,570.49 399.41,570.71 401.31,570.77 403.21,570.81 405.11,571.06 407.01,571.35 408.90,571.50 410.80,571.65 412.70,571.79 414.60,571.79 416.50,571.76 418.40,571.87 420.29,571.98 422.19,571.99 424.09,572.08 425.99,572.25 427.89,572.22 429.78,572.04 431.68,571.99 433.58,571.98 435.48,571.84 437.38,571.70 439.28,571.68 441.17,571.55 443.07,571.24 444.97,570.97 446.87,570.82 448.77,570.59 450.67,570.27 452.56,569.99 454.46,569.71 456.36,569.32 458.26,568.94 460.16,568.58 462.05,568.05 463.95,567.29 465.85,566.57 467.75,565.94 469.65,565.27 471.55,564.58 473.44,563.95 475.34,563.19 477.24,562.13 479.14,561.05 481.04,560.18 482.94,559.32 484.83,558.30 486.73,557.28 488.63,556.38 490.53,555.38 492.43,554.18 494.32,553.02 496.22,551.90 498.12,550.55 500.02,548.97 501.92,547.44 503.82,546.00 505.71,544.40 507.61,542.68 509.51,541.10 511.41,539.62 513.31,537.97 515.21,536.17 517.10,534.37 519.00,532.55 520.90,530.62 522.80,528.75 524.70,527.09 526.59,525.35 528.49,523.26 530.39,520.96 532.29,518.74 534.19,516.60 536.09,514.47 537.98,512.41 539.88,510.36 541.78,508.06 543.68,505.48 545.58,502.90 547.48,500.45 549.37,497.96 551.27,495.37 553.17,492.86 555.07,490.48 556.97,488.03 558.86,485.40 560.76,482.72 562.66,479.96 564.56,477.01 566.46,473.93 568.36,470.94 570.25,468.02 572.15,464.95 574.05,461.73 575.95,458.62 577.85,455.66 579.75,452.59 581.64,449.30 583.54,445.95 585.44,442.64 587.34,439.29 589.24,435.89 591.14,432.58 593.03,429.32 594.93,425.91 596.83,422.36 598.73,418.96 600.63,415.76 602.52,412.40 604.42,408.65 606.32,404.71 608.22,400.90 610.12,397.19 612.02,393.49 613.91,389.88 615.81,386.48 617.71,383.05 619.61,379.37 621.51,375.68 623.41,372.27 625.30,368.86 627.20,365.10 629.10,361.17 631.00,357.46 632.90,353.84 634.79,349.94 636.69,345.97 638.59,342.47 640.49,339.33 642.39,335.98 644.29,332.34 646.18,328.73 648.08,325.06 649.98,321.07 651.88,317.12 653.78,313.76 655.68,310.76 657.57,307.45 659.47,303.80 661.37,300.34 663.27,297.18 665.17,293.95 667.06,290.59 668.96,287.35 670.86,284.29 672.76,281.14 674.66,277.80 676.56,274.38 678.45,270.98 680.35,267.62 682.25,264.22 684.15,260.80 686.05,257.50 687.95,254.31 689.84,250.93 691.74,247.33 693.64,244.07 695.54,241.49 697.44,238.99 699.33,236.00 701.23,232.86 703.13,230.15 705.03,227.65 706.93,225.00 708.83,222.42 710.72,220.18 712.62,217.99 714.52,215.61 716.42,213.24 718.32,211.00 720.22,208.69 722.11,206.22 724.01,203.81 725.91,201.81 727.81,200.42 729.71,199.31 731.60,197.83 733.50,195.92 735.40,194.23 737.30,192.92 739.20,191.36 741.10,189.36 742.99,187.59 744.89,186.33 746.79,185.29 748.69,184.34 750.59,183.56 752.49,182.77 754.38,181.76 756.28,180.69 758.18,179.76 760.08,179.14 761.98,178.88 763.87,178.63 765.77,178.10 767.67,177.78 769.57,178.12 771.47,178.52 773.37,178.33 775.26,177.90 777.16,177.77 779.06,177.85 780.96,177.94 782.86,178.07 784.76,178.34 786.65,178.98 788.55,179.99 790.45,180.83 792.35,181.29 794.25,181.89 796.14,182.84 798.04,183.83 799.94,184.96 801.84,186.53 803.74,188.24 805.64,189.82 807.53,191.44 809.43,193.27 811.33,195.46 813.23,198.01 815.13,200.33 817.03,202.02 818.92,203.66 820.82,205.61 822.72,207.44 824.62,209.11 826.52,211.06 828.41,213.44 830.31,216.16 832.21,218.79 834.11,220.79 836.01,222.46 837.91,224.73 839.80,227.58 841.70,230.52 843.60,233.50 845.50,236.50 847.40,239.52 849.30,242.79 851.19,246.19 853.09,249.52 854.99,253.07 856.89,256.77 858.79,260.26 860.68,263.85 862.58,267.80 864.48,271.86 866.38,275.92 868.28,279.85 870.18,283.55 872.07,287.44 873.97,291.58 875.87,295.48 877.77,299.34 879.67,303.54 881.57,308.00 883.46,312.55 885.36,316.81 887.26,320.55 889.16,324.46 891.06,328.88 892.95,333.41 894.85,337.91 896.75,342.31 898.65,346.69 900.55,351.32 902.45,355.83 904.34,359.87 906.24,363.96 908.14,368.45 910.04,373.36 911.94,378.53 913.84,383.34 915.73,387.81 917.63,392.36 919.53,396.92 921.43,401.55 923.33,406.25 925.23,410.86 927.12,415.64 929.02,420.50 930.92,425.20 932.82,429.98 934.72,434.75 936.61,439.56 938.51,444.45 940.41,449.11 942.31,453.68 944.21,458.19 946.11,462.51 948.00,466.82 949.90,471.06 951.80,475.32 953.70,479.73 955.60,483.99 957.50,488.17 959.39,492.34 961.29,496.53 963.19,500.85 965.09,504.96 966.99,508.84 968.88,512.61 970.78,516.35 972.68,520.22 974.58,523.97 976.48,527.64 978.38,531.37 980.27,535.16 982.17,539.00 984.07,542.56 985.97,545.84 987.87,549.05 989.77,552.32 991.66,555.73 993.56,558.99 995.46,562.11 997.36,565.14 999.26,568.21 1001.15,571.27 1003.05,574.10 1004.95,576.75 1006.85,579.29 1008.75,581.91 1010.65,584.55 1012.54,587.06 1014.44,589.43 1016.34,591.71 1018.24,594.04 1020.14,596.31 1022.04,598.43 1023.93,600.37 1025.83,602.24 1027.73,604.10 1029.63,605.91 1031.53,607.57 1033.42,609.06 1035.32,610.43 1037.22,611.75 1039.12,612.99 1041.02,614.09 1042.92,615.06 1044.81,615.96 1046.71,616.82 1048.61,617.60 1050.51,618.25 1052.41,618.77 1054.31,619.20 1056.20,619.54 1058.10,619.80 1060.00,619.95" fill="none" stroke="#5040b6" stroke-width="1.8" opacity="0.85"/>
<polyline points="90.00,619.96 91.90,619.85 93.80,619.66 95.69,619.40 97.59,619.07 99.49,618.66 101.39,618.18 103.29,617.64 105.19,617.07 107.08,616.45 108.98,615.74 110.88,614.89 112.78,613.90 114.68,612.84 116.58,611.77 118.47,610.66 120.37,609.46 122.27,608.14 124.17,606.75 126.07,605.33 127.96,603.85 129.86,602.30 131.76,600.66 133.66,599.03 135.56,597.36 137.46,595.65 139.35,593.81 141.25,591.95 143.15,590.06 145.05,588.21 146.95,586.29 148.85,584.31 150.74,582.22 152.64,580.08 154.54,577.95 156.44,575.75 158.34,573.41 160.23,570.85 162.13,568.34 164.03,565.84 165.93,563.38 167.83,560.69 169.73,557.91 171.62,555.08 173.52,552.25 175.42,549.37 177.32,546.45 179.22,543.64 181.12,540.74 183.01,537.86 184.91,534.83 186.81,531.86 188.71,528.84 190.61,525.81 192.50,522.87 194.40,519.80 196.30,516.65 198.20,513.22 200.10,510.00 202.00,506.83 203.89,503.61 205.79,500.18 207.69,496.58 209.59,493.20 211.49,489.76 213.39,486.46 215.28,483.05 217.18,479.63 219.08,476.18 220.98,472.62 222.88,469.38 224.77,466.15 226.67,463.10 228.57,459.89 230.47,456.57 232.37,453.32 234.27,449.95 236.16,446.93 238.06,443.84 239.96,440.72 241.86,437.43 243.76,433.85 245.66,430.41 247.55,426.81 249.45,423.53 251.35,420.48 253.25,417.53 255.15,414.81 257.05,411.89 258.94,409.13 260.84,406.25 262.74,403.28 264.64,400.55 266.54,397.50 268.43,394.43 270.33,391.29 272.23,388.43 274.13,386.05 276.03,383.22 277.93,380.25 279.82,377.24 281.72,374.43 283.62,372.09 285.52,369.56 287.42,367.18 289.32,364.77 291.21,362.16 293.11,359.80 295.01,357.16 296.91,354.56 298.81,352.21 300.70,349.99 302.60,348.24 304.50,346.15 306.40,343.76 308.30,341.52 310.20,339.06 312.09,336.83 313.99,334.56 315.89,332.12 317.79,330.16 319.69,328.40 321.59,327.08 323.48,325.85 325.38,323.95 327.28,322.28 329.18,320.89 331.08,319.54 332.97,318.34 334.87,316.90 336.77,315.81 338.67,315.10 340.57,313.98 342.47,312.87 344.36,311.61 346.26,310.28 348.16,309.59 350.06,308.95 351.96,308.31 353.86,307.79 355.75,307.00 357.65,306.43 359.55,305.85 361.45,304.96 363.35,304.46 365.24,303.85 367.14,302.98 369.04,302.50 370.94,301.98 372.84,301.59 374.74,301.54 376.63,301.44 378.53,301.79 380.43,302.37 382.33,302.71 384.23,303.29 386.13,303.71 388.02,303.82 389.92,304.47 391.82,305.18 393.72,305.62 395.62,306.03 397.51,306.10 399.41,306.37 401.31,307.29 403.21,308.28 405.11,309.45 407.01,310.70 408.90,311.75 410.80,313.25 412.70,314.68 414.60,315.33 416.50,316.08 418.40,317.21 420.29,318.46 422.19,320.10 424.09,321.62 425.99,322.87 427.89,324.43 429.78,325.91 431.68,327.11 433.58,328.44 435.48,329.71 437.38,331.18 439.28,332.92 441.17,334.12 443.07,335.23 444.97,336.90 446.87,338.60 448.77,340.35 450.67,342.33 452.56,343.94 454.46,345.48 456.36,347.36 458.26,349.12 460.16,350.94 462.05,353.03 463.95,354.82 465.85,356.43 467.75,358.18 469.65,360.05 471.55,362.42 473.44,365.05 475.34,367.16 477.24,369.05 479.14,370.99 481.04,372.75 482.94,374.73 484.83,376.98 486.73,378.93 488.63,381.01 490.53,383.42 492.43,385.43 494.32,387.23 496.22,389.27 498.12,391.18 500.02,393.08 501.92,395.23 503.82,397.06 505.71,398.68 507.61,400.58 509.51,402.37 511.41,403.92 513.31,405.65 515.21,407.53 517.10,409.65 519.00,412.15 520.90,414.42 522.80,416.20 524.70,417.92 526.59,419.66 528.49,421.47 530.39,423.54 532.29,425.55 534.19,427.28 536.09,429.03 537.98,430.71 539.88,432.24 541.78,434.07 543.68,436.05 545.58,437.74 547.48,439.38 549.37,441.07 551.27,442.62 553.17,444.28 555.07,446.01 556.97,447.36 558.86,448.67 560.76,450.31 562.66,451.76 564.56,452.92 566.46,454.22 568.36,455.56 570.25,456.86 572.15,458.29 574.05,459.42 575.95,460.10 577.85,461.03 579.75,462.22 581.64,463.18 583.54,464.11 585.44,465.21 587.34,466.14 589.24,467.03 591.14,467.99 593.03,468.64 594.93,469.15 596.83,469.97 598.73,470.76 600.63,471.31 602.52,472.05 604.42,472.86 606.32,473.36 608.22,473.83 610.12,474.39 612.02,474.75 613.91,475.03 615.81,475.32 617.71,475.33 619.61,475.39 621.51,475.87 623.41,476.29 625.30,476.24 627.20,476.11 629.10,476.14 631.00,476.28 632.90,476.53 634.79,476.68 636.69,476.47 638.59,476.19 640.49,476.06 642.39,475.81 644.29,475.32 646.18,474.88 648.08,474.55 649.98,474.16 651.88,473.78 653.78,473.61 655.68,473.51 657.57,473.27 659.47,472.98 661.37,472.56 663.27,471.96 665.17,471.47 667.06,471.13 668.96,470.59 670.86,470.02 672.76,469.81 674.66,469.48 676.56,468.77 678.45,468.17 680.35,467.72 682.25,467.12 684.15,466.48 686.05,465.69 687.95,464.57 689.84,463.67 691.74,463.28 693.64,462.89 695.54,462.26 697.44,461.64 699.33,461.01 701.23,460.24 703.13,459.47 705.03,458.85 706.93,458.23 708.83,457.43 710.72,456.70 712.62,456.24 714.52,455.83 716.42,455.44 718.32,455.13 720.22,454.55 722.11,453.79 724.01,453.35 725.91,452.87 727.81,451.98 729.71,451.19 731.60,450.70 733.50,450.18 735.40,449.58 737.30,449.01 739.20,448.47 741.10,447.91 742.99,447.36 744.89,447.00 746.79,446.62 748.69,446.05 750.59,445.55 752.49,445.06 754.38,444.41 756.28,444.08 758.18,443.98 760.08,443.50 761.98,442.79 763.87,442.41 765.77,442.32 767.67,442.23 769.57,442.05 771.47,441.98 773.37,441.88 775.26,441.38 777.16,440.77 779.06,440.36 780.96,440.11 782.86,440.27 784.76,440.70 786.65,440.82 788.55,440.73 790.45,440.75 792.35,440.81 794.25,440.74 796.14,440.60 798.04,440.80 799.94,441.13 801.84,441.07 803.74,441.07 805.64,441.44 807.53,441.82 809.43,442.07 811.33,442.32 813.23,442.73 815.13,443.29 817.03,443.88 818.92,444.62 820.82,445.30 822.72,445.77 824.62,446.42 826.52,447.24 828.41,447.99 830.31,448.82 832.21,449.66 834.11,450.36 836.01,450.89 837.91,451.58 839.80,452.79 841.70,453.95 843.60,454.84 845.50,455.96 847.40,457.38 849.30,458.81 851.19,460.06 853.09,461.34 854.99,462.78 856.89,464.01 858.79,465.21 860.68,466.70 862.58,468.23 864.48,469.57 866.38,470.64 868.28,471.74 870.18,473.07 872.07,474.56 873.97,476.20 875.87,477.71 877.77,479.03 879.67,480.59 881.57,482.45 883.46,484.42 885.36,486.24 887.26,488.14 889.16,490.28 891.06,492.29 892.95,494.16 894.85,496.04 896.75,497.84 898.65,499.40 900.55,500.84 902.45,502.71 904.34,504.87 906.24,506.89 908.14,508.82 910.04,510.87 911.94,513.03 913.84,514.91 915.73,516.66 917.63,518.53 919.53,520.37 921.43,522.06 923.33,523.63 925.23,525.41 927.12,527.32 929.02,529.19 930.92,531.06 932.82,532.94 934.72,534.86 936.61,536.76 938.51,538.73 940.41,540.73 942.31,542.70 944.21,544.73 946.11,546.76 948.00,548.75 949.90,550.58 951.80,552.39 953.70,554.26 955.60,556.18 957.50,558.23 959.39,560.40 961.29,562.57 963.19,564.46 965.09,566.22 966.99,568.05 968.88,569.92 970.78,571.71 972.68,573.45 974.58,575.34 976.48,577.21 978.38,578.94 980.27,580.57 982.17,582.30 984.07,584.04 985.97,585.64 987.87,587.21 989.77,588.87 991.66,590.54 993.56,592.01 995.46,593.43 997.36,594.88 999.26,596.31 1001.15,597.57 1003.05,598.77 1004.95,600.04 1006.85,601.31 1008.75,602.48 1010.65,603.62 1012.54,604.82 1014.44,605.97 1016.34,606.99 1018.24,607.93 1020.14,608.93 1022.04,609.91 1023.93,610.80 1025.83,611.65 1027.73,612.52 1029.63,613.34 1031.53,614.08 1033.42,614.77 1035.32,615.48 1037.22,616.14 1039.12,616.71 1041.02,617.20 1042.92,617.67 1044.81,618.09 1046.71,618.46 1048.61,618.80 1050.51,619.12 1052.41,619.40 1054.31,619.61 1056.20,619.78 1058.10,619.90 1060.00,619.98" fill="none" stroke="#784090" stroke-width="1.8" opacity="0.85"/>
<polyline points="90.00,619.96 91.90,619.85 93.80,619.66 95.69,619.39 97.59,619.02 99.49,618.58 101.39,618.09 103.29,617.53 105.19,616.90 107.08,616.22 108.98,615.49 110.88,614.65 112.78,613.68 114.68,612.60 116.58,611.49 118.47,610.35 120.37,609.15 122.27,607.85 124.17,606.50 126.07,605.12 127.96,603.68 129.86,602.17 131.76,600.63 133.66,599.04 135.56,597.35 137.46,595.49 139.35,593.57 141.25,591.67 143.15,589.77 145.05,587.74 146.95,585.51 148.85,583.21 150.74,580.87 152.64,578.50 154.54,575.98 156.44,573.45 158.34,570.94 160.23,568.44 162.13,565.77 164.03,563.06 165.93,560.37 167.83,557.70 169.73,554.90 171.62,552.01 173.52,549.05 175.42,546.08 177.32,543.18 179.22,540.23 181.12,537.25 183.01,534.21 184.91,531.26 186.81,528.19 188.71,525.07 190.61,521.91 192.50,518.77 194.40,515.39 196.30,511.92 198.20,508.61 200.10,505.44 202.00,502.34 203.89,499.19 205.79,496.03 207.69,492.52 209.59,488.91 211.49,485.31 213.39,481.88 215.28,478.47 217.18,475.08 219.08,471.62 220.98,467.95 222.88,464.42 224.77,460.97 226.67,457.67 228.57,454.22 230.47,450.80 232.37,447.32 234.27,443.79 236.16,440.30 238.06,436.63 239.96,432.85 241.86,428.81 243.76,425.06 245.66,421.52 247.55,418.16 249.45,414.63 251.35,410.83 253.25,407.26 255.15,403.75 257.05,400.24 258.94,396.40 260.84,392.93 262.74,389.90 264.64,386.87 266.54,383.79 268.43,380.50 270.33,377.43 272.23,374.31 274.13,371.38 276.03,368.40 277.93,365.30 279.82,362.39 281.72,359.23 283.62,356.09 285.52,353.07 287.42,350.51 289.32,347.87 291.21,344.67 293.11,341.65 295.01,338.92 296.91,336.74 298.81,334.43 300.70,331.87 302.60,329.45 304.50,327.12 306.40,325.09 308.30,322.84 310.20,320.85 312.09,319.04 313.99,316.88 315.89,314.83 317.79,312.98 319.69,311.61 321.59,310.15 323.48,308.38 325.38,306.62 327.28,304.75 329.18,303.48 331.08,302.38 332.97,301.19 334.87,300.11 336.77,298.94 338.67,297.99 340.57,296.85 342.47,295.76 344.36,294.84 346.26,293.85 348.16,293.26 350.06,292.43 351.96,291.35 353.86,290.19 355.75,288.85 357.65,288.10 359.55,287.65 361.45,287.26 363.35,286.67 365.24,285.90 367.14,285.69 369.04,285.36 370.94,285.12 372.84,285.45 374.74,285.81 376.63,286.18 378.53,286.12 380.43,286.04 382.33,286.48 384.23,286.76 386.13,286.88 388.02,286.84 389.92,287.22 391.82,288.10 393.72,288.49 395.62,288.93 397.51,289.69 399.41,290.46 401.31,291.42 403.21,291.92 405.11,292.26 407.01,292.94 408.90,293.78 410.80,295.05 412.70,296.31 414.60,297.48 416.50,298.65 418.40,299.51 420.29,300.67 422.19,301.91 424.09,303.02 425.99,304.55 427.89,305.95 429.78,307.24 431.68,308.56 433.58,309.52 435.48,310.88 437.38,312.77 439.28,314.78 441.17,316.96 443.07,318.99 444.97,321.10 446.87,323.26 448.77,325.10 450.67,327.12 452.56,329.21 454.46,331.25 456.36,333.35 458.26,335.16 460.16,337.32 462.05,339.84 463.95,341.81 465.85,343.77 467.75,345.96 469.65,348.11 471.55,350.32 473.44,352.00 475.34,353.50 477.24,355.57 479.14,357.77 481.04,360.15 482.94,362.71 484.83,364.97 486.73,367.08 488.63,369.09 490.53,371.17 492.43,373.51 494.32,375.58 496.22,377.56 498.12,379.82 500.02,382.00 501.92,384.05 503.82,385.91 505.71,387.81 507.61,390.28 509.51,392.73 511.41,394.98 513.31,397.52 515.21,399.91 517.10,402.05 519.00,404.19 520.90,406.13 522.80,408.16 524.70,410.05 526.59,411.46 528.49,413.37 530.39,415.83 532.29,418.16 534.19,420.50 536.09,422.63 537.98,424.50 539.88,426.55 541.78,428.44 543.68,430.32 545.58,432.52 547.48,434.42 549.37,436.24 551.27,438.50 553.17,440.63 555.07,442.53 556.97,444.40 558.86,446.08 560.76,447.92 562.66,449.65 564.56,451.00 566.46,452.72 568.36,454.74 570.25,456.34 572.15,457.70 574.05,458.88 575.95,459.94 577.85,461.31 579.75,462.74 581.64,464.13 583.54,465.73 585.44,467.01 587.34,468.08 589.24,469.55 591.14,470.92 593.03,472.04 594.93,473.25 596.83,474.42 598.73,475.65 600.63,476.84 602.52,477.56 604.42,478.30 606.32,479.21 608.22,479.79 610.12,480.42 612.02,481.29 613.91,481.97 615.81,482.55 617.71,483.13 619.61,483.68 621.51,484.40 623.41,484.94 625.30,485.06 627.20,485.26 629.10,485.54 631.00,485.70 632.90,486.03 634.79,486.39 636.69,486.48 638.59,486.49 640.49,486.63 642.39,486.92 644.29,487.31 646.18,487.60 648.08,487.74 649.98,487.93 651.88,488.03 653.78,487.72 655.68,487.40 657.57,487.35 659.47,487.12 661.37,486.72 663.27,486.29 665.17,485.74 667.06,485.46 668.96,485.45 670.86,485.18 672.76,484.76 674.66,484.21 676.56,483.53 678.45,483.25 680.35,483.08 682.25,482.44 684.15,481.71 686.05,481.13 687.95,480.46 689.84,479.74 691.74,479.08 693.64,478.48 695.54,477.95 697.44,477.49 699.33,476.89 701.23,476.17 703.13,475.52 705.03,474.73 706.93,473.98 708.83,473.57 710.72,472.99 712.62,472.33 714.52,472.09 716.42,471.81 718.32,471.30 720.22,470.95 722.11,470.77 724.01,470.60 725.91,470.28 727.81,469.70 729.71,469.07 731.60,468.60 733.50,468.10 735.40,467.41 737.30,466.95 739.20,466.67 741.10,466.06 742.99,465.55 744.89,465.30 746.79,464.80 748.69,464.22 750.59,463.75 752.49,463.28 754.38,462.85 756.28,462.54 758.18,462.32 760.08,462.09 761.98,461.83 763.87,461.38 765.77,460.83 767.67,460.56 769.57,460.20 771.47,459.67 773.37,459.49 775.26,459.39 777.16,459.09 779.06,458.88 780.96,458.80 782.86,458.64 784.76,458.56 786.65,458.84 788.55,458.98 790.45,458.79 792.35,458.69 794.25,458.73 796.14,459.04 798.04,459.46 799.94,459.56 801.84,459.51 803.74,459.58 805.64,459.73 807.53,459.88 809.43,460.23 811.33,460.57 813.23,460.50 815.13,460.68 817.03,461.29 818.92,461.69 820.82,462.00 822.72,462.65 824.62,463.52 826.52,464.17 828.41,464.71 830.31,465.30 832.21,465.88 834.11,466.62 836.01,467.23 837.91,467.52 839.80,467.79 841.70,468.31 843.60,469.14 845.50,470.16 847.40,471.24 849.30,472.08 851.19,472.96 853.09,474.19 854.99,475.27 856.89,476.17 858.79,477.35 860.68,478.79 862.58,480.10 864.48,481.40 866.38,482.84 868.28,483.94 870.18,484.91 872.07,486.27 873.97,487.85 875.87,489.33 877.77,490.86 879.67,492.62 881.57,494.29 883.46,495.87 885.36,497.39 887.26,498.81 889.16,500.21 891.06,501.63 892.95,503.10 894.85,504.61 896.75,506.27 898.65,507.91 900.55,509.42 902.45,510.94 904.34,512.33 906.24,513.69 908.14,515.36 910.04,517.40 911.94,519.34 913.84,521.15 915.73,523.03 917.63,524.78 919.53,526.41 921.43,528.18 923.33,530.03 925.23,531.56 927.12,533.08 929.02,534.92 930.92,536.79 932.82,538.49 934.72,540.31 936.61,542.25 938.51,543.97 940.41,545.66 942.31,547.50 944.21,549.39 946.11,551.19 948.00,553.03 949.90,554.85 951.80,556.57 953.70,558.39 955.60,560.37 957.50,562.33 959.39,564.17 961.29,566.07 963.19,567.98 965.09,569.83 966.99,571.59 968.88,573.31 970.78,574.96 972.68,576.54 974.58,578.11 976.48,579.69 978.38,581.34 980.27,582.96 982.17,584.48 984.07,585.95 985.97,587.51 987.87,589.08 989.77,590.61 991.66,592.10 993.56,593.53 995.46,594.90 997.36,596.31 999.26,597.79 1001.15,599.19 1003.05,600.45 1004.95,601.65 1006.85,602.78 1008.75,603.83 1010.65,604.93 1012.54,606.08 1014.44,607.11 1016.34,607.99 1018.24,608.89 1020.14,609.82 1022.04,610.69 1023.93,611.52 1025.83,612.36 1027.73,613.13 1029.63,613.82 1031.53,614.50 1033.42,615.15 1035.32,615.72 1037.22,616.28 1039.12,616.86 1041.02,617.36 1042.92,617.80 1044.81,618.24 1046.71,618.63 1048.61,618.94 1050.51,619.21 1052.41,619.45 1054.31,619.65 1056.20,619.80 1058.10,619.92 1060.00,619.98" fill="none" stroke="#a0406a" stroke-width="1.8" opacity="0.85"/>
<polyline points="90.00,619.99 91.90,619.97 93.80,619.93 95.69,619.87 97.59,619.80 99.49,619.69 101.39,619.57 103.29,619.44 105.19,619.28 107.08,619.09 108.98,618.89 110.88,618.67 112.78,618.43 114.68,618.19 116.58,617.92 118.47,617.63 120.37,617.32 122.27,617.01 124.17,616.69 126.07,616.34 127.96,615.96 129.86,615.53 131.76,615.06 133.66,614.60 135.56,614.18 137.46,613.77 139.35,613.38 141.25,612.98 143.15,612.51 145.05,611.98 146.95,611.43 148.85,610.86 150.74,610.29 152.64,609.71 154.54,609.13 156.44,608.56 158.34,608.03 160.23,607.47 162.13,606.88 164.03,606.23 165.93,605.58 167.83,604.92 169.73,604.29 171.62,603.64 173.52,602.96 175.42,602.23 177.32,601.53 179.22,600.91 181.12,600.27 183.01,599.54 184.91,598.75 186.81,598.03 188.71,597.31 190.61,596.60 192.50,595.92 194.40,595.30 196.30,594.63 198.20,593.93 200.10,593.20 202.00,592.49 203.89,591.81 205.79,591.15 207.69,590.49 209.59,589.86 211.49,589.21 213.39,588.43 215.28,587.74 217.18,587.14 219.08,586.48 220.98,585.66 222.88,584.98 224.77,584.43 226.67,583.90 228.57,583.25 230.47,582.57 232.37,581.96 234.27,581.41 236.16,580.88 238.06,580.30 239.96,579.82 241.86,579.33 243.76,578.89 245.66,578.51 247.55,578.14 249.45,577.52 251.35,576.75 253.25,576.15 255.15,575.77 257.05,575.44 258.94,574.90 260.84,574.37 262.74,573.87 264.64,573.36 266.54,572.76 268.43,572.38 270.33,572.20 272.23,572.00 274.13,571.83 276.03,571.65 277.93,571.50 279.82,571.26 281.72,571.01 283.62,570.77 285.52,570.65 287.42,570.57 289.32,570.40 291.21,570.35 293.11,570.33 295.01,570.24 296.91,569.98 298.81,569.87 300.70,569.89 302.60,569.91 304.50,569.87 306.40,569.67 308.30,569.53 310.20,569.43 312.09,569.53 313.99,569.66 315.89,569.75 317.79,569.85 319.69,570.10 321.59,570.48 323.48,570.65 325.38,570.72 327.28,570.74 329.18,570.78 331.08,570.95 332.97,571.14 334.87,571.31 336.77,571.34 338.67,571.46 340.57,571.64 342.47,571.90 344.36,572.17 346.26,572.33 348.16,572.59 350.06,572.79 351.96,572.90 353.86,572.95 355.75,573.18 357.65,573.59 359.55,573.94 361.45,574.26 363.35,574.61 365.24,575.16 367.14,575.63 369.04,575.93 370.94,576.31 372.84,576.62 374.74,576.82 376.63,576.97 378.53,577.22 380.43,577.49 382.33,577.65 384.23,577.94 386.13,578.35 388.02,578.85 389.92,579.17 391.82,579.29 393.72,579.53 395.62,579.82 397.51,580.26 399.41,580.71 401.31,581.09 403.21,581.40 405.11,581.57 407.01,581.72 408.90,581.79 410.80,581.91 412.70,581.99 414.60,582.06 416.50,582.26 418.40,582.37 420.29,582.50 422.19,582.61 424.09,582.64 425.99,582.71 427.89,582.70 429.78,582.71 431.68,582.66 433.58,582.52 435.48,582.46 437.38,582.38 439.28,582.27 441.17,582.06 443.07,581.89 444.97,581.69 446.87,581.20 448.77,580.75 450.67,580.38 452.56,580.05 454.46,579.67 456.36,579.14 458.26,578.68 460.16,578.08 462.05,577.32 463.95,576.66 465.85,575.98 467.75,575.22 469.65,574.33 471.55,573.50 473.44,572.79 475.34,571.97 477.24,571.07 479.14,570.04 481.04,568.98 482.94,567.87 484.83,566.60 486.73,565.40 488.63,564.12 490.53,562.73 492.43,561.36 494.32,559.90 496.22,558.62 498.12,557.34 500.02,555.84 501.92,554.26 503.82,552.52 505.71,550.90 507.61,549.39 509.51,547.58 511.41,545.65 513.31,543.73 515.21,542.02 517.10,540.40 519.00,538.45 520.90,536.44 522.80,534.43 524.70,532.35 526.59,530.25 528.49,528.14 530.39,526.12 532.29,523.91 534.19,521.40 536.09,518.95 537.98,516.45 539.88,513.88 541.78,511.30 543.68,508.72 545.58,506.22 547.48,503.49 549.37,500.71 551.27,498.14 553.17,495.45 555.07,492.70 556.97,489.84 558.86,486.77 560.76,483.84 562.66,480.93 564.56,477.99 566.46,474.83 568.36,471.33 570.25,468.25 572.15,465.44 574.05,462.31 575.95,459.15 577.85,456.09 579.75,453.16 581.64,450.06 583.54,446.44 585.44,442.94 587.34,439.49 589.24,435.91 591.14,432.70 593.03,429.51 594.93,426.16 596.83,422.74 598.73,419.07 600.63,415.41 602.52,411.63 604.42,407.74 606.32,404.15 608.22,400.37 610.12,396.35 612.02,392.45 613.91,388.21 615.81,383.75 617.71,379.59 619.61,375.83 621.51,372.34 623.41,368.56 625.30,364.57 627.20,360.77 629.10,356.73 631.00,352.56 632.90,348.95 634.79,345.56 636.69,341.96 638.59,338.12 640.49,334.16 642.39,330.47 644.29,326.94 646.18,323.20 648.08,319.39 649.98,315.45 651.88,311.65 653.78,308.39 655.68,304.75 657.57,300.61 659.47,296.83 661.37,293.12 663.27,289.39 665.17,285.66 667.06,281.99 668.96,278.99 670.86,275.99 672.76,272.68 674.66,269.65 676.56,266.30 678.45,262.72 680.35,259.33 682.25,255.71 684.15,252.20 686.05,248.99 687.95,245.70 689.84,242.46 691.74,239.18 693.64,235.93 695.54,232.93 697.44,229.90 699.33,226.89 701.23,224.28 703.13,221.52 705.03,218.48 706.93,216.10 708.83,213.84 710.72,211.12 712.62,208.40 714.52,205.70 716.42,203.52 718.32,201.73 720.22,199.50 722.11,197.11 724.01,194.54 725.91,192.04 727.81,190.21 729.71,188.33 731.60,186.27 733.50,184.85 735.40,183.60 737.30,181.81 739.20,180.21 741.10,179.17 742.99,177.97 744.89,176.38 746.79,174.34 748.69,172.62 750.59,171.68 752.49,170.68 754.38,169.74 756.28,168.59 758.18,166.90 760.08,165.75 761.98,165.26 763.87,164.61 765.77,164.16 767.67,164.47 769.57,164.83 771.47,164.99 773.37,165.16 775.26,165.08 777.16,165.17 779.06,165.35 780.96,165.49 782.86,165.86 784.76,165.89 786.65,165.89 788.55,166.46 790.45,167.20 792.35,167.97 794.25,169.21 796.14,170.47 798.04,171.48 799.94,173.06 801.84,174.63 803.74,175.82 805.64,177.41 807.53,179.24 809.43,181.23 811.33,183.49 813.23,185.81 815.13,187.89 817.03,189.92 818.92,192.11 820.82,194.62 822.72,197.26 824.62,199.24 826.52,201.05 828.41,203.08 830.31,204.99 832.21,207.58 834.11,211.04 836.01,214.11 837.91,216.63 839.80,219.71 841.70,223.18 843.60,226.70 845.50,230.29 847.40,233.32 849.30,236.11 851.19,239.24 853.09,242.52 854.99,245.69 856.89,249.06 858.79,252.72 860.68,256.50 862.58,260.29 864.48,263.85 866.38,267.72 868.28,271.77 870.18,275.44 872.07,279.03 873.97,282.86 875.87,286.65 877.77,290.61 879.67,294.93 881.57,298.85 883.46,302.84 885.36,307.31 887.26,311.43 889.16,315.16 891.06,319.47 892.95,324.18 894.85,328.70 896.75,333.44 898.65,338.37 900.55,343.46 902.45,348.80 904.34,353.99 906.24,358.61 908.14,363.11 910.04,367.91 911.94,372.89 913.84,377.98 915.73,382.95 917.63,387.93 919.53,393.02 921.43,398.05 923.33,402.82 925.23,407.54 927.12,412.25 929.02,417.04 930.92,421.91 932.82,426.39 934.72,430.60 936.61,435.10 938.51,439.65 940.41,443.76 942.31,448.07 944.21,452.77 946.11,457.41 948.00,462.04 949.90,466.77 951.80,471.31 953.70,475.90 955.60,480.66 957.50,485.03 959.39,489.12 961.29,493.40 963.19,497.59 965.09,501.56 966.99,505.79 968.88,510.06 970.78,514.08 972.68,518.10 974.58,522.12 976.48,525.86 978.38,529.58 980.27,533.43 982.17,537.17 984.07,540.81 985.97,544.46 987.87,547.96 989.77,551.28 991.66,554.57 993.56,557.76 995.46,560.92 997.36,564.17 999.26,567.40 1001.15,570.44 1003.05,573.44 1004.95,576.43 1006.85,579.29 1008.75,581.94 1010.65,584.45 1012.54,586.92 1014.44,589.39 1016.34,591.82 1018.24,594.16 1020.14,596.39 1022.04,598.53 1023.93,600.53 1025.83,602.41 1027.73,604.18 1029.63,605.86 1031.53,607.47 1033.42,608.99 1035.32,610.41 1037.22,611.73 1039.12,612.96 1041.02,614.10 1042.92,615.14 1044.81,616.07 1046.71,616.89 1048.61,617.62 1050.51,618.26 1052.41,618.80 1054.31,619.22 1056.20,619.56 1058.10,619.80 1060.00,619.95" fill="none" stroke="#c84044" stroke-width="1.8" opacity="0.85"/>
<polyline points="90.00,619.95 91.90,619.80 93.80,619.55 95.69,619.19 97.59,618.74 99.49,618.20 101.39,617.52 103.29,616.70 105.19,615.77 107.08,614.76 108.98,613.63 110.88,612.39 112.78,611.08 114.68,609.67 116.58,608.15 118.47,606.52 120.37,604.82 122.27,603.04 124.17,601.16 126.07,599.20 127.96,597.13 129.86,594.86 131.76,592.44 133.66,589.95 135.56,587.40 137.46,584.78 139.35,582.16 141.25,579.54 143.15,576.69 145.05,573.59 146.95,570.53 148.85,567.69 150.74,564.77 152.64,561.55 154.54,558.11 156.44,554.60 158.34,551.03 160.23,547.50 162.13,543.98 164.03,540.32 165.93,536.50 167.83,532.66 169.73,528.87 171.62,524.94 173.52,520.75 175.42,516.52 177.32,512.45 179.22,508.19 181.12,503.78 183.01,499.48 184.91,495.19 186.81,490.61 188.71,486.07 190.61,481.60 192.50,477.10 194.40,472.58 196.30,468.17 198.20,463.70 200.10,459.00 202.00,454.09 203.89,449.32 205.79,444.72 207.69,439.71 209.59,434.52 211.49,429.65 213.39,424.86 215.28,419.64 217.18,414.51 219.08,409.53 220.98,404.35 222.88,398.73 224.77,393.16 226.67,387.93 228.57,383.01 230.47,378.09 232.37,373.08 234.27,367.95 236.16,362.69 238.06,357.76 239.96,352.98 241.86,348.03 243.76,342.74 245.66,337.71 247.55,332.82 249.45,327.78 251.35,322.41 253.25,317.34 255.15,312.62 257.05,307.67 258.94,302.58 260.84,297.59 262.74,292.68 264.64,287.78 266.54,283.37 268.43,278.93 270.33,274.57 272.23,270.16 274.13,265.57 276.03,260.75 277.93,255.95 279.82,251.41 281.72,247.25 283.62,243.39 285.52,239.08 287.42,234.49 289.32,229.76 291.21,225.41 293.11,221.27 295.01,216.95 296.91,212.45 298.81,208.27 300.70,204.63 302.60,200.89 304.50,197.19 306.40,193.58 308.30,190.33 310.20,186.60 312.09,182.54 313.99,178.94 315.89,175.71 317.79,172.59 319.69,169.70 321.59,167.01 323.48,163.79 325.38,160.86 327.28,158.42 329.18,156.12 331.08,153.51 332.97,150.94 334.87,149.05 336.77,147.07 338.67,144.78 340.57,142.43 342.47,140.62 344.36,138.84 346.26,137.07 348.16,135.50 350.06,134.01 351.96,132.75 353.86,131.28 355.75,130.13 357.65,128.93 359.55,127.64 361.45,126.75 363.35,126.24 365.24,125.77 367.14,125.16 369.04,124.94 370.94,124.57 372.84,124.40 374.74,124.65 376.63,125.32 378.53,126.34 380.43,127.13 382.33,127.95 384.23,128.29 386.13,128.54 388.02,129.00 389.92,129.32 391.82,129.78 393.72,130.74 395.62,132.08 397.51,132.74 399.41,133.50 401.31,134.82 403.21,136.26 405.11,137.49 407.01,138.47 408.90,139.91 410.80,140.84 412.70,141.33 414.60,142.26 416.50,143.76 418.40,145.80 420.29,147.80 422.19,149.90 424.09,151.82 425.99,153.57 427.89,155.37 429.78,157.38 431.68,159.78 433.58,162.27 435.48,165.43 437.38,168.68 439.28,171.55 441.17,174.29 443.07,176.99 444.97,180.43 446.87,183.95 448.77,187.15 450.67,189.96 452.56,192.55 454.46,195.98 456.36,199.58 458.26,202.92 460.16,206.33 462.05,210.01 463.95,213.78 465.85,217.26 467.75,221.14 469.65,225.08 471.55,228.60 473.44,232.08 475.34,235.96 477.24,240.20 479.14,244.10 481.04,248.13 482.94,252.13 484.83,255.78 486.73,259.78 488.63,263.87 490.53,267.93 492.43,271.69 494.32,275.53 496.22,280.00 498.12,284.46 500.02,289.22 501.92,293.88 503.82,298.22 505.71,303.04 507.61,308.02 509.51,312.90 511.41,317.38 513.31,321.90 515.21,326.71 517.10,331.06 519.00,335.45 520.90,340.04 522.80,344.41 524.70,348.74 526.59,353.17 528.49,357.82 530.39,362.22 532.29,366.54 534.19,371.19 536.09,375.74 537.98,380.21 539.88,384.59 541.78,388.83 543.68,393.09 545.58,397.49 547.48,402.15 549.37,406.64 551.27,410.98 553.17,415.37 555.07,419.44 556.97,423.42 558.86,427.52 560.76,431.75 562.66,436.11 564.56,440.55 566.46,445.06 568.36,449.05 570.25,452.63 572.15,456.42 574.05,460.21 575.95,463.85 577.85,467.37 579.75,470.93 581.64,474.58 583.54,478.15 585.44,481.87 587.34,485.65 589.24,489.31 591.14,493.02 593.03,496.47 594.93,499.72 596.83,503.12 598.73,506.65 600.63,510.15 602.52,513.43 604.42,516.67 606.32,519.91 608.22,522.98 610.12,526.21 612.02,529.51 613.91,532.51 615.81,535.36 617.71,538.13 619.61,540.85 621.51,543.56 623.41,546.27 625.30,549.01 627.20,551.51 629.10,553.87 631.00,556.41 632.90,558.93 634.79,561.46 636.69,563.97 638.59,566.26 640.49,568.56 642.39,570.92 644.29,573.26 646.18,575.41 648.08,577.33 649.98,579.36 651.88,581.31 653.78,583.18 655.68,585.18 657.57,587.03 659.47,588.70 661.37,590.29 663.27,591.83 665.17,593.36 667.06,594.75 668.96,596.13 670.86,597.56 672.76,598.97 674.66,600.43 676.56,601.74 678.45,602.85 680.35,604.00 682.25,605.15 684.15,606.21 686.05,607.18 687.95,608.10 689.84,609.03 691.74,609.90 693.64,610.75 695.54,611.58 697.44,612.27 699.33,612.89 701.23,613.55 703.13,614.15 705.03,614.74 706.93,615.29 708.83,615.79 710.72,616.28 712.62,616.72 714.52,617.14 716.42,617.53 718.32,617.85 720.22,618.15 722.11,618.37 724.01,618.54 725.91,618.73 727.81,618.88 729.71,618.99 731.60,619.08 733.50,619.14 735.40,619.18 737.30,619.16 739.20,619.14 741.10,619.11 742.99,619.06 744.89,619.01 746.79,618.92 748.69,618.75 750.59,618.56 752.49,618.39 754.38,618.22 756.28,618.00 758.18,617.73 760.08,617.46 761.98,617.19 763.87,616.90 765.77,616.64 767.67,616.33 769.57,615.99 771.47,615.67 773.37,615.27 775.26,614.85 777.16,614.47 779.06,614.06 780.96,613.63 782.86,613.18 784.76,612.77 786.65,612.40 788.55,612.02 790.45,611.66 792.35,611.33 794.25,610.91 796.14,610.47 798.04,610.01 799.94,609.51 801.84,609.12 803.74,608.71 805.64,608.24 807.53,607.83 809.43,607.46 811.33,607.11 813.23,606.76 815.13,606.39 817.03,606.00 818.92,605.60 820.82,605.17 822.72,604.75 824.62,604.33 826.52,603.97 828.41,603.68 830.31,603.28 832.21,602.89 834.11,602.57 836.01,602.20 837.91,601.88 839.80,601.68 841.70,601.41 843.60,601.14 845.50,600.99 847.40,600.81 849.30,600.62 851.19,600.44 853.09,600.26 854.99,600.12 856.89,599.99 858.79,599.84 860.68,599.77 862.58,599.73 864.48,599.64 866.38,599.45 868.28,599.18 870.18,599.01 872.07,598.86 873.97,598.69 875.87,598.61 877.77,598.56 879.67,598.43 881.57,598.36 883.46,598.32 885.36,598.26 887.26,598.34 889.16,598.43 891.06,598.49 892.95,598.68 894.85,598.86 896.75,598.91 898.65,599.05 900.55,599.28 902.45,599.45 904.34,599.58 906.24,599.63 908.14,599.69 910.04,599.79 911.94,599.86 913.84,599.88 915.73,600.01 917.63,600.25 919.53,600.55 921.43,600.78 923.33,600.99 925.23,601.27 927.12,601.60 929.02,601.91 930.92,602.22 932.82,602.49 934.72,602.77 936.61,603.11 938.51,603.37 940.41,603.68 942.31,604.10 944.21,604.42 946.11,604.65 948.00,605.04 949.90,605.45 951.80,605.78 953.70,606.09 955.60,606.34 957.50,606.66 959.39,607.05 961.29,607.35 963.19,607.62 965.09,608.00 966.99,608.34 968.88,608.62 970.78,608.96 972.68,609.29 974.58,609.62 976.48,610.03 978.38,610.39 980.27,610.72 982.17,611.10 984.07,611.47 985.97,611.79 987.87,612.14 989.77,612.45 991.66,612.75 993.56,613.08 995.46,613.41 997.36,613.75 999.26,614.09 1001.15,614.35 1003.05,614.62 1004.95,614.97 1006.85,615.32 1008.75,615.61 1010.65,615.86 1012.54,616.14 1014.44,616.44 1016.34,616.73 1018.24,616.96 1020.14,617.18 1022.04,617.42 1023.93,617.66 1025.83,617.88 1027.73,618.09 1029.63,618.28 1031.53,618.47 1033.42,618.65 1035.32,618.83 1037.22,619.00 1039.12,619.15 1041.02,619.29 1042.92,619.41 1044.81,619.53 1046.71,619.63 1048.61,619.72 1050.51,619.80 1052.41,619.86 1054.31,619.92 1056.20,619.96 1058.10,619.98 1060.00,620.00" fill="none" stroke="#f0401e" stroke-width="1.8" opacity="0.85"/>
<text x="870" y="62" font-family="Arial, sans-serif" font-size="14" fill="#2840dc">t=0.00 (early)</text>
<text x="870" y="84" font-family="Arial, sans-serif" font-size="14" fill="#f0401e">t=85.00 (late)</text>
</svg>
