<svg xmlns="http://www.w3.org/2000/svg" width="1100" height="700" viewBox="0 0 1100 700">
<rect width="100%" height="100%" fill="#f8fafc"/>
<text x="80" y="32" font-family="Arial, sans-serif" font-size="24" fill="#111827">Spring Energy</text>
<line x1="80.00" y1="620.00" x2="1060.00" y2="620.00" stroke="#374151" stroke-width="2"/>
<line x1="80.00" y1="620.00" x2="80.00" y2="50.00" stroke="#374151" stroke-width="2"/>
<text x="550.00" y="672" text-anchor="middle" font-family="Arial, sans-serif" font-size="16" fill="#374151">time (s)</text>
<text x="22" y="350.00" text-anchor="middle" transform="rotate(-90 22 350.00)" font-family="Arial, sans-serif" font-size="16" fill="#374151">total energy (J)</text>
<text x="80" y="646" font-family="Arial, sans-serif" font-size="13" fill="#6b7280">0.00</text>
<text x="1060" y="646" text-anchor="end" font-family="Arial, sans-serif" font-size="13" fill="#6b7280">8.00</text>
<text x="68" y="620.00" text-anchor="end" dominant-baseline="middle" font-family="Arial, sans-serif" font-size="13" fill="#6b7280">0.00</text>
<text x="68" y="50.00" text-anchor="end" dominant-baseline="middle" font-family="Arial, sans-serif" font-size="13" fill="#6b7280">0.20</text>
<polyline points="80.00,50.00 80.51,50.00 81.02,50.00 81.53,50.00 82.04,50.00 82.55,50.00 83.06,50.00 83.57,50.00 84.08,50.00 84.59,50.00 85.10,50.00 85.61,50.00 86.12,50.00 86.64,50.00 87.15,50.00 87.66,50.00 88.17,50.00 88.68,50.00 89.19,50.00 89.70,50.00 90.21,50.00 90.72,50.00 91.23,50.00 91.74,50.00 92.25,50.00 92.76,50.00 93.27,50.00 93.78,50.00 94.29,50.00 94.80,50.00 95.31,50.00 95.82,50.00 96.33,50.00 96.84,50.00 97.35,50.00 97.86,50.00 98.38,50.00 98.89,50.00 99.40,50.00 99.91,50.00 100.42,50.00 100.93,50.00 101.44,50.00 101.95,50.00 102.46,50.00 102.97,50.00 103.48,50.00 103.99,50.00 104.50,50.00 105.01,50.00 105.52,50.00 106.03,50.00 106.54,50.00 107.05,50.00 107.56,50.00 108.07,50.00 108.58,50.00 109.09,50.00 109.60,50.00 110.11,50.00 110.62,50.00 111.14,50.00 111.65,50.00 112.16,50.00 112.67,50.00 113.18,50.00 113.69,50.00 114.20,50.00 114.71,50.00 115.22,50.00 115.73,50.00 116.24,50.00 116.75,50.00 117.26,50.00 117.77,50.00 118.28,50.00 118.79,50.00 119.30,50.00 119.81,50.00 120.32,50.00 120.83,50.00 121.34,50.00 121.85,50.00 122.36,50.00 122.88,50.00 123.39,50.00 123.90,50.00 124.41,50.00 124.92,50.00 125.43,50.00 125.94,50.00 126.45,50.00 126.96,50.00 127.47,50.00 127.98,50.00 128.49,50.00 129.00,50.00 129.51,50.00 130.02,50.00 130.53,50.00 131.04,50.00 131.55,50.00 132.06,50.00 132.57,50.00 133.08,50.00 133.59,50.00 134.10,50.00 134.61,50.00 135.12,50.00 135.64,50.00 136.15,50.00 136.66,50.00 137.17,50.00 137.68,50.00 138.19,50.00 138.70,50.00 139.21,50.00 139.72,50.00 140.23,50.00 140.74,50.00 141.25,50.00 141.76,50.00 142.27,50.00 142.78,50.00 143.29,50.00 143.80,50.00 144.31,50.00 144.82,50.00 145.33,50.00 145.84,50.00 146.35,50.00 146.86,50.00 147.38,50.00 147.89,50.00 148.40,50.00 148.91,50.00 149.42,50.00 149.93,50.00 150.44,50.00 150.95,50.00 151.46,50.00 151.97,50.00 152.48,50.00 152.99,50.00 153.50,50.00 154.01,50.00 154.52,50.00 155.03,50.00 155.54,50.00 156.05,50.00 156.56,50.00 157.07,50.00 157.58,50.00 158.09,50.00 158.60,50.00 159.11,50.00 159.62,50.00 160.14,50.00 160.65,50.00 161.16,50.00 161.67,50.00 162.18,50.00 162.69,50.00 163.20,50.00 163.71,50.00 164.22,50.00 164.73,50.00 165.24,50.00 165.75,50.00 166.26,50.00 166.77,50.00 167.28,50.00 167.79,50.00 168.30,50.00 168.81,50.00 169.32,50.00 169.83,50.00 170.34,50.00 170.85,50.00 171.36,50.00 171.88,50.00 172.39,50.00 172.90,50.00 173.41,50.00 173.92,50.00 174.43,50.00 174.94,50.00 175.45,50.00 175.96,50.00 176.47,50.00 176.98,50.00 177.49,50.00 178.00,50.00 178.51,50.00 179.02,50.00 179.53,50.00 180.04,50.00 180.55,50.00 181.06,50.00 181.57,50.00 182.08,50.00 182.59,50.00 183.10,50.00 183.61,50.00 184.12,50.00 184.64,50.00 185.15,50.00 185.66,50.00 186.17,50.00 186.68,50.00 187.19,50.00 187.70,50.00 188.21,50.00 188.72,50.00 189.23,50.00 189.74,50.00 190.25,50.00 190.76,50.00 191.27,50.00 191.78,50.00 192.29,50.00 192.80,50.00 193.31,50.00 193.82,50.00 194.33,50.00 194.84,50.00 195.35,50.00 195.86,50.00 196.38,50.00 196.89,50.00 197.40,50.00 197.91,50.00 198.42,50.00 198.93,50.00 199.44,50.00 199.95,50.00 200.46,50.00 200.97,50.00 201.48,50.00 201.99,50.00 202.50,50.00 203.01,50.00 203.52,50.00 204.03,50.00 204.54,50.00 205.05,50.00 205.56,50.00 206.07,50.00 206.58,50.00 207.09,50.00 207.60,50.00 208.11,50.00 208.62,50.00 209.14,50.00 209.65,50.00 210.16,50.00 210.67,50.00 211.18,50.00 211.69,50.00 212.20,50.00 212.71,50.00 213.22,50.00 213.73,50.00 214.24,50.00 214.75,50.00 215.26,50.00 215.77,50.00 216.28,50.00 216.79,50.00 217.30,50.00 217.81,50.00 218.32,50.00 218.83,50.00 219.34,50.00 219.85,50.00 220.36,50.00 220.88,50.00 221.39,50.00 221.90,50.00 222.41,50.00 222.92,50.00 223.43,50.00 223.94,50.00 224.45,50.00 224.96,50.00 225.47,50.00 225.98,50.00 226.49,50.00 227.00,50.00 227.51,50.00 228.02,50.00 228.53,50.00 229.04,50.00 229.55,50.00 230.06,50.00 230.57,50.00 231.08,50.00 231.59,50.00 232.10,50.00 232.61,50.00 233.12,50.00 233.64,50.00 234.15,50.00 234.66,50.00 235.17,50.00 235.68,50.00 236.19,50.00 236.70,50.00 237.21,50.00 237.72,50.00 238.23,50.00 238.74,50.00 239.25,50.00 239.76,50.00 240.27,50.00 240.78,50.00 241.29,50.00 241.80,50.00 242.31,50.00 242.82,50.00 243.33,50.00 243.84,50.00 244.35,50.00 244.86,50.00 245.38,50.00 245.89,50.00 246.40,50.00 246.91,50.00 247.42,50.00 247.93,50.00 248.44,50.00 248.95,50.00 249.46,50.00 249.97,50.00 250.48,50.00 250.99,50.00 251.50,50.00 252.01,50.00 252.52,50.00 253.03,50.00 253.54,50.00 254.05,50.00 254.56,50.00 255.07,50.00 255.58,50.00 256.09,50.00 256.60,50.00 257.11,50.00 257.62,50.00 258.14,50.00 258.65,50.00 259.16,50.00 259.67,50.00 260.18,50.00 260.69,50.00 261.20,50.00 261.71,50.00 262.22,50.00 262.73,50.00 263.24,50.00 263.75,50.00 264.26,50.00 264.77,50.00 265.28,50.00 265.79,50.00 266.30,50.00 266.81,50.00 267.32,50.00 267.83,50.00 268.34,50.00 268.85,50.00 269.36,50.00 269.88,50.00 270.39,50.00 270.90,50.00 271.41,50.00 271.92,50.00 272.43,50.00 272.94,50.00 273.45,50.00 273.96,50.00 274.47,50.00 274.98,50.00 275.49,50.00 276.00,50.00 276.51,50.00 277.02,50.00 277.53,50.00 278.04,50.00 278.55,50.00 279.06,50.00 279.57,50.00 280.08,50.00 280.59,50.00 281.10,50.00 281.61,50.00 282.12,50.00 282.64,50.00 283.15,50.00 283.66,50.00 284.17,50.00 284.68,50.00 285.19,50.00 285.70,50.00 286.21,50.00 286.72,50.00 287.23,50.00 287.74,50.00 288.25,50.00 288.76,50.00 289.27,50.00 289.78,50.00 290.29,50.00 290.80,50.00 291.31,50.00 291.82,50.00 292.33,50.00 292.84,50.00 293.35,50.00 293.86,50.00 294.38,50.00 294.89,50.00 295.40,50.00 295.91,50.00 296.42,50.00 296.93,50.00 297.44,50.00 297.95,50.00 298.46,50.00 298.97,50.00 299.48,50.00 299.99,50.00 300.50,50.00 301.01,50.00 301.52,50.00 302.03,50.00 302.54,50.00 303.05,50.00 303.56,50.00 304.07,50.00 304.58,50.00 305.09,50.00 305.60,50.00 306.11,50.00 306.62,50.00 307.14,50.00 307.65,50.00 308.16,50.00 308.67,50.00 309.18,50.00 309.69,50.00 310.20,50.00 310.71,50.00 311.22,50.00 311.73,50.00 312.24,50.00 312.75,50.00 313.26,50.00 313.77,50.00 314.28,50.00 314.79,50.00 315.30,50.00 315.81,50.00 316.32,50.00 316.83,50.00 317.34,50.00 317.85,50.00 318.36,50.00 318.88,50.00 319.39,50.00 319.90,50.00 320.41,50.00 320.92,50.00 321.43,50.00 321.94,50.00 322.45,50.00 322.96,50.00 323.47,50.00 323.98,50.00 324.49,50.00 325.00,50.00 325.51,50.00 326.02,50.00 326.53,50.00 327.04,50.00 327.55,50.00 328.06,50.00 328.57,50.00 329.08,50.00 329.59,50.00 330.10,50.00 330.61,50.00 331.12,50.00 331.64,50.00 332.15,50.00 332.66,50.00 333.17,50.00 333.68,50.00 334.19,50.00 334.70,50.00 335.21,50.00 335.72,50.00 336.23,50.00 336.74,50.00 337.25,50.00 337.76,50.00 338.27,50.00 338.78,50.00 339.29,50.00 339.80,50.00 340.31,50.00 340.82,50.00 341.33,50.00 341.84,50.00 342.35,50.00 342.86,50.00 343.38,50.00 343.89,50.00 344.40,50.00 344.91,50.00 345.42,50.00 345.93,50.00 346.44,50.00 346.95,50.00 347.46,50.00 347.97,50.00 348.48,50.00 348.99,50.00 349.50,50.00 350.01,50.00 350.52,50.00 351.03,50.00 351.54,50.00 352.05,50.00 352.56,50.00 353.07,50.00 353.58,50.00 354.09,50.00 354.60,50.00 355.11,50.00 355.62,50.00 356.14,50.00 356.65,50.00 357.16,50.00 357.67,50.00 358.18,50.00 358.69,50.00 359.20,50.00 359.71,50.00 360.22,50.00 360.73,50.00 361.24,50.00 361.75,50.00 362.26,50.00 362.77,50.00 363.28,50.00 363.79,50.00 364.30,50.00 364.81,50.00 365.32,50.00 365.83,50.00 366.34,50.00 366.85,50.00 367.36,50.00 367.88,50.00 368.39,50.00 368.90,50.00 369.41,50.00 369.92,50.00 370.43,50.00 370.94,50.00 371.45,50.00 371.96,50.00 372.47,50.00 372.98,50.00 373.49,50.00 374.00,50.00 374.51,50.00 375.02,50.00 375.53,50.00 376.04,50.00 376.55,50.00 377.06,50.00 377.57,50.00 378.08,50.00 378.59,50.00 379.10,50.00 379.61,50.00 380.12,50.00 380.64,50.00 381.15,50.00 381.66,50.00 382.17,50.00 382.68,50.00 383.19,50.00 383.70,50.00 384.21,50.00 384.72,50.00 385.23,50.00 385.74,50.00 386.25,50.00 386.76,50.00 387.27,50.00 387.78,50.00 388.29,50.00 388.80,50.00 389.31,50.00 389.82,50.00 390.33,50.00 390.84,50.00 391.35,50.00 391.86,50.00 392.38,50.00 392.89,50.00 393.40,50.00 393.91,50.00 394.42,50.00 394.93,50.00 395.44,50.00 395.95,50.00 396.46,50.00 396.97,50.00 397.48,50.00 397.99,50.00 398.50,50.00 399.01,50.00 399.52,50.00 400.03,50.00 400.54,50.00 401.05,50.00 401.56,50.00 402.07,50.00 402.58,50.00 403.09,50.00 403.60,50.00 404.11,50.00 404.62,50.00 405.14,50.00 405.65,50.00 406.16,50.00 406.67,50.00 407.18,50.00 407.69,50.00 408.20,50.00 408.71,50.00 409.22,50.00 409.73,50.00 410.24,50.00 410.75,50.00 411.26,50.00 411.77,50.00 412.28,50.00 412.79,50.00 413.30,50.00 413.81,50.00 414.32,50.00 414.83,50.00 415.34,50.00 415.85,50.00 416.36,50.00 416.88,50.00 417.39,50.00 417.90,50.00 418.41,50.00 418.92,50.00 419.43,50.00 419.94,50.00 420.45,50.00 420.96,50.00 421.47,50.00 421.98,50.00 422.49,50.00 423.00,50.00 423.51,50.00 424.02,50.00 424.53,50.00 425.04,50.00 425.55,50.00 426.06,50.00 426.57,50.00 427.08,50.00 427.59,50.00 428.10,50.00 428.61,50.00 429.12,50.00 429.64,50.00 430.15,50.00 430.66,50.00 431.17,50.00 431.68,50.00 432.19,50.00 432.70,50.00 433.21,50.00 433.72,50.00 434.23,50.00 434.74,50.00 435.25,50.00 435.76,50.00 436.27,50.00 436.78,50.00 437.29,50.00 437.80,50.00 438.31,50.00 438.82,50.00 439.33,50.00 439.84,50.00 440.35,50.00 440.86,50.00 441.38,50.00 441.89,50.00 442.40,50.00 442.91,50.00 443.42,50.00 443.93,50.00 444.44,50.00 444.95,50.00 445.46,50.00 445.97,50.00 446.48,50.00 446.99,50.00 447.50,50.00 448.01,50.00 448.52,50.00 449.03,50.00 449.54,50.00 450.05,50.00 450.56,50.00 451.07,50.00 451.58,50.00 452.09,50.00 452.60,50.00 453.11,50.00 453.62,50.00 454.14,50.00 454.65,50.00 455.16,50.00 455.67,50.00 456.18,50.00 456.69,50.00 457.20,50.00 457.71,50.00 458.22,50.00 458.73,50.00 459.24,50.00 459.75,50.00 460.26,50.00 460.77,50.00 461.28,50.00 461.79,50.00 462.30,50.00 462.81,50.00 463.32,50.00 463.83,50.00 464.34,50.00 464.85,50.00 465.36,50.00 465.88,50.00 466.39,50.00 466.90,50.00 467.41,50.00 467.92,50.00 468.43,50.00 468.94,50.00 469.45,50.00 469.96,50.00 470.47,50.00 470.98,50.00 471.49,50.00 472.00,50.00 472.51,50.00 473.02,50.00 473.53,50.00 474.04,50.00 474.55,50.00 475.06,50.00 475.57,50.00 476.08,50.00 476.59,50.00 477.10,50.00 477.61,50.00 478.12,50.00 478.64,50.00 479.15,50.00 479.66,50.00 480.17,50.00 480.68,50.00 481.19,50.00 481.70,50.00 482.21,50.00 482.72,50.00 483.23,50.00 483.74,50.00 484.25,50.00 484.76,50.00 485.27,50.00 485.78,50.00 486.29,50.00 486.80,50.00 487.31,50.00 487.82,50.00 488.33,50.00 488.84,50.00 489.35,50.00 489.86,50.00 490.38,50.00 490.89,50.00 491.40,50.00 491.91,50.00 492.42,50.00 492.93,50.00 493.44,50.00 493.95,50.00 494.46,50.00 494.97,50.00 495.48,50.00 495.99,50.00 496.50,50.00 497.01,50.00 497.52,50.00 498.03,50.00 498.54,50.00 499.05,50.00 499.56,50.00 500.07,50.00 500.58,50.00 501.09,50.00 501.60,50.00 502.11,50.00 502.62,50.00 503.14,50.00 503.65,50.00 504.16,50.00 504.67,50.00 505.18,50.00 505.69,50.00 506.20,50.00 506.71,50.00 507.22,50.00 507.73,50.00 508.24,50.00 508.75,50.00 509.26,50.00 509.77,50.00 510.28,50.00 510.79,50.00 511.30,50.00 511.81,50.00 512.32,50.00 512.83,50.00 513.34,50.00 513.85,50.00 514.36,50.00 514.88,50.00 515.39,50.00 515.90,50.00 516.41,50.00 516.92,50.00 517.43,50.00 517.94,50.00 518.45,50.00 518.96,50.00 519.47,50.00 519.98,50.00 520.49,50.00 521.00,50.00 521.51,50.00 522.02,50.00 522.53,50.00 523.04,50.00 523.55,50.00 524.06,50.00 524.57,50.00 525.08,50.00 525.59,50.00 526.10,50.00 526.61,50.00 527.12,50.00 527.64,50.00 528.15,50.00 528.66,50.00 529.17,50.00 529.68,50.00 530.19,50.00 530.70,50.00 531.21,50.00 531.72,50.00 532.23,50.00 532.74,50.00 533.25,50.00 533.76,50.00 534.27,50.00 534.78,50.00 535.29,50.00 535.80,50.00 536.31,50.00 536.82,50.00 537.33,50.00 537.84,50.00 538.35,50.00 538.86,50.00 539.38,50.00 539.89,50.00 540.40,50.00 540.91,50.00 541.42,50.00 541.93,50.00 542.44,50.00 542.95,50.00 543.46,50.00 543.97,50.00 544.48,50.00 544.99,50.00 545.50,50.00 546.01,50.00 546.52,50.00 547.03,50.00 547.54,50.00 548.05,50.00 548.56,50.00 549.07,50.00 549.58,50.00 550.09,50.00 550.60,50.00 551.11,50.00 551.62,50.00 552.14,50.00 552.65,50.00 553.16,50.00 553.67,50.00 554.18,50.00 554.69,50.00 555.20,50.00 555.71,50.00 556.22,50.00 556.73,50.00 557.24,50.00 557.75,50.00 558.26,50.00 558.77,50.00 559.28,50.00 559.79,50.00 560.30,50.00 560.81,50.00 561.32,50.00 561.83,50.00 562.34,50.00 562.85,50.00 563.36,50.00 563.88,50.00 564.39,50.00 564.90,50.00 565.41,50.00 565.92,50.00 566.43,50.00 566.94,50.00 567.45,50.00 567.96,50.00 568.47,50.00 568.98,50.00 569.49,50.00 570.00,50.00 570.51,50.00 571.02,50.00 571.53,50.00 572.04,50.00 572.55,50.00 573.06,50.00 573.57,50.00 574.08,50.00 574.59,50.00 575.10,50.00 575.61,50.00 576.12,50.00 576.64,50.00 577.15,50.00 577.66,50.00 578.17,50.00 578.68,50.00 579.19,50.00 579.70,50.00 580.21,50.00 580.72,50.00 581.23,50.00 581.74,50.00 582.25,50.00 582.76,50.00 583.27,50.00 583.78,50.00 584.29,50.00 584.80,50.00 585.31,50.00 585.82,50.00 586.33,50.00 586.84,50.00 587.35,50.00 587.86,50.00 588.38,50.00 588.89,50.00 589.40,50.00 589.91,50.00 590.42,50.00 590.93,50.00 591.44,50.00 591.95,50.00 592.46,50.00 592.97,50.00 593.48,50.00 593.99,50.00 594.50,50.00 595.01,50.00 595.52,50.00 596.03,50.00 596.54,50.00 597.05,50.00 597.56,50.00 598.07,50.00 598.58,50.00 599.09,50.00 599.60,50.00 600.11,50.00 600.62,50.00 601.14,50.00 601.65,50.00 602.16,50.00 602.67,50.00 603.18,50.00 603.69,50.00 604.20,50.00 604.71,50.00 605.22,50.00 605.73,50.00 606.24,50.00 606.75,50.00 607.26,50.00 607.77,50.00 608.28,50.00 608.79,50.00 609.30,50.00 609.81,50.00 610.32,50.00 610.83,50.00 611.34,50.00 611.85,50.00 612.36,50.00 612.88,50.00 613.39,50.00 613.90,50.00 614.41,50.00 614.92,50.00 615.43,50.00 615.94,50.00 616.45,50.00 616.96,50.00 617.47,50.00 617.98,50.00 618.49,50.00 619.00,50.00 619.51,50.00 620.02,50.00 620.53,50.00 621.04,50.00 621.55,50.00 622.06,50.00 622.57,50.00 623.08,50.00 623.59,50.00 624.10,50.00 624.61,50.00 625.12,50.00 625.64,50.00 626.15,50.00 626.66,50.00 627.17,50.00 627.68,50.00 628.19,50.00 628.70,50.00 629.21,50.00 629.72,50.00 630.23,50.00 630.74,50.00 631.25,50.00 631.76,50.00 632.27,50.00 632.78,50.00 633.29,50.00 633.80,50.00 634.31,50.00 634.82,50.00 635.33,50.00 635.84,50.00 636.35,50.00 636.86,50.00 637.38,50.00 637.89,50.00 638.40,50.00 638.91,50.00 639.42,50.00 639.93,50.00 640.44,50.00 640.95,50.00 641.46,50.00 641.97,50.00 642.48,50.00 642.99,50.00 643.50,50.00 644.01,50.00 644.52,50.00 645.03,50.00 645.54,50.00 646.05,50.00 646.56,50.00 647.07,50.00 647.58,50.00 648.09,50.00 648.60,50.00 649.11,50.00 649.62,50.00 650.14,50.00 650.65,50.00 651.16,50.00 651.67,50.00 652.18,50.00 652.69,50.00 653.20,50.00 653.71,50.00 654.22,50.00 654.73,50.00 655.24,50.00 655.75,50.00 656.26,50.00 656.77,50.00 657.28,50.00 657.79,50.00 658.30,50.00 658.81,50.00 659.32,50.00 659.83,50.00 660.34,50.00 660.85,50.00 661.36,50.00 661.88,50.00 662.39,50.00 662.90,50.00 663.41,50.00 663.92,50.00 664.43,50.00 664.94,50.00 665.45,50.00 665.96,50.00 666.47,50.00 666.98,50.00 667.49,50.00 668.00,50.00 668.51,50.00 669.02,50.00 669.53,50.00 670.04,50.00 670.55,50.00 671.06,50.00 671.57,50.00 672.08,50.00 672.59,50.00 673.10,50.00 673.61,50.00 674.12,50.00 674.64,50.00 675.15,50.00 675.66,50.00 676.17,50.00 676.68,50.00 677.19,50.00 677.70,50.00 678.21,50.00 678.72,50.00 679.23,50.00 679.74,50.00 680.25,50.00 680.76,50.00 681.27,50.00 681.78,50.00 682.29,50.00 682.80,50.00 683.31,50.00 683.82,50.00 684.33,50.00 684.84,50.00 685.35,50.00 685.86,50.00 686.38,50.00 686.89,50.00 687.40,50.00 687.91,50.00 688.42,50.00 688.93,50.00 689.44,50.00 689.95,50.00 690.46,50.00 690.97,50.00 691.48,50.00 691.99,50.00 692.50,50.00 693.01,50.00 693.52,50.00 694.03,50.00 694.54,50.00 695.05,50.00 695.56,50.00 696.07,50.00 696.58,50.00 697.09,50.00 697.60,50.00 698.11,50.00 698.62,50.00 699.14,50.00 699.65,50.00 700.16,50.00 700.67,50.00 701.18,50.00 701.69,50.00 702.20,50.00 702.71,50.00 703.22,50.00 703.73,50.00 704.24,50.00 704.75,50.00 705.26,50.00 705.77,50.00 706.28,50.00 706.79,50.00 707.30,50.00 707.81,50.00 708.32,50.00 708.83,50.00 709.34,50.00 709.85,50.00 710.36,50.00 710.88,50.00 711.39,50.00 711.90,50.00 712.41,50.00 712.92,50.00 713.43,50.00 713.94,50.00 714.45,50.00 714.96,50.00 715.47,50.00 715.98,50.00 716.49,50.00 717.00,50.00 717.51,50.00 718.02,50.00 718.53,50.00 719.04,50.00 719.55,50.00 720.06,50.00 720.57,50.00 721.08,50.00 721.59,50.00 722.10,50.00 722.61,50.00 723.12,50.00 723.64,50.00 724.15,50.00 724.66,50.00 725.17,50.00 725.68,50.00 726.19,50.00 726.70,50.00 727.21,50.00 727.72,50.00 728.23,50.00 728.74,50.00 729.25,50.00 729.76,50.00 730.27,50.00 730.78,50.00 731.29,50.00 731.80,50.00 732.31,50.00 732.82,50.00 733.33,50.00 733.84,50.00 734.35,50.00 734.86,50.00 735.38,50.00 735.89,50.00 736.40,50.00 736.91,50.00 737.42,50.00 737.93,50.00 738.44,50.00 738.95,50.00 739.46,50.00 739.97,50.00 740.48,50.00 740.99,50.00 741.50,50.00 742.01,50.00 742.52,50.00 743.03,50.00 743.54,50.00 744.05,50.00 744.56,50.00 745.07,50.00 745.58,50.00 746.09,50.00 746.60,50.00 747.11,50.00 747.62,50.00 748.14,50.00 748.65,50.00 749.16,50.00 749.67,50.00 750.18,50.00 750.69,50.00 751.20,50.00 751.71,50.00 752.22,50.00 752.73,50.00 753.24,50.00 753.75,50.00 754.26,50.00 754.77,50.00 755.28,50.00 755.79,50.00 756.30,50.00 756.81,50.00 757.32,50.00 757.83,50.00 758.34,50.00 758.85,50.00 759.36,50.00 759.88,50.00 760.39,50.00 760.90,50.00 761.41,50.00 761.92,50.00 762.43,50.00 762.94,50.00 763.45,50.00 763.96,50.00 764.47,50.00 764.98,50.00 765.49,50.00 766.00,50.00 766.51,50.00 767.02,50.00 767.53,50.00 768.04,50.00 768.55,50.00 769.06,50.00 769.57,50.00 770.08,50.00 770.59,50.00 771.10,50.00 771.61,50.00 772.12,50.00 772.64,50.00 773.15,50.00 773.66,50.00 774.17,50.00 774.68,50.00 775.19,50.00 775.70,50.00 776.21,50.00 776.72,50.00 777.23,50.00 777.74,50.00 778.25,50.00 778.76,50.00 779.27,50.00 779.78,50.00 780.29,50.00 780.80,50.00 781.31,50.00 781.82,50.00 782.33,50.00 782.84,50.00 783.35,50.00 783.86,50.00 784.38,50.00 784.89,50.00 785.40,50.00 785.91,50.00 786.42,50.00 786.93,50.00 787.44,50.00 787.95,50.00 788.46,50.00 788.97,50.00 789.48,50.00 789.99,50.00 790.50,50.00 791.01,50.00 791.52,50.00 792.03,50.00 792.54,50.00 793.05,50.00 793.56,50.00 794.07,50.00 794.58,50.00 795.09,50.00 795.60,50.00 796.11,50.00 796.62,50.00 797.14,50.00 797.65,50.00 798.16,50.00 798.67,50.00 799.18,50.00 799.69,50.00 800.20,50.00 800.71,50.00 801.22,50.00 801.73,50.00 802.24,50.00 802.75,50.00 803.26,50.00 803.77,50.00 804.28,50.00 804.79,50.00 805.30,50.00 805.81,50.00 806.32,50.00 806.83,50.00 807.34,50.00 807.85,50.00 808.36,50.00 808.88,50.00 809.39,50.00 809.90,50.00 810.41,50.00 810.92,50.00 811.43,50.00 811.94,50.00 812.45,50.00 812.96,50.00 813.47,50.00 813.98,50.00 814.49,50.00 815.00,50.00 815.51,50.00 816.02,50.00 816.53,50.00 817.04,50.00 817.55,50.00 818.06,50.00 818.57,50.00 819.08,50.00 819.59,50.00 820.10,50.00 820.61,50.00 821.12,50.00 821.64,50.00 822.15,50.00 822.66,50.00 823.17,50.00 823.68,50.00 824.19,50.00 824.70,50.00 825.21,50.00 825.72,50.00 826.23,50.00 826.74,50.00 827.25,50.00 827.76,50.00 828.27,50.00 828.78,50.00 829.29,50.00 829.80,50.00 830.31,50.00 830.82,50.00 831.33,50.00 831.84,50.00 832.35,50.00 832.86,50.00 833.38,50.00 833.89,50.00 834.40,50.00 834.91,50.00 835.42,50.00 835.93,50.00 836.44,50.00 836.95,50.00 837.46,50.00 837.97,50.00 838.48,50.00 838.99,50.00 839.50,50.00 840.01,50.00 840.52,50.00 841.03,50.00 841.54,50.00 842.05,50.00 842.56,50.00 843.07,50.00 843.58,50.00 844.09,50.00 844.60,50.00 845.11,50.00 845.62,50.00 846.14,50.00 846.65,50.00 847.16,50.00 847.67,50.00 848.18,50.00 848.69,50.00 849.20,50.00 849.71,50.00 850.22,50.00 850.73,50.00 851.24,50.00 851.75,50.00 852.26,50.00 852.77,50.00 853.28,50.00 853.79,50.00 854.30,50.00 854.81,50.00 855.32,50.00 855.83,50.00 856.34,50.00 856.85,50.00 857.36,50.00 857.88,50.00 858.39,50.00 858.90,50.00 859.41,50.00 859.92,50.00 860.43,50.00 860.94,50.00 861.45,50.00 861.96,50.00 862.47,50.00 862.98,50.00 863.49,50.00 864.00,50.00 864.51,50.00 865.02,50.00 865.53,50.00 866.04,50.00 866.55,50.00 867.06,50.00 867.57,50.00 868.08,50.00 868.59,50.00 869.10,50.00 869.61,50.00 870.12,50.00 870.64,50.00 871.15,50.00 871.66,50.00 872.17,50.00 872.68,50.00 873.19,50.00 873.70,50.00 874.21,50.00 874.72,50.00 875.23,50.00 875.74,50.00 876.25,50.00 876.76,50.00 877.27,50.00 877.78,50.00 878.29,50.00 878.80,50.00 879.31,50.00 879.82,50.00 880.33,50.00 880.84,50.00 881.35,50.00 881.86,50.00 882.38,50.00 882.89,50.00 883.40,50.00 883.91,50.00 884.42,50.00 884.93,50.00 885.44,50.00 885.95,50.00 886.46,50.00 886.97,50.00 887.48,50.00 887.99,50.00 888.50,50.00 889.01,50.00 889.52,50.00 890.03,50.00 890.54,50.00 891.05,50.00 891.56,50.00 892.07,50.00 892.58,50.00 893.09,50.00 893.60,50.00 894.11,50.00 894.62,50.00 895.14,50.00 895.65,50.00 896.16,50.00 896.67,50.00 897.18,50.00 897.69,50.00 898.20,50.00 898.71,50.00 899.22,50.00 899.73,50.00 900.24,50.00 900.75,50.00 901.26,50.00 901.77,50.00 902.28,50.00 902.79,50.00 903.30,50.00 903.81,50.00 904.32,50.00 904.83,50.00 905.34,50.00 905.85,50.00 906.36,50.00 906.88,50.00 907.39,50.00 907.90,50.00 908.41,50.00 908.92,50.00 909.43,50.00 909.94,50.00 910.45,50.00 910.96,50.00 911.47,50.00 911.98,50.00 912.49,50.00 913.00,50.00 913.51,50.00 914.02,50.00 914.53,50.00 915.04,50.00 915.55,50.00 916.06,50.00 916.57,50.00 917.08,50.00 917.59,50.00 918.10,50.00 918.61,50.00 919.12,50.00 919.64,50.00 920.15,50.00 920.66,50.00 921.17,50.00 921.68,50.00 922.19,50.00 922.70,50.00 923.21,50.00 923.72,50.00 924.23,50.00 924.74,50.00 925.25,50.00 925.76,50.00 926.27,50.00 926.78,50.00 927.29,50.00 927.80,50.00 928.31,50.00 928.82,50.00 929.33,50.00 929.84,50.00 930.35,50.00 930.86,50.00 931.38,50.00 931.89,50.00 932.40,50.00 932.91,50.00 933.42,50.00 933.93,50.00 934.44,50.00 934.95,50.00 935.46,50.00 935.97,50.00 936.48,50.00 936.99,50.00 937.50,50.00 938.01,50.00 938.52,50.00 939.03,50.00 939.54,50.00 940.05,50.00 940.56,50.00 941.07,50.00 941.58,50.00 942.09,50.00 942.60,50.00 943.11,50.00 943.62,50.00 944.14,50.00 944.65,50.00 945.16,50.00 945.67,50.00 946.18,50.00 946.69,50.00 947.20,50.00 947.71,50.00 948.22,50.00 948.73,50.00 949.24,50.00 949.75,50.00 950.26,50.00 950.77,50.00 951.28,50.00 951.79,50.00 952.30,50.00 952.81,50.00 953.32,50.00 953.83,50.00 954.34,50.00 954.85,50.00 955.36,50.00 955.88,50.00 956.39,50.00 956.90,50.00 957.41,50.00 957.92,50.00 958.43,50.00 958.94,50.00 959.45,50.00 959.96,50.00 960.47,50.00 960.98,50.00 961.49,50.00 962.00,50.00 962.51,50.00 963.02,50.00 963.53,50.00 964.04,50.00 964.55,50.00 965.06,50.00 965.57,50.00 966.08,50.00 966.59,50.00 967.10,50.00 967.61,50.00 968.12,50.00 968.64,50.00 969.15,50.00 969.66,50.00 970.17,50.00 970.68,50.00 971.19,50.00 971.70,50.00 972.21,50.00 972.72,50.00 973.23,50.00 973.74,50.00 974.25,50.00 974.76,50.00 975.27,50.00 975.78,50.00 976.29,50.00 976.80,50.00 977.31,50.00 977.82,50.00 978.33,50.00 978.84,50.00 979.35,50.00 979.86,50.00 980.38,50.00 980.89,50.00 981.40,50.00 981.91,50.00 982.42,50.00 982.93,50.00 983.44,50.00 983.95,50.00 984.46,50.00 984.97,50.00 985.48,50.00 985.99,50.00 986.50,50.00 987.01,50.00 987.52,50.00 988.03,50.00 988.54,50.00 989.05,50.00 989.56,50.00 990.07,50.00 990.58,50.00 991.09,50.00 991.60,50.00 992.11,50.00 992.62,50.00 993.14,50.00 993.65,50.00 994.16,50.00 994.67,50.00 995.18,50.00 995.69,50.00 996.20,50.00 996.71,50.00 997.22,50.00 997.73,50.00 998.24,50.00 998.75,50.00 999.26,50.00 999.77,50.00 1000.28,50.00 1000.79,50.00 1001.30,50.00 1001.81,50.00 1002.32,50.00 1002.83,50.00 1003.34,50.00 1003.85,50.00 1004.36,50.00 1004.88,50.00 1005.39,50.00 1005.90,50.00 1006.41,50.00 1006.92,50.00 1007.43,50.00 1007.94,50.00 1008.45,50.00 1008.96,50.00 1009.47,50.00 1009.98,50.00 1010.49,50.00 1011.00,50.00 1011.51,50.00 1012.02,50.00 1012.53,50.00 1013.04,50.00 1013.55,50.00 1014.06,50.00 1014.57,50.00 1015.08,50.00 1015.59,50.00 1016.10,50.00 1016.61,50.00 1017.12,50.00 1017.64,50.00 1018.15,50.00 1018.66,50.00 1019.17,50.00 1019.68,50.00 1020.19,50.00 1020.70,50.00 1021.21,50.00 1021.72,50.00 1022.23,50.00 1022.74,50.00 1023.25,50.00 1023.76,50.00 1024.27,50.00 1024.78,50.00 1025.29,50.00 1025.80,50.00 1026.31,50.00 1026.82,50.00 1027.33,50.00 1027.84,50.00 1028.35,50.00 1028.86,50.00 1029.38,50.00 1029.89,50.00 1030.40,50.00 1030.91,50.00 1031.42,50.00 1031.93,50.00 1032.44,50.00 1032.95,50.00 1033.46,50.00 1033.97,50.00 1034.48,50.00 1034.99,50.00 1035.50,50.00 1036.01,50.00 1036.52,50.00 1037.03,50.00 1037.54,50.00 1038.05,50.00 1038.56,50.00 1039.07,50.00 1039.58,50.00 1040.09,50.00 1040.60,50.00 1041.11,50.00 1041.62,50.00 1042.14,50.00 1042.65,50.00 1043.16,50.00 1043.67,50.00 1044.18,50.00 1044.69,50.00 1045.20,50.00 1045.71,50.00 1046.22,50.00 1046.73,50.00 1047.24,50.00 1047.75,50.00 1048.26,50.00 1048.77,50.00 1049.28,50.00 1049.79,50.00 1050.30,50.00 1050.81,50.00 1051.32,50.00 1051.83,50.00 1052.34,50.00 1052.85,50.00 1053.36,50.00 1053.88,50.00 1054.39,50.00 1054.90,50.00 1055.41,50.00 1055.92,50.00 1056.43,50.00 1056.94,50.00 1057.45,50.00 1057.96,50.00 1058.47,50.00 1058.98,50.00 1059.49,50.00 1060.00,50.00" fill="none" stroke="#2563eb" stroke-width="3" stroke-linejoin="round" stroke-linecap="round"/>
<rect x="870" y="62" width="18" height="4" fill="#2563eb"/>
<text x="898" y="67" font-family="Arial, sans-serif" font-size="15" fill="#111827">undamped</text>
<polyline points="80.00,50.00 80.51,50.10 81.02,50.20 81.53,50.30 82.04,50.40 82.55,50.50 83.06,50.61 83.57,50.72 84.08,50.83 84.59,50.95 85.10,51.07 85.61,51.20 86.12,51.33 86.64,51.47 87.15,51.62 87.66,51.77 88.17,51.93 88.68,52.10 89.19,52.28 89.70,52.47 90.21,52.67 90.72,52.88 91.23,53.10 91.74,53.33 92.25,53.58 92.76,53.83 93.27,54.10 93.78,54.38 94.29,54.68 94.80,54.99 95.31,55.31 95.82,55.65 96.33,56.00 96.84,56.37 97.35,56.75 97.86,57.15 98.38,57.56 98.89,58.00 99.40,58.44 99.91,58.91 100.42,59.39 100.93,59.89 101.44,60.41 101.95,60.94 102.46,61.50 102.97,62.07 103.48,62.66 103.99,63.26 104.50,63.89 105.01,64.54 105.52,65.20 106.03,65.88 106.54,66.58 107.05,67.31 107.56,68.05 108.07,68.80 108.58,69.58 109.09,70.38 109.60,71.20 110.11,72.03 110.62,72.89 111.14,73.76 111.65,74.65 112.16,75.56 112.67,76.49 113.18,77.44 113.69,78.40 114.20,79.39 114.71,80.39 115.22,81.41 115.73,82.45 116.24,83.50 116.75,84.58 117.26,85.67 117.77,86.78 118.28,87.90 118.79,89.04 119.30,90.20 119.81,91.37 120.32,92.56 120.83,93.76 121.34,94.98 121.85,96.22 122.36,97.46 122.88,98.73 123.39,100.00 123.90,101.29 124.41,102.59 124.92,103.90 125.43,105.23 125.94,106.57 126.45,107.92 126.96,109.28 127.47,110.65 127.98,112.04 128.49,113.43 129.00,114.83 129.51,116.24 130.02,117.65 130.53,119.08 131.04,120.51 131.55,121.95 132.06,123.40 132.57,124.86 133.08,126.31 133.59,127.78 134.10,129.24 134.61,130.72 135.12,132.19 135.64,133.67 136.15,135.16 136.66,136.64 137.17,138.13 137.68,139.62 138.19,141.10 138.70,142.59 139.21,144.08 139.72,145.57 140.23,147.06 140.74,148.54 141.25,150.03 141.76,151.51 142.27,152.98 142.78,154.46 143.29,155.93 143.80,157.39 144.31,158.85 144.82,160.31 145.33,161.76 145.84,163.20 146.35,164.64 146.86,166.06 147.38,167.49 147.89,168.90 148.40,170.30 148.91,171.70 149.42,173.08 149.93,174.46 150.44,175.82 150.95,177.18 151.46,178.53 151.97,179.86 152.48,181.18 152.99,182.49 153.50,183.79 154.01,185.07 154.52,186.34 155.03,187.60 155.54,188.85 156.05,190.08 156.56,191.29 157.07,192.49 157.58,193.68 158.09,194.85 158.60,196.01 159.11,197.15 159.62,198.28 160.14,199.39 160.65,200.48 161.16,201.55 161.67,202.61 162.18,203.66 162.69,204.68 163.20,205.69 163.71,206.68 164.22,207.66 164.73,208.61 165.24,209.55 165.75,210.47 166.26,211.38 166.77,212.26 167.28,213.13 167.79,213.98 168.30,214.82 168.81,215.63 169.32,216.43 169.83,217.20 170.34,217.96 170.85,218.71 171.36,219.43 171.88,220.13 172.39,220.82 172.90,221.49 173.41,222.15 173.92,222.78 174.43,223.40 174.94,224.00 175.45,224.58 175.96,225.15 176.47,225.70 176.98,226.23 177.49,226.75 178.00,227.25 178.51,227.73 179.02,228.20 179.53,228.65 180.04,229.08 180.55,229.50 181.06,229.91 181.57,230.30 182.08,230.67 182.59,231.03 183.10,231.38 183.61,231.71 184.12,232.03 184.64,232.34 185.15,232.63 185.66,232.91 186.17,233.18 186.68,233.43 187.19,233.68 187.70,233.91 188.21,234.13 188.72,234.34 189.23,234.54 189.74,234.73 190.25,234.91 190.76,235.08 191.27,235.25 191.78,235.40 192.29,235.55 192.80,235.69 193.31,235.81 193.82,235.94 194.33,236.06 194.84,236.17 195.35,236.27 195.86,236.37 196.38,236.47 196.89,236.56 197.40,236.64 197.91,236.73 198.42,236.81 198.93,236.88 199.44,236.95 199.95,237.03 200.46,237.10 200.97,237.16 201.48,237.23 201.99,237.30 202.50,237.36 203.01,237.43 203.52,237.50 204.03,237.57 204.54,237.64 205.05,237.71 205.56,237.78 206.07,237.86 206.58,237.94 207.09,238.02 207.60,238.11 208.11,238.20 208.62,238.29 209.14,238.39 209.65,238.49 210.16,238.60 210.67,238.72 211.18,238.84 211.69,238.97 212.20,239.11 212.71,239.25 213.22,239.40 213.73,239.55 214.24,239.72 214.75,239.89 215.26,240.08 215.77,240.27 216.28,240.47 216.79,240.67 217.30,240.89 217.81,241.12 218.32,241.36 218.83,241.61 219.34,241.87 219.85,242.14 220.36,242.42 220.88,242.71 221.39,243.01 221.90,243.33 222.41,243.65 222.92,243.99 223.43,244.34 223.94,244.70 224.45,245.08 224.96,245.46 225.47,245.86 225.98,246.27 226.49,246.69 227.00,247.13 227.51,247.58 228.02,248.04 228.53,248.51 229.04,249.00 229.55,249.50 230.06,250.01 230.57,250.53 231.08,251.07 231.59,251.62 232.10,252.18 232.61,252.76 233.12,253.35 233.64,253.95 234.15,254.56 234.66,255.19 235.17,255.83 235.68,256.48 236.19,257.14 236.70,257.82 237.21,258.51 237.72,259.21 238.23,259.92 238.74,260.64 239.25,261.38 239.76,262.12 240.27,262.88 240.78,263.65 241.29,264.43 241.80,265.21 242.31,266.02 242.82,266.83 243.33,267.65 243.84,268.48 244.35,269.32 244.86,270.17 245.38,271.02 245.89,271.89 246.40,272.76 246.91,273.65 247.42,274.54 247.93,275.44 248.44,276.35 248.95,277.26 249.46,278.19 249.97,279.12 250.48,280.05 250.99,280.99 251.50,281.94 252.01,282.89 252.52,283.85 253.03,284.81 253.54,285.78 254.05,286.76 254.56,287.73 255.07,288.71 255.58,289.70 256.09,290.68 256.60,291.67 257.11,292.66 257.62,293.66 258.14,294.65 258.65,295.65 259.16,296.65 259.67,297.65 260.18,298.65 260.69,299.65 261.20,300.65 261.71,301.65 262.22,302.64 262.73,303.64 263.24,304.64 263.75,305.63 264.26,306.62 264.77,307.61 265.28,308.60 265.79,309.58 266.30,310.56 266.81,311.54 267.32,312.51 267.83,313.48 268.34,314.44 268.85,315.40 269.36,316.35 269.88,317.30 270.39,318.24 270.90,319.18 271.41,320.11 271.92,321.03 272.43,321.94 272.94,322.85 273.45,323.75 273.96,324.65 274.47,325.53 274.98,326.41 275.49,327.28 276.00,328.14 276.51,328.99 277.02,329.84 277.53,330.67 278.04,331.49 278.55,332.31 279.06,333.11 279.57,333.91 280.08,334.70 280.59,335.47 281.10,336.23 281.61,336.99 282.12,337.73 282.64,338.46 283.15,339.18 283.66,339.89 284.17,340.59 284.68,341.28 285.19,341.95 285.70,342.61 286.21,343.26 286.72,343.91 287.23,344.53 287.74,345.15 288.25,345.75 288.76,346.35 289.27,346.93 289.78,347.49 290.29,348.05 290.80,348.60 291.31,349.13 291.82,349.65 292.33,350.16 292.84,350.65 293.35,351.14 293.86,351.61 294.38,352.07 294.89,352.52 295.40,352.95 295.91,353.38 296.42,353.79 296.93,354.19 297.44,354.58 297.95,354.96 298.46,355.32 298.97,355.68 299.48,356.02 299.99,356.36 300.50,356.68 301.01,356.99 301.52,357.29 302.03,357.58 302.54,357.86 303.05,358.13 303.56,358.39 304.07,358.64 304.58,358.88 305.09,359.11 305.60,359.33 306.11,359.55 306.62,359.75 307.14,359.94 307.65,360.13 308.16,360.31 308.67,360.48 309.18,360.64 309.69,360.80 310.20,360.94 310.71,361.08 311.22,361.22 311.73,361.34 312.24,361.46 312.75,361.58 313.26,361.68 313.77,361.79 314.28,361.88 314.79,361.98 315.30,362.06 315.81,362.15 316.32,362.22 316.83,362.30 317.34,362.37 317.85,362.43 318.36,362.50 318.88,362.56 319.39,362.61 319.90,362.67 320.41,362.72 320.92,362.77 321.43,362.82 321.94,362.87 322.45,362.92 322.96,362.96 323.47,363.01 323.98,363.05 324.49,363.10 325.00,363.14 325.51,363.18 326.02,363.23 326.53,363.28 327.04,363.33 327.55,363.38 328.06,363.43 328.57,363.48 329.08,363.54 329.59,363.60 330.10,363.66 330.61,363.72 331.12,363.79 331.64,363.86 332.15,363.93 332.66,364.01 333.17,364.10 333.68,364.18 334.19,364.27 334.70,364.37 335.21,364.47 335.72,364.58 336.23,364.69 336.74,364.81 337.25,364.93 337.76,365.06 338.27,365.20 338.78,365.34 339.29,365.49 339.80,365.64 340.31,365.80 340.82,365.97 341.33,366.14 341.84,366.33 342.35,366.52 342.86,366.71 343.38,366.92 343.89,367.13 344.40,367.35 344.91,367.58 345.42,367.82 345.93,368.06 346.44,368.31 346.95,368.58 347.46,368.84 347.97,369.12 348.48,369.41 348.99,369.70 349.50,370.00 350.01,370.31 350.52,370.63 351.03,370.96 351.54,371.30 352.05,371.65 352.56,372.00 353.07,372.36 353.58,372.73 354.09,373.11 354.60,373.50 355.11,373.90 355.62,374.30 356.14,374.71 356.65,375.14 357.16,375.57 357.67,376.01 358.18,376.45 358.69,376.91 359.20,377.37 359.71,377.84 360.22,378.32 360.73,378.81 361.24,379.31 361.75,379.81 362.26,380.32 362.77,380.83 363.28,381.36 363.79,381.89 364.30,382.43 364.81,382.97 365.32,383.52 365.83,384.08 366.34,384.65 366.85,385.22 367.36,385.80 367.88,386.38 368.39,386.97 368.90,387.57 369.41,388.16 369.92,388.77 370.43,389.38 370.94,390.00 371.45,390.61 371.96,391.24 372.47,391.87 372.98,392.50 373.49,393.14 374.00,393.78 374.51,394.43 375.02,395.07 375.53,395.72 376.04,396.37 376.55,397.03 377.06,397.69 377.57,398.35 378.08,399.01 378.59,399.68 379.10,400.34 379.61,401.01 380.12,401.68 380.64,402.35 381.15,403.02 381.66,403.69 382.17,404.36 382.68,405.03 383.19,405.71 383.70,406.38 384.21,407.05 384.72,407.71 385.23,408.38 385.74,409.05 386.25,409.72 386.76,410.38 387.27,411.04 387.78,411.70 388.29,412.36 388.80,413.01 389.31,413.67 389.82,414.32 390.33,414.96 390.84,415.60 391.35,416.24 391.86,416.88 392.38,417.51 392.89,418.14 393.40,418.76 393.91,419.38 394.42,419.99 394.93,420.60 395.44,421.21 395.95,421.81 396.46,422.40 396.97,422.99 397.48,423.57 397.99,424.15 398.50,424.72 399.01,425.28 399.52,425.84 400.03,426.39 400.54,426.94 401.05,427.48 401.56,428.01 402.07,428.54 402.58,429.06 403.09,429.57 403.60,430.07 404.11,430.57 404.62,431.06 405.14,431.54 405.65,432.02 406.16,432.48 406.67,432.94 407.18,433.40 407.69,433.84 408.20,434.27 408.71,434.70 409.22,435.12 409.73,435.54 410.24,435.94 410.75,436.34 411.26,436.73 411.77,437.10 412.28,437.48 412.79,437.84 413.30,438.20 413.81,438.54 414.32,438.88 414.83,439.22 415.34,439.54 415.85,439.85 416.36,440.16 416.88,440.46 417.39,440.75 417.90,441.03 418.41,441.31 418.92,441.58 419.43,441.84 419.94,442.09 420.45,442.33 420.96,442.57 421.47,442.80 421.98,443.02 422.49,443.24 423.00,443.45 423.51,443.65 424.02,443.84 424.53,444.03 425.04,444.21 425.55,444.38 426.06,444.55 426.57,444.71 427.08,444.86 427.59,445.01 428.10,445.15 428.61,445.29 429.12,445.41 429.64,445.54 430.15,445.66 430.66,445.77 431.17,445.88 431.68,445.98 432.19,446.08 432.70,446.17 433.21,446.26 433.72,446.35 434.23,446.43 434.74,446.50 435.25,446.57 435.76,446.64 436.27,446.71 436.78,446.77 437.29,446.83 437.80,446.88 438.31,446.93 438.82,446.98 439.33,447.02 439.84,447.07 440.35,447.11 440.86,447.15 441.38,447.19 441.89,447.23 442.40,447.26 442.91,447.30 443.42,447.33 443.93,447.36 444.44,447.39 444.95,447.42 445.46,447.45 445.97,447.48 446.48,447.51 446.99,447.54 447.50,447.57 448.01,447.60 448.52,447.63 449.03,447.67 449.54,447.70 450.05,447.74 450.56,447.77 451.07,447.81 451.58,447.85 452.09,447.89 452.60,447.93 453.11,447.98 453.62,448.03 454.14,448.08 454.65,448.13 455.16,448.19 455.67,448.25 456.18,448.31 456.69,448.38 457.20,448.44 457.71,448.52 458.22,448.59 458.73,448.67 459.24,448.75 459.75,448.84 460.26,448.93 460.77,449.03 461.28,449.13 461.79,449.24 462.30,449.34 462.81,449.46 463.32,449.58 463.83,449.70 464.34,449.83 464.85,449.96 465.36,450.10 465.88,450.25 466.39,450.39 466.90,450.55 467.41,450.71 467.92,450.87 468.43,451.04 468.94,451.22 469.45,451.40 469.96,451.59 470.47,451.78 470.98,451.98 471.49,452.18 472.00,452.39 472.51,452.61 473.02,452.83 473.53,453.06 474.04,453.29 474.55,453.53 475.06,453.77 475.57,454.02 476.08,454.28 476.59,454.54 477.10,454.81 477.61,455.08 478.12,455.36 478.64,455.65 479.15,455.94 479.66,456.23 480.17,456.54 480.68,456.84 481.19,457.15 481.70,457.47 482.21,457.79 482.72,458.12 483.23,458.45 483.74,458.79 484.25,459.13 484.76,459.49 485.27,459.84 485.78,460.19 486.29,460.56 486.80,460.92 487.31,461.29 487.82,461.67 488.33,462.05 488.84,462.43 489.35,462.83 489.86,463.22 490.38,463.61 490.89,464.01 491.40,464.42 491.91,464.82 492.42,465.23 492.93,465.65 493.44,466.07 493.95,466.48 494.46,466.91 494.97,467.33 495.48,467.76 495.99,468.19 496.50,468.63 497.01,469.06 497.52,469.50 498.03,469.94 498.54,470.38 499.05,470.82 499.56,471.26 500.07,471.71 500.58,472.16 501.09,472.60 501.60,473.05 502.11,473.50 502.62,473.95 503.14,474.40 503.65,474.85 504.16,475.30 504.67,475.75 505.18,476.20 505.69,476.65 506.20,477.10 506.71,477.55 507.22,478.00 507.73,478.45 508.24,478.89 508.75,479.34 509.26,479.79 509.77,480.23 510.28,480.67 510.79,481.11 511.30,481.54 511.81,481.98 512.32,482.41 512.83,482.84 513.34,483.27 513.85,483.70 514.36,484.12 514.88,484.55 515.39,484.96 515.90,485.38 516.41,485.79 516.92,486.20 517.43,486.60 517.94,487.00 518.45,487.40 518.96,487.80 519.47,488.19 519.98,488.57 520.49,488.95 521.00,489.33 521.51,489.71 522.02,490.08 522.53,490.44 523.04,490.80 523.55,491.16 524.06,491.51 524.57,491.86 525.08,492.20 525.59,492.54 526.10,492.87 526.61,493.20 527.12,493.53 527.64,493.84 528.15,494.16 528.66,494.46 529.17,494.77 529.68,495.06 530.19,495.36 530.70,495.64 531.21,495.92 531.72,496.20 532.23,496.47 532.74,496.73 533.25,496.99 533.76,497.25 534.27,497.50 534.78,497.74 535.29,497.98 535.80,498.21 536.31,498.44 536.82,498.66 537.33,498.88 537.84,499.08 538.35,499.29 538.86,499.49 539.38,499.68 539.89,499.87 540.40,500.06 540.91,500.24 541.42,500.41 541.93,500.58 542.44,500.74 542.95,500.90 543.46,501.05 543.97,501.20 544.48,501.34 544.99,501.48 545.50,501.62 546.01,501.74 546.52,501.87 547.03,501.99 547.54,502.10 548.05,502.22 548.56,502.32 549.07,502.43 549.58,502.52 550.09,502.62 550.60,502.71 551.11,502.79 551.62,502.88 552.14,502.96 552.65,503.03 553.16,503.10 553.67,503.17 554.18,503.24 554.69,503.30 555.20,503.36 555.71,503.42 556.22,503.47 556.73,503.52 557.24,503.57 557.75,503.61 558.26,503.65 558.77,503.69 559.28,503.73 559.79,503.77 560.30,503.80 560.81,503.83 561.32,503.87 561.83,503.89 562.34,503.92 562.85,503.95 563.36,503.98 563.88,504.00 564.39,504.02 564.90,504.04 565.41,504.07 565.92,504.09 566.43,504.11 566.94,504.13 567.45,504.15 567.96,504.17 568.47,504.19 568.98,504.21 569.49,504.23 570.00,504.25 570.51,504.27 571.02,504.30 571.53,504.32 572.04,504.34 572.55,504.37 573.06,504.39 573.57,504.42 574.08,504.45 574.59,504.48 575.10,504.51 575.61,504.54 576.12,504.57 576.64,504.61 577.15,504.65 577.66,504.69 578.17,504.73 578.68,504.77 579.19,504.82 579.70,504.87 580.21,504.92 580.72,504.98 581.23,505.03 581.74,505.09 582.25,505.15 582.76,505.22 583.27,505.29 583.78,505.36 584.29,505.43 584.80,505.51 585.31,505.59 585.82,505.67 586.33,505.76 586.84,505.85 587.35,505.94 587.86,506.04 588.38,506.14 588.89,506.25 589.40,506.35 589.91,506.46 590.42,506.58 590.93,506.70 591.44,506.82 591.95,506.95 592.46,507.08 592.97,507.21 593.48,507.35 593.99,507.49 594.50,507.64 595.01,507.79 595.52,507.94 596.03,508.10 596.54,508.26 597.05,508.42 597.56,508.59 598.07,508.76 598.58,508.94 599.09,509.12 599.60,509.31 600.11,509.49 600.62,509.69 601.14,509.88 601.65,510.08 602.16,510.28 602.67,510.49 603.18,510.70 603.69,510.91 604.20,511.13 604.71,511.35 605.22,511.58 605.73,511.81 606.24,512.04 606.75,512.27 607.26,512.51 607.77,512.75 608.28,512.99 608.79,513.24 609.30,513.49 609.81,513.74 610.32,514.00 610.83,514.26 611.34,514.52 611.85,514.78 612.36,515.05 612.88,515.32 613.39,515.59 613.90,515.86 614.41,516.14 614.92,516.42 615.43,516.70 615.94,516.98 616.45,517.26 616.96,517.55 617.47,517.84 617.98,518.13 618.49,518.42 619.00,518.71 619.51,519.00 620.02,519.30 620.53,519.59 621.04,519.89 621.55,520.19 622.06,520.49 622.57,520.79 623.08,521.09 623.59,521.39 624.10,521.69 624.61,522.00 625.12,522.30 625.64,522.60 626.15,522.90 626.66,523.21 627.17,523.51 627.68,523.81 628.19,524.11 628.70,524.41 629.21,524.72 629.72,525.02 630.23,525.31 630.74,525.61 631.25,525.91 631.76,526.21 632.27,526.51 632.78,526.80 633.29,527.09 633.80,527.39 634.31,527.68 634.82,527.96 635.33,528.25 635.84,528.54 636.35,528.82 636.86,529.10 637.38,529.38 637.89,529.66 638.40,529.94 638.91,530.21 639.42,530.48 639.93,530.76 640.44,531.02 640.95,531.29 641.46,531.55 641.97,531.81 642.48,532.06 642.99,532.31 643.50,532.56 644.01,532.81 644.52,533.06 645.03,533.30 645.54,533.54 646.05,533.78 646.56,534.01 647.07,534.24 647.58,534.46 648.09,534.69 648.60,534.90 649.11,535.12 649.62,535.34 650.14,535.54 650.65,535.75 651.16,535.95 651.67,536.15 652.18,536.35 652.69,536.54 653.20,536.73 653.71,536.91 654.22,537.09 654.73,537.27 655.24,537.44 655.75,537.61 656.26,537.78 656.77,537.94 657.28,538.10 657.79,538.26 658.30,538.41 658.81,538.56 659.32,538.70 659.83,538.84 660.34,538.98 660.85,539.11 661.36,539.24 661.88,539.37 662.39,539.49 662.90,539.61 663.41,539.72 663.92,539.84 664.43,539.95 664.94,540.05 665.45,540.15 665.96,540.25 666.47,540.35 666.98,540.44 667.49,540.53 668.00,540.62 668.51,540.70 669.02,540.78 669.53,540.86 670.04,540.93 670.55,541.00 671.06,541.07 671.57,541.13 672.08,541.20 672.59,541.26 673.10,541.31 673.61,541.37 674.12,541.42 674.64,541.47 675.15,541.52 675.66,541.57 676.17,541.61 676.68,541.65 677.19,541.69 677.70,541.73 678.21,541.76 678.72,541.80 679.23,541.83 679.74,541.86 680.25,541.89 680.76,541.91 681.27,541.94 681.78,541.96 682.29,541.99 682.80,542.01 683.31,542.03 683.82,542.05 684.33,542.07 684.84,542.08 685.35,542.10 685.86,542.12 686.38,542.13 686.89,542.15 687.40,542.16 687.91,542.18 688.42,542.19 688.93,542.20 689.44,542.22 689.95,542.23 690.46,542.24 690.97,542.26 691.48,542.27 691.99,542.29 692.50,542.30 693.01,542.31 693.52,542.33 694.03,542.35 694.54,542.36 695.05,542.38 695.56,542.40 696.07,542.42 696.58,542.44 697.09,542.46 697.60,542.48 698.11,542.50 698.62,542.53 699.14,542.55 699.65,542.58 700.16,542.61 700.67,542.64 701.18,542.67 701.69,542.71 702.20,542.74 702.71,542.78 703.22,542.81 703.73,542.85 704.24,542.90 704.75,542.94 705.26,542.99 705.77,543.04 706.28,543.08 706.79,543.14 707.30,543.19 707.81,543.25 708.32,543.31 708.83,543.37 709.34,543.43 709.85,543.50 710.36,543.57 710.88,543.63 711.39,543.71 711.90,543.78 712.41,543.86 712.92,543.94 713.43,544.02 713.94,544.11 714.45,544.20 714.96,544.29 715.47,544.38 715.98,544.48 716.49,544.57 717.00,544.68 717.51,544.78 718.02,544.89 718.53,544.99 719.04,545.10 719.55,545.22 720.06,545.34 720.57,545.46 721.08,545.58 721.59,545.70 722.10,545.83 722.61,545.96 723.12,546.09 723.64,546.22 724.15,546.36 724.66,546.50 725.17,546.64 725.68,546.78 726.19,546.93 726.70,547.08 727.21,547.23 727.72,547.38 728.23,547.54 728.74,547.70 729.25,547.86 729.76,548.02 730.27,548.18 730.78,548.35 731.29,548.52 731.80,548.69 732.31,548.86 732.82,549.03 733.33,549.21 733.84,549.39 734.35,549.57 734.86,549.75 735.38,549.93 735.89,550.12 736.40,550.30 736.91,550.49 737.42,550.68 737.93,550.86 738.44,551.06 738.95,551.25 739.46,551.44 739.97,551.64 740.48,551.83 740.99,552.03 741.50,552.23 742.01,552.42 742.52,552.62 743.03,552.82 743.54,553.02 744.05,553.22 744.56,553.43 745.07,553.63 745.58,553.83 746.09,554.03 746.60,554.24 747.11,554.44 747.62,554.64 748.14,554.85 748.65,555.05 749.16,555.25 749.67,555.45 750.18,555.66 750.69,555.86 751.20,556.06 751.71,556.26 752.22,556.46 752.73,556.66 753.24,556.86 753.75,557.06 754.26,557.26 754.77,557.46 755.28,557.66 755.79,557.85 756.30,558.05 756.81,558.24 757.32,558.43 757.83,558.63 758.34,558.82 758.85,559.01 759.36,559.20 759.88,559.38 760.39,559.57 760.90,559.75 761.41,559.93 761.92,560.11 762.43,560.29 762.94,560.47 763.45,560.64 763.96,560.82 764.47,560.99 764.98,561.16 765.49,561.33 766.00,561.49 766.51,561.66 767.02,561.82 767.53,561.98 768.04,562.14 768.55,562.29 769.06,562.45 769.57,562.60 770.08,562.75 770.59,562.89 771.10,563.04 771.61,563.18 772.12,563.32 772.64,563.46 773.15,563.59 773.66,563.73 774.17,563.86 774.68,563.99 775.19,564.11 775.70,564.23 776.21,564.36 776.72,564.47 777.23,564.59 777.74,564.70 778.25,564.82 778.76,564.92 779.27,565.03 779.78,565.13 780.29,565.23 780.80,565.33 781.31,565.43 781.82,565.53 782.33,565.62 782.84,565.70 783.35,565.79 783.86,565.88 784.38,565.96 784.89,566.04 785.40,566.12 785.91,566.19 786.42,566.26 786.93,566.33 787.44,566.40 787.95,566.47 788.46,566.53 788.97,566.59 789.48,566.65 789.99,566.71 790.50,566.76 791.01,566.82 791.52,566.87 792.03,566.92 792.54,566.97 793.05,567.01 793.56,567.06 794.07,567.10 794.58,567.14 795.09,567.18 795.60,567.21 796.11,567.25 796.62,567.28 797.14,567.31 797.65,567.34 798.16,567.37 798.67,567.40 799.18,567.43 799.69,567.45 800.20,567.47 800.71,567.49 801.22,567.52 801.73,567.54 802.24,567.55 802.75,567.57 803.26,567.59 803.77,567.61 804.28,567.62 804.79,567.64 805.30,567.65 805.81,567.66 806.32,567.67 806.83,567.69 807.34,567.70 807.85,567.71 808.36,567.72 808.88,567.73 809.39,567.74 809.90,567.75 810.41,567.76 810.92,567.77 811.43,567.78 811.94,567.79 812.45,567.79 812.96,567.80 813.47,567.81 813.98,567.82 814.49,567.83 815.00,567.84 815.51,567.85 816.02,567.86 816.53,567.87 817.04,567.88 817.55,567.90 818.06,567.91 818.57,567.92 819.08,567.94 819.59,567.95 820.10,567.97 820.61,567.99 821.12,568.00 821.64,568.02 822.15,568.04 822.66,568.06 823.17,568.08 823.68,568.11 824.19,568.13 824.70,568.16 825.21,568.18 825.72,568.21 826.23,568.24 826.74,568.27 827.25,568.30 827.76,568.33 828.27,568.36 828.78,568.40 829.29,568.43 829.80,568.47 830.31,568.51 830.82,568.55 831.33,568.60 831.84,568.64 832.35,568.69 832.86,568.74 833.38,568.79 833.89,568.84 834.40,568.89 834.91,568.94 835.42,569.00 835.93,569.06 836.44,569.12 836.95,569.18 837.46,569.24 837.97,569.30 838.48,569.37 838.99,569.44 839.50,569.51 840.01,569.58 840.52,569.65 841.03,569.73 841.54,569.81 842.05,569.88 842.56,569.96 843.07,570.05 843.58,570.13 844.09,570.22 844.60,570.30 845.11,570.39 845.62,570.48 846.14,570.57 846.65,570.67 847.16,570.76 847.67,570.86 848.18,570.96 848.69,571.06 849.20,571.16 849.71,571.26 850.22,571.37 850.73,571.47 851.24,571.58 851.75,571.69 852.26,571.80 852.77,571.91 853.28,572.03 853.79,572.14 854.30,572.26 854.81,572.37 855.32,572.49 855.83,572.61 856.34,572.73 856.85,572.86 857.36,572.98 857.88,573.10 858.39,573.23 858.90,573.35 859.41,573.48 859.92,573.60 860.43,573.73 860.94,573.86 861.45,573.99 861.96,574.12 862.47,574.25 862.98,574.39 863.49,574.52 864.00,574.65 864.51,574.79 865.02,574.92 865.53,575.06 866.04,575.19 866.55,575.33 867.06,575.46 867.57,575.60 868.08,575.73 868.59,575.87 869.10,576.01 869.61,576.14 870.12,576.28 870.64,576.41 871.15,576.55 871.66,576.69 872.17,576.83 872.68,576.96 873.19,577.10 873.70,577.23 874.21,577.37 874.72,577.50 875.23,577.63 875.74,577.77 876.25,577.90 876.76,578.03 877.27,578.17 877.78,578.30 878.29,578.43 878.80,578.56 879.31,578.69 879.82,578.82 880.33,578.95 880.84,579.07 881.35,579.20 881.86,579.32 882.38,579.45 882.89,579.57 883.40,579.69 883.91,579.81 884.42,579.93 884.93,580.05 885.44,580.17 885.95,580.29 886.46,580.40 886.97,580.51 887.48,580.63 887.99,580.74 888.50,580.85 889.01,580.96 889.52,581.06 890.03,581.17 890.54,581.27 891.05,581.38 891.56,581.48 892.07,581.58 892.58,581.68 893.09,581.77 893.60,581.87 894.11,581.96 894.62,582.06 895.14,582.14 895.65,582.23 896.16,582.32 896.67,582.41 897.18,582.49 897.69,582.57 898.20,582.65 898.71,582.73 899.22,582.81 899.73,582.89 900.24,582.96 900.75,583.04 901.26,583.10 901.77,583.18 902.28,583.24 902.79,583.31 903.30,583.37 903.81,583.43 904.32,583.50 904.83,583.56 905.34,583.61 905.85,583.67 906.36,583.73 906.88,583.78 907.39,583.83 907.90,583.88 908.41,583.93 908.92,583.98 909.43,584.02 909.94,584.06 910.45,584.11 910.96,584.15 911.47,584.19 911.98,584.23 912.49,584.26 913.00,584.30 913.51,584.33 914.02,584.37 914.53,584.40 915.04,584.43 915.55,584.46 916.06,584.49 916.57,584.51 917.08,584.54 917.59,584.56 918.10,584.59 918.61,584.61 919.12,584.63 919.64,584.65 920.15,584.67 920.66,584.69 921.17,584.70 921.68,584.72 922.19,584.73 922.70,584.75 923.21,584.76 923.72,584.78 924.23,584.79 924.74,584.80 925.25,584.81 925.76,584.82 926.27,584.83 926.78,584.84 927.29,584.85 927.80,584.86 928.31,584.87 928.82,584.88 929.33,584.89 929.84,584.89 930.35,584.90 930.86,584.91 931.38,584.91 931.89,584.92 932.40,584.93 932.91,584.93 933.42,584.94 933.93,584.94 934.44,584.95 934.95,584.95 935.46,584.96 935.97,584.97 936.48,584.97 936.99,584.98 937.50,584.99 938.01,585.00 938.52,585.00 939.03,585.01 939.54,585.02 940.05,585.03 940.56,585.04 941.07,585.05 941.58,585.06 942.09,585.07 942.60,585.08 943.11,585.09 943.62,585.10 944.14,585.12 944.65,585.13 945.16,585.14 945.67,585.16 946.18,585.18 946.69,585.19 947.20,585.21 947.71,585.23 948.22,585.25 948.73,585.27 949.24,585.29 949.75,585.31 950.26,585.34 950.77,585.36 951.28,585.38 951.79,585.41 952.30,585.44 952.81,585.46 953.32,585.49 953.83,585.52 954.34,585.55 954.85,585.59 955.36,585.62 955.88,585.65 956.39,585.69 956.90,585.73 957.41,585.76 957.92,585.80 958.43,585.84 958.94,585.88 959.45,585.93 959.96,585.97 960.47,586.01 960.98,586.06 961.49,586.11 962.00,586.16 962.51,586.20 963.02,586.26 963.53,586.31 964.04,586.36 964.55,586.42 965.06,586.47 965.57,586.53 966.08,586.58 966.59,586.64 967.10,586.70 967.61,586.76 968.12,586.83 968.64,586.89 969.15,586.95 969.66,587.02 970.17,587.09 970.68,587.15 971.19,587.22 971.70,587.29 972.21,587.36 972.72,587.43 973.23,587.50 973.74,587.58 974.25,587.65 974.76,587.73 975.27,587.80 975.78,587.88 976.29,587.96 976.80,588.04 977.31,588.12 977.82,588.20 978.33,588.28 978.84,588.36 979.35,588.44 979.86,588.53 980.38,588.61 980.89,588.70 981.40,588.78 981.91,588.87 982.42,588.95 982.93,589.04 983.44,589.13 983.95,589.21 984.46,589.30 984.97,589.39 985.48,589.48 985.99,589.57 986.50,589.66 987.01,589.75 987.52,589.84 988.03,589.93 988.54,590.02 989.05,590.11 989.56,590.21 990.07,590.30 990.58,590.39 991.09,590.48 991.60,590.57 992.11,590.66 992.62,590.75 993.14,590.84 993.65,590.94 994.16,591.03 994.67,591.12 995.18,591.21 995.69,591.30 996.20,591.39 996.71,591.48 997.22,591.57 997.73,591.66 998.24,591.75 998.75,591.84 999.26,591.93 999.77,592.02 1000.28,592.10 1000.79,592.19 1001.30,592.28 1001.81,592.37 1002.32,592.45 1002.83,592.53 1003.34,592.62 1003.85,592.70 1004.36,592.79 1004.88,592.87 1005.39,592.95 1005.90,593.03 1006.41,593.11 1006.92,593.19 1007.43,593.27 1007.94,593.35 1008.45,593.43 1008.96,593.50 1009.47,593.58 1009.98,593.65 1010.49,593.73 1011.00,593.80 1011.51,593.87 1012.02,593.94 1012.53,594.01 1013.04,594.08 1013.55,594.15 1014.06,594.21 1014.57,594.28 1015.08,594.34 1015.59,594.41 1016.10,594.47 1016.61,594.53 1017.12,594.60 1017.64,594.65 1018.15,594.71 1018.66,594.77 1019.17,594.83 1019.68,594.88 1020.19,594.93 1020.70,594.99 1021.21,595.04 1021.72,595.09 1022.23,595.14 1022.74,595.19 1023.25,595.24 1023.76,595.28 1024.27,595.33 1024.78,595.37 1025.29,595.42 1025.80,595.46 1026.31,595.50 1026.82,595.54 1027.33,595.58 1027.84,595.62 1028.35,595.65 1028.86,595.69 1029.38,595.72 1029.89,595.76 1030.40,595.79 1030.91,595.82 1031.42,595.85 1031.93,595.88 1032.44,595.91 1032.95,595.93 1033.46,595.96 1033.97,595.99 1034.48,596.01 1034.99,596.03 1035.50,596.06 1036.01,596.08 1036.52,596.10 1037.03,596.12 1037.54,596.14 1038.05,596.16 1038.56,596.18 1039.07,596.19 1039.58,596.21 1040.09,596.23 1040.60,596.24 1041.11,596.25 1041.62,596.27 1042.14,596.28 1042.65,596.29 1043.16,596.30 1043.67,596.31 1044.18,596.33 1044.69,596.33 1045.20,596.34 1045.71,596.35 1046.22,596.36 1046.73,596.37 1047.24,596.38 1047.75,596.38 1048.26,596.39 1048.77,596.40 1049.28,596.40 1049.79,596.41 1050.30,596.41 1050.81,596.42 1051.32,596.42 1051.83,596.43 1052.34,596.43 1052.85,596.44 1053.36,596.44 1053.88,596.44 1054.39,596.45 1054.90,596.45 1055.41,596.46 1055.92,596.46 1056.43,596.47 1056.94,596.47 1057.45,596.47 1057.96,596.48 1058.47,596.48 1058.98,596.49 1059.49,596.49 1060.00,596.50" fill="none" stroke="#dc2626" stroke-width="3" stroke-linejoin="round" stroke-linecap="round"/>
<rect x="870" y="90" width="18" height="4" fill="#dc2626"/>
<text x="898" y="95" font-family="Arial, sans-serif" font-size="15" fill="#111827">damped</text>
<polyline points="80.00,50.00 80.51,50.10 81.02,50.20 81.53,50.32 82.04,50.46 82.55,50.64 83.06,50.85 83.57,51.11 84.08,51.42 84.59,51.79 85.10,52.23 85.61,52.73 86.12,53.30 86.64,53.94 87.15,54.67 87.66,55.48 88.17,56.37 88.68,57.34 89.19,58.40 89.70,59.55 90.21,60.79 90.72,62.12 91.23,63.54 91.74,65.05 92.25,66.65 92.76,68.34 93.27,70.12 93.78,71.98 94.29,73.94 94.80,75.99 95.31,78.12 95.82,80.33 96.33,82.63 96.84,85.02 97.35,87.48 97.86,90.02 98.38,92.64 98.89,95.34 99.40,98.11 99.91,100.95 100.42,103.86 100.93,106.84 101.44,109.89 101.95,113.00 102.46,116.17 102.97,119.40 103.48,122.69 103.99,126.03 104.50,129.43 105.01,132.88 105.52,136.37 106.03,139.92 106.54,143.51 107.05,147.14 107.56,150.81 108.07,154.52 108.58,158.27 109.09,162.05 109.60,165.86 110.11,169.70 110.62,173.57 111.14,177.47 111.65,181.39 112.16,185.33 112.67,189.29 113.18,193.27 113.69,197.27 114.20,201.28 114.71,205.30 115.22,209.34 115.73,213.38 116.24,217.44 116.75,221.50 117.26,225.56 117.77,229.63 118.28,233.70 118.79,237.77 119.30,241.84 119.81,245.91 120.32,249.97 120.83,254.03 121.34,258.08 121.85,262.12 122.36,266.16 122.88,270.19 123.39,274.20 123.90,278.20 124.41,282.19 124.92,286.16 125.43,290.12 125.94,294.07 126.45,297.99 126.96,301.90 127.47,305.79 127.98,309.66 128.49,313.51 129.00,317.34 129.51,321.14 130.02,324.93 130.53,328.69 131.04,332.43 131.55,336.14 132.06,339.83 132.57,343.49 133.08,347.12 133.59,350.73 134.10,354.32 134.61,357.87 135.12,361.40 135.64,364.90 136.15,368.37 136.66,371.82 137.17,375.23 137.68,378.61 138.19,381.97 138.70,385.29 139.21,388.59 139.72,391.85 140.23,395.08 140.74,398.29 141.25,401.46 141.76,404.60 142.27,407.71 142.78,410.79 143.29,413.83 143.80,416.85 144.31,419.83 144.82,422.79 145.33,425.71 145.84,428.60 146.35,431.45 146.86,434.28 147.38,437.08 147.89,439.84 148.40,442.57 148.91,445.27 149.42,447.94 149.93,450.58 150.44,453.18 150.95,455.76 151.46,458.30 151.97,460.82 152.48,463.30 152.99,465.75 153.50,468.17 154.01,470.57 154.52,472.93 155.03,475.26 155.54,477.56 156.05,479.83 156.56,482.07 157.07,484.29 157.58,486.47 158.09,488.63 158.60,490.76 159.11,492.86 159.62,494.92 160.14,496.97 160.65,498.98 161.16,500.97 161.67,502.93 162.18,504.86 162.69,506.77 163.20,508.64 163.71,510.50 164.22,512.32 164.73,514.12 165.24,515.90 165.75,517.65 166.26,519.37 166.77,521.07 167.28,522.74 167.79,524.39 168.30,526.02 168.81,527.62 169.32,529.20 169.83,530.75 170.34,532.28 170.85,533.79 171.36,535.28 171.88,536.74 172.39,538.18 172.90,539.60 173.41,541.00 173.92,542.37 174.43,543.73 174.94,545.06 175.45,546.37 175.96,547.66 176.47,548.94 176.98,550.19 177.49,551.42 178.00,552.63 178.51,553.83 179.02,555.00 179.53,556.15 180.04,557.29 180.55,558.41 181.06,559.51 181.57,560.60 182.08,561.66 182.59,562.71 183.10,563.74 183.61,564.76 184.12,565.75 184.64,566.73 185.15,567.70 185.66,568.65 186.17,569.58 186.68,570.50 187.19,571.40 187.70,572.29 188.21,573.16 188.72,574.02 189.23,574.86 189.74,575.69 190.25,576.51 190.76,577.31 191.27,578.10 191.78,578.87 192.29,579.64 192.80,580.38 193.31,581.12 193.82,581.84 194.33,582.55 194.84,583.25 195.35,583.94 195.86,584.61 196.38,585.27 196.89,585.92 197.40,586.56 197.91,587.19 198.42,587.81 198.93,588.42 199.44,589.01 199.95,589.60 200.46,590.17 200.97,590.74 201.48,591.29 201.99,591.84 202.50,592.37 203.01,592.90 203.52,593.41 204.03,593.92 204.54,594.42 205.05,594.91 205.56,595.39 206.07,595.86 206.58,596.32 207.09,596.78 207.60,597.22 208.11,597.66 208.62,598.09 209.14,598.51 209.65,598.93 210.16,599.33 210.67,599.73 211.18,600.13 211.69,600.51 212.20,600.89 212.71,601.26 213.22,601.63 213.73,601.98 214.24,602.34 214.75,602.68 215.26,603.02 215.77,603.35 216.28,603.68 216.79,603.99 217.30,604.31 217.81,604.62 218.32,604.92 218.83,605.21 219.34,605.50 219.85,605.79 220.36,606.07 220.88,606.35 221.39,606.61 221.90,606.88 222.41,607.14 222.92,607.39 223.43,607.64 223.94,607.89 224.45,608.13 224.96,608.36 225.47,608.59 225.98,608.82 226.49,609.04 227.00,609.26 227.51,609.48 228.02,609.69 228.53,609.89 229.04,610.10 229.55,610.29 230.06,610.49 230.57,610.68 231.08,610.87 231.59,611.05 232.10,611.23 232.61,611.40 233.12,611.58 233.64,611.75 234.15,611.91 234.66,612.08 235.17,612.24 235.68,612.39 236.19,612.55 236.70,612.70 237.21,612.85 237.72,612.99 238.23,613.13 238.74,613.27 239.25,613.41 239.76,613.54 240.27,613.67 240.78,613.80 241.29,613.93 241.80,614.05 242.31,614.17 242.82,614.29 243.33,614.41 243.84,614.52 244.35,614.63 244.86,614.74 245.38,614.85 245.89,614.96 246.40,615.06 246.91,615.16 247.42,615.26 247.93,615.36 248.44,615.45 248.95,615.55 249.46,615.64 249.97,615.73 250.48,615.82 250.99,615.90 251.50,615.99 252.01,616.07 252.52,616.15 253.03,616.23 253.54,616.31 254.05,616.38 254.56,616.46 255.07,616.53 255.58,616.60 256.09,616.67 256.60,616.74 257.11,616.81 257.62,616.88 258.14,616.94 258.65,617.00 259.16,617.07 259.67,617.13 260.18,617.19 260.69,617.25 261.20,617.30 261.71,617.36 262.22,617.42 262.73,617.47 263.24,617.52 263.75,617.57 264.26,617.62 264.77,617.67 265.28,617.72 265.79,617.77 266.30,617.82 266.81,617.86 267.32,617.91 267.83,617.95 268.34,617.99 268.85,618.04 269.36,618.08 269.88,618.12 270.39,618.16 270.90,618.20 271.41,618.23 271.92,618.27 272.43,618.31 272.94,618.34 273.45,618.38 273.96,618.41 274.47,618.45 274.98,618.48 275.49,618.51 276.00,618.54 276.51,618.57 277.02,618.60 277.53,618.63 278.04,618.66 278.55,618.69 279.06,618.72 279.57,618.75 280.08,618.77 280.59,618.80 281.10,618.82 281.61,618.85 282.12,618.87 282.64,618.90 283.15,618.92 283.66,618.94 284.17,618.97 284.68,618.99 285.19,619.01 285.70,619.03 286.21,619.05 286.72,619.07 287.23,619.09 287.74,619.11 288.25,619.13 288.76,619.15 289.27,619.16 289.78,619.18 290.29,619.20 290.80,619.22 291.31,619.24 291.82,619.25 292.33,619.27 292.84,619.28 293.35,619.30 293.86,619.31 294.38,619.33 294.89,619.34 295.40,619.36 295.91,619.37 296.42,619.38 296.93,619.40 297.44,619.41 297.95,619.42 298.46,619.44 298.97,619.45 299.48,619.46 299.99,619.47 300.50,619.48 301.01,619.49 301.52,619.50 302.03,619.52 302.54,619.52 303.05,619.54 303.56,619.55 304.07,619.56 304.58,619.56 305.09,619.58 305.60,619.58 306.11,619.59 306.62,619.60 307.14,619.61 307.65,619.62 308.16,619.63 308.67,619.64 309.18,619.64 309.69,619.65 310.20,619.66 310.71,619.67 311.22,619.67 311.73,619.68 312.24,619.69 312.75,619.69 313.26,619.70 313.77,619.71 314.28,619.71 314.79,619.72 315.30,619.73 315.81,619.73 316.32,619.74 316.83,619.74 317.34,619.75 317.85,619.75 318.36,619.76 318.88,619.76 319.39,619.77 319.90,619.77 320.41,619.78 320.92,619.78 321.43,619.79 321.94,619.79 322.45,619.80 322.96,619.80 323.47,619.81 323.98,619.81 324.49,619.81 325.00,619.82 325.51,619.82 326.02,619.83 326.53,619.83 327.04,619.83 327.55,619.84 328.06,619.84 328.57,619.85 329.08,619.85 329.59,619.85 330.10,619.85 330.61,619.86 331.12,619.86 331.64,619.86 332.15,619.87 332.66,619.87 333.17,619.87 333.68,619.87 334.19,619.88 334.70,619.88 335.21,619.88 335.72,619.89 336.23,619.89 336.74,619.89 337.25,619.89 337.76,619.90 338.27,619.90 338.78,619.90 339.29,619.90 339.80,619.91 340.31,619.91 340.82,619.91 341.33,619.91 341.84,619.91 342.35,619.91 342.86,619.92 343.38,619.92 343.89,619.92 344.40,619.92 344.91,619.92 345.42,619.93 345.93,619.93 346.44,619.93 346.95,619.93 347.46,619.93 347.97,619.93 348.48,619.93 348.99,619.94 349.50,619.94 350.01,619.94 350.52,619.94 351.03,619.94 351.54,619.94 352.05,619.94 352.56,619.95 353.07,619.95 353.58,619.95 354.09,619.95 354.60,619.95 355.11,619.95 355.62,619.95 356.14,619.95 356.65,619.95 357.16,619.95 357.67,619.96 358.18,619.96 358.69,619.96 359.20,619.96 359.71,619.96 360.22,619.96 360.73,619.96 361.24,619.96 361.75,619.96 362.26,619.97 362.77,619.97 363.28,619.97 363.79,619.97 364.30,619.97 364.81,619.97 365.32,619.97 365.83,619.97 366.34,619.97 366.85,619.97 367.36,619.97 367.88,619.97 368.39,619.97 368.90,619.97 369.41,619.97 369.92,619.97 370.43,619.97 370.94,619.97 371.45,619.98 371.96,619.98 372.47,619.98 372.98,619.98 373.49,619.98 374.00,619.98 374.51,619.98 375.02,619.98 375.53,619.98 376.04,619.98 376.55,619.98 377.06,619.98 377.57,619.98 378.08,619.98 378.59,619.98 379.10,619.98 379.61,619.98 380.12,619.98 380.64,619.98 381.15,619.99 381.66,619.99 382.17,619.99 382.68,619.99 383.19,619.99 383.70,619.99 384.21,619.99 384.72,619.99 385.23,619.99 385.74,619.99 386.25,619.99 386.76,619.99 387.27,619.99 387.78,619.99 388.29,619.99 388.80,619.99 389.31,619.99 389.82,619.99 390.33,619.99 390.84,619.99 391.35,619.99 391.86,619.99 392.38,619.99 392.89,619.99 393.40,619.99 393.91,619.99 394.42,619.99 394.93,619.99 395.44,619.99 395.95,619.99 396.46,619.99 396.97,619.99 397.48,619.99 397.99,619.99 398.50,619.99 399.01,619.99 399.52,619.99 400.03,619.99 400.54,619.99 401.05,619.99 401.56,619.99 402.07,619.99 402.58,619.99 403.09,619.99 403.60,619.99 404.11,619.99 404.62,619.99 405.14,619.99 405.65,619.99 406.16,619.99 406.67,619.99 407.18,619.99 407.69,619.99 408.20,619.99 408.71,619.99 409.22,619.99 409.73,619.99 410.24,620.00 410.75,620.00 411.26,620.00 411.77,620.00 412.28,620.00 412.79,620.00 413.30,620.00 413.81,620.00 414.32,620.00 414.83,620.00 415.34,620.00 415.85,620.00 416.36,620.00 416.88,620.00 417.39,620.00 417.90,620.00 418.41,620.00 418.92,620.00 419.43,620.00 419.94,620.00 420.45,620.00 420.96,620.00 421.47,620.00 421.98,620.00 422.49,620.00 423.00,620.00 423.51,620.00 424.02,620.00 424.53,620.00 425.04,620.00 425.55,620.00 426.06,620.00 426.57,620.00 427.08,620.00 427.59,620.00 428.10,620.00 428.61,620.00 429.12,620.00 429.64,620.00 430.15,620.00 430.66,620.00 431.17,620.00 431.68,620.00 432.19,620.00 432.70,620.00 433.21,620.00 433.72,620.00 434.23,620.00 434.74,620.00 435.25,620.00 435.76,620.00 436.27,620.00 436.78,620.00 437.29,620.00 437.80,620.00 438.31,620.00 438.82,620.00 439.33,620.00 439.84,620.00 440.35,620.00 440.86,620.00 441.38,620.00 441.89,620.00 442.40,620.00 442.91,620.00 443.42,620.00 443.93,620.00 444.44,620.00 444.95,620.00 445.46,620.00 445.97,620.00 446.48,620.00 446.99,620.00 447.50,620.00 448.01,620.00 448.52,620.00 449.03,620.00 449.54,620.00 450.05,620.00 450.56,620.00 451.07,620.00 451.58,620.00 452.09,620.00 452.60,620.00 453.11,620.00 453.62,620.00 454.14,620.00 454.65,620.00 455.16,620.00 455.67,620.00 456.18,620.00 456.69,620.00 457.20,620.00 457.71,620.00 458.22,620.00 458.73,620.00 459.24,620.00 459.75,620.00 460.26,620.00 460.77,620.00 461.28,620.00 461.79,620.00 462.30,620.00 462.81,620.00 463.32,620.00 463.83,620.00 464.34,620.00 464.85,620.00 465.36,620.00 465.88,620.00 466.39,620.00 466.90,620.00 467.41,620.00 467.92,620.00 468.43,620.00 468.94,620.00 469.45,620.00 469.96,620.00 470.47,620.00 470.98,620.00 471.49,620.00 472.00,620.00 472.51,620.00 473.02,620.00 473.53,620.00 474.04,620.00 474.55,620.00 475.06,620.00 475.57,620.00 476.08,620.00 476.59,620.00 477.10,620.00 477.61,620.00 478.12,620.00 478.64,620.00 479.15,620.00 479.66,620.00 480.17,620.00 480.68,620.00 481.19,620.00 481.70,620.00 482.21,620.00 482.72,620.00 483.23,620.00 483.74,620.00 484.25,620.00 484.76,620.00 485.27,620.00 485.78,620.00 486.29,620.00 486.80,620.00 487.31,620.00 487.82,620.00 488.33,620.00 488.84,620.00 489.35,620.00 489.86,620.00 490.38,620.00 490.89,620.00 491.40,620.00 491.91,620.00 492.42,620.00 492.93,620.00 493.44,620.00 493.95,620.00 494.46,620.00 494.97,620.00 495.48,620.00 495.99,620.00 496.50,620.00 497.01,620.00 497.52,620.00 498.03,620.00 498.54,620.00 499.05,620.00 499.56,620.00 500.07,620.00 500.58,620.00 501.09,620.00 501.60,620.00 502.11,620.00 502.62,620.00 503.14,620.00 503.65,620.00 504.16,620.00 504.67,620.00 505.18,620.00 505.69,620.00 506.20,620.00 506.71,620.00 507.22,620.00 507.73,620.00 508.24,620.00 508.75,620.00 509.26,620.00 509.77,620.00 510.28,620.00 510.79,620.00 511.30,620.00 511.81,620.00 512.32,620.00 512.83,620.00 513.34,620.00 513.85,620.00 514.36,620.00 514.88,620.00 515.39,620.00 515.90,620.00 516.41,620.00 516.92,620.00 517.43,620.00 517.94,620.00 518.45,620.00 518.96,620.00 519.47,620.00 519.98,620.00 520.49,620.00 521.00,620.00 521.51,620.00 522.02,620.00 522.53,620.00 523.04,620.00 523.55,620.00 524.06,620.00 524.57,620.00 525.08,620.00 525.59,620.00 526.10,620.00 526.61,620.00 527.12,620.00 527.64,620.00 528.15,620.00 528.66,620.00 529.17,620.00 529.68,620.00 530.19,620.00 530.70,620.00 531.21,620.00 531.72,620.00 532.23,620.00 532.74,620.00 533.25,620.00 533.76,620.00 534.27,620.00 534.78,620.00 535.29,620.00 535.80,620.00 536.31,620.00 536.82,620.00 537.33,620.00 537.84,620.00 538.35,620.00 538.86,620.00 539.38,620.00 539.89,620.00 540.40,620.00 540.91,620.00 541.42,620.00 541.93,620.00 542.44,620.00 542.95,620.00 543.46,620.00 543.97,620.00 544.48,620.00 544.99,620.00 545.50,620.00 546.01,620.00 546.52,620.00 547.03,620.00 547.54,620.00 548.05,620.00 548.56,620.00 549.07,620.00 549.58,620.00 550.09,620.00 550.60,620.00 551.11,620.00 551.62,620.00 552.14,620.00 552.65,620.00 553.16,620.00 553.67,620.00 554.18,620.00 554.69,620.00 555.20,620.00 555.71,620.00 556.22,620.00 556.73,620.00 557.24,620.00 557.75,620.00 558.26,620.00 558.77,620.00 559.28,620.00 559.79,620.00 560.30,620.00 560.81,620.00 561.32,620.00 561.83,620.00 562.34,620.00 562.85,620.00 563.36,620.00 563.88,620.00 564.39,620.00 564.90,620.00 565.41,620.00 565.92,620.00 566.43,620.00 566.94,620.00 567.45,620.00 567.96,620.00 568.47,620.00 568.98,620.00 569.49,620.00 570.00,620.00 570.51,620.00 571.02,620.00 571.53,620.00 572.04,620.00 572.55,620.00 573.06,620.00 573.57,620.00 574.08,620.00 574.59,620.00 575.10,620.00 575.61,620.00 576.12,620.00 576.64,620.00 577.15,620.00 577.66,620.00 578.17,620.00 578.68,620.00 579.19,620.00 579.70,620.00 580.21,620.00 580.72,620.00 581.23,620.00 581.74,620.00 582.25,620.00 582.76,620.00 583.27,620.00 583.78,620.00 584.29,620.00 584.80,620.00 585.31,620.00 585.82,620.00 586.33,620.00 586.84,620.00 587.35,620.00 587.86,620.00 588.38,620.00 588.89,620.00 589.40,620.00 589.91,620.00 590.42,620.00 590.93,620.00 591.44,620.00 591.95,620.00 592.46,620.00 592.97,620.00 593.48,620.00 593.99,620.00 594.50,620.00 595.01,620.00 595.52,620.00 596.03,620.00 596.54,620.00 597.05,620.00 597.56,620.00 598.07,620.00 598.58,620.00 599.09,620.00 599.60,620.00 600.11,620.00 600.62,620.00 601.14,620.00 601.65,620.00 602.16,620.00 602.67,620.00 603.18,620.00 603.69,620.00 604.20,620.00 604.71,620.00 605.22,620.00 605.73,620.00 606.24,620.00 606.75,620.00 607.26,620.00 607.77,620.00 608.28,620.00 608.79,620.00 609.30,620.00 609.81,620.00 610.32,620.00 610.83,620.00 611.34,620.00 611.85,620.00 612.36,620.00 612.88,620.00 613.39,620.00 613.90,620.00 614.41,620.00 614.92,620.00 615.43,620.00 615.94,620.00 616.45,620.00 616.96,620.00 617.47,620.00 617.98,620.00 618.49,620.00 619.00,620.00 619.51,620.00 620.02,620.00 620.53,620.00 621.04,620.00 621.55,620.00 622.06,620.00 622.57,620.00 623.08,620.00 623.59,620.00 624.10,620.00 624.61,620.00 625.12,620.00 625.64,620.00 626.15,620.00 626.66,620.00 627.17,620.00 627.68,620.00 628.19,620.00 628.70,620.00 629.21,620.00 629.72,620.00 630.23,620.00 630.74,620.00 631.25,620.00 631.76,620.00 632.27,620.00 632.78,620.00 633.29,620.00 633.80,620.00 634.31,620.00 634.82,620.00 635.33,620.00 635.84,620.00 636.35,620.00 636.86,620.00 637.38,620.00 637.89,620.00 638.40,620.00 638.91,620.00 639.42,620.00 639.93,620.00 640.44,620.00 640.95,620.00 641.46,620.00 641.97,620.00 642.48,620.00 642.99,620.00 643.50,620.00 644.01,620.00 644.52,620.00 645.03,620.00 645.54,620.00 646.05,620.00 646.56,620.00 647.07,620.00 647.58,620.00 648.09,620.00 648.60,620.00 649.11,620.00 649.62,620.00 650.14,620.00 650.65,620.00 651.16,620.00 651.67,620.00 652.18,620.00 652.69,620.00 653.20,620.00 653.71,620.00 654.22,620.00 654.73,620.00 655.24,620.00 655.75,620.00 656.26,620.00 656.77,620.00 657.28,620.00 657.79,620.00 658.30,620.00 658.81,620.00 659.32,620.00 659.83,620.00 660.34,620.00 660.85,620.00 661.36,620.00 661.88,620.00 662.39,620.00 662.90,620.00 663.41,620.00 663.92,620.00 664.43,620.00 664.94,620.00 665.45,620.00 665.96,620.00 666.47,620.00 666.98,620.00 667.49,620.00 668.00,620.00 668.51,620.00 669.02,620.00 669.53,620.00 670.04,620.00 670.55,620.00 671.06,620.00 671.57,620.00 672.08,620.00 672.59,620.00 673.10,620.00 673.61,620.00 674.12,620.00 674.64,620.00 675.15,620.00 675.66,620.00 676.17,620.00 676.68,620.00 677.19,620.00 677.70,620.00 678.21,620.00 678.72,620.00 679.23,620.00 679.74,620.00 680.25,620.00 680.76,620.00 681.27,620.00 681.78,620.00 682.29,620.00 682.80,620.00 683.31,620.00 683.82,620.00 684.33,620.00 684.84,620.00 685.35,620.00 685.86,620.00 686.38,620.00 686.89,620.00 687.40,620.00 687.91,620.00 688.42,620.00 688.93,620.00 689.44,620.00 689.95,620.00 690.46,620.00 690.97,620.00 691.48,620.00 691.99,620.00 692.50,620.00 693.01,620.00 693.52,620.00 694.03,620.00 694.54,620.00 695.05,620.00 695.56,620.00 696.07,620.00 696.58,620.00 697.09,620.00 697.60,620.00 698.11,620.00 698.62,620.00 699.14,620.00 699.65,620.00 700.16,620.00 700.67,620.00 701.18,620.00 701.69,620.00 702.20,620.00 702.71,620.00 703.22,620.00 703.73,620.00 704.24,620.00 704.75,620.00 705.26,620.00 705.77,620.00 706.28,620.00 706.79,620.00 707.30,620.00 707.81,620.00 708.32,620.00 708.83,620.00 709.34,620.00 709.85,620.00 710.36,620.00 710.88,620.00 711.39,620.00 711.90,620.00 712.41,620.00 712.92,620.00 713.43,620.00 713.94,620.00 714.45,620.00 714.96,620.00 715.47,620.00 715.98,620.00 716.49,620.00 717.00,620.00 717.51,620.00 718.02,620.00 718.53,620.00 719.04,620.00 719.55,620.00 720.06,620.00 720.57,620.00 721.08,620.00 721.59,620.00 722.10,620.00 722.61,620.00 723.12,620.00 723.64,620.00 724.15,620.00 724.66,620.00 725.17,620.00 725.68,620.00 726.19,620.00 726.70,620.00 727.21,620.00 727.72,620.00 728.23,620.00 728.74,620.00 729.25,620.00 729.76,620.00 730.27,620.00 730.78,620.00 731.29,620.00 731.80,620.00 732.31,620.00 732.82,620.00 733.33,620.00 733.84,620.00 734.35,620.00 734.86,620.00 735.38,620.00 735.89,620.00 736.40,620.00 736.91,620.00 737.42,620.00 737.93,620.00 738.44,620.00 738.95,620.00 739.46,620.00 739.97,620.00 740.48,620.00 740.99,620.00 741.50,620.00 742.01,620.00 742.52,620.00 743.03,620.00 743.54,620.00 744.05,620.00 744.56,620.00 745.07,620.00 745.58,620.00 746.09,620.00 746.60,620.00 747.11,620.00 747.62,620.00 748.14,620.00 748.65,620.00 749.16,620.00 749.67,620.00 750.18,620.00 750.69,620.00 751.20,620.00 751.71,620.00 752.22,620.00 752.73,620.00 753.24,620.00 753.75,620.00 754.26,620.00 754.77,620.00 755.28,620.00 755.79,620.00 756.30,620.00 756.81,620.00 757.32,620.00 757.83,620.00 758.34,620.00 758.85,620.00 759.36,620.00 759.88,620.00 760.39,620.00 760.90,620.00 761.41,620.00 761.92,620.00 762.43,620.00 762.94,620.00 763.45,620.00 763.96,620.00 764.47,620.00 764.98,620.00 765.49,620.00 766.00,620.00 766.51,620.00 767.02,620.00 767.53,620.00 768.04,620.00 768.55,620.00 769.06,620.00 769.57,620.00 770.08,620.00 770.59,620.00 771.10,620.00 771.61,620.00 772.12,620.00 772.64,620.00 773.15,620.00 773.66,620.00 774.17,620.00 774.68,620.00 775.19,620.00 775.70,620.00 776.21,620.00 776.72,620.00 777.23,620.00 777.74,620.00 778.25,620.00 778.76,620.00 779.27,620.00 779.78,620.00 780.29,620.00 780.80,620.00 781.31,620.00 781.82,620.00 782.33,620.00 782.84,620.00 783.35,620.00 783.86,620.00 784.38,620.00 784.89,620.00 785.40,620.00 785.91,620.00 786.42,620.00 786.93,620.00 787.44,620.00 787.95,620.00 788.46,620.00 788.97,620.00 789.48,620.00 789.99,620.00 790.50,620.00 791.01,620.00 791.52,620.00 792.03,620.00 792.54,620.00 793.05,620.00 793.56,620.00 794.07,620.00 794.58,620.00 795.09,620.00 795.60,620.00 796.11,620.00 796.62,620.00 797.14,620.00 797.65,620.00 798.16,620.00 798.67,620.00 799.18,620.00 799.69,620.00 800.20,620.00 800.71,620.00 801.22,620.00 801.73,620.00 802.24,620.00 802.75,620.00 803.26,620.00 803.77,620.00 804.28,620.00 804.79,620.00 805.30,620.00 805.81,620.00 806.32,620.00 806.83,620.00 807.34,620.00 807.85,620.00 808.36,620.00 808.88,620.00 809.39,620.00 809.90,620.00 810.41,620.00 810.92,620.00 811.43,620.00 811.94,620.00 812.45,620.00 812.96,620.00 813.47,620.00 813.98,620.00 814.49,620.00 815.00,620.00 815.51,620.00 816.02,620.00 816.53,620.00 817.04,620.00 817.55,620.00 818.06,620.00 818.57,620.00 819.08,620.00 819.59,620.00 820.10,620.00 820.61,620.00 821.12,620.00 821.64,620.00 822.15,620.00 822.66,620.00 823.17,620.00 823.68,620.00 824.19,620.00 824.70,620.00 825.21,620.00 825.72,620.00 826.23,620.00 826.74,620.00 827.25,620.00 827.76,620.00 828.27,620.00 828.78,620.00 829.29,620.00 829.80,620.00 830.31,620.00 830.82,620.00 831.33,620.00 831.84,620.00 832.35,620.00 832.86,620.00 833.38,620.00 833.89,620.00 834.40,620.00 834.91,620.00 835.42,620.00 835.93,620.00 836.44,620.00 836.95,620.00 837.46,620.00 837.97,620.00 838.48,620.00 838.99,620.00 839.50,620.00 840.01,620.00 840.52,620.00 841.03,620.00 841.54,620.00 842.05,620.00 842.56,620.00 843.07,620.00 843.58,620.00 844.09,620.00 844.60,620.00 845.11,620.00 845.62,620.00 846.14,620.00 846.65,620.00 847.16,620.00 847.67,620.00 848.18,620.00 848.69,620.00 849.20,620.00 849.71,620.00 850.22,620.00 850.73,620.00 851.24,620.00 851.75,620.00 852.26,620.00 852.77,620.00 853.28,620.00 853.79,620.00 854.30,620.00 854.81,620.00 855.32,620.00 855.83,620.00 856.34,620.00 856.85,620.00 857.36,620.00 857.88,620.00 858.39,620.00 858.90,620.00 859.41,620.00 859.92,620.00 860.43,620.00 860.94,620.00 861.45,620.00 861.96,620.00 862.47,620.00 862.98,620.00 863.49,620.00 864.00,620.00 864.51,620.00 865.02,620.00 865.53,620.00 866.04,620.00 866.55,620.00 867.06,620.00 867.57,620.00 868.08,620.00 868.59,620.00 869.10,620.00 869.61,620.00 870.12,620.00 870.64,620.00 871.15,620.00 871.66,620.00 872.17,620.00 872.68,620.00 873.19,620.00 873.70,620.00 874.21,620.00 874.72,620.00 875.23,620.00 875.74,620.00 876.25,620.00 876.76,620.00 877.27,620.00 877.78,620.00 878.29,620.00 878.80,620.00 879.31,620.00 879.82,620.00 880.33,620.00 880.84,620.00 881.35,620.00 881.86,620.00 882.38,620.00 882.89,620.00 883.40,620.00 883.91,620.00 884.42,620.00 884.93,620.00 885.44,620.00 885.95,620.00 886.46,620.00 886.97,620.00 887.48,620.00 887.99,620.00 888.50,620.00 889.01,620.00 889.52,620.00 890.03,620.00 890.54,620.00 891.05,620.00 891.56,620.00 892.07,620.00 892.58,620.00 893.09,620.00 893.60,620.00 894.11,620.00 894.62,620.00 895.14,620.00 895.65,620.00 896.16,620.00 896.67,620.00 897.18,620.00 897.69,620.00 898.20,620.00 898.71,620.00 899.22,620.00 899.73,620.00 900.24,620.00 900.75,620.00 901.26,620.00 901.77,620.00 902.28,620.00 902.79,620.00 903.30,620.00 903.81,620.00 904.32,620.00 904.83,620.00 905.34,620.00 905.85,620.00 906.36,620.00 906.88,620.00 907.39,620.00 907.90,620.00 908.41,620.00 908.92,620.00 909.43,620.00 909.94,620.00 910.45,620.00 910.96,620.00 911.47,620.00 911.98,620.00 912.49,620.00 913.00,620.00 913.51,620.00 914.02,620.00 914.53,620.00 915.04,620.00 915.55,620.00 916.06,620.00 916.57,620.00 917.08,620.00 917.59,620.00 918.10,620.00 918.61,620.00 919.12,620.00 919.64,620.00 920.15,620.00 920.66,620.00 921.17,620.00 921.68,620.00 922.19,620.00 922.70,620.00 923.21,620.00 923.72,620.00 924.23,620.00 924.74,620.00 925.25,620.00 925.76,620.00 926.27,620.00 926.78,620.00 927.29,620.00 927.80,620.00 928.31,620.00 928.82,620.00 929.33,620.00 929.84,620.00 930.35,620.00 930.86,620.00 931.38,620.00 931.89,620.00 932.40,620.00 932.91,620.00 933.42,620.00 933.93,620.00 934.44,620.00 934.95,620.00 935.46,620.00 935.97,620.00 936.48,620.00 936.99,620.00 937.50,620.00 938.01,620.00 938.52,620.00 939.03,620.00 939.54,620.00 940.05,620.00 940.56,620.00 941.07,620.00 941.58,620.00 942.09,620.00 942.60,620.00 943.11,620.00 943.62,620.00 944.14,620.00 944.65,620.00 945.16,620.00 945.67,620.00 946.18,620.00 946.69,620.00 947.20,620.00 947.71,620.00 948.22,620.00 948.73,620.00 949.24,620.00 949.75,620.00 950.26,620.00 950.77,620.00 951.28,620.00 951.79,620.00 952.30,620.00 952.81,620.00 953.32,620.00 953.83,620.00 954.34,620.00 954.85,620.00 955.36,620.00 955.88,620.00 956.39,620.00 956.90,620.00 957.41,620.00 957.92,620.00 958.43,620.00 958.94,620.00 959.45,620.00 959.96,620.00 960.47,620.00 960.98,620.00 961.49,620.00 962.00,620.00 962.51,620.00 963.02,620.00 963.53,620.00 964.04,620.00 964.55,620.00 965.06,620.00 965.57,620.00 966.08,620.00 966.59,620.00 967.10,620.00 967.61,620.00 968.12,620.00 968.64,620.00 969.15,620.00 969.66,620.00 970.17,620.00 970.68,620.00 971.19,620.00 971.70,620.00 972.21,620.00 972.72,620.00 973.23,620.00 973.74,620.00 974.25,620.00 974.76,620.00 975.27,620.00 975.78,620.00 976.29,620.00 976.80,620.00 977.31,620.00 977.82,620.00 978.33,620.00 978.84,620.00 979.35,620.00 979.86,620.00 980.38,620.00 980.89,620.00 981.40,620.00 981.91,620.00 982.42,620.00 982.93,620.00 983.44,620.00 983.95,620.00 984.46,620.00 984.97,620.00 985.48,620.00 985.99,620.00 986.50,620.00 987.01,620.00 987.52,620.00 988.03,620.00 988.54,620.00 989.05,620.00 989.56,620.00 990.07,620.00 990.58,620.00 991.09,620.00 991.60,620.00 992.11,620.00 992.62,620.00 993.14,620.00 993.65,620.00 994.16,620.00 994.67,620.00 995.18,620.00 995.69,620.00 996.20,620.00 996.71,620.00 997.22,620.00 997.73,620.00 998.24,620.00 998.75,620.00 999.26,620.00 999.77,620.00 1000.28,620.00 1000.79,620.00 1001.30,620.00 1001.81,620.00 1002.32,620.00 1002.83,620.00 1003.34,620.00 1003.85,620.00 1004.36,620.00 1004.88,620.00 1005.39,620.00 1005.90,620.00 1006.41,620.00 1006.92,620.00 1007.43,620.00 1007.94,620.00 1008.45,620.00 1008.96,620.00 1009.47,620.00 1009.98,620.00 1010.49,620.00 1011.00,620.00 1011.51,620.00 1012.02,620.00 1012.53,620.00 1013.04,620.00 1013.55,620.00 1014.06,620.00 1014.57,620.00 1015.08,620.00 1015.59,620.00 1016.10,620.00 1016.61,620.00 1017.12,620.00 1017.64,620.00 1018.15,620.00 1018.66,620.00 1019.17,620.00 1019.68,620.00 1020.19,620.00 1020.70,620.00 1021.21,620.00 1021.72,620.00 1022.23,620.00 1022.74,620.00 1023.25,620.00 1023.76,620.00 1024.27,620.00 1024.78,620.00 1025.29,620.00 1025.80,620.00 1026.31,620.00 1026.82,620.00 1027.33,620.00 1027.84,620.00 1028.35,620.00 1028.86,620.00 1029.38,620.00 1029.89,620.00 1030.40,620.00 1030.91,620.00 1031.42,620.00 1031.93,620.00 1032.44,620.00 1032.95,620.00 1033.46,620.00 1033.97,620.00 1034.48,620.00 1034.99,620.00 1035.50,620.00 1036.01,620.00 1036.52,620.00 1037.03,620.00 1037.54,620.00 1038.05,620.00 1038.56,620.00 1039.07,620.00 1039.58,620.00 1040.09,620.00 1040.60,620.00 1041.11,620.00 1041.62,620.00 1042.14,620.00 1042.65,620.00 1043.16,620.00 1043.67,620.00 1044.18,620.00 1044.69,620.00 1045.20,620.00 1045.71,620.00 1046.22,620.00 1046.73,620.00 1047.24,620.00 1047.75,620.00 1048.26,620.00 1048.77,620.00 1049.28,620.00 1049.79,620.00 1050.30,620.00 1050.81,620.00 1051.32,620.00 1051.83,620.00 1052.34,620.00 1052.85,620.00 1053.36,620.00 1053.88,620.00 1054.39,620.00 1054.90,620.00 1055.41,620.00 1055.92,620.00 1056.43,620.00 1056.94,620.00 1057.45,620.00 1057.96,620.00 1058.47,620.00 1058.98,620.00 1059.49,620.00 1060.00,620.00" fill="none" stroke="#059669" stroke-width="3" stroke-linejoin="round" stroke-linecap="round"/>
<rect x="870" y="118" width="18" height="4" fill="#059669"/>
<text x="898" y="123" font-family="Arial, sans-serif" font-size="15" fill="#111827">critical</text>
</svg>
