<svg xmlns="http://www.w3.org/2000/svg" width="1100" height="700" viewBox="0 0 1100 700">
<rect width="100%" height="100%" fill="#f8fafc"/>
<text x="80" y="32" font-family="Arial, sans-serif" font-size="24" fill="#111827">Spring Position</text>
<line x1="80.00" y1="620.00" x2="1060.00" y2="620.00" stroke="#374151" stroke-width="2"/>
<line x1="80.00" y1="620.00" x2="80.00" y2="50.00" stroke="#374151" stroke-width="2"/>
<text x="550.00" y="672" text-anchor="middle" font-family="Arial, sans-serif" font-size="16" fill="#374151">time (s)</text>
<text x="22" y="350.00" text-anchor="middle" transform="rotate(-90 22 350.00)" font-family="Arial, sans-serif" font-size="16" fill="#374151">position (m)</text>
<text x="80" y="646" font-family="Arial, sans-serif" font-size="13" fill="#6b7280">0.00</text>
<text x="1060" y="646" text-anchor="end" font-family="Arial, sans-serif" font-size="13" fill="#6b7280">8.00</text>
<text x="68" y="620.00" text-anchor="end" dominant-baseline="middle" font-family="Arial, sans-serif" font-size="13" fill="#6b7280">-0.20</text>
<text x="68" y="50.00" text-anchor="end" dominant-baseline="middle" font-family="Arial, sans-serif" font-size="13" fill="#6b7280">0.20</text>
<polyline points="80.00,50.00 80.51,50.02 81.02,50.10 81.53,50.22 82.04,50.40 82.55,50.62 83.06,50.89 83.57,51.21 84.08,51.58 84.59,52.00 85.10,52.47 85.61,52.99 86.12,53.56 86.64,54.17 87.15,54.84 87.66,55.55 88.17,56.31 88.68,57.12 89.19,57.98 89.70,58.88 90.21,59.84 90.72,60.84 91.23,61.89 91.74,62.99 92.25,64.13 92.76,65.32 93.27,66.56 93.78,67.85 94.29,69.18 94.80,70.55 95.31,71.98 95.82,73.45 96.33,74.96 96.84,76.52 97.35,78.12 97.86,79.77 98.38,81.47 98.89,83.20 99.40,84.98 99.91,86.81 100.42,88.68 100.93,90.59 101.44,92.54 101.95,94.53 102.46,96.57 102.97,98.65 103.48,100.77 103.99,102.93 104.50,105.12 105.01,107.36 105.52,109.64 106.03,111.96 106.54,114.32 107.05,116.71 107.56,119.15 108.07,121.62 108.58,124.13 109.09,126.67 109.60,129.25 110.11,131.87 110.62,134.52 111.14,137.21 111.65,139.93 112.16,142.68 112.67,145.47 113.18,148.29 113.69,151.14 114.20,154.03 114.71,156.94 115.22,159.89 115.73,162.87 116.24,165.88 116.75,168.91 117.26,171.98 117.77,175.08 118.28,178.20 118.79,181.35 119.30,184.52 119.81,187.72 120.32,190.95 120.83,194.21 121.34,197.48 121.85,200.78 122.36,204.11 122.88,207.45 123.39,210.82 123.90,214.21 124.41,217.63 124.92,221.06 125.43,224.51 125.94,227.98 126.45,231.47 126.96,234.98 127.47,238.50 127.98,242.04 128.49,245.60 129.00,249.18 129.51,252.76 130.02,256.37 130.53,259.98 131.04,263.61 131.55,267.25 132.06,270.91 132.57,274.57 133.08,278.25 133.59,281.93 134.10,285.63 134.61,289.33 135.12,293.04 135.64,296.76 136.15,300.48 136.66,304.21 137.17,307.95 137.68,311.69 138.19,315.43 138.70,319.18 139.21,322.93 139.72,326.68 140.23,330.44 140.74,334.19 141.25,337.95 141.76,341.70 142.27,345.46 142.78,349.21 143.29,352.96 143.80,356.70 144.31,360.44 144.82,364.18 145.33,367.92 145.84,371.64 146.35,375.36 146.86,379.08 147.38,382.78 147.89,386.48 148.40,390.17 148.91,393.85 149.42,397.52 149.93,401.18 150.44,404.82 150.95,408.46 151.46,412.08 151.97,415.69 152.48,419.28 152.99,422.86 153.50,426.43 154.01,429.98 154.52,433.51 155.03,437.02 155.54,440.52 156.05,444.00 156.56,447.46 157.07,450.90 157.58,454.32 158.09,457.72 158.60,461.10 159.11,464.46 159.62,467.79 160.14,471.10 160.65,474.39 161.16,477.65 161.67,480.89 162.18,484.10 162.69,487.29 163.20,490.45 163.71,493.59 164.22,496.69 164.73,499.77 165.24,502.82 165.75,505.84 166.26,508.83 166.77,511.79 167.28,514.72 167.79,517.62 168.30,520.49 168.81,523.32 169.32,526.12 169.83,528.89 170.34,531.63 170.85,534.33 171.36,537.00 171.88,539.63 172.39,542.22 172.90,544.78 173.41,547.31 173.92,549.79 174.43,552.24 174.94,554.66 175.45,557.03 175.96,559.36 176.47,561.66 176.98,563.92 177.49,566.13 178.00,568.31 178.51,570.45 179.02,572.54 179.53,574.60 180.04,576.61 180.55,578.58 181.06,580.51 181.57,582.39 182.08,584.24 182.59,586.04 183.10,587.79 183.61,589.50 184.12,591.17 184.64,592.80 185.15,594.37 185.66,595.91 186.17,597.40 186.68,598.84 187.19,600.24 187.70,601.59 188.21,602.89 188.72,604.15 189.23,605.36 189.74,606.53 190.25,607.64 190.76,608.71 191.27,609.74 191.78,610.71 192.29,611.64 192.80,612.52 193.31,613.35 193.82,614.13 194.33,614.86 194.84,615.55 195.35,616.19 195.86,616.77 196.38,617.31 196.89,617.80 197.40,618.24 197.91,618.63 198.42,618.98 198.93,619.27 199.44,619.51 199.95,619.71 200.46,619.85 200.97,619.95 201.48,620.00 201.99,619.99 202.50,619.94 203.01,619.84 203.52,619.69 204.03,619.48 204.54,619.23 205.05,618.93 205.56,618.58 206.07,618.18 206.58,617.74 207.09,617.24 207.60,616.70 208.11,616.10 208.62,615.46 209.14,614.76 209.65,614.02 210.16,613.23 210.67,612.40 211.18,611.51 211.69,610.58 212.20,609.60 212.71,608.57 213.22,607.49 213.73,606.37 214.24,605.20 214.75,603.98 215.26,602.71 215.77,601.40 216.28,600.04 216.79,598.64 217.30,597.19 217.81,595.70 218.32,594.16 218.83,592.57 219.34,590.94 219.85,589.27 220.36,587.55 220.88,585.79 221.39,583.98 221.90,582.13 222.41,580.24 222.92,578.31 223.43,576.33 223.94,574.31 224.45,572.25 224.96,570.15 225.47,568.01 225.98,565.83 226.49,563.60 227.00,561.34 227.51,559.04 228.02,556.70 228.53,554.32 229.04,551.90 229.55,549.45 230.06,546.96 230.57,544.43 231.08,541.86 231.59,539.26 232.10,536.62 232.61,533.95 233.12,531.25 233.64,528.51 234.15,525.73 234.66,522.93 235.17,520.09 235.68,517.22 236.19,514.31 236.70,511.38 237.21,508.41 237.72,505.42 238.23,502.39 238.74,499.34 239.25,496.26 239.76,493.15 240.27,490.01 240.78,486.85 241.29,483.66 241.80,480.44 242.31,477.20 242.82,473.93 243.33,470.64 243.84,467.33 244.35,463.99 244.86,460.63 245.38,457.25 245.89,453.84 246.40,450.42 246.91,446.98 247.42,443.51 247.93,440.03 248.44,436.53 248.95,433.02 249.46,429.48 249.97,425.93 250.48,422.36 250.99,418.78 251.50,415.18 252.01,411.57 252.52,407.95 253.03,404.31 253.54,400.67 254.05,397.01 254.56,393.34 255.07,389.65 255.58,385.97 256.09,382.27 256.60,378.56 257.11,374.84 257.62,371.12 258.14,367.39 258.65,363.66 259.16,359.92 259.67,356.18 260.18,352.43 260.69,348.68 261.20,344.93 261.71,341.18 262.22,337.42 262.73,333.67 263.24,329.91 263.75,326.16 264.26,322.41 264.77,318.66 265.28,314.91 265.79,311.16 266.30,307.42 266.81,303.69 267.32,299.96 267.83,296.24 268.34,292.52 268.85,288.81 269.36,285.11 269.88,281.42 270.39,277.73 270.90,274.06 271.41,270.40 271.92,266.74 272.43,263.10 272.94,259.48 273.45,255.86 273.96,252.26 274.47,248.67 274.98,245.10 275.49,241.55 276.00,238.01 276.51,234.49 277.02,230.98 277.53,227.50 278.04,224.03 278.55,220.58 279.06,217.15 279.57,213.74 280.08,210.35 280.59,206.99 281.10,203.64 281.61,200.32 282.12,197.02 282.64,193.75 283.15,190.50 283.66,187.28 284.17,184.08 284.68,180.90 285.19,177.76 285.70,174.64 286.21,171.55 286.72,168.49 287.23,165.46 287.74,162.45 288.25,159.48 288.76,156.54 289.27,153.62 289.78,150.74 290.29,147.89 290.80,145.08 291.31,142.29 291.82,139.54 292.33,136.83 292.84,134.15 293.35,131.50 293.86,128.89 294.38,126.31 294.89,123.77 295.40,121.27 295.91,118.81 296.42,116.38 296.93,113.99 297.44,111.64 297.95,109.32 298.46,107.05 298.97,104.82 299.48,102.62 299.99,100.47 300.50,98.35 301.01,96.28 301.52,94.25 302.03,92.26 302.54,90.32 303.05,88.41 303.56,86.55 304.07,84.73 304.58,82.96 305.09,81.23 305.60,79.54 306.11,77.90 306.62,76.30 307.14,74.75 307.65,73.24 308.16,71.78 308.67,70.36 309.18,68.99 309.69,67.66 310.20,66.38 310.71,65.15 311.22,63.97 311.73,62.83 312.24,61.74 312.75,60.70 313.26,59.70 313.77,58.76 314.28,57.85 314.79,57.00 315.30,56.20 315.81,55.45 316.32,54.74 316.83,54.08 317.34,53.47 317.85,52.91 318.36,52.40 318.88,51.94 319.39,51.53 319.90,51.16 320.41,50.85 320.92,50.58 321.43,50.37 321.94,50.20 322.45,50.09 322.96,50.02 323.47,50.00 323.98,50.03 324.49,50.11 325.00,50.24 325.51,50.42 326.02,50.65 326.53,50.93 327.04,51.26 327.55,51.64 328.06,52.06 328.57,52.54 329.08,53.07 329.59,53.64 330.10,54.26 330.61,54.93 331.12,55.65 331.64,56.42 332.15,57.24 332.66,58.10 333.17,59.01 333.68,59.98 334.19,60.98 334.70,62.04 335.21,63.14 335.72,64.30 336.23,65.49 336.74,66.74 337.25,68.03 337.76,69.37 338.27,70.75 338.78,72.18 339.29,73.65 339.80,75.18 340.31,76.74 340.82,78.35 341.33,80.01 341.84,81.71 342.35,83.45 342.86,85.24 343.38,87.07 343.89,88.94 344.40,90.86 344.91,92.81 345.42,94.81 345.93,96.86 346.44,98.94 346.95,101.06 347.46,103.23 347.97,105.44 348.48,107.68 348.99,109.97 349.50,112.29 350.01,114.65 350.52,117.05 351.03,119.49 351.54,121.97 352.05,124.48 352.56,127.03 353.07,129.61 353.58,132.24 354.09,134.89 354.60,137.58 355.11,140.31 355.62,143.07 356.14,145.86 356.65,148.69 357.16,151.54 357.67,154.43 358.18,157.36 358.69,160.31 359.20,163.29 359.71,166.30 360.22,169.34 360.73,172.41 361.24,175.51 361.75,178.64 362.26,181.79 362.77,184.97 363.28,188.18 363.79,191.41 364.30,194.66 364.81,197.94 365.32,201.25 365.83,204.57 366.34,207.92 366.85,211.30 367.36,214.69 367.88,218.10 368.39,221.54 368.90,224.99 369.41,228.47 369.92,231.96 370.43,235.47 370.94,239.00 371.45,242.54 371.96,246.10 372.47,249.68 372.98,253.27 373.49,256.87 374.00,260.49 374.51,264.12 375.02,267.76 375.53,271.42 376.04,275.08 376.55,278.76 377.06,282.45 377.57,286.14 378.08,289.85 378.59,293.56 379.10,297.28 379.61,301.00 380.12,304.73 380.64,308.47 381.15,312.21 381.66,315.95 382.17,319.70 382.68,323.45 383.19,327.21 383.70,330.96 384.21,334.72 384.72,338.47 385.23,342.23 385.74,345.98 386.25,349.73 386.76,353.48 387.27,357.23 387.78,360.97 388.29,364.71 388.80,368.44 389.31,372.16 389.82,375.88 390.33,379.60 390.84,383.30 391.35,387.00 391.86,390.68 392.38,394.36 392.89,398.03 393.40,401.69 393.91,405.33 394.42,408.96 394.93,412.58 395.44,416.19 395.95,419.78 396.46,423.36 396.97,426.92 397.48,430.47 397.99,434.00 398.50,437.51 399.01,441.01 399.52,444.48 400.03,447.94 400.54,451.38 401.05,454.80 401.56,458.19 402.07,461.57 402.58,464.92 403.09,468.25 403.60,471.56 404.11,474.85 404.62,478.11 405.14,481.34 405.65,484.55 406.16,487.73 406.67,490.89 407.18,494.02 407.69,497.12 408.20,500.20 408.71,503.24 409.22,506.26 409.73,509.25 410.24,512.20 410.75,515.13 411.26,518.02 411.77,520.89 412.28,523.72 412.79,526.51 413.30,529.28 413.81,532.01 414.32,534.70 414.83,537.37 415.34,539.99 415.85,542.58 416.36,545.14 416.88,547.66 417.39,550.14 417.90,552.58 418.41,554.99 418.92,557.36 419.43,559.69 419.94,561.98 420.45,564.23 420.96,566.44 421.47,568.61 421.98,570.74 422.49,572.83 423.00,574.88 423.51,576.89 424.02,578.85 424.53,580.77 425.04,582.65 425.55,584.49 426.06,586.28 426.57,588.03 427.08,589.74 427.59,591.40 428.10,593.02 428.61,594.59 429.12,596.12 429.64,597.60 430.15,599.04 430.66,600.43 431.17,601.77 431.68,603.07 432.19,604.32 432.70,605.53 433.21,606.68 433.72,607.80 434.23,608.86 434.74,609.88 435.25,610.84 435.76,611.76 436.27,612.64 436.78,613.46 437.29,614.24 437.80,614.96 438.31,615.64 438.82,616.27 439.33,616.85 439.84,617.38 440.35,617.87 440.86,618.30 441.38,618.69 441.89,619.02 442.40,619.31 442.91,619.55 443.42,619.73 443.93,619.87 444.44,619.96 444.95,620.00 445.46,619.99 445.97,619.93 446.48,619.82 446.99,619.66 447.50,619.45 448.01,619.19 448.52,618.89 449.03,618.53 449.54,618.12 450.05,617.67 450.56,617.17 451.07,616.61 451.58,616.01 452.09,615.36 452.60,614.66 453.11,613.92 453.62,613.12 454.14,612.28 454.65,611.38 455.16,610.44 455.67,609.45 456.18,608.42 456.69,607.34 457.20,606.21 457.71,605.03 458.22,603.80 458.73,602.53 459.24,601.21 459.75,599.85 460.26,598.44 460.77,596.98 461.28,595.48 461.79,593.94 462.30,592.35 462.81,590.71 463.32,589.03 463.83,587.31 464.34,585.54 464.85,583.73 465.36,581.87 465.88,579.97 466.39,578.03 466.90,576.05 467.41,574.03 467.92,571.96 468.43,569.85 468.94,567.71 469.45,565.52 469.96,563.29 470.47,561.02 470.98,558.72 471.49,556.37 472.00,553.98 472.51,551.56 473.02,549.10 473.53,546.61 474.04,544.07 474.55,541.50 475.06,538.90 475.57,536.25 476.08,533.58 476.59,530.87 477.10,528.12 477.61,525.34 478.12,522.53 478.64,519.69 479.15,516.81 479.66,513.91 480.17,510.97 480.68,508.00 481.19,505.00 481.70,501.97 482.21,498.91 482.72,495.83 483.23,492.71 483.74,489.57 484.25,486.40 484.76,483.21 485.27,479.99 485.78,476.74 486.29,473.47 486.80,470.18 487.31,466.86 487.82,463.52 488.33,460.16 488.84,456.77 489.35,453.37 489.86,449.94 490.38,446.49 490.89,443.03 491.40,439.55 491.91,436.04 492.42,432.52 492.93,428.99 493.44,425.43 493.95,421.86 494.46,418.28 494.97,414.68 495.48,411.07 495.99,407.44 496.50,403.80 497.01,400.16 497.52,396.49 498.03,392.82 498.54,389.14 499.05,385.45 499.56,381.75 500.07,378.04 500.58,374.32 501.09,370.60 501.60,366.87 502.11,363.14 502.62,359.40 503.14,355.66 503.65,351.91 504.16,348.16 504.67,344.41 505.18,340.65 505.69,336.90 506.20,333.14 506.71,329.39 507.22,325.63 507.73,321.88 508.24,318.13 508.75,314.38 509.26,310.64 509.77,306.90 510.28,303.17 510.79,299.44 511.30,295.72 511.81,292.00 512.32,288.29 512.83,284.59 513.34,280.90 513.85,277.22 514.36,273.55 514.88,269.88 515.39,266.23 515.90,262.60 516.41,258.97 516.92,255.36 517.43,251.76 517.94,248.17 518.45,244.61 518.96,241.05 519.47,237.52 519.98,234.00 520.49,230.49 521.00,227.01 521.51,223.54 522.02,220.10 522.53,216.67 523.04,213.27 523.55,209.88 524.06,206.52 524.57,203.18 525.08,199.86 525.59,196.56 526.10,193.29 526.61,190.05 527.12,186.83 527.64,183.63 528.15,180.46 528.66,177.32 529.17,174.21 529.68,171.12 530.19,168.06 530.70,165.03 531.21,162.03 531.72,159.07 532.23,156.13 532.74,153.22 533.25,150.34 533.76,147.50 534.27,144.69 534.78,141.91 535.29,139.16 535.80,136.45 536.31,133.77 536.82,131.13 537.33,128.53 537.84,125.96 538.35,123.42 538.86,120.93 539.38,118.46 539.89,116.04 540.40,113.66 540.91,111.31 541.42,109.00 541.93,106.73 542.44,104.51 542.95,102.32 543.46,100.17 543.97,98.06 544.48,96.00 544.99,93.97 545.50,91.99 546.01,90.05 546.52,88.15 547.03,86.29 547.54,84.48 548.05,82.71 548.56,80.99 549.07,79.31 549.58,77.67 550.09,76.08 550.60,74.53 551.11,73.03 551.62,71.57 552.14,70.16 552.65,68.80 553.16,67.48 553.67,66.21 554.18,64.99 554.69,63.81 555.20,62.68 555.71,61.59 556.22,60.56 556.73,59.57 557.24,58.63 557.75,57.73 558.26,56.89 558.77,56.09 559.28,55.34 559.79,54.64 560.30,53.99 560.81,53.39 561.32,52.84 561.83,52.33 562.34,51.88 562.85,51.47 563.36,51.12 563.88,50.81 564.39,50.55 564.90,50.34 565.41,50.18 565.92,50.07 566.43,50.01 566.94,50.00 567.45,50.04 567.96,50.13 568.47,50.27 568.98,50.45 569.49,50.69 570.00,50.97 570.51,51.31 571.02,51.69 571.53,52.13 572.04,52.61 572.55,53.14 573.06,53.72 573.57,54.35 574.08,55.03 574.59,55.76 575.10,56.53 575.61,57.35 576.12,58.23 576.64,59.15 577.15,60.11 577.66,61.13 578.17,62.19 578.68,63.30 579.19,64.46 579.70,65.66 580.21,66.91 580.72,68.21 581.23,69.56 581.74,70.95 582.25,72.38 582.76,73.86 583.27,75.39 583.78,76.96 584.29,78.58 584.80,80.24 585.31,81.95 585.82,83.70 586.33,85.49 586.84,87.33 587.35,89.20 587.86,91.13 588.38,93.09 588.89,95.10 589.40,97.15 589.91,99.24 590.42,101.37 590.93,103.54 591.44,105.75 591.95,108.00 592.46,110.29 592.97,112.62 593.48,114.99 593.99,117.39 594.50,119.83 595.01,122.32 595.52,124.83 596.03,127.39 596.54,129.98 597.05,132.61 597.56,135.27 598.07,137.96 598.58,140.69 599.09,143.46 599.60,146.25 600.11,149.08 600.62,151.95 601.14,154.84 601.65,157.77 602.16,160.72 602.67,163.71 603.18,166.72 603.69,169.77 604.20,172.84 604.71,175.95 605.22,179.08 605.73,182.23 606.24,185.41 606.75,188.62 607.26,191.86 607.77,195.12 608.28,198.40 608.79,201.71 609.30,205.04 609.81,208.39 610.32,211.77 610.83,215.17 611.34,218.58 611.85,222.02 612.36,225.48 612.88,228.95 613.39,232.45 613.90,235.96 614.41,239.49 614.92,243.04 615.43,246.60 615.94,250.18 616.45,253.77 616.96,257.38 617.47,261.00 617.98,264.63 618.49,268.27 619.00,271.93 619.51,275.60 620.02,279.28 620.53,282.96 621.04,286.66 621.55,290.36 622.06,294.08 622.57,297.80 623.08,301.52 623.59,305.25 624.10,308.99 624.61,312.73 625.12,316.48 625.64,320.23 626.15,323.98 626.66,327.73 627.17,331.49 627.68,335.24 628.19,339.00 628.70,342.75 629.21,346.50 629.72,350.26 630.23,354.00 630.74,357.75 631.25,361.49 631.76,365.23 632.27,368.96 632.78,372.68 633.29,376.40 633.80,380.11 634.31,383.82 634.82,387.51 635.33,391.20 635.84,394.88 636.35,398.54 636.86,402.20 637.38,405.84 637.89,409.47 638.40,413.09 638.91,416.69 639.42,420.28 639.93,423.86 640.44,427.42 640.95,430.97 641.46,434.49 641.97,438.00 642.48,441.49 642.99,444.97 643.50,448.42 644.01,451.86 644.52,455.27 645.03,458.67 645.54,462.04 646.05,465.39 646.56,468.72 647.07,472.02 647.58,475.30 648.09,478.56 648.60,481.79 649.11,485.00 649.62,488.18 650.14,491.33 650.65,494.46 651.16,497.55 651.67,500.62 652.18,503.67 652.69,506.68 653.20,509.66 653.71,512.61 654.22,515.53 654.73,518.42 655.24,521.28 655.75,524.11 656.26,526.90 656.77,529.66 657.28,532.39 657.79,535.08 658.30,537.73 658.81,540.36 659.32,542.94 659.83,545.49 660.34,548.01 660.85,550.48 661.36,552.92 661.88,555.32 662.39,557.68 662.90,560.01 663.41,562.29 663.92,564.54 664.43,566.75 664.94,568.91 665.45,571.04 665.96,573.12 666.47,575.16 666.98,577.16 667.49,579.12 668.00,581.04 668.51,582.91 669.02,584.74 669.53,586.53 670.04,588.28 670.55,589.98 671.06,591.63 671.57,593.24 672.08,594.81 672.59,596.33 673.10,597.80 673.61,599.23 674.12,600.62 674.64,601.96 675.15,603.25 675.66,604.49 676.17,605.69 676.68,606.84 677.19,607.95 677.70,609.00 678.21,610.01 678.72,610.98 679.23,611.89 679.74,612.75 680.25,613.57 680.76,614.34 681.27,615.06 681.78,615.73 682.29,616.35 682.80,616.93 683.31,617.45 683.82,617.93 684.33,618.36 684.84,618.74 685.35,619.07 685.86,619.34 686.38,619.57 686.89,619.75 687.40,619.89 687.91,619.97 688.42,620.00 688.93,619.98 689.44,619.92 689.95,619.80 690.46,619.63 690.97,619.42 691.48,619.15 691.99,618.84 692.50,618.48 693.01,618.06 693.52,617.60 694.03,617.09 694.54,616.53 695.05,615.92 695.56,615.27 696.07,614.56 696.58,613.81 697.09,613.00 697.60,612.15 698.11,611.25 698.62,610.31 699.14,609.31 699.65,608.27 700.16,607.18 700.67,606.04 701.18,604.86 701.69,603.63 702.20,602.35 702.71,601.03 703.22,599.66 703.73,598.24 704.24,596.78 704.75,595.27 705.26,593.72 705.77,592.12 706.28,590.48 706.79,588.79 707.30,587.06 707.81,585.29 708.32,583.47 708.83,581.61 709.34,579.71 709.85,577.76 710.36,575.77 710.88,573.74 711.39,571.67 711.90,569.56 712.41,567.40 712.92,565.21 713.43,562.97 713.94,560.70 714.45,558.39 714.96,556.04 715.47,553.65 715.98,551.22 716.49,548.76 717.00,546.25 717.51,543.71 718.02,541.14 718.53,538.53 719.04,535.88 719.55,533.20 720.06,530.49 720.57,527.74 721.08,524.95 721.59,522.14 722.10,519.29 722.61,516.41 723.12,513.50 723.64,510.55 724.15,507.58 724.66,504.58 725.17,501.54 725.68,498.48 726.19,495.39 726.70,492.27 727.21,489.13 727.72,485.96 728.23,482.76 728.74,479.53 729.25,476.29 729.76,473.01 730.27,469.72 730.78,466.39 731.29,463.05 731.80,459.68 732.31,456.30 732.82,452.89 733.33,449.46 733.84,446.01 734.35,442.54 734.86,439.06 735.38,435.55 735.89,432.03 736.40,428.49 736.91,424.93 737.42,421.36 737.93,417.78 738.44,414.18 738.95,410.56 739.46,406.94 739.97,403.30 740.48,399.64 740.99,395.98 741.50,392.31 742.01,388.62 742.52,384.93 743.03,381.23 743.54,377.52 744.05,373.80 744.56,370.08 745.07,366.35 745.58,362.62 746.09,358.88 746.60,355.13 747.11,351.38 747.62,347.63 748.14,343.88 748.65,340.13 749.16,336.37 749.67,332.62 750.18,328.86 750.69,325.11 751.20,321.36 751.71,317.61 752.22,313.86 752.73,310.12 753.24,306.38 753.75,302.65 754.26,298.92 754.77,295.20 755.28,291.48 755.79,287.77 756.30,284.07 756.81,280.39 757.32,276.70 757.83,273.03 758.34,269.37 758.85,265.73 759.36,262.09 759.88,258.46 760.39,254.85 760.90,251.26 761.41,247.68 761.92,244.11 762.43,240.56 762.94,237.02 763.45,233.51 763.96,230.00 764.47,226.52 764.98,223.06 765.49,219.62 766.00,216.19 766.51,212.79 767.02,209.41 767.53,206.05 768.04,202.71 768.55,199.40 769.06,196.11 769.57,192.84 770.08,189.60 770.59,186.38 771.10,183.19 771.61,180.02 772.12,176.88 772.64,173.77 773.15,170.69 773.66,167.64 774.17,164.61 774.68,161.62 775.19,158.65 775.70,155.72 776.21,152.82 776.72,149.94 777.23,147.10 777.74,144.30 778.25,141.52 778.76,138.78 779.27,136.08 779.78,133.40 780.29,130.77 780.80,128.17 781.31,125.60 781.82,123.07 782.33,120.58 782.84,118.12 783.35,115.71 783.86,113.33 784.38,110.99 784.89,108.68 785.40,106.42 785.91,104.20 786.42,102.02 786.93,99.87 787.44,97.77 787.95,95.71 788.46,93.69 788.97,91.71 789.48,89.78 789.99,87.89 790.50,86.04 791.01,84.23 791.52,82.47 792.03,80.75 792.54,79.08 793.05,77.45 793.56,75.86 794.07,74.32 794.58,72.82 795.09,71.38 795.60,69.97 796.11,68.61 796.62,67.30 797.14,66.04 797.65,64.82 798.16,63.65 798.67,62.52 799.18,61.44 799.69,60.42 800.20,59.43 800.71,58.50 801.22,57.61 801.73,56.77 802.24,55.99 802.75,55.24 803.26,54.55 803.77,53.91 804.28,53.31 804.79,52.76 805.30,52.27 805.81,51.82 806.32,51.42 806.83,51.07 807.34,50.77 807.85,50.52 808.36,50.32 808.88,50.17 809.39,50.06 809.90,50.01 810.41,50.00 810.92,50.05 811.43,50.15 811.94,50.29 812.45,50.48 812.96,50.73 813.47,51.02 813.98,51.36 814.49,51.75 815.00,52.19 815.51,52.68 816.02,53.22 816.53,53.81 817.04,54.44 817.55,55.13 818.06,55.86 818.57,56.64 819.08,57.47 819.59,58.35 820.10,59.28 820.61,60.25 821.12,61.27 821.64,62.34 822.15,63.46 822.66,64.62 823.17,65.84 823.68,67.09 824.19,68.40 824.70,69.75 825.21,71.15 825.72,72.59 826.23,74.08 826.74,75.61 827.25,77.19 827.76,78.81 828.27,80.48 828.78,82.19 829.29,83.94 829.80,85.74 830.31,87.59 830.82,89.47 831.33,91.40 831.84,93.37 832.35,95.38 832.86,97.44 833.38,99.53 833.89,101.67 834.40,103.84 834.91,106.06 835.42,108.32 835.93,110.61 836.44,112.95 836.95,115.32 837.46,117.73 837.97,120.18 838.48,122.67 838.99,125.19 839.50,127.75 840.01,130.34 840.52,132.97 841.03,135.64 841.54,138.34 842.05,141.08 842.56,143.85 843.07,146.65 843.58,149.48 844.09,152.35 844.60,155.25 845.11,158.18 845.62,161.14 846.14,164.13 846.65,167.15 847.16,170.20 847.67,173.28 848.18,176.38 848.69,179.52 849.20,182.67 849.71,185.86 850.22,189.08 850.73,192.31 851.24,195.58 851.75,198.86 852.26,202.17 852.77,205.51 853.28,208.86 853.79,212.24 854.30,215.64 854.81,219.06 855.32,222.50 855.83,225.96 856.34,229.44 856.85,232.94 857.36,236.45 857.88,239.99 858.39,243.53 858.90,247.10 859.41,250.68 859.92,254.27 860.43,257.88 860.94,261.50 861.45,265.14 861.96,268.78 862.47,272.44 862.98,276.11 863.49,279.79 864.00,283.48 864.51,287.18 865.02,290.88 865.53,294.60 866.04,298.32 866.55,302.04 867.06,305.78 867.57,309.51 868.08,313.26 868.59,317.00 869.10,320.75 869.61,324.50 870.12,328.26 870.64,332.01 871.15,335.77 871.66,339.52 872.17,343.28 872.68,347.03 873.19,350.78 873.70,354.53 874.21,358.27 874.72,362.01 875.23,365.75 875.74,369.48 876.25,373.20 876.76,376.92 877.27,380.63 877.78,384.33 878.29,388.03 878.80,391.71 879.31,395.39 879.82,399.05 880.33,402.71 880.84,406.35 881.35,409.98 881.86,413.59 882.38,417.20 882.89,420.79 883.40,424.36 883.91,427.92 884.42,431.46 884.93,434.98 885.44,438.49 885.95,441.98 886.46,445.45 886.97,448.90 887.48,452.34 887.99,455.75 888.50,459.14 889.01,462.51 889.52,465.86 890.03,469.18 890.54,472.48 891.05,475.76 891.56,479.01 892.07,482.24 892.58,485.44 893.09,488.62 893.60,491.77 894.11,494.89 894.62,497.99 895.14,501.05 895.65,504.09 896.16,507.10 896.67,510.08 897.18,513.02 897.69,515.94 898.20,518.83 898.71,521.68 899.22,524.50 899.73,527.29 900.24,530.04 900.75,532.76 901.26,535.45 901.77,538.10 902.28,540.72 902.79,543.30 903.30,545.85 903.81,548.35 904.32,550.82 904.83,553.26 905.34,555.65 905.85,558.01 906.36,560.33 906.88,562.61 907.39,564.85 907.90,567.05 908.41,569.21 908.92,571.33 909.43,573.41 909.94,575.45 910.45,577.44 910.96,579.39 911.47,581.30 911.98,583.17 912.49,585.00 913.00,586.78 913.51,588.52 914.02,590.21 914.53,591.86 915.04,593.46 915.55,595.02 916.06,596.54 916.57,598.01 917.08,599.43 917.59,600.81 918.10,602.14 918.61,603.43 919.12,604.66 919.64,605.86 920.15,607.00 920.66,608.10 921.17,609.15 921.68,610.15 922.19,611.11 922.70,612.01 923.21,612.87 923.72,613.68 924.23,614.44 924.74,615.16 925.25,615.82 925.76,616.44 926.27,617.01 926.78,617.52 927.29,617.99 927.80,618.41 928.31,618.78 928.82,619.11 929.33,619.38 929.84,619.60 930.35,619.78 930.86,619.90 931.38,619.97 931.89,620.00 932.40,619.98 932.91,619.90 933.42,619.78 933.93,619.61 934.44,619.38 934.95,619.11 935.46,618.79 935.97,618.42 936.48,618.00 936.99,617.53 937.50,617.02 938.01,616.45 938.52,615.84 939.03,615.17 939.54,614.46 940.05,613.70 940.56,612.89 941.07,612.03 941.58,611.13 942.09,610.17 942.60,609.17 943.11,608.12 943.62,607.03 944.14,605.88 944.65,604.69 945.16,603.45 945.67,602.17 946.18,600.84 946.69,599.46 947.20,598.04 947.71,596.57 948.22,595.06 948.73,593.50 949.24,591.89 949.75,590.25 950.26,588.55 950.77,586.82 951.28,585.04 951.79,583.21 952.30,581.35 952.81,579.44 953.32,577.48 953.83,575.49 954.34,573.45 954.85,571.38 955.36,569.26 955.88,567.10 956.39,564.90 956.90,562.66 957.41,560.38 957.92,558.06 958.43,555.71 958.94,553.31 959.45,550.88 959.96,548.41 960.47,545.90 960.98,543.36 961.49,540.78 962.00,538.16 962.51,535.51 963.02,532.82 963.53,530.10 964.04,527.35 964.55,524.56 965.06,521.74 965.57,518.89 966.08,516.00 966.59,513.09 967.10,510.14 967.61,507.16 968.12,504.15 968.64,501.12 969.15,498.05 969.66,494.96 970.17,491.84 970.68,488.69 971.19,485.51 971.70,482.31 972.21,479.08 972.72,475.83 973.23,472.55 973.74,469.25 974.25,465.93 974.76,462.58 975.27,459.21 975.78,455.82 976.29,452.41 976.80,448.98 977.31,445.53 977.82,442.06 978.33,438.57 978.84,435.06 979.35,431.54 979.86,427.99 980.38,424.44 980.89,420.86 981.40,417.28 981.91,413.67 982.42,410.06 982.93,406.43 983.44,402.79 983.95,399.13 984.46,395.47 984.97,391.79 985.48,388.11 985.99,384.41 986.50,380.71 987.01,377.00 987.52,373.28 988.03,369.56 988.54,365.83 989.05,362.09 989.56,358.35 990.07,354.61 990.58,350.86 991.09,347.11 991.60,343.36 992.11,339.60 992.62,335.85 993.14,332.09 993.65,328.34 994.16,324.58 994.67,320.83 995.18,317.08 995.69,313.34 996.20,309.60 996.71,305.86 997.22,302.13 997.73,298.40 998.24,294.68 998.75,290.96 999.26,287.26 999.77,283.56 1000.28,279.87 1000.79,276.19 1001.30,272.52 1001.81,268.86 1002.32,265.22 1002.83,261.58 1003.34,257.96 1003.85,254.35 1004.36,250.76 1004.88,247.18 1005.39,243.61 1005.90,240.06 1006.41,236.53 1006.92,233.02 1007.43,229.52 1007.94,226.04 1008.45,222.58 1008.96,219.14 1009.47,215.72 1009.98,212.32 1010.49,208.94 1011.00,205.58 1011.51,202.25 1012.02,198.94 1012.53,195.65 1013.04,192.38 1013.55,189.15 1014.06,185.93 1014.57,182.74 1015.08,179.58 1015.59,176.45 1016.10,173.34 1016.61,170.26 1017.12,167.21 1017.64,164.19 1018.15,161.20 1018.66,158.24 1019.17,155.31 1019.68,152.41 1020.19,149.54 1020.70,146.71 1021.21,143.91 1021.72,141.14 1022.23,138.40 1022.74,135.70 1023.25,133.03 1023.76,130.40 1024.27,127.80 1024.78,125.24 1025.29,122.72 1025.80,120.23 1026.31,117.78 1026.82,115.37 1027.33,113.00 1027.84,110.66 1028.35,108.37 1028.86,106.11 1029.38,103.89 1029.89,101.71 1030.40,99.58 1030.91,97.48 1031.42,95.43 1031.93,93.41 1032.44,91.44 1032.95,89.51 1033.46,87.63 1033.97,85.78 1034.48,83.98 1034.99,82.23 1035.50,80.51 1036.01,78.84 1036.52,77.22 1037.03,75.64 1037.54,74.11 1038.05,72.62 1038.56,71.18 1039.07,69.78 1039.58,68.43 1040.09,67.12 1040.60,65.86 1041.11,64.65 1041.62,63.49 1042.14,62.37 1042.65,61.30 1043.16,60.27 1043.67,59.30 1044.18,58.37 1044.69,57.49 1045.20,56.66 1045.71,55.88 1046.22,55.14 1046.73,54.46 1047.24,53.82 1047.75,53.23 1048.26,52.69 1048.77,52.20 1049.28,51.76 1049.79,51.37 1050.30,51.03 1050.81,50.73 1051.32,50.49 1051.83,50.29 1052.34,50.15 1052.85,50.05 1053.36,50.00 1053.88,50.01 1054.39,50.06 1054.90,50.16 1055.41,50.31 1055.92,50.51 1056.43,50.76 1056.94,51.06 1057.45,51.41 1057.96,51.81 1058.47,52.26 1058.98,52.75 1059.49,53.30 1060.00,53.89" fill="none" stroke="#2563eb" stroke-width="3" stroke-linejoin="round" stroke-linecap="round"/>
<rect x="870" y="62" width="18" height="4" fill="#2563eb"/>
<text x="898" y="67" font-family="Arial, sans-serif" font-size="15" fill="#111827">undamped</text>
<polyline points="80.00,50.00 80.51,50.05 81.02,50.15 81.53,50.30 82.04,50.49 82.55,50.74 83.06,51.04 83.57,51.38 84.08,51.77 84.59,52.21 85.10,52.70 85.61,53.24 86.12,53.83 86.64,54.46 87.15,55.14 87.66,55.87 88.17,56.65 88.68,57.47 89.19,58.34 89.70,59.26 90.21,60.22 90.72,61.23 91.23,62.28 91.74,63.38 92.25,64.53 92.76,65.72 93.27,66.96 93.78,68.24 94.29,69.56 94.80,70.93 95.31,72.34 95.82,73.79 96.33,75.29 96.84,76.83 97.35,78.42 97.86,80.04 98.38,81.71 98.89,83.41 99.40,85.16 99.91,86.95 100.42,88.78 100.93,90.65 101.44,92.55 101.95,94.50 102.46,96.49 102.97,98.51 103.48,100.57 103.99,102.67 104.50,104.80 105.01,106.98 105.52,109.18 106.03,111.43 106.54,113.70 107.05,116.02 107.56,118.36 108.07,120.74 108.58,123.16 109.09,125.60 109.60,128.08 110.11,130.59 110.62,133.13 111.14,135.71 111.65,138.31 112.16,140.94 112.67,143.61 113.18,146.30 113.69,149.01 114.20,151.76 114.71,154.54 115.22,157.34 115.73,160.16 116.24,163.02 116.75,165.89 117.26,168.80 117.77,171.72 118.28,174.67 118.79,177.65 119.30,180.64 119.81,183.66 120.32,186.69 120.83,189.75 121.34,192.83 121.85,195.93 122.36,199.05 122.88,202.18 123.39,205.34 123.90,208.51 124.41,211.70 124.92,214.90 125.43,218.12 125.94,221.35 126.45,224.60 126.96,227.86 127.47,231.14 127.98,234.43 128.49,237.73 129.00,241.04 129.51,244.36 130.02,247.69 130.53,251.04 131.04,254.39 131.55,257.75 132.06,261.11 132.57,264.49 133.08,267.87 133.59,271.26 134.10,274.65 134.61,278.05 135.12,281.45 135.64,284.85 136.15,288.26 136.66,291.67 137.17,295.08 137.68,298.50 138.19,301.91 138.70,305.33 139.21,308.74 139.72,312.15 140.23,315.56 140.74,318.97 141.25,322.38 141.76,325.78 142.27,329.18 142.78,332.57 143.29,335.96 143.80,339.34 144.31,342.72 144.82,346.09 145.33,349.45 145.84,352.80 146.35,356.15 146.86,359.48 147.38,362.81 147.89,366.12 148.40,369.43 148.91,372.72 149.42,376.00 149.93,379.27 150.44,382.53 150.95,385.77 151.46,389.00 151.97,392.21 152.48,395.41 152.99,398.59 153.50,401.75 154.01,404.90 154.52,408.03 155.03,411.14 155.54,414.24 156.05,417.32 156.56,420.37 157.07,423.41 157.58,426.42 158.09,429.42 158.60,432.39 159.11,435.34 159.62,438.27 160.14,441.18 160.65,444.06 161.16,446.92 161.67,449.76 162.18,452.57 162.69,455.35 163.20,458.11 163.71,460.85 164.22,463.56 164.73,466.24 165.24,468.89 165.75,471.52 166.26,474.12 166.77,476.68 167.28,479.23 167.79,481.74 168.30,484.22 168.81,486.67 169.32,489.09 169.83,491.48 170.34,493.84 170.85,496.17 171.36,498.46 171.88,500.73 172.39,502.96 172.90,505.16 173.41,507.32 173.92,509.45 174.43,511.55 174.94,513.62 175.45,515.64 175.96,517.64 176.47,519.60 176.98,521.52 177.49,523.41 178.00,525.26 178.51,527.08 179.02,528.86 179.53,530.60 180.04,532.31 180.55,533.98 181.06,535.61 181.57,537.20 182.08,538.76 182.59,540.28 183.10,541.76 183.61,543.20 184.12,544.61 184.64,545.97 185.15,547.30 185.66,548.59 186.17,549.83 186.68,551.04 187.19,552.21 187.70,553.34 188.21,554.43 188.72,555.48 189.23,556.49 189.74,557.46 190.25,558.39 190.76,559.28 191.27,560.12 191.78,560.93 192.29,561.70 192.80,562.43 193.31,563.11 193.82,563.76 194.33,564.36 194.84,564.93 195.35,565.45 195.86,565.93 196.38,566.37 196.89,566.77 197.40,567.13 197.91,567.45 198.42,567.73 198.93,567.96 199.44,568.16 199.95,568.31 200.46,568.43 200.97,568.50 201.48,568.53 201.99,568.53 202.50,568.48 203.01,568.39 203.52,568.26 204.03,568.09 204.54,567.88 205.05,567.63 205.56,567.34 206.07,567.01 206.58,566.64 207.09,566.23 207.60,565.79 208.11,565.30 208.62,564.77 209.14,564.21 209.65,563.60 210.16,562.96 210.67,562.28 211.18,561.56 211.69,560.80 212.20,560.00 212.71,559.17 213.22,558.30 213.73,557.39 214.24,556.44 214.75,555.46 215.26,554.44 215.77,553.38 216.28,552.29 216.79,551.16 217.30,550.00 217.81,548.80 218.32,547.57 218.83,546.30 219.34,544.99 219.85,543.66 220.36,542.28 220.88,540.88 221.39,539.44 221.90,537.97 222.41,536.46 222.92,534.93 223.43,533.36 223.94,531.76 224.45,530.12 224.96,528.46 225.47,526.77 225.98,525.04 226.49,523.28 227.00,521.50 227.51,519.69 228.02,517.84 228.53,515.97 229.04,514.07 229.55,512.14 230.06,510.19 230.57,508.20 231.08,506.19 231.59,504.16 232.10,502.09 232.61,500.01 233.12,497.89 233.64,495.76 234.15,493.59 234.66,491.41 235.17,489.20 235.68,486.97 236.19,484.71 236.70,482.43 237.21,480.13 237.72,477.81 238.23,475.47 238.74,473.11 239.25,470.73 239.76,468.33 240.27,465.91 240.78,463.47 241.29,461.01 241.80,458.53 242.31,456.04 242.82,453.53 243.33,451.00 243.84,448.46 244.35,445.91 244.86,443.33 245.38,440.75 245.89,438.15 246.40,435.53 246.91,432.90 247.42,430.26 247.93,427.61 248.44,424.95 248.95,422.27 249.46,419.59 249.97,416.89 250.48,414.18 250.99,411.47 251.50,408.75 252.01,406.01 252.52,403.27 253.03,400.53 253.54,397.77 254.05,395.01 254.56,392.25 255.07,389.47 255.58,386.70 256.09,383.92 256.60,381.13 257.11,378.34 257.62,375.55 258.14,372.76 258.65,369.97 259.16,367.17 259.67,364.37 260.18,361.57 260.69,358.78 261.20,355.98 261.71,353.18 262.22,350.39 262.73,347.60 263.24,344.81 263.75,342.02 264.26,339.24 264.77,336.45 265.28,333.68 265.79,330.91 266.30,328.14 266.81,325.38 267.32,322.63 267.83,319.88 268.34,317.14 268.85,314.41 269.36,311.69 269.88,308.97 270.39,306.27 270.90,303.57 271.41,300.89 271.92,298.21 272.43,295.54 272.94,292.89 273.45,290.25 273.96,287.62 274.47,285.00 274.98,282.40 275.49,279.81 276.00,277.23 276.51,274.67 277.02,272.12 277.53,269.58 278.04,267.07 278.55,264.57 279.06,262.08 279.57,259.61 280.08,257.16 280.59,254.73 281.10,252.31 281.61,249.92 282.12,247.54 282.64,245.18 283.15,242.84 283.66,240.52 284.17,238.22 284.68,235.94 285.19,233.69 285.70,231.45 286.21,229.24 286.72,227.04 287.23,224.87 287.74,222.73 288.25,220.60 288.76,218.50 289.27,216.42 289.78,214.37 290.29,212.34 290.80,210.34 291.31,208.36 291.82,206.40 292.33,204.48 292.84,202.57 293.35,200.70 293.86,198.85 294.38,197.02 294.89,195.23 295.40,193.46 295.91,191.72 296.42,190.00 296.93,188.32 297.44,186.66 297.95,185.03 298.46,183.43 298.97,181.86 299.48,180.32 299.99,178.81 300.50,177.33 301.01,175.87 301.52,174.45 302.03,173.06 302.54,171.69 303.05,170.36 303.56,169.06 304.07,167.79 304.58,166.56 305.09,165.35 305.60,164.17 306.11,163.03 306.62,161.92 307.14,160.84 307.65,159.79 308.16,158.77 308.67,157.79 309.18,156.84 309.69,155.92 310.20,155.03 310.71,154.18 311.22,153.36 311.73,152.57 312.24,151.81 312.75,151.09 313.26,150.40 313.77,149.75 314.28,149.12 314.79,148.53 315.30,147.98 315.81,147.46 316.32,146.97 316.83,146.51 317.34,146.09 317.85,145.70 318.36,145.35 318.88,145.02 319.39,144.74 319.90,144.48 320.41,144.26 320.92,144.07 321.43,143.92 321.94,143.80 322.45,143.71 322.96,143.66 323.47,143.64 323.98,143.65 324.49,143.70 325.00,143.78 325.51,143.89 326.02,144.03 326.53,144.21 327.04,144.42 327.55,144.67 328.06,144.94 328.57,145.25 329.08,145.59 329.59,145.97 330.10,146.37 330.61,146.81 331.12,147.28 331.64,147.78 332.15,148.32 332.66,148.88 333.17,149.47 333.68,150.10 334.19,150.76 334.70,151.45 335.21,152.17 335.72,152.92 336.23,153.70 336.74,154.51 337.25,155.35 337.76,156.23 338.27,157.13 338.78,158.05 339.29,159.01 339.80,160.00 340.31,161.02 340.82,162.06 341.33,163.14 341.84,164.24 342.35,165.37 342.86,166.53 343.38,167.71 343.89,168.92 344.40,170.16 344.91,171.42 345.42,172.72 345.93,174.03 346.44,175.37 346.95,176.74 347.46,178.14 347.97,179.56 348.48,181.00 348.99,182.47 349.50,183.96 350.01,185.47 350.52,187.01 351.03,188.57 351.54,190.16 352.05,191.76 352.56,193.39 353.07,195.04 353.58,196.72 354.09,198.41 354.60,200.12 355.11,201.86 355.62,203.61 356.14,205.39 356.65,207.18 357.16,209.00 357.67,210.83 358.18,212.68 358.69,214.55 359.20,216.44 359.71,218.35 360.22,220.27 360.73,222.21 361.24,224.16 361.75,226.13 362.26,228.12 362.77,230.12 363.28,232.14 363.79,234.17 364.30,236.21 364.81,238.27 365.32,240.34 365.83,242.43 366.34,244.53 366.85,246.64 367.36,248.76 367.88,250.89 368.39,253.04 368.90,255.19 369.41,257.36 369.92,259.53 370.43,261.72 370.94,263.91 371.45,266.11 371.96,268.33 372.47,270.54 372.98,272.77 373.49,275.00 374.00,277.24 374.51,279.49 375.02,281.74 375.53,284.00 376.04,286.26 376.55,288.53 377.06,290.80 377.57,293.08 378.08,295.36 378.59,297.64 379.10,299.92 379.61,302.21 380.12,304.50 380.64,306.79 381.15,309.08 381.66,311.37 382.17,313.67 382.68,315.96 383.19,318.25 383.70,320.54 384.21,322.83 384.72,325.12 385.23,327.40 385.74,329.69 386.25,331.97 386.76,334.25 387.27,336.52 387.78,338.79 388.29,341.05 388.80,343.31 389.31,345.57 389.82,347.82 390.33,350.06 390.84,352.30 391.35,354.53 391.86,356.75 392.38,358.97 392.89,361.18 393.40,363.38 393.91,365.57 394.42,367.75 394.93,369.92 395.44,372.09 395.95,374.24 396.46,376.38 396.97,378.51 397.48,380.63 397.99,382.74 398.50,384.84 399.01,386.93 399.52,389.00 400.03,391.06 400.54,393.11 401.05,395.14 401.56,397.16 402.07,399.17 402.58,401.16 403.09,403.13 403.60,405.09 404.11,407.04 404.62,408.97 405.14,410.88 405.65,412.78 406.16,414.66 406.67,416.53 407.18,418.37 407.69,420.20 408.20,422.01 408.71,423.80 409.22,425.58 409.73,427.34 410.24,429.07 410.75,430.79 411.26,432.49 411.77,434.17 412.28,435.83 412.79,437.46 413.30,439.08 413.81,440.68 414.32,442.25 414.83,443.81 415.34,445.34 415.85,446.85 416.36,448.34 416.88,449.81 417.39,451.26 417.90,452.68 418.41,454.08 418.92,455.46 419.43,456.81 419.94,458.14 420.45,459.45 420.96,460.73 421.47,461.99 421.98,463.22 422.49,464.43 423.00,465.62 423.51,466.78 424.02,467.91 424.53,469.03 425.04,470.11 425.55,471.17 426.06,472.21 426.57,473.22 427.08,474.20 427.59,475.16 428.10,476.09 428.61,477.00 429.12,477.88 429.64,478.73 430.15,479.56 430.66,480.36 431.17,481.14 431.68,481.88 432.19,482.61 432.70,483.30 433.21,483.97 433.72,484.61 434.23,485.22 434.74,485.81 435.25,486.37 435.76,486.90 436.27,487.40 436.78,487.88 437.29,488.33 437.80,488.75 438.31,489.15 438.82,489.52 439.33,489.86 439.84,490.17 440.35,490.46 440.86,490.72 441.38,490.94 441.89,491.15 442.40,491.32 442.91,491.47 443.42,491.59 443.93,491.69 444.44,491.75 444.95,491.79 445.46,491.80 445.97,491.79 446.48,491.74 446.99,491.67 447.50,491.58 448.01,491.45 448.52,491.30 449.03,491.12 449.54,490.92 450.05,490.69 450.56,490.43 451.07,490.15 451.58,489.83 452.09,489.50 452.60,489.13 453.11,488.74 453.62,488.33 454.14,487.88 454.65,487.42 455.16,486.92 455.67,486.40 456.18,485.86 456.69,485.29 457.20,484.69 457.71,484.07 458.22,483.43 458.73,482.76 459.24,482.07 459.75,481.35 460.26,480.61 460.77,479.84 461.28,479.05 461.79,478.24 462.30,477.40 462.81,476.54 463.32,475.65 463.83,474.75 464.34,473.82 464.85,472.86 465.36,471.89 465.88,470.89 466.39,469.87 466.90,468.83 467.41,467.77 467.92,466.69 468.43,465.58 468.94,464.46 469.45,463.31 469.96,462.15 470.47,460.96 470.98,459.75 471.49,458.53 472.00,457.28 472.51,456.02 473.02,454.74 473.53,453.43 474.04,452.11 474.55,450.78 475.06,449.42 475.57,448.05 476.08,446.65 476.59,445.25 477.10,443.82 477.61,442.38 478.12,440.92 478.64,439.45 479.15,437.96 479.66,436.45 480.17,434.93 480.68,433.40 481.19,431.85 481.70,430.29 482.21,428.71 482.72,427.12 483.23,425.51 483.74,423.90 484.25,422.27 484.76,420.62 485.27,418.97 485.78,417.30 486.29,415.62 486.80,413.93 487.31,412.23 487.82,410.52 488.33,408.80 488.84,407.07 489.35,405.33 489.86,403.58 490.38,401.82 490.89,400.05 491.40,398.28 491.91,396.49 492.42,394.70 492.93,392.90 493.44,391.10 493.95,389.28 494.46,387.47 494.97,385.64 495.48,383.81 495.99,381.97 496.50,380.13 497.01,378.28 497.52,376.43 498.03,374.58 498.54,372.72 499.05,370.86 499.56,368.99 500.07,367.13 500.58,365.25 501.09,363.38 501.60,361.51 502.11,359.63 502.62,357.75 503.14,355.88 503.65,354.00 504.16,352.12 504.67,350.24 505.18,348.36 505.69,346.49 506.20,344.61 506.71,342.74 507.22,340.86 507.73,338.99 508.24,337.12 508.75,335.26 509.26,333.40 509.77,331.54 510.28,329.68 510.79,327.83 511.30,325.98 511.81,324.14 512.32,322.30 512.83,320.47 513.34,318.65 513.85,316.83 514.36,315.01 514.88,313.20 515.39,311.40 515.90,309.61 516.41,307.82 516.92,306.04 517.43,304.27 517.94,302.51 518.45,300.75 518.96,299.01 519.47,297.27 519.98,295.55 520.49,293.83 521.00,292.12 521.51,290.43 522.02,288.74 522.53,287.06 523.04,285.40 523.55,283.75 524.06,282.11 524.57,280.48 525.08,278.86 525.59,277.26 526.10,275.66 526.61,274.09 527.12,272.52 527.64,270.97 528.15,269.43 528.66,267.91 529.17,266.39 529.68,264.90 530.19,263.42 530.70,261.95 531.21,260.50 531.72,259.06 532.23,257.64 532.74,256.24 533.25,254.85 533.76,253.48 534.27,252.12 534.78,250.78 535.29,249.46 535.80,248.16 536.31,246.87 536.82,245.60 537.33,244.34 537.84,243.11 538.35,241.89 538.86,240.69 539.38,239.51 539.89,238.35 540.40,237.21 540.91,236.08 541.42,234.98 541.93,233.89 542.44,232.82 542.95,231.78 543.46,230.75 543.97,229.74 544.48,228.75 544.99,227.79 545.50,226.84 546.01,225.91 546.52,225.01 547.03,224.12 547.54,223.25 548.05,222.41 548.56,221.59 549.07,220.78 549.58,220.00 550.09,219.24 550.60,218.50 551.11,217.79 551.62,217.09 552.14,216.42 552.65,215.76 553.16,215.13 553.67,214.53 554.18,213.94 554.69,213.37 555.20,212.83 555.71,212.31 556.22,211.81 556.73,211.34 557.24,210.88 557.75,210.45 558.26,210.04 558.77,209.65 559.28,209.29 559.79,208.95 560.30,208.63 560.81,208.33 561.32,208.06 561.83,207.80 562.34,207.58 562.85,207.37 563.36,207.18 563.88,207.02 564.39,206.88 564.90,206.76 565.41,206.67 565.92,206.60 566.43,206.55 566.94,206.52 567.45,206.51 567.96,206.53 568.47,206.57 568.98,206.63 569.49,206.72 570.00,206.82 570.51,206.95 571.02,207.10 571.53,207.27 572.04,207.47 572.55,207.68 573.06,207.92 573.57,208.18 574.08,208.46 574.59,208.76 575.10,209.09 575.61,209.43 576.12,209.80 576.64,210.18 577.15,210.59 577.66,211.02 578.17,211.47 578.68,211.94 579.19,212.43 579.70,212.95 580.21,213.48 580.72,214.03 581.23,214.60 581.74,215.20 582.25,215.81 582.76,216.44 583.27,217.09 583.78,217.76 584.29,218.45 584.80,219.16 585.31,219.89 585.82,220.64 586.33,221.40 586.84,222.19 587.35,222.99 587.86,223.81 588.38,224.65 588.89,225.50 589.40,226.38 589.91,227.27 590.42,228.17 590.93,229.10 591.44,230.04 591.95,231.00 592.46,231.98 592.97,232.97 593.48,233.97 593.99,235.00 594.50,236.04 595.01,237.09 595.52,238.16 596.03,239.25 596.54,240.35 597.05,241.46 597.56,242.59 598.07,243.73 598.58,244.89 599.09,246.06 599.60,247.24 600.11,248.44 600.62,249.65 601.14,250.87 601.65,252.11 602.16,253.35 602.67,254.61 603.18,255.89 603.69,257.17 604.20,258.46 604.71,259.77 605.22,261.09 605.73,262.41 606.24,263.75 606.75,265.10 607.26,266.46 607.77,267.83 608.28,269.20 608.79,270.59 609.30,271.98 609.81,273.39 610.32,274.80 610.83,276.22 611.34,277.65 611.85,279.08 612.36,280.52 612.88,281.97 613.39,283.43 613.90,284.89 614.41,286.36 614.92,287.84 615.43,289.32 615.94,290.81 616.45,292.30 616.96,293.79 617.47,295.30 617.98,296.80 618.49,298.31 619.00,299.82 619.51,301.34 620.02,302.86 620.53,304.39 621.04,305.91 621.55,307.44 622.06,308.97 622.57,310.50 623.08,312.04 623.59,313.58 624.10,315.11 624.61,316.65 625.12,318.19 625.64,319.73 626.15,321.27 626.66,322.81 627.17,324.35 627.68,325.88 628.19,327.42 628.70,328.96 629.21,330.49 629.72,332.02 630.23,333.55 630.74,335.08 631.25,336.61 631.76,338.13 632.27,339.65 632.78,341.17 633.29,342.68 633.80,344.19 634.31,345.69 634.82,347.19 635.33,348.69 635.84,350.18 636.35,351.67 636.86,353.15 637.38,354.62 637.89,356.09 638.40,357.55 638.91,359.01 639.42,360.46 639.93,361.90 640.44,363.34 640.95,364.77 641.46,366.19 641.97,367.60 642.48,369.00 642.99,370.40 643.50,371.79 644.01,373.17 644.52,374.54 645.03,375.90 645.54,377.26 646.05,378.60 646.56,379.93 647.07,381.25 647.58,382.57 648.09,383.87 648.60,385.16 649.11,386.44 649.62,387.71 650.14,388.97 650.65,390.22 651.16,391.45 651.67,392.68 652.18,393.89 652.69,395.09 653.20,396.27 653.71,397.45 654.22,398.61 654.73,399.76 655.24,400.89 655.75,402.01 656.26,403.12 656.77,404.22 657.28,405.30 657.79,406.37 658.30,407.42 658.81,408.46 659.32,409.48 659.83,410.49 660.34,411.48 660.85,412.46 661.36,413.43 661.88,414.38 662.39,415.31 662.90,416.23 663.41,417.13 663.92,418.02 664.43,418.89 664.94,419.74 665.45,420.58 665.96,421.41 666.47,422.21 666.98,423.00 667.49,423.77 668.00,424.53 668.51,425.27 669.02,425.99 669.53,426.70 670.04,427.39 670.55,428.06 671.06,428.71 671.57,429.35 672.08,429.97 672.59,430.57 673.10,431.16 673.61,431.72 674.12,432.27 674.64,432.80 675.15,433.32 675.66,433.81 676.17,434.29 676.68,434.75 677.19,435.19 677.70,435.61 678.21,436.02 678.72,436.40 679.23,436.77 679.74,437.12 680.25,437.45 680.76,437.77 681.27,438.06 681.78,438.34 682.29,438.60 682.80,438.84 683.31,439.06 683.82,439.26 684.33,439.45 684.84,439.61 685.35,439.76 685.86,439.89 686.38,440.00 686.89,440.09 687.40,440.17 687.91,440.22 688.42,440.26 688.93,440.28 689.44,440.28 689.95,440.26 690.46,440.23 690.97,440.17 691.48,440.10 691.99,440.01 692.50,439.90 693.01,439.78 693.52,439.63 694.03,439.47 694.54,439.29 695.05,439.09 695.56,438.88 696.07,438.64 696.58,438.39 697.09,438.12 697.60,437.84 698.11,437.53 698.62,437.21 699.14,436.87 699.65,436.52 700.16,436.15 700.67,435.76 701.18,435.35 701.69,434.93 702.20,434.49 702.71,434.03 703.22,433.56 703.73,433.07 704.24,432.57 704.75,432.05 705.26,431.51 705.77,430.96 706.28,430.39 706.79,429.81 707.30,429.21 707.81,428.59 708.32,427.96 708.83,427.32 709.34,426.66 709.85,425.98 710.36,425.29 710.88,424.59 711.39,423.87 711.90,423.14 712.41,422.39 712.92,421.63 713.43,420.85 713.94,420.07 714.45,419.26 714.96,418.45 715.47,417.62 715.98,416.78 716.49,415.93 717.00,415.06 717.51,414.18 718.02,413.29 718.53,412.39 719.04,411.47 719.55,410.54 720.06,409.61 720.57,408.66 721.08,407.69 721.59,406.72 722.10,405.74 722.61,404.75 723.12,403.74 723.64,402.73 724.15,401.70 724.66,400.67 725.17,399.63 725.68,398.57 726.19,397.51 726.70,396.44 727.21,395.36 727.72,394.27 728.23,393.17 728.74,392.06 729.25,390.95 729.76,389.83 730.27,388.70 730.78,387.56 731.29,386.42 731.80,385.26 732.31,384.11 732.82,382.94 733.33,381.77 733.84,380.59 734.35,379.41 734.86,378.22 735.38,377.03 735.89,375.83 736.40,374.62 736.91,373.41 737.42,372.20 737.93,370.98 738.44,369.76 738.95,368.53 739.46,367.30 739.97,366.06 740.48,364.83 740.99,363.58 741.50,362.34 742.01,361.09 742.52,359.84 743.03,358.59 743.54,357.34 744.05,356.09 744.56,354.83 745.07,353.57 745.58,352.31 746.09,351.05 746.60,349.79 747.11,348.53 747.62,347.27 748.14,346.01 748.65,344.75 749.16,343.49 749.67,342.23 750.18,340.97 750.69,339.71 751.20,338.45 751.71,337.20 752.22,335.94 752.73,334.69 753.24,333.44 753.75,332.20 754.26,330.95 754.77,329.71 755.28,328.47 755.79,327.23 756.30,326.00 756.81,324.77 757.32,323.55 757.83,322.33 758.34,321.11 758.85,319.90 759.36,318.69 759.88,317.49 760.39,316.29 760.90,315.10 761.41,313.91 761.92,312.73 762.43,311.55 762.94,310.38 763.45,309.22 763.96,308.06 764.47,306.91 764.98,305.77 765.49,304.63 766.00,303.51 766.51,302.38 767.02,301.27 767.53,300.16 768.04,299.06 768.55,297.97 769.06,296.89 769.57,295.82 770.08,294.75 770.59,293.69 771.10,292.65 771.61,291.61 772.12,290.58 772.64,289.56 773.15,288.55 773.66,287.55 774.17,286.56 774.68,285.58 775.19,284.61 775.70,283.65 776.21,282.70 776.72,281.76 777.23,280.83 777.74,279.91 778.25,279.01 778.76,278.11 779.27,277.23 779.78,276.36 780.29,275.50 780.80,274.65 781.31,273.81 781.82,272.99 782.33,272.17 782.84,271.37 783.35,270.59 783.86,269.81 784.38,269.05 784.89,268.30 785.40,267.56 785.91,266.84 786.42,266.12 786.93,265.43 787.44,264.74 787.95,264.07 788.46,263.41 788.97,262.77 789.48,262.14 789.99,261.52 790.50,260.92 791.01,260.33 791.52,259.75 792.03,259.19 792.54,258.64 793.05,258.11 793.56,257.59 794.07,257.08 794.58,256.59 795.09,256.12 795.60,255.66 796.11,255.21 796.62,254.78 797.14,254.36 797.65,253.96 798.16,253.57 798.67,253.20 799.18,252.84 799.69,252.49 800.20,252.16 800.71,251.85 801.22,251.55 801.73,251.27 802.24,251.00 802.75,250.74 803.26,250.50 803.77,250.28 804.28,250.07 804.79,249.88 805.30,249.70 805.81,249.54 806.32,249.39 806.83,249.25 807.34,249.14 807.85,249.03 808.36,248.95 808.88,248.87 809.39,248.81 809.90,248.77 810.41,248.74 810.92,248.73 811.43,248.73 811.94,248.75 812.45,248.78 812.96,248.83 813.47,248.89 813.98,248.97 814.49,249.06 815.00,249.17 815.51,249.29 816.02,249.42 816.53,249.58 817.04,249.74 817.55,249.92 818.06,250.11 818.57,250.32 819.08,250.54 819.59,250.78 820.10,251.03 820.61,251.30 821.12,251.58 821.64,251.87 822.15,252.18 822.66,252.50 823.17,252.84 823.68,253.19 824.19,253.55 824.70,253.92 825.21,254.31 825.72,254.72 826.23,255.13 826.74,255.56 827.25,256.00 827.76,256.46 828.27,256.93 828.78,257.41 829.29,257.90 829.80,258.41 830.31,258.93 830.82,259.46 831.33,260.00 831.84,260.56 832.35,261.13 832.86,261.70 833.38,262.30 833.89,262.90 834.40,263.51 834.91,264.14 835.42,264.77 835.93,265.42 836.44,266.08 836.95,266.75 837.46,267.43 837.97,268.12 838.48,268.82 838.99,269.54 839.50,270.26 840.01,270.99 840.52,271.73 841.03,272.48 841.54,273.25 842.05,274.02 842.56,274.80 843.07,275.59 843.58,276.38 844.09,277.19 844.60,278.01 845.11,278.83 845.62,279.66 846.14,280.51 846.65,281.35 847.16,282.21 847.67,283.08 848.18,283.95 848.69,284.83 849.20,285.71 849.71,286.61 850.22,287.51 850.73,288.42 851.24,289.33 851.75,290.25 852.26,291.18 852.77,292.11 853.28,293.05 853.79,294.00 854.30,294.94 854.81,295.90 855.32,296.86 855.83,297.83 856.34,298.80 856.85,299.77 857.36,300.75 857.88,301.74 858.39,302.72 858.90,303.72 859.41,304.71 859.92,305.71 860.43,306.72 860.94,307.72 861.45,308.73 861.96,309.74 862.47,310.76 862.98,311.77 863.49,312.79 864.00,313.81 864.51,314.84 865.02,315.86 865.53,316.89 866.04,317.92 866.55,318.95 867.06,319.98 867.57,321.01 868.08,322.05 868.59,323.08 869.10,324.11 869.61,325.14 870.12,326.18 870.64,327.21 871.15,328.24 871.66,329.28 872.17,330.31 872.68,331.34 873.19,332.37 873.70,333.40 874.21,334.42 874.72,335.45 875.23,336.47 875.74,337.50 876.25,338.51 876.76,339.53 877.27,340.55 877.78,341.56 878.29,342.57 878.80,343.57 879.31,344.58 879.82,345.58 880.33,346.57 880.84,347.57 881.35,348.55 881.86,349.54 882.38,350.52 882.89,351.50 883.40,352.47 883.91,353.43 884.42,354.40 884.93,355.35 885.44,356.31 885.95,357.25 886.46,358.19 886.97,359.13 887.48,360.06 887.99,360.98 888.50,361.90 889.01,362.81 889.52,363.72 890.03,364.62 890.54,365.51 891.05,366.40 891.56,367.28 892.07,368.15 892.58,369.01 893.09,369.87 893.60,370.72 894.11,371.56 894.62,372.39 895.14,373.22 895.65,374.04 896.16,374.85 896.67,375.65 897.18,376.45 897.69,377.23 898.20,378.01 898.71,378.77 899.22,379.53 899.73,380.28 900.24,381.02 900.75,381.76 901.26,382.48 901.77,383.19 902.28,383.89 902.79,384.59 903.30,385.27 903.81,385.94 904.32,386.61 904.83,387.26 905.34,387.90 905.85,388.54 906.36,389.16 906.88,389.77 907.39,390.38 907.90,390.97 908.41,391.55 908.92,392.12 909.43,392.68 909.94,393.23 910.45,393.76 910.96,394.29 911.47,394.80 911.98,395.31 912.49,395.80 913.00,396.28 913.51,396.75 914.02,397.21 914.53,397.65 915.04,398.09 915.55,398.51 916.06,398.92 916.57,399.32 917.08,399.71 917.59,400.09 918.10,400.45 918.61,400.80 919.12,401.14 919.64,401.47 920.15,401.79 920.66,402.09 921.17,402.38 921.68,402.66 922.19,402.93 922.70,403.18 923.21,403.43 923.72,403.66 924.23,403.87 924.74,404.08 925.25,404.27 925.76,404.45 926.27,404.62 926.78,404.78 927.29,404.92 927.80,405.05 928.31,405.17 928.82,405.28 929.33,405.38 929.84,405.46 930.35,405.53 930.86,405.58 931.38,405.63 931.89,405.66 932.40,405.68 932.91,405.69 933.42,405.69 933.93,405.67 934.44,405.64 934.95,405.60 935.46,405.55 935.97,405.48 936.48,405.40 936.99,405.31 937.50,405.21 938.01,405.10 938.52,404.97 939.03,404.83 939.54,404.69 940.05,404.52 940.56,404.35 941.07,404.17 941.58,403.97 942.09,403.76 942.60,403.54 943.11,403.31 943.62,403.07 944.14,402.81 944.65,402.55 945.16,402.27 945.67,401.98 946.18,401.68 946.69,401.37 947.20,401.05 947.71,400.72 948.22,400.38 948.73,400.02 949.24,399.66 949.75,399.28 950.26,398.90 950.77,398.50 951.28,398.09 951.79,397.68 952.30,397.25 952.81,396.81 953.32,396.37 953.83,395.91 954.34,395.44 954.85,394.97 955.36,394.48 955.88,393.99 956.39,393.48 956.90,392.97 957.41,392.44 957.92,391.91 958.43,391.37 958.94,390.82 959.45,390.26 959.96,389.69 960.47,389.11 960.98,388.53 961.49,387.93 962.00,387.33 962.51,386.72 963.02,386.11 963.53,385.48 964.04,384.85 964.55,384.21 965.06,383.56 965.57,382.90 966.08,382.24 966.59,381.57 967.10,380.89 967.61,380.21 968.12,379.52 968.64,378.82 969.15,378.12 969.66,377.41 970.17,376.69 970.68,375.97 971.19,375.24 971.70,374.51 972.21,373.77 972.72,373.03 973.23,372.28 973.74,371.52 974.25,370.76 974.76,370.00 975.27,369.22 975.78,368.45 976.29,367.67 976.80,366.89 977.31,366.10 977.82,365.31 978.33,364.51 978.84,363.71 979.35,362.91 979.86,362.10 980.38,361.29 980.89,360.48 981.40,359.66 981.91,358.84 982.42,358.02 982.93,357.19 983.44,356.37 983.95,355.54 984.46,354.70 984.97,353.87 985.48,353.03 985.99,352.20 986.50,351.36 987.01,350.52 987.52,349.68 988.03,348.83 988.54,347.99 989.05,347.14 989.56,346.30 990.07,345.45 990.58,344.61 991.09,343.76 991.60,342.91 992.11,342.07 992.62,341.22 993.14,340.37 993.65,339.53 994.16,338.68 994.67,337.84 995.18,336.99 995.69,336.15 996.20,335.31 996.71,334.47 997.22,333.63 997.73,332.80 998.24,331.96 998.75,331.13 999.26,330.30 999.77,329.47 1000.28,328.64 1000.79,327.82 1001.30,326.99 1001.81,326.18 1002.32,325.36 1002.83,324.55 1003.34,323.74 1003.85,322.93 1004.36,322.13 1004.88,321.33 1005.39,320.53 1005.90,319.74 1006.41,318.95 1006.92,318.17 1007.43,317.39 1007.94,316.62 1008.45,315.85 1008.96,315.08 1009.47,314.32 1009.98,313.56 1010.49,312.81 1011.00,312.07 1011.51,311.33 1012.02,310.59 1012.53,309.86 1013.04,309.13 1013.55,308.42 1014.06,307.70 1014.57,306.99 1015.08,306.29 1015.59,305.60 1016.10,304.91 1016.61,304.23 1017.12,303.55 1017.64,302.88 1018.15,302.22 1018.66,301.56 1019.17,300.92 1019.68,300.27 1020.19,299.64 1020.70,299.01 1021.21,298.39 1021.72,297.78 1022.23,297.17 1022.74,296.57 1023.25,295.98 1023.76,295.40 1024.27,294.83 1024.78,294.26 1025.29,293.70 1025.80,293.15 1026.31,292.61 1026.82,292.07 1027.33,291.55 1027.84,291.03 1028.35,290.52 1028.86,290.02 1029.38,289.53 1029.89,289.05 1030.40,288.57 1030.91,288.11 1031.42,287.65 1031.93,287.20 1032.44,286.77 1032.95,286.34 1033.46,285.92 1033.97,285.51 1034.48,285.10 1034.99,284.71 1035.50,284.33 1036.01,283.96 1036.52,283.59 1037.03,283.24 1037.54,282.89 1038.05,282.56 1038.56,282.23 1039.07,281.92 1039.58,281.61 1040.09,281.31 1040.60,281.03 1041.11,280.75 1041.62,280.48 1042.14,280.23 1042.65,279.98 1043.16,279.74 1043.67,279.51 1044.18,279.30 1044.69,279.09 1045.20,278.89 1045.71,278.71 1046.22,278.53 1046.73,278.36 1047.24,278.21 1047.75,278.06 1048.26,277.93 1048.77,277.80 1049.28,277.68 1049.79,277.58 1050.30,277.48 1050.81,277.40 1051.32,277.32 1051.83,277.25 1052.34,277.20 1052.85,277.15 1053.36,277.12 1053.88,277.10 1054.39,277.08 1054.90,277.08 1055.41,277.08 1055.92,277.10 1056.43,277.12 1056.94,277.16 1057.45,277.20 1057.96,277.26 1058.47,277.32 1058.98,277.40 1059.49,277.48 1060.00,277.58" fill="none" stroke="#dc2626" stroke-width="3" stroke-linejoin="round" stroke-linecap="round"/>
<rect x="870" y="90" width="18" height="4" fill="#dc2626"/>
<text x="898" y="95" font-family="Arial, sans-serif" font-size="15" fill="#111827">damped</text>
<polyline points="80.00,50.00 80.51,50.05 81.02,50.15 81.53,50.29 82.04,50.48 82.55,50.72 83.06,50.99 83.57,51.31 84.08,51.67 84.59,52.07 85.10,52.51 85.61,52.99 86.12,53.50 86.64,54.05 87.15,54.63 87.66,55.25 88.17,55.90 88.68,56.58 89.19,57.29 89.70,58.03 90.21,58.79 90.72,59.59 91.23,60.41 91.74,61.26 92.25,62.13 92.76,63.03 93.27,63.95 93.78,64.90 94.29,65.86 94.80,66.85 95.31,67.86 95.82,68.89 96.33,69.93 96.84,71.00 97.35,72.08 97.86,73.18 98.38,74.30 98.89,75.43 99.40,76.58 99.91,77.74 100.42,78.92 100.93,80.11 101.44,81.31 101.95,82.53 102.46,83.76 102.97,84.99 103.48,86.24 103.99,87.50 104.50,88.77 105.01,90.05 105.52,91.34 106.03,92.63 106.54,93.94 107.05,95.25 107.56,96.56 108.07,97.89 108.58,99.22 109.09,100.56 109.60,101.90 110.11,103.25 110.62,104.60 111.14,105.96 111.65,107.32 112.16,108.68 112.67,110.05 113.18,111.42 113.69,112.79 114.20,114.17 114.71,115.55 115.22,116.93 115.73,118.31 116.24,119.69 116.75,121.07 117.26,122.46 117.77,123.84 118.28,125.22 118.79,126.61 119.30,127.99 119.81,129.38 120.32,130.76 120.83,132.14 121.34,133.52 121.85,134.90 122.36,136.28 122.88,137.66 123.39,139.03 123.90,140.40 124.41,141.77 124.92,143.14 125.43,144.50 125.94,145.86 126.45,147.22 126.96,148.58 127.47,149.93 127.98,151.28 128.49,152.62 129.00,153.96 129.51,155.30 130.02,156.63 130.53,157.96 131.04,159.28 131.55,160.60 132.06,161.92 132.57,163.23 133.08,164.54 133.59,165.84 134.10,167.13 134.61,168.42 135.12,169.71 135.64,170.99 136.15,172.27 136.66,173.54 137.17,174.80 137.68,176.06 138.19,177.32 138.70,178.56 139.21,179.81 139.72,181.04 140.23,182.28 140.74,183.50 141.25,184.72 141.76,185.93 142.27,187.14 142.78,188.34 143.29,189.53 143.80,190.72 144.31,191.90 144.82,193.08 145.33,194.25 145.84,195.41 146.35,196.57 146.86,197.72 147.38,198.86 147.89,200.00 148.40,201.13 148.91,202.25 149.42,203.37 149.93,204.48 150.44,205.59 150.95,206.68 151.46,207.77 151.97,208.86 152.48,209.94 152.99,211.01 153.50,212.07 154.01,213.13 154.52,214.18 155.03,215.22 155.54,216.26 156.05,217.29 156.56,218.32 157.07,219.33 157.58,220.34 158.09,221.35 158.60,222.35 159.11,223.34 159.62,224.32 160.14,225.30 160.65,226.27 161.16,227.23 161.67,228.19 162.18,229.14 162.69,230.08 163.20,231.02 163.71,231.95 164.22,232.87 164.73,233.79 165.24,234.70 165.75,235.60 166.26,236.50 166.77,237.39 167.28,238.28 167.79,239.15 168.30,240.02 168.81,240.89 169.32,241.75 169.83,242.60 170.34,243.44 170.85,244.28 171.36,245.12 171.88,245.94 172.39,246.76 172.90,247.58 173.41,248.38 173.92,249.19 174.43,249.98 174.94,250.77 175.45,251.55 175.96,252.33 176.47,253.10 176.98,253.86 177.49,254.62 178.00,255.37 178.51,256.12 179.02,256.86 179.53,257.59 180.04,258.32 180.55,259.04 181.06,259.76 181.57,260.47 182.08,261.18 182.59,261.88 183.10,262.57 183.61,263.26 184.12,263.94 184.64,264.62 185.15,265.29 185.66,265.95 186.17,266.61 186.68,267.27 187.19,267.92 187.70,268.56 188.21,269.20 188.72,269.83 189.23,270.46 189.74,271.08 190.25,271.70 190.76,272.31 191.27,272.91 191.78,273.52 192.29,274.11 192.80,274.70 193.31,275.29 193.82,275.87 194.33,276.44 194.84,277.01 195.35,277.58 195.86,278.14 196.38,278.70 196.89,279.25 197.40,279.79 197.91,280.33 198.42,280.87 198.93,281.40 199.44,281.93 199.95,282.45 200.46,282.97 200.97,283.48 201.48,283.99 201.99,284.49 202.50,284.99 203.01,285.49 203.52,285.98 204.03,286.46 204.54,286.94 205.05,287.42 205.56,287.90 206.07,288.36 206.58,288.83 207.09,289.29 207.60,289.74 208.11,290.20 208.62,290.64 209.14,291.09 209.65,291.53 210.16,291.96 210.67,292.40 211.18,292.82 211.69,293.25 212.20,293.67 212.71,294.08 213.22,294.49 213.73,294.90 214.24,295.31 214.75,295.71 215.26,296.10 215.77,296.50 216.28,296.89 216.79,297.27 217.30,297.65 217.81,298.03 218.32,298.41 218.83,298.78 219.34,299.15 219.85,299.51 220.36,299.87 220.88,300.23 221.39,300.58 221.90,300.94 222.41,301.28 222.92,301.63 223.43,301.97 223.94,302.31 224.45,302.64 224.96,302.97 225.47,303.30 225.98,303.63 226.49,303.95 227.00,304.27 227.51,304.58 228.02,304.90 228.53,305.20 229.04,305.51 229.55,305.81 230.06,306.12 230.57,306.41 231.08,306.71 231.59,307.00 232.10,307.29 232.61,307.58 233.12,307.86 233.64,308.14 234.15,308.42 234.66,308.69 235.17,308.97 235.68,309.24 236.19,309.51 236.70,309.77 237.21,310.03 237.72,310.29 238.23,310.55 238.74,310.80 239.25,311.06 239.76,311.31 240.27,311.55 240.78,311.80 241.29,312.04 241.80,312.28 242.31,312.52 242.82,312.75 243.33,312.99 243.84,313.22 244.35,313.44 244.86,313.67 245.38,313.89 245.89,314.12 246.40,314.33 246.91,314.55 247.42,314.77 247.93,314.98 248.44,315.19 248.95,315.40 249.46,315.60 249.97,315.81 250.48,316.01 250.99,316.21 251.50,316.41 252.01,316.61 252.52,316.80 253.03,316.99 253.54,317.18 254.05,317.37 254.56,317.56 255.07,317.74 255.58,317.92 256.09,318.11 256.60,318.28 257.11,318.46 257.62,318.64 258.14,318.81 258.65,318.98 259.16,319.15 259.67,319.32 260.18,319.49 260.69,319.65 261.20,319.82 261.71,319.98 262.22,320.14 262.73,320.30 263.24,320.45 263.75,320.61 264.26,320.76 264.77,320.91 265.28,321.06 265.79,321.21 266.30,321.36 266.81,321.51 267.32,321.65 267.83,321.79 268.34,321.94 268.85,322.08 269.36,322.21 269.88,322.35 270.39,322.49 270.90,322.62 271.41,322.75 271.92,322.88 272.43,323.02 272.94,323.14 273.45,323.27 273.96,323.40 274.47,323.52 274.98,323.65 275.49,323.77 276.00,323.89 276.51,324.01 277.02,324.13 277.53,324.24 278.04,324.36 278.55,324.47 279.06,324.59 279.57,324.70 280.08,324.81 280.59,324.92 281.10,325.03 281.61,325.14 282.12,325.25 282.64,325.35 283.15,325.46 283.66,325.56 284.17,325.66 284.68,325.76 285.19,325.86 285.70,325.96 286.21,326.06 286.72,326.16 287.23,326.25 287.74,326.35 288.25,326.44 288.76,326.53 289.27,326.63 289.78,326.72 290.29,326.81 290.80,326.90 291.31,326.98 291.82,327.07 292.33,327.16 292.84,327.24 293.35,327.33 293.86,327.41 294.38,327.49 294.89,327.58 295.40,327.66 295.91,327.74 296.42,327.82 296.93,327.89 297.44,327.97 297.95,328.05 298.46,328.12 298.97,328.20 299.48,328.27 299.99,328.35 300.50,328.42 301.01,328.49 301.52,328.56 302.03,328.63 302.54,328.70 303.05,328.77 303.56,328.84 304.07,328.91 304.58,328.98 305.09,329.04 305.60,329.11 306.11,329.17 306.62,329.24 307.14,329.30 307.65,329.36 308.16,329.42 308.67,329.49 309.18,329.55 309.69,329.60 310.20,329.66 310.71,329.72 311.22,329.78 311.73,329.84 312.24,329.90 312.75,329.95 313.26,330.01 313.77,330.06 314.28,330.12 314.79,330.17 315.30,330.22 315.81,330.28 316.32,330.33 316.83,330.38 317.34,330.43 317.85,330.48 318.36,330.53 318.88,330.58 319.39,330.63 319.90,330.68 320.41,330.73 320.92,330.77 321.43,330.82 321.94,330.87 322.45,330.91 322.96,330.96 323.47,331.00 323.98,331.05 324.49,331.09 325.00,331.13 325.51,331.18 326.02,331.22 326.53,331.26 327.04,331.30 327.55,331.34 328.06,331.38 328.57,331.42 329.08,331.46 329.59,331.50 330.10,331.54 330.61,331.58 331.12,331.62 331.64,331.65 332.15,331.69 332.66,331.73 333.17,331.77 333.68,331.80 334.19,331.84 334.70,331.87 335.21,331.91 335.72,331.94 336.23,331.97 336.74,332.01 337.25,332.04 337.76,332.07 338.27,332.11 338.78,332.14 339.29,332.17 339.80,332.20 340.31,332.23 340.82,332.27 341.33,332.30 341.84,332.33 342.35,332.36 342.86,332.39 343.38,332.41 343.89,332.44 344.40,332.47 344.91,332.50 345.42,332.53 345.93,332.55 346.44,332.58 346.95,332.61 347.46,332.64 347.97,332.66 348.48,332.69 348.99,332.71 349.50,332.74 350.01,332.77 350.52,332.79 351.03,332.82 351.54,332.84 352.05,332.86 352.56,332.89 353.07,332.91 353.58,332.94 354.09,332.96 354.60,332.98 355.11,333.00 355.62,333.03 356.14,333.05 356.65,333.07 357.16,333.09 357.67,333.11 358.18,333.13 358.69,333.15 359.20,333.18 359.71,333.20 360.22,333.22 360.73,333.24 361.24,333.26 361.75,333.28 362.26,333.30 362.77,333.31 363.28,333.33 363.79,333.35 364.30,333.37 364.81,333.39 365.32,333.41 365.83,333.43 366.34,333.44 366.85,333.46 367.36,333.48 367.88,333.50 368.39,333.51 368.90,333.53 369.41,333.55 369.92,333.56 370.43,333.58 370.94,333.59 371.45,333.61 371.96,333.62 372.47,333.64 372.98,333.66 373.49,333.67 374.00,333.69 374.51,333.70 375.02,333.72 375.53,333.73 376.04,333.74 376.55,333.76 377.06,333.77 377.57,333.79 378.08,333.80 378.59,333.81 379.10,333.83 379.61,333.84 380.12,333.85 380.64,333.87 381.15,333.88 381.66,333.89 382.17,333.90 382.68,333.92 383.19,333.93 383.70,333.94 384.21,333.95 384.72,333.96 385.23,333.98 385.74,333.99 386.25,334.00 386.76,334.01 387.27,334.02 387.78,334.03 388.29,334.04 388.80,334.06 389.31,334.07 389.82,334.08 390.33,334.09 390.84,334.10 391.35,334.11 391.86,334.12 392.38,334.13 392.89,334.14 393.40,334.15 393.91,334.16 394.42,334.17 394.93,334.17 395.44,334.18 395.95,334.19 396.46,334.20 396.97,334.21 397.48,334.22 397.99,334.23 398.50,334.24 399.01,334.25 399.52,334.26 400.03,334.26 400.54,334.27 401.05,334.28 401.56,334.29 402.07,334.30 402.58,334.30 403.09,334.31 403.60,334.32 404.11,334.33 404.62,334.34 405.14,334.34 405.65,334.35 406.16,334.36 406.67,334.37 407.18,334.37 407.69,334.38 408.20,334.39 408.71,334.39 409.22,334.40 409.73,334.41 410.24,334.41 410.75,334.42 411.26,334.43 411.77,334.43 412.28,334.44 412.79,334.45 413.30,334.45 413.81,334.46 414.32,334.47 414.83,334.47 415.34,334.48 415.85,334.48 416.36,334.49 416.88,334.50 417.39,334.50 417.90,334.51 418.41,334.51 418.92,334.52 419.43,334.52 419.94,334.53 420.45,334.53 420.96,334.54 421.47,334.55 421.98,334.55 422.49,334.56 423.00,334.56 423.51,334.57 424.02,334.57 424.53,334.58 425.04,334.58 425.55,334.59 426.06,334.59 426.57,334.59 427.08,334.60 427.59,334.60 428.10,334.61 428.61,334.61 429.12,334.62 429.64,334.62 430.15,334.63 430.66,334.63 431.17,334.63 431.68,334.64 432.19,334.64 432.70,334.65 433.21,334.65 433.72,334.66 434.23,334.66 434.74,334.66 435.25,334.67 435.76,334.67 436.27,334.67 436.78,334.68 437.29,334.68 437.80,334.69 438.31,334.69 438.82,334.69 439.33,334.70 439.84,334.70 440.35,334.70 440.86,334.71 441.38,334.71 441.89,334.71 442.40,334.72 442.91,334.72 443.42,334.72 443.93,334.73 444.44,334.73 444.95,334.73 445.46,334.73 445.97,334.74 446.48,334.74 446.99,334.74 447.50,334.75 448.01,334.75 448.52,334.75 449.03,334.75 449.54,334.76 450.05,334.76 450.56,334.76 451.07,334.77 451.58,334.77 452.09,334.77 452.60,334.77 453.11,334.78 453.62,334.78 454.14,334.78 454.65,334.78 455.16,334.79 455.67,334.79 456.18,334.79 456.69,334.79 457.20,334.80 457.71,334.80 458.22,334.80 458.73,334.80 459.24,334.81 459.75,334.81 460.26,334.81 460.77,334.81 461.28,334.81 461.79,334.82 462.30,334.82 462.81,334.82 463.32,334.82 463.83,334.82 464.34,334.83 464.85,334.83 465.36,334.83 465.88,334.83 466.39,334.83 466.90,334.84 467.41,334.84 467.92,334.84 468.43,334.84 468.94,334.84 469.45,334.85 469.96,334.85 470.47,334.85 470.98,334.85 471.49,334.85 472.00,334.85 472.51,334.86 473.02,334.86 473.53,334.86 474.04,334.86 474.55,334.86 475.06,334.86 475.57,334.87 476.08,334.87 476.59,334.87 477.10,334.87 477.61,334.87 478.12,334.87 478.64,334.87 479.15,334.88 479.66,334.88 480.17,334.88 480.68,334.88 481.19,334.88 481.70,334.88 482.21,334.88 482.72,334.89 483.23,334.89 483.74,334.89 484.25,334.89 484.76,334.89 485.27,334.89 485.78,334.89 486.29,334.89 486.80,334.90 487.31,334.90 487.82,334.90 488.33,334.90 488.84,334.90 489.35,334.90 489.86,334.90 490.38,334.90 490.89,334.91 491.40,334.91 491.91,334.91 492.42,334.91 492.93,334.91 493.44,334.91 493.95,334.91 494.46,334.91 494.97,334.91 495.48,334.91 495.99,334.92 496.50,334.92 497.01,334.92 497.52,334.92 498.03,334.92 498.54,334.92 499.05,334.92 499.56,334.92 500.07,334.92 500.58,334.92 501.09,334.92 501.60,334.93 502.11,334.93 502.62,334.93 503.14,334.93 503.65,334.93 504.16,334.93 504.67,334.93 505.18,334.93 505.69,334.93 506.20,334.93 506.71,334.93 507.22,334.93 507.73,334.94 508.24,334.94 508.75,334.94 509.26,334.94 509.77,334.94 510.28,334.94 510.79,334.94 511.30,334.94 511.81,334.94 512.32,334.94 512.83,334.94 513.34,334.94 513.85,334.94 514.36,334.94 514.88,334.95 515.39,334.95 515.90,334.95 516.41,334.95 516.92,334.95 517.43,334.95 517.94,334.95 518.45,334.95 518.96,334.95 519.47,334.95 519.98,334.95 520.49,334.95 521.00,334.95 521.51,334.95 522.02,334.95 522.53,334.95 523.04,334.95 523.55,334.95 524.06,334.96 524.57,334.96 525.08,334.96 525.59,334.96 526.10,334.96 526.61,334.96 527.12,334.96 527.64,334.96 528.15,334.96 528.66,334.96 529.17,334.96 529.68,334.96 530.19,334.96 530.70,334.96 531.21,334.96 531.72,334.96 532.23,334.96 532.74,334.96 533.25,334.96 533.76,334.96 534.27,334.96 534.78,334.97 535.29,334.97 535.80,334.97 536.31,334.97 536.82,334.97 537.33,334.97 537.84,334.97 538.35,334.97 538.86,334.97 539.38,334.97 539.89,334.97 540.40,334.97 540.91,334.97 541.42,334.97 541.93,334.97 542.44,334.97 542.95,334.97 543.46,334.97 543.97,334.97 544.48,334.97 544.99,334.97 545.50,334.97 546.01,334.97 546.52,334.97 547.03,334.97 547.54,334.97 548.05,334.97 548.56,334.97 549.07,334.97 549.58,334.98 550.09,334.98 550.60,334.98 551.11,334.98 551.62,334.98 552.14,334.98 552.65,334.98 553.16,334.98 553.67,334.98 554.18,334.98 554.69,334.98 555.20,334.98 555.71,334.98 556.22,334.98 556.73,334.98 557.24,334.98 557.75,334.98 558.26,334.98 558.77,334.98 559.28,334.98 559.79,334.98 560.30,334.98 560.81,334.98 561.32,334.98 561.83,334.98 562.34,334.98 562.85,334.98 563.36,334.98 563.88,334.98 564.39,334.98 564.90,334.98 565.41,334.98 565.92,334.98 566.43,334.98 566.94,334.98 567.45,334.98 567.96,334.98 568.47,334.98 568.98,334.98 569.49,334.98 570.00,334.98 570.51,334.98 571.02,334.98 571.53,334.98 572.04,334.99 572.55,334.99 573.06,334.99 573.57,334.99 574.08,334.99 574.59,334.99 575.10,334.99 575.61,334.99 576.12,334.99 576.64,334.99 577.15,334.99 577.66,334.99 578.17,334.99 578.68,334.99 579.19,334.99 579.70,334.99 580.21,334.99 580.72,334.99 581.23,334.99 581.74,334.99 582.25,334.99 582.76,334.99 583.27,334.99 583.78,334.99 584.29,334.99 584.80,334.99 585.31,334.99 585.82,334.99 586.33,334.99 586.84,334.99 587.35,334.99 587.86,334.99 588.38,334.99 588.89,334.99 589.40,334.99 589.91,334.99 590.42,334.99 590.93,334.99 591.44,334.99 591.95,334.99 592.46,334.99 592.97,334.99 593.48,334.99 593.99,334.99 594.50,334.99 595.01,334.99 595.52,334.99 596.03,334.99 596.54,334.99 597.05,334.99 597.56,334.99 598.07,334.99 598.58,334.99 599.09,334.99 599.60,334.99 600.11,334.99 600.62,334.99 601.14,334.99 601.65,334.99 602.16,334.99 602.67,334.99 603.18,334.99 603.69,334.99 604.20,334.99 604.71,334.99 605.22,334.99 605.73,334.99 606.24,334.99 606.75,334.99 607.26,334.99 607.77,334.99 608.28,334.99 608.79,334.99 609.30,334.99 609.81,334.99 610.32,334.99 610.83,334.99 611.34,334.99 611.85,334.99 612.36,334.99 612.88,334.99 613.39,334.99 613.90,334.99 614.41,334.99 614.92,334.99 615.43,334.99 615.94,334.99 616.45,334.99 616.96,334.99 617.47,334.99 617.98,334.99 618.49,334.99 619.00,334.99 619.51,334.99 620.02,335.00 620.53,335.00 621.04,335.00 621.55,335.00 622.06,335.00 622.57,335.00 623.08,335.00 623.59,335.00 624.10,335.00 624.61,335.00 625.12,335.00 625.64,335.00 626.15,335.00 626.66,335.00 627.17,335.00 627.68,335.00 628.19,335.00 628.70,335.00 629.21,335.00 629.72,335.00 630.23,335.00 630.74,335.00 631.25,335.00 631.76,335.00 632.27,335.00 632.78,335.00 633.29,335.00 633.80,335.00 634.31,335.00 634.82,335.00 635.33,335.00 635.84,335.00 636.35,335.00 636.86,335.00 637.38,335.00 637.89,335.00 638.40,335.00 638.91,335.00 639.42,335.00 639.93,335.00 640.44,335.00 640.95,335.00 641.46,335.00 641.97,335.00 642.48,335.00 642.99,335.00 643.50,335.00 644.01,335.00 644.52,335.00 645.03,335.00 645.54,335.00 646.05,335.00 646.56,335.00 647.07,335.00 647.58,335.00 648.09,335.00 648.60,335.00 649.11,335.00 649.62,335.00 650.14,335.00 650.65,335.00 651.16,335.00 651.67,335.00 652.18,335.00 652.69,335.00 653.20,335.00 653.71,335.00 654.22,335.00 654.73,335.00 655.24,335.00 655.75,335.00 656.26,335.00 656.77,335.00 657.28,335.00 657.79,335.00 658.30,335.00 658.81,335.00 659.32,335.00 659.83,335.00 660.34,335.00 660.85,335.00 661.36,335.00 661.88,335.00 662.39,335.00 662.90,335.00 663.41,335.00 663.92,335.00 664.43,335.00 664.94,335.00 665.45,335.00 665.96,335.00 666.47,335.00 666.98,335.00 667.49,335.00 668.00,335.00 668.51,335.00 669.02,335.00 669.53,335.00 670.04,335.00 670.55,335.00 671.06,335.00 671.57,335.00 672.08,335.00 672.59,335.00 673.10,335.00 673.61,335.00 674.12,335.00 674.64,335.00 675.15,335.00 675.66,335.00 676.17,335.00 676.68,335.00 677.19,335.00 677.70,335.00 678.21,335.00 678.72,335.00 679.23,335.00 679.74,335.00 680.25,335.00 680.76,335.00 681.27,335.00 681.78,335.00 682.29,335.00 682.80,335.00 683.31,335.00 683.82,335.00 684.33,335.00 684.84,335.00 685.35,335.00 685.86,335.00 686.38,335.00 686.89,335.00 687.40,335.00 687.91,335.00 688.42,335.00 688.93,335.00 689.44,335.00 689.95,335.00 690.46,335.00 690.97,335.00 691.48,335.00 691.99,335.00 692.50,335.00 693.01,335.00 693.52,335.00 694.03,335.00 694.54,335.00 695.05,335.00 695.56,335.00 696.07,335.00 696.58,335.00 697.09,335.00 697.60,335.00 698.11,335.00 698.62,335.00 699.14,335.00 699.65,335.00 700.16,335.00 700.67,335.00 701.18,335.00 701.69,335.00 702.20,335.00 702.71,335.00 703.22,335.00 703.73,335.00 704.24,335.00 704.75,335.00 705.26,335.00 705.77,335.00 706.28,335.00 706.79,335.00 707.30,335.00 707.81,335.00 708.32,335.00 708.83,335.00 709.34,335.00 709.85,335.00 710.36,335.00 710.88,335.00 711.39,335.00 711.90,335.00 712.41,335.00 712.92,335.00 713.43,335.00 713.94,335.00 714.45,335.00 714.96,335.00 715.47,335.00 715.98,335.00 716.49,335.00 717.00,335.00 717.51,335.00 718.02,335.00 718.53,335.00 719.04,335.00 719.55,335.00 720.06,335.00 720.57,335.00 721.08,335.00 721.59,335.00 722.10,335.00 722.61,335.00 723.12,335.00 723.64,335.00 724.15,335.00 724.66,335.00 725.17,335.00 725.68,335.00 726.19,335.00 726.70,335.00 727.21,335.00 727.72,335.00 728.23,335.00 728.74,335.00 729.25,335.00 729.76,335.00 730.27,335.00 730.78,335.00 731.29,335.00 731.80,335.00 732.31,335.00 732.82,335.00 733.33,335.00 733.84,335.00 734.35,335.00 734.86,335.00 735.38,335.00 735.89,335.00 736.40,335.00 736.91,335.00 737.42,335.00 737.93,335.00 738.44,335.00 738.95,335.00 739.46,335.00 739.97,335.00 740.48,335.00 740.99,335.00 741.50,335.00 742.01,335.00 742.52,335.00 743.03,335.00 743.54,335.00 744.05,335.00 744.56,335.00 745.07,335.00 745.58,335.00 746.09,335.00 746.60,335.00 747.11,335.00 747.62,335.00 748.14,335.00 748.65,335.00 749.16,335.00 749.67,335.00 750.18,335.00 750.69,335.00 751.20,335.00 751.71,335.00 752.22,335.00 752.73,335.00 753.24,335.00 753.75,335.00 754.26,335.00 754.77,335.00 755.28,335.00 755.79,335.00 756.30,335.00 756.81,335.00 757.32,335.00 757.83,335.00 758.34,335.00 758.85,335.00 759.36,335.00 759.88,335.00 760.39,335.00 760.90,335.00 761.41,335.00 761.92,335.00 762.43,335.00 762.94,335.00 763.45,335.00 763.96,335.00 764.47,335.00 764.98,335.00 765.49,335.00 766.00,335.00 766.51,335.00 767.02,335.00 767.53,335.00 768.04,335.00 768.55,335.00 769.06,335.00 769.57,335.00 770.08,335.00 770.59,335.00 771.10,335.00 771.61,335.00 772.12,335.00 772.64,335.00 773.15,335.00 773.66,335.00 774.17,335.00 774.68,335.00 775.19,335.00 775.70,335.00 776.21,335.00 776.72,335.00 777.23,335.00 777.74,335.00 778.25,335.00 778.76,335.00 779.27,335.00 779.78,335.00 780.29,335.00 780.80,335.00 781.31,335.00 781.82,335.00 782.33,335.00 782.84,335.00 783.35,335.00 783.86,335.00 784.38,335.00 784.89,335.00 785.40,335.00 785.91,335.00 786.42,335.00 786.93,335.00 787.44,335.00 787.95,335.00 788.46,335.00 788.97,335.00 789.48,335.00 789.99,335.00 790.50,335.00 791.01,335.00 791.52,335.00 792.03,335.00 792.54,335.00 793.05,335.00 793.56,335.00 794.07,335.00 794.58,335.00 795.09,335.00 795.60,335.00 796.11,335.00 796.62,335.00 797.14,335.00 797.65,335.00 798.16,335.00 798.67,335.00 799.18,335.00 799.69,335.00 800.20,335.00 800.71,335.00 801.22,335.00 801.73,335.00 802.24,335.00 802.75,335.00 803.26,335.00 803.77,335.00 804.28,335.00 804.79,335.00 805.30,335.00 805.81,335.00 806.32,335.00 806.83,335.00 807.34,335.00 807.85,335.00 808.36,335.00 808.88,335.00 809.39,335.00 809.90,335.00 810.41,335.00 810.92,335.00 811.43,335.00 811.94,335.00 812.45,335.00 812.96,335.00 813.47,335.00 813.98,335.00 814.49,335.00 815.00,335.00 815.51,335.00 816.02,335.00 816.53,335.00 817.04,335.00 817.55,335.00 818.06,335.00 818.57,335.00 819.08,335.00 819.59,335.00 820.10,335.00 820.61,335.00 821.12,335.00 821.64,335.00 822.15,335.00 822.66,335.00 823.17,335.00 823.68,335.00 824.19,335.00 824.70,335.00 825.21,335.00 825.72,335.00 826.23,335.00 826.74,335.00 827.25,335.00 827.76,335.00 828.27,335.00 828.78,335.00 829.29,335.00 829.80,335.00 830.31,335.00 830.82,335.00 831.33,335.00 831.84,335.00 832.35,335.00 832.86,335.00 833.38,335.00 833.89,335.00 834.40,335.00 834.91,335.00 835.42,335.00 835.93,335.00 836.44,335.00 836.95,335.00 837.46,335.00 837.97,335.00 838.48,335.00 838.99,335.00 839.50,335.00 840.01,335.00 840.52,335.00 841.03,335.00 841.54,335.00 842.05,335.00 842.56,335.00 843.07,335.00 843.58,335.00 844.09,335.00 844.60,335.00 845.11,335.00 845.62,335.00 846.14,335.00 846.65,335.00 847.16,335.00 847.67,335.00 848.18,335.00 848.69,335.00 849.20,335.00 849.71,335.00 850.22,335.00 850.73,335.00 851.24,335.00 851.75,335.00 852.26,335.00 852.77,335.00 853.28,335.00 853.79,335.00 854.30,335.00 854.81,335.00 855.32,335.00 855.83,335.00 856.34,335.00 856.85,335.00 857.36,335.00 857.88,335.00 858.39,335.00 858.90,335.00 859.41,335.00 859.92,335.00 860.43,335.00 860.94,335.00 861.45,335.00 861.96,335.00 862.47,335.00 862.98,335.00 863.49,335.00 864.00,335.00 864.51,335.00 865.02,335.00 865.53,335.00 866.04,335.00 866.55,335.00 867.06,335.00 867.57,335.00 868.08,335.00 868.59,335.00 869.10,335.00 869.61,335.00 870.12,335.00 870.64,335.00 871.15,335.00 871.66,335.00 872.17,335.00 872.68,335.00 873.19,335.00 873.70,335.00 874.21,335.00 874.72,335.00 875.23,335.00 875.74,335.00 876.25,335.00 876.76,335.00 877.27,335.00 877.78,335.00 878.29,335.00 878.80,335.00 879.31,335.00 879.82,335.00 880.33,335.00 880.84,335.00 881.35,335.00 881.86,335.00 882.38,335.00 882.89,335.00 883.40,335.00 883.91,335.00 884.42,335.00 884.93,335.00 885.44,335.00 885.95,335.00 886.46,335.00 886.97,335.00 887.48,335.00 887.99,335.00 888.50,335.00 889.01,335.00 889.52,335.00 890.03,335.00 890.54,335.00 891.05,335.00 891.56,335.00 892.07,335.00 892.58,335.00 893.09,335.00 893.60,335.00 894.11,335.00 894.62,335.00 895.14,335.00 895.65,335.00 896.16,335.00 896.67,335.00 897.18,335.00 897.69,335.00 898.20,335.00 898.71,335.00 899.22,335.00 899.73,335.00 900.24,335.00 900.75,335.00 901.26,335.00 901.77,335.00 902.28,335.00 902.79,335.00 903.30,335.00 903.81,335.00 904.32,335.00 904.83,335.00 905.34,335.00 905.85,335.00 906.36,335.00 906.88,335.00 907.39,335.00 907.90,335.00 908.41,335.00 908.92,335.00 909.43,335.00 909.94,335.00 910.45,335.00 910.96,335.00 911.47,335.00 911.98,335.00 912.49,335.00 913.00,335.00 913.51,335.00 914.02,335.00 914.53,335.00 915.04,335.00 915.55,335.00 916.06,335.00 916.57,335.00 917.08,335.00 917.59,335.00 918.10,335.00 918.61,335.00 919.12,335.00 919.64,335.00 920.15,335.00 920.66,335.00 921.17,335.00 921.68,335.00 922.19,335.00 922.70,335.00 923.21,335.00 923.72,335.00 924.23,335.00 924.74,335.00 925.25,335.00 925.76,335.00 926.27,335.00 926.78,335.00 927.29,335.00 927.80,335.00 928.31,335.00 928.82,335.00 929.33,335.00 929.84,335.00 930.35,335.00 930.86,335.00 931.38,335.00 931.89,335.00 932.40,335.00 932.91,335.00 933.42,335.00 933.93,335.00 934.44,335.00 934.95,335.00 935.46,335.00 935.97,335.00 936.48,335.00 936.99,335.00 937.50,335.00 938.01,335.00 938.52,335.00 939.03,335.00 939.54,335.00 940.05,335.00 940.56,335.00 941.07,335.00 941.58,335.00 942.09,335.00 942.60,335.00 943.11,335.00 943.62,335.00 944.14,335.00 944.65,335.00 945.16,335.00 945.67,335.00 946.18,335.00 946.69,335.00 947.20,335.00 947.71,335.00 948.22,335.00 948.73,335.00 949.24,335.00 949.75,335.00 950.26,335.00 950.77,335.00 951.28,335.00 951.79,335.00 952.30,335.00 952.81,335.00 953.32,335.00 953.83,335.00 954.34,335.00 954.85,335.00 955.36,335.00 955.88,335.00 956.39,335.00 956.90,335.00 957.41,335.00 957.92,335.00 958.43,335.00 958.94,335.00 959.45,335.00 959.96,335.00 960.47,335.00 960.98,335.00 961.49,335.00 962.00,335.00 962.51,335.00 963.02,335.00 963.53,335.00 964.04,335.00 964.55,335.00 965.06,335.00 965.57,335.00 966.08,335.00 966.59,335.00 967.10,335.00 967.61,335.00 968.12,335.00 968.64,335.00 969.15,335.00 969.66,335.00 970.17,335.00 970.68,335.00 971.19,335.00 971.70,335.00 972.21,335.00 972.72,335.00 973.23,335.00 973.74,335.00 974.25,335.00 974.76,335.00 975.27,335.00 975.78,335.00 976.29,335.00 976.80,335.00 977.31,335.00 977.82,335.00 978.33,335.00 978.84,335.00 979.35,335.00 979.86,335.00 980.38,335.00 980.89,335.00 981.40,335.00 981.91,335.00 982.42,335.00 982.93,335.00 983.44,335.00 983.95,335.00 984.46,335.00 984.97,335.00 985.48,335.00 985.99,335.00 986.50,335.00 987.01,335.00 987.52,335.00 988.03,335.00 988.54,335.00 989.05,335.00 989.56,335.00 990.07,335.00 990.58,335.00 991.09,335.00 991.60,335.00 992.11,335.00 992.62,335.00 993.14,335.00 993.65,335.00 994.16,335.00 994.67,335.00 995.18,335.00 995.69,335.00 996.20,335.00 996.71,335.00 997.22,335.00 997.73,335.00 998.24,335.00 998.75,335.00 999.26,335.00 999.77,335.00 1000.28,335.00 1000.79,335.00 1001.30,335.00 1001.81,335.00 1002.32,335.00 1002.83,335.00 1003.34,335.00 1003.85,335.00 1004.36,335.00 1004.88,335.00 1005.39,335.00 1005.90,335.00 1006.41,335.00 1006.92,335.00 1007.43,335.00 1007.94,335.00 1008.45,335.00 1008.96,335.00 1009.47,335.00 1009.98,335.00 1010.49,335.00 1011.00,335.00 1011.51,335.00 1012.02,335.00 1012.53,335.00 1013.04,335.00 1013.55,335.00 1014.06,335.00 1014.57,335.00 1015.08,335.00 1015.59,335.00 1016.10,335.00 1016.61,335.00 1017.12,335.00 1017.64,335.00 1018.15,335.00 1018.66,335.00 1019.17,335.00 1019.68,335.00 1020.19,335.00 1020.70,335.00 1021.21,335.00 1021.72,335.00 1022.23,335.00 1022.74,335.00 1023.25,335.00 1023.76,335.00 1024.27,335.00 1024.78,335.00 1025.29,335.00 1025.80,335.00 1026.31,335.00 1026.82,335.00 1027.33,335.00 1027.84,335.00 1028.35,335.00 1028.86,335.00 1029.38,335.00 1029.89,335.00 1030.40,335.00 1030.91,335.00 1031.42,335.00 1031.93,335.00 1032.44,335.00 1032.95,335.00 1033.46,335.00 1033.97,335.00 1034.48,335.00 1034.99,335.00 1035.50,335.00 1036.01,335.00 1036.52,335.00 1037.03,335.00 1037.54,335.00 1038.05,335.00 1038.56,335.00 1039.07,335.00 1039.58,335.00 1040.09,335.00 1040.60,335.00 1041.11,335.00 1041.62,335.00 1042.14,335.00 1042.65,335.00 1043.16,335.00 1043.67,335.00 1044.18,335.00 1044.69,335.00 1045.20,335.00 1045.71,335.00 1046.22,335.00 1046.73,335.00 1047.24,335.00 1047.75,335.00 1048.26,335.00 1048.77,335.00 1049.28,335.00 1049.79,335.00 1050.30,335.00 1050.81,335.00 1051.32,335.00 1051.83,335.00 1052.34,335.00 1052.85,335.00 1053.36,335.00 1053.88,335.00 1054.39,335.00 1054.90,335.00 1055.41,335.00 1055.92,335.00 1056.43,335.00 1056.94,335.00 1057.45,335.00 1057.96,335.00 1058.47,335.00 1058.98,335.00 1059.49,335.00 1060.00,335.00" fill="none" stroke="#059669" stroke-width="3" stroke-linejoin="round" stroke-linecap="round"/>
<rect x="870" y="118" width="18" height="4" fill="#059669"/>
<text x="898" y="123" font-family="Arial, sans-serif" font-size="15" fill="#111827">critical</text>
</svg>
