<svg xmlns="http://www.w3.org/2000/svg" width="1100" height="700" viewBox="0 0 1100 700">
<rect width="100%" height="100%" fill="#f8fafc"/>
<text x="80" y="32" font-family="Arial, sans-serif" font-size="24" fill="#111827">Hot Gas (4x temperature)</text>
<line x1="80.00" y1="620.00" x2="1060.00" y2="620.00" stroke="#374151" stroke-width="2"/>
<line x1="80.00" y1="620.00" x2="80.00" y2="50.00" stroke="#374151" stroke-width="2"/>
<text x="550.00" y="672" text-anchor="middle" font-family="Arial, sans-serif" font-size="16" fill="#374151">speed v (m/s)</text>
<text x="22" y="350.00" text-anchor="middle" transform="rotate(-90 22 350.00)" font-family="Arial, sans-serif" font-size="16" fill="#374151">probability density</text>
<text x="80" y="646" font-family="Arial, sans-serif" font-size="13" fill="#6b7280">0.00</text>
<text x="1060" y="646" text-anchor="end" font-family="Arial, sans-serif" font-size="13" fill="#6b7280">5.04</text>
<text x="68" y="620.00" text-anchor="end" dominant-baseline="middle" font-family="Arial, sans-serif" font-size="13" fill="#6b7280">0.000</text>
<text x="68" y="50.00" text-anchor="end" dominant-baseline="middle" font-family="Arial, sans-serif" font-size="13" fill="#6b7280">5.937</text>
<rect x="80.00" y="616.28" width="36.69" height="3.72" fill="#2563eb" opacity="0.55"/>
<rect x="117.69" y="610.09" width="36.69" height="9.91" fill="#2563eb" opacity="0.55"/>
<rect x="155.38" y="601.41" width="36.69" height="18.59" fill="#2563eb" opacity="0.55"/>
<rect x="193.08" y="591.50" width="36.69" height="28.50" fill="#2563eb" opacity="0.55"/>
<rect x="230.77" y="571.67" width="36.69" height="48.33" fill="#2563eb" opacity="0.55"/>
<rect x="268.46" y="585.30" width="36.69" height="34.70" fill="#2563eb" opacity="0.55"/>
<rect x="306.15" y="575.39" width="36.69" height="44.61" fill="#2563eb" opacity="0.55"/>
<rect x="343.85" y="591.50" width="36.69" height="28.50" fill="#2563eb" opacity="0.55"/>
<rect x="381.54" y="577.87" width="36.69" height="42.13" fill="#2563eb" opacity="0.55"/>
<rect x="419.23" y="574.15" width="36.69" height="45.85" fill="#2563eb" opacity="0.55"/>
<rect x="456.92" y="580.35" width="36.69" height="39.65" fill="#2563eb" opacity="0.55"/>
<rect x="494.62" y="592.74" width="36.69" height="27.26" fill="#2563eb" opacity="0.55"/>
<rect x="532.31" y="595.22" width="36.69" height="24.78" fill="#2563eb" opacity="0.55"/>
<rect x="570.00" y="600.17" width="36.69" height="19.83" fill="#2563eb" opacity="0.55"/>
<rect x="607.69" y="596.46" width="36.69" height="23.54" fill="#2563eb" opacity="0.55"/>
<rect x="645.38" y="603.89" width="36.69" height="16.11" fill="#2563eb" opacity="0.55"/>
<rect x="683.08" y="610.09" width="36.69" height="9.91" fill="#2563eb" opacity="0.55"/>
<rect x="720.77" y="613.80" width="36.69" height="6.20" fill="#2563eb" opacity="0.55"/>
<rect x="758.46" y="617.52" width="36.69" height="2.48" fill="#2563eb" opacity="0.55"/>
<rect x="796.15" y="617.52" width="36.69" height="2.48" fill="#2563eb" opacity="0.55"/>
<rect x="833.85" y="616.28" width="36.69" height="3.72" fill="#2563eb" opacity="0.55"/>
<rect x="871.54" y="612.57" width="36.69" height="7.43" fill="#2563eb" opacity="0.55"/>
<rect x="909.23" y="617.52" width="36.69" height="2.48" fill="#2563eb" opacity="0.55"/>
<rect x="946.92" y="616.28" width="36.69" height="3.72" fill="#2563eb" opacity="0.55"/>
<rect x="984.62" y="618.76" width="36.69" height="1.24" fill="#2563eb" opacity="0.55"/>
<rect x="1022.31" y="620.00" width="36.69" height="0.00" fill="#2563eb" opacity="0.55"/>
<rect x="456.92" y="124.35" width="36.69" height="495.65" fill="none" stroke="#9ca3af" stroke-width="1.5" stroke-dasharray="3,3"/>
<polyline points="80.00,620.00 117.69,610.79 155.38,602.09 193.08,594.37 230.77,587.99 268.46,583.23 306.15,580.20 343.85,578.90 381.54,579.19 419.23,580.86 456.92,583.61 494.62,587.12 532.31,591.09 570.00,595.23 607.69,599.29 645.38,603.10 683.08,606.52 720.77,609.49 758.46,611.98 796.15,614.02 833.85,615.63 871.54,616.88 909.23,617.82 946.92,618.50 984.62,618.99 1022.31,619.34 1060.00,619.57" fill="none" stroke="#dc2626" stroke-width="3"/>
<line x1="424.92" y1="50.00" x2="424.92" y2="620.00" stroke="#059669" stroke-width="1.5" stroke-dasharray="5,4"/>
<rect x="800" y="62" width="18" height="12" fill="#2563eb"/>
<text x="824" y="73" font-family="Arial, sans-serif" font-size="15" fill="#111827">final speeds (sim)</text>
<rect x="800" y="88" width="18" height="12" fill="#9ca3af"/>
<text x="824" y="99" font-family="Arial, sans-serif" font-size="15" fill="#111827">initial speeds</text>
<rect x="800" y="114" width="18" height="12" fill="#dc2626"/>
<text x="824" y="125" font-family="Arial, sans-serif" font-size="15" fill="#111827">Maxwell-Boltzmann</text>
<rect x="800" y="140" width="18" height="12" fill="#059669"/>
<text x="824" y="151" font-family="Arial, sans-serif" font-size="15" fill="#111827">mean speed (theory)</text>
</svg>
